{"channelList":[{"type":"InstrumentChannel","data":{"mute":false,"solo":false,"gainAutomation":[{"time":0,"value":-14}],"id":"06c9bfcf-36c6-4acf-aa9b-fc6e61828840","instrument":{"config":{"type":"generalMidiSynth","data":{"programId":74,"isPercussion":false}},"name":"Recorder"},"name":"instrument","regions":[{"loopCount":1,"position":0,"color":"#FF6600","id":"5e89d3c1-198f-40d6-b987-9df194afdf97","name":"Note Clip","notes":[{"length":123,"position":13469.538461538463,"velocity":0.5039370078740157,"pitch":67,"id":"193a1bc5-669b-436f-91c7-41d32b94724f"},{"length":66,"position":13558.153846153848,"velocity":0.5275590551181102,"pitch":74,"id":"a18932b0-e5fb-45d1-b7aa-5434a931fded"},{"length":95,"position":13735.384615384617,"velocity":0.5354330708661418,"pitch":67,"id":"68d5d489-8a92-4434-a976-c2d3833a67e5"},{"length":98,"position":13824.000000000002,"velocity":0.5433070866141733,"pitch":73,"id":"ccac003e-f990-4a1b-ba6b-e63c6f730c42"},{"length":116,"position":13912.615384615385,"velocity":0.49606299212598426,"pitch":74,"id":"ea86bd04-b1b4-4c56-9a0a-706b89287f9f"},{"length":96,"position":14001.23076923077,"velocity":0.49606299212598426,"pitch":73,"id":"8f491c1c-42ef-4ae7-a845-0c96f0a53053"},{"length":85,"position":14089.846153846154,"velocity":0.5354330708661418,"pitch":70,"id":"c87c5b44-ccb4-459d-8dcc-f0fb275a0eaf"},{"length":89,"position":14178.461538461539,"velocity":0.5433070866141733,"pitch":67,"id":"303d5380-d1dd-4f99-933b-60bc4a9e0837"},{"length":76,"position":14267.076923076924,"velocity":0.5118110236220472,"pitch":74,"id":"3cd99519-dce6-4943-bee0-0823578ba3ea"},{"length":73,"position":14444.307692307693,"velocity":0.5118110236220472,"pitch":67,"id":"89467f85-ce74-4822-9092-326ff1c1f28a"},{"length":96,"position":14532.923076923078,"velocity":0.5275590551181102,"pitch":73,"id":"5d67fb0b-44af-49fc-949b-52257a09ffab"},{"length":122,"position":14621.538461538463,"velocity":0.5354330708661418,"pitch":74,"id":"70bd39ef-ab10-49c8-8994-a7d8b747e3b0"},{"length":97,"position":14710.153846153848,"velocity":0.5354330708661418,"pitch":73,"id":"76b570b9-52a3-4943-b336-3757f6acb2ad"},{"length":93,"position":14798.769230769232,"velocity":0.5275590551181102,"pitch":70,"id":"c197115a-6a8e-4b97-8531-c3a3e87de03a"},{"length":93,"position":14887.384615384617,"velocity":0.5354330708661418,"pitch":67,"id":"9dc27dde-e837-4684-ad85-a18df5b64a15"},{"length":62,"position":14976.000000000002,"velocity":0.5275590551181102,"pitch":74,"id":"95e8678d-4632-4b4f-b722-c62cb4d952a4"},{"length":100,"position":15153.23076923077,"velocity":0.5039370078740157,"pitch":67,"id":"e91475de-8d9b-482a-99e4-cfa18c2c56e3"},{"length":101,"position":15241.846153846154,"velocity":0.5196850393700787,"pitch":73,"id":"e7daeefd-9dbe-42c8-8ac7-e0490cc75525"},{"length":122,"position":15330.461538461539,"velocity":0.5039370078740157,"pitch":74,"id":"a9118614-a92a-4e57-93a7-19db6b60409c"},{"length":96,"position":15419.076923076924,"velocity":0.49606299212598426,"pitch":73,"id":"7e3abe9b-caf8-4b68-872c-0efa3385fd9e"},{"length":98,"position":15507.692307692309,"velocity":0.5354330708661418,"pitch":70,"id":"c487bd48-0846-4173-853b-807d3abc146d"},{"length":96,"position":15596.307692307693,"velocity":0.5354330708661418,"pitch":67,"id":"e4484fed-7482-4133-b254-34b50f78fa67"},{"length":67,"position":15684.923076923078,"velocity":0.5354330708661418,"pitch":74,"id":"0bdf7dce-33cc-4837-9a6d-c4c7f970fa0f"},{"length":102,"position":15862.153846153848,"velocity":0.5039370078740157,"pitch":67,"id":"f92892d0-fcb6-4e90-9cd8-0d95189c371f"},{"length":93,"position":15950.769230769232,"velocity":0.5433070866141733,"pitch":73,"id":"78168cbc-8232-4e76-9b64-2519fd01ec76"},{"length":113,"position":16039.384615384617,"velocity":0.49606299212598426,"pitch":74,"id":"c9b94b41-9332-439c-ac47-d3391a8f3c48"},{"length":106,"position":16128.000000000002,"velocity":0.5433070866141733,"pitch":73,"id":"a6e3f23c-ca91-4ca7-a91b-5e38addcc4ac"},{"length":67,"position":16215.692307692309,"velocity":0.5118110236220472,"pitch":70,"id":"c91a32c3-4df0-4567-97cc-3957bbf63973"},{"length":96,"position":16305.23076923077,"velocity":0.5118110236220472,"pitch":72,"id":"5ff1c6c7-2f95-4ac4-9960-5eddc909ceb7"},{"length":94,"position":16392.923076923078,"velocity":0.5039370078740157,"pitch":79,"id":"d6cad8af-86d2-4c23-90b3-0251455de440"},{"length":80,"position":16570.153846153848,"velocity":0.5275590551181102,"pitch":72,"id":"27da9cce-1ca2-44e3-8705-8037a3bff41f"},{"length":93,"position":16659.69230769231,"velocity":0.5354330708661418,"pitch":78,"id":"fa3c5ca9-b46e-4667-a22b-88fa1d87cf12"},{"length":118,"position":16748.307692307695,"velocity":0.5433070866141733,"pitch":79,"id":"d5724f90-6cf9-4fd6-92e2-19d0b3d80a4c"},{"length":94,"position":16836.923076923078,"velocity":0.5118110236220472,"pitch":78,"id":"a242fe4f-0f9f-4d1c-ba8e-5378ed771edb"},{"length":98,"position":16925.53846153846,"velocity":0.5354330708661418,"pitch":75,"id":"8a3e6eab-708a-434f-bd69-8caba1b9f5e0"},{"length":96,"position":17014.153846153848,"velocity":0.5118110236220472,"pitch":72,"id":"0c869481-5808-4760-b3fe-4ce638bf8d55"},{"length":75,"position":17102.76923076923,"velocity":0.5275590551181102,"pitch":79,"id":"1dba8f9b-79c8-417c-993d-e23d9e245551"},{"length":100,"position":17280,"velocity":0.5039370078740157,"pitch":72,"id":"19ef97ea-cf65-4295-8301-8a63c2ebb559"},{"length":93,"position":17368.615384615387,"velocity":0.5433070866141733,"pitch":78,"id":"b45cd213-db71-4172-9623-b185444ae135"},{"length":125,"position":17457.23076923077,"velocity":0.49606299212598426,"pitch":79,"id":"1c120110-4c20-4ff2-b92c-b8d8799800c2"},{"length":99,"position":17545.846153846156,"velocity":0.5118110236220472,"pitch":78,"id":"ae5720fa-02ef-4c0c-8ec6-167d2c670cef"},{"length":90,"position":17634.46153846154,"velocity":0.5118110236220472,"pitch":75,"id":"23bce426-a6dc-4b7c-b26e-6f0f2be1f43e"},{"length":86,"position":17723.076923076926,"velocity":0.5118110236220472,"pitch":74,"id":"b3545809-6365-44b1-afb3-147e22ff8d1c"},{"length":84,"position":17811.69230769231,"velocity":0.5039370078740157,"pitch":81,"id":"adafc0e8-1ccb-44d2-9e0f-d04100147b7c"},{"length":96,"position":17988,"velocity":0.5196850393700787,"pitch":74,"id":"378e6366-a0e9-462f-ac64-4409844788f3"},{"length":121,"position":18077.53846153846,"velocity":0.5118110236220472,"pitch":78,"id":"0e684aa9-9790-47d0-b69b-74b8cc07694f"},{"length":64,"position":18166.153846153848,"velocity":0.5196850393700787,"pitch":74,"id":"be909806-788a-470f-84ab-9b7ef0e0c653"},{"length":379,"position":18343.384615384617,"velocity":0.5039370078740157,"pitch":72,"id":"88ed8b0f-409c-4bd5-ba5e-7a8167ca3210"}],"timing":{"pulsesContentPosition":-708.923076923077,"pulsesLength":18432},"type":"N"}]}},{"type":"InstrumentChannel","data":{"mute":false,"solo":false,"gainAutomation":[{"time":0,"value":-9}],"id":"b5ace80f-4dc7-4a72-9e98-aa469627cbcd","instrument":{"config":{"type":"generalMidiSynth","data":{"programId":32,"isPercussion":false}},"name":"Acoustic Bass"},"name":"instrument","regions":[{"loopCount":1,"position":0,"color":"#516E41","id":"9a7b772f-81c3-490f-9ab4-1a8bc014d6a7","name":"Note Clip","notes":[{"length":188,"position":708.923076923077,"velocity":0.4881889763779528,"pitch":31,"id":"adcceb94-8e97-4163-9ad7-28d8447db65c"},{"length":87,"position":974.7692307692308,"velocity":0.49606299212598426,"pitch":31,"id":"9e5d4944-d2e4-4291-965d-77c3c544d3b3"},{"length":87,"position":1063.3846153846155,"velocity":0.5039370078740157,"pitch":34,"id":"4f367e61-b56b-4b62-8f11-cd42bb6f8e32"},{"length":89,"position":1152,"velocity":0.5039370078740157,"pitch":31,"id":"ab520fa5-4780-43db-a959-0444f47ca14a"},{"length":96,"position":1329.2307692307693,"velocity":0.5039370078740157,"pitch":31,"id":"c1486956-b1a3-4195-9415-f34313e091cd"},{"length":103,"position":1506.4615384615386,"velocity":0.48031496062992124,"pitch":31,"id":"cf9a379b-c0c1-4681-b663-06e81bad3a18"},{"length":88,"position":1683.6923076923078,"velocity":0.5039370078740157,"pitch":31,"id":"f1e041e0-6cfe-4a0b-ad3c-0ee0a47c15c7"},{"length":87,"position":1772.3076923076924,"velocity":0.48031496062992124,"pitch":34,"id":"03f3312b-9121-4c19-a0d6-dbec14b51ef9"},{"length":88,"position":1860.9230769230771,"velocity":0.5039370078740157,"pitch":31,"id":"1c5aa873-7de5-4de5-a0a6-59ae9da43988"},{"length":171,"position":1949.5384615384617,"velocity":0.49606299212598426,"pitch":29,"id":"7ab748aa-ce7e-4cc3-9b73-5d7a3400dbef"},{"length":170,"position":2126.769230769231,"velocity":0.4881889763779528,"pitch":31,"id":"dfa6e1de-b5eb-4287-b7d6-007e7a4604d3"},{"length":83,"position":2392.6153846153848,"velocity":0.48031496062992124,"pitch":31,"id":"114d2eac-9e88-4c58-85c6-e1eab4f0d9d9"},{"length":87,"position":2481.2307692307695,"velocity":0.49606299212598426,"pitch":34,"id":"6913eef7-5e5a-4020-a973-2c23bb1bf4a7"},{"length":87,"position":2569.846153846154,"velocity":0.49606299212598426,"pitch":31,"id":"300139c6-0eed-4fb7-b009-b7980465d7c9"},{"length":84,"position":2747.0769230769233,"velocity":0.4881889763779528,"pitch":31,"id":"4621d394-0644-437d-bc9b-703f8d0dcbc4"},{"length":85,"position":2924.3076923076924,"velocity":0.48031496062992124,"pitch":31,"id":"5d7f99f5-c59b-4ea1-8c45-5e565c596c72"},{"length":87,"position":3101.538461538462,"velocity":0.49606299212598426,"pitch":31,"id":"b5ca1e7d-a2b4-4f29-bb7b-7fc7fe33d9f3"},{"length":84,"position":3190.153846153846,"velocity":0.5039370078740157,"pitch":34,"id":"b610d359-948f-494d-9054-0574dea29d2f"},{"length":82,"position":3278.769230769231,"velocity":0.4881889763779528,"pitch":31,"id":"8ba31062-b764-4b6f-ac64-4bc934a55f0b"},{"length":157,"position":3367.3846153846157,"velocity":0.4881889763779528,"pitch":29,"id":"723f4c57-0162-4458-b48c-b1195df68d67"},{"length":187,"position":3544.6153846153848,"velocity":0.48031496062992124,"pitch":36,"id":"0ed640b3-0e46-42f2-8109-4ae60b8e3855"},{"length":77,"position":3810.4615384615386,"velocity":0.49606299212598426,"pitch":36,"id":"1b5580b0-afa3-43f7-ba05-cc88cf03f2f7"},{"length":87,"position":3899.0769230769233,"velocity":0.4881889763779528,"pitch":39,"id":"d8583e08-8a49-4790-a3c4-397c2ace34d0"},{"length":81,"position":3987.692307692308,"velocity":0.48031496062992124,"pitch":36,"id":"6b09758c-e6ca-4275-b68a-0a8770ac6db7"},{"length":87,"position":4164.923076923077,"velocity":0.49606299212598426,"pitch":36,"id":"24d49350-0182-491a-b358-2230b2df07ea"},{"length":93,"position":4342.153846153847,"velocity":0.49606299212598426,"pitch":36,"id":"5269e1d3-c089-433b-83b4-ff7506c77a50"},{"length":88,"position":4519.384615384615,"velocity":0.49606299212598426,"pitch":36,"id":"060357d2-b340-48df-8a25-8e8f968d6131"},{"length":88,"position":4608,"velocity":0.4881889763779528,"pitch":39,"id":"ceaa7408-6d53-4d81-a7b9-0e5abc45f559"},{"length":71,"position":4696.615384615385,"velocity":0.49606299212598426,"pitch":36,"id":"4a8d45a1-c50d-45ce-8cdf-53c041557a0f"},{"length":176,"position":4785.2307692307695,"velocity":0.48031496062992124,"pitch":43,"id":"e763e181-037c-4e28-b1d1-5bd58f2ebba9"},{"length":167,"position":4962.461538461539,"velocity":0.49606299212598426,"pitch":38,"id":"e91e77a3-649f-43c8-ab46-5367dcc03b42"},{"length":83,"position":5228.307692307692,"velocity":0.49606299212598426,"pitch":38,"id":"87da9e76-522e-491b-8f76-cb762899acb8"},{"length":87,"position":5316.923076923077,"velocity":0.48031496062992124,"pitch":42,"id":"29b5be14-cf6a-468f-8175-228a2a6425e8"},{"length":68,"position":5405.538461538462,"velocity":0.5039370078740157,"pitch":38,"id":"9b9f5260-43f8-46da-b910-90a1d168820c"},{"length":75,"position":5582.769230769231,"velocity":0.5039370078740157,"pitch":26,"id":"34344c3f-d254-4724-b268-330351e5758a"},{"length":188,"position":6380.307692307692,"velocity":0.4881889763779528,"pitch":31,"id":"6fb193bb-52ff-4e01-9747-0f84719fc747"},{"length":87,"position":6646.153846153847,"velocity":0.49606299212598426,"pitch":31,"id":"e6c82304-a049-4f24-9b4d-087593476114"},{"length":87,"position":6734.769230769231,"velocity":0.5039370078740157,"pitch":34,"id":"e434e82d-0ac1-4f77-87dd-74e56507b060"},{"length":89,"position":6823.384615384616,"velocity":0.5039370078740157,"pitch":31,"id":"1fd0ba5d-05f6-45b2-b294-b253be93f443"},{"length":96,"position":6999.6923076923085,"velocity":0.5039370078740157,"pitch":31,"id":"dee58fba-9627-4ce7-8085-f6deeede203f"},{"length":103,"position":7177.846153846154,"velocity":0.48031496062992124,"pitch":31,"id":"bd4fdaba-94e2-44ee-9b9d-12cddd4a6212"},{"length":88,"position":7355.076923076924,"velocity":0.5039370078740157,"pitch":31,"id":"bb2184da-061d-431e-b61f-7757b25715e0"},{"length":87,"position":7443.6923076923085,"velocity":0.48031496062992124,"pitch":34,"id":"21e7ca4a-78dc-45ea-af27-f208f933c305"},{"length":88,"position":7531.384615384616,"velocity":0.5039370078740157,"pitch":31,"id":"ebf7a8fd-c8f7-4441-8708-8fc48aa58178"},{"length":171,"position":7620.923076923077,"velocity":0.49606299212598426,"pitch":29,"id":"96311751-a627-4114-96e3-569d64e7c74c"},{"length":169,"position":7798.153846153847,"velocity":0.4881889763779528,"pitch":31,"id":"cc869ccd-30d6-4c08-a20a-e71adc91f567"},{"length":83,"position":8064.000000000001,"velocity":0.48031496062992124,"pitch":31,"id":"52391dd5-920e-4774-9b50-6408860f2d3c"},{"length":87,"position":8152.615384615385,"velocity":0.49606299212598426,"pitch":34,"id":"f725c6b8-24e3-4e08-a1c5-6cc2b42f9b73"},{"length":87,"position":8241.23076923077,"velocity":0.49606299212598426,"pitch":31,"id":"3c19edbc-aa7c-456b-8263-49cb68d8ccfa"},{"length":84,"position":8418.461538461539,"velocity":0.4881889763779528,"pitch":31,"id":"3f7d4b7e-f47e-44e0-9e3d-38a6cc8142b9"},{"length":85,"position":8595.692307692309,"velocity":0.48031496062992124,"pitch":31,"id":"91c5ce18-6883-4715-9126-2148a74b6d5d"},{"length":187,"position":9216,"velocity":0.48031496062992124,"pitch":36,"id":"9493367d-d266-4a6c-b755-44f9d9561815"},{"length":77,"position":9481.846153846154,"velocity":0.49606299212598426,"pitch":36,"id":"fd755185-705e-4397-9244-335194f84f9b"},{"length":87,"position":9570.461538461539,"velocity":0.4881889763779528,"pitch":39,"id":"7780691a-67c4-4176-b87c-0fc1495a4d72"},{"length":81,"position":9659.076923076924,"velocity":0.48031496062992124,"pitch":36,"id":"4b1ccd2c-7256-4e94-a367-f0f4e98bf944"},{"length":86,"position":9836.307692307693,"velocity":0.49606299212598426,"pitch":36,"id":"36f47a90-16e8-4e43-8579-c7d3baf94eed"},{"length":92,"position":10013.538461538463,"velocity":0.49606299212598426,"pitch":36,"id":"ca578c6d-9957-4725-b1e1-eed527f1219f"},{"length":87,"position":10190.769230769232,"velocity":0.49606299212598426,"pitch":36,"id":"1e2e8fc8-6381-4394-be6f-4f296e8a1ec9"},{"length":88,"position":10279.384615384615,"velocity":0.4881889763779528,"pitch":39,"id":"005d4a38-313b-4b6e-aa45-9e2315bc24f7"},{"length":71,"position":10368,"velocity":0.49606299212598426,"pitch":36,"id":"9045c41d-eedd-4316-a188-e2e58b4b389d"},{"length":176,"position":10456.615384615385,"velocity":0.48031496062992124,"pitch":43,"id":"482c2efa-f94a-459c-9c03-bc96f8ba91da"},{"length":167,"position":10633.846153846154,"velocity":0.49606299212598426,"pitch":38,"id":"d8aa9744-00ba-4aab-81af-05759a8e859a"},{"length":83,"position":10899.692307692309,"velocity":0.49606299212598426,"pitch":38,"id":"157e8fc7-cca5-458e-9517-e0870c696cda"},{"length":87,"position":10988.307692307693,"velocity":0.48031496062992124,"pitch":42,"id":"73c016bc-9ce5-4169-924c-835ec108106c"},{"length":67,"position":11076.923076923078,"velocity":0.5039370078740157,"pitch":38,"id":"c165be22-13f9-4873-aa44-5ce0efaa9786"},{"length":76,"position":11254.153846153848,"velocity":0.5039370078740157,"pitch":26,"id":"7889f8d6-23b1-46b9-b7e8-8568fddeae70"},{"length":75,"position":11431.384615384617,"velocity":0.5039370078740157,"pitch":26,"id":"4d8a4551-6d50-4e62-ab18-db9482cdf22b"},{"length":188,"position":13469.538461538463,"velocity":0.4881889763779528,"pitch":31,"id":"7e0a6e67-0247-49f9-969a-3fc56e4d9ae0"},{"length":87,"position":13735.384615384617,"velocity":0.49606299212598426,"pitch":31,"id":"cac73c81-9519-4e02-ae7d-5c9f88c0718a"},{"length":87,"position":13824.000000000002,"velocity":0.5039370078740157,"pitch":34,"id":"9b482aae-6b58-48e4-af44-698694b59c5d"},{"length":89,"position":13912.615384615385,"velocity":0.5039370078740157,"pitch":31,"id":"7aa6ae7f-2cc0-437e-ba1a-564bcfd8017e"},{"length":96,"position":14089.846153846154,"velocity":0.5039370078740157,"pitch":31,"id":"871144a6-5144-43ff-95cc-f9c6c0b89b44"},{"length":104,"position":14267.076923076924,"velocity":0.48031496062992124,"pitch":31,"id":"e06f82c7-084b-46e3-9c56-0068c887a17b"},{"length":88,"position":14444.307692307693,"velocity":0.5039370078740157,"pitch":31,"id":"e704440c-ab37-4908-8cc2-a0a4ea293f75"},{"length":87,"position":14532.923076923078,"velocity":0.48031496062992124,"pitch":34,"id":"acc0563f-48f3-4a7a-b105-0b6b56ccd604"},{"length":88,"position":14620.615384615385,"velocity":0.5039370078740157,"pitch":31,"id":"6af4ac50-719e-4bfd-b629-7a67c9d3e8c2"},{"length":171,"position":14710.153846153848,"velocity":0.49606299212598426,"pitch":29,"id":"08416cb2-6a70-4fb6-a092-9b399822aa6e"},{"length":169,"position":14887.384615384617,"velocity":0.4881889763779528,"pitch":31,"id":"4ac0f605-f8c4-462b-8d06-ed4f365b8029"},{"length":83,"position":15153.23076923077,"velocity":0.48031496062992124,"pitch":31,"id":"5a1cf607-5a74-4c5b-8ced-bd3722421713"},{"length":87,"position":15241.846153846154,"velocity":0.49606299212598426,"pitch":34,"id":"11bbdfe7-a8b2-447d-b471-00ac3d24507d"},{"length":87,"position":15330.461538461539,"velocity":0.49606299212598426,"pitch":31,"id":"fc481594-0fb8-4d21-aeb5-c0572bfdaae0"},{"length":84,"position":15507.692307692309,"velocity":0.4881889763779528,"pitch":31,"id":"cf382bd2-4a92-4866-b635-0754072c2479"},{"length":85,"position":15684.923076923078,"velocity":0.48031496062992124,"pitch":31,"id":"e9031bf5-8eea-45ec-b2d1-0d720cf5d848"},{"length":87,"position":15862.153846153848,"velocity":0.49606299212598426,"pitch":31,"id":"079382db-301a-4a6e-896d-8a1f3fbe46ec"},{"length":84,"position":15950.769230769232,"velocity":0.5039370078740157,"pitch":34,"id":"338bb53a-fe36-4b0d-bd8d-3f46e8cb31eb"},{"length":82,"position":16039.384615384617,"velocity":0.4881889763779528,"pitch":31,"id":"19027e8a-c3a5-4d53-91e7-b27038f66296"},{"length":156,"position":16128.000000000002,"velocity":0.4881889763779528,"pitch":29,"id":"e7fb9846-e239-43d4-baff-7b3d0be98f4a"},{"length":187,"position":16305.23076923077,"velocity":0.48031496062992124,"pitch":36,"id":"34507a88-9a50-4876-8b7a-338030bc21d0"},{"length":78,"position":16570.153846153848,"velocity":0.49606299212598426,"pitch":36,"id":"b5468c47-6c0b-4a81-b4f6-532116224458"},{"length":87,"position":16659.69230769231,"velocity":0.4881889763779528,"pitch":39,"id":"237bc6e1-7458-471a-aa1a-097d10496871"},{"length":81,"position":16748.307692307695,"velocity":0.48031496062992124,"pitch":36,"id":"0c85c923-02aa-4da6-ac8f-6973530e7ea6"},{"length":86,"position":16925.53846153846,"velocity":0.49606299212598426,"pitch":36,"id":"70690b03-d40e-4f25-b62b-46ace327ec62"},{"length":93,"position":17102.76923076923,"velocity":0.49606299212598426,"pitch":36,"id":"4deafb12-c6cf-4acf-a3f1-352c738baec8"},{"length":87,"position":17280,"velocity":0.49606299212598426,"pitch":36,"id":"e59c3e26-ba0b-4df6-91a4-179f492d88ef"},{"length":88,"position":17368.615384615387,"velocity":0.4881889763779528,"pitch":39,"id":"3e7a1cc9-e75a-4b36-9e91-562e1b90e95d"},{"length":71,"position":17457.23076923077,"velocity":0.49606299212598426,"pitch":36,"id":"db5d1218-3c94-4921-bca7-252cf25c3479"},{"length":176,"position":17545.846153846156,"velocity":0.48031496062992124,"pitch":43,"id":"b802402d-7b1a-438c-b6db-fcd035591e8e"},{"length":167,"position":17723.076923076926,"velocity":0.49606299212598426,"pitch":38,"id":"81427cb8-2489-4fda-bd79-dd467b12567c"},{"length":84,"position":17988,"velocity":0.49606299212598426,"pitch":38,"id":"37ad7d3d-11ef-4ee5-967b-990ac976f853"},{"length":87,"position":18077.53846153846,"velocity":0.48031496062992124,"pitch":42,"id":"b59a741a-f4a3-419f-b444-632cbc3a503d"},{"length":67,"position":18166.153846153848,"velocity":0.5039370078740157,"pitch":38,"id":"f0563f55-c4cb-4e6b-a072-e490f8d208ed"},{"length":75,"position":18343.384615384617,"velocity":0.5039370078740157,"pitch":26,"id":"5eaa1576-cffb-42cf-8acc-23db45025a14"},{"length":85,"position":18520.615384615387,"velocity":0.5039370078740157,"pitch":26,"id":"cda731d7-fd4d-4768-b455-5c96d0a2ac69"},{"length":72,"position":18696.923076923078,"velocity":0.49606299212598426,"pitch":26,"id":"b0d7a84a-db63-4579-83e4-c3b378d896e5"}],"timing":{"pulsesContentPosition":-708.923076923077,"pulsesLength":18432},"type":"N"}]}},{"type":"InstrumentChannel","data":{"mute":false,"solo":false,"gainAutomation":[{"time":0,"value":-5}],"id":"091c7037-ace3-45cf-adbf-14700025741b","instrument":{"config":{"type":"generalMidiSynth","data":{"programId":64,"isPercussion":false}},"name":"Soprano Sax"},"name":"instrument","regions":[{"loopCount":1,"position":0,"color":"#FF6600","id":"3dc587d1-6c6c-4e91-afc1-91819e6c5dd0","name":"Note Clip","notes":[{"length":80,"position":708.923076923077,"velocity":0.8503937007874016,"pitch":58,"id":"0774275f-79ff-40ac-8ddb-ddefa3d25abf"},{"length":96,"position":886.1538461538462,"velocity":0.8503937007874016,"pitch":58,"id":"232e5ced-2d25-4f72-954e-7330024fac33"},{"length":75,"position":1152,"velocity":0.8110236220472441,"pitch":58,"id":"2897ca02-33bd-464e-9183-13b10e49157f"},{"length":80,"position":1329.2307692307693,"velocity":0.8110236220472441,"pitch":58,"id":"842291e6-c48b-4766-97ac-164b70b52007"},{"length":82,"position":1506.4615384615386,"velocity":0.8188976377952756,"pitch":58,"id":"869224ce-6e67-4350-8159-bcfec069e873"},{"length":41,"position":1683.6923076923078,"velocity":0.8503937007874016,"pitch":58,"id":"bb855c02-5e67-479c-bedd-c140b11fae54"},{"length":87,"position":1860.9230769230771,"velocity":0.8503937007874016,"pitch":58,"id":"df750447-a493-4796-8535-c3ac90424de7"},{"length":88,"position":1949.5384615384617,"velocity":0.8503937007874016,"pitch":60,"id":"53449d89-c41a-4dc4-94ef-ccf576dd6586"},{"length":91,"position":2126.769230769231,"velocity":0.8031496062992126,"pitch":58,"id":"55583dd2-9cf6-45ff-9cd5-4832374fa1a5"},{"length":82,"position":2304,"velocity":0.8031496062992126,"pitch":58,"id":"b3f4c9d2-0b94-4297-a4d4-fd154a4f1522"},{"length":77,"position":2569.846153846154,"velocity":0.8503937007874016,"pitch":58,"id":"3a964591-9f67-45b6-ab42-29a2fb8ee371"},{"length":77,"position":2747.0769230769233,"velocity":0.8110236220472441,"pitch":58,"id":"5d0a343f-703c-4c0d-9f28-6c0dc7b316d3"},{"length":78,"position":2924.3076923076924,"velocity":0.8031496062992126,"pitch":58,"id":"997e281d-16c2-42e9-961d-320895236c6c"},{"length":38,"position":3101.538461538462,"velocity":0.84251968503937,"pitch":58,"id":"4bef2dbe-1213-41e0-89b7-ab9ef59d370e"},{"length":87,"position":3278.769230769231,"velocity":0.84251968503937,"pitch":58,"id":"c81ca048-6833-4cbd-a541-292a7be1478d"},{"length":122,"position":3367.3846153846157,"velocity":0.8503937007874016,"pitch":60,"id":"279be425-a7bf-4688-ba67-4a49b2339bf0"},{"length":96,"position":3544.6153846153848,"velocity":0.8031496062992126,"pitch":58,"id":"ea716cc8-67b0-415f-afbb-0aad25c748fa"},{"length":93,"position":3721.8461538461543,"velocity":0.8346456692913385,"pitch":58,"id":"f7ab4e1c-8b40-4e90-95f8-e31d0e7454b1"},{"length":83,"position":3987.692307692308,"velocity":0.8188976377952756,"pitch":58,"id":"8a056041-6b3e-4d4e-b306-0d9887e1ee33"},{"length":84,"position":4164.923076923077,"velocity":0.8110236220472441,"pitch":58,"id":"c2900919-d629-40e8-b7fb-f384146b8f03"},{"length":93,"position":4342.153846153847,"velocity":0.8188976377952756,"pitch":58,"id":"af8631b3-7129-4954-8407-49ab8f932fef"},{"length":42,"position":4519.384615384615,"velocity":0.8031496062992126,"pitch":58,"id":"c70b90f2-5e9e-49e3-b258-0a4eccf64250"},{"length":87,"position":4696.615384615385,"velocity":0.8188976377952756,"pitch":58,"id":"13f01452-d573-4538-8c42-f906f1aab753"},{"length":119,"position":4785.2307692307695,"velocity":0.8503937007874016,"pitch":58,"id":"3d362d46-c0df-4dd3-a053-9652f9fd8421"},{"length":103,"position":4962.461538461539,"velocity":0.8188976377952756,"pitch":60,"id":"09064c2b-aea5-4f18-a4ca-a6b6ff519a1a"},{"length":97,"position":5139.692307692308,"velocity":0.8503937007874016,"pitch":60,"id":"98abd915-c64e-4eae-a58c-6b77828dd471"},{"length":90,"position":5405.538461538462,"velocity":0.8346456692913385,"pitch":60,"id":"d5e02b3c-f7bb-45e5-9c42-010f8212c3ea"},{"length":83,"position":5582.769230769231,"velocity":0.8031496062992126,"pitch":60,"id":"31f4a003-3093-45e1-8dbc-d9da4903de22"},{"length":39,"position":5760,"velocity":0.8267716535433071,"pitch":60,"id":"387eb9bb-635d-42a8-bcea-5c562672ae30"},{"length":96,"position":5848.615384615385,"velocity":0.8110236220472441,"pitch":60,"id":"ace4220d-4a13-4f33-8e87-0c31d0d8783b"},{"length":39,"position":6114.461538461539,"velocity":0.8031496062992126,"pitch":58,"id":"ee84ec72-f918-4307-bef1-52fd267c9fb1"},{"length":82,"position":6203.076923076924,"velocity":0.8267716535433071,"pitch":58,"id":"234ba8a9-244e-4f69-8584-540f092abc5f"},{"length":44,"position":6291.6923076923085,"velocity":0.8267716535433071,"pitch":60,"id":"1de4d8a0-871d-4fd3-9a00-16aef01186c1"},{"length":139,"position":6380.307692307692,"velocity":0.8188976377952756,"pitch":60,"id":"95e8847e-4347-487b-a8d0-c2af6b93f33d"},{"length":128,"position":6557.538461538462,"velocity":0.8346456692913385,"pitch":55,"id":"0cf5667d-ba8e-474d-a4cf-b3224bbaee72"},{"length":77,"position":6734.769230769231,"velocity":0.8110236220472441,"pitch":58,"id":"e35d38d0-fc5b-4f8d-8a91-a50805d65cfc"},{"length":45,"position":6823.384615384616,"velocity":0.8346456692913385,"pitch":60,"id":"ddce5f3d-0d44-4b80-bc7f-804bafa3068a"},{"length":87,"position":6912.000000000001,"velocity":0.8503937007874016,"pitch":60,"id":"c34a145d-75da-4a83-8c18-814c16488382"},{"length":45,"position":6999.6923076923085,"velocity":0.8503937007874016,"pitch":58,"id":"b8944122-ef4b-43aa-a74b-061b532a00d1"},{"length":137,"position":7089.2307692307695,"velocity":0.84251968503937,"pitch":60,"id":"65963fca-8ba2-4a46-bbfc-6a62438833dd"},{"length":128,"position":7266.461538461539,"velocity":0.8346456692913385,"pitch":55,"id":"5d8873bb-c261-47e5-be4d-7a72cb38813f"},{"length":72,"position":7443.6923076923085,"velocity":0.8031496062992126,"pitch":58,"id":"b6dac48d-ea43-4e24-9591-aec84e48fcbc"},{"length":45,"position":7532.307692307692,"velocity":0.8346456692913385,"pitch":60,"id":"cda65f06-2e42-4a53-80cb-e5069af71e0e"},{"length":87,"position":7620.923076923077,"velocity":0.8110236220472441,"pitch":60,"id":"dd3c2975-b779-430f-ab61-9169e0784e20"},{"length":50,"position":7709.538461538462,"velocity":0.84251968503937,"pitch":58,"id":"82c6e887-db41-490c-bcad-07fecbf003ed"},{"length":141,"position":7798.153846153847,"velocity":0.8031496062992126,"pitch":60,"id":"9a1adffe-be77-41ee-83b7-4b3d4e3810d9"},{"length":125,"position":7975.384615384616,"velocity":0.8346456692913385,"pitch":55,"id":"16902e98-27a5-4118-ad02-e172780192d7"},{"length":74,"position":8152.615384615385,"velocity":0.84251968503937,"pitch":58,"id":"b2c110bf-9440-44a4-a000-8ded2e9e4e2f"},{"length":46,"position":8241.23076923077,"velocity":0.8503937007874016,"pitch":60,"id":"322dd5a6-d190-44ec-892b-e0e35fc1e2c5"},{"length":87,"position":8329.846153846154,"velocity":0.8267716535433071,"pitch":60,"id":"dc7c0d17-3afc-46b9-8c6d-40016d254da7"},{"length":48,"position":8418.461538461539,"velocity":0.8031496062992126,"pitch":58,"id":"431774ec-f733-49a4-8d0d-c4e6bcbbbb2c"},{"length":141,"position":8507.076923076924,"velocity":0.8503937007874016,"pitch":60,"id":"db81d0e3-910c-4c07-92e9-f8a2ae52e798"},{"length":128,"position":8684.307692307693,"velocity":0.8110236220472441,"pitch":55,"id":"23901275-7fff-4f53-91d0-3470d3f6590a"},{"length":71,"position":9038.76923076923,"velocity":0.8503937007874016,"pitch":58,"id":"81746e70-3466-4d60-bb34-0e4eb89afe15"},{"length":60,"position":9127.384615384615,"velocity":0.8267716535433071,"pitch":60,"id":"fcfac610-9cfd-43ab-96f3-895e3a9d8075"},{"length":130,"position":9216,"velocity":0.8503937007874016,"pitch":65,"id":"088dfe5b-67b5-4ead-8723-4d0a9bde20b4"},{"length":141,"position":9393.23076923077,"velocity":0.8188976377952756,"pitch":62,"id":"9e27576f-9881-4fca-80ed-463d08c368f0"},{"length":72,"position":9570.461538461539,"velocity":0.8031496062992126,"pitch":58,"id":"b788636b-ae91-41d0-a2d2-94cce4df9233"},{"length":45,"position":9659.076923076924,"velocity":0.8188976377952756,"pitch":60,"id":"c934b7e2-9b52-478f-92b1-f715302d9279"},{"length":87,"position":9747.692307692309,"velocity":0.8110236220472441,"pitch":60,"id":"f45ea636-88fd-4025-9b5b-40881b83d0e4"},{"length":70,"position":9836.307692307693,"velocity":0.8346456692913385,"pitch":58,"id":"4946debb-477e-4e2a-8f27-36e3d1c315f7"},{"length":127,"position":9924.923076923078,"velocity":0.8503937007874016,"pitch":65,"id":"0c073f80-3df0-4600-8999-3926f51d5023"},{"length":124,"position":10102.153846153848,"velocity":0.8503937007874016,"pitch":62,"id":"e7c62034-b9bb-4780-8369-ef8b86f1b7ba"},{"length":72,"position":10279.384615384615,"velocity":0.8188976377952756,"pitch":58,"id":"308d00f6-5e66-41a8-a45e-57f9ea83d97b"},{"length":48,"position":10368,"velocity":0.8503937007874016,"pitch":60,"id":"dd345cf8-e3c6-4c74-92c8-a0da911083f2"},{"length":87,"position":10456.615384615385,"velocity":0.8031496062992126,"pitch":60,"id":"d6df3a36-ced9-40f4-bb30-4d4f04368123"},{"length":45,"position":10545.23076923077,"velocity":0.84251968503937,"pitch":58,"id":"6fc1cbd8-36fa-4814-8ad3-7b564f9939e9"},{"length":140,"position":10633.846153846154,"velocity":0.8503937007874016,"pitch":66,"id":"7c74aaa6-8d25-4254-8dc7-917c354e7d14"},{"length":117,"position":10811.076923076924,"velocity":0.8346456692913385,"pitch":62,"id":"2335a7f2-41bc-434c-bd68-b9a3208e2dfa"},{"length":69,"position":10988.307692307693,"velocity":0.8503937007874016,"pitch":58,"id":"b4283aec-cc27-4fa3-9da5-55b14c1d5b3f"},{"length":49,"position":11076.923076923078,"velocity":0.8503937007874016,"pitch":60,"id":"a2492b3e-eba0-4555-afaf-5f5fd21ea1f6"},{"length":87,"position":11165.538461538463,"velocity":0.8503937007874016,"pitch":60,"id":"245e5ce7-5845-42b3-aad1-5af23915e2e4"},{"length":50,"position":11254.153846153848,"velocity":0.8503937007874016,"pitch":58,"id":"4027b566-b633-463b-984f-7f53540f8822"},{"length":117,"position":11342.769230769232,"velocity":0.8031496062992126,"pitch":62,"id":"b579ba48-9dba-48d7-807c-3fa58b604fc0"},{"length":115,"position":11520,"velocity":0.8110236220472441,"pitch":62,"id":"85021b20-cdb6-40c0-8bda-08fb66ec2d8a"},{"length":87,"position":11874.461538461539,"velocity":0.84251968503937,"pitch":62,"id":"6ca0efff-28ff-41ee-b7b6-a3a4b8225b3f"},{"length":37,"position":11963.076923076924,"velocity":0.8110236220472441,"pitch":60,"id":"ead3f082-d2bf-4047-b18e-ddbc05012d97"},{"length":519,"position":12051.692307692309,"velocity":0.84251968503937,"pitch":58,"id":"a926df6b-d76b-4d54-8b3f-5651d17a9efb"},{"length":353,"position":12583.384615384617,"velocity":0.8110236220472441,"pitch":55,"id":"4fdf26d0-b7fa-4e60-96c7-aa36e3c05148"},{"length":124,"position":13292.307692307693,"velocity":0.8031496062992126,"pitch":55,"id":"14efd807-659b-4cf6-a9f8-fcb221e02d41"},{"length":87,"position":16128.000000000002,"velocity":0.8110236220472441,"pitch":60,"id":"d03674a8-34a0-4b5d-8ace-128ab9c383c2"},{"length":40,"position":16215.692307692309,"velocity":0.8031496062992126,"pitch":58,"id":"6cf35a6c-7c77-44b2-a84a-4f29f52a2813"},{"length":530,"position":16305.23076923077,"velocity":0.8031496062992126,"pitch":58,"id":"281d3f74-73d6-4789-bb04-5181b7749acf"},{"length":524,"position":16836.923076923078,"velocity":0.8110236220472441,"pitch":55,"id":"dd07d907-6308-44f4-936a-be696f4d431d"}],"timing":{"pulsesContentPosition":-708.923076923077,"pulsesLength":18432},"type":"N"}]}},{"type":"InstrumentChannel","data":{"mute":false,"solo":false,"gainAutomation":[{"time":0,"value":-4}],"id":"20f85d69-9ee1-421d-a386-aeffb4b90ba2","instrument":{"config":{"type":"generalMidiSynth","data":{"programId":54,"isPercussion":false}},"name":"Synth Voice"},"name":"instrument","regions":[{"loopCount":1,"position":0,"color":"#a9a9a9","id":"1909d4f9-685c-4e24-86bf-48fe4d45ad5b","name":"Note Clip","notes":[{"length":80,"position":708.923076923077,"velocity":0.7322834645669292,"pitch":55,"id":"50522301-e418-4164-a188-50fb1350f724"},{"length":80,"position":708.923076923077,"velocity":0.7559055118110236,"pitch":62,"id":"da6f110a-1b8a-4523-b1eb-ee0cd9883326"},{"length":96,"position":886.1538461538462,"velocity":0.7716535433070866,"pitch":62,"id":"b241e774-7db4-4bd3-bef7-1922157116c8"},{"length":96,"position":886.1538461538462,"velocity":0.7401574803149606,"pitch":55,"id":"97ae9aa9-ee07-4472-b43f-715012d45596"},{"length":96,"position":886.1538461538462,"velocity":0.7401574803149606,"pitch":67,"id":"affa5aa5-2ea7-4457-abc6-ae11935301bf"},{"length":76,"position":1152,"velocity":0.7401574803149606,"pitch":55,"id":"3da41b9b-7629-4314-a1b3-43a032548628"},{"length":76,"position":1152,"velocity":0.7322834645669292,"pitch":62,"id":"92f2441a-db9e-4aef-9f48-8aa3485202c1"},{"length":76,"position":1152,"velocity":0.7244094488188977,"pitch":67,"id":"780a4124-eac8-4c6d-ab81-f8696610facf"},{"length":80,"position":1329.2307692307693,"velocity":0.7244094488188977,"pitch":67,"id":"efa87000-7193-47e2-bda6-6bfd140f4b70"},{"length":81,"position":1329.2307692307693,"velocity":0.7322834645669292,"pitch":55,"id":"368daf60-8295-43ef-8d32-fb4b2ab43060"},{"length":81,"position":1329.2307692307693,"velocity":0.7244094488188977,"pitch":62,"id":"b3b49eb7-2f84-49fc-ac1c-380388641d9d"},{"length":82,"position":1506.4615384615386,"velocity":0.7637795275590551,"pitch":62,"id":"5c921c35-e6ef-4b48-a623-a5c5af87c490"},{"length":82,"position":1506.4615384615386,"velocity":0.7559055118110236,"pitch":67,"id":"ab0fff04-c266-4949-8aba-34e98fef7a10"},{"length":82,"position":1506.4615384615386,"velocity":0.7480314960629921,"pitch":55,"id":"3900341d-cb5b-4d94-b03f-5307a8f328e4"},{"length":41,"position":1683.6923076923078,"velocity":0.7401574803149606,"pitch":67,"id":"55983a37-a299-4bcf-8497-561524469963"},{"length":41,"position":1683.6923076923078,"velocity":0.7480314960629921,"pitch":62,"id":"4610137e-abad-4893-afb0-de645fc7184d"},{"length":41,"position":1683.6923076923078,"velocity":0.7716535433070866,"pitch":55,"id":"82c9dd92-52ab-46ed-833c-af66f8bde96a"},{"length":98,"position":1860.9230769230771,"velocity":0.7559055118110236,"pitch":55,"id":"a5068e55-9451-4d91-81a3-0f5a21676dd8"},{"length":98,"position":1860.9230769230771,"velocity":0.7559055118110236,"pitch":62,"id":"bd8367c2-cf4b-4015-a862-4d0b4378e51b"},{"length":98,"position":1860.9230769230771,"velocity":0.7401574803149606,"pitch":67,"id":"b0dde833-59c9-4e57-b90d-08663ec80f2e"},{"length":89,"position":1949.5384615384617,"velocity":0.7401574803149606,"pitch":55,"id":"81c796b6-10f5-4ac7-8445-d31c8bbbbe86"},{"length":89,"position":1949.5384615384617,"velocity":0.7716535433070866,"pitch":72,"id":"3e9951d3-f478-466e-88eb-e3f19c82d51e"},{"length":89,"position":1949.5384615384617,"velocity":0.7716535433070866,"pitch":67,"id":"f908ed9b-eae4-4bdb-8a15-8ed79081ac48"},{"length":89,"position":1949.5384615384617,"velocity":0.7716535433070866,"pitch":62,"id":"b2becdcf-b091-4dc7-aa0a-222c6c3b146e"},{"length":91,"position":2126.769230769231,"velocity":0.7716535433070866,"pitch":62,"id":"484ca9b3-ed54-4ef2-bfc5-415b4ab67bd4"},{"length":92,"position":2126.769230769231,"velocity":0.7637795275590551,"pitch":55,"id":"d4832d10-bc15-443b-9f70-4a115e13f295"},{"length":83,"position":2304,"velocity":0.7637795275590551,"pitch":67,"id":"e7b5cc94-9ece-412a-9e3f-84d96f3edf13"},{"length":83,"position":2304,"velocity":0.7637795275590551,"pitch":55,"id":"5ff78acc-93a4-47d3-916f-7e4555a46c64"},{"length":83,"position":2304,"velocity":0.7244094488188977,"pitch":62,"id":"b8f11359-27a8-4caa-b8ad-8c9b022f8ee2"},{"length":77,"position":2569.846153846154,"velocity":0.7559055118110236,"pitch":62,"id":"1b490a31-5146-4d3c-95c9-ee9dabcd3c1f"},{"length":77,"position":2569.846153846154,"velocity":0.7480314960629921,"pitch":55,"id":"955f9f09-8d68-4010-8481-f8fa1df31156"},{"length":77,"position":2569.846153846154,"velocity":0.7401574803149606,"pitch":67,"id":"91f7332a-b984-4f54-9c5a-f56662e23864"},{"length":78,"position":2747.0769230769233,"velocity":0.7244094488188977,"pitch":55,"id":"39a4fa1d-b06b-4c72-8150-d36f94f2ea1b"},{"length":78,"position":2747.0769230769233,"velocity":0.7480314960629921,"pitch":67,"id":"309e2368-f6c9-4b2c-89b7-eb348ebe6502"},{"length":78,"position":2747.0769230769233,"velocity":0.7401574803149606,"pitch":62,"id":"ad08fca6-2f72-48f2-a3ab-c3baeca55a29"},{"length":78,"position":2924.3076923076924,"velocity":0.7322834645669292,"pitch":55,"id":"e299703e-38f9-49b2-b077-8f7505d68914"},{"length":78,"position":2924.3076923076924,"velocity":0.7322834645669292,"pitch":67,"id":"099872b1-f7b7-47b3-ba52-4431fe059f05"},{"length":79,"position":2924.3076923076924,"velocity":0.7716535433070866,"pitch":62,"id":"9e283de6-051f-4819-ad8f-de1c9187f941"},{"length":39,"position":3101.538461538462,"velocity":0.7322834645669292,"pitch":67,"id":"12aef448-9ab2-4808-b5db-cac3e65aa06a"},{"length":39,"position":3101.538461538462,"velocity":0.7716535433070866,"pitch":55,"id":"ae69c6bd-5006-43cd-bf11-f54f77d8a8ad"},{"length":39,"position":3101.538461538462,"velocity":0.7401574803149606,"pitch":62,"id":"0c1e60a8-0ed7-4265-b495-00ea7c7db2e0"},{"length":109,"position":3278.769230769231,"velocity":0.7480314960629921,"pitch":55,"id":"59d97df1-7e96-42ec-a4e5-fb32e2a11e68"},{"length":109,"position":3278.769230769231,"velocity":0.7401574803149606,"pitch":67,"id":"ff6bc750-fe48-402b-8b93-e21322f132e7"},{"length":109,"position":3278.769230769231,"velocity":0.7244094488188977,"pitch":62,"id":"4171fb05-77c4-4ced-8532-d16d4843b961"},{"length":122,"position":3367.3846153846157,"velocity":0.7637795275590551,"pitch":55,"id":"a020cee7-80f5-43cc-8eb5-7dd4bc7796d6"},{"length":122,"position":3367.3846153846157,"velocity":0.7322834645669292,"pitch":62,"id":"9df7488c-dc5f-427f-a432-63da2efb2030"},{"length":122,"position":3367.3846153846157,"velocity":0.7244094488188977,"pitch":67,"id":"7b973a21-68d6-423a-9963-e65ffdfb0c4d"},{"length":122,"position":3367.3846153846157,"velocity":0.7637795275590551,"pitch":72,"id":"fa63f9c4-d7ac-4866-bc0b-65f002110f9d"},{"length":96,"position":3544.6153846153848,"velocity":0.7401574803149606,"pitch":67,"id":"c1245c46-6d4d-4d0c-82c8-e5e4c7274724"},{"length":96,"position":3544.6153846153848,"velocity":0.7244094488188977,"pitch":62,"id":"afe93270-accb-40fc-8558-0ce260b0c3de"},{"length":96,"position":3544.6153846153848,"velocity":0.7244094488188977,"pitch":55,"id":"9c160f71-6647-452b-a9e7-314f9eac52d4"},{"length":96,"position":3544.6153846153848,"velocity":0.7480314960629921,"pitch":70,"id":"2b1c4a6a-f9f2-4d35-ba0f-75ddad987d75"},{"length":94,"position":3721.8461538461543,"velocity":0.7716535433070866,"pitch":67,"id":"7424d9ef-7951-49f9-92ba-39adc602f2c6"},{"length":94,"position":3721.8461538461543,"velocity":0.7559055118110236,"pitch":55,"id":"760744ba-1e19-482c-9fa8-dfbfbc1742f3"},{"length":94,"position":3721.8461538461543,"velocity":0.7716535433070866,"pitch":62,"id":"b7c32858-2ef0-4160-af6c-d797f0af3d13"},{"length":84,"position":3987.692307692308,"velocity":0.7716535433070866,"pitch":62,"id":"43ac6110-245f-4933-8fa0-5930353299a2"},{"length":84,"position":3987.692307692308,"velocity":0.7559055118110236,"pitch":67,"id":"8b717312-9f3b-47a4-8013-281a0ff1af66"},{"length":84,"position":3987.692307692308,"velocity":0.7637795275590551,"pitch":55,"id":"0630e59f-adc5-415a-a8b6-5d9b6aee0b6d"},{"length":84,"position":4164.923076923077,"velocity":0.7322834645669292,"pitch":62,"id":"77f053af-b7e9-4a32-837d-9634ecd57b5b"},{"length":84,"position":4164.923076923077,"velocity":0.7637795275590551,"pitch":55,"id":"9cb873eb-c32d-4a95-9f0c-d472c12b45a2"},{"length":84,"position":4164.923076923077,"velocity":0.7559055118110236,"pitch":67,"id":"2880a23b-5004-4ae7-b5dd-b05be9fc28cc"},{"length":93,"position":4342.153846153847,"velocity":0.7716535433070866,"pitch":55,"id":"9fbbfdd4-0b77-4ef5-8ee4-dc38c2c7982b"},{"length":93,"position":4342.153846153847,"velocity":0.7322834645669292,"pitch":62,"id":"3fa20e5c-e6c9-4ea0-bd52-2bea07591cdf"},{"length":93,"position":4342.153846153847,"velocity":0.7322834645669292,"pitch":67,"id":"f313fdf3-91c4-4eac-8a3e-36c5b44b006b"},{"length":43,"position":4519.384615384615,"velocity":0.7716535433070866,"pitch":70,"id":"ccfb0da7-dc75-4752-981a-d409823e6064"},{"length":43,"position":4519.384615384615,"velocity":0.7322834645669292,"pitch":55,"id":"b3dfd5cd-3787-4e35-b7ba-e6a0c504c314"},{"length":43,"position":4519.384615384615,"velocity":0.7322834645669292,"pitch":62,"id":"8fb92bed-633a-4e3b-8f34-32caa43fd316"},{"length":43,"position":4519.384615384615,"velocity":0.7480314960629921,"pitch":67,"id":"f6c98ad9-068b-4fd0-9de7-b8b8fe9e64d7"},{"length":115,"position":4696.615384615385,"velocity":0.7716535433070866,"pitch":55,"id":"52004e27-82b6-4191-846f-a33a0e3bf021"},{"length":115,"position":4696.615384615385,"velocity":0.7322834645669292,"pitch":67,"id":"69160149-e624-4a44-bd4e-b16129090736"},{"length":115,"position":4696.615384615385,"velocity":0.7716535433070866,"pitch":70,"id":"0c61726e-5d7f-4ade-a5c3-6f6532d5a5da"},{"length":115,"position":4696.615384615385,"velocity":0.7559055118110236,"pitch":62,"id":"9eb9edec-39c9-48d3-b6fe-199aba3112ab"},{"length":119,"position":4785.2307692307695,"velocity":0.7637795275590551,"pitch":55,"id":"8b99610a-cf66-4329-a2c3-2c602bfb194b"},{"length":119,"position":4785.2307692307695,"velocity":0.7244094488188977,"pitch":62,"id":"ad5d72c9-be02-4d23-9636-267597857abe"},{"length":119,"position":4785.2307692307695,"velocity":0.7401574803149606,"pitch":67,"id":"c6eb4992-2e7f-49ca-b9ad-a081395b0e37"},{"length":119,"position":4785.2307692307695,"velocity":0.7401574803149606,"pitch":74,"id":"3afa89a3-96c0-4360-8dd7-4493aa23b5ed"},{"length":104,"position":4962.461538461539,"velocity":0.7322834645669292,"pitch":66,"id":"d1a46845-44a6-479e-990a-a03602dead74"},{"length":104,"position":4962.461538461539,"velocity":0.7716535433070866,"pitch":69,"id":"8ea10b51-3ce1-4bc5-99df-9e15b9032720"},{"length":104,"position":4962.461538461539,"velocity":0.7480314960629921,"pitch":62,"id":"d253c7e0-53dd-458a-8833-4da6fd5fffa3"},{"length":104,"position":4962.461538461539,"velocity":0.7637795275590551,"pitch":54,"id":"e6118ad9-efbe-49a5-8a75-7aa304ea4a58"},{"length":98,"position":5139.692307692308,"velocity":0.7480314960629921,"pitch":62,"id":"6e67ef9f-3a2c-4008-9011-816999a221e8"},{"length":98,"position":5139.692307692308,"velocity":0.7559055118110236,"pitch":54,"id":"3f695fc9-6060-476e-ac3b-6d4c805f4554"},{"length":98,"position":5139.692307692308,"velocity":0.7637795275590551,"pitch":66,"id":"6ccf63c2-5743-421f-99c8-34d546b95a9b"},{"length":98,"position":5139.692307692308,"velocity":0.7322834645669292,"pitch":69,"id":"a77f66ce-03af-4ea6-9bb1-8aa6ebd5c5a4"},{"length":90,"position":5405.538461538462,"velocity":0.7716535433070866,"pitch":54,"id":"88b16e8d-d05b-4d4b-8e3a-5385421b2cfe"},{"length":90,"position":5405.538461538462,"velocity":0.7559055118110236,"pitch":66,"id":"287860c3-eaf3-4577-8c2c-b43f2ae732eb"},{"length":90,"position":5405.538461538462,"velocity":0.7401574803149606,"pitch":69,"id":"5aecc919-612a-4761-8e52-18461a2a6d7d"},{"length":90,"position":5405.538461538462,"velocity":0.7716535433070866,"pitch":62,"id":"1b954a4f-1004-4d49-997f-b207cac1a25e"},{"length":84,"position":5582.769230769231,"velocity":0.7401574803149606,"pitch":66,"id":"bc0b7f47-ea6b-4c62-9200-1354b0261129"},{"length":84,"position":5582.769230769231,"velocity":0.7480314960629921,"pitch":69,"id":"d93a9281-50fd-43c3-9e13-1fa365861acc"},{"length":84,"position":5582.769230769231,"velocity":0.7716535433070866,"pitch":54,"id":"303a55be-a817-40af-b1c9-29967959e096"},{"length":40,"position":5760,"velocity":0.7716535433070866,"pitch":54,"id":"44280eb0-f6e9-432d-aefa-69be6d4acbe1"},{"length":40,"position":5760,"velocity":0.7244094488188977,"pitch":67,"id":"86d02551-2e04-45f7-a336-fc38ad059e68"},{"length":40,"position":5760,"velocity":0.7480314960629921,"pitch":64,"id":"3b1799a5-664e-4ca1-a04f-64d36d8134b8"},{"length":97,"position":5848.615384615385,"velocity":0.7322834645669292,"pitch":66,"id":"b1817b3f-cafe-44b2-ab68-4dd70152cacc"},{"length":97,"position":5848.615384615385,"velocity":0.7244094488188977,"pitch":54,"id":"175ac1c1-168a-4fd8-b1bb-79494bff7ccb"},{"length":97,"position":5848.615384615385,"velocity":0.7322834645669292,"pitch":62,"id":"4309366e-834b-420b-9f3f-9994fc368eef"},{"length":137,"position":7089.2307692307695,"velocity":0.7559055118110236,"pitch":62,"id":"4d85c5a6-bd23-49da-aad9-57d79a2303e9"},{"length":129,"position":7266.461538461539,"velocity":0.7559055118110236,"pitch":58,"id":"a858c238-012a-48ea-be5b-5850c9d76603"},{"length":141,"position":7798.153846153847,"velocity":0.7244094488188977,"pitch":55,"id":"7163e5b3-13c8-462c-8c3b-f33266da958c"},{"length":141,"position":7798.153846153847,"velocity":0.7637795275590551,"pitch":62,"id":"4000033c-0d73-4007-8cc9-69e06eb09f59"},{"length":126,"position":7975.384615384616,"velocity":0.7637795275590551,"pitch":58,"id":"199d1f31-677d-46db-9f7c-b219e80a3cee"},{"length":141,"position":8507.076923076924,"velocity":0.7244094488188977,"pitch":62,"id":"b2cda1fb-23ab-46b5-af14-93d22952acc4"},{"length":141,"position":8507.076923076924,"velocity":0.7716535433070866,"pitch":55,"id":"b820c730-42ac-44dc-9593-dda9f8c77428"},{"length":128,"position":8684.307692307693,"velocity":0.7480314960629921,"pitch":58,"id":"dcaaaf88-1061-4aab-abb5-c3a7963399f9"},{"length":131,"position":9216,"velocity":0.7480314960629921,"pitch":72,"id":"ac60a261-d1f2-4c16-ba52-75dbd20ccdc5"},{"length":142,"position":9393.23076923077,"velocity":0.7322834645669292,"pitch":65,"id":"5bd2c6c3-55e3-474d-afff-dd86d5de6c59"},{"length":72,"position":9570.461538461539,"velocity":0.7401574803149606,"pitch":55,"id":"93d548ba-2ca5-42c2-9542-d886ed910c7d"},{"length":46,"position":9659.076923076924,"velocity":0.7244094488188977,"pitch":57,"id":"bc504d16-4c27-449b-b766-1f94613be82c"},{"length":89,"position":9747.692307692309,"velocity":0.7401574803149606,"pitch":55,"id":"dd13631e-c983-4d65-8f39-9780a9c9a05b"},{"length":71,"position":9836.307692307693,"velocity":0.7716535433070866,"pitch":53,"id":"08c12fd6-f99a-4606-a0dc-7bfa4f378138"},{"length":128,"position":9924.923076923078,"velocity":0.7716535433070866,"pitch":72,"id":"d5104ae6-b288-4277-8242-58008f9c85f5"},{"length":125,"position":10102.153846153848,"velocity":0.7401574803149606,"pitch":65,"id":"4164afdc-cfc4-4276-884b-ca6aaa707930"},{"length":72,"position":10279.384615384615,"velocity":0.7480314960629921,"pitch":55,"id":"0c66bbb6-c724-40fd-ab18-8333fb383efc"},{"length":48,"position":10368,"velocity":0.7716535433070866,"pitch":57,"id":"e421d0df-e333-40b8-89c7-06e4ad58efee"},{"length":105,"position":10456.615384615385,"velocity":0.7480314960629921,"pitch":55,"id":"49558039-8744-45f5-8f22-de869f5ed197"},{"length":45,"position":10545.23076923077,"velocity":0.7559055118110236,"pitch":53,"id":"15d8d774-1d07-4295-87e2-304bc1e73975"},{"length":141,"position":10633.846153846154,"velocity":0.7401574803149606,"pitch":74,"id":"eb35aabe-fb85-4a18-b192-fb0c260b2cf5"},{"length":118,"position":10811.076923076924,"velocity":0.7244094488188977,"pitch":66,"id":"aa536e90-1b89-4776-9774-66842f38d0bf"},{"length":118,"position":11342.769230769232,"velocity":0.7559055118110236,"pitch":57,"id":"97faf6af-cdd4-4a05-871b-8011a4930fe6"},{"length":115,"position":11520,"velocity":0.7401574803149606,"pitch":57,"id":"63385813-91fd-4357-b7c7-494b342381c5"}],"timing":{"pulsesContentPosition":-708.923076923077,"pulsesLength":18432},"type":"N"}]}},{"type":"InstrumentChannel","data":{"mute":false,"solo":false,"gainAutomation":[{"time":0,"value":-10}],"id":"10a9e06a-dbb3-4275-a0db-ef09d4497aa6","instrument":{"config":{"type":"generalMidiSynth","data":{"programId":79,"isPercussion":false}},"name":"Ocarina"},"name":"instrument","regions":[{"loopCount":1,"position":0,"color":"#B47157","id":"1b04903c-1ea3-44c3-a393-c623eb7ace19","name":"Note Clip","notes":[{"length":123,"position":13469.538461538463,"velocity":0.8503937007874016,"pitch":67,"id":"c5044b86-606c-47ed-8fd4-10a9f5e61936"},{"length":66,"position":13558.153846153848,"velocity":0.8188976377952756,"pitch":74,"id":"88ecd301-46e2-4877-8e32-181754e705ee"},{"length":95,"position":13735.384615384617,"velocity":0.8267716535433071,"pitch":67,"id":"7884490f-018a-4e4a-9107-a1f0267fa365"},{"length":98,"position":13824.000000000002,"velocity":0.8346456692913385,"pitch":73,"id":"42d8a42e-25b3-438c-9595-3c51f6ddd228"},{"length":115,"position":13912.615384615385,"velocity":0.8267716535433071,"pitch":74,"id":"5d729d68-debd-4f02-8e87-3ac85f9936c4"},{"length":96,"position":14001.23076923077,"velocity":0.8346456692913385,"pitch":73,"id":"bea43412-9213-48f2-99ef-c20d1df1abd0"},{"length":85,"position":14089.846153846154,"velocity":0.8031496062992126,"pitch":70,"id":"a14aaa20-a9ac-47ca-bf0f-9d995ca963cb"},{"length":88,"position":14178.461538461539,"velocity":0.84251968503937,"pitch":67,"id":"27c35f1b-af28-46d6-826b-dd74a016d6fb"},{"length":76,"position":14267.076923076924,"velocity":0.8503937007874016,"pitch":74,"id":"108312c8-6e33-48d9-a7c7-5614fb0bf2be"},{"length":73,"position":14444.307692307693,"velocity":0.84251968503937,"pitch":67,"id":"3134762c-9d96-4135-bead-d8482a33f17f"},{"length":96,"position":14532.923076923078,"velocity":0.8031496062992126,"pitch":73,"id":"9876ab52-405b-4ead-b758-4d563be77b70"},{"length":122,"position":14621.538461538463,"velocity":0.8188976377952756,"pitch":74,"id":"20c6edaf-3804-46c5-a6e4-13036117b2cb"},{"length":97,"position":14710.153846153848,"velocity":0.8346456692913385,"pitch":73,"id":"68f08565-a021-4f63-ad05-742a3898d603"},{"length":93,"position":14798.769230769232,"velocity":0.8110236220472441,"pitch":70,"id":"fa02b04b-b6c0-41b3-b38d-ca6f00ad935c"},{"length":93,"position":14887.384615384617,"velocity":0.8110236220472441,"pitch":67,"id":"9d120eae-aaec-4825-94d5-ab641ac88c22"},{"length":62,"position":14976.000000000002,"velocity":0.8267716535433071,"pitch":74,"id":"bf7e1ee5-e804-405f-b50a-2f1232e42c88"},{"length":100,"position":15153.23076923077,"velocity":0.8503937007874016,"pitch":67,"id":"609245d6-6d5e-4546-9d4f-65bf5163f1a0"},{"length":101,"position":15241.846153846154,"velocity":0.84251968503937,"pitch":73,"id":"f571c0d1-266b-4710-9b47-82e438998eac"},{"length":122,"position":15330.461538461539,"velocity":0.84251968503937,"pitch":74,"id":"8b0cac55-b7e2-4159-9a3b-fa956a7aa50b"},{"length":96,"position":15419.076923076924,"velocity":0.8267716535433071,"pitch":73,"id":"28523f05-d710-4cb6-a848-964f4d646b34"},{"length":97,"position":15507.692307692309,"velocity":0.8188976377952756,"pitch":70,"id":"82996427-b786-4dbc-b918-2df1420e8354"},{"length":96,"position":15596.307692307693,"velocity":0.84251968503937,"pitch":67,"id":"2e2bfffd-f79e-4044-a52f-38c00d131a5d"},{"length":67,"position":15684.923076923078,"velocity":0.84251968503937,"pitch":74,"id":"97476afd-1681-4268-baff-47b371e4757f"},{"length":102,"position":15862.153846153848,"velocity":0.8346456692913385,"pitch":67,"id":"e1297d04-7959-450a-9dbb-5bbdf0f8be0f"},{"length":93,"position":15950.769230769232,"velocity":0.8346456692913385,"pitch":73,"id":"03d95ad8-6125-4711-81eb-ac7dd6e24b93"},{"length":113,"position":16039.384615384617,"velocity":0.8031496062992126,"pitch":74,"id":"74d626d7-a3fb-45b0-aa89-6cbc8ece7bce"},{"length":105,"position":16128.000000000002,"velocity":0.84251968503937,"pitch":73,"id":"05ffd37e-2513-4c41-b3d5-896bc6b8e58b"},{"length":67,"position":16215.692307692309,"velocity":0.8110236220472441,"pitch":70,"id":"6f80c773-1528-47a5-9ef1-15cf0f7b978f"},{"length":96,"position":16305.23076923077,"velocity":0.8267716535433071,"pitch":72,"id":"29a39ce4-51ea-4ba7-93ea-afe0cd6a72bf"},{"length":93,"position":16393.846153846156,"velocity":0.8188976377952756,"pitch":79,"id":"459599f1-b753-478e-9d05-f84bd16bad1e"},{"length":80,"position":16570.153846153848,"velocity":0.8110236220472441,"pitch":72,"id":"2b7632d3-b8d0-447a-9d2a-beac7266cf16"},{"length":93,"position":16659.69230769231,"velocity":0.8188976377952756,"pitch":78,"id":"d4c30f3f-4fcd-4cac-b3e4-e7a62112b5bd"},{"length":118,"position":16748.307692307695,"velocity":0.84251968503937,"pitch":79,"id":"edf07a2a-79f5-4d8f-b098-1e536bd67d5d"},{"length":95,"position":16836.923076923078,"velocity":0.8188976377952756,"pitch":78,"id":"ea911f65-2e13-4758-a01f-f40cdbc7ea37"},{"length":98,"position":16925.53846153846,"velocity":0.84251968503937,"pitch":75,"id":"6dcc180e-1a54-44d6-ac25-b9ccb0f2363c"},{"length":96,"position":17014.153846153848,"velocity":0.84251968503937,"pitch":72,"id":"83d64743-6c68-445d-9435-415dc1b3b3bc"},{"length":74,"position":17102.76923076923,"velocity":0.8031496062992126,"pitch":79,"id":"6ac3e806-f979-4be8-9125-9f76d09b02de"},{"length":100,"position":17280,"velocity":0.8110236220472441,"pitch":72,"id":"122a0e65-82a5-45c8-a380-b7bdfff063a3"},{"length":93,"position":17368.615384615387,"velocity":0.84251968503937,"pitch":78,"id":"65f334bf-6bbc-4a4c-832f-bd051a02a3be"},{"length":126,"position":17457.23076923077,"velocity":0.8267716535433071,"pitch":79,"id":"e0ac2e54-478b-4eed-b8bd-903cb4dacbd2"},{"length":99,"position":17545.846153846156,"velocity":0.8267716535433071,"pitch":78,"id":"ed5dea53-5ec7-467b-8c8b-fab383aa1c7f"},{"length":90,"position":17634.46153846154,"velocity":0.8110236220472441,"pitch":75,"id":"dadb9dc0-f1bb-4bc6-98f8-f5f8f0c83df7"},{"length":86,"position":17723.076923076926,"velocity":0.8031496062992126,"pitch":74,"id":"a419eb6a-0f9b-447c-9771-badcebbe9a25"},{"length":83,"position":17811.69230769231,"velocity":0.8031496062992126,"pitch":81,"id":"471180ea-d5c1-4d95-ae72-ea2ca43baac3"},{"length":96,"position":17988.923076923078,"velocity":0.8188976377952756,"pitch":74,"id":"f5fda560-f0af-40df-828f-cfe0e5a3c8c2"},{"length":121,"position":18077.53846153846,"velocity":0.8503937007874016,"pitch":78,"id":"dab65737-2474-450b-ad3a-21652756c0fe"},{"length":63,"position":18166.153846153848,"velocity":0.8188976377952756,"pitch":74,"id":"fd44f8d1-d8c0-418d-9746-49ee12c764a1"},{"length":379,"position":18343.384615384617,"velocity":0.8031496062992126,"pitch":72,"id":"4cdb7244-3fc9-4253-b0e4-4ddfeb4d9d19"}],"timing":{"pulsesContentPosition":-708.923076923077,"pulsesLength":18432},"type":"N"}]}},{"type":"InstrumentChannel","data":{"mute":false,"solo":false,"gainAutomation":[{"time":0,"value":-12}],"id":"c0f45f2c-5de7-45b6-8d02-c35b26e858b4","instrument":{"config":{"type":"generalMidiSynth","data":{"programId":33,"isPercussion":false}},"name":"Electric Bass (finger)"},"name":"instrument","regions":[{"loopCount":1,"position":0,"color":"#516E41","id":"9ec42030-ad77-4240-aff2-c2aede35c152","name":"Note Clip","notes":[{"length":188,"position":708.923076923077,"velocity":0.4251968503937008,"pitch":31,"id":"647296f2-8b06-4635-bd51-89c23624db9c"},{"length":87,"position":974.7692307692308,"velocity":0.41732283464566927,"pitch":31,"id":"1e1a5351-6028-4a62-bd25-ef77d65888f2"},{"length":87,"position":1063.3846153846155,"velocity":0.4251968503937008,"pitch":34,"id":"ed3a2d70-ac00-4217-9460-cf472b222b7d"},{"length":89,"position":1152,"velocity":0.4251968503937008,"pitch":31,"id":"a38da5bb-e8be-4c32-8e28-ac0c2f785e34"},{"length":96,"position":1329.2307692307693,"velocity":0.41732283464566927,"pitch":31,"id":"0b290181-a79f-4292-92e7-ab9a2154d95d"},{"length":103,"position":1506.4615384615386,"velocity":0.4251968503937008,"pitch":31,"id":"4a2cab35-2def-499f-b0eb-d698b4712eb2"},{"length":88,"position":1683.6923076923078,"velocity":0.4015748031496063,"pitch":31,"id":"46717b74-0fc5-4133-adba-a34703772164"},{"length":87,"position":1772.3076923076924,"velocity":0.4094488188976378,"pitch":34,"id":"fe40d248-88e6-4410-8ac0-ec26b3af3eba"},{"length":87,"position":1860.9230769230771,"velocity":0.4015748031496063,"pitch":31,"id":"e02a7bdb-b6fe-4b92-9a52-d15a583a6e24"},{"length":171,"position":1949.5384615384617,"velocity":0.4094488188976378,"pitch":29,"id":"d73dd471-6e8f-4b83-9366-a7b50a1b2b6f"},{"length":169,"position":2126.769230769231,"velocity":0.41732283464566927,"pitch":31,"id":"02242a6f-5bb8-4c7e-83eb-82cbcdb0fe6b"},{"length":83,"position":2392.6153846153848,"velocity":0.41732283464566927,"pitch":31,"id":"9fb84d12-cb78-4f46-aa01-e639f227a744"},{"length":87,"position":2481.2307692307695,"velocity":0.4015748031496063,"pitch":34,"id":"82c55f8b-2544-470d-a754-35260eab06a3"},{"length":87,"position":2569.846153846154,"velocity":0.4251968503937008,"pitch":31,"id":"62e5a0c9-f499-4d30-bc77-df0f5fb39c3e"},{"length":84,"position":2747.0769230769233,"velocity":0.4015748031496063,"pitch":31,"id":"98b3f1d6-6521-4c8a-b28a-f2dd53de12f8"},{"length":85,"position":2924.3076923076924,"velocity":0.4251968503937008,"pitch":31,"id":"6239ab3c-2575-4755-9c7e-059e6c17f27f"},{"length":87,"position":3101.538461538462,"velocity":0.4251968503937008,"pitch":31,"id":"50b781c8-9217-49f5-aab7-a72e44911642"},{"length":84,"position":3190.153846153846,"velocity":0.4251968503937008,"pitch":34,"id":"da074b77-18e6-46ab-a345-55d37749ed66"},{"length":82,"position":3278.769230769231,"velocity":0.4094488188976378,"pitch":31,"id":"bec21bb1-b0f2-4fde-bbf2-fb616221b334"},{"length":157,"position":3367.3846153846157,"velocity":0.4015748031496063,"pitch":29,"id":"eb740486-f105-4aae-b3b6-4de2b525a8e4"},{"length":187,"position":3544.6153846153848,"velocity":0.4015748031496063,"pitch":36,"id":"caab7780-654a-4316-86ef-172dced577f2"},{"length":77,"position":3810.4615384615386,"velocity":0.41732283464566927,"pitch":36,"id":"ceb37eeb-bbab-4009-a35f-5449f877e187"},{"length":87,"position":3899.0769230769233,"velocity":0.41732283464566927,"pitch":39,"id":"bdceec87-c882-4b2b-8d00-590ce414160d"},{"length":81,"position":3987.692307692308,"velocity":0.41732283464566927,"pitch":36,"id":"8f55a915-2a3b-4d04-89ed-bd218c57d7c1"},{"length":87,"position":4164.923076923077,"velocity":0.4015748031496063,"pitch":36,"id":"095e5bf8-f47b-4f25-9e7d-9144bf9f225a"},{"length":92,"position":4342.153846153847,"velocity":0.4015748031496063,"pitch":36,"id":"9c86d71f-ff52-4826-909f-3ac41512329c"},{"length":88,"position":4519.384615384615,"velocity":0.4094488188976378,"pitch":36,"id":"29e9bda0-cc88-43b7-a697-89c7edb40af8"},{"length":87,"position":4608,"velocity":0.4015748031496063,"pitch":39,"id":"14cf54ac-ef41-464c-8670-9e1150a7ff73"},{"length":71,"position":4696.615384615385,"velocity":0.4094488188976378,"pitch":36,"id":"08112184-144d-48d0-bbec-30c30c701752"},{"length":177,"position":4785.2307692307695,"velocity":0.41732283464566927,"pitch":43,"id":"7d52308e-a83a-4ec9-a054-e1d13a02adc9"},{"length":167,"position":4962.461538461539,"velocity":0.4094488188976378,"pitch":38,"id":"8d9cc5d6-d042-4ac3-9607-88a8b62939a8"},{"length":83,"position":5228.307692307692,"velocity":0.4251968503937008,"pitch":38,"id":"a1b2b212-8c16-496b-ac57-031e9f0faa77"},{"length":87,"position":5316.923076923077,"velocity":0.41732283464566927,"pitch":42,"id":"9d58d2db-78a6-4810-b0a6-bcc83d75de9d"},{"length":68,"position":5405.538461538462,"velocity":0.41732283464566927,"pitch":38,"id":"ec1d595e-694e-48f0-b51e-cdbcc96a8570"},{"length":75,"position":5582.769230769231,"velocity":0.4251968503937008,"pitch":26,"id":"8316b0e7-5c17-4649-8bdb-53a1eb810049"},{"length":188,"position":6380.307692307692,"velocity":0.4251968503937008,"pitch":31,"id":"bea18483-d7aa-4be3-811c-7d590caca480"},{"length":87,"position":6646.153846153847,"velocity":0.41732283464566927,"pitch":31,"id":"eeec116f-b802-4e8b-969d-0ad83c889a8e"},{"length":87,"position":6734.769230769231,"velocity":0.4251968503937008,"pitch":34,"id":"7f90291e-c10a-42b9-9cd2-69524665e6f9"},{"length":89,"position":6823.384615384616,"velocity":0.4251968503937008,"pitch":31,"id":"9353015b-5d7a-444e-a75c-6ce7aecc7423"},{"length":96,"position":6999.6923076923085,"velocity":0.41732283464566927,"pitch":31,"id":"469a63e7-46a1-4351-998e-3af4ae49e233"},{"length":103,"position":7177.846153846154,"velocity":0.4251968503937008,"pitch":31,"id":"15bb565c-56b6-4f74-a838-026798ed18ff"},{"length":88,"position":7355.076923076924,"velocity":0.4015748031496063,"pitch":31,"id":"d0c830bc-0810-4193-abd2-80fa0bec02d4"},{"length":87,"position":7443.6923076923085,"velocity":0.4094488188976378,"pitch":34,"id":"e927bb21-b3fe-4c12-b23d-244bacf03ecd"},{"length":87,"position":7532.307692307692,"velocity":0.4015748031496063,"pitch":31,"id":"c01f6fc3-d64a-4c7c-ab8d-44f21db34b4c"},{"length":171,"position":7620.923076923077,"velocity":0.4094488188976378,"pitch":29,"id":"e77ce31e-4a0d-497e-a157-a4865ed13ad1"},{"length":169,"position":7798.153846153847,"velocity":0.41732283464566927,"pitch":31,"id":"b6f9c753-fcd6-4de5-8d8f-848127276bb0"},{"length":83,"position":8064.000000000001,"velocity":0.41732283464566927,"pitch":31,"id":"812b2d8c-576c-4d5e-830c-87485ff2f6e2"},{"length":87,"position":8152.615384615385,"velocity":0.4015748031496063,"pitch":34,"id":"48810c3b-9118-4925-b084-a9cedec46475"},{"length":87,"position":8241.23076923077,"velocity":0.4251968503937008,"pitch":31,"id":"0fdafebe-cce5-492a-877a-c2db3f5173ae"},{"length":84,"position":8418.461538461539,"velocity":0.4015748031496063,"pitch":31,"id":"0fc79ace-009e-45a2-8b10-58c8df78051a"},{"length":85,"position":8594.76923076923,"velocity":0.4251968503937008,"pitch":31,"id":"d4989f4b-fd6e-4555-8086-d44c4af0cd79"},{"length":187,"position":9216,"velocity":0.4015748031496063,"pitch":36,"id":"356e456a-ab29-422e-b057-6dc12d69174b"},{"length":77,"position":9481.846153846154,"velocity":0.41732283464566927,"pitch":36,"id":"c148eac3-fd9f-4196-95db-2a6bce190a07"},{"length":87,"position":9570.461538461539,"velocity":0.41732283464566927,"pitch":39,"id":"8a852321-9e0e-400b-9da8-95a67e81f631"},{"length":81,"position":9659.076923076924,"velocity":0.41732283464566927,"pitch":36,"id":"4ddc21ba-d1e4-4c8f-a02e-a63129d93f80"},{"length":86,"position":9836.307692307693,"velocity":0.4015748031496063,"pitch":36,"id":"3de368da-9ca5-4d87-8f55-0c6931e447fb"},{"length":92,"position":10013.538461538463,"velocity":0.4015748031496063,"pitch":36,"id":"6f9073a8-945a-44a8-81d0-bd6fe3be0033"},{"length":88,"position":10190.769230769232,"velocity":0.4094488188976378,"pitch":36,"id":"42c73699-1bef-4a79-b1a7-9c15133d743a"},{"length":87,"position":10279.384615384615,"velocity":0.4015748031496063,"pitch":39,"id":"8873c21d-44c4-4790-b001-0a6f3fd36bac"},{"length":71,"position":10368,"velocity":0.4094488188976378,"pitch":36,"id":"d42a7a67-5805-41a8-ae2b-1980a1090968"},{"length":177,"position":10456.615384615385,"velocity":0.41732283464566927,"pitch":43,"id":"fd81be58-dfbb-42a2-9283-72d043d58aff"},{"length":167,"position":10633.846153846154,"velocity":0.4094488188976378,"pitch":38,"id":"e0ee773a-3ede-4999-b985-9427b6751fb1"},{"length":83,"position":10899.692307692309,"velocity":0.4251968503937008,"pitch":38,"id":"639531bf-4b54-4c21-9015-a75e90c1773a"},{"length":87,"position":10988.307692307693,"velocity":0.41732283464566927,"pitch":42,"id":"7dc500dc-e746-4045-850c-b88f6c96d234"},{"length":68,"position":11076.923076923078,"velocity":0.41732283464566927,"pitch":38,"id":"ef67305f-3b03-45c2-9b40-6fda327ed2a4"},{"length":76,"position":11254.153846153848,"velocity":0.4251968503937008,"pitch":26,"id":"281a3259-7fdf-4f6d-9766-e2c6fac797f9"},{"length":75,"position":11431.384615384617,"velocity":0.4251968503937008,"pitch":26,"id":"3dff1717-ac9c-40f2-be7c-5b1a9e41d0f2"},{"length":188,"position":13469.538461538463,"velocity":0.4251968503937008,"pitch":31,"id":"5a2f83a3-3aa4-416d-80c7-703d336a826f"},{"length":88,"position":13734.461538461539,"velocity":0.41732283464566927,"pitch":31,"id":"fd27394b-9f55-4ab6-8b77-016ffad8bc67"},{"length":87,"position":13824.000000000002,"velocity":0.4251968503937008,"pitch":34,"id":"58a2a4ff-cd7e-4dc7-98a4-6613e9a2f381"},{"length":89,"position":13912.615384615385,"velocity":0.4251968503937008,"pitch":31,"id":"56e12dbd-0d0d-42ab-8e11-7a285f492bb8"},{"length":96,"position":14089.846153846154,"velocity":0.41732283464566927,"pitch":31,"id":"0ad1b862-9ad5-493e-a00d-4a00033f47bc"},{"length":104,"position":14267.076923076924,"velocity":0.4251968503937008,"pitch":31,"id":"2e3de7fe-e211-45b9-95e7-6b069be0c316"},{"length":88,"position":14444.307692307693,"velocity":0.4015748031496063,"pitch":31,"id":"427f4a09-e68a-47f9-8b59-06272fbbd51f"},{"length":87,"position":14532.923076923078,"velocity":0.4094488188976378,"pitch":34,"id":"250bbf31-ecce-4261-b207-05e8468c7d6d"},{"length":87,"position":14621.538461538463,"velocity":0.4015748031496063,"pitch":31,"id":"b5dac68e-319a-4dd8-b12e-3e8c8e3b2950"},{"length":171,"position":14710.153846153848,"velocity":0.4094488188976378,"pitch":29,"id":"0b29db03-dc6d-4234-836f-56ec179f62ba"},{"length":169,"position":14887.384615384617,"velocity":0.41732283464566927,"pitch":31,"id":"e35ccc6b-f5a8-4b8e-a192-b909ea566f8d"},{"length":83,"position":15153.23076923077,"velocity":0.41732283464566927,"pitch":31,"id":"6027a7cb-495a-4af8-8a1c-8876ce2d8bff"},{"length":87,"position":15241.846153846154,"velocity":0.4015748031496063,"pitch":34,"id":"acbd190f-de33-4ff2-b4f5-47b412ca8201"},{"length":87,"position":15330.461538461539,"velocity":0.4251968503937008,"pitch":31,"id":"c6843a39-e26c-485f-ac84-31a1888de2b0"},{"length":84,"position":15507.692307692309,"velocity":0.4015748031496063,"pitch":31,"id":"3d0193d2-dbaf-40d6-bb1d-bbdf6609b5b6"},{"length":85,"position":15684.923076923078,"velocity":0.4251968503937008,"pitch":31,"id":"eda794e4-c044-49e0-901e-5bb5f299a4a0"},{"length":87,"position":15862.153846153848,"velocity":0.4251968503937008,"pitch":31,"id":"0f1e3e52-6843-4d3b-b408-0efa9a08bafb"},{"length":84,"position":15950.769230769232,"velocity":0.4251968503937008,"pitch":34,"id":"d8d1b563-1083-430b-b5f2-72e02d41c8d0"},{"length":82,"position":16039.384615384617,"velocity":0.4094488188976378,"pitch":31,"id":"561488a2-34b6-4328-8acd-e333bb45d8de"},{"length":157,"position":16128.000000000002,"velocity":0.4015748031496063,"pitch":29,"id":"7f93e5b2-c909-4c33-8185-536ad906f78f"},{"length":187,"position":16305.23076923077,"velocity":0.4015748031496063,"pitch":36,"id":"578a7e25-b807-467d-b622-924400857a70"},{"length":78,"position":16570.153846153848,"velocity":0.41732283464566927,"pitch":36,"id":"91209b47-079a-4830-9d3a-f18c0e45d659"},{"length":87,"position":16659.69230769231,"velocity":0.41732283464566927,"pitch":39,"id":"e7b9fa93-ff45-4022-b375-181eaaf6e532"},{"length":81,"position":16748.307692307695,"velocity":0.41732283464566927,"pitch":36,"id":"17bbeea4-d9c8-4cb8-a73e-903fbf46c3a9"},{"length":86,"position":16925.53846153846,"velocity":0.4015748031496063,"pitch":36,"id":"5c567630-af22-4c40-82d0-9a5b6cabebbd"},{"length":91,"position":17102.76923076923,"velocity":0.4015748031496063,"pitch":36,"id":"3dd2c65b-5e00-4e06-a5c4-1eaa84223d3f"},{"length":88,"position":17280,"velocity":0.4094488188976378,"pitch":36,"id":"067bf211-314a-4803-aba6-3feff6ded1e7"},{"length":88,"position":17368.615384615387,"velocity":0.4015748031496063,"pitch":39,"id":"560102c1-139e-4569-8b0e-b8038229e987"},{"length":71,"position":17457.23076923077,"velocity":0.4094488188976378,"pitch":36,"id":"0400cc4b-e60d-4350-9067-e33bf09548b6"},{"length":177,"position":17545.846153846156,"velocity":0.41732283464566927,"pitch":43,"id":"dab0517c-56ea-45cd-954c-679f7b98fdce"},{"length":167,"position":17723.076923076926,"velocity":0.4094488188976378,"pitch":38,"id":"6a4bbc10-1f75-4206-a299-db37c1a4d992"},{"length":84,"position":17988,"velocity":0.4251968503937008,"pitch":38,"id":"f6cde81e-d9e8-4479-a2f7-6d7eadcf5131"},{"length":88,"position":18077.53846153846,"velocity":0.41732283464566927,"pitch":42,"id":"cf9e2f96-416f-4e59-93cb-d7bb2b36c9cb"},{"length":68,"position":18166.153846153848,"velocity":0.41732283464566927,"pitch":38,"id":"c9b5fd47-475f-4583-ad70-1e9d5f380ebc"},{"length":75,"position":18343.384615384617,"velocity":0.4251968503937008,"pitch":26,"id":"40532c21-c13b-4597-b21f-6b3e84ebad09"},{"length":85,"position":18520.615384615387,"velocity":0.4251968503937008,"pitch":26,"id":"034d1aee-f501-4d5c-beaf-2b8bf2aac6d9"},{"length":72,"position":18696.923076923078,"velocity":0.41732283464566927,"pitch":26,"id":"e971b3fc-0e76-4cd7-b230-e0ffc0c034c4"}],"timing":{"pulsesContentPosition":-708.923076923077,"pulsesLength":18432},"type":"N"}]}},{"type":"InstrumentChannel","data":{"mute":false,"solo":false,"gainAutomation":[{"time":0,"value":-8}],"id":"b066ad47-b04a-45b2-b9aa-6ac68208180d","instrument":{"config":{"type":"generalMidiSynth","data":{"programId":26,"isPercussion":true}},"name":"Percussion"},"name":"instrument","regions":[{"loopCount":1,"position":0,"color":"#303030","id":"71655aff-2d97-498f-96e8-d2a7e4e86815","name":"Note Clip","notes":[{"length":23.07692307692298,"position":708.923076923077,"velocity":0.8188976377952756,"pitch":35,"id":"4553de71-97bb-4594-afb6-59da5c10c984"},{"length":25.84615384615381,"position":886.1538461538462,"velocity":0.4015748031496063,"pitch":74,"id":"b305166e-360f-4270-8096-3dab3844bbdc"},{"length":25.84615384615381,"position":886.1538461538462,"velocity":0.8188976377952756,"pitch":35,"id":"ab367c75-9ed5-43f8-91b2-9f4af35e5a43"},{"length":6,"position":886.1538461538462,"velocity":0.8031496062992126,"pitch":26,"id":"138f8f24-3a3a-4b29-9381-23055b18ec9f"},{"length":28.615384615384528,"position":1063.3846153846155,"velocity":0.8188976377952756,"pitch":35,"id":"7a9fc6bb-adf8-4b7e-bea4-dd4a9242d992"},{"length":19.384615384615245,"position":1240.6153846153848,"velocity":0.7244094488188977,"pitch":73,"id":"b7d04104-f0ee-4b79-89b4-de6a815ee9db"},{"length":6,"position":1240.6153846153848,"velocity":0.8110236220472441,"pitch":26,"id":"a5c9a144-18e5-441b-8af1-906ddcff7339"},{"length":31.384615384615245,"position":1240.6153846153848,"velocity":0.8188976377952756,"pitch":35,"id":"7bacd66f-8389-4d2a-a970-359f9fbb0583"},{"length":22.15384615384596,"position":1417.846153846154,"velocity":0.8110236220472441,"pitch":35,"id":"12e7fb20-9ee9-47f0-95a0-55242c571442"},{"length":24.923076923076906,"position":1595.076923076923,"velocity":0.8188976377952756,"pitch":35,"id":"65170be4-c7c1-4d8e-b8f3-5f5262ca4c0e"},{"length":6,"position":1595.076923076923,"velocity":0.7952755905511811,"pitch":26,"id":"735ec30f-2bae-4147-be5a-bb80c27384c4"},{"length":24.923076923076906,"position":1595.076923076923,"velocity":0.4094488188976378,"pitch":74,"id":"75908544-f3e2-4da4-8366-e3616096a659"},{"length":27.692307692307622,"position":1772.3076923076924,"velocity":0.8031496062992126,"pitch":35,"id":"fe4cc788-47bc-4609-baab-ac8f8740db9f"},{"length":30.46153846153834,"position":1949.5384615384617,"velocity":0.7401574803149606,"pitch":73,"id":"bab8aaed-7009-4c30-9bed-81082e533f58"},{"length":6,"position":1949.5384615384617,"velocity":0.8110236220472441,"pitch":26,"id":"ccafa678-63df-4329-b9c2-1e9e61dd1e89"},{"length":30.46153846153834,"position":1949.5384615384617,"velocity":0.8188976377952756,"pitch":35,"id":"25cec726-90a2-4ba3-ab57-343240f7b99f"},{"length":21.230769230769056,"position":2126.769230769231,"velocity":0.8031496062992126,"pitch":35,"id":"3cb55f71-b286-46cd-b6ae-bebb7da954f5"},{"length":6,"position":2304,"velocity":0.8031496062992126,"pitch":26,"id":"1e608436-25e6-41ac-b8fa-ccdf9915f531"},{"length":24,"position":2304,"velocity":0.4094488188976378,"pitch":74,"id":"1ac64f9f-ef21-4a18-9929-123141efb8df"},{"length":24,"position":2304,"velocity":0.8110236220472441,"pitch":35,"id":"3eb0c9b7-202b-4da4-95ee-548c241966b3"},{"length":26.76923076923049,"position":2481.2307692307695,"velocity":0.8110236220472441,"pitch":35,"id":"071a8c5f-d664-4608-973e-c878e98607ca"},{"length":29.538461538461434,"position":2658.4615384615386,"velocity":0.7244094488188977,"pitch":73,"id":"3c15758a-8c46-4f54-9f61-bb22932d6554"},{"length":6,"position":2658.4615384615386,"velocity":0.8031496062992126,"pitch":26,"id":"0dd47560-e19a-48a5-9c5f-7befc6558f25"},{"length":29.538461538461434,"position":2658.4615384615386,"velocity":0.8188976377952756,"pitch":35,"id":"b1519cb2-95d9-49c8-9085-c03d05ca09ff"},{"length":20.307692307691923,"position":2835.692307692308,"velocity":0.7952755905511811,"pitch":35,"id":"28eee793-892f-4c52-b32a-08a6c762fa6d"},{"length":6,"position":3012.923076923077,"velocity":0.8031496062992126,"pitch":26,"id":"889c6a0f-a7a9-4dbe-bf4b-83639b5fe15d"},{"length":23.076923076922867,"position":3012.923076923077,"velocity":0.8110236220472441,"pitch":35,"id":"02763821-8881-45c7-9f45-cc6a3f1a545f"},{"length":23.076923076922867,"position":3012.923076923077,"velocity":0.41732283464566927,"pitch":74,"id":"0e799a7d-b4e8-4918-a92b-10f486fa525a"},{"length":25.84615384615381,"position":3190.153846153846,"velocity":0.7952755905511811,"pitch":35,"id":"72855adb-aa06-4c7a-a8e9-239e663597a0"},{"length":6,"position":3367.3846153846157,"velocity":0.7952755905511811,"pitch":26,"id":"21325a51-2391-45b6-9006-cd2788fd24d1"},{"length":28.6153846153843,"position":3367.3846153846157,"velocity":0.8031496062992126,"pitch":35,"id":"87de4e5e-fdf5-434f-89c9-c25d57dc5b35"},{"length":28.6153846153843,"position":3367.3846153846157,"velocity":0.7165354330708661,"pitch":73,"id":"c62e09d8-3578-4dbd-beef-e99fc19e8974"},{"length":31.384615384615245,"position":3544.6153846153848,"velocity":0.8188976377952756,"pitch":35,"id":"471a4c95-ab5b-4786-80f1-3c1e129ecbc2"},{"length":22.153846153845734,"position":3721.8461538461543,"velocity":0.4094488188976378,"pitch":74,"id":"a1e26161-7f8a-4f1a-b6ec-e23d050cd6f5"},{"length":6,"position":3721.8461538461543,"velocity":0.8110236220472441,"pitch":26,"id":"9430a89a-9271-41c3-8353-85252e7cbff8"},{"length":22.153846153845734,"position":3721.8461538461543,"velocity":0.8188976377952756,"pitch":35,"id":"d4c7e7c9-0927-473e-89e4-d9f5eda26042"},{"length":24.923076923076678,"position":3899.0769230769233,"velocity":0.8031496062992126,"pitch":35,"id":"00b9bb8a-6728-47e6-9dd7-c9f1c61208db"},{"length":6,"position":4076.3076923076924,"velocity":0.8110236220472441,"pitch":26,"id":"c3b527ae-9e72-4675-8695-ef51abcd2831"},{"length":27.692307692307622,"position":4076.3076923076924,"velocity":0.8188976377952756,"pitch":35,"id":"bce89dcd-b9f3-448e-8ccd-cac2a1496dde"},{"length":27.692307692307622,"position":4076.3076923076924,"velocity":0.7401574803149606,"pitch":73,"id":"b3747f15-ec3c-4fef-ad91-806ca21a6d63"},{"length":30.46153846153811,"position":4253.538461538462,"velocity":0.8110236220472441,"pitch":35,"id":"49666d2f-ed75-41d8-953e-71041d8bcd63"},{"length":21.2307692307686,"position":4430.769230769231,"velocity":0.4251968503937008,"pitch":74,"id":"cf6a669b-ef0f-44fd-91ef-54f659551b03"},{"length":6,"position":4430.769230769231,"velocity":0.7952755905511811,"pitch":26,"id":"d4b7af61-cbe5-4a20-b3d3-b7814b2affd9"},{"length":21.2307692307686,"position":4430.769230769231,"velocity":0.8188976377952756,"pitch":35,"id":"32530541-8543-41e6-92dd-1b60f9f38a17"},{"length":24,"position":4608,"velocity":0.8188976377952756,"pitch":35,"id":"735b34e3-2b13-4703-b3c1-0edf5b34d36c"},{"length":26.76923076923049,"position":4785.2307692307695,"velocity":0.8110236220472441,"pitch":35,"id":"38deb620-5e8c-4500-bcab-64d7d791d7ff"},{"length":26.76923076923049,"position":4785.2307692307695,"velocity":0.7244094488188977,"pitch":73,"id":"35604dcd-ccc5-43c8-955c-5d2d23b9059c"},{"length":6,"position":4785.2307692307695,"velocity":0.8031496062992126,"pitch":26,"id":"e2c1c43f-fe38-4e0e-b1a9-b4e3037a4b67"},{"length":29.53846153846098,"position":4962.461538461539,"velocity":0.8188976377952756,"pitch":35,"id":"dda8dc0f-a115-4a80-8c5e-bcc4988034d2"},{"length":6,"position":5139.692307692308,"velocity":0.8031496062992126,"pitch":26,"id":"45103567-e446-40ce-8a8d-19fb4fd41887"},{"length":20.307692307692378,"position":5139.692307692308,"velocity":0.8110236220472441,"pitch":35,"id":"78fb6a9d-ad84-46cf-8347-f993e8e9deb4"},{"length":20.307692307692378,"position":5139.692307692308,"velocity":0.4015748031496063,"pitch":74,"id":"b6d01fc3-0d02-4238-a096-633aba630460"},{"length":23.076923076922867,"position":5316.923076923077,"velocity":0.8031496062992126,"pitch":35,"id":"f2017a71-aad7-473a-8708-22794ae6d0f0"},{"length":6,"position":5494.153846153847,"velocity":0.8031496062992126,"pitch":26,"id":"bf4b1929-e36d-4aee-af18-3136a44da1f2"},{"length":25.846153846153356,"position":5494.153846153847,"velocity":0.8031496062992126,"pitch":35,"id":"ad617c95-61cf-4aee-8dc4-b35108a722d6"},{"length":25.846153846153356,"position":5494.153846153847,"velocity":0.7322834645669292,"pitch":73,"id":"7e473667-8a38-4b83-8fbb-127c7b7529b8"},{"length":28.615384615383846,"position":5671.384615384616,"velocity":0.8110236220472441,"pitch":35,"id":"c9e44d9f-4d31-41d3-896b-b143ea80d6d5"},{"length":27.692307692307622,"position":6380.307692307692,"velocity":0.7952755905511811,"pitch":35,"id":"2d5ed547-d1d6-4e35-b8fb-0df7f3e43551"},{"length":23.076923076922867,"position":6468.923076923077,"velocity":0.6614173228346457,"pitch":69,"id":"581ff653-cd16-44e8-bd8a-d11011242abb"},{"length":30.46153846153811,"position":6557.538461538462,"velocity":0.4015748031496063,"pitch":74,"id":"9ac2f338-da08-4153-8dff-d3addae4ca3e"},{"length":6,"position":6557.538461538462,"velocity":0.8110236220472441,"pitch":26,"id":"ad45f6d8-d1ff-4038-b021-cf25139a64a5"},{"length":30.46153846153811,"position":6557.538461538462,"velocity":0.8188976377952756,"pitch":35,"id":"74e96b4b-80b7-4b6f-923c-ff530875a515"},{"length":25.846153846153356,"position":6646.153846153847,"velocity":0.6614173228346457,"pitch":69,"id":"0d680151-fa38-43a8-852a-7f2a2f6edc1c"},{"length":21.2307692307686,"position":6734.769230769231,"velocity":0.8031496062992126,"pitch":35,"id":"86373cb1-c07a-4cbf-8b54-8e58b1cec551"},{"length":28.615384615383846,"position":6823.384615384616,"velocity":0.6614173228346457,"pitch":69,"id":"403b56b9-1d4f-4ac9-b45e-a5248bce33ef"},{"length":23.99999999999909,"position":6912.000000000001,"velocity":0.7322834645669292,"pitch":73,"id":"ef0f2c11-04ea-4739-9576-d40c969e8ec4"},{"length":6,"position":6912.000000000001,"velocity":0.8188976377952756,"pitch":26,"id":"44c595b3-e7ed-40d8-8ddd-4d8016cb3d6e"},{"length":23.99999999999909,"position":6912.000000000001,"velocity":0.8110236220472441,"pitch":35,"id":"1e1435a1-2aac-4e89-aa65-d3a529688a12"},{"length":20.307692307691468,"position":6999.6923076923085,"velocity":0.6692913385826772,"pitch":69,"id":"d701998d-3f3c-424a-99df-1d2f8218eb22"},{"length":26.76923076923049,"position":7089.2307692307695,"velocity":0.8031496062992126,"pitch":35,"id":"6527b720-2a1d-4c16-a441-107be723dcbc"},{"length":23.076923076922867,"position":7176.923076923077,"velocity":0.6614173228346457,"pitch":69,"id":"7c50d1dc-d5eb-4e29-8a12-129e63d983d8"},{"length":6,"position":7266.461538461539,"velocity":0.7952755905511811,"pitch":26,"id":"d47a8c0b-7c7b-4ef4-8cc7-add283dff47a"},{"length":29.53846153846098,"position":7266.461538461539,"velocity":0.8188976377952756,"pitch":35,"id":"5a0a304c-ab96-44f0-bcab-817a2ef1ff94"},{"length":29.53846153846098,"position":7266.461538461539,"velocity":0.41732283464566927,"pitch":74,"id":"1375b45a-94d7-437c-81ad-22729c411def"},{"length":25.846153846153356,"position":7354.153846153847,"velocity":0.6535433070866141,"pitch":69,"id":"1b27d73d-cd39-4306-8351-fdaa2bb50a98"},{"length":20.307692307691468,"position":7443.6923076923085,"velocity":0.8110236220472441,"pitch":35,"id":"8fda8bee-7b9d-49c0-a391-def9bd2e5cbb"},{"length":28.615384615383846,"position":7531.384615384616,"velocity":0.6456692913385826,"pitch":69,"id":"0e0af6e9-f4c8-450e-a067-aa2eb85a62c3"},{"length":23.076923076922867,"position":7620.923076923077,"velocity":0.8188976377952756,"pitch":35,"id":"e09c8979-7bcc-40ec-9ca6-c9a2066a195a"},{"length":23.076923076922867,"position":7620.923076923077,"velocity":0.7165354330708661,"pitch":73,"id":"0c45c031-ab2f-41f0-b59c-07dda55d5dbc"},{"length":6,"position":7620.923076923077,"velocity":0.8110236220472441,"pitch":26,"id":"359088ed-72f1-488e-9e57-e3111843ccb2"},{"length":19.384615384615245,"position":7708.615384615385,"velocity":0.6456692913385826,"pitch":69,"id":"70113f7e-c444-48c1-94be-3f72e51c30bb"},{"length":25.846153846153356,"position":7798.153846153847,"velocity":0.8110236220472441,"pitch":35,"id":"39684621-33d4-4408-a725-4934fb13cb11"},{"length":22.153846153845734,"position":7885.846153846154,"velocity":0.6692913385826772,"pitch":69,"id":"70667a6d-b21b-4536-9067-90e92413e263"},{"length":6,"position":7975.384615384616,"velocity":0.8031496062992126,"pitch":26,"id":"7db48c42-07f5-436f-bc11-c3cef3d5884f"},{"length":28.615384615383846,"position":7975.384615384616,"velocity":0.8110236220472441,"pitch":35,"id":"7e21e0fc-58bd-487a-88ef-6ceaa321564d"},{"length":28.615384615383846,"position":7975.384615384616,"velocity":0.4251968503937008,"pitch":74,"id":"280c7dda-e566-494c-9810-80dfa591b7c4"},{"length":23.99999999999909,"position":8064.000000000001,"velocity":0.6535433070866141,"pitch":69,"id":"5ef8e1ea-1780-4595-ba63-abf659a4ce43"},{"length":31.384615384615245,"position":8152.615384615385,"velocity":0.8031496062992126,"pitch":35,"id":"7001b4b2-d79e-4674-9d9e-ed58471fa266"},{"length":26.76923076923049,"position":8241.23076923077,"velocity":0.6614173228346457,"pitch":69,"id":"9229d837-37ac-4dd5-947f-81cb0a74e041"},{"length":6,"position":8329.846153846154,"velocity":0.8188976377952756,"pitch":26,"id":"58408afa-32bd-453e-a86e-766ec8e51666"},{"length":22.153846153845734,"position":8329.846153846154,"velocity":0.8031496062992126,"pitch":35,"id":"50347732-d18d-46e1-9c5a-a79552c0e563"},{"length":22.153846153845734,"position":8329.846153846154,"velocity":0.7165354330708661,"pitch":73,"id":"c756c62b-8465-4ae4-b803-c1cbd8068d79"},{"length":29.53846153846098,"position":8418.461538461539,"velocity":0.6614173228346457,"pitch":69,"id":"da49b698-4cf4-4469-b695-744e1baae793"},{"length":24.923076923076223,"position":8507.076923076924,"velocity":0.8110236220472441,"pitch":35,"id":"0aa4b220-34cc-4bc3-9957-377a6a4a743b"},{"length":21.23076923076951,"position":8594.76923076923,"velocity":0.6692913385826772,"pitch":69,"id":"c796de10-c825-401f-9ccc-0a95df6b3a7d"},{"length":27.692307692306713,"position":8684.307692307693,"velocity":0.8110236220472441,"pitch":35,"id":"0c5c0874-7aad-433e-86bf-bfbe90a45201"},{"length":27.692307692306713,"position":8684.307692307693,"velocity":0.4094488188976378,"pitch":74,"id":"8d287927-c900-4715-9ba8-7cbe6c5f664b"},{"length":6,"position":8684.307692307693,"velocity":0.8031496062992126,"pitch":26,"id":"3fc32534-7f1f-430b-8487-7c6e243e4aa9"},{"length":24,"position":9216,"velocity":0.7952755905511811,"pitch":35,"id":"fbd35322-f3e5-4084-8a48-2d0753905d33"},{"length":20.307692307691468,"position":9303.692307692309,"velocity":0.6692913385826772,"pitch":69,"id":"ce0c4b69-00e8-4dc8-be06-6319669dff9c"},{"length":26.76923076923049,"position":9393.23076923077,"velocity":0.8031496062992126,"pitch":35,"id":"9bfa7e82-fe9a-4639-8a79-cb50006898b7"},{"length":26.76923076923049,"position":9393.23076923077,"velocity":0.4094488188976378,"pitch":74,"id":"2a665dfa-ad31-4ac9-ae76-cf39b9bd11b2"},{"length":6,"position":9393.23076923077,"velocity":0.7952755905511811,"pitch":26,"id":"ba8b1fb4-ed44-48b8-93bc-247c709aeeba"},{"length":22.153846153845734,"position":9481.846153846154,"velocity":0.6692913385826772,"pitch":69,"id":"c6f142f9-0518-4fb2-a747-074b0cb0dc20"},{"length":29.53846153846098,"position":9570.461538461539,"velocity":0.8188976377952756,"pitch":35,"id":"211bd6bd-8511-40b1-99f7-8a18325d3b59"},{"length":24.923076923076223,"position":9659.076923076924,"velocity":0.6535433070866141,"pitch":69,"id":"5c846697-3ae9-49d8-b390-ad82a9730e02"},{"length":6,"position":9747.692307692309,"velocity":0.8188976377952756,"pitch":26,"id":"a1c8d9e8-676b-4be7-a643-7e02f2744952"},{"length":20.307692307691468,"position":9747.692307692309,"velocity":0.7165354330708661,"pitch":73,"id":"0b6f5d28-16e7-484e-b531-05750c6e319d"},{"length":20.307692307691468,"position":9747.692307692309,"velocity":0.8188976377952756,"pitch":35,"id":"07b43d72-9dfb-43c5-82e5-c0269c6b64ca"},{"length":27.692307692306713,"position":9836.307692307693,"velocity":0.6535433070866141,"pitch":69,"id":"5b1c6df7-7ee4-4d22-b5cf-d46bfd1a014d"},{"length":23.076923076921958,"position":9924.923076923078,"velocity":0.8110236220472441,"pitch":35,"id":"aa2106a7-2b27-42f8-b094-425ec17dff9c"},{"length":19.384615384615245,"position":10012.615384615385,"velocity":0.6614173228346457,"pitch":69,"id":"8790f2d9-f288-4cf0-9f51-81385ed6b729"},{"length":25.846153846152447,"position":10102.153846153848,"velocity":0.4251968503937008,"pitch":74,"id":"947a036c-c840-488f-84ca-7811378d2aef"},{"length":6,"position":10102.153846153848,"velocity":0.7952755905511811,"pitch":26,"id":"f022bec6-579a-48c4-9e2e-8336a36a212b"},{"length":25.846153846152447,"position":10102.153846153848,"velocity":0.8188976377952756,"pitch":35,"id":"eaeceecd-d23c-4f66-88d9-8de80db18d4c"},{"length":21.23076923076769,"position":10190.769230769232,"velocity":0.6614173228346457,"pitch":69,"id":"db63d82a-faa6-4df3-9f86-aaa363102276"},{"length":28.615384615384755,"position":10279.384615384615,"velocity":0.8031496062992126,"pitch":35,"id":"e0be29e9-192c-4268-b21b-5a08486c531c"},{"length":24.923076923076223,"position":10367.076923076924,"velocity":0.6456692913385826,"pitch":69,"id":"d098b42f-e0d3-48bf-8572-e80f7f988561"},{"length":6,"position":10456.615384615385,"velocity":0.8110236220472441,"pitch":26,"id":"4e3573c1-40a0-4a76-beea-073175e4cdb6"},{"length":31.384615384615245,"position":10456.615384615385,"velocity":0.8188976377952756,"pitch":35,"id":"6836bc72-1199-4771-85db-15fc95450f86"},{"length":19.384615384615245,"position":10456.615384615385,"velocity":0.7322834645669292,"pitch":73,"id":"321bd75c-d3ba-474a-9523-0d55bb19808e"},{"length":26.76923076923049,"position":10545.23076923077,"velocity":0.6692913385826772,"pitch":69,"id":"07294b5a-ab84-46bf-9ec2-460242c85eb7"},{"length":22.153846153845734,"position":10633.846153846154,"velocity":0.8188976377952756,"pitch":35,"id":"02e1e947-356d-4530-b960-3b3743405f19"},{"length":30.461538461537202,"position":10721.538461538463,"velocity":0.6456692913385826,"pitch":69,"id":"9404d161-2eb7-43c3-b8da-e5fee4a7ffe2"},{"length":6,"position":10811.076923076924,"velocity":0.8110236220472441,"pitch":26,"id":"b82f5cb2-a146-4f82-86b7-ad357b69b95d"},{"length":24.923076923076223,"position":10811.076923076924,"velocity":0.8031496062992126,"pitch":35,"id":"cb2d1da6-d6bf-4100-b121-13628fcfc79c"},{"length":24.923076923076223,"position":10811.076923076924,"velocity":0.4094488188976378,"pitch":74,"id":"6321b12d-446f-4699-adb9-d4e6b1d9d283"},{"length":20.307692307691468,"position":10899.692307692309,"velocity":0.6692913385826772,"pitch":69,"id":"0f8b8da5-1e64-451d-9016-50a3108f6a71"},{"length":27.692307692306713,"position":10988.307692307693,"velocity":0.7952755905511811,"pitch":35,"id":"47e20829-8d79-4601-98b9-97380c5e17c2"},{"length":23.076923076921958,"position":11076.923076923078,"velocity":0.6535433070866141,"pitch":69,"id":"27e95599-f14e-4be8-9680-9d620b968e94"},{"length":30.461538461537202,"position":11165.538461538463,"velocity":0.8110236220472441,"pitch":35,"id":"c9035618-17a0-45ca-a227-59e9fcf9ebee"},{"length":30.461538461537202,"position":11165.538461538463,"velocity":0.7401574803149606,"pitch":73,"id":"9cd1d01f-3713-403a-a2be-ad948c78b1b1"},{"length":6,"position":11165.538461538463,"velocity":0.8031496062992126,"pitch":26,"id":"5d2e5188-097d-437f-8a06-40eb44e92b32"},{"length":25.846153846152447,"position":11254.153846153848,"velocity":0.6692913385826772,"pitch":69,"id":"53012fb0-ce79-442e-85d5-886b5abfa5b8"},{"length":21.23076923076769,"position":11342.769230769232,"velocity":0.7952755905511811,"pitch":35,"id":"32bf989e-f750-4bf8-a069-9efe8ea69f12"},{"length":29.53846153846098,"position":11430.461538461539,"velocity":0.6456692913385826,"pitch":69,"id":"f73641cf-6f9a-4398-a276-3fc0f73fc588"},{"length":24,"position":11520,"velocity":0.8188976377952756,"pitch":35,"id":"1201ed69-28bb-446b-ac7f-7e48260f0e47"},{"length":24,"position":11520,"velocity":0.41732283464566927,"pitch":74,"id":"c11a4ce5-5b1d-4a54-beda-c25337ee11e7"},{"length":6,"position":11520,"velocity":0.8110236220472441,"pitch":26,"id":"ed86f895-c1a5-4924-bbe2-4e7c87cc54da"},{"length":30.461538461537202,"position":13469.538461538463,"velocity":0.8031496062992126,"pitch":35,"id":"2aff90e9-536c-40da-a7e0-a03a958b0a1b"},{"length":22.153846153845734,"position":13513.846153846154,"velocity":0.33070866141732286,"pitch":62,"id":"a7cc9932-16c5-4092-b259-542a74756c7c"},{"length":25.846153846152447,"position":13558.153846153848,"velocity":0.6614173228346457,"pitch":69,"id":"28d53132-b0f3-421f-b845-995fd2ce0c0c"},{"length":25.846153846152447,"position":13558.153846153848,"velocity":0.3464566929133858,"pitch":62,"id":"0b3c527c-353a-4ae3-b69a-c2bb2b03c123"},{"length":17.53846153846098,"position":13602.461538461539,"velocity":0.33858267716535434,"pitch":62,"id":"67f0b72f-2bd8-4041-b904-ef8f125cae00"},{"length":21.23076923076769,"position":13646.769230769232,"velocity":0.7401574803149606,"pitch":73,"id":"59e5e4b5-ba88-4661-8ac0-59ca3c8e9438"},{"length":6,"position":13646.769230769232,"velocity":0.7952755905511811,"pitch":26,"id":"06898b85-ed74-4dc2-a470-cb286b590077"},{"length":21.23076923076769,"position":13646.769230769232,"velocity":0.8188976377952756,"pitch":35,"id":"163b497b-c52d-4d83-8a45-7714ef681313"},{"length":21.23076923076769,"position":13646.769230769232,"velocity":0.33858267716535434,"pitch":62,"id":"5d0d4728-eb26-4185-ab00-1aeed8e9bbb4"},{"length":24.923076923076223,"position":13691.076923076924,"velocity":0.3228346456692913,"pitch":62,"id":"aedc7fd6-5d08-4cea-b524-080e2f5e6b66"},{"length":29.53846153846098,"position":13734.461538461539,"velocity":0.6535433070866141,"pitch":69,"id":"261e2d74-a290-4066-87ed-141f021d5a7a"},{"length":16.615384615382936,"position":13735.384615384617,"velocity":0.33070866141732286,"pitch":62,"id":"e40bcdab-8a4c-47f4-8cbb-71bfa7bac373"},{"length":20.307692307691468,"position":13779.692307692309,"velocity":0.33070866141732286,"pitch":62,"id":"d69d37ad-d81e-4f52-90e0-36e1084a8f43"},{"length":23.99999999999818,"position":13824.000000000002,"velocity":0.8188976377952756,"pitch":35,"id":"3c0fa938-fd37-411c-96ed-0a98ea0cfa39"},{"length":23.99999999999818,"position":13824.000000000002,"velocity":0.3464566929133858,"pitch":62,"id":"b545f272-a3a7-454c-aae1-d93f32481757"},{"length":15.692307692306713,"position":13868.307692307693,"velocity":0.3228346456692913,"pitch":62,"id":"10871ed6-9685-4f31-b102-84c4c70f1bbe"},{"length":20.307692307691468,"position":13911.692307692309,"velocity":0.6456692913385826,"pitch":69,"id":"9747d31c-3ce4-4b4c-bb93-849f2a6e6f36"},{"length":19.384615384615245,"position":13912.615384615385,"velocity":0.33858267716535434,"pitch":62,"id":"3e52792e-3d8c-4ba2-ab61-d612f66f19b0"},{"length":23.076923076921958,"position":13956.923076923078,"velocity":0.33858267716535434,"pitch":62,"id":"853d32a6-2f56-415a-997f-473fd471870e"},{"length":6,"position":14001.23076923077,"velocity":0.8110236220472441,"pitch":26,"id":"c79739b4-9d84-4563-b522-557e3e70abb4"},{"length":26.76923076923049,"position":14001.23076923077,"velocity":0.41732283464566927,"pitch":74,"id":"cca3ffcc-397e-4e6c-8d21-9accd770903f"},{"length":14.76923076923049,"position":14001.23076923077,"velocity":0.3464566929133858,"pitch":62,"id":"e59d7292-afdd-4ef4-8c86-3ff2c881caea"},{"length":26.76923076923049,"position":14001.23076923077,"velocity":0.8110236220472441,"pitch":35,"id":"b87a7530-e19e-431f-bd53-6780e6eb9efb"},{"length":18.461538461537202,"position":14045.538461538463,"velocity":0.33858267716535434,"pitch":62,"id":"591d9fe5-520c-4f39-96cb-e4fec08a9622"},{"length":23.076923076921958,"position":14088.923076923078,"velocity":0.6614173228346457,"pitch":69,"id":"4fa27e56-867c-45fd-9db9-0b6b90520d82"},{"length":22.153846153845734,"position":14089.846153846154,"velocity":0.3464566929133858,"pitch":62,"id":"0c61c9e3-ff2b-41bb-96da-1432c3194a32"},{"length":25.846153846152447,"position":14134.153846153848,"velocity":0.33070866141732286,"pitch":62,"id":"9e77d63e-7f81-4d40-b14d-a9fbd6802e81"},{"length":29.53846153846098,"position":14178.461538461539,"velocity":0.8031496062992126,"pitch":35,"id":"508eb7b4-41a9-44ea-a428-dcb0078a7fd2"},{"length":21.23076923076769,"position":14222.769230769232,"velocity":0.3464566929133858,"pitch":62,"id":"0d6ee27e-b12a-4fc6-8a5e-c8540e9cffae"},{"length":25.846153846152447,"position":14266.153846153848,"velocity":0.6535433070866141,"pitch":69,"id":"99ac3afb-57ce-477a-8d62-0e56d1a74c3d"},{"length":24.923076923076223,"position":14267.076923076924,"velocity":0.3228346456692913,"pitch":62,"id":"50c1ef12-a993-42b9-bef4-d4fde5db07e0"},{"length":16.615384615382936,"position":14311.384615384617,"velocity":0.3228346456692913,"pitch":62,"id":"062e6138-bf3b-47b4-839d-a16d230e1bc6"},{"length":20.307692307691468,"position":14355.692307692309,"velocity":0.3228346456692913,"pitch":62,"id":"aacb3896-63c0-47a1-8347-d200290d3e0a"},{"length":20.307692307691468,"position":14355.692307692309,"velocity":0.7322834645669292,"pitch":73,"id":"00b53bfa-bfdc-49cb-9bac-6d18a5999e4d"},{"length":6,"position":14355.692307692309,"velocity":0.8188976377952756,"pitch":26,"id":"13489130-628f-4814-8241-395d99a7b9e8"},{"length":20.307692307691468,"position":14355.692307692309,"velocity":0.8188976377952756,"pitch":35,"id":"07893e03-f5e6-4a89-a5b1-5cdd45414e36"},{"length":23.99999999999818,"position":14400.000000000002,"velocity":0.33858267716535434,"pitch":62,"id":"4234dd9a-c2d4-493d-94f2-20dd631c13f8"},{"length":27.692307692306713,"position":14444.307692307693,"velocity":0.6456692913385826,"pitch":69,"id":"3cd89ca8-8df2-464e-957e-65eae0aacec8"},{"length":15.692307692306713,"position":14444.307692307693,"velocity":0.33070866141732286,"pitch":62,"id":"04ea58bc-2e15-4e88-b29f-d692e400c1b9"},{"length":19.384615384615245,"position":14488.615384615385,"velocity":0.33858267716535434,"pitch":62,"id":"45ed6685-a8e9-4bd3-9e72-e69fea8dfabd"},{"length":23.076923076921958,"position":14532.923076923078,"velocity":0.8110236220472441,"pitch":35,"id":"5ce399c7-f5a3-40c0-a347-65a712530ab3"},{"length":23.076923076921958,"position":14532.923076923078,"velocity":0.3464566929133858,"pitch":62,"id":"de22e703-4353-47ac-9bdc-a1ba385827b1"},{"length":14.76923076923049,"position":14577.23076923077,"velocity":0.3228346456692913,"pitch":62,"id":"91db2412-5e5b-4efc-a08a-d0da7e5bb0d1"},{"length":19.384615384615245,"position":14620.615384615385,"velocity":0.6456692913385826,"pitch":69,"id":"46ed1a15-be69-49d2-ba4c-f1ca21aeae71"},{"length":18.461538461537202,"position":14621.538461538463,"velocity":0.3464566929133858,"pitch":62,"id":"3db01c64-ee70-48be-8d53-9752dade2343"},{"length":22.153846153845734,"position":14665.846153846154,"velocity":0.33070866141732286,"pitch":62,"id":"d91f9283-a5e7-473d-b678-3ae00c3c7159"},{"length":25.846153846152447,"position":14710.153846153848,"velocity":0.8110236220472441,"pitch":35,"id":"1f65a437-5cd6-4c08-892f-66457223a448"},{"length":25.846153846152447,"position":14710.153846153848,"velocity":0.3464566929133858,"pitch":62,"id":"bba77e3c-1c7b-4f66-a2e8-8d483b3284d3"},{"length":6,"position":14710.153846153848,"velocity":0.8110236220472441,"pitch":26,"id":"6a1b015e-9451-4329-bc41-1b1666f0fbe0"},{"length":25.846153846152447,"position":14710.153846153848,"velocity":0.41732283464566927,"pitch":74,"id":"5e62c13e-464b-48b6-aa6f-bdc2a4b9f804"},{"length":17.53846153846098,"position":14754.461538461539,"velocity":0.3464566929133858,"pitch":62,"id":"1be65b55-d187-40fc-945b-7e67c22f5d7d"},{"length":21.23076923076769,"position":14798.769230769232,"velocity":0.6692913385826772,"pitch":69,"id":"39ce72fd-ca63-4eaa-bc14-e8bbbcef641a"},{"length":21.23076923076769,"position":14798.769230769232,"velocity":0.33858267716535434,"pitch":62,"id":"9378b817-87f7-4b79-9923-b017bcdac246"},{"length":24.923076923076223,"position":14843.076923076924,"velocity":0.33858267716535434,"pitch":62,"id":"5adfdd8e-ef10-40ac-99c4-6eb0ef7c45ce"},{"length":28.615384615382936,"position":14887.384615384617,"velocity":0.8031496062992126,"pitch":35,"id":"40f057af-03fd-4150-a05f-51468418e20f"},{"length":20.307692307691468,"position":14931.692307692309,"velocity":0.3228346456692913,"pitch":62,"id":"270e028a-120b-4a74-bd30-788afe9d63a7"},{"length":23.99999999999818,"position":14976.000000000002,"velocity":0.6535433070866141,"pitch":69,"id":"d208c6c3-25e6-4202-b3f5-ad69c0686df3"},{"length":23.99999999999818,"position":14976.000000000002,"velocity":0.3464566929133858,"pitch":62,"id":"a59e9eb3-ccde-4477-930d-85b968da69a9"},{"length":15.692307692306713,"position":15020.307692307693,"velocity":0.33858267716535434,"pitch":62,"id":"5f7b841b-b642-46df-922c-33322de87ce5"},{"length":19.384615384615245,"position":15064.615384615385,"velocity":0.7401574803149606,"pitch":73,"id":"a7e605f6-881c-4b78-bbd5-ba8213489c90"},{"length":31.384615384615245,"position":15064.615384615385,"velocity":0.8031496062992126,"pitch":35,"id":"1f446f02-214a-4f16-854e-b6944a1c32d2"},{"length":19.384615384615245,"position":15064.615384615385,"velocity":0.3228346456692913,"pitch":62,"id":"edb3ff1a-df8e-42c8-8328-92ce0f8ba313"},{"length":6,"position":15064.615384615385,"velocity":0.8110236220472441,"pitch":26,"id":"b1e1cef5-034b-48ad-a263-d85b0030f64f"},{"length":23.076923076921958,"position":15108.923076923078,"velocity":0.3228346456692913,"pitch":62,"id":"19ae3cac-7edc-4df8-b20c-547644ef7a6f"},{"length":27.692307692306713,"position":15152.307692307693,"velocity":0.6535433070866141,"pitch":69,"id":"80de598e-e162-47f8-a456-86d492c12f77"},{"length":14.76923076923049,"position":15153.23076923077,"velocity":0.33070866141732286,"pitch":62,"id":"4c20b3cb-11f5-46c7-a5a7-36d06312f157"},{"length":18.461538461537202,"position":15197.538461538463,"velocity":0.33858267716535434,"pitch":62,"id":"33189b3c-6a55-414a-9e69-eeb99eabea10"},{"length":22.153846153845734,"position":15241.846153846154,"velocity":0.8031496062992126,"pitch":35,"id":"fd80afd8-7492-4c0d-951c-62787dd500be"},{"length":22.153846153845734,"position":15241.846153846154,"velocity":0.33858267716535434,"pitch":62,"id":"65f26993-7f81-462c-9e6e-27fbe6fbba04"},{"length":25.846153846152447,"position":15286.153846153848,"velocity":0.3464566929133858,"pitch":62,"id":"8d292d54-0aae-4378-8ebd-c05cb20b18e7"},{"length":29.53846153846098,"position":15330.461538461539,"velocity":0.6456692913385826,"pitch":69,"id":"e906ad2a-079f-4265-acec-159462440dee"},{"length":17.53846153846098,"position":15330.461538461539,"velocity":0.33858267716535434,"pitch":62,"id":"db4422e8-1a16-4dba-adb4-94e7e860604e"},{"length":21.23076923076769,"position":15374.769230769232,"velocity":0.3464566929133858,"pitch":62,"id":"28ab12f7-adac-4bbc-807e-d406982a7e77"},{"length":6,"position":15419.076923076924,"velocity":0.8110236220472441,"pitch":26,"id":"391336db-9929-43da-bb45-fe0665bb22a4"},{"length":24.923076923076223,"position":15419.076923076924,"velocity":0.8031496062992126,"pitch":35,"id":"519e9e61-0b28-45c2-ae2b-adc6675adeeb"},{"length":24.923076923076223,"position":15419.076923076924,"velocity":0.3228346456692913,"pitch":62,"id":"e04ae191-2045-481a-91f4-d291d444eaa6"},{"length":24.923076923076223,"position":15419.076923076924,"velocity":0.4094488188976378,"pitch":74,"id":"8d56519d-14d8-4a12-86c7-6e5cd6fae3b6"},{"length":16.615384615382936,"position":15463.384615384617,"velocity":0.33858267716535434,"pitch":62,"id":"2902971e-c570-4819-99ae-ba29843573bf"},{"length":21.23076923076769,"position":15506.769230769232,"velocity":0.6456692913385826,"pitch":69,"id":"b65e5ca1-8192-4f04-b665-8a265b2cfcbd"},{"length":20.307692307691468,"position":15507.692307692309,"velocity":0.33858267716535434,"pitch":62,"id":"841cb299-fbd2-4428-90f1-569cb942bcd2"},{"length":23.99999999999818,"position":15552.000000000002,"velocity":0.3228346456692913,"pitch":62,"id":"075616e1-96de-4e92-aa8c-732a63dd746f"},{"length":27.692307692306713,"position":15596.307692307693,"velocity":0.8188976377952756,"pitch":35,"id":"6c175df6-4dc3-45bd-8b23-782122de5aa0"},{"length":19.384615384613426,"position":15640.615384615387,"velocity":0.33070866141732286,"pitch":62,"id":"129fd450-d0bd-44f5-9c1e-d01539940bda"},{"length":23.99999999999818,"position":15684.000000000002,"velocity":0.6692913385826772,"pitch":69,"id":"0bfe9f0b-c40b-4d43-be7e-a853ca0656d9"},{"length":23.076923076921958,"position":15684.923076923078,"velocity":0.3228346456692913,"pitch":62,"id":"c86e19ef-06fd-499b-9df0-aa45eb6bd2d3"},{"length":14.76923076923049,"position":15729.23076923077,"velocity":0.3228346456692913,"pitch":62,"id":"57ebdd37-cca5-4bb8-b5c9-c8551fbaeef6"},{"length":30.461538461537202,"position":15773.538461538463,"velocity":0.7165354330708661,"pitch":73,"id":"f68009cf-994a-4200-90f3-abec5b71dfca"},{"length":30.461538461537202,"position":15773.538461538463,"velocity":0.7952755905511811,"pitch":35,"id":"7df52ceb-c761-45cf-86e6-8a53bbeb9819"},{"length":6,"position":15773.538461538463,"velocity":0.8031496062992126,"pitch":26,"id":"9f61d056-62fa-4c4a-aacb-a8b410a26675"},{"length":18.461538461537202,"position":15773.538461538463,"velocity":0.33070866141732286,"pitch":62,"id":"62fa4b2d-8117-4074-aa6c-f7a1889b0b8c"},{"length":22.153846153845734,"position":15817.846153846154,"velocity":0.3228346456692913,"pitch":62,"id":"522944e3-7acf-410f-9c5b-2dc3b0438c61"},{"length":26.76923076923049,"position":15861.23076923077,"velocity":0.6535433070866141,"pitch":69,"id":"337fba13-cad6-4f4b-8df5-8a6856152f79"},{"length":25.846153846152447,"position":15862.153846153848,"velocity":0.3464566929133858,"pitch":62,"id":"38b00c5c-002b-43ce-8d54-cb8af4afefb1"},{"length":17.53846153846098,"position":15906.461538461539,"velocity":0.33858267716535434,"pitch":62,"id":"54b88771-62f5-420e-aca2-231ad7f27a48"},{"length":21.23076923076769,"position":15950.769230769232,"velocity":0.8188976377952756,"pitch":35,"id":"da813135-6027-4161-b9f3-474a971a70c5"},{"length":21.23076923076769,"position":15950.769230769232,"velocity":0.33070866141732286,"pitch":62,"id":"60cf364a-130e-41dd-98b2-e33455ea0c13"},{"length":24.923076923076223,"position":15995.076923076924,"velocity":0.33070866141732286,"pitch":62,"id":"1b4cb808-5656-4d9d-b197-5e444f9144a5"},{"length":29.53846153846098,"position":16038.461538461539,"velocity":0.6614173228346457,"pitch":69,"id":"086f0ed7-8838-4888-a733-730ba012b784"},{"length":16.615384615382936,"position":16039.384615384617,"velocity":0.33070866141732286,"pitch":62,"id":"9491935b-ae1f-427a-b7a8-f3219d26ea87"},{"length":20.307692307691468,"position":16083.692307692309,"velocity":0.3464566929133858,"pitch":62,"id":"0cf9e1d5-ff6f-4376-9229-b80f69f3b16d"},{"length":6,"position":16128.000000000002,"velocity":0.7952755905511811,"pitch":26,"id":"937ec651-d8e2-4cdd-84be-693f131b786a"},{"length":23.99999999999818,"position":16128.000000000002,"velocity":0.7952755905511811,"pitch":35,"id":"e0014071-b105-4615-9d77-79952a04166a"},{"length":23.99999999999818,"position":16128.000000000002,"velocity":0.3464566929133858,"pitch":62,"id":"286f59f1-d30b-417e-99a0-f2c89832b501"},{"length":23.99999999999818,"position":16128.000000000002,"velocity":0.4015748031496063,"pitch":74,"id":"f0ac64ce-970c-4f63-bc35-8fc226d3bfee"},{"length":15.692307692306713,"position":16172.307692307693,"velocity":0.33858267716535434,"pitch":62,"id":"07c36ad8-c219-422c-aaf4-82fc75ad4df8"},{"length":20.307692307691468,"position":16215.692307692309,"velocity":0.6456692913385826,"pitch":69,"id":"f3018dce-dbc8-4afc-bc33-ee1813d3156d"},{"length":20.307692307691468,"position":16215.692307692309,"velocity":0.33070866141732286,"pitch":62,"id":"450343b8-7346-484c-a8c1-5961f6def898"},{"length":23.076923076921958,"position":16260.923076923078,"velocity":0.3228346456692913,"pitch":62,"id":"070e76c7-e4af-4bae-96d8-5d494ad4534d"},{"length":26.76923076923049,"position":16305.23076923077,"velocity":0.8188976377952756,"pitch":35,"id":"86a179b5-acd7-433b-b74a-f5da5224c19c"},{"length":18.461538461537202,"position":16349.538461538463,"velocity":0.33858267716535434,"pitch":62,"id":"695af818-b0a6-4d42-a2ed-e0ff4769b50f"},{"length":23.076923076921958,"position":16392.923076923078,"velocity":0.6614173228346457,"pitch":69,"id":"09259bb6-c8c1-43d0-932b-f9b79c0d610e"},{"length":23.076923076921958,"position":16392.923076923078,"velocity":0.33070866141732286,"pitch":62,"id":"551f0da7-9ca0-49e8-af51-b01c3e5120cb"},{"length":25.846153846152447,"position":16438.153846153848,"velocity":0.33070866141732286,"pitch":62,"id":"c7568a89-a165-4baf-8daa-2fe09f1d2ea3"},{"length":6,"position":16482.46153846154,"velocity":0.8188976377952756,"pitch":26,"id":"e843a65d-4551-4700-a522-6ce667b24b6d"},{"length":29.53846153846098,"position":16482.46153846154,"velocity":0.7952755905511811,"pitch":35,"id":"0cf20eec-04ca-468b-ab5a-f74c25fea27d"},{"length":17.53846153846098,"position":16482.46153846154,"velocity":0.3228346456692913,"pitch":62,"id":"d8ef92f1-0de9-483d-a611-d81113abdfc8"},{"length":29.53846153846098,"position":16482.46153846154,"velocity":0.7244094488188977,"pitch":73,"id":"ea190eb8-223d-4a4a-89aa-c1560a0e06ce"},{"length":21.23076923076951,"position":16526.76923076923,"velocity":0.33858267716535434,"pitch":62,"id":"40c022c1-db75-445e-9afd-b226c4e952c9"},{"length":25.846153846152447,"position":16570.153846153848,"velocity":0.6692913385826772,"pitch":69,"id":"26efcd6a-ce39-485b-b07d-036d5d272a5a"},{"length":25.846153846152447,"position":16570.153846153848,"velocity":0.33070866141732286,"pitch":62,"id":"5126b103-02e6-4f04-8cb2-e021c0155f9b"},{"length":16.615384615382936,"position":16615.384615384617,"velocity":0.3228346456692913,"pitch":62,"id":"5a785a6a-1c96-4c56-99c4-c406c93fe225"},{"length":20.307692307691468,"position":16659.69230769231,"velocity":0.33858267716535434,"pitch":62,"id":"edfbe900-50cf-4640-8ef5-3e0bb36b5e7f"},{"length":20.307692307691468,"position":16659.69230769231,"velocity":0.7952755905511811,"pitch":35,"id":"a9e02597-3f9a-4a5e-a283-8884acdb98a6"},{"length":24,"position":16704,"velocity":0.3228346456692913,"pitch":62,"id":"fef35756-e005-423c-a4b7-22434ce43005"},{"length":27.692307692304894,"position":16748.307692307695,"velocity":0.6692913385826772,"pitch":69,"id":"3ca6d5fa-d22c-4b6b-bf37-95c23182780d"},{"length":15.692307692304894,"position":16748.307692307695,"velocity":0.3228346456692913,"pitch":62,"id":"81fbd478-51e4-42c0-83ac-a228daaff770"},{"length":19.384615384613426,"position":16792.615384615387,"velocity":0.33070866141732286,"pitch":62,"id":"7d4fe368-68d4-4c52-b3c9-ed90517ce729"},{"length":23.076923076921958,"position":16836.923076923078,"velocity":0.3464566929133858,"pitch":62,"id":"96c34b39-6125-4c2f-9092-f693091687bc"},{"length":6,"position":16836.923076923078,"velocity":0.8110236220472441,"pitch":26,"id":"fbb9ce36-61f7-4145-97a3-4ca7c53e6d35"},{"length":23.076923076921958,"position":16836.923076923078,"velocity":0.7952755905511811,"pitch":35,"id":"0eb82cce-be39-47ad-bf6e-db9010588fa1"},{"length":23.076923076921958,"position":16836.923076923078,"velocity":0.4251968503937008,"pitch":74,"id":"f89cd5a5-5636-488b-9a21-903fe055652a"},{"length":14.76923076923049,"position":16881.23076923077,"velocity":0.3464566929133858,"pitch":62,"id":"32858ae6-920b-49d3-8090-9fb26ab1f4be"},{"length":30.46153846153902,"position":16925.53846153846,"velocity":0.6456692913385826,"pitch":69,"id":"1ebeb199-bdc8-4a60-94dc-7557b0c702e4"},{"length":18.46153846153902,"position":16925.53846153846,"velocity":0.3464566929133858,"pitch":62,"id":"083b903f-0269-4009-8cad-056be53dbe4b"},{"length":22.153846153843915,"position":16969.846153846156,"velocity":0.33070866141732286,"pitch":62,"id":"648da279-1938-4738-80b0-c586a4ffcc2e"},{"length":25.846153846152447,"position":17014.153846153848,"velocity":0.8031496062992126,"pitch":35,"id":"4854a603-c32a-434f-9e40-6e8fc2145d33"},{"length":17.53846153846098,"position":17058.46153846154,"velocity":0.33858267716535434,"pitch":62,"id":"cbcacae6-e6c4-4a42-9825-339bed3aba70"},{"length":22.153846153843915,"position":17101.846153846156,"velocity":0.6456692913385826,"pitch":69,"id":"074830b1-3843-4c08-ba6c-aebc1882d0f3"},{"length":21.23076923076951,"position":17102.76923076923,"velocity":0.3228346456692913,"pitch":62,"id":"44b708b8-9572-4d26-b30a-716575817a13"},{"length":24.923076923074404,"position":17147.076923076926,"velocity":0.3464566929133858,"pitch":62,"id":"313a09ed-cb20-4803-9266-5d89346a6ee7"},{"length":28.615384615382936,"position":17191.384615384617,"velocity":0.7952755905511811,"pitch":35,"id":"a5e1d08f-decd-46e4-8901-7c246f0aec0e"},{"length":28.615384615382936,"position":17191.384615384617,"velocity":0.7322834645669292,"pitch":73,"id":"94fc26ee-8d43-4e80-a1d3-c2d97e7f3898"},{"length":16.615384615382936,"position":17191.384615384617,"velocity":0.33858267716535434,"pitch":62,"id":"13daaa8a-b87f-406d-91c9-624dcbe94fa9"},{"length":6,"position":17191.384615384617,"velocity":0.8188976377952756,"pitch":26,"id":"a125f943-7213-4e6e-9b62-661a5ef437b4"},{"length":20.307692307691468,"position":17235.69230769231,"velocity":0.33858267716535434,"pitch":62,"id":"c264d747-5dc4-41b5-88dc-f4ba09097b2f"},{"length":24,"position":17280,"velocity":0.6456692913385826,"pitch":69,"id":"f30e0f04-1525-4e79-9355-e2645208efce"},{"length":24,"position":17280,"velocity":0.3464566929133858,"pitch":62,"id":"218f934e-a96a-4a53-b89e-6f6d24367c44"},{"length":15.692307692304894,"position":17324.307692307695,"velocity":0.33858267716535434,"pitch":62,"id":"1d6d33f3-b49d-45af-a2bc-f8e5df1ca152"},{"length":31.384615384613426,"position":17368.615384615387,"velocity":0.8110236220472441,"pitch":35,"id":"3a3af14b-18b4-4ac7-9b9a-b1f9151d0dfd"},{"length":19.384615384613426,"position":17368.615384615387,"velocity":0.33070866141732286,"pitch":62,"id":"f6dab5d9-84d1-47f8-9424-50e77086f2f3"},{"length":23.076923076921958,"position":17412.923076923078,"velocity":0.33858267716535434,"pitch":62,"id":"253ee6b3-597d-4d13-80d0-822ab71d9476"},{"length":26.76923076923049,"position":17457.23076923077,"velocity":0.6456692913385826,"pitch":69,"id":"b41fbe03-4fcf-423e-a099-b55c863bda77"},{"length":14.76923076923049,"position":17457.23076923077,"velocity":0.33858267716535434,"pitch":62,"id":"26c81a60-9dfc-4ffc-887e-acac3252a3f2"},{"length":18.46153846153902,"position":17501.53846153846,"velocity":0.3228346456692913,"pitch":62,"id":"b8f4b2aa-e711-41fa-bba9-4f34e7b7574f"},{"length":22.153846153843915,"position":17545.846153846156,"velocity":0.4251968503937008,"pitch":74,"id":"fff01783-33ee-45a5-8913-f55ce15e4f62"},{"length":6,"position":17545.846153846156,"velocity":0.7952755905511811,"pitch":26,"id":"3ac373b6-b9e4-46aa-b249-71ed4e27c90e"},{"length":22.153846153843915,"position":17545.846153846156,"velocity":0.8110236220472441,"pitch":35,"id":"898cd251-27c9-47f4-92f3-e21632e78a1a"},{"length":22.153846153843915,"position":17545.846153846156,"velocity":0.3228346456692913,"pitch":62,"id":"bad3ea75-083e-424c-b9af-8dec405f9f48"},{"length":25.846153846152447,"position":17590.153846153848,"velocity":0.33070866141732286,"pitch":62,"id":"a0c64180-15c5-4740-9869-6f00a1b773dd"},{"length":30.46153846153902,"position":17633.53846153846,"velocity":0.6456692913385826,"pitch":69,"id":"1f3647e4-33d4-43f1-9e7a-a4b88bf170b8"},{"length":17.53846153846098,"position":17634.46153846154,"velocity":0.3228346456692913,"pitch":62,"id":"1cc10b4c-cebc-4d3b-ac04-cbd87e7779e2"},{"length":21.23076923076951,"position":17678.76923076923,"velocity":0.3228346456692913,"pitch":62,"id":"ade27ec4-d9ce-4ad4-b508-8c55100205e4"},{"length":24.923076923074404,"position":17723.076923076926,"velocity":0.8031496062992126,"pitch":35,"id":"66eca9d8-2abf-4c92-9044-f53bce195f55"},{"length":16.615384615382936,"position":17767.384615384617,"velocity":0.3228346456692913,"pitch":62,"id":"d540b889-1ebd-4bc4-8963-701bd1111981"},{"length":20.307692307691468,"position":17811.69230769231,"velocity":0.6614173228346457,"pitch":69,"id":"006e075d-78c3-47b7-a6ef-2f03d17cd45b"},{"length":20.307692307691468,"position":17811.69230769231,"velocity":0.33858267716535434,"pitch":62,"id":"1d4a57ad-8316-4da2-a442-130e1a1c4c3c"},{"length":24,"position":17856,"velocity":0.33858267716535434,"pitch":62,"id":"54cf915a-a8e2-432a-8108-720b65f835c1"},{"length":27.692307692304894,"position":17900.307692307695,"velocity":0.7165354330708661,"pitch":73,"id":"71495ae8-8aa0-4924-b711-b2afffb4f575"},{"length":27.692307692304894,"position":17900.307692307695,"velocity":0.8110236220472441,"pitch":35,"id":"f7d02d44-5c02-483d-b39f-af3e55b00bb6"},{"length":15.692307692304894,"position":17900.307692307695,"velocity":0.33858267716535434,"pitch":62,"id":"e9b3c3f8-6ee1-456c-9d1d-18316efdc396"},{"length":6,"position":17900.307692307695,"velocity":0.8031496062992126,"pitch":26,"id":"f2a2c3ab-7814-431d-b52d-aed491191af2"},{"length":19.384615384613426,"position":17944.615384615387,"velocity":0.3464566929133858,"pitch":62,"id":"d1febb29-32dc-44d0-af08-38dba62231f2"},{"length":24,"position":17988,"velocity":0.6456692913385826,"pitch":69,"id":"f7103f2b-da87-4f6f-b3a5-8976737f50d4"},{"length":24,"position":17988,"velocity":0.33070866141732286,"pitch":62,"id":"6100af99-40a7-4651-8f47-7f00478cec23"},{"length":14.76923076923049,"position":18033.23076923077,"velocity":0.33070866141732286,"pitch":62,"id":"74c881fa-8e60-4606-9813-e935f5498503"},{"length":30.46153846153902,"position":18077.53846153846,"velocity":0.8031496062992126,"pitch":35,"id":"a55c7e26-9efb-43be-a730-ca38ee984d35"},{"length":18.46153846153902,"position":18077.53846153846,"velocity":0.33070866141732286,"pitch":62,"id":"10db96c2-86d6-4b3e-a7fd-986d9c503d17"},{"length":22.153846153843915,"position":18121.846153846156,"velocity":0.33858267716535434,"pitch":62,"id":"4db1e9c2-51d7-4f0b-bc30-816639f339e0"},{"length":25.846153846152447,"position":18166.153846153848,"velocity":0.6692913385826772,"pitch":69,"id":"11f1eefd-cb3a-4946-a501-da243ac80698"},{"length":25.846153846152447,"position":18166.153846153848,"velocity":0.3228346456692913,"pitch":62,"id":"f4af63cb-95f8-480c-8151-22bbe0afcf81"},{"length":17.53846153846098,"position":18210.46153846154,"velocity":0.33070866141732286,"pitch":62,"id":"b90d2695-5115-4eaa-8998-1f496c01a15e"},{"length":6,"position":18254.76923076923,"velocity":0.8031496062992126,"pitch":26,"id":"55ad6ae9-1a6f-4be8-ae48-5594acfe1d5c"},{"length":21.23076923076951,"position":18254.76923076923,"velocity":0.8031496062992126,"pitch":35,"id":"f2f366d7-2a28-431c-8e6c-d6b6adf714cc"},{"length":21.23076923076951,"position":18254.76923076923,"velocity":0.33858267716535434,"pitch":62,"id":"3a92bfc7-2ded-4635-94c3-ddf998f37f7c"},{"length":21.23076923076951,"position":18254.76923076923,"velocity":0.41732283464566927,"pitch":74,"id":"0829c457-9361-45f7-961c-ec3dc2b00bd8"},{"length":24.923076923074404,"position":18299.076923076926,"velocity":0.33858267716535434,"pitch":62,"id":"4c92bd94-8dde-4129-baf4-079d4d432699"},{"length":29.53846153846098,"position":18342.46153846154,"velocity":0.6614173228346457,"pitch":69,"id":"6c09158a-4292-44ed-a405-95354c0abfb7"},{"length":16.615384615382936,"position":18343.384615384617,"velocity":0.3228346456692913,"pitch":62,"id":"ae74742b-c2e8-4ae5-a5e0-25635daf3a85"},{"length":20.307692307691468,"position":18387.69230769231,"velocity":0.33858267716535434,"pitch":62,"id":"e61bf0b8-acde-441f-afe0-3fda062be1a1"},{"length":12,"position":18432,"velocity":0.8031496062992126,"pitch":35,"id":"b7f5d4dd-358d-4f78-9275-dfab61eed725"},{"length":12,"position":18476.307692307695,"velocity":0.33070866141732286,"pitch":62,"id":"dcb4195e-84fc-4d3a-a3ab-74b5c7151d15"},{"length":12,"position":18519.69230769231,"velocity":0.6456692913385826,"pitch":69,"id":"bd30162f-6194-492d-a99c-77a135ecad43"},{"length":12,"position":18520.615384615387,"velocity":0.3464566929133858,"pitch":62,"id":"1db22792-388f-411c-a6fb-93c7d8874570"},{"length":12,"position":18564.923076923078,"velocity":0.3464566929133858,"pitch":62,"id":"c0addd77-fe9f-49fb-96ce-e69c19b8d233"},{"length":6,"position":18609.23076923077,"velocity":0.8031496062992126,"pitch":26,"id":"11dc1261-a972-4fef-b464-27718750f70c"},{"length":12,"position":18609.23076923077,"velocity":0.8031496062992126,"pitch":35,"id":"cc65e7ed-8e22-4e5e-924f-00575aafeadc"},{"length":12,"position":18609.23076923077,"velocity":0.3228346456692913,"pitch":62,"id":"422d2995-19e0-4da8-9eae-685bc5ffe80a"},{"length":12,"position":18609.23076923077,"velocity":0.7322834645669292,"pitch":73,"id":"e2a340f9-edd3-4f3d-bb0f-6157090c7d01"},{"length":12,"position":18653.538461538465,"velocity":0.3464566929133858,"pitch":62,"id":"314c7476-0a27-4316-869c-d029a9204035"},{"length":12,"position":18696.923076923078,"velocity":0.6535433070866141,"pitch":69,"id":"1f495830-0ebb-4049-b438-00114c095b11"},{"length":12,"position":18696.923076923078,"velocity":0.3464566929133858,"pitch":62,"id":"6291f669-74c3-4f76-9ad6-dffc795987d3"},{"length":12,"position":18742.153846153848,"velocity":0.33070866141732286,"pitch":62,"id":"9fc79d86-1ea4-4b33-92e1-fccbfd032d0a"},{"length":12,"position":18786.46153846154,"velocity":0.3464566929133858,"pitch":62,"id":"0c141503-11d8-4daa-9804-b3e6edc0a9e3"},{"length":12,"position":18786.46153846154,"velocity":0.8110236220472441,"pitch":35,"id":"16044620-8147-4306-af8e-9a1d8fd9f7f2"},{"length":12,"position":18830.76923076923,"velocity":0.33858267716535434,"pitch":62,"id":"143dc546-7b63-406b-a8db-68570f124ea9"},{"length":12,"position":18875.076923076926,"velocity":0.6614173228346457,"pitch":69,"id":"7717da05-963f-4798-9b48-28ac668ebaa4"},{"length":12,"position":18875.076923076926,"velocity":0.3464566929133858,"pitch":62,"id":"7e5c2cdb-3e14-4ab1-bdee-8ed04e30dc9c"},{"length":12,"position":18919.384615384617,"velocity":0.3228346456692913,"pitch":62,"id":"2329daf5-b868-4477-8aa6-5ff833dad696"},{"length":6,"position":18963.69230769231,"velocity":0.8110236220472441,"pitch":26,"id":"786d965b-2038-40ce-983b-6ef49a087b26"},{"length":12,"position":18963.69230769231,"velocity":0.8188976377952756,"pitch":35,"id":"c2b29967-acb2-4b42-8abc-ef4f8d89280a"},{"length":12,"position":18963.69230769231,"velocity":0.3228346456692913,"pitch":62,"id":"30c55395-94dd-4a71-be00-1c814c9752b0"},{"length":12,"position":18963.69230769231,"velocity":0.4094488188976378,"pitch":74,"id":"e42a7c04-f05c-4749-9943-5dee9a38b069"},{"length":12,"position":19008,"velocity":0.33858267716535434,"pitch":62,"id":"d8dec9c7-7ed7-4ecf-abac-036e2e4ed087"},{"length":12,"position":19052.307692307695,"velocity":0.3464566929133858,"pitch":62,"id":"260f36dc-6e51-4c19-b0a9-36665432a2ac"},{"length":12,"position":19052.307692307695,"velocity":0.6692913385826772,"pitch":69,"id":"f37c97fa-f1aa-4d47-af7a-c154f492d954"},{"length":12,"position":19096.615384615387,"velocity":0.3228346456692913,"pitch":62,"id":"36b762bc-cd69-4c98-9090-5805e091ebf5"}],"timing":{"pulsesContentPosition":-708.923076923077,"pulsesLength":18432},"type":"N"}]}},{"type":"InstrumentChannel","data":{"mute":false,"solo":false,"gainAutomation":[{"time":0,"value":-17}],"id":"b0ea159e-fa81-431d-be8f-b4042546bb91","instrument":{"config":{"type":"generalMidiSynth","data":{"programId":1,"isPercussion":false}},"name":"Bright Acoustic Piano"},"name":"instrument","regions":[{"loopCount":1,"position":0,"color":"#10b6c7","id":"f393dffc-cfa2-4a5a-978b-d9a751bf4cdd","name":"Note Clip","notes":[{"length":2787,"position":708.923076923077,"velocity":0.007874015748031496,"pitch":43,"id":"fbe6c890-de7e-4548-8433-660e21405892"},{"length":2766,"position":708.923076923077,"velocity":0.007874015748031496,"pitch":55,"id":"b1e7d449-e826-4ed8-9a1c-cbb7d58ef92a"},{"length":2777,"position":708.923076923077,"velocity":0.007874015748031496,"pitch":58,"id":"ef4ed477-c375-4004-bced-e4cd95bed201"},{"length":2784,"position":708.923076923077,"velocity":0.007874015748031496,"pitch":62,"id":"cafbd28b-a906-444e-9c18-4cf16994930c"},{"length":1356,"position":3544.6153846153848,"velocity":0.007874015748031496,"pitch":48,"id":"ba47a119-6daf-4c67-9482-6b3bab7f6691"},{"length":1339,"position":3544.6153846153848,"velocity":0.007874015748031496,"pitch":60,"id":"fba53ba0-4fe0-471a-ae31-132ab758033d"},{"length":1349,"position":3544.6153846153848,"velocity":0.007874015748031496,"pitch":63,"id":"93b23b31-bc25-40ce-b96a-054e9b363e49"},{"length":1350,"position":3544.6153846153848,"velocity":0.007874015748031496,"pitch":67,"id":"50c9970b-7419-4964-8012-a837e7a9e04d"},{"length":1371,"position":4962.461538461539,"velocity":0.007874015748031496,"pitch":50,"id":"e11ebb00-71e9-477e-b964-f7c854bf3194"},{"length":1372,"position":4962.461538461539,"velocity":0.007874015748031496,"pitch":62,"id":"b3fc8a09-aa56-4489-a910-a28a249959f3"},{"length":1378,"position":4962.461538461539,"velocity":0.007874015748031496,"pitch":66,"id":"3d7ca156-4a7b-4662-9239-21c6bbff4205"},{"length":1375,"position":4962.461538461539,"velocity":0.007874015748031496,"pitch":69,"id":"7949a97f-d55f-4631-adf3-30c6010875cd"},{"length":1376,"position":4962.461538461539,"velocity":0.007874015748031496,"pitch":72,"id":"2fa0f723-e7fb-44fa-9579-893fb0dbf509"},{"length":2787,"position":6380.307692307692,"velocity":0.007874015748031496,"pitch":43,"id":"17df0c09-8160-4a9f-baf2-2459f2c755cf"},{"length":2766,"position":6380.307692307692,"velocity":0.007874015748031496,"pitch":55,"id":"dccdf11b-14e9-4eec-8714-a98e6f569b29"},{"length":2777,"position":6380.307692307692,"velocity":0.007874015748031496,"pitch":58,"id":"dc9eb22c-c6e9-4069-b78e-f2aa064dd759"},{"length":2783,"position":6380.307692307692,"velocity":0.007874015748031496,"pitch":62,"id":"c8d5999c-47fa-4016-8047-1ad433b6f1f0"},{"length":1356,"position":9216,"velocity":0.007874015748031496,"pitch":48,"id":"5c8b485d-d693-4f9e-b049-8f0776949b22"},{"length":1339,"position":9216,"velocity":0.007874015748031496,"pitch":60,"id":"a10c8415-f928-4a22-89bd-18965dcdb709"},{"length":1349,"position":9216,"velocity":0.007874015748031496,"pitch":63,"id":"de9c37ef-732b-4ec7-8909-7a329f212b11"},{"length":1349,"position":9216,"velocity":0.007874015748031496,"pitch":67,"id":"1f776e95-ad90-4247-a03e-522aa00f6229"},{"length":1370,"position":10633.846153846154,"velocity":0.007874015748031496,"pitch":50,"id":"ff282b33-45ec-490c-a489-f6097d13b2b4"},{"length":1372,"position":10633.846153846154,"velocity":0.007874015748031496,"pitch":62,"id":"a638f2f7-b799-4c39-a12e-b87fc5215486"},{"length":1378,"position":10633.846153846154,"velocity":0.007874015748031496,"pitch":66,"id":"cd947b96-9e0d-4e27-a579-b3a55b5fa1cb"},{"length":1374,"position":10633.846153846154,"velocity":0.007874015748031496,"pitch":69,"id":"9cd8e7fc-034d-4bed-a6c8-73d17d7c6394"},{"length":1376,"position":10633.846153846154,"velocity":0.007874015748031496,"pitch":72,"id":"e2f55120-7d7f-4a11-80b0-baa19e4d12f7"},{"length":2787,"position":13469.538461538463,"velocity":0.007874015748031496,"pitch":43,"id":"b608f881-6e38-49c1-9ef6-7fb11e67a4a2"},{"length":2766,"position":13469.538461538463,"velocity":0.007874015748031496,"pitch":55,"id":"529d2bc1-fedf-418c-ba6c-fa90ff72493b"},{"length":2777,"position":13469.538461538463,"velocity":0.007874015748031496,"pitch":58,"id":"52702726-8d24-4d90-b49e-721641d54684"},{"length":2783,"position":13469.538461538463,"velocity":0.007874015748031496,"pitch":62,"id":"f924a0b7-5f1c-4674-8d8c-7fe5e2179266"},{"length":1356,"position":16305.23076923077,"velocity":0.007874015748031496,"pitch":48,"id":"ace06f57-74fb-4b22-aec6-acf93c8b12e4"},{"length":1339,"position":16305.23076923077,"velocity":0.007874015748031496,"pitch":60,"id":"bb983434-e47b-4d16-9fdc-f034c7542554"},{"length":1348,"position":16305.23076923077,"velocity":0.007874015748031496,"pitch":63,"id":"f11dd929-c454-4a5c-812a-ff9995ef8a56"},{"length":1349,"position":16305.23076923077,"velocity":0.007874015748031496,"pitch":67,"id":"5de13cb8-e540-4d45-935a-befa39fc43d2"},{"length":1370,"position":17723.076923076926,"velocity":0.007874015748031496,"pitch":50,"id":"b66a415e-d65a-4d13-b7cf-81f2985c05be"},{"length":1372,"position":17723.076923076926,"velocity":0.007874015748031496,"pitch":62,"id":"b3bec1db-63ad-4e39-a582-ccdfc2ede66e"},{"length":1378,"position":17723.076923076926,"velocity":0.007874015748031496,"pitch":66,"id":"60e13869-15e0-4c63-b2c5-0165728c20d9"},{"length":1374,"position":17723.076923076926,"velocity":0.007874015748031496,"pitch":69,"id":"335608ae-ea2d-4cb0-9de3-733460c7cb96"},{"length":1376,"position":17723.076923076926,"velocity":0.007874015748031496,"pitch":72,"id":"be37de68-a7d4-4259-a5f3-c046abf7271e"}],"timing":{"pulsesContentPosition":-708.923076923077,"pulsesLength":18432},"type":"N"}]}}],"audioMetaData":{},"audioFiles":[],"transportRange":[0,18492]}