{"channelList":[{"type":"InstrumentChannel","data":{"mute":false,"solo":false,"gainAutomation":[{"time":0,"value":-10}],"id":"b12cf7dc-f2e6-450a-a2cc-d6d7daed62d4","instrument":{"config":{"type":"generalMidiSynth","data":{"programId":0,"isPercussion":false}},"name":"Acoustic Grand Piano"},"name":"Acoustic Grand Piano","regions":[{"loopCount":1,"position":0,"color":"#10b6c7","id":"85657f26-7ae8-43cb-b281-ed7aa6781a07","name":"Note Clip","notes":[{"length":94,"position":0,"velocity":0.8661417322834646,"pitch":76,"id":"6d07a90c-5018-448c-a607-2978a96d1d75"},{"length":94,"position":96,"velocity":0.8661417322834646,"pitch":76,"id":"e5eda9b6-3e2a-45a9-8c7e-754c2c66c5a6"},{"length":94,"position":288,"velocity":0.8661417322834646,"pitch":76,"id":"ba2d0d6d-d26f-420d-8fa1-9266b3d28bce"},{"length":94,"position":480,"velocity":0.8661417322834646,"pitch":72,"id":"0a8f68fc-9f69-44b0-bcba-6b97a00226d3"},{"length":160,"position":576,"velocity":0.8661417322834646,"pitch":76,"id":"f290a410-1aca-43e2-bbac-9b2602c854fe"},{"length":160,"position":768,"velocity":0.8661417322834646,"pitch":79,"id":"b836af4f-880d-423a-8ca0-093917324e61"},{"length":160,"position":1152,"velocity":0.8661417322834646,"pitch":67,"id":"921a630d-8a67-424b-9b4a-3b46ce6fd2bc"},{"length":94,"position":1536,"velocity":0.8661417322834646,"pitch":67,"id":"e6388a9b-0a75-41b2-9822-eee8f3be7b2f"},{"length":94,"position":1632,"velocity":0.8661417322834646,"pitch":74,"id":"a3e61aea-8a09-4e89-96d9-5e55842fa012"},{"length":94,"position":1728,"velocity":0.8661417322834646,"pitch":74,"id":"61344360-1f04-468e-977c-56562b97a43c"},{"length":94,"position":1824,"velocity":0.8661417322834646,"pitch":69,"id":"69211bc1-8ac3-4464-a885-7293654b7f88"},{"length":94,"position":2016,"velocity":0.8661417322834646,"pitch":74,"id":"7831a9c7-cb46-4d74-bbc0-84095b2fee01"},{"length":352,"position":2112,"velocity":0.8661417322834646,"pitch":71,"id":"a7dd1b50-9054-4273-bfde-6677985b199d"},{"length":94,"position":2592,"velocity":0.8661417322834646,"pitch":74,"id":"f1fa1299-4056-4e51-b47d-ecf99f3d862e"},{"length":94,"position":2688,"velocity":0.8661417322834646,"pitch":71,"id":"85986fc6-7ffe-4859-bfa1-2bdf02e87e87"},{"length":94,"position":2784,"velocity":0.8661417322834646,"pitch":72,"id":"858e97f7-d9b2-4e8c-95ee-2f888f55c904"},{"length":160,"position":2880,"velocity":0.8661417322834646,"pitch":74,"id":"009d4a08-c604-42c1-a001-b27d25b63152"},{"length":94,"position":3072,"velocity":0.8661417322834646,"pitch":67,"id":"f8ccfd79-22f8-4e97-844e-d6040dfd5b23"},{"length":94,"position":3168,"velocity":0.8661417322834646,"pitch":74,"id":"34d0a835-adba-4c26-b3c3-13d33857ce6c"},{"length":94,"position":3264,"velocity":0.8661417322834646,"pitch":74,"id":"909a38a2-8041-4f0a-84e2-8a76860cb90d"},{"length":94,"position":3360,"velocity":0.8661417322834646,"pitch":69,"id":"0b24415e-fe7e-4648-8d3d-08463530a57c"},{"length":94,"position":3552,"velocity":0.8661417322834646,"pitch":74,"id":"c6f18cd1-f182-4de9-bc07-dc0738ef0afb"},{"length":352,"position":3648,"velocity":0.8661417322834646,"pitch":71,"id":"5bb491fe-d54b-4a38-a33a-b700c919d147"},{"length":94,"position":4608,"velocity":0.8661417322834646,"pitch":67,"id":"8b6a4b1c-e99a-41fe-bb22-34497154b56d"},{"length":94,"position":4704,"velocity":0.8661417322834646,"pitch":74,"id":"38ba468c-a8f2-4bc3-8e0a-3d6bc113d094"},{"length":94,"position":4800,"velocity":0.8661417322834646,"pitch":74,"id":"c354d07d-c94d-4de3-af0c-dcd58088e9d0"},{"length":94,"position":4896,"velocity":0.8661417322834646,"pitch":69,"id":"bcdf012b-9dab-46b8-8622-a002cbc68112"},{"length":94,"position":5088,"velocity":0.8661417322834646,"pitch":74,"id":"53227101-3e3a-43ac-93a1-9585f97ae1c5"},{"length":352,"position":5184,"velocity":0.8661417322834646,"pitch":71,"id":"aa889da6-7e40-4723-bd50-b728f5bbf786"},{"length":94,"position":5664,"velocity":0.8661417322834646,"pitch":74,"id":"3eaa2749-b300-4b60-8d01-4e61384b7871"},{"length":94,"position":5760,"velocity":0.8661417322834646,"pitch":71,"id":"e5ad4f8c-04f8-4776-b15a-7bdc101a80df"},{"length":94,"position":5856,"velocity":0.8661417322834646,"pitch":72,"id":"d23b4edc-90d9-4c14-9a98-a6157a841310"},{"length":160,"position":5952,"velocity":0.8661417322834646,"pitch":74,"id":"ddd3abe3-17e6-424c-8361-965a1d581766"},{"length":94,"position":6144,"velocity":0.8661417322834646,"pitch":67,"id":"7261224e-ca0c-4bfa-957c-fcb20b73a72d"},{"length":94,"position":6240,"velocity":0.8661417322834646,"pitch":74,"id":"0cb730fa-a6d3-4df3-a706-a5ffe5b26232"},{"length":94,"position":6336,"velocity":0.8661417322834646,"pitch":74,"id":"8aa0f792-5876-43f5-9c49-5d707b36ec3e"},{"length":94,"position":6432,"velocity":0.8661417322834646,"pitch":69,"id":"6ce3acbf-944e-4eb0-982e-64324c87b567"},{"length":94,"position":6624,"velocity":0.8661417322834646,"pitch":74,"id":"84995426-5402-4c81-af19-7715cd63faf3"},{"length":352,"position":6720,"velocity":0.8661417322834646,"pitch":71,"id":"aa337ac1-c4c4-43fb-8246-749ae36feaa4"},{"length":94,"position":7680,"velocity":0.8661417322834646,"pitch":74,"id":"7c453ad3-c11d-4c22-ae35-c83cf1d01e84"},{"length":94,"position":7776,"velocity":0.8661417322834646,"pitch":72,"id":"edd6cb7d-b756-474a-8253-3138cf1cd9d0"},{"length":94,"position":7872,"velocity":0.8661417322834646,"pitch":74,"id":"1f1287de-f142-4dd4-a1b8-35de9efca8c2"},{"length":94,"position":7968,"velocity":0.8661417322834646,"pitch":71,"id":"1c80762e-47bb-4613-8195-78a0b6dc407c"},{"length":94,"position":8160,"velocity":0.8661417322834646,"pitch":74,"id":"69091506-6566-437e-8893-b8aee8197958"},{"length":528,"position":8256,"velocity":0.8661417322834646,"pitch":79,"id":"1e47b08e-14ea-41ce-88c7-0c652f382761"},{"length":94,"position":9216,"velocity":0.8661417322834646,"pitch":74,"id":"ae434113-4c52-418b-b886-36739fb81858"},{"length":94,"position":9312,"velocity":0.8661417322834646,"pitch":72,"id":"c54ed123-32cc-480f-85fe-3acb1dfad537"},{"length":94,"position":9408,"velocity":0.8661417322834646,"pitch":74,"id":"3ef93bcf-c5d6-4417-8540-36655641edc6"},{"length":94,"position":9504,"velocity":0.8661417322834646,"pitch":71,"id":"cbd30d4b-5ea1-4601-ba04-2bec5c7dcc4c"},{"length":94,"position":9696,"velocity":0.8661417322834646,"pitch":74,"id":"303b4d88-9e3f-4246-8220-fdc4aa8f4f00"},{"length":528,"position":9792,"velocity":0.8661417322834646,"pitch":72,"id":"0c3c3443-9abc-4ae4-b5f3-33fcec9fa254"},{"length":94,"position":10752,"velocity":0.8661417322834646,"pitch":74,"id":"6c5fb11f-8680-4b68-a293-8608482e2aa9"},{"length":94,"position":10848,"velocity":0.8661417322834646,"pitch":72,"id":"c44e73a4-85c0-48bb-8611-c2ebcb5890ef"},{"length":94,"position":10944,"velocity":0.8661417322834646,"pitch":74,"id":"c8c4211e-4203-43ed-b89a-3b4921f8fe75"},{"length":94,"position":11040,"velocity":0.8661417322834646,"pitch":71,"id":"90fcc73f-f7ff-4590-b120-98e7e392eb81"},{"length":94,"position":11232,"velocity":0.8661417322834646,"pitch":74,"id":"7e11cf72-e4f9-4854-8c0b-328d622e96d1"},{"length":528,"position":11328,"velocity":0.8661417322834646,"pitch":79,"id":"ac528254-05e3-455e-9f65-dfa0f7c7ea71"},{"length":94,"position":12288,"velocity":0.8661417322834646,"pitch":81,"id":"aea19d6d-0176-4f29-973f-4904671680f6"},{"length":94,"position":12384,"velocity":0.8661417322834646,"pitch":79,"id":"2d555fdd-b5d3-411f-8d55-d7e78d5fb69b"},{"length":94,"position":12480,"velocity":0.8661417322834646,"pitch":81,"id":"2d7975ba-37bf-4f88-bb0a-b05053877192"},{"length":94,"position":12576,"velocity":0.8661417322834646,"pitch":79,"id":"5b246bca-9e71-449f-adc4-68a49a1b3cff"},{"length":94,"position":12768,"velocity":0.8661417322834646,"pitch":83,"id":"393ce455-a2ec-4285-8b89-5e084cf2c0d4"},{"length":528,"position":12864,"velocity":0.8661417322834646,"pitch":79,"id":"f8672106-dbac-48db-b81f-9a3ed40093b2"},{"length":94,"position":14592,"velocity":0.8661417322834646,"pitch":64,"id":"4c55e015-6e6b-4d53-862f-875c969835d2"},{"length":94,"position":14688,"velocity":0.8661417322834646,"pitch":64,"id":"b479a3d3-7687-47c2-8f06-d0396ad1d4ba"},{"length":94,"position":15072,"velocity":0.8661417322834646,"pitch":64,"id":"4912ae6d-9642-4984-9a25-19bd35fe77c1"},{"length":94,"position":15168,"velocity":0.8661417322834646,"pitch":64,"id":"aa6c95f2-60c8-4e94-a558-93c7c3ea0789"},{"length":46,"position":15264,"velocity":0.8661417322834646,"pitch":64,"id":"023979a6-e219-4d65-8216-fc6ea5570388"},{"length":46,"position":15312,"velocity":0.8661417322834646,"pitch":64,"id":"7e21bc94-14fa-4709-92ec-1ca1f2c9b86f"},{"length":94,"position":15360,"velocity":0.8661417322834646,"pitch":65,"id":"221f9d8c-7b6f-4e29-a502-b201842126e4"},{"length":94,"position":15456,"velocity":0.8661417322834646,"pitch":65,"id":"fe5905bc-8792-40ad-8288-e25dbb820123"},{"length":94,"position":15840,"velocity":0.8661417322834646,"pitch":65,"id":"f8bd93d8-6ce1-4543-9e90-406b27c4b5d1"},{"length":94,"position":15936,"velocity":0.8661417322834646,"pitch":65,"id":"aaf9924a-0426-4d3f-bf28-f7b7477554a6"},{"length":46,"position":16032,"velocity":0.8661417322834646,"pitch":65,"id":"cd65c345-3213-4c7c-bc4a-19a592e36082"},{"length":46,"position":16080,"velocity":0.8661417322834646,"pitch":65,"id":"7d901821-c0b8-4d0f-a264-11ebfe389f71"},{"length":94,"position":16128,"velocity":0.8661417322834646,"pitch":67,"id":"1191e4fe-62db-4038-9865-86bf7ae657b3"},{"length":94,"position":16224,"velocity":0.8661417322834646,"pitch":67,"id":"0446842d-2373-425e-98d4-a8e8784d497b"},{"length":94,"position":16608,"velocity":0.8661417322834646,"pitch":67,"id":"84233644-e869-459a-bec1-e5e086dca2dc"},{"length":94,"position":16704,"velocity":0.8661417322834646,"pitch":67,"id":"baa85ea3-8d20-4f28-b6f9-7fb1fe5f52be"},{"length":46,"position":16800,"velocity":0.8661417322834646,"pitch":67,"id":"5b885f0d-c703-4650-a0c9-1028777e7cc6"},{"length":46,"position":16848,"velocity":0.8661417322834646,"pitch":67,"id":"6a86612a-4b3a-44cf-bd22-6f6ae0c5ac8d"},{"length":94,"position":16896,"velocity":0.8661417322834646,"pitch":65,"id":"69e9586d-6d4c-4819-8608-4c1d6a885c79"},{"length":94,"position":16992,"velocity":0.8661417322834646,"pitch":65,"id":"57507695-d872-455f-9095-44a1fb1fcd5a"},{"length":94,"position":17376,"velocity":0.8661417322834646,"pitch":65,"id":"28974c5f-8c9d-4864-8ea2-bd9375c6895d"},{"length":94,"position":17472,"velocity":0.8661417322834646,"pitch":65,"id":"3d198215-88be-4160-9720-230e193d589d"},{"length":46,"position":17568,"velocity":0.8661417322834646,"pitch":65,"id":"9b0bfa4f-e8e4-49d6-a295-f79771ac4c42"},{"length":46,"position":17616,"velocity":0.8661417322834646,"pitch":65,"id":"74c6f3b5-1ea8-45fa-9151-e572d0b10bdf"},{"length":256,"position":17664,"velocity":0.8661417322834646,"pitch":64,"id":"2533170a-792e-4b17-8bdd-825b96e5514f"},{"length":190,"position":17952,"velocity":0.8661417322834646,"pitch":64,"id":"863e5c92-8ebb-4c3b-bddb-c25ca155d8cf"},{"length":94,"position":18144,"velocity":0.8661417322834646,"pitch":67,"id":"273375b0-a188-401f-9d37-866de31b8732"},{"length":94,"position":18240,"velocity":0.8661417322834646,"pitch":69,"id":"e1b61594-5aaa-4360-94dd-d3030da357b7"},{"length":94,"position":18336,"velocity":0.8661417322834646,"pitch":67,"id":"797a740d-ae72-4912-9e92-99080bd50a4e"},{"length":720,"position":18432,"velocity":0.8661417322834646,"pitch":60,"id":"721538c1-4b53-4733-95eb-6648419a6e87"},{"length":256,"position":19200,"velocity":0.8661417322834646,"pitch":65,"id":"5cda1007-a5ce-4325-9a3a-9d456df51071"},{"length":190,"position":19488,"velocity":0.8661417322834646,"pitch":65,"id":"82a97a36-5b38-4648-b68e-95c9da6ade6f"},{"length":94,"position":19680,"velocity":0.8661417322834646,"pitch":69,"id":"857ed7e4-c7f8-4310-b8d0-bef689bc4f58"},{"length":94,"position":19776,"velocity":0.8661417322834646,"pitch":71,"id":"68384abe-7aaa-4a58-8b75-081bf3ea8015"},{"length":94,"position":19872,"velocity":0.8661417322834646,"pitch":69,"id":"974c0008-1f94-4501-97e3-9de9c1782a67"},{"length":720,"position":19968,"velocity":0.8661417322834646,"pitch":63,"id":"d4a0cb61-2431-47db-9882-d68747e65fc9"},{"length":256,"position":20736,"velocity":0.8661417322834646,"pitch":67,"id":"319c330e-b520-4be6-884b-5f7a387db72e"},{"length":190,"position":21024,"velocity":0.8661417322834646,"pitch":67,"id":"bdeaa38d-b1fd-43e0-9413-66174a68fc2e"},{"length":94,"position":21216,"velocity":0.8661417322834646,"pitch":72,"id":"c42e688f-659d-4557-afaf-93dfe9f7bbe1"},{"length":94,"position":21312,"velocity":0.8661417322834646,"pitch":74,"id":"c115a2a4-0290-4ecc-8ed4-d82f1d4991b6"},{"length":94,"position":21408,"velocity":0.8661417322834646,"pitch":72,"id":"44f93c36-d5b6-4bab-90c8-0af6e2a68e57"},{"length":256,"position":21504,"velocity":0.8661417322834646,"pitch":79,"id":"8ced7b04-7d7e-4a38-ad2c-d56b9e33cdcd"},{"length":190,"position":21792,"velocity":0.8661417322834646,"pitch":77,"id":"5630e1a0-2398-434b-8d42-0eff74915918"},{"length":94,"position":21984,"velocity":0.8661417322834646,"pitch":72,"id":"4343c817-d7b0-49af-89f2-1491eb30c0df"},{"length":94,"position":22080,"velocity":0.8661417322834646,"pitch":67,"id":"f034f7b5-9f20-49e1-9089-ad711965f54e"},{"length":94,"position":22176,"velocity":0.8661417322834646,"pitch":65,"id":"e7717639-3b36-4f76-8575-147b9126f977"},{"length":256,"position":22272,"velocity":0.8661417322834646,"pitch":76,"id":"6f0aa573-b504-4a73-a872-9918aa54f295"},{"length":190,"position":22560,"velocity":0.8661417322834646,"pitch":72,"id":"b0794298-a218-4ab2-a026-c9d8019c0b0b"},{"length":94,"position":22752,"velocity":0.8661417322834646,"pitch":69,"id":"dea1df54-81ee-4317-85b9-f46853302bfb"},{"length":94,"position":22848,"velocity":0.8661417322834646,"pitch":65,"id":"63c15d65-6387-4d7e-bd4b-676f863c90ac"},{"length":94,"position":22944,"velocity":0.8661417322834646,"pitch":64,"id":"687c799e-d71c-4409-867b-28905011e55f"},{"length":528,"position":23040,"velocity":0.8661417322834646,"pitch":63,"id":"50c2c408-a287-4d93-8144-71a9080acd69"},{"length":912,"position":23616,"velocity":0.8661417322834646,"pitch":61,"id":"01deed3b-ecc0-401a-9cda-3ae9408e160f"},{"length":70,"position":26016,"velocity":0.8661417322834646,"pitch":62,"id":"0991e9f1-8118-4082-b0a1-7ae7138e3ee7"},{"length":46,"position":26112,"velocity":0.8661417322834646,"pitch":64,"id":"8af9d8ed-6d34-4ec0-b266-b1a3c93cd45e"},{"length":46,"position":26160,"velocity":0.8661417322834646,"pitch":63,"id":"9dee0a3d-4c17-48ee-9b59-29cf284bbdbb"},{"length":46,"position":26208,"velocity":0.8661417322834646,"pitch":64,"id":"9e481aa5-8b14-46df-b3cc-d25f29d17f4f"},{"length":94,"position":26256,"velocity":0.8661417322834646,"pitch":67,"id":"e17d5f3f-df97-4e24-8ce3-0498391c9150"},{"length":46,"position":26352,"velocity":0.8661417322834646,"pitch":69,"id":"a45f8263-44ea-4907-a2e6-dab3f23dee25"},{"length":94,"position":26400,"velocity":0.8661417322834646,"pitch":67,"id":"a320b7a0-4ad5-41d8-94e7-f241431a2b11"},{"length":160,"position":26496,"velocity":0.8661417322834646,"pitch":60,"id":"8953f18d-aba5-44df-ab3e-0f5637a2b446"},{"length":46,"position":26784,"velocity":0.8661417322834646,"pitch":55,"id":"6aeb30f5-cf76-42dd-b52a-5ecdb22512bb"},{"length":46,"position":26832,"velocity":0.8661417322834646,"pitch":56,"id":"47a9f18a-d800-461c-b647-9b93be7abeec"},{"length":46,"position":26880,"velocity":0.8661417322834646,"pitch":57,"id":"f09e3ac0-773a-43b3-a5d4-cc908fbd75c9"},{"length":46,"position":26928,"velocity":0.8661417322834646,"pitch":56,"id":"b46df64f-3080-40cc-af2f-7ffc06766a09"},{"length":46,"position":26976,"velocity":0.8661417322834646,"pitch":57,"id":"1a607e7b-bc77-474b-bf77-d83748a41dbf"},{"length":94,"position":27024,"velocity":0.8661417322834646,"pitch":60,"id":"724ab8b9-977d-4a92-a5af-c0c85bda2582"},{"length":46,"position":27120,"velocity":0.8661417322834646,"pitch":62,"id":"e8aae8ef-d7a5-4aa5-a4fb-a78ccd0ea7c8"},{"length":94,"position":27168,"velocity":0.8661417322834646,"pitch":60,"id":"4287b148-9f7c-4546-be60-28b82dfb73b5"},{"length":160,"position":27264,"velocity":0.8661417322834646,"pitch":57,"id":"d5f933ce-bc5e-4b03-ab4f-c364f616f516"},{"length":94,"position":27552,"velocity":0.8661417322834646,"pitch":57,"id":"75852fb2-8cad-4e68-9f7f-c0375c0b1e32"},{"length":46,"position":27648,"velocity":0.8661417322834646,"pitch":55,"id":"c3048d1c-aa81-4f45-8c1b-0d6d10815774"},{"length":46,"position":27696,"velocity":0.8661417322834646,"pitch":52,"id":"de2bc776-aadb-4b43-951f-6e75241863bb"},{"length":46,"position":27744,"velocity":0.8661417322834646,"pitch":53,"id":"53eda614-bda6-4708-bd87-75dd5982201a"},{"length":142,"position":27792,"velocity":0.8661417322834646,"pitch":67,"id":"47839e2a-daa6-478a-8e07-69e67989be36"},{"length":46,"position":27936,"velocity":0.8661417322834646,"pitch":55,"id":"a6c58216-39ed-4882-826a-205aea92c714"},{"length":46,"position":27984,"velocity":0.8661417322834646,"pitch":52,"id":"440386fd-9d35-462f-b37d-c7022373207c"},{"length":46,"position":28032,"velocity":0.8661417322834646,"pitch":53,"id":"444ae972-9be1-49db-8fab-5d38b8fb6b82"},{"length":142,"position":28080,"velocity":0.8661417322834646,"pitch":67,"id":"90b93b41-31c1-4298-a31b-30c9d37b7ee9"},{"length":118,"position":28224,"velocity":0.8661417322834646,"pitch":55,"id":"a6723f56-b79c-4686-9365-354991fcc717"},{"length":70,"position":28344,"velocity":0.8661417322834646,"pitch":67,"id":"91677740-5935-4a4b-8d2f-868fe8af6ed1"},{"length":94,"position":28416,"velocity":0.8661417322834646,"pitch":65,"id":"999f2dac-c1a0-479a-9a91-43137f6c1b28"},{"length":94,"position":28512,"velocity":0.8661417322834646,"pitch":67,"id":"d611a9a6-884a-4e82-9e1c-b0a363e5fb2b"},{"length":46,"position":28608,"velocity":0.8661417322834646,"pitch":69,"id":"3bf6c97d-c58a-4efb-8e8b-2a6b5edb4d9f"},{"length":94,"position":28656,"velocity":0.8661417322834646,"pitch":67,"id":"2b53bdff-b6df-4e79-bdf2-c42b86b07c22"},{"length":208,"position":28752,"velocity":0.8661417322834646,"pitch":62,"id":"5b747e1c-d9b8-40af-b8eb-e749b126c106"},{"length":70,"position":29088,"velocity":0.8661417322834646,"pitch":62,"id":"280a9635-46c2-4846-810e-0163e2a4eba8"},{"length":46,"position":29184,"velocity":0.8661417322834646,"pitch":64,"id":"55cc2de4-d4a0-44b7-997f-f6f363baa368"},{"length":46,"position":29232,"velocity":0.8661417322834646,"pitch":63,"id":"f1571f85-7d4a-464d-8bdb-815512328a07"},{"length":46,"position":29280,"velocity":0.8661417322834646,"pitch":64,"id":"b66490de-e126-454e-8e34-cdf91f071ccf"},{"length":94,"position":29328,"velocity":0.8661417322834646,"pitch":67,"id":"938e8fae-6364-48a0-b941-c411371d88bc"},{"length":46,"position":29424,"velocity":0.8661417322834646,"pitch":69,"id":"bee7d07f-367c-495f-8282-431ce8ec45f4"},{"length":94,"position":29472,"velocity":0.8661417322834646,"pitch":67,"id":"7c313aa1-402f-44d3-b3dc-f66763db6eb2"},{"length":160,"position":29568,"velocity":0.8661417322834646,"pitch":70,"id":"b48552ac-d952-41ca-93de-7569bc805b31"},{"length":94,"position":29856,"velocity":0.8661417322834646,"pitch":68,"id":"e3031d56-9a57-4977-9e04-1c4c8a3b8231"},{"length":46,"position":29952,"velocity":0.8661417322834646,"pitch":69,"id":"5205f6dd-185b-49c1-a3b3-35f37162e0af"},{"length":46,"position":30000,"velocity":0.8661417322834646,"pitch":68,"id":"8fb8ef66-0e5f-4942-97c1-241a114c5894"},{"length":46,"position":30048,"velocity":0.8661417322834646,"pitch":69,"id":"ad8f684f-fbd8-4b89-aaf4-9847d1dee1a0"},{"length":94,"position":30096,"velocity":0.8661417322834646,"pitch":72,"id":"47ce3b32-8ba0-4b8d-8882-de3647193656"},{"length":46,"position":30192,"velocity":0.8661417322834646,"pitch":74,"id":"fed5ced6-7f48-4b03-93d5-9079483a51c4"},{"length":94,"position":30240,"velocity":0.8661417322834646,"pitch":72,"id":"48d942ac-e5ca-4b40-a722-8e87655f0b59"},{"length":160,"position":30336,"velocity":0.8661417322834646,"pitch":69,"id":"ac153fef-99eb-49aa-8c2c-55cdfb4c3ea7"},{"length":94,"position":30624,"velocity":0.8661417322834646,"pitch":69,"id":"855abb43-de43-49d1-8a44-7d2b4201533b"},{"length":46,"position":30720,"velocity":0.8661417322834646,"pitch":67,"id":"2c9e4652-e565-4ff1-a343-3dc0301b0d99"},{"length":46,"position":30768,"velocity":0.8661417322834646,"pitch":66,"id":"620647fd-fd12-426d-8092-14efe0a5c757"},{"length":46,"position":30816,"velocity":0.8661417322834646,"pitch":67,"id":"3f435953-1633-42ea-ab38-b17f0199b4f0"},{"length":142,"position":30864,"velocity":0.8661417322834646,"pitch":55,"id":"a824abd9-8009-4f93-aa6a-aab99eca3965"},{"length":46,"position":31008,"velocity":0.8661417322834646,"pitch":67,"id":"0dd9cafa-72ec-4b7c-8d20-235fc675652f"},{"length":46,"position":31056,"velocity":0.8661417322834646,"pitch":66,"id":"233ede38-09a4-46bf-a4ce-055aadc860c0"},{"length":46,"position":31104,"velocity":0.8661417322834646,"pitch":67,"id":"8fda2bb9-fdac-4e04-9318-93908f2fa264"},{"length":94,"position":31152,"velocity":0.8661417322834646,"pitch":55,"id":"d144502b-212d-4f6f-8c53-a34e2338184f"},{"length":46,"position":31248,"velocity":0.8661417322834646,"pitch":55,"id":"d65d9da8-5627-4f26-b050-c2fb676924fb"},{"length":94,"position":31296,"velocity":0.8661417322834646,"pitch":62,"id":"88e0f2c9-f9e9-41cc-8d03-35c5f2930024"},{"length":94,"position":31296,"velocity":0.8661417322834646,"pitch":65,"id":"9f70bd1e-5b5a-44c4-880b-7984c3a94266"},{"length":94,"position":31392,"velocity":0.8661417322834646,"pitch":64,"id":"fcd49f24-99a2-4892-96b6-6b5d95a9a8cb"},{"length":528,"position":31488,"velocity":0.8661417322834646,"pitch":52,"id":"af738201-616e-472a-bc24-f3f7ae4b7ab1"},{"length":528,"position":31488,"velocity":0.8661417322834646,"pitch":60,"id":"cc431884-dcd2-4d12-aa59-66631b2bd66d"},{"length":46,"position":32160,"velocity":0.8661417322834646,"pitch":62,"id":"8a577d27-0ca7-48a3-b550-9636785d4b88"},{"length":46,"position":32208,"velocity":0.8661417322834646,"pitch":63,"id":"5f4fcc56-2141-4936-be66-ac0b7a22696c"},{"length":46,"position":32256,"velocity":0.8661417322834646,"pitch":64,"id":"ca413374-7b7f-40f0-a7d0-e9cf6c196a3b"},{"length":46,"position":32304,"velocity":0.8661417322834646,"pitch":63,"id":"f9762d91-e987-4df9-9397-9e5c42a9c963"},{"length":46,"position":32352,"velocity":0.8661417322834646,"pitch":64,"id":"8756f73a-3b81-4c11-b19c-fcf70c1c83a3"},{"length":94,"position":32400,"velocity":0.8661417322834646,"pitch":67,"id":"9e7844e4-2836-4cf6-9f6b-d0d73e459ee0"},{"length":46,"position":32496,"velocity":0.8661417322834646,"pitch":69,"id":"f3b6e2cc-8147-4874-8001-362f753ad717"},{"length":94,"position":32544,"velocity":0.8661417322834646,"pitch":67,"id":"a765dfc5-e594-4fe7-818b-e1a20fe1e24f"},{"length":160,"position":32640,"velocity":0.8661417322834646,"pitch":60,"id":"c8cc8805-319c-42ff-a323-18bf96e8a03f"},{"length":46,"position":32928,"velocity":0.8661417322834646,"pitch":55,"id":"507140ef-e790-413f-92b4-0bac048d430f"},{"length":46,"position":32976,"velocity":0.8661417322834646,"pitch":56,"id":"fb0d74fd-c80b-4ba6-b315-077c618f87b8"},{"length":46,"position":33024,"velocity":0.8661417322834646,"pitch":57,"id":"0419d1a7-4124-4792-9106-4a5ec0abe141"},{"length":46,"position":33072,"velocity":0.8661417322834646,"pitch":56,"id":"974f2a76-5c21-493a-a1f8-90566b02315b"},{"length":46,"position":33120,"velocity":0.8661417322834646,"pitch":57,"id":"c7502cc7-8afd-47cd-b42f-ab96e5a0a3ee"},{"length":94,"position":33168,"velocity":0.8661417322834646,"pitch":60,"id":"15551f50-75a4-4eb1-a225-651917874405"},{"length":46,"position":33264,"velocity":0.8661417322834646,"pitch":62,"id":"9d52256c-6b58-48cb-9028-5b5044128927"},{"length":94,"position":33312,"velocity":0.8661417322834646,"pitch":60,"id":"2a8431eb-5020-4979-b047-5f10198d4926"},{"length":160,"position":33408,"velocity":0.8661417322834646,"pitch":57,"id":"c8704ce4-5c13-4bfc-bfe0-93398835aec1"},{"length":94,"position":33696,"velocity":0.8661417322834646,"pitch":57,"id":"a777c547-c6f5-46c3-ad43-7af453fd727d"},{"length":46,"position":33792,"velocity":0.8661417322834646,"pitch":55,"id":"b5cc440d-0507-4ada-86fa-ebf432ff0b9f"},{"length":46,"position":33840,"velocity":0.8661417322834646,"pitch":52,"id":"102e9028-aea2-442d-aadc-a6fd19594559"},{"length":46,"position":33888,"velocity":0.8661417322834646,"pitch":53,"id":"c61bf6c1-2a40-47b3-9104-5e2ed625986c"},{"length":166,"position":33936,"velocity":0.8661417322834646,"pitch":67,"id":"24dace8e-69da-4cb9-b138-f99a5fdb5a16"},{"length":22,"position":34104,"velocity":0.8661417322834646,"pitch":55,"id":"4d39990c-3804-4db4-a24c-4d7c4412a5e9"},{"length":46,"position":34128,"velocity":0.8661417322834646,"pitch":53,"id":"61750426-947b-4498-ac05-499471ec1f88"},{"length":46,"position":34176,"velocity":0.8661417322834646,"pitch":52,"id":"fb1ed97f-d647-43f8-8753-14b1b782a386"},{"length":142,"position":34224,"velocity":0.8661417322834646,"pitch":55,"id":"ceca4d54-c4df-4cdb-82a0-bd146f533df0"},{"length":118,"position":34368,"velocity":0.8661417322834646,"pitch":55,"id":"4798be60-62df-4738-8ca9-cdc8c35c6408"},{"length":70,"position":34488,"velocity":0.8661417322834646,"pitch":67,"id":"7470d5ac-96ed-433c-a4eb-7771a38265cf"},{"length":94,"position":34560,"velocity":0.8661417322834646,"pitch":65,"id":"3e1c544c-3ca8-438d-87e5-40cc5c3c4e68"},{"length":94,"position":34656,"velocity":0.8661417322834646,"pitch":67,"id":"f56a679a-5e7e-4318-8a58-2d7545598e22"},{"length":46,"position":34752,"velocity":0.8661417322834646,"pitch":69,"id":"bfdd7229-b4ac-44f1-b3d2-a2de600e0215"},{"length":94,"position":34800,"velocity":0.8661417322834646,"pitch":67,"id":"33aade8b-417d-4122-b0ae-c213566fd53c"},{"length":208,"position":34896,"velocity":0.8661417322834646,"pitch":62,"id":"711c40c2-a994-4654-9015-9d49620251ac"},{"length":70,"position":35232,"velocity":0.8661417322834646,"pitch":62,"id":"6f6d555d-4689-4474-9e0c-2f4e0dc06bac"},{"length":46,"position":35328,"velocity":0.8661417322834646,"pitch":64,"id":"a030f608-7881-4827-b7a1-5818fca36781"},{"length":46,"position":35376,"velocity":0.8661417322834646,"pitch":63,"id":"712bd431-b5a0-4e6e-9384-7e597988a933"},{"length":46,"position":35424,"velocity":0.8661417322834646,"pitch":64,"id":"f8e47f68-b2fd-4500-be04-6b1ef3d62427"},{"length":94,"position":35472,"velocity":0.8661417322834646,"pitch":67,"id":"a0c68c7d-7963-405a-a746-62b6c159c493"},{"length":46,"position":35568,"velocity":0.8661417322834646,"pitch":69,"id":"2c10d1cf-64a6-4001-aeef-b9e947aec6ce"},{"length":94,"position":35616,"velocity":0.8661417322834646,"pitch":67,"id":"440d10c7-7eda-4de9-a4ac-5b172cca61c4"},{"length":160,"position":35712,"velocity":0.8661417322834646,"pitch":70,"id":"52037f00-3f57-4c41-8db6-ae8248c6f203"},{"length":94,"position":36000,"velocity":0.8661417322834646,"pitch":68,"id":"2d1a334f-1b44-4293-8a88-4778e7ebe4d0"},{"length":46,"position":36096,"velocity":0.8661417322834646,"pitch":69,"id":"9318d2c8-6749-4b9c-999c-a121875b25d4"},{"length":46,"position":36144,"velocity":0.8661417322834646,"pitch":68,"id":"c53a7de3-1c96-4d5b-a24b-73d9cb04a38b"},{"length":46,"position":36192,"velocity":0.8661417322834646,"pitch":69,"id":"7b54cc1d-bcb9-4543-8cb2-06748f6c7d1a"},{"length":46,"position":36240,"velocity":0.8661417322834646,"pitch":72,"id":"a520b686-84ab-463b-81b0-6ff9a5bbe9e0"},{"length":46,"position":36336,"velocity":0.8661417322834646,"pitch":74,"id":"38178e57-52a1-4fac-a485-9ba4ac6faab4"},{"length":94,"position":36384,"velocity":0.8661417322834646,"pitch":72,"id":"131dd337-1299-430f-936f-730b49a38692"},{"length":160,"position":36480,"velocity":0.8661417322834646,"pitch":69,"id":"7c8c4f0e-6539-4a58-b3e1-9a6101921fa5"},{"length":94,"position":36768,"velocity":0.8661417322834646,"pitch":69,"id":"cd3ba618-0d50-4209-9b97-6c50ae1d03ce"},{"length":46,"position":36864,"velocity":0.8661417322834646,"pitch":67,"id":"c57b3c47-b914-47bc-a96e-232f1265487e"},{"length":46,"position":36912,"velocity":0.8661417322834646,"pitch":66,"id":"82bf30e4-9c5f-42ba-9c7a-e162f1ee9107"},{"length":46,"position":36960,"velocity":0.8661417322834646,"pitch":67,"id":"f2e6be70-36bc-479d-96f6-e68238b8ca62"},{"length":142,"position":37008,"velocity":0.8661417322834646,"pitch":55,"id":"c2d0b0aa-12c2-422e-b637-b41ff73bbed4"},{"length":46,"position":37152,"velocity":0.8661417322834646,"pitch":67,"id":"8ae65f28-a24d-4e28-ba54-77f8d0dc85a0"},{"length":46,"position":37200,"velocity":0.8661417322834646,"pitch":66,"id":"95981216-73e0-4622-b070-d2507a36bf1e"},{"length":46,"position":37248,"velocity":0.8661417322834646,"pitch":67,"id":"5823f4df-178f-4a8c-8c1b-45c212bd7f9b"},{"length":94,"position":37296,"velocity":0.8661417322834646,"pitch":55,"id":"44df7f83-5ed4-45bb-b641-ee573b5a5eff"},{"length":46,"position":37392,"velocity":0.8661417322834646,"pitch":55,"id":"38845591-a0d8-4908-bdd0-726fd055ab92"},{"length":94,"position":37440,"velocity":0.8661417322834646,"pitch":65,"id":"16afa643-550a-4c8e-8d81-c26071e52a03"},{"length":94,"position":37536,"velocity":0.8661417322834646,"pitch":64,"id":"a8ccfac1-cfb0-4df4-ac5e-d3ce35ad3664"},{"length":720,"position":37632,"velocity":0.8661417322834646,"pitch":60,"id":"0b174398-ccf5-4624-b3f3-93b0c95608e9"},{"length":256,"position":38400,"velocity":0.8661417322834646,"pitch":77,"id":"d2fdf8af-820f-433c-a069-340e1a921b32"},{"length":256,"position":38400,"velocity":0.8661417322834646,"pitch":81,"id":"aadef994-b398-496d-998d-692c4dfbc319"},{"length":94,"position":38688,"velocity":0.8661417322834646,"pitch":72,"id":"04fcef37-2a64-409d-87df-d5be9bf60941"},{"length":94,"position":38688,"velocity":0.8661417322834646,"pitch":77,"id":"f0d30255-4393-4964-b112-c2d3bb98a5fc"},{"length":256,"position":38784,"velocity":0.8661417322834646,"pitch":76,"id":"d7914b70-1f09-495e-8840-ce6d5d6c7582"},{"length":256,"position":38784,"velocity":0.8661417322834646,"pitch":79,"id":"3d39c1b6-c296-44f5-9458-e827dd586451"},{"length":94,"position":39072,"velocity":0.8661417322834646,"pitch":72,"id":"e68006c0-e58f-4ef4-a15c-ba1e95f26650"},{"length":94,"position":39072,"velocity":0.8661417322834646,"pitch":76,"id":"9b87162f-8618-4418-a559-6aaedf90212f"},{"length":142,"position":39168,"velocity":0.8661417322834646,"pitch":77,"id":"2d53c4e9-2b26-4cc8-9fe6-f67f9f9afa68"},{"length":46,"position":39312,"velocity":0.8661417322834646,"pitch":79,"id":"490793d4-6152-4015-9c42-30c68ece5ad8"},{"length":40,"position":39480,"velocity":0.8661417322834646,"pitch":76,"id":"83cb192b-4cb7-4597-88ac-4a94d2a42e24"},{"length":70,"position":39552,"velocity":0.8661417322834646,"pitch":76,"id":"793932e4-08d1-4cf6-8624-1a4820381309"},{"length":22,"position":39624,"velocity":0.8661417322834646,"pitch":77,"id":"65966c55-0388-4e54-b541-deeee9452982"},{"length":46,"position":39648,"velocity":0.8661417322834646,"pitch":79,"id":"520f8be5-a566-4d34-aa07-878419d5c17c"},{"length":46,"position":39696,"velocity":0.8661417322834646,"pitch":80,"id":"60d0460b-8f8a-4510-9313-0340a7434f10"},{"length":256,"position":39936,"velocity":0.8661417322834646,"pitch":77,"id":"b1b98f12-891f-45ed-9bad-fac526005b6f"},{"length":256,"position":39936,"velocity":0.8661417322834646,"pitch":81,"id":"74e18eea-ff5c-4f1f-8c65-de84b36e3440"},{"length":94,"position":40224,"velocity":0.8661417322834646,"pitch":77,"id":"e98e56d5-f3be-4e3e-9d1d-8fda26b186ce"},{"length":94,"position":40224,"velocity":0.8661417322834646,"pitch":80,"id":"b086772c-b918-4ab3-ba0f-df196b8ad92d"},{"length":256,"position":40320,"velocity":0.8661417322834646,"pitch":76,"id":"846e2b20-9793-47d9-a70f-26245ad91c07"},{"length":256,"position":40320,"velocity":0.8661417322834646,"pitch":79,"id":"2e97059e-b8b5-4b72-ae85-8eca1d23bfb5"},{"length":94,"position":40608,"velocity":0.8661417322834646,"pitch":78,"id":"378cef29-35a4-4ff5-99ec-0c30cb6a85bf"},{"length":142,"position":40704,"velocity":0.8661417322834646,"pitch":77,"id":"b333e822-5542-4a4e-b670-8ceb4f614c62"},{"length":142,"position":40848,"velocity":0.8661417322834646,"pitch":76,"id":"c18a2272-1b46-47b4-bbc6-9c9b1fa5a8b1"},{"length":256,"position":40992,"velocity":0.8661417322834646,"pitch":72,"id":"d023116a-318c-40ee-82f1-4ffcc2b28569"},{"length":94,"position":41472,"velocity":0.8661417322834646,"pitch":77,"id":"7eb61250-e5b9-4075-a474-31124949c5fc"},{"length":94,"position":41472,"velocity":0.8661417322834646,"pitch":81,"id":"3411ac67-0b4d-48d0-a012-1b8acc1284b6"},{"length":94,"position":41568,"velocity":0.8661417322834646,"pitch":77,"id":"0d32c217-1888-443c-b642-c60bba26f48f"},{"length":94,"position":41568,"velocity":0.8661417322834646,"pitch":81,"id":"dad2ed3b-95b3-496e-bdcd-3c04378bf9dc"},{"length":94,"position":41664,"velocity":0.8661417322834646,"pitch":77,"id":"62f866bc-9412-4546-9047-4f9865e2d296"},{"length":94,"position":41664,"velocity":0.8661417322834646,"pitch":80,"id":"0ff33e7e-1d25-4b0c-9a22-35aa2c12d10a"},{"length":94,"position":41760,"velocity":0.8661417322834646,"pitch":77,"id":"436a1a29-7276-4fa2-b887-db41f3c6322d"},{"length":94,"position":41760,"velocity":0.8661417322834646,"pitch":80,"id":"0e9004c4-915a-4651-be99-6585a20e3e6d"},{"length":94,"position":41856,"velocity":0.8661417322834646,"pitch":76,"id":"e71698c0-8e37-499f-b140-90b650ecc208"},{"length":94,"position":41856,"velocity":0.8661417322834646,"pitch":79,"id":"4aa20e3f-efb4-4897-a5da-762da5f6668d"},{"length":94,"position":41952,"velocity":0.8661417322834646,"pitch":76,"id":"c03c3a0a-d9ae-4d98-b84d-5057604e238c"},{"length":94,"position":41952,"velocity":0.8661417322834646,"pitch":79,"id":"3aec6f4d-ac61-4b62-81bd-825190c35ed8"},{"length":94,"position":42048,"velocity":0.8661417322834646,"pitch":75,"id":"056506f3-47f3-4549-b7ff-97fb7d30b375"},{"length":94,"position":42048,"velocity":0.8661417322834646,"pitch":78,"id":"55d37d4b-52fc-42d0-b263-ed2eeb13b139"},{"length":94,"position":42144,"velocity":0.8661417322834646,"pitch":75,"id":"626ba8d8-f8d5-4209-93d8-8f288f209e12"},{"length":94,"position":42144,"velocity":0.8661417322834646,"pitch":78,"id":"d59a031c-debe-4b5d-85da-6c83c9cddc74"},{"length":142,"position":42240,"velocity":0.8661417322834646,"pitch":74,"id":"974202cb-669d-4857-a01b-7c54e235c1ab"},{"length":142,"position":42240,"velocity":0.8661417322834646,"pitch":77,"id":"1858a341-6976-4425-a0e6-bcce8b51f557"},{"length":46,"position":42384,"velocity":0.8661417322834646,"pitch":76,"id":"96969000-cf3d-44f7-a432-76abe39b0147"},{"length":46,"position":42384,"velocity":0.8661417322834646,"pitch":79,"id":"e328207f-c70b-4b63-ba06-762bd0538386"},{"length":432,"position":42528,"velocity":0.8661417322834646,"pitch":72,"id":"7b4e7e6a-7c23-49e4-8985-98d390409f64"},{"length":432,"position":42528,"velocity":0.8661417322834646,"pitch":76,"id":"6b0e759b-9041-4f3a-9bb7-43a4d95fd23a"},{"length":94,"position":43008,"velocity":0.8661417322834646,"pitch":77,"id":"816dea49-4559-4a79-a082-36fdd0526c5a"},{"length":94,"position":43008,"velocity":0.8661417322834646,"pitch":81,"id":"def7b306-5467-427d-877c-b4400cf3b3e5"},{"length":94,"position":43104,"velocity":0.8661417322834646,"pitch":77,"id":"d180a02e-6f4d-4137-ab61-2d58e138b403"},{"length":94,"position":43104,"velocity":0.8661417322834646,"pitch":81,"id":"af7a6ffd-ce1b-4c0e-b9bd-65c1e1ac582b"},{"length":94,"position":43200,"velocity":0.8661417322834646,"pitch":77,"id":"5003995b-204c-410d-8a8d-632ea0e8ce27"},{"length":94,"position":43200,"velocity":0.8661417322834646,"pitch":80,"id":"1d1b81b0-2a99-49c9-b9c6-b1e186c143e9"},{"length":94,"position":43296,"velocity":0.8661417322834646,"pitch":77,"id":"1fd3cfaa-1566-449b-a034-d30a17d9bbd3"},{"length":94,"position":43296,"velocity":0.8661417322834646,"pitch":80,"id":"217be96b-22c0-40a7-8c13-020a5d6b3149"},{"length":94,"position":43392,"velocity":0.8661417322834646,"pitch":76,"id":"eedeab65-4442-4b94-86ed-371bd489b08c"},{"length":94,"position":43392,"velocity":0.8661417322834646,"pitch":79,"id":"5f48417e-5012-40fd-a9ea-a37f74a36a4a"},{"length":94,"position":43488,"velocity":0.8661417322834646,"pitch":76,"id":"4e868d90-b3f3-4aa3-a2fd-6516f4f258a9"},{"length":94,"position":43488,"velocity":0.8661417322834646,"pitch":79,"id":"f3ab17a6-6bdb-4d4c-9b9a-1a5f298ab69e"},{"length":94,"position":43584,"velocity":0.8661417322834646,"pitch":75,"id":"05dd34a1-19ae-46f5-a9c8-05b099511f85"},{"length":94,"position":43584,"velocity":0.8661417322834646,"pitch":78,"id":"70308620-7808-40bb-8ffa-24c7b32a8e33"},{"length":94,"position":43680,"velocity":0.8661417322834646,"pitch":75,"id":"43a64c8b-378b-4956-be7a-b53b578c3c0c"},{"length":94,"position":43680,"velocity":0.8661417322834646,"pitch":78,"id":"bf10b1ae-cd1a-4354-8896-589414e1f098"},{"length":142,"position":43776,"velocity":0.8661417322834646,"pitch":74,"id":"d767593b-8670-4032-8882-c456cd7459de"},{"length":142,"position":43776,"velocity":0.8661417322834646,"pitch":77,"id":"bd50ce89-ff9d-4f0c-8ed1-8cb361ba26fa"},{"length":46,"position":43920,"velocity":0.8661417322834646,"pitch":72,"id":"3b0af471-6c4f-4083-9727-a26fb2d6a4fa"},{"length":46,"position":43920,"velocity":0.8661417322834646,"pitch":76,"id":"4339362e-de00-4f74-86df-428bb6c6ba63"},{"length":432,"position":44064,"velocity":0.8661417322834646,"pitch":67,"id":"41c1842f-10b3-4228-a14b-cb64e92fafa8"},{"length":432,"position":44064,"velocity":0.8661417322834646,"pitch":72,"id":"5d4add5f-082c-48f4-827f-d211647d96ce"},{"length":46,"position":44544,"velocity":0.8661417322834646,"pitch":72,"id":"1752f034-ec82-4d55-9af4-c34b22062187"},{"length":94,"position":44592,"velocity":0.8661417322834646,"pitch":64,"id":"01e196e6-34b4-4921-8a9a-89dc0858b5c2"},{"length":46,"position":44688,"velocity":0.8661417322834646,"pitch":70,"id":"6d722cbe-12a5-48a2-a151-a4ac276b0d70"},{"length":46,"position":44928,"velocity":0.8661417322834646,"pitch":72,"id":"906e6d0f-c290-4471-960b-3529166ce8a0"},{"length":94,"position":44976,"velocity":0.8661417322834646,"pitch":64,"id":"bee8462f-6d79-446a-9314-2fbc1eb57796"},{"length":46,"position":45072,"velocity":0.8661417322834646,"pitch":70,"id":"80a86102-5726-4bd9-8867-abace47028f4"},{"length":46,"position":45312,"velocity":0.8661417322834646,"pitch":69,"id":"7daffbeb-5760-4223-ab59-d9c4d8f97320"},{"length":94,"position":45360,"velocity":0.8661417322834646,"pitch":60,"id":"6fb49ff2-8ded-499d-8f81-f1052b08bab1"},{"length":46,"position":45456,"velocity":0.8661417322834646,"pitch":63,"id":"0ae7e0ad-6c1b-43a1-973b-fe0123030926"},{"length":46,"position":45696,"velocity":0.8661417322834646,"pitch":69,"id":"f1198588-144f-414e-9bd7-ffc4559eaba7"},{"length":94,"position":45744,"velocity":0.8661417322834646,"pitch":60,"id":"1e32166c-449a-42cc-8c44-31363968c482"},{"length":46,"position":45840,"velocity":0.8661417322834646,"pitch":63,"id":"20361af3-352b-4238-b0f5-aa1a0912e36e"},{"length":46,"position":46080,"velocity":0.8661417322834646,"pitch":72,"id":"43cb4830-fdf0-4832-ae21-ebc45b988e39"},{"length":94,"position":46128,"velocity":0.8661417322834646,"pitch":64,"id":"77af38d8-5171-4432-9587-cc72ce3fa54d"},{"length":46,"position":46224,"velocity":0.8661417322834646,"pitch":70,"id":"6138c681-b5a2-4fcc-b8f3-d1e112b3a169"},{"length":46,"position":46464,"velocity":0.8661417322834646,"pitch":72,"id":"d824ba37-84ab-434b-b61b-9985f0f342bd"},{"length":94,"position":46512,"velocity":0.8661417322834646,"pitch":64,"id":"bfea5359-65da-4f8e-ad89-7cdb98b99fd3"},{"length":46,"position":46608,"velocity":0.8661417322834646,"pitch":70,"id":"7fe9a0e5-fe10-4df0-940e-28081048b94a"},{"length":94,"position":46848,"velocity":0.8661417322834646,"pitch":65,"id":"d166baed-2d87-45f3-8c52-62376808148e"},{"length":94,"position":46848,"velocity":0.8661417322834646,"pitch":69,"id":"a9f92ee9-449a-4670-88f1-2062a988d1aa"},{"length":94,"position":46944,"velocity":0.8661417322834646,"pitch":65,"id":"7549c8f7-a501-4493-85e4-2f26baf85362"},{"length":94,"position":46944,"velocity":0.8661417322834646,"pitch":69,"id":"893573aa-dab3-4bb1-9753-16785c3ce6c6"},{"length":94,"position":47040,"velocity":0.8661417322834646,"pitch":65,"id":"6e4a6672-883b-4045-a287-3037ac33e431"},{"length":94,"position":47040,"velocity":0.8661417322834646,"pitch":69,"id":"dbad2359-7017-407b-9bd5-16ffd91bfe06"},{"length":94,"position":47136,"velocity":0.8661417322834646,"pitch":65,"id":"7843108a-505f-401b-bd99-061df64189b0"},{"length":94,"position":47136,"velocity":0.8661417322834646,"pitch":69,"id":"829e5295-b1ac-4fb6-98d6-12b2071255c4"},{"length":160,"position":47232,"velocity":0.8661417322834646,"pitch":65,"id":"1f4aaafa-7e6a-48dc-a4b0-500cc45f68a0"},{"length":160,"position":47232,"velocity":0.8661417322834646,"pitch":68,"id":"ca876604-2fdf-4493-88a0-5f37768beb7a"},{"length":22,"position":47424,"velocity":0.8661417322834646,"pitch":67,"id":"257eb688-e5f4-4e42-803d-a66982d06877"},{"length":22,"position":47448,"velocity":0.8661417322834646,"pitch":65,"id":"9fdb45b3-db5f-4f47-a3f3-1cc16abdbde5"},{"length":22,"position":47472,"velocity":0.8661417322834646,"pitch":64,"id":"c264fd77-69b4-4573-b853-e396c36fe1c3"},{"length":22,"position":47496,"velocity":0.8661417322834646,"pitch":62,"id":"41b06733-d81b-4a74-9d88-2f4c13a00c3a"},{"length":22,"position":47520,"velocity":0.8661417322834646,"pitch":60,"id":"40b9c84c-043b-4646-8e2c-88966d365b47"},{"length":22,"position":47544,"velocity":0.8661417322834646,"pitch":58,"id":"9fc49225-726b-4127-8054-49ef72b8819d"},{"length":46,"position":47568,"velocity":0.8661417322834646,"pitch":55,"id":"af4bf88d-4a52-422a-b4cc-d73475e49acb"},{"length":46,"position":47616,"velocity":0.8661417322834646,"pitch":72,"id":"a914672b-55f4-4163-85d2-4a6a62b3631d"},{"length":94,"position":47664,"velocity":0.8661417322834646,"pitch":64,"id":"c0db6005-444b-4684-80c9-32d207203f39"},{"length":46,"position":47760,"velocity":0.8661417322834646,"pitch":70,"id":"16be73f0-18ea-4cea-84d5-e9c1355c8e45"},{"length":46,"position":48000,"velocity":0.8661417322834646,"pitch":72,"id":"41486c11-c10a-4e33-8276-3c5772c289b3"},{"length":94,"position":48048,"velocity":0.8661417322834646,"pitch":64,"id":"ca967c20-42d5-49da-8622-1be9cd3f6388"},{"length":46,"position":48144,"velocity":0.8661417322834646,"pitch":70,"id":"9acdc6ac-6b80-4e6f-b115-66cc068e198a"},{"length":46,"position":48384,"velocity":0.8661417322834646,"pitch":69,"id":"8aec4301-2a76-4c5d-90e9-8ada8de6e4c4"},{"length":94,"position":48432,"velocity":0.8661417322834646,"pitch":60,"id":"272caadf-5947-4bc8-bb83-7a3293cede89"},{"length":46,"position":48528,"velocity":0.8661417322834646,"pitch":63,"id":"12b18930-ba48-4bff-a0ea-bda32a9876fd"},{"length":46,"position":48768,"velocity":0.8661417322834646,"pitch":69,"id":"74b73963-1ba1-4730-a236-b7e85838fc1b"},{"length":94,"position":48816,"velocity":0.8661417322834646,"pitch":60,"id":"741d5228-9cf3-4b10-958b-6cd4f471b1d6"},{"length":46,"position":48912,"velocity":0.8661417322834646,"pitch":63,"id":"576cf742-d3f0-42b0-8374-709d95747701"},{"length":46,"position":49152,"velocity":0.8661417322834646,"pitch":72,"id":"5eba61ab-ba8e-428b-9bbd-fd902a9bf9ab"},{"length":94,"position":49200,"velocity":0.8661417322834646,"pitch":64,"id":"2c93e394-47cb-4ca5-96e0-28d2224ac163"},{"length":46,"position":49296,"velocity":0.8661417322834646,"pitch":70,"id":"c4390ded-5f00-465e-9374-65c2cc5087c4"},{"length":46,"position":49536,"velocity":0.8661417322834646,"pitch":72,"id":"ef06a10a-a9b5-49c3-915b-e60d555b652a"},{"length":94,"position":49584,"velocity":0.8661417322834646,"pitch":64,"id":"f23e6d25-7ffb-44fc-a236-22708bc4c14d"},{"length":46,"position":49680,"velocity":0.8661417322834646,"pitch":70,"id":"f8e315ca-dd06-4dd5-b5f4-816fe2398682"},{"length":160,"position":49920,"velocity":0.8661417322834646,"pitch":72,"id":"55ecd950-49d2-415d-a842-a7473290c57d"},{"length":160,"position":49920,"velocity":0.8661417322834646,"pitch":76,"id":"53e06f7d-388c-4b4a-a760-0d07b8ada091"},{"length":160,"position":49920,"velocity":0.8661417322834646,"pitch":79,"id":"2a77e175-e1d1-4dac-a8cd-0f67a1a62e5e"},{"length":94,"position":50208,"velocity":0.8661417322834646,"pitch":72,"id":"0fec655c-b238-4f9a-8f25-8c241d4616e2"},{"length":94,"position":50208,"velocity":0.8661417322834646,"pitch":77,"id":"d5a3ea00-949b-4dd6-9cdb-3cc6409baa3c"},{"length":94,"position":50208,"velocity":0.8661417322834646,"pitch":81,"id":"4406861a-46ac-4e37-881b-44ef0bf8c88b"},{"length":94,"position":50400,"velocity":0.8661417322834646,"pitch":72,"id":"c36df6c4-da6d-4286-904c-9bffe5c0e4c9"},{"length":94,"position":50400,"velocity":0.8661417322834646,"pitch":76,"id":"61a70dc7-8deb-4838-935e-a39dbc7b770d"},{"length":94,"position":50400,"velocity":0.8661417322834646,"pitch":79,"id":"058ccd4d-74af-4b8d-99ab-0ff82f1defc2"},{"length":94,"position":50592,"velocity":0.8661417322834646,"pitch":72,"id":"987a1324-6e7f-4b9f-b456-ba73a1cf6b49"},{"length":94,"position":50592,"velocity":0.8661417322834646,"pitch":75,"id":"da33bb5b-4547-4503-922e-b1bb5524a630"},{"length":94,"position":50592,"velocity":0.8661417322834646,"pitch":78,"id":"d3596ed1-ae25-4e30-b47f-02e3090d4756"},{"length":94,"position":50688,"velocity":0.8661417322834646,"pitch":72,"id":"d5213bbb-050f-496f-b4e9-61f9c56f6f9c"},{"length":94,"position":50688,"velocity":0.8661417322834646,"pitch":76,"id":"2eaf0c0a-4e4b-4247-997a-2c4e07b1c58a"},{"length":94,"position":50688,"velocity":0.8661417322834646,"pitch":79,"id":"69c88e01-c13a-45dd-b398-e512305af205"},{"length":94,"position":50784,"velocity":0.8661417322834646,"pitch":76,"id":"5dde033a-4f36-4fc3-94a3-4a6a7f3a0892"},{"length":94,"position":50784,"velocity":0.8661417322834646,"pitch":79,"id":"1acc4a5e-9be4-4983-9893-38e0397813b8"},{"length":94,"position":50784,"velocity":0.8661417322834646,"pitch":84,"id":"2ef4c989-c03f-491a-8c92-e0ce1b7eeefb"},{"length":160,"position":50880,"velocity":0.8661417322834646,"pitch":79,"id":"0279f0d9-2146-4f36-badf-1bf5b3ab48ee"},{"length":160,"position":50880,"velocity":0.8661417322834646,"pitch":84,"id":"a84c38ce-6177-49af-ae30-a32b61a7b4d7"},{"length":160,"position":50880,"velocity":0.8661417322834646,"pitch":88,"id":"b5c74640-d5f1-4124-996c-edac8f94016f"},{"length":94,"position":51264,"velocity":0.8661417322834646,"pitch":67,"id":"0cff173a-1687-4d41-93bb-3191a2b9e12c"},{"length":94,"position":51360,"velocity":0.8661417322834646,"pitch":72,"id":"607d8533-7d93-404c-a09d-e53d4e7d8133"},{"length":160,"position":51456,"velocity":0.8661417322834646,"pitch":71,"id":"34bae6fd-2af1-4ee5-8495-8aa90b549444"},{"length":160,"position":51456,"velocity":0.8661417322834646,"pitch":74,"id":"aa624477-d139-4d96-b765-95717db4022c"},{"length":160,"position":51456,"velocity":0.8661417322834646,"pitch":77,"id":"47ea029e-695a-4ce5-aa16-1d35aecdf3a2"},{"length":94,"position":51744,"velocity":0.8661417322834646,"pitch":71,"id":"55fea43c-9d94-40e2-a28a-0a2f80240604"},{"length":94,"position":51744,"velocity":0.8661417322834646,"pitch":76,"id":"43e931f8-0cde-4af5-982c-b6e5311900fa"},{"length":94,"position":51744,"velocity":0.8661417322834646,"pitch":79,"id":"e79be46c-08aa-40a9-81be-0cf92c26d177"},{"length":94,"position":51936,"velocity":0.8661417322834646,"pitch":71,"id":"f42c0a56-b941-4dea-83da-4a9b9e46f704"},{"length":94,"position":51936,"velocity":0.8661417322834646,"pitch":74,"id":"5c9089b5-a41d-44f1-a01e-80dd747f9e2a"},{"length":94,"position":51936,"velocity":0.8661417322834646,"pitch":77,"id":"c3929467-e1aa-4d1c-9feb-3d75132f545f"},{"length":94,"position":52128,"velocity":0.8661417322834646,"pitch":70,"id":"66c266db-be7b-4f94-bf7a-aac54c94e35c"},{"length":94,"position":52128,"velocity":0.8661417322834646,"pitch":73,"id":"f9b9f2b1-3768-452f-80c1-0b58da3c50f9"},{"length":94,"position":52128,"velocity":0.8661417322834646,"pitch":76,"id":"6270d60a-3775-476b-8f54-3d27be35c8dd"},{"length":94,"position":52224,"velocity":0.8661417322834646,"pitch":71,"id":"e3a461ba-c8be-4307-bc1e-852536eee9fe"},{"length":94,"position":52224,"velocity":0.8661417322834646,"pitch":74,"id":"16d66b79-0bba-46cf-b4bc-c3bd1ed3f5e7"},{"length":94,"position":52224,"velocity":0.8661417322834646,"pitch":77,"id":"f971da15-afac-4f0b-87d1-1d18e1f8b0a7"},{"length":94,"position":52320,"velocity":0.8661417322834646,"pitch":74,"id":"2cd569db-0588-4c99-b484-05a7258a4d29"},{"length":94,"position":52320,"velocity":0.8661417322834646,"pitch":79,"id":"d48b7214-e19a-4e92-902a-167b1a716a88"},{"length":94,"position":52320,"velocity":0.8661417322834646,"pitch":83,"id":"c0485efe-3a5a-439f-9a88-45cc5c113efb"},{"length":160,"position":52416,"velocity":0.8661417322834646,"pitch":79,"id":"7c3b2e56-4ae8-4159-8066-b0b1aed6abea"},{"length":160,"position":52416,"velocity":0.8661417322834646,"pitch":83,"id":"c19f2d9b-e54b-4cd7-96f6-548d16c30320"},{"length":160,"position":52416,"velocity":0.8661417322834646,"pitch":86,"id":"fa981fb3-de3a-4703-a89e-7681b78b1d74"},{"length":94,"position":52800,"velocity":0.8661417322834646,"pitch":67,"id":"01e1ac06-11d7-4e6b-83e8-fef5975dbd52"},{"length":94,"position":52896,"velocity":0.8661417322834646,"pitch":71,"id":"98dbb6d1-674a-4714-83d5-9b35879f03a8"},{"length":160,"position":52992,"velocity":0.8661417322834646,"pitch":69,"id":"4ae4f265-725e-4ed3-a7ea-b91f2621f38d"},{"length":160,"position":52992,"velocity":0.8661417322834646,"pitch":72,"id":"29dd8462-0a69-4f5d-bef9-e54c5f24a758"},{"length":160,"position":52992,"velocity":0.8661417322834646,"pitch":76,"id":"9470898b-fd3e-44a9-b92b-62092219f5c4"},{"length":94,"position":53280,"velocity":0.8661417322834646,"pitch":69,"id":"c6aeb8ee-5b2a-4607-a4d0-2296ccaf4118"},{"length":94,"position":53280,"velocity":0.8661417322834646,"pitch":74,"id":"8b617e44-0325-4d17-892d-ab6b79ba4a1d"},{"length":94,"position":53280,"velocity":0.8661417322834646,"pitch":77,"id":"f8789011-b17c-4f32-ba3c-37541e1bad35"},{"length":94,"position":53472,"velocity":0.8661417322834646,"pitch":69,"id":"500d4424-18bb-45f1-9210-d75fa18b16e3"},{"length":94,"position":53472,"velocity":0.8661417322834646,"pitch":72,"id":"e31d1855-f594-4b3f-913d-1a02ff970bd3"},{"length":94,"position":53472,"velocity":0.8661417322834646,"pitch":76,"id":"62655d16-f927-482c-a62c-4ae55c784c89"},{"length":94,"position":53664,"velocity":0.8661417322834646,"pitch":68,"id":"2a8bd2a3-7b34-42fa-98ab-ddb1d57db30c"},{"length":94,"position":53664,"velocity":0.8661417322834646,"pitch":71,"id":"b822baa9-43b5-4f4f-b658-dd1492f360c7"},{"length":94,"position":53664,"velocity":0.8661417322834646,"pitch":75,"id":"ae3f2070-8265-4165-9e68-4ab69abdffc6"},{"length":94,"position":53760,"velocity":0.8661417322834646,"pitch":69,"id":"b0fdf102-9fa4-4d4b-8c68-f65161960d30"},{"length":94,"position":53760,"velocity":0.8661417322834646,"pitch":72,"id":"b20d2549-8f1a-4529-accc-16392c922057"},{"length":94,"position":53760,"velocity":0.8661417322834646,"pitch":76,"id":"80a4525a-f18d-4f69-a7e4-746314b8c6a5"},{"length":94,"position":53856,"velocity":0.8661417322834646,"pitch":72,"id":"f4a4493b-24c5-430c-9206-e89bd9f31183"},{"length":94,"position":53856,"velocity":0.8661417322834646,"pitch":76,"id":"86a6b52c-f2fa-4e41-aa03-92c5abe8238f"},{"length":94,"position":53856,"velocity":0.8661417322834646,"pitch":81,"id":"abaab54c-35c3-4eff-b403-d2ca68312fce"},{"length":160,"position":53952,"velocity":0.8661417322834646,"pitch":76,"id":"7dfe0e96-a763-400c-8b83-9ebe36b4aea1"},{"length":160,"position":53952,"velocity":0.8661417322834646,"pitch":81,"id":"c3d25675-d9c0-40cf-9adb-56f3231bbf2a"},{"length":160,"position":53952,"velocity":0.8661417322834646,"pitch":84,"id":"4a07293a-bda7-48ac-8ee0-e0fa8c5cc984"},{"length":94,"position":54240,"velocity":0.8661417322834646,"pitch":72,"id":"ee6290da-4429-4d31-83c0-801be46433c8"},{"length":94,"position":54240,"velocity":0.8661417322834646,"pitch":76,"id":"1b04d52c-0761-4eff-ac46-f161d0c3d986"},{"length":94,"position":54240,"velocity":0.8661417322834646,"pitch":81,"id":"dd66a342-fb9d-4f11-8466-a1f2858087c2"},{"length":94,"position":54336,"velocity":0.8661417322834646,"pitch":74,"id":"95fc04e4-a378-4fb7-831f-77c541a3866c"},{"length":94,"position":54336,"velocity":0.8661417322834646,"pitch":78,"id":"d9880054-5920-4a36-9add-d24f8fde2a7d"},{"length":94,"position":54336,"velocity":0.8661417322834646,"pitch":83,"id":"f0a8213d-f0e0-4277-9db1-d2d576422d2e"},{"length":94,"position":54432,"velocity":0.8661417322834646,"pitch":69,"id":"5ae99a31-fbb1-4f92-94e2-94288c36c8a0"},{"length":94,"position":54432,"velocity":0.8661417322834646,"pitch":76,"id":"780d0e4c-07a8-429c-9822-6b62a2e2303b"},{"length":94,"position":54432,"velocity":0.8661417322834646,"pitch":81,"id":"4f6219ab-28d5-4e33-b1d2-b98c1cba561b"},{"length":94,"position":54432,"velocity":0.8661417322834646,"pitch":84,"id":"3fa159d9-3d77-44c6-a670-e7ba1d4f25bd"},{"length":94,"position":54528,"velocity":0.8661417322834646,"pitch":78,"id":"38b5c22f-9cf8-4105-ae1c-9a79a03bc16f"},{"length":94,"position":54528,"velocity":0.8661417322834646,"pitch":83,"id":"167b3a6e-0042-4e55-9092-aa86eff1df69"},{"length":94,"position":54528,"velocity":0.8661417322834646,"pitch":86,"id":"287364fd-ae4a-48f1-af5c-7fd9fc1471b4"},{"length":94,"position":54624,"velocity":0.8661417322834646,"pitch":78,"id":"e31d69ef-0a6b-4313-84e1-9a42950d26c9"},{"length":94,"position":54624,"velocity":0.8661417322834646,"pitch":81,"id":"b2b6fdb6-ac14-429d-921e-e27a1c98d9d3"},{"length":94,"position":54624,"velocity":0.8661417322834646,"pitch":84,"id":"20c1483e-a20a-4a96-89bf-53d6b301d15a"},{"length":94,"position":54720,"velocity":0.8661417322834646,"pitch":78,"id":"0399c98d-95c6-4d7a-a1c0-964fd3284782"},{"length":94,"position":54720,"velocity":0.8661417322834646,"pitch":83,"id":"8c2af3d4-fb7b-4918-afe0-d79e7186a5ac"},{"length":94,"position":54720,"velocity":0.8661417322834646,"pitch":86,"id":"867a50fa-9120-4fa5-b1ba-9d0c43bc42e8"},{"length":190,"position":54816,"velocity":0.8661417322834646,"pitch":78,"id":"0e16f80d-4390-46da-9b8a-0f5cabf843a5"},{"length":190,"position":54816,"velocity":0.8661417322834646,"pitch":81,"id":"e2c095c1-c73b-4b56-90b4-e05281f24caa"},{"length":190,"position":54816,"velocity":0.8661417322834646,"pitch":84,"id":"5ecefdb4-2196-445a-bae8-850fa45b38a6"},{"length":94,"position":55008,"velocity":0.8661417322834646,"pitch":74,"id":"f70471e6-8179-4d8e-8869-f799f97b89f8"},{"length":94,"position":55008,"velocity":0.8661417322834646,"pitch":78,"id":"a62eea4a-f7f0-4aae-ae65-015385fb32ca"},{"length":94,"position":55008,"velocity":0.8661417322834646,"pitch":81,"id":"5549c658-0b2d-444f-8809-0e1e24474617"},{"length":94,"position":55104,"velocity":0.8661417322834646,"pitch":72,"id":"79fd3310-52bc-43b9-a677-dc926decb6d3"},{"length":94,"position":55104,"velocity":0.8661417322834646,"pitch":74,"id":"1868e9cc-b39a-4b56-a205-cc51f4cea881"},{"length":94,"position":55104,"velocity":0.8661417322834646,"pitch":78,"id":"70b4e88e-e393-4abd-adad-610cc604d358"},{"length":94,"position":55200,"velocity":0.8661417322834646,"pitch":69,"id":"518d0826-ac83-480a-8277-2a2df311d985"},{"length":94,"position":55200,"velocity":0.8661417322834646,"pitch":72,"id":"cf422462-f808-4089-b219-b37db22e45fc"},{"length":94,"position":55200,"velocity":0.8661417322834646,"pitch":74,"id":"80a052a8-7446-466c-9d83-c2405db3b4fc"},{"length":94,"position":55296,"velocity":0.8661417322834646,"pitch":69,"id":"d71eb7f3-e73d-4533-9f2c-46f2f521a107"},{"length":94,"position":55296,"velocity":0.8661417322834646,"pitch":72,"id":"ec45d0df-470b-4de1-b907-1ab9c653f163"},{"length":94,"position":55392,"velocity":0.8661417322834646,"pitch":69,"id":"e1b80722-da62-468c-875d-1f04092c1ca1"},{"length":94,"position":56352,"velocity":0.8661417322834646,"pitch":57,"id":"198d4a19-b02a-4e7b-8bea-c76a2d1da587"},{"length":94,"position":56544,"velocity":0.8661417322834646,"pitch":59,"id":"a6fa8e04-95db-4519-b9f2-e28a138c3219"},{"length":94,"position":56736,"velocity":0.8661417322834646,"pitch":62,"id":"80b95119-04ba-45b0-a780-00bd30e62d2e"},{"length":160,"position":56832,"velocity":0.8661417322834646,"pitch":67,"id":"d86c8244-a169-4405-a3cf-e54fc36465da"},{"length":94,"position":57120,"velocity":0.8661417322834646,"pitch":74,"id":"dc49abb3-91f7-4c50-bc0a-60c9aca5fdc6"},{"length":94,"position":57120,"velocity":0.8661417322834646,"pitch":79,"id":"61f58e44-acb2-4fcf-8603-7c7b727dc20e"},{"length":94,"position":57888,"velocity":0.8661417322834646,"pitch":57,"id":"9b73f5b9-cf61-4a2e-9457-6202fcd46eab"},{"length":94,"position":58080,"velocity":0.8661417322834646,"pitch":59,"id":"dd5b7278-4d24-4bd7-bb54-e5cdc814705c"},{"length":94,"position":58272,"velocity":0.8661417322834646,"pitch":62,"id":"3aa796f4-bcf8-4dec-9294-e3994776000b"},{"length":160,"position":58368,"velocity":0.8661417322834646,"pitch":67,"id":"0f32c13c-b02e-4c01-8c8e-c5c9f1241e2f"},{"length":94,"position":58656,"velocity":0.8661417322834646,"pitch":74,"id":"b127411b-efe2-4492-8733-96c7c2cb02da"},{"length":94,"position":58656,"velocity":0.8661417322834646,"pitch":79,"id":"4d054593-fd3d-48af-b50d-8f0621046cbe"},{"length":94,"position":59424,"velocity":0.8661417322834646,"pitch":57,"id":"20f95b59-5426-48f6-b49c-de4139a84732"},{"length":94,"position":59616,"velocity":0.8661417322834646,"pitch":59,"id":"3b8ebbc0-f651-43f9-92b1-0ae950d1499b"},{"length":94,"position":59808,"velocity":0.8661417322834646,"pitch":62,"id":"36d04a4c-fbcd-41b9-b934-667fbb16b39a"},{"length":160,"position":59904,"velocity":0.8661417322834646,"pitch":67,"id":"7b1d422f-7958-4896-b06d-3220907207f1"},{"length":94,"position":60192,"velocity":0.8661417322834646,"pitch":74,"id":"bc53d748-11ec-438c-a057-fea700301960"},{"length":94,"position":60192,"velocity":0.8661417322834646,"pitch":79,"id":"48888842-09e7-4b5e-85a4-6b37171b82c5"},{"length":94,"position":60960,"velocity":0.8661417322834646,"pitch":57,"id":"1dc08128-2a8a-4e4b-b5a5-c48847aa2fda"},{"length":94,"position":61152,"velocity":0.8661417322834646,"pitch":59,"id":"681e6a2c-cdfd-4a5a-9132-ce91e88d09a2"},{"length":94,"position":61344,"velocity":0.8661417322834646,"pitch":62,"id":"0cbecf44-13ce-456d-baeb-92adcee55ff4"},{"length":160,"position":61440,"velocity":0.8661417322834646,"pitch":67,"id":"b449f3b0-7b53-429d-8565-31f2e144801b"},{"length":94,"position":61728,"velocity":0.8661417322834646,"pitch":74,"id":"891685fc-56e0-4248-8388-ad378e52b9b6"},{"length":94,"position":61728,"velocity":0.8661417322834646,"pitch":79,"id":"2fb21cf3-ae76-4c84-894c-aab2ea164a0f"},{"length":94,"position":62496,"velocity":0.8661417322834646,"pitch":57,"id":"29b0cc45-cb85-414f-9205-835ff331736a"},{"length":94,"position":62688,"velocity":0.8661417322834646,"pitch":58,"id":"e824c6a6-d4b6-4b4e-a8c4-ca68bcda2e9c"},{"length":94,"position":62880,"velocity":0.8661417322834646,"pitch":62,"id":"a58ff8c0-d3af-457e-90db-a35572d48b74"},{"length":160,"position":62976,"velocity":0.8661417322834646,"pitch":67,"id":"620bd6b2-6361-482c-b75a-88802b0ce707"},{"length":94,"position":63264,"velocity":0.8661417322834646,"pitch":74,"id":"d3329e37-675f-4611-a927-5b7749d5af26"},{"length":94,"position":63264,"velocity":0.8661417322834646,"pitch":79,"id":"9acce370-43e9-4076-acb2-b412f8887edd"},{"length":94,"position":64032,"velocity":0.8661417322834646,"pitch":57,"id":"b4c4ef5d-323f-4ecc-9f14-859357286897"},{"length":94,"position":64224,"velocity":0.8661417322834646,"pitch":58,"id":"af9a6f84-8f85-4e4e-9eaf-0d77cae79f53"},{"length":94,"position":64416,"velocity":0.8661417322834646,"pitch":62,"id":"67497123-0454-4a10-bdd8-dce5f20f184a"},{"length":160,"position":64512,"velocity":0.8661417322834646,"pitch":67,"id":"ec153e6d-c0a4-415c-b302-c82bdb1369a2"},{"length":94,"position":64800,"velocity":0.8661417322834646,"pitch":74,"id":"e40a1832-eea5-45f8-818e-5875681ca3c6"},{"length":94,"position":64800,"velocity":0.8661417322834646,"pitch":79,"id":"53545e4d-a804-407f-8f96-a6e4e84f4e80"},{"length":94,"position":65376,"velocity":0.8661417322834646,"pitch":62,"id":"58cb1526-58db-488c-b866-6921960bb020"},{"length":94,"position":65472,"velocity":0.8661417322834646,"pitch":67,"id":"9820ecfe-e3ca-4173-9449-db3a66e4b8ec"},{"length":94,"position":65568,"velocity":0.8661417322834646,"pitch":69,"id":"4299ad78-ca57-4f33-88b3-57eb734213e7"},{"length":94,"position":65664,"velocity":0.8661417322834646,"pitch":71,"id":"600b637f-50dc-4c42-a16e-97cc0eee378a"},{"length":94,"position":65760,"velocity":0.8661417322834646,"pitch":72,"id":"ed529189-e6aa-49d1-b0d0-f210b8f99781"},{"length":94,"position":65856,"velocity":0.8661417322834646,"pitch":71,"id":"e4387a8c-195b-41d4-887c-65d6def08fd8"},{"length":94,"position":65952,"velocity":0.8661417322834646,"pitch":69,"id":"b597d768-f057-4981-98f0-bfde65f986e0"},{"length":160,"position":66048,"velocity":0.8661417322834646,"pitch":67,"id":"ef02a22b-92e7-4789-bdb3-503687d5d971"},{"length":160,"position":66240,"velocity":0.8661417322834646,"pitch":62,"id":"5f699e6f-36a5-4c77-a852-19f7aca84dea"},{"length":160,"position":66432,"velocity":0.8661417322834646,"pitch":60,"id":"0d8aac04-fb31-4e0a-b22d-d0e7d7362450"},{"length":160,"position":66624,"velocity":0.8661417322834646,"pitch":67,"id":"450d12c6-29c5-45b5-bbb5-ac466c2eccb9"},{"length":160,"position":66816,"velocity":0.8661417322834646,"pitch":62,"id":"ef75c7d4-9255-41ad-8ea6-766f027ccbb7"},{"length":94,"position":67104,"velocity":0.8661417322834646,"pitch":55,"id":"c419eb43-9615-458e-a784-7ac9139479b1"},{"length":94,"position":67488,"velocity":0.8661417322834646,"pitch":55,"id":"b0d19ff8-df08-4937-a396-e0a002350393"},{"length":94,"position":68064,"velocity":0.8661417322834646,"pitch":60,"id":"ab964913-42d7-4f94-9520-70955e36587b"},{"length":94,"position":68256,"velocity":0.8661417322834646,"pitch":60,"id":"650f6f4b-ae11-4b63-934a-74d2f6a4e438"},{"length":94,"position":68352,"velocity":0.8661417322834646,"pitch":59,"id":"9f1fc516-efb5-452b-aa3e-2e0a03247dd9"},{"length":94,"position":68448,"velocity":0.8661417322834646,"pitch":62,"id":"07cd7532-f867-4480-a781-f28afcdd59e9"},{"length":160,"position":68544,"velocity":0.8661417322834646,"pitch":67,"id":"700993c7-5696-43d6-9f70-80b82856c26a"},{"length":94,"position":68832,"velocity":0.8661417322834646,"pitch":57,"id":"8e6b4ff4-4e97-429d-87fc-1ae1b37ecd77"},{"length":94,"position":69024,"velocity":0.8661417322834646,"pitch":59,"id":"5d426c6e-be3e-472c-b035-26ccaea6dffa"},{"length":94,"position":69408,"velocity":0.8661417322834646,"pitch":62,"id":"3a89d1fe-0f0d-4766-a5e3-88d93f62ce52"},{"length":94,"position":69600,"velocity":0.8661417322834646,"pitch":67,"id":"e85da9e8-caa8-4773-9bc0-989baeb6ef4b"},{"length":94,"position":69984,"velocity":0.8661417322834646,"pitch":62,"id":"4a0afd4f-e985-415b-835d-6443cba8920f"},{"length":94,"position":70080,"velocity":0.8661417322834646,"pitch":67,"id":"73b93886-8139-4b8a-8c06-d6193400d3f6"},{"length":94,"position":70176,"velocity":0.8661417322834646,"pitch":69,"id":"a81a6a31-3b74-4c61-8070-2d81f98ca4c6"},{"length":94,"position":70272,"velocity":0.8661417322834646,"pitch":71,"id":"43380f72-3a64-43ac-aa60-ad41af4e65e5"},{"length":94,"position":70368,"velocity":0.8661417322834646,"pitch":72,"id":"d3ee564f-36f9-4dbe-bc77-204fd7cb6a70"},{"length":94,"position":70464,"velocity":0.8661417322834646,"pitch":71,"id":"b083fe62-d987-4c45-b885-72093c13f5f5"},{"length":94,"position":70560,"velocity":0.8661417322834646,"pitch":69,"id":"bd577b60-d51b-4bd8-ade3-fac3e997991f"},{"length":160,"position":70656,"velocity":0.8661417322834646,"pitch":67,"id":"5bb80b89-8eed-4ab8-91e0-4bd1fa0e005f"},{"length":160,"position":70848,"velocity":0.8661417322834646,"pitch":62,"id":"499b94ea-91fe-43c8-b54d-c63b3166f474"},{"length":160,"position":71040,"velocity":0.8661417322834646,"pitch":60,"id":"81869a79-96ec-4341-905c-df0966e3b9d7"},{"length":160,"position":71232,"velocity":0.8661417322834646,"pitch":67,"id":"47ec189b-7ba1-4917-ae9c-9d6cd12b81d3"},{"length":160,"position":71424,"velocity":0.8661417322834646,"pitch":62,"id":"ecac3b99-fba7-499f-9d51-fb002c0f38ba"},{"length":94,"position":71712,"velocity":0.8661417322834646,"pitch":55,"id":"28d0d2ff-6092-4e3d-943a-f05066f907a6"},{"length":94,"position":71904,"velocity":0.8661417322834646,"pitch":55,"id":"71db16e0-4955-40be-9a0a-5b2da60f4b9c"},{"length":94,"position":72096,"velocity":0.8661417322834646,"pitch":55,"id":"ea66c30e-6d34-4e87-a3cb-c7ea342b59e8"},{"length":94,"position":72480,"velocity":0.8661417322834646,"pitch":60,"id":"01f32dfe-9cab-4f0a-9125-0e4876789d87"},{"length":94,"position":72672,"velocity":0.8661417322834646,"pitch":60,"id":"9d7df30d-3356-4f1e-886f-b4661d81be26"},{"length":94,"position":72864,"velocity":0.8661417322834646,"pitch":60,"id":"06dfd950-8bc9-47d5-af8c-4cab2ca56968"},{"length":94,"position":72960,"velocity":0.8661417322834646,"pitch":59,"id":"124474a4-a423-4d09-9123-0be16c74d1dd"},{"length":94,"position":73056,"velocity":0.8661417322834646,"pitch":62,"id":"9c6e3f5b-3ab5-4f9c-a361-58d057092b24"},{"length":160,"position":73152,"velocity":0.8661417322834646,"pitch":67,"id":"548cd6de-9bb3-47dc-bc49-b439592517a5"},{"length":94,"position":73440,"velocity":0.8661417322834646,"pitch":57,"id":"7a2cd084-0197-4b24-8d92-f587539ea267"},{"length":94,"position":73632,"velocity":0.8661417322834646,"pitch":59,"id":"369a3560-fe0c-407d-ace3-a645f9c10503"},{"length":94,"position":74016,"velocity":0.8661417322834646,"pitch":59,"id":"229362c2-592b-4276-ab7b-33b8f7d6b1d8"},{"length":94,"position":74784,"velocity":0.8661417322834646,"pitch":67,"id":"a3ffe8c3-0cfc-4800-a084-38aa9844d8c6"},{"length":94,"position":74880,"velocity":0.8661417322834646,"pitch":76,"id":"9ae424a0-ad30-4284-b673-0ffe9a84f574"},{"length":94,"position":74976,"velocity":0.8661417322834646,"pitch":74,"id":"94a9c899-af00-4668-8282-bae10055637c"},{"length":94,"position":75072,"velocity":0.8661417322834646,"pitch":72,"id":"8e4cbef2-f929-4db7-9352-7a59833f0487"},{"length":94,"position":75168,"velocity":0.8661417322834646,"pitch":76,"id":"c4520f61-4859-4db8-94bd-066de7acc8f0"},{"length":160,"position":75264,"velocity":0.8661417322834646,"pitch":74,"id":"518fd3d4-54db-45c1-aa3b-fd53f9070729"},{"length":94,"position":75552,"velocity":0.8661417322834646,"pitch":67,"id":"e0739b17-6b51-4c21-ad5c-8bbd87471768"},{"length":94,"position":76320,"velocity":0.8661417322834646,"pitch":64,"id":"8611a66f-9030-49bf-9e1a-50e8623aa8f5"},{"length":94,"position":76416,"velocity":0.8661417322834646,"pitch":74,"id":"5471b12d-582a-4783-8650-5e2c2477d075"},{"length":94,"position":76512,"velocity":0.8661417322834646,"pitch":72,"id":"0ead2167-8def-401e-9108-4bb1b51677d7"},{"length":94,"position":76608,"velocity":0.8661417322834646,"pitch":71,"id":"6592ed64-7f6c-423c-bdf3-4e42bd41ca8f"},{"length":94,"position":76704,"velocity":0.8661417322834646,"pitch":72,"id":"a788915b-7541-416d-887f-3b8f05cd616d"},{"length":160,"position":76800,"velocity":0.8661417322834646,"pitch":71,"id":"3714e208-5e57-474a-a5ad-fc12019c1974"},{"length":94,"position":77088,"velocity":0.8661417322834646,"pitch":67,"id":"2fe46797-305d-4f77-b8e2-5dab1b604cc7"},{"length":94,"position":77856,"velocity":0.8661417322834646,"pitch":67,"id":"64d743f9-b481-424b-97cc-36fa30e41bd0"},{"length":94,"position":77952,"velocity":0.8661417322834646,"pitch":76,"id":"9f1802cd-5e0b-4301-a52b-0844d867f214"},{"length":94,"position":78048,"velocity":0.8661417322834646,"pitch":74,"id":"9931d8a4-b4d5-4def-9c36-135f17632e05"},{"length":94,"position":78144,"velocity":0.8661417322834646,"pitch":72,"id":"9f968e21-e7d5-43a0-bf0a-5244744c77c3"},{"length":94,"position":78240,"velocity":0.8661417322834646,"pitch":76,"id":"228d487b-7c55-4673-ae37-4a220e36d9aa"},{"length":160,"position":78336,"velocity":0.8661417322834646,"pitch":74,"id":"f227151d-346c-422a-b903-d4b67fdeb0d4"},{"length":94,"position":78624,"velocity":0.8661417322834646,"pitch":67,"id":"29d3abd4-1b53-447c-b369-b04bdfc08e88"},{"length":94,"position":79488,"velocity":0.8661417322834646,"pitch":72,"id":"193cc4fc-3bb9-4333-9280-960ee2146db2"},{"length":94,"position":79584,"velocity":0.8661417322834646,"pitch":74,"id":"10ed3a66-34ef-424a-9586-08060a6e0d43"},{"length":94,"position":79680,"velocity":0.8661417322834646,"pitch":72,"id":"867f4176-7e67-4be2-8503-830279438567"},{"length":94,"position":79776,"velocity":0.8661417322834646,"pitch":71,"id":"7bdb14cb-5fda-484e-9b15-b60929b48030"},{"length":160,"position":80064,"velocity":0.8661417322834646,"pitch":67,"id":"85ca8de3-3365-4e34-9356-98935caeaff9"},{"length":160,"position":80256,"velocity":0.8661417322834646,"pitch":64,"id":"f8e195fb-e662-416e-8b3a-5796b71152af"},{"length":94,"position":80736,"velocity":0.8661417322834646,"pitch":62,"id":"0a1e577b-9d7c-474f-bd02-340964ff5fad"},{"length":94,"position":80832,"velocity":0.8661417322834646,"pitch":67,"id":"a6fd1278-1d32-4fe4-b3c6-fa4185c8f0fe"},{"length":94,"position":80928,"velocity":0.8661417322834646,"pitch":69,"id":"c718428a-be09-457e-8345-0148da21c853"},{"length":94,"position":81024,"velocity":0.8661417322834646,"pitch":71,"id":"3cd70b36-a599-4742-baf1-e9c66c5b77d9"},{"length":94,"position":81120,"velocity":0.8661417322834646,"pitch":72,"id":"7bec5492-84ef-450d-a236-097e4862de29"},{"length":94,"position":81216,"velocity":0.8661417322834646,"pitch":71,"id":"41857868-6ae8-44dc-9473-541e21bf33dd"},{"length":94,"position":81312,"velocity":0.8661417322834646,"pitch":69,"id":"9db3f913-a944-4493-a564-a3f7c9dace7d"},{"length":160,"position":81408,"velocity":0.8661417322834646,"pitch":67,"id":"9b12f0bd-af2e-4507-81cb-1f63e9a62bf4"},{"length":160,"position":81600,"velocity":0.8661417322834646,"pitch":62,"id":"e7b9719d-c5b2-4137-803e-8ad7462a62ba"},{"length":160,"position":81792,"velocity":0.8661417322834646,"pitch":60,"id":"aa43f219-1713-40d4-82d7-750415f7c31f"},{"length":160,"position":81984,"velocity":0.8661417322834646,"pitch":67,"id":"7707645d-c5b4-4617-af67-9723cc7d867b"},{"length":160,"position":82176,"velocity":0.8661417322834646,"pitch":62,"id":"46824519-7a76-42e0-951a-049a7ec92ee4"},{"length":94,"position":82464,"velocity":0.8661417322834646,"pitch":55,"id":"cdd9ecf2-5069-46be-a644-c1a27cba4f58"},{"length":94,"position":82848,"velocity":0.8661417322834646,"pitch":55,"id":"d2614d0e-40ba-44d9-8b42-c557f4a31f82"},{"length":94,"position":83616,"velocity":0.8661417322834646,"pitch":60,"id":"d3099ca4-96d7-4cd7-a7a0-683999ef0a20"},{"length":94,"position":83712,"velocity":0.8661417322834646,"pitch":59,"id":"3bd8fb4c-dac8-47b3-9f94-b55bc1a40ace"},{"length":94,"position":83808,"velocity":0.8661417322834646,"pitch":62,"id":"2ebd0682-2304-4f71-a99c-2d9050bcb953"},{"length":160,"position":83904,"velocity":0.8661417322834646,"pitch":67,"id":"1d1c156f-57f2-4723-add1-66bacef419bc"},{"length":94,"position":84192,"velocity":0.8661417322834646,"pitch":57,"id":"e6f99613-4c46-4f90-b663-7f0d4e6da47e"},{"length":94,"position":84384,"velocity":0.8661417322834646,"pitch":59,"id":"900687f4-a223-4990-9f2e-963302697a04"},{"length":94,"position":84768,"velocity":0.8661417322834646,"pitch":62,"id":"d2597817-d2c4-466a-8582-b258e4ce057b"},{"length":94,"position":85344,"velocity":0.8661417322834646,"pitch":62,"id":"ce10acfa-807a-460a-bbb2-b69cbe1839f3"},{"length":94,"position":85440,"velocity":0.8661417322834646,"pitch":67,"id":"abc73641-db13-48da-92f7-43bb1433401c"},{"length":94,"position":85536,"velocity":0.8661417322834646,"pitch":69,"id":"3a80f69f-6dff-4ef3-8fb5-d593e15c970c"},{"length":94,"position":85632,"velocity":0.8661417322834646,"pitch":71,"id":"6d2109d9-1474-4a13-8299-c236436aa8cf"},{"length":94,"position":85728,"velocity":0.8661417322834646,"pitch":72,"id":"702c083d-2b81-4111-ae2c-96bc0e202070"},{"length":94,"position":85824,"velocity":0.8661417322834646,"pitch":71,"id":"f17a405c-f725-47ce-b52a-a9ac981ef497"},{"length":94,"position":85920,"velocity":0.8661417322834646,"pitch":69,"id":"51bf4bd7-d870-4437-ae28-1368984ca56c"},{"length":160,"position":86016,"velocity":0.8661417322834646,"pitch":67,"id":"5e8f4a09-c79e-40fe-aa4a-6d8cb3ee83c0"},{"length":160,"position":86208,"velocity":0.8661417322834646,"pitch":62,"id":"159c4dc5-8f2a-403d-9150-eac93c7431e7"},{"length":160,"position":86400,"velocity":0.8661417322834646,"pitch":60,"id":"51098f28-2660-46bd-93c1-37fed2c98ba3"},{"length":160,"position":86592,"velocity":0.8661417322834646,"pitch":67,"id":"ff1f74b2-644e-4a79-83cd-711f759820f0"},{"length":160,"position":86784,"velocity":0.8661417322834646,"pitch":62,"id":"5f1ccc41-e863-4af4-8c52-ad838e20936b"},{"length":94,"position":87072,"velocity":0.8661417322834646,"pitch":55,"id":"09e1098a-06b1-4fcb-9036-08992ee12efb"},{"length":94,"position":87264,"velocity":0.8661417322834646,"pitch":60,"id":"d660d3d9-923a-4095-9290-2f72ae3be229"},{"length":94,"position":87456,"velocity":0.8661417322834646,"pitch":55,"id":"44e3f1b1-6ebf-478e-b385-01f9f73eba3b"},{"length":94,"position":88032,"velocity":0.8661417322834646,"pitch":60,"id":"a813ac71-51e1-4136-acd5-3a0acbd27115"},{"length":94,"position":88224,"velocity":0.8661417322834646,"pitch":60,"id":"78884d3c-7778-4785-9cd1-25acfc709a4c"},{"length":94,"position":88320,"velocity":0.8661417322834646,"pitch":59,"id":"76b3630c-6fef-458f-a9f6-4673e5d351be"},{"length":94,"position":88416,"velocity":0.8661417322834646,"pitch":62,"id":"7540fc85-1b86-4232-bb31-b5f97314c1a8"},{"length":160,"position":88512,"velocity":0.8661417322834646,"pitch":67,"id":"ee984d9e-8498-4584-bcf0-e5f65c02ab6e"},{"length":94,"position":88800,"velocity":0.8661417322834646,"pitch":57,"id":"5c258bba-a5ad-4244-abea-d5375c0d0e6b"},{"length":94,"position":88992,"velocity":0.8661417322834646,"pitch":59,"id":"27e4573d-f242-4151-9f29-52354b0cfbd9"},{"length":94,"position":89568,"velocity":0.8661417322834646,"pitch":59,"id":"1c1ab6f4-b00e-49ce-85cc-9e8580808d01"},{"length":94,"position":89568,"velocity":0.8661417322834646,"pitch":67,"id":"b4a64c28-0586-4d35-89c5-f24c899cdb90"},{"length":94,"position":90144,"velocity":0.8661417322834646,"pitch":57,"id":"08867a44-ca6e-44aa-a9ff-f5d6e306002a"},{"length":94,"position":90144,"velocity":0.8661417322834646,"pitch":65,"id":"f5e2c12a-fb5f-4f5d-9f6b-a81713d84bc6"},{"length":94,"position":90336,"velocity":0.8661417322834646,"pitch":57,"id":"0f873df2-30dd-4ac8-86c6-8226fe961b70"},{"length":94,"position":90336,"velocity":0.8661417322834646,"pitch":65,"id":"c027fc18-1a0e-4f77-a48f-17479b69ff4b"},{"length":94,"position":90432,"velocity":0.8661417322834646,"pitch":57,"id":"8d992503-423f-4eff-829d-c5a86717e814"},{"length":94,"position":90432,"velocity":0.8661417322834646,"pitch":65,"id":"fafaa498-6e85-49c1-8081-65064a6d9e9f"},{"length":94,"position":90528,"velocity":0.8661417322834646,"pitch":57,"id":"41173ae6-0ef6-484b-8584-682a10e7209b"},{"length":94,"position":90528,"velocity":0.8661417322834646,"pitch":65,"id":"d9fcbcea-4c7c-43e6-aab4-0a6ac735914d"},{"length":94,"position":90720,"velocity":0.8661417322834646,"pitch":57,"id":"5906d4e2-91da-4692-8463-fe186eece7a8"},{"length":94,"position":90720,"velocity":0.8661417322834646,"pitch":65,"id":"6398b7d2-16c3-40cf-8b59-521e25688a1b"},{"length":94,"position":90816,"velocity":0.8661417322834646,"pitch":57,"id":"a40483cc-abb1-4411-ae72-2ed9f5239c99"},{"length":94,"position":90816,"velocity":0.8661417322834646,"pitch":65,"id":"7c71b5b8-0268-4ead-b0d1-91ce32ad43fd"},{"length":94,"position":90912,"velocity":0.8661417322834646,"pitch":57,"id":"5382f211-c5c0-4c77-8309-8ad8261bdc17"},{"length":94,"position":90912,"velocity":0.8661417322834646,"pitch":65,"id":"bd944636-fa87-499c-833d-dde2ee412589"},{"length":94,"position":91104,"velocity":0.8661417322834646,"pitch":57,"id":"9d305ea9-579a-48b6-9ae7-8e7a60eedaaa"},{"length":94,"position":91104,"velocity":0.8661417322834646,"pitch":65,"id":"f8ea11eb-abb4-4899-b63f-131a2bc982b5"},{"length":94,"position":91200,"velocity":0.8661417322834646,"pitch":57,"id":"0a1bd239-5fa1-45f5-b588-abcdf121ff42"},{"length":94,"position":91200,"velocity":0.8661417322834646,"pitch":65,"id":"91460600-9ec0-4e83-8ac5-d0ad41d88cae"},{"length":94,"position":91296,"velocity":0.8661417322834646,"pitch":57,"id":"4b63cbf7-85ca-4070-a74d-7e0cf1ee6226"},{"length":94,"position":91296,"velocity":0.8661417322834646,"pitch":65,"id":"88fc113b-bccc-4118-8b9a-3855684d571c"},{"length":94,"position":91680,"velocity":0.8661417322834646,"pitch":58,"id":"c19efd3e-1d7b-4719-97bf-a4a17aa8ee27"},{"length":94,"position":91680,"velocity":0.8661417322834646,"pitch":67,"id":"4200eed7-8e7c-48ef-930c-04e2dfcd478c"},{"length":94,"position":91872,"velocity":0.8661417322834646,"pitch":58,"id":"bad42f34-2df3-4210-bdde-1c054bfbd8ac"},{"length":94,"position":91872,"velocity":0.8661417322834646,"pitch":67,"id":"05e0276d-727c-44c0-a659-94e4b02ff5ae"},{"length":94,"position":92064,"velocity":0.8661417322834646,"pitch":58,"id":"f9a701ea-269f-40f4-b6b5-04dfff23dad0"},{"length":94,"position":92064,"velocity":0.8661417322834646,"pitch":67,"id":"dd11ffd0-c03e-4186-921d-103d68df2cf3"},{"length":94,"position":92256,"velocity":0.8661417322834646,"pitch":58,"id":"d1938522-5bf5-457f-9a0b-81548744b71f"},{"length":94,"position":92256,"velocity":0.8661417322834646,"pitch":67,"id":"e74b0590-c261-44f4-aac2-3f2c16638a37"},{"length":94,"position":92352,"velocity":0.8661417322834646,"pitch":58,"id":"454bbe98-ba73-4a16-b4dd-a3fcd6633a66"},{"length":94,"position":92448,"velocity":0.8661417322834646,"pitch":58,"id":"037782c4-eb67-4cca-8826-801474edf0ec"},{"length":94,"position":92448,"velocity":0.8661417322834646,"pitch":67,"id":"5fd5ee08-8520-4944-b87c-1e2ced926552"},{"length":94,"position":92544,"velocity":0.8661417322834646,"pitch":58,"id":"07ad4838-78e9-4958-b233-4c402070ddab"},{"length":94,"position":92544,"velocity":0.8661417322834646,"pitch":67,"id":"0ecef3bf-1a0c-4e7e-934a-32a73ea0621c"},{"length":94,"position":92640,"velocity":0.8661417322834646,"pitch":58,"id":"815725f6-7e9e-4b91-b692-9d119db2886e"},{"length":94,"position":92640,"velocity":0.8661417322834646,"pitch":67,"id":"1de10fe2-e217-418e-8fcb-d8c92570f7f9"},{"length":94,"position":92736,"velocity":0.8661417322834646,"pitch":58,"id":"a12cbb1c-c56d-4b45-88c1-f0b37fa3c65a"},{"length":94,"position":92736,"velocity":0.8661417322834646,"pitch":67,"id":"5825f2bc-577a-43cf-8509-cf65d5e0f70e"},{"length":94,"position":92832,"velocity":0.8661417322834646,"pitch":58,"id":"9ce826f3-1a69-4109-a2fd-c22f30bf4108"},{"length":94,"position":92832,"velocity":0.8661417322834646,"pitch":67,"id":"322af427-fa26-491e-a42d-cb2b0b1fac3b"},{"length":94,"position":93216,"velocity":0.8661417322834646,"pitch":60,"id":"c10e8cc1-20cb-4385-b764-e5859dff2e49"},{"length":94,"position":93216,"velocity":0.8661417322834646,"pitch":67,"id":"33eeca36-e2dd-4e2b-a7b9-499990157893"},{"length":94,"position":93408,"velocity":0.8661417322834646,"pitch":60,"id":"f175d7e3-43fe-4919-9749-081663dabc53"},{"length":94,"position":93408,"velocity":0.8661417322834646,"pitch":67,"id":"68d6c89c-ff19-42fa-aef4-c2b2d0c05f99"},{"length":94,"position":93600,"velocity":0.8661417322834646,"pitch":60,"id":"c301693b-b3a3-46ab-ab92-2842ba30a6fd"},{"length":94,"position":93600,"velocity":0.8661417322834646,"pitch":67,"id":"e05acf03-713b-4e03-910f-e28eb0dbb0cc"},{"length":94,"position":93792,"velocity":0.8661417322834646,"pitch":60,"id":"55277d42-cafb-41a1-8bba-3f5a947c1bd1"},{"length":94,"position":93792,"velocity":0.8661417322834646,"pitch":69,"id":"08a2ea6a-e43e-44e3-8d92-3b82f38ee51f"},{"length":94,"position":93984,"velocity":0.8661417322834646,"pitch":60,"id":"8e491f18-884b-46e3-a8ca-3419411582b9"},{"length":94,"position":93984,"velocity":0.8661417322834646,"pitch":69,"id":"0a5d8ac8-0681-4a8a-b3e2-94a8f8eea48b"},{"length":94,"position":94176,"velocity":0.8661417322834646,"pitch":60,"id":"dc1ac5b3-3f1e-4842-97b8-b8a1b89005ba"},{"length":94,"position":94176,"velocity":0.8661417322834646,"pitch":69,"id":"6f2180f1-3062-48b3-bae1-e6d1db1f59c5"},{"length":160,"position":95040,"velocity":0.8661417322834646,"pitch":57,"id":"cdf35978-a11d-4be3-a2fc-fa8a1826d4ae"},{"length":160,"position":95040,"velocity":0.8661417322834646,"pitch":62,"id":"e55c670c-8ded-4290-90d9-2db2718cb06e"},{"length":70,"position":95232,"velocity":0.8661417322834646,"pitch":74,"id":"6f11ea7c-8231-49c4-b721-ff214d14b99c"},{"length":70,"position":95304,"velocity":0.8661417322834646,"pitch":72,"id":"75553421-31e7-4646-b074-80cb847280e5"},{"length":46,"position":95376,"velocity":0.8661417322834646,"pitch":67,"id":"ce453457-3e61-4ce7-bf12-d7800eed8512"},{"length":70,"position":95424,"velocity":0.8661417322834646,"pitch":62,"id":"b9fc0686-64d7-47be-9dac-494c5810b060"},{"length":70,"position":95496,"velocity":0.8661417322834646,"pitch":60,"id":"75d0e682-d16c-42ee-9240-65c01001265e"},{"length":46,"position":95568,"velocity":0.8661417322834646,"pitch":55,"id":"6316442c-21c5-4dfd-8256-9032f4bb3800"},{"length":160,"position":95616,"velocity":0.8661417322834646,"pitch":50,"id":"80494cc3-54e6-4166-b5db-3d2e16756551"},{"length":720,"position":96768,"velocity":0.8661417322834646,"pitch":57,"id":"2af53f94-1331-4670-9e32-3ca72b21f3f7"},{"length":720,"position":96768,"velocity":0.8661417322834646,"pitch":62,"id":"203ee40e-f78f-4e48-8575-a7405dcf0623"},{"length":720,"position":97536,"velocity":0.8661417322834646,"pitch":59,"id":"b2a70193-b69e-433a-b049-d8b0eb6873e1"},{"length":720,"position":97536,"velocity":0.8661417322834646,"pitch":64,"id":"00420c93-a8b1-40ac-9804-5f634edd2903"},{"length":720,"position":98304,"velocity":0.8661417322834646,"pitch":60,"id":"0b0f9db0-e48b-4995-8efe-5e438b758bd7"},{"length":720,"position":98304,"velocity":0.8661417322834646,"pitch":65,"id":"b62abd58-3445-4162-af71-d0c09bd78a46"},{"length":720,"position":99072,"velocity":0.8661417322834646,"pitch":62,"id":"08ac15b7-e130-430e-8db1-64b46057676d"},{"length":720,"position":99072,"velocity":0.8661417322834646,"pitch":67,"id":"fcf50b9a-15c1-4e06-a06c-eb6953746183"},{"length":720,"position":99840,"velocity":0.8661417322834646,"pitch":57,"id":"d918f9dc-b981-4924-8654-78f13b96ffd3"},{"length":720,"position":99840,"velocity":0.8661417322834646,"pitch":62,"id":"8a3d8577-7c7a-481a-bfe5-7efbd248636c"},{"length":720,"position":100608,"velocity":0.8661417322834646,"pitch":59,"id":"919d1fd8-b030-49e7-bc49-d35f8fa4e1cd"},{"length":720,"position":100608,"velocity":0.8661417322834646,"pitch":64,"id":"99f22f1e-5457-406d-ba0a-e90ded2c40ec"},{"length":720,"position":101376,"velocity":0.8661417322834646,"pitch":60,"id":"b43971d0-f758-42f2-a089-894ea960cdf9"},{"length":720,"position":101376,"velocity":0.8661417322834646,"pitch":65,"id":"52674670-1ab5-437e-97a5-b54b93c8b3ea"},{"length":336,"position":102144,"velocity":0.8661417322834646,"pitch":62,"id":"da59d2a7-d01b-4a4f-aa7f-9e6e39114675"},{"length":336,"position":102144,"velocity":0.8661417322834646,"pitch":67,"id":"551adb0b-1d7f-44d0-b5e6-c0f8468124ea"},{"length":478,"position":102912,"velocity":0.8661417322834646,"pitch":62,"id":"0edf489b-2ec8-4880-ab0e-d2abd2a6397b"},{"length":94,"position":103392,"velocity":0.8661417322834646,"pitch":57,"id":"2d2c111a-38b5-4d93-9dcb-01d7adf12b6a"},{"length":94,"position":103488,"velocity":0.8661417322834646,"pitch":62,"id":"c6e995a8-df34-4885-ad0b-ad01739e3c96"},{"length":94,"position":103584,"velocity":0.8661417322834646,"pitch":72,"id":"12fe7a2d-4692-4bf4-9032-e023b43174de"},{"length":94,"position":103680,"velocity":0.8661417322834646,"pitch":71,"id":"2b25c9d9-40e2-47de-b05c-6f4baf612352"},{"length":94,"position":103776,"velocity":0.8661417322834646,"pitch":67,"id":"5c47a572-7a3f-48c0-8ff0-b11bbec0f04b"},{"length":528,"position":103872,"velocity":0.8661417322834646,"pitch":62,"id":"0d94c982-5ea1-4bde-8ca6-a21b0b820f5a"},{"length":256,"position":104448,"velocity":0.8661417322834646,"pitch":62,"id":"503aa03f-6f58-48d9-8a4c-862051f62700"},{"length":190,"position":104736,"velocity":0.8661417322834646,"pitch":60,"id":"0a1512d1-10c4-499d-84a2-484f1f199e07"},{"length":94,"position":104928,"velocity":0.8661417322834646,"pitch":62,"id":"a85a9e0e-9628-4a32-9587-8022baf91415"},{"length":94,"position":105024,"velocity":0.8661417322834646,"pitch":67,"id":"b98973d4-3da8-4857-98be-c3249d952fe5"},{"length":94,"position":105120,"velocity":0.8661417322834646,"pitch":65,"id":"e3ca4b50-77ca-495a-98a4-88f143b63b95"},{"length":720,"position":105216,"velocity":0.8661417322834646,"pitch":67,"id":"4aeee227-cf9f-4890-b62a-a185ee91cd7c"},{"length":478,"position":105984,"velocity":0.8661417322834646,"pitch":62,"id":"18f86c6b-ab62-4eca-8c88-191643a9fbb9"},{"length":94,"position":106464,"velocity":0.8661417322834646,"pitch":57,"id":"07288745-34a9-4874-b9ef-3272ae5b936a"},{"length":94,"position":106560,"velocity":0.8661417322834646,"pitch":62,"id":"373e58ca-6846-4aab-9c4a-52555d7767ae"},{"length":94,"position":106656,"velocity":0.8661417322834646,"pitch":72,"id":"5458b65e-81d9-45a5-9bd6-b80852649bdc"},{"length":94,"position":106752,"velocity":0.8661417322834646,"pitch":71,"id":"fbdcd882-c34b-4176-bb53-cdccedd764c9"},{"length":94,"position":106848,"velocity":0.8661417322834646,"pitch":67,"id":"d52872d4-a021-464d-bbd7-532d8ebba608"},{"length":256,"position":106944,"velocity":0.8661417322834646,"pitch":62,"id":"fc24aa23-b16c-413a-80b7-e8aed23f7650"},{"length":94,"position":107232,"velocity":0.8661417322834646,"pitch":57,"id":"f0aa3590-0ccb-4d7c-829e-53d785e69667"},{"length":94,"position":107328,"velocity":0.8661417322834646,"pitch":62,"id":"380bef14-1e1b-49ce-a188-6d9618453288"},{"length":94,"position":107424,"velocity":0.8661417322834646,"pitch":74,"id":"ec3f2537-63d3-494c-b6ea-81e8eb0e1831"},{"length":160,"position":107520,"velocity":0.8661417322834646,"pitch":72,"id":"7b0b00d0-1260-4504-91ce-97b9bb3d485f"},{"length":478,"position":107712,"velocity":0.8661417322834646,"pitch":71,"id":"4c1d61d1-9baf-4bd0-96c6-92b1882f3996"},{"length":94,"position":108192,"velocity":0.8661417322834646,"pitch":69,"id":"125fb0bc-2676-4e65-bf67-ea4d5e5c12bd"},{"length":720,"position":108288,"velocity":0.8661417322834646,"pitch":67,"id":"bc5be010-6440-4763-b145-f6e4b4b7d04d"},{"length":720,"position":108288,"velocity":0.8661417322834646,"pitch":71,"id":"b04e3628-914f-4141-8244-a45a6ab362bc"},{"length":478,"position":109056,"velocity":0.8661417322834646,"pitch":63,"id":"ba5db050-a046-423b-b3e2-290e21edbe86"},{"length":478,"position":109056,"velocity":0.8661417322834646,"pitch":65,"id":"749a866c-2642-40af-b30d-4a67f7634b4e"},{"length":94,"position":109536,"velocity":0.8661417322834646,"pitch":60,"id":"08982119-6115-45b0-b747-69cb609a52b1"},{"length":94,"position":109632,"velocity":0.8661417322834646,"pitch":65,"id":"8af6e591-9cbc-45ea-b49a-22e506276bf3"},{"length":94,"position":109728,"velocity":0.8661417322834646,"pitch":75,"id":"88cdeb97-8777-433f-b5a5-25af0497b03a"},{"length":94,"position":109824,"velocity":0.8661417322834646,"pitch":74,"id":"ca7d2cfa-c0c0-415a-a806-87218261e0a7"},{"length":94,"position":109920,"velocity":0.8661417322834646,"pitch":70,"id":"68d28911-b64e-47db-ae4a-b5d8bfbff76a"},{"length":526,"position":110016,"velocity":0.8661417322834646,"pitch":65,"id":"fbce71c7-616a-4589-bf38-7a8f47a8f10c"},{"length":142,"position":110544,"velocity":0.8661417322834646,"pitch":63,"id":"14c45280-53da-4fef-a657-c05a34c45d76"},{"length":574,"position":110688,"velocity":0.8661417322834646,"pitch":65,"id":"c35ab0a7-6db7-42a9-935d-d4ffa288422a"},{"length":94,"position":111264,"velocity":0.8661417322834646,"pitch":68,"id":"9ff3512b-d92c-45da-a36d-1cb12ad4214b"},{"length":720,"position":111360,"velocity":0.8661417322834646,"pitch":65,"id":"315c4947-ad1f-4fca-9627-065c43ffac05"},{"length":478,"position":112128,"velocity":0.8661417322834646,"pitch":62,"id":"cc02b1bf-a2e3-4317-b4a7-053bf600f904"},{"length":94,"position":112608,"velocity":0.8661417322834646,"pitch":57,"id":"df610b40-bc1b-4854-a1ed-47abe6fbe6a1"},{"length":94,"position":112704,"velocity":0.8661417322834646,"pitch":62,"id":"a3da7d6f-e9db-4e60-8bd1-4aca7875730c"},{"length":94,"position":112800,"velocity":0.8661417322834646,"pitch":72,"id":"13b23461-d22e-4099-bbbf-3a59c6bdff4d"},{"length":94,"position":112896,"velocity":0.8661417322834646,"pitch":71,"id":"a74601a4-c5b1-4662-ae1b-993788f7aad1"},{"length":94,"position":112992,"velocity":0.8661417322834646,"pitch":67,"id":"4d9b3940-42c9-45fa-aaa4-419916d44091"},{"length":528,"position":113088,"velocity":0.8661417322834646,"pitch":62,"id":"9852a283-e673-4ba5-b256-14e05ab46f20"},{"length":720,"position":113664,"velocity":0.8661417322834646,"pitch":63,"id":"5224b51c-12e2-46db-98f4-d655a4a0ee8c"},{"length":720,"position":113664,"velocity":0.8661417322834646,"pitch":67,"id":"eaf18512-3d0a-49f5-82ee-85911fb5fa1c"},{"length":720,"position":114432,"velocity":0.8661417322834646,"pitch":65,"id":"93de90ce-b830-439f-8777-914d833e8124"},{"length":720,"position":114432,"velocity":0.8661417322834646,"pitch":67,"id":"3877e531-82b9-4966-98e2-eae458256526"},{"length":336,"position":115200,"velocity":0.8661417322834646,"pitch":68,"id":"ebb16ad9-77d2-411b-833a-3a97b8427ccb"},{"length":336,"position":115200,"velocity":0.8661417322834646,"pitch":72,"id":"f276ffe8-bcbe-4cba-9767-fc78b23e5ace"},{"length":336,"position":115584,"velocity":0.8661417322834646,"pitch":79,"id":"df4ad286-3f3e-4fd9-b280-526cf1b04d5e"},{"length":160,"position":115968,"velocity":0.8661417322834646,"pitch":77,"id":"df6a017b-c0bb-4d9c-8fb3-2272da3da53a"},{"length":528,"position":116160,"velocity":0.8661417322834646,"pitch":71,"id":"1091b1a2-a298-40ab-9042-48dfbea39196"},{"length":528,"position":116160,"velocity":0.8661417322834646,"pitch":74,"id":"163c9c40-ae6a-4d80-bc3b-e93bd9912ee7"},{"length":336,"position":116736,"velocity":0.8661417322834646,"pitch":68,"id":"7a3d687e-9599-401f-af07-8bd86cb5f45f"},{"length":336,"position":116736,"velocity":0.8661417322834646,"pitch":72,"id":"3f966d7c-1711-4953-9f78-142f22ef441b"},{"length":336,"position":117120,"velocity":0.8661417322834646,"pitch":79,"id":"97d0b483-5cbd-4743-9c95-fb6c88f64e74"},{"length":160,"position":117504,"velocity":0.8661417322834646,"pitch":77,"id":"b933348c-0af0-413e-ae13-58c90b5bc7de"},{"length":336,"position":117696,"velocity":0.8661417322834646,"pitch":74,"id":"7599ad4c-df14-42ad-a6e8-e2f0bc2d62b3"},{"length":160,"position":118080,"velocity":0.8661417322834646,"pitch":83,"id":"809ee3c0-561c-44df-8222-96a4375fa881"},{"length":336,"position":118272,"velocity":0.8661417322834646,"pitch":72,"id":"ce0fad5d-ab25-4e83-b4bd-7c762a6b2a82"},{"length":336,"position":118656,"velocity":0.8661417322834646,"pitch":67,"id":"72f522f2-693a-4905-820a-7feb2fbfe7e9"},{"length":336,"position":118656,"velocity":0.8661417322834646,"pitch":79,"id":"fe6e393e-142e-4100-999a-eca13807846f"},{"length":336,"position":119040,"velocity":0.8661417322834646,"pitch":67,"id":"be4d9607-ff7a-4ed3-b37f-8edfe23da2ed"},{"length":336,"position":119040,"velocity":0.8661417322834646,"pitch":77,"id":"0243a49f-2257-449d-9d51-638d68c65f63"},{"length":336,"position":119424,"velocity":0.8661417322834646,"pitch":67,"id":"f435ad90-8004-466b-acca-4e6764b75af2"},{"length":336,"position":119424,"velocity":0.8661417322834646,"pitch":74,"id":"45fbc768-2316-4403-88d9-20064f02f26e"},{"length":1104,"position":119808,"velocity":0.8661417322834646,"pitch":68,"id":"adfb6e9e-439b-4d70-a2a3-0842af0d2271"},{"length":1104,"position":119808,"velocity":0.8661417322834646,"pitch":75,"id":"b2e8c609-da8a-4296-a311-1013ef757db1"},{"length":336,"position":120960,"velocity":0.8661417322834646,"pitch":72,"id":"ad0247b0-3000-4c37-8b29-0fd9765e4e6a"},{"length":1488,"position":121344,"velocity":0.8661417322834646,"pitch":74,"id":"b16df5da-1a19-424b-914b-9ec1465bd212"},{"length":720,"position":122880,"velocity":0.8661417322834646,"pitch":68,"id":"15500b43-b411-451f-b6b4-fe0483bcae3c"},{"length":720,"position":122880,"velocity":0.8661417322834646,"pitch":75,"id":"daa709d2-c4f6-4b1b-ba1f-1a49f892ab39"},{"length":336,"position":123648,"velocity":0.8661417322834646,"pitch":80,"id":"0fd34979-52f7-4768-874c-0b048a712591"},{"length":336,"position":124032,"velocity":0.8661417322834646,"pitch":75,"id":"a5df5315-6a0c-4551-9e5c-08b5fe54cfb0"},{"length":720,"position":124416,"velocity":0.8661417322834646,"pitch":67,"id":"4a926b7e-dc17-4a53-8712-aeb065bf3e13"},{"length":720,"position":124416,"velocity":0.8661417322834646,"pitch":74,"id":"594b9ccb-47a0-4ad3-bae6-63d9a9c79965"},{"length":478,"position":125184,"velocity":0.8661417322834646,"pitch":79,"id":"080a6b5e-65fa-4946-b5a7-980c119f8205"},{"length":22,"position":125664,"velocity":0.8661417322834646,"pitch":67,"id":"faed442f-e22b-4c3f-87b0-bc6b12a2be5d"},{"length":22,"position":125688,"velocity":0.8661417322834646,"pitch":65,"id":"fbfaf284-4a57-4df8-8193-ee04ed38b59b"},{"length":22,"position":125712,"velocity":0.8661417322834646,"pitch":64,"id":"d9f80aa2-ae13-4881-ad32-42da375ec50a"},{"length":22,"position":125736,"velocity":0.8661417322834646,"pitch":62,"id":"bbcba921-4191-4c39-9ef6-bfb97a23ec12"},{"length":22,"position":125760,"velocity":0.8661417322834646,"pitch":67,"id":"3f27f111-0412-47aa-8eb1-73e14079f8a8"},{"length":22,"position":125784,"velocity":0.8661417322834646,"pitch":65,"id":"fdc4eb9b-3072-4dd0-9dcd-712a0c7ea173"},{"length":22,"position":125808,"velocity":0.8661417322834646,"pitch":64,"id":"9dcbf2e5-e709-4080-8e0c-ab57e6bb39f3"},{"length":22,"position":125832,"velocity":0.8661417322834646,"pitch":62,"id":"e8e36fbe-c6f0-4d29-a8ae-bf831c4a2a86"},{"length":22,"position":125856,"velocity":0.8661417322834646,"pitch":67,"id":"b83cefbf-3fc7-437f-9bd3-2267d74ce9d2"},{"length":22,"position":125880,"velocity":0.8661417322834646,"pitch":65,"id":"9178c101-1ac5-40aa-acca-5762c55b1c4f"},{"length":22,"position":125904,"velocity":0.8661417322834646,"pitch":64,"id":"c519ad55-b517-431c-9839-dc0e071516a1"},{"length":256,"position":129024,"velocity":0.8661417322834646,"pitch":74,"id":"fc1c7165-ce5a-49a4-9f93-9a1c64a0e4c1"},{"length":256,"position":129024,"velocity":0.8661417322834646,"pitch":81,"id":"1c5d8311-c1ba-4294-8a27-dab4841902a5"},{"length":432,"position":129312,"velocity":0.8661417322834646,"pitch":73,"id":"240b9ecf-0fad-49e2-813a-2316b7af03b2"},{"length":432,"position":129312,"velocity":0.8661417322834646,"pitch":80,"id":"e8b02693-de25-47e1-bfc3-87a14181ef1a"},{"length":256,"position":129792,"velocity":0.8661417322834646,"pitch":72,"id":"86ab69ae-aa1c-4b2f-8852-7f165404dd62"},{"length":256,"position":129792,"velocity":0.8661417322834646,"pitch":79,"id":"e7e60200-5386-44d7-9a2d-7741857b3ed0"},{"length":432,"position":130080,"velocity":0.8661417322834646,"pitch":69,"id":"1630a018-950a-4bca-9d05-4022b24ec8e5"},{"length":432,"position":130080,"velocity":0.8661417322834646,"pitch":77,"id":"36ebf14a-0834-46ad-8b68-d7c680ff5e98"},{"length":256,"position":130560,"velocity":0.8661417322834646,"pitch":74,"id":"1084a2fe-3951-4d90-a5d3-4ae400e6caa7"},{"length":256,"position":130560,"velocity":0.8661417322834646,"pitch":81,"id":"7c019c4e-450f-4ceb-af9d-092a4dd881d7"},{"length":190,"position":130848,"velocity":0.8661417322834646,"pitch":73,"id":"d075bc2b-9331-4914-8037-4814ca702d82"},{"length":190,"position":130848,"velocity":0.8661417322834646,"pitch":80,"id":"e340a145-4135-48f0-ab32-8a1a432ee8ce"},{"length":190,"position":131040,"velocity":0.8661417322834646,"pitch":72,"id":"ccd18230-12d6-4069-8eec-1748704035c8"},{"length":190,"position":131040,"velocity":0.8661417322834646,"pitch":79,"id":"12668f15-3e88-436a-b3cb-2214c01849aa"},{"length":190,"position":131232,"velocity":0.8661417322834646,"pitch":69,"id":"dc0b11c1-62ad-4bf8-8c25-44fa71de8efa"},{"length":190,"position":131232,"velocity":0.8661417322834646,"pitch":77,"id":"58e04fc7-5bdc-4f7a-aa5b-6576aa541d60"},{"length":624,"position":131424,"velocity":0.8661417322834646,"pitch":69,"id":"a2d21920-c50e-4a19-a111-cc46fa921649"},{"length":624,"position":131424,"velocity":0.8661417322834646,"pitch":74,"id":"233f4c33-8224-4055-be7f-8ba58a258c1c"},{"length":256,"position":132096,"velocity":0.8661417322834646,"pitch":74,"id":"fb56b260-5396-4fd9-a05c-3cd6dc704539"},{"length":256,"position":132096,"velocity":0.8661417322834646,"pitch":81,"id":"8be8d719-7f24-4ae5-8f49-a06257c041e0"},{"length":432,"position":132384,"velocity":0.8661417322834646,"pitch":73,"id":"08d5a069-1a79-4980-ba68-8ca042a3fa76"},{"length":432,"position":132384,"velocity":0.8661417322834646,"pitch":80,"id":"4c99f12d-3345-497a-98c5-25056aa63371"},{"length":256,"position":132864,"velocity":0.8661417322834646,"pitch":72,"id":"55c57625-12af-4117-8687-2c30ff9573a6"},{"length":256,"position":132864,"velocity":0.8661417322834646,"pitch":79,"id":"34b24a89-e9d5-464e-8874-2ce1aab86e1e"},{"length":432,"position":133152,"velocity":0.8661417322834646,"pitch":69,"id":"773701e3-6f05-4a5c-adeb-217106527051"},{"length":432,"position":133152,"velocity":0.8661417322834646,"pitch":77,"id":"e1a473fc-155f-4f6f-9db2-ddc066867248"},{"length":256,"position":133632,"velocity":0.8661417322834646,"pitch":74,"id":"28a0e72d-3b91-4523-b8b1-572712ea7ddb"},{"length":256,"position":133632,"velocity":0.8661417322834646,"pitch":81,"id":"4813a15c-968d-4eb6-a8c4-91ac2746bedd"},{"length":190,"position":133920,"velocity":0.8661417322834646,"pitch":73,"id":"a035e7dc-3c53-4998-b429-5741eab2a98f"},{"length":190,"position":133920,"velocity":0.8661417322834646,"pitch":80,"id":"e56c495b-ef4f-4e1f-ab3f-45b243770c44"},{"length":190,"position":134112,"velocity":0.8661417322834646,"pitch":72,"id":"7738814b-0ddd-43d1-99f1-d9d15d8fa388"},{"length":190,"position":134112,"velocity":0.8661417322834646,"pitch":79,"id":"a6a77499-95c8-4a9c-abaa-12901c708ee7"},{"length":190,"position":134304,"velocity":0.8661417322834646,"pitch":69,"id":"2192e579-8911-4f52-a862-86d95a72e97c"},{"length":190,"position":134304,"velocity":0.8661417322834646,"pitch":77,"id":"6a7c436a-2499-403c-9b69-0a1687c77e33"},{"length":624,"position":134496,"velocity":0.8661417322834646,"pitch":69,"id":"3df7cdff-174a-4d18-b4d2-44cb2f44eaea"},{"length":624,"position":134496,"velocity":0.8661417322834646,"pitch":74,"id":"4b546f0a-c283-4043-9d4d-fa367a45eae3"},{"length":256,"position":135168,"velocity":0.8661417322834646,"pitch":69,"id":"20ce7c16-3d75-4890-b8d9-c53a89e00cef"},{"length":256,"position":135168,"velocity":0.8661417322834646,"pitch":74,"id":"8bcf3993-82ae-4827-a618-6bb72fe911f2"},{"length":432,"position":135456,"velocity":0.8661417322834646,"pitch":69,"id":"36c188a6-dd79-42e9-94de-20473b40d17c"},{"length":432,"position":135456,"velocity":0.8661417322834646,"pitch":73,"id":"64b2d130-0fc5-415e-b66e-dc3733c65aca"},{"length":256,"position":135936,"velocity":0.8661417322834646,"pitch":69,"id":"4fd938d8-5dbc-4c60-b41d-5e024f285a8c"},{"length":256,"position":135936,"velocity":0.8661417322834646,"pitch":72,"id":"ae14a9a6-268f-45fb-a656-5108c26e3a3e"},{"length":432,"position":136224,"velocity":0.8661417322834646,"pitch":68,"id":"3281318d-418a-40c2-a14f-171145fee6bc"},{"length":432,"position":136224,"velocity":0.8661417322834646,"pitch":71,"id":"f353860a-1d2a-4d27-b74c-071f3198fc50"},{"length":256,"position":136704,"velocity":0.8661417322834646,"pitch":69,"id":"67c84140-396d-4caf-a3ef-cf9a4e741211"},{"length":256,"position":136704,"velocity":0.8661417322834646,"pitch":74,"id":"c8edb36e-5c3a-48f2-9513-fbe32591a8b9"},{"length":432,"position":136992,"velocity":0.8661417322834646,"pitch":69,"id":"e74f74b6-c34e-4416-b6e7-b7f0f4bd00d4"},{"length":432,"position":136992,"velocity":0.8661417322834646,"pitch":73,"id":"854bb9ea-e207-4ec8-a62d-e7e519273955"},{"length":256,"position":137472,"velocity":0.8661417322834646,"pitch":69,"id":"fb13731d-3eee-4c98-99f0-69053f470a18"},{"length":256,"position":137472,"velocity":0.8661417322834646,"pitch":72,"id":"db3989ce-a29d-41cd-800b-4e48bed5c1c1"},{"length":432,"position":137760,"velocity":0.8661417322834646,"pitch":68,"id":"6f0d937f-2852-49bb-8b0e-f13b9c5c461a"},{"length":432,"position":137760,"velocity":0.8661417322834646,"pitch":71,"id":"c5d6995c-0971-4d23-97fa-75c171a350bb"},{"length":256,"position":138240,"velocity":0.8661417322834646,"pitch":69,"id":"10d2c7a5-34f4-4d1d-a790-342378d2df98"},{"length":256,"position":138240,"velocity":0.8661417322834646,"pitch":74,"id":"9d78aafc-7ce6-48f3-8a40-d7f21f17d599"},{"length":432,"position":138528,"velocity":0.8661417322834646,"pitch":69,"id":"fd833afc-a3c5-4c8f-9894-cdb186195ebb"},{"length":432,"position":138528,"velocity":0.8661417322834646,"pitch":73,"id":"9978e5e2-6d00-434f-a07e-89fc579e6908"},{"length":256,"position":139008,"velocity":0.8661417322834646,"pitch":69,"id":"6d5ca826-271e-4e83-b057-7846db5bc158"},{"length":256,"position":139008,"velocity":0.8661417322834646,"pitch":74,"id":"46f1812d-45d7-4448-a6bd-fc287e6ef4b7"},{"length":432,"position":139296,"velocity":0.8661417322834646,"pitch":68,"id":"7a712514-b26c-4c51-abd1-7eed2a176f67"},{"length":432,"position":139296,"velocity":0.8661417322834646,"pitch":73,"id":"faba6645-62b2-495e-b541-dcd2626d151c"},{"length":256,"position":139776,"velocity":0.8661417322834646,"pitch":69,"id":"a9839d76-a120-4c6c-95a0-8dfb7d2252c7"},{"length":256,"position":139776,"velocity":0.8661417322834646,"pitch":74,"id":"82a3fef2-fb8f-40be-bdc0-706d2e60f029"},{"length":432,"position":140064,"velocity":0.8661417322834646,"pitch":69,"id":"85a61c95-90ab-4575-9f31-46ca4e184148"},{"length":432,"position":140064,"velocity":0.8661417322834646,"pitch":73,"id":"b3a12bc6-3d3b-4f3c-bd48-abc79187ee1e"},{"length":256,"position":140544,"velocity":0.8661417322834646,"pitch":69,"id":"4fb46073-7199-4cf4-b5aa-04cff2b2b53e"},{"length":256,"position":140544,"velocity":0.8661417322834646,"pitch":72,"id":"95eebd6f-da43-4b2f-a51f-59bc6fe553bf"},{"length":432,"position":140832,"velocity":0.8661417322834646,"pitch":68,"id":"a588cbfb-f50d-4ee7-b954-28d8393fb3a6"},{"length":432,"position":140832,"velocity":0.8661417322834646,"pitch":71,"id":"76e08e4f-c65c-4420-afc0-ee4c8f747bc9"},{"length":190,"position":147360,"velocity":0.8661417322834646,"pitch":72,"id":"ecf8aff7-7fe2-4a88-ad78-c358f40bd069"},{"length":94,"position":147552,"velocity":0.8661417322834646,"pitch":72,"id":"517dc1be-40e9-4d25-910d-6149c6d9fef0"},{"length":94,"position":147648,"velocity":0.8661417322834646,"pitch":69,"id":"c9c85b29-6642-4d9e-8545-509ca679d95d"},{"length":94,"position":147744,"velocity":0.8661417322834646,"pitch":69,"id":"efc484e0-0a12-4448-b3e4-fef7d1f23aca"},{"length":94,"position":147840,"velocity":0.8661417322834646,"pitch":70,"id":"424c288a-7c34-4183-98ec-8ed3d949f92a"},{"length":94,"position":147936,"velocity":0.8661417322834646,"pitch":70,"id":"933fbf16-a720-4656-baf4-6a2deee02672"},{"length":190,"position":149664,"velocity":0.8661417322834646,"pitch":72,"id":"ae798829-f084-4d1e-9c0a-19a660fb4980"},{"length":94,"position":149856,"velocity":0.8661417322834646,"pitch":72,"id":"cc58ba63-7a4e-4cf4-b7fc-d805ee4996fb"},{"length":94,"position":149952,"velocity":0.8661417322834646,"pitch":69,"id":"cb7ee9b9-2dec-4bb7-b840-e770d618272f"},{"length":94,"position":150048,"velocity":0.8661417322834646,"pitch":69,"id":"ccccbe1d-83f4-4825-8d30-871c80d7d176"},{"length":94,"position":150144,"velocity":0.8661417322834646,"pitch":70,"id":"ecd0dbf9-73e5-490e-9873-5f3384469caa"},{"length":94,"position":150240,"velocity":0.8661417322834646,"pitch":70,"id":"ff2982aa-9edf-415d-bd5f-1a273fb68548"},{"length":190,"position":151200,"velocity":0.8661417322834646,"pitch":65,"id":"5b304930-a11a-4aa5-be14-3b7ec617b056"},{"length":94,"position":151392,"velocity":0.8661417322834646,"pitch":65,"id":"e0e0b536-32ac-4770-b63a-547ec03a62bb"},{"length":94,"position":151488,"velocity":0.8661417322834646,"pitch":62,"id":"468bf2c9-259b-43ab-a2ed-ce23e3c24fe8"},{"length":94,"position":151584,"velocity":0.8661417322834646,"pitch":62,"id":"95aead30-39a9-410a-a18a-c9ee29791e82"},{"length":94,"position":151680,"velocity":0.8661417322834646,"pitch":63,"id":"6f599016-9487-4440-a2c9-c1b920b40012"},{"length":94,"position":151776,"velocity":0.8661417322834646,"pitch":63,"id":"8600a085-e548-4995-8460-68c1bbb5fe20"},{"length":190,"position":152736,"velocity":0.8661417322834646,"pitch":65,"id":"c9c44165-5df6-48e0-a7ce-73a80b01c15b"},{"length":94,"position":152928,"velocity":0.8661417322834646,"pitch":65,"id":"2c9ac6d5-a769-46a0-add3-bc96971ece47"},{"length":94,"position":153024,"velocity":0.8661417322834646,"pitch":62,"id":"a01eaacf-ee41-4b41-ac58-f4d48b9e7fdd"},{"length":94,"position":153120,"velocity":0.8661417322834646,"pitch":62,"id":"f0d6daf8-9881-4f5b-9e70-6ac55cd596dd"},{"length":94,"position":153216,"velocity":0.8661417322834646,"pitch":63,"id":"7adddabb-41e1-400e-9a9a-2ff5630f1154"},{"length":94,"position":153312,"velocity":0.8661417322834646,"pitch":63,"id":"f9e337b5-95ee-4e46-8da4-37b93c2fb26d"},{"length":94,"position":155136,"velocity":0.8661417322834646,"pitch":60,"id":"b1d742dd-ec6a-47a7-950b-26daadc99cc9"},{"length":94,"position":155232,"velocity":0.8661417322834646,"pitch":72,"id":"8a7c2b30-266a-4fad-bed2-cf19daf4d2c2"},{"length":94,"position":155328,"velocity":0.8661417322834646,"pitch":57,"id":"87373361-e452-4ebf-97f1-811c36d031f9"},{"length":94,"position":155424,"velocity":0.8661417322834646,"pitch":69,"id":"6aaf084e-100a-4f51-936e-ac63d44c1d40"},{"length":94,"position":155520,"velocity":0.8661417322834646,"pitch":58,"id":"6608fdbe-dfb1-461c-a01c-9cc65e74f8bd"},{"length":94,"position":155616,"velocity":0.8661417322834646,"pitch":70,"id":"a044644f-4c07-461b-b53d-bae896645706"},{"length":94,"position":156672,"velocity":0.8661417322834646,"pitch":60,"id":"db0a7109-5e12-4615-ba68-6f0a351f9059"},{"length":94,"position":156768,"velocity":0.8661417322834646,"pitch":72,"id":"9403b9c5-b1b8-49a8-9954-4ff25e8dde3e"},{"length":94,"position":156864,"velocity":0.8661417322834646,"pitch":57,"id":"7f4c4c0a-1b2a-43bc-aae7-f31d7cd26d5c"},{"length":94,"position":156960,"velocity":0.8661417322834646,"pitch":69,"id":"6dc32477-a2cd-4ebe-838c-75a2d365332c"},{"length":94,"position":157056,"velocity":0.8661417322834646,"pitch":58,"id":"26e117e8-763c-49e9-8ef7-30230b69a479"},{"length":94,"position":157152,"velocity":0.8661417322834646,"pitch":70,"id":"613a9bcc-fc74-45dd-867a-2bc53f98ed4f"},{"length":94,"position":158208,"velocity":0.8661417322834646,"pitch":53,"id":"f39589da-f797-40a9-a266-67461b9c16bc"},{"length":94,"position":158304,"velocity":0.8661417322834646,"pitch":65,"id":"86cf95b9-858d-40ed-8321-0a197ec05b46"},{"length":94,"position":158400,"velocity":0.8661417322834646,"pitch":50,"id":"adb20d12-8188-4022-8a56-5208869a00e1"},{"length":94,"position":158496,"velocity":0.8661417322834646,"pitch":62,"id":"e5ce17b3-12d1-4777-bddc-0ae514455c0b"},{"length":94,"position":158592,"velocity":0.8661417322834646,"pitch":51,"id":"e01fa044-f5ff-4739-9252-f2b8430d0ef5"},{"length":94,"position":158688,"velocity":0.8661417322834646,"pitch":63,"id":"4bd483a6-8feb-4377-b9ce-66dfd767f55e"},{"length":94,"position":159744,"velocity":0.8661417322834646,"pitch":53,"id":"adb7e8ea-db75-4df4-99b5-3a6de25fd793"},{"length":94,"position":159840,"velocity":0.8661417322834646,"pitch":65,"id":"e50aeecb-cdd0-42a1-a6b0-98cb7a493f91"},{"length":94,"position":159936,"velocity":0.8661417322834646,"pitch":50,"id":"eedce079-0405-467b-b59f-ad43e0488083"},{"length":94,"position":160032,"velocity":0.8661417322834646,"pitch":62,"id":"08008bef-59ad-4b11-abb2-15e9900cbcf9"},{"length":94,"position":160128,"velocity":0.8661417322834646,"pitch":51,"id":"aa5ea4d1-b3af-4963-8443-cf5c05d63366"},{"length":94,"position":160224,"velocity":0.8661417322834646,"pitch":63,"id":"e7c032ff-c05b-4a9c-a6fe-feb492a0ded4"},{"length":46,"position":161136,"velocity":0.8661417322834646,"pitch":63,"id":"d0831c73-e2e5-4e39-b3ce-ef4fe2c80c2c"},{"length":46,"position":161184,"velocity":0.8661417322834646,"pitch":62,"id":"cf004fd4-6b6f-4cc9-bdd5-3285d6e3ea62"},{"length":46,"position":161232,"velocity":0.8661417322834646,"pitch":61,"id":"0251b97e-8e2f-4a8c-9396-66d0fb4b5d30"},{"length":160,"position":161280,"velocity":0.8661417322834646,"pitch":60,"id":"b77d593a-cbec-4e3a-85fc-f4049d59f0c7"},{"length":160,"position":161472,"velocity":0.8661417322834646,"pitch":63,"id":"41b3d6cc-eaec-4636-ab31-c4b3b0ee3615"},{"length":160,"position":161664,"velocity":0.8661417322834646,"pitch":62,"id":"2750be44-89dc-4759-a4de-d11c54b165c9"},{"length":160,"position":161856,"velocity":0.8661417322834646,"pitch":56,"id":"b8140f8d-b862-4786-acda-367a89e48bdb"},{"length":160,"position":162048,"velocity":0.8661417322834646,"pitch":55,"id":"89992ce8-bafa-4d93-b45e-d62f80a0c7ad"},{"length":160,"position":162240,"velocity":0.8661417322834646,"pitch":61,"id":"0214b422-a042-4b43-b42d-c2db4e7002ba"},{"length":70,"position":162432,"velocity":0.8661417322834646,"pitch":60,"id":"8ed5566d-4c8c-4ae8-8c55-3c79e3a911cd"},{"length":70,"position":162504,"velocity":0.8661417322834646,"pitch":66,"id":"1cecba6f-d8d8-4f8c-b747-4eeb8f09aa20"},{"length":46,"position":162576,"velocity":0.8661417322834646,"pitch":65,"id":"c28b0e4b-3cea-448a-9502-2749586f43b0"},{"length":70,"position":162624,"velocity":0.8661417322834646,"pitch":64,"id":"197a77e2-7f04-4b9d-af3d-c0500f8881da"},{"length":70,"position":162696,"velocity":0.8661417322834646,"pitch":71,"id":"55321aff-b30d-41a8-b344-809bba9a05e5"},{"length":46,"position":162768,"velocity":0.8661417322834646,"pitch":70,"id":"2f21f5d9-4b3f-4cb3-9aab-d6308d7a81b1"},{"length":142,"position":162816,"velocity":0.8661417322834646,"pitch":69,"id":"ff453bde-a609-46bf-aa46-31cb13d9f2c5"},{"length":46,"position":162960,"velocity":0.8661417322834646,"pitch":63,"id":"c28fe35d-2df2-4b95-9a0d-26bc73278136"},{"length":142,"position":163056,"velocity":0.8661417322834646,"pitch":59,"id":"34e64f28-cf59-446d-bbff-f71df53a7ad0"},{"length":142,"position":163200,"velocity":0.8661417322834646,"pitch":58,"id":"865cf80f-1fdc-42ab-b245-957216994944"},{"length":46,"position":163344,"velocity":0.8661417322834646,"pitch":57,"id":"e362bdda-f2dd-4443-8914-544b8bfd0c9a"},{"length":94,"position":163488,"velocity":0.8661417322834646,"pitch":56,"id":"669c2b73-241f-4969-9fd1-aa6722f5446e"},{"length":94,"position":164352,"velocity":0.8661417322834646,"pitch":60,"id":"5abcd8ff-ecb6-4b33-8bb2-2851d38e748f"},{"length":94,"position":164448,"velocity":0.8661417322834646,"pitch":72,"id":"7fdd9fa8-5546-4ade-acf9-401b1717fd76"},{"length":94,"position":164544,"velocity":0.8661417322834646,"pitch":57,"id":"b45e606a-4021-48d3-ac19-4e67e10b2633"},{"length":94,"position":164640,"velocity":0.8661417322834646,"pitch":69,"id":"10844ae9-320b-48d1-b17f-ea9ade6cffbe"},{"length":94,"position":164736,"velocity":0.8661417322834646,"pitch":58,"id":"a1ee662a-bac5-4970-8ca9-5e206ef837ae"},{"length":94,"position":164832,"velocity":0.8661417322834646,"pitch":70,"id":"54c943f1-d5a6-4b1b-827d-a2d552642a03"},{"length":94,"position":165888,"velocity":0.8661417322834646,"pitch":60,"id":"ef1c08dd-d903-49ee-b22a-cf09e438cf57"},{"length":94,"position":165984,"velocity":0.8661417322834646,"pitch":72,"id":"65d3fb7a-e576-4021-a258-1f1ab460cf0a"},{"length":94,"position":166080,"velocity":0.8661417322834646,"pitch":57,"id":"0aab33b3-7abe-4102-8cef-f85ba36164e5"},{"length":94,"position":166176,"velocity":0.8661417322834646,"pitch":69,"id":"de24625e-5596-46f4-9888-12acc6906e60"},{"length":94,"position":166272,"velocity":0.8661417322834646,"pitch":58,"id":"f63c1de2-319f-4ad5-a3cd-208e3291ed79"},{"length":94,"position":166368,"velocity":0.8661417322834646,"pitch":70,"id":"8ab19802-5848-4fc9-8eb6-a94d0a7413f3"},{"length":94,"position":167424,"velocity":0.8661417322834646,"pitch":53,"id":"e9e121ca-05f7-4e12-9085-e2c2f0c0fd9d"},{"length":94,"position":167520,"velocity":0.8661417322834646,"pitch":65,"id":"5a58dd59-58b3-40fd-b1b4-3b2af81848c9"},{"length":94,"position":167616,"velocity":0.8661417322834646,"pitch":50,"id":"f5520aef-6255-438d-a9b9-c1f41a7127bc"},{"length":94,"position":167712,"velocity":0.8661417322834646,"pitch":62,"id":"c7f6185b-32f5-4b6c-8062-1f4870bd04f5"},{"length":94,"position":167808,"velocity":0.8661417322834646,"pitch":51,"id":"9a9043ae-56f3-4cc7-ac91-bd58c2ffc2c6"},{"length":94,"position":167904,"velocity":0.8661417322834646,"pitch":63,"id":"e9ea0a9b-f616-4a01-99af-58cf47fe2963"},{"length":94,"position":168960,"velocity":0.8661417322834646,"pitch":53,"id":"cf056b6e-c0d0-4649-99f8-11147bc6c73f"},{"length":94,"position":169056,"velocity":0.8661417322834646,"pitch":65,"id":"f9c6ae27-997d-4f70-ba37-17995ae6a6a9"},{"length":94,"position":169152,"velocity":0.8661417322834646,"pitch":50,"id":"e6a54e12-f830-43b4-8359-359297888eeb"},{"length":94,"position":169248,"velocity":0.8661417322834646,"pitch":62,"id":"7cf2ae34-3903-4154-b503-6ef033318a70"},{"length":94,"position":169344,"velocity":0.8661417322834646,"pitch":51,"id":"a8783f23-4927-4493-a6bb-045c6b59f2c8"},{"length":94,"position":169440,"velocity":0.8661417322834646,"pitch":63,"id":"3ee0c1ab-4309-4e2e-bdb0-e7e371c8987f"},{"length":46,"position":170352,"velocity":0.8661417322834646,"pitch":63,"id":"13b1996e-1378-40ce-a9e3-c4e3c07d48cd"},{"length":46,"position":170400,"velocity":0.8661417322834646,"pitch":62,"id":"e23a5fb0-65da-4ef2-87e5-db902d108496"},{"length":46,"position":170448,"velocity":0.8661417322834646,"pitch":61,"id":"d35c67e2-0e47-432a-8455-e3215d388936"},{"length":160,"position":170496,"velocity":0.8661417322834646,"pitch":60,"id":"feb6ad52-1687-496a-bea9-c2da35a4d0c9"},{"length":160,"position":170688,"velocity":0.8661417322834646,"pitch":63,"id":"649f43a0-7c2a-4806-a264-de35be8f79f9"},{"length":160,"position":170880,"velocity":0.8661417322834646,"pitch":62,"id":"7140db71-43cd-4dcf-b674-4970e35e2892"},{"length":160,"position":171072,"velocity":0.8661417322834646,"pitch":56,"id":"77fdf8db-6906-4833-bd6d-dbc0abeb408d"},{"length":160,"position":171264,"velocity":0.8661417322834646,"pitch":55,"id":"fc3c0179-faf2-4998-b5e2-0b538456e660"},{"length":160,"position":171456,"velocity":0.8661417322834646,"pitch":61,"id":"d6a62001-8b3a-4892-89c6-f66b73f99cd8"},{"length":70,"position":171648,"velocity":0.8661417322834646,"pitch":60,"id":"9dad17a7-09b3-4eeb-8d8f-2aab23434bda"},{"length":70,"position":171720,"velocity":0.8661417322834646,"pitch":66,"id":"8308af4b-14da-47dc-8de1-ac9fe82bc2da"},{"length":46,"position":171792,"velocity":0.8661417322834646,"pitch":65,"id":"c00a093b-da8c-4610-9211-75ecac0047e9"},{"length":70,"position":171840,"velocity":0.8661417322834646,"pitch":64,"id":"ea2a2feb-38a9-438e-8254-a274e2a295cf"},{"length":70,"position":171912,"velocity":0.8661417322834646,"pitch":71,"id":"94f27e13-5386-45e3-8203-63c8caf02464"},{"length":46,"position":171984,"velocity":0.8661417322834646,"pitch":70,"id":"5cbc2834-fc26-4f30-b943-253b7837581a"},{"length":142,"position":172032,"velocity":0.8661417322834646,"pitch":69,"id":"04add870-fd7a-4bae-b3fa-d27fa193e453"},{"length":46,"position":172176,"velocity":0.8661417322834646,"pitch":63,"id":"7c1d435b-e11a-4165-b786-8ed343847723"},{"length":142,"position":172272,"velocity":0.8661417322834646,"pitch":59,"id":"f86ce0ed-2ba7-4374-8c32-529a37de33de"},{"length":142,"position":172416,"velocity":0.8661417322834646,"pitch":58,"id":"1545bfe8-0764-4d24-a178-d33cd329c662"},{"length":46,"position":172560,"velocity":0.8661417322834646,"pitch":57,"id":"a0243026-4c9e-459f-9156-3e1d79071636"},{"length":94,"position":172704,"velocity":0.8661417322834646,"pitch":56,"id":"09db6738-8673-48f7-a0b4-5a6728bda3cc"},{"length":160,"position":173568,"velocity":0.8661417322834646,"pitch":72,"id":"c726b13f-4670-4e0a-96bd-587a101439ce"},{"length":160,"position":173568,"velocity":0.8661417322834646,"pitch":76,"id":"c0601690-210a-457f-9346-cd03647d4ca9"},{"length":160,"position":173568,"velocity":0.8661417322834646,"pitch":79,"id":"39f3c1b6-8361-442e-a08c-c6736dd8be20"},{"length":94,"position":173856,"velocity":0.8661417322834646,"pitch":72,"id":"271dcb3e-6995-4c05-a030-85d52894d914"},{"length":94,"position":173856,"velocity":0.8661417322834646,"pitch":77,"id":"6e5cddca-aeb1-4af6-9b27-b68d5a1fcd79"},{"length":94,"position":173856,"velocity":0.8661417322834646,"pitch":81,"id":"d72c8973-b3bb-4962-ba8b-398cccb490ef"},{"length":94,"position":174048,"velocity":0.8661417322834646,"pitch":72,"id":"560c15fe-f753-4113-99ca-8f71ed044a3b"},{"length":94,"position":174048,"velocity":0.8661417322834646,"pitch":76,"id":"0a7fdbae-402d-4547-b2de-06dec500a5f7"},{"length":94,"position":174048,"velocity":0.8661417322834646,"pitch":79,"id":"b8011c53-13da-4a5f-a0bc-b56d1df35e06"},{"length":94,"position":174240,"velocity":0.8661417322834646,"pitch":72,"id":"9c70a87b-043b-4787-89cb-563fa6835b75"},{"length":94,"position":174240,"velocity":0.8661417322834646,"pitch":75,"id":"f331a5e7-a7e0-431e-be82-f5620799d7a1"},{"length":94,"position":174240,"velocity":0.8661417322834646,"pitch":78,"id":"8e14926d-5fda-4822-a280-4babf7442875"},{"length":94,"position":174336,"velocity":0.8661417322834646,"pitch":72,"id":"a51fedef-132d-43d8-9b16-ae312abbc84d"},{"length":94,"position":174336,"velocity":0.8661417322834646,"pitch":76,"id":"612abd40-c6cd-4de6-82d9-cc293c5bd625"},{"length":94,"position":174336,"velocity":0.8661417322834646,"pitch":79,"id":"22993255-f8a4-4332-9ec0-1500c4614ccc"},{"length":94,"position":174432,"velocity":0.8661417322834646,"pitch":76,"id":"d85dac56-c0a6-440d-acbc-98e5ee3a332d"},{"length":94,"position":174432,"velocity":0.8661417322834646,"pitch":79,"id":"9dbd1b78-3547-40b0-a7ff-83771181d478"},{"length":94,"position":174432,"velocity":0.8661417322834646,"pitch":84,"id":"d71a8da9-adc4-4c6f-91cf-1b9a002e19b4"},{"length":160,"position":174528,"velocity":0.8661417322834646,"pitch":79,"id":"9bc018cb-3c03-4c1d-877e-f140cc09ff05"},{"length":160,"position":174528,"velocity":0.8661417322834646,"pitch":84,"id":"76a44efd-dd5c-43f6-be54-492ee686d395"},{"length":160,"position":174528,"velocity":0.8661417322834646,"pitch":88,"id":"51124f75-634a-452c-913f-e4cd5095df85"},{"length":94,"position":174912,"velocity":0.8661417322834646,"pitch":67,"id":"24f7f34f-985c-464c-abcc-86f8ce132d9c"},{"length":94,"position":175008,"velocity":0.8661417322834646,"pitch":72,"id":"b40a8c07-11ce-4aba-82b1-861034786e39"},{"length":160,"position":175104,"velocity":0.8661417322834646,"pitch":71,"id":"005a2698-2b06-45f0-bdab-862c21e9514b"},{"length":160,"position":175104,"velocity":0.8661417322834646,"pitch":74,"id":"95823137-d104-4146-a023-1383985e2512"},{"length":160,"position":175104,"velocity":0.8661417322834646,"pitch":77,"id":"6e8facd4-75c5-4021-99b3-a1269c4acdd6"},{"length":94,"position":175392,"velocity":0.8661417322834646,"pitch":71,"id":"cc161f7b-798e-4c95-a142-5acb83935c62"},{"length":94,"position":175392,"velocity":0.8661417322834646,"pitch":76,"id":"47c8e43b-900f-4d10-bfe9-db3a04348d22"},{"length":94,"position":175392,"velocity":0.8661417322834646,"pitch":79,"id":"f92b8933-a425-401a-84fd-23f3d6199d25"},{"length":94,"position":175584,"velocity":0.8661417322834646,"pitch":71,"id":"53f0319d-8a1d-419a-aa4a-b61365657704"},{"length":94,"position":175584,"velocity":0.8661417322834646,"pitch":74,"id":"48dd5041-61f3-4350-a47e-8314b01e248a"},{"length":94,"position":175584,"velocity":0.8661417322834646,"pitch":77,"id":"4b184fab-f53a-4c1d-a843-22f9f8c232d0"},{"length":94,"position":175776,"velocity":0.8661417322834646,"pitch":70,"id":"41233c74-8fae-4a20-bcc1-744c52f4d51e"},{"length":94,"position":175776,"velocity":0.8661417322834646,"pitch":73,"id":"d5b9037e-64a6-454c-a119-78745824c2e4"},{"length":94,"position":175776,"velocity":0.8661417322834646,"pitch":76,"id":"083d66a4-d3b7-4094-af44-46d4c5bfb2da"},{"length":94,"position":175872,"velocity":0.8661417322834646,"pitch":71,"id":"c6029391-bd86-48e5-ae85-e2e29b1cdb15"},{"length":94,"position":175872,"velocity":0.8661417322834646,"pitch":74,"id":"7d6b4f7d-3efd-49d5-926d-fbdbcea8b832"},{"length":94,"position":175872,"velocity":0.8661417322834646,"pitch":77,"id":"92cadfd3-3b1b-45cb-ae61-5f89e46d942f"},{"length":94,"position":175968,"velocity":0.8661417322834646,"pitch":74,"id":"bb9fe0e1-952e-4a6d-b9c9-de3453d5398d"},{"length":94,"position":175968,"velocity":0.8661417322834646,"pitch":79,"id":"c583fa5f-8335-44a0-9dd7-3de40995501d"},{"length":94,"position":175968,"velocity":0.8661417322834646,"pitch":83,"id":"28af9047-e4ca-4fcd-b841-2f4c205c2697"},{"length":160,"position":176064,"velocity":0.8661417322834646,"pitch":79,"id":"70c4e3e1-f1f8-4f27-ac9a-b9fd030fa545"},{"length":160,"position":176064,"velocity":0.8661417322834646,"pitch":83,"id":"c0038a20-48ee-4661-894f-98e7692b730a"},{"length":160,"position":176064,"velocity":0.8661417322834646,"pitch":86,"id":"f593f003-1107-41b8-a8e4-6cd0a89aa491"},{"length":94,"position":176448,"velocity":0.8661417322834646,"pitch":67,"id":"d8accd53-6651-4eb4-8d31-e4b74a54ea5f"},{"length":94,"position":176544,"velocity":0.8661417322834646,"pitch":71,"id":"d540f7fb-37d4-4a4f-b439-5224312c0518"},{"length":160,"position":176640,"velocity":0.8661417322834646,"pitch":69,"id":"17df39d1-7256-4a5b-b4b1-f10551ae915e"},{"length":160,"position":176640,"velocity":0.8661417322834646,"pitch":72,"id":"18ffeddc-fccd-46c8-9745-d84da3e36e05"},{"length":160,"position":176640,"velocity":0.8661417322834646,"pitch":76,"id":"1b6ed625-7764-4fef-8790-80808320b001"},{"length":94,"position":176928,"velocity":0.8661417322834646,"pitch":69,"id":"7e4bafec-00f0-40be-894c-71f20bbcbf5e"},{"length":94,"position":176928,"velocity":0.8661417322834646,"pitch":74,"id":"32a29151-c635-4ab8-aded-567ae734eaa8"},{"length":94,"position":176928,"velocity":0.8661417322834646,"pitch":77,"id":"895ce384-bb22-4651-a11f-10abba79183a"},{"length":94,"position":177120,"velocity":0.8661417322834646,"pitch":69,"id":"07836af8-8d2a-4c82-9f57-f91491857f86"},{"length":94,"position":177120,"velocity":0.8661417322834646,"pitch":72,"id":"8b149f1b-d37c-427e-aac7-37d3bca375f3"},{"length":94,"position":177120,"velocity":0.8661417322834646,"pitch":76,"id":"a50c5d72-d55c-4bb6-8963-917ef5807e4b"},{"length":94,"position":177312,"velocity":0.8661417322834646,"pitch":68,"id":"3ac5e302-96fc-482c-96a6-2182232d2d93"},{"length":94,"position":177312,"velocity":0.8661417322834646,"pitch":71,"id":"651368f0-d362-4be1-9d85-fe22294161ab"},{"length":94,"position":177312,"velocity":0.8661417322834646,"pitch":75,"id":"04e5821e-5111-42f5-879a-fa39d2b1e9aa"},{"length":94,"position":177408,"velocity":0.8661417322834646,"pitch":69,"id":"f4c3a332-d212-464a-b414-39574fa9c61d"},{"length":94,"position":177408,"velocity":0.8661417322834646,"pitch":72,"id":"b9e56233-d348-4b7e-bc48-24a186671673"},{"length":94,"position":177408,"velocity":0.8661417322834646,"pitch":76,"id":"2a51b6a4-2175-490b-bf1c-d71a43c5ceba"},{"length":94,"position":177504,"velocity":0.8661417322834646,"pitch":72,"id":"d6e03656-1407-4568-b703-7fd8dc177cf8"},{"length":94,"position":177504,"velocity":0.8661417322834646,"pitch":76,"id":"0960fe38-9376-488d-b364-c91f49fdd3e5"},{"length":94,"position":177504,"velocity":0.8661417322834646,"pitch":81,"id":"24fb967b-6f2c-40c9-8ced-23405155e9eb"},{"length":160,"position":177600,"velocity":0.8661417322834646,"pitch":76,"id":"3957eaef-8820-4557-a451-c530200f91ec"},{"length":160,"position":177600,"velocity":0.8661417322834646,"pitch":81,"id":"c362b793-a898-44f8-b54d-345d2b73a1f5"},{"length":160,"position":177600,"velocity":0.8661417322834646,"pitch":84,"id":"2ff209fb-26b8-422d-a0be-1b82f3b64b2b"},{"length":94,"position":177888,"velocity":0.8661417322834646,"pitch":72,"id":"f4e715b4-e65d-4752-b8c1-736badaccade"},{"length":94,"position":177888,"velocity":0.8661417322834646,"pitch":76,"id":"c13b0af9-b0ce-4a34-aa07-96d2be78ce06"},{"length":94,"position":177888,"velocity":0.8661417322834646,"pitch":81,"id":"7e01da5a-5628-4d38-b07c-c88ed707f301"},{"length":94,"position":177984,"velocity":0.8661417322834646,"pitch":74,"id":"d938a522-fd46-4df3-b719-71b4c31ca986"},{"length":94,"position":177984,"velocity":0.8661417322834646,"pitch":78,"id":"99677220-40b3-4b74-a96b-85547812ed33"},{"length":94,"position":177984,"velocity":0.8661417322834646,"pitch":83,"id":"5b9734f7-951c-4c83-82f3-fefc67bf23e4"},{"length":94,"position":178080,"velocity":0.8661417322834646,"pitch":69,"id":"08ae5a5d-9eb3-4493-a649-917e45eb0c81"},{"length":94,"position":178080,"velocity":0.8661417322834646,"pitch":76,"id":"8e59a3d6-65d8-49de-8582-c2d668cc6ccc"},{"length":94,"position":178080,"velocity":0.8661417322834646,"pitch":81,"id":"8fb81683-b52e-4102-baa0-860687b7afb1"},{"length":94,"position":178080,"velocity":0.8661417322834646,"pitch":84,"id":"7b906eb3-8738-41ed-8668-c08218cdff5b"},{"length":94,"position":178176,"velocity":0.8661417322834646,"pitch":78,"id":"052f0e70-2211-4140-8001-b483df728fee"},{"length":94,"position":178176,"velocity":0.8661417322834646,"pitch":83,"id":"1bc422d2-c026-476c-9f54-c9520a1a90bc"},{"length":94,"position":178176,"velocity":0.8661417322834646,"pitch":86,"id":"e067a76a-d960-414c-9a46-2fa169883e41"},{"length":94,"position":178272,"velocity":0.8661417322834646,"pitch":78,"id":"41d6f7ad-5423-44f8-887c-dba73d71bc3f"},{"length":94,"position":178272,"velocity":0.8661417322834646,"pitch":81,"id":"2fe8fbd0-db85-459f-b972-0b477fc7a944"},{"length":94,"position":178272,"velocity":0.8661417322834646,"pitch":84,"id":"d42b4aa5-a7e0-40ae-8ad9-776e41140dae"},{"length":94,"position":178368,"velocity":0.8661417322834646,"pitch":78,"id":"b0975a3e-3984-4329-8d20-aea218319b3f"},{"length":94,"position":178368,"velocity":0.8661417322834646,"pitch":83,"id":"58e84e9c-c9d7-456e-b60d-b5ab95a6c5f4"},{"length":94,"position":178368,"velocity":0.8661417322834646,"pitch":86,"id":"4011ed75-2149-467f-ad62-be437ebdd1c2"},{"length":190,"position":178464,"velocity":0.8661417322834646,"pitch":78,"id":"42e33013-b561-4a93-b58c-995f377f0caa"},{"length":190,"position":178464,"velocity":0.8661417322834646,"pitch":81,"id":"eb039523-7ef4-4327-a0ad-31e369220448"},{"length":190,"position":178464,"velocity":0.8661417322834646,"pitch":84,"id":"dfa748fb-546c-4f76-af7d-a3bddbbd1a74"},{"length":94,"position":178656,"velocity":0.8661417322834646,"pitch":74,"id":"d2886bd0-d0ca-4390-9d61-4d5ff11686f3"},{"length":94,"position":178656,"velocity":0.8661417322834646,"pitch":78,"id":"68699133-8eeb-49c0-8092-960d8535fde5"},{"length":94,"position":178656,"velocity":0.8661417322834646,"pitch":81,"id":"5e1f45b7-bdef-4eb4-a994-88c5dc08eefe"},{"length":94,"position":178752,"velocity":0.8661417322834646,"pitch":72,"id":"1313ccd0-499b-4187-8a98-d657f86473d1"},{"length":94,"position":178752,"velocity":0.8661417322834646,"pitch":74,"id":"2bc4d37c-3e13-4ade-aa66-afc4d54f86b4"},{"length":94,"position":178752,"velocity":0.8661417322834646,"pitch":78,"id":"71eda896-2406-4fe3-891b-782215329f88"},{"length":94,"position":178848,"velocity":0.8661417322834646,"pitch":69,"id":"9729b58e-5b6a-4662-89d9-2bc14f828574"},{"length":94,"position":178848,"velocity":0.8661417322834646,"pitch":72,"id":"91fe12a8-eb01-49e9-8c4b-383d10fe6e52"},{"length":94,"position":178848,"velocity":0.8661417322834646,"pitch":74,"id":"fdd19b1f-3a16-4f0e-81b5-555877107a90"},{"length":94,"position":178944,"velocity":0.8661417322834646,"pitch":69,"id":"bc723bf4-79ef-47c6-a1ee-cc16e88f226a"},{"length":94,"position":178944,"velocity":0.8661417322834646,"pitch":72,"id":"f8fe978d-bc0c-4f57-891e-8f0a24fc6cef"},{"length":94,"position":179040,"velocity":0.8661417322834646,"pitch":69,"id":"444a910c-5ec0-42d0-93de-eec7efa3dd26"},{"length":160,"position":179712,"velocity":0.8661417322834646,"pitch":69,"id":"ebffb36d-18e7-463d-b625-44c3db3dd6c9"},{"length":160,"position":179712,"velocity":0.8661417322834646,"pitch":74,"id":"9e1fcb32-9902-4496-bf1a-cdf994c34c85"},{"length":160,"position":179712,"velocity":0.8661417322834646,"pitch":76,"id":"f9a64e25-e686-4f16-9780-2102ec6f12d9"},{"length":160,"position":180096,"velocity":0.8661417322834646,"pitch":69,"id":"c12fad5d-8b1a-4ec2-a65a-dc5c5b9d89ac"},{"length":160,"position":180096,"velocity":0.8661417322834646,"pitch":74,"id":"d0602364-7a2a-4164-9966-a2c91c5213dc"},{"length":160,"position":180096,"velocity":0.8661417322834646,"pitch":76,"id":"53e0dfb5-8240-4d06-8bc3-186bdbe289e9"},{"length":160,"position":180480,"velocity":0.8661417322834646,"pitch":69,"id":"23527d1f-f43b-4e97-a84f-c7dfb97093db"},{"length":160,"position":180480,"velocity":0.8661417322834646,"pitch":74,"id":"26a5a224-6e25-44ae-abb0-6f49bff0364e"},{"length":160,"position":180480,"velocity":0.8661417322834646,"pitch":76,"id":"d0f37b97-cbd6-44ba-bf29-de97a85cd263"},{"length":94,"position":180672,"velocity":0.8661417322834646,"pitch":73,"id":"9782a5eb-5312-4be2-9cc2-8818e64e798b"},{"length":94,"position":180768,"velocity":0.8661417322834646,"pitch":57,"id":"120a1ea5-0ae4-4792-9adc-fb64dbd0267d"},{"length":160,"position":180864,"velocity":0.8661417322834646,"pitch":71,"id":"35f4523a-9a45-4a14-858a-3e48276b765c"},{"length":160,"position":181056,"velocity":0.8661417322834646,"pitch":70,"id":"77089fbe-9bf9-4adf-9efd-5f935cc97683"},{"length":336,"position":181248,"velocity":0.8661417322834646,"pitch":69,"id":"ffb11631-8e68-428c-b8aa-180d1da68e8c"},{"length":160,"position":181632,"velocity":0.8661417322834646,"pitch":71,"id":"69537899-ab5b-46a2-af3f-b44ce85c11fc"},{"length":160,"position":181824,"velocity":0.8661417322834646,"pitch":69,"id":"9fbdbd9f-0b66-4270-bbda-10091e4a962c"},{"length":528,"position":182016,"velocity":0.8661417322834646,"pitch":62,"id":"ac512279-36aa-4b6a-98af-17f558022499"},{"length":160,"position":182784,"velocity":0.8661417322834646,"pitch":59,"id":"58b2d6bc-f370-4cbf-ae7d-24905490e9cd"},{"length":160,"position":182976,"velocity":0.8661417322834646,"pitch":59,"id":"74de18d5-3aa7-4566-98ea-093362995241"},{"length":160,"position":183168,"velocity":0.8661417322834646,"pitch":64,"id":"d8bb9641-2704-4645-9316-e69ad7d592b3"},{"length":160,"position":183360,"velocity":0.8661417322834646,"pitch":62,"id":"0f376783-4a8a-4c57-b152-c0ebe731bd9a"},{"length":528,"position":183552,"velocity":0.8661417322834646,"pitch":59,"id":"07433a41-1283-4be0-a774-7877190b106e"},{"length":256,"position":184320,"velocity":0.8661417322834646,"pitch":57,"id":"010e4aa9-48a4-4c0c-87a8-95679dfdf545"},{"length":256,"position":184608,"velocity":0.8661417322834646,"pitch":57,"id":"261a70a6-04f1-4a45-b3b7-a0e58f364196"},{"length":286,"position":184896,"velocity":0.8661417322834646,"pitch":69,"id":"03614ffc-cef4-43a2-aae8-4ac0d115766f"},{"length":256,"position":185184,"velocity":0.8661417322834646,"pitch":57,"id":"3c8bddd8-b7ab-49d6-b14f-94f71ada6022"},{"length":160,"position":185472,"velocity":0.8661417322834646,"pitch":57,"id":"bca04358-c4cd-4ed3-9d84-7ceea1b65378"},{"length":160,"position":185664,"velocity":0.8661417322834646,"pitch":69,"id":"1558476c-8b2a-4bc1-86a5-180d51f17f54"},{"length":336,"position":185856,"velocity":0.8661417322834646,"pitch":57,"id":"a64a7295-3997-47da-b591-764fb6ba95dc"},{"length":160,"position":186432,"velocity":0.8661417322834646,"pitch":69,"id":"ded35c7f-eb82-448d-9af9-346a12648dde"},{"length":528,"position":186624,"velocity":0.8661417322834646,"pitch":64,"id":"ef1affa3-d4c4-42a0-a297-5e342d58d5b6"},{"length":336,"position":187392,"velocity":0.8661417322834646,"pitch":66,"id":"6969c6e6-1461-4ee5-91dd-ccf2150baf02"},{"length":160,"position":187776,"velocity":0.8661417322834646,"pitch":71,"id":"34903d9f-c59e-499a-8bb2-fb3269daf6c6"},{"length":160,"position":187968,"velocity":0.8661417322834646,"pitch":69,"id":"f588d4ec-54c8-4bc6-b932-9ccf6cd8d036"},{"length":528,"position":188160,"velocity":0.8661417322834646,"pitch":72,"id":"ff772d8c-a308-4d3a-a7f8-81292e6fbb55"},{"length":160,"position":188928,"velocity":0.8661417322834646,"pitch":71,"id":"815b8caa-3c3f-49ef-91e5-fc351a35cefd"},{"length":160,"position":189120,"velocity":0.8661417322834646,"pitch":71,"id":"4f4f3b20-e668-42e9-bd12-fa9963e9c55a"},{"length":160,"position":189312,"velocity":0.8661417322834646,"pitch":76,"id":"909d8604-174c-4626-a9db-62f45579917c"},{"length":160,"position":189504,"velocity":0.8661417322834646,"pitch":74,"id":"0f66f72d-1352-4b1c-853e-cc6a12220e43"},{"length":528,"position":189696,"velocity":0.8661417322834646,"pitch":71,"id":"1367727e-2e43-47e0-b57f-9ab3119a45ce"},{"length":256,"position":190464,"velocity":0.8661417322834646,"pitch":69,"id":"a3f9f67f-7e1a-48c5-b6d4-cde1e16d7c87"},{"length":256,"position":190752,"velocity":0.8661417322834646,"pitch":69,"id":"e4642d35-195c-4d8c-8082-fd3ffc592559"},{"length":286,"position":191040,"velocity":0.8661417322834646,"pitch":57,"id":"40c1e4cf-0ff5-4175-879e-d19584b03017"},{"length":256,"position":191328,"velocity":0.8661417322834646,"pitch":69,"id":"624acfb2-ef60-4c55-b50b-4108cf6c3864"},{"length":160,"position":191616,"velocity":0.8661417322834646,"pitch":57,"id":"9c8f55ec-e3af-4b40-be1f-7e90609383f1"},{"length":160,"position":191808,"velocity":0.8661417322834646,"pitch":64,"id":"7ad065d3-464a-434b-ac1a-07be03f497ae"},{"length":1104,"position":192000,"velocity":0.8661417322834646,"pitch":62,"id":"0060accc-9ebb-49b1-96a5-34faac7af17e"},{"length":336,"position":193536,"velocity":0.8661417322834646,"pitch":69,"id":"11aa3cd4-f448-42aa-b91f-d63f93cf5b83"},{"length":160,"position":193920,"velocity":0.8661417322834646,"pitch":71,"id":"51655056-cdee-4eb8-bf5a-5771197253b2"},{"length":160,"position":194112,"velocity":0.8661417322834646,"pitch":69,"id":"e368680c-3ac7-4b9b-b3b1-d03492f6a4c3"},{"length":528,"position":194304,"velocity":0.8661417322834646,"pitch":62,"id":"90816685-6835-46d1-be3a-870b179eae0b"},{"length":160,"position":195072,"velocity":0.8661417322834646,"pitch":59,"id":"039450c0-c768-4db0-938e-d98a1d28c8f0"},{"length":160,"position":195264,"velocity":0.8661417322834646,"pitch":59,"id":"6a422f04-ac55-4992-bb12-0d23273ea03b"},{"length":160,"position":195456,"velocity":0.8661417322834646,"pitch":64,"id":"c33c9b65-c73c-48e5-9a16-2295f49c78a5"},{"length":160,"position":195648,"velocity":0.8661417322834646,"pitch":62,"id":"fe256ac0-2410-42de-8a58-a3d15c579828"},{"length":528,"position":195840,"velocity":0.8661417322834646,"pitch":59,"id":"7dd094b7-16a5-4e02-b50e-47221b828f1a"},{"length":256,"position":196608,"velocity":0.8661417322834646,"pitch":57,"id":"a3f83ba8-dc86-4093-8732-efccf836e21d"},{"length":256,"position":196896,"velocity":0.8661417322834646,"pitch":57,"id":"e3ff0d28-a717-4d7f-86fb-3d339f188e72"},{"length":286,"position":197184,"velocity":0.8661417322834646,"pitch":69,"id":"595173a0-5da0-480b-b6cc-343a2bc26894"},{"length":256,"position":197472,"velocity":0.8661417322834646,"pitch":57,"id":"fcb16c9b-514e-4fec-a8f9-211cfa918644"},{"length":160,"position":197760,"velocity":0.8661417322834646,"pitch":57,"id":"70e2b669-9b0a-4832-bdb2-7e7dc2c02a49"},{"length":160,"position":197952,"velocity":0.8661417322834646,"pitch":69,"id":"9837d355-9a3a-4ed0-a5d2-08b2b80dcd45"},{"length":336,"position":198144,"velocity":0.8661417322834646,"pitch":57,"id":"6cdff915-a683-49f5-bf94-0cf9389be96d"},{"length":160,"position":198720,"velocity":0.8661417322834646,"pitch":69,"id":"6fa3b607-a546-4c73-b3b8-c4906c5fb9ba"},{"length":528,"position":198912,"velocity":0.8661417322834646,"pitch":64,"id":"8f4e0d47-76a5-4b0e-ad6c-bed99908b57c"},{"length":336,"position":199680,"velocity":0.8661417322834646,"pitch":66,"id":"3b119d40-94df-4c1f-aa49-c08134f1013f"},{"length":160,"position":200064,"velocity":0.8661417322834646,"pitch":71,"id":"e3632caa-24a6-42ea-ad79-dab73b496bee"},{"length":160,"position":200256,"velocity":0.8661417322834646,"pitch":69,"id":"9619f40a-7ef1-4803-801d-dcec4b1fe8e6"},{"length":528,"position":200448,"velocity":0.8661417322834646,"pitch":72,"id":"a412fc98-603f-4edd-be4d-d73456720d3a"},{"length":160,"position":201216,"velocity":0.8661417322834646,"pitch":71,"id":"e57a1c20-4570-420e-8bae-00539000efb1"},{"length":160,"position":201408,"velocity":0.8661417322834646,"pitch":71,"id":"5ca7f8d9-91ae-4436-a957-24ef1aa4cb0c"},{"length":160,"position":201600,"velocity":0.8661417322834646,"pitch":76,"id":"e850c37d-438f-4ac9-a48c-1ca04525be61"},{"length":160,"position":201792,"velocity":0.8661417322834646,"pitch":74,"id":"0effc776-5c80-4683-b271-c1a0b13843b9"},{"length":528,"position":201984,"velocity":0.8661417322834646,"pitch":71,"id":"20ce2206-e4cd-4ab7-868b-f39de1aed1c4"},{"length":256,"position":202752,"velocity":0.8661417322834646,"pitch":69,"id":"ed1ee5a9-e789-426a-9873-1da9478e6c73"},{"length":256,"position":203040,"velocity":0.8661417322834646,"pitch":69,"id":"e1fcd9c9-9783-4063-a0a3-12d73404da06"},{"length":286,"position":203328,"velocity":0.8661417322834646,"pitch":57,"id":"fa5c3614-276d-4843-ad0d-ad1d7d172c9e"},{"length":256,"position":203616,"velocity":0.8661417322834646,"pitch":69,"id":"21202139-4ef3-4b20-86ad-9484e52b7731"},{"length":160,"position":203904,"velocity":0.8661417322834646,"pitch":57,"id":"058867ea-d4fe-44f1-975b-fe1c012af900"},{"length":160,"position":204096,"velocity":0.8661417322834646,"pitch":64,"id":"40f6c8b1-7ab4-4925-bbc4-ef45faecb657"},{"length":720,"position":204288,"velocity":0.8661417322834646,"pitch":62,"id":"c2df93ca-fa13-4f18-8903-a1d7197ccc6b"},{"length":94,"position":205152,"velocity":0.8661417322834646,"pitch":74,"id":"0a211d1f-ed7f-44d3-83e1-ece2a40b23cd"},{"length":94,"position":205248,"velocity":0.8661417322834646,"pitch":73,"id":"ab9c5955-c9ea-4dfc-b901-9ab178ad9d46"},{"length":94,"position":205344,"velocity":0.8661417322834646,"pitch":74,"id":"4c8b9a5e-131f-4468-b988-d59f64633e0b"},{"length":94,"position":205440,"velocity":0.8661417322834646,"pitch":76,"id":"a9fe8817-6ca0-41e8-9856-a03cef35da0d"},{"length":94,"position":205536,"velocity":0.8661417322834646,"pitch":78,"id":"b948b737-bed7-4de5-8083-af216256f69d"},{"length":94,"position":205632,"velocity":0.8661417322834646,"pitch":79,"id":"cffa95ea-c31c-4861-9f97-16a40d88c0a6"},{"length":94,"position":205728,"velocity":0.8661417322834646,"pitch":81,"id":"6735db09-dc3f-4f4e-a0a4-db314e6f58bc"},{"length":336,"position":205824,"velocity":0.8661417322834646,"pitch":83,"id":"de4a691f-19fe-4b6b-94b4-2cc3b107ab90"},{"length":336,"position":206208,"velocity":0.8661417322834646,"pitch":82,"id":"6c1cd474-2721-4ba3-9806-492abf866c31"},{"length":336,"position":206592,"velocity":0.8661417322834646,"pitch":81,"id":"14ef5ec2-3530-4e8b-a7a5-25eb387088db"},{"length":160,"position":206976,"velocity":0.8661417322834646,"pitch":83,"id":"51e86d55-40a1-4b4e-ba37-3f90349da678"},{"length":160,"position":207168,"velocity":0.8661417322834646,"pitch":78,"id":"e5e8c17e-f09a-4c0f-a3f8-215198ace867"},{"length":336,"position":207360,"velocity":0.8661417322834646,"pitch":79,"id":"ba850af5-4467-45fa-9468-dec6ce8e200c"},{"length":336,"position":207744,"velocity":0.8661417322834646,"pitch":81,"id":"f6bbd77a-30da-4bd0-8f83-1fab05e6e27d"},{"length":336,"position":208128,"velocity":0.8661417322834646,"pitch":78,"id":"a18aee9c-73d8-4733-83bf-680d87e53170"},{"length":94,"position":208608,"velocity":0.8661417322834646,"pitch":81,"id":"ecddeb37-a03a-4dc0-ba63-61abab708a01"},{"length":94,"position":208704,"velocity":0.8661417322834646,"pitch":83,"id":"7b98bf5a-3553-4986-9d9c-e84fd87aa6dc"},{"length":94,"position":208800,"velocity":0.8661417322834646,"pitch":85,"id":"259e876f-33ac-45c9-94eb-018ec9ac7ed7"},{"length":336,"position":208896,"velocity":0.8661417322834646,"pitch":86,"id":"8fdfd0c7-d852-410d-9189-341e8ed25825"},{"length":94,"position":209376,"velocity":0.8661417322834646,"pitch":85,"id":"fe1680a9-aac0-4ea4-a740-fbd351f908a8"},{"length":94,"position":209472,"velocity":0.8661417322834646,"pitch":86,"id":"8f6e4087-6802-4f01-a216-f23d64b9153e"},{"length":94,"position":209568,"velocity":0.8661417322834646,"pitch":88,"id":"99e4da18-6699-4609-99ea-1330da8840a6"},{"length":336,"position":209664,"velocity":0.8661417322834646,"pitch":90,"id":"3f91beb8-e21b-4dbb-9f89-1516a82e1713"},{"length":160,"position":210048,"velocity":0.8661417322834646,"pitch":81,"id":"0656a72b-4305-43c1-b489-18df51b60fa0"},{"length":160,"position":210240,"velocity":0.8661417322834646,"pitch":90,"id":"cead29ee-d5c8-4a6c-acc9-b442696643ea"},{"length":336,"position":210432,"velocity":0.8661417322834646,"pitch":88,"id":"c22e0654-50f8-498a-95cf-12306948c757"},{"length":160,"position":210816,"velocity":0.8661417322834646,"pitch":86,"id":"188bb83c-b697-4384-aed2-eeb11905c279"},{"length":160,"position":211008,"velocity":0.8661417322834646,"pitch":85,"id":"87291563-3dc8-456e-a4dd-5d0fe678dbe9"},{"length":720,"position":211200,"velocity":0.8661417322834646,"pitch":86,"id":"d3da793f-80a4-4be2-b3dc-365f6e861fee"},{"length":46,"position":211968,"velocity":0.8661417322834646,"pitch":61,"id":"6a1350ef-0242-4d0d-89cd-6b4b2784da01"},{"length":46,"position":212016,"velocity":0.8661417322834646,"pitch":62,"id":"a3ca397a-e0ed-4eb1-b69f-b672c64674d7"},{"length":46,"position":212064,"velocity":0.8661417322834646,"pitch":61,"id":"2220f1d2-9313-446b-ae33-8e0438507f21"},{"length":46,"position":212112,"velocity":0.8661417322834646,"pitch":62,"id":"8a927e4a-44f5-4dce-9a0b-b5cceff6ddf0"},{"length":46,"position":212160,"velocity":0.8661417322834646,"pitch":64,"id":"7a979e70-9b91-4526-89a2-b9d3bd3acc92"},{"length":46,"position":212208,"velocity":0.8661417322834646,"pitch":62,"id":"614976fb-b43d-4e7f-a24c-633ed9962971"},{"length":46,"position":212256,"velocity":0.8661417322834646,"pitch":61,"id":"bed50ca6-4f92-487b-8adc-3004fa468651"},{"length":46,"position":212304,"velocity":0.8661417322834646,"pitch":62,"id":"e88b4027-d026-4264-8f85-0355ea7e4ec8"},{"length":46,"position":212352,"velocity":0.8661417322834646,"pitch":61,"id":"1c93e0d5-bff6-498f-8cec-af7e07154d8f"},{"length":46,"position":212400,"velocity":0.8661417322834646,"pitch":62,"id":"93f6da36-2ec4-4f35-a8bc-d3006e530359"},{"length":46,"position":212448,"velocity":0.8661417322834646,"pitch":61,"id":"623f57f1-5b90-4557-8ea5-f6b735f7909a"},{"length":46,"position":212496,"velocity":0.8661417322834646,"pitch":62,"id":"a0ba9d80-24f6-48fe-80d8-f516deefa932"},{"length":46,"position":212544,"velocity":0.8661417322834646,"pitch":64,"id":"47c576b1-c08b-4ffd-b37b-e8163e92b83b"},{"length":46,"position":212592,"velocity":0.8661417322834646,"pitch":62,"id":"8524665c-43c4-497a-b572-b9c46a1a8a8a"},{"length":46,"position":212640,"velocity":0.8661417322834646,"pitch":61,"id":"05538d5a-cca0-4085-b4cc-1d064fec64ad"},{"length":46,"position":212688,"velocity":0.8661417322834646,"pitch":62,"id":"d2526809-2bed-4c36-b2ef-bdd8752565d4"},{"length":46,"position":212736,"velocity":0.8661417322834646,"pitch":61,"id":"cc5f950f-7fb0-426d-9d75-158545082ff4"},{"length":46,"position":212784,"velocity":0.8661417322834646,"pitch":62,"id":"0ca61efa-8dca-4fd0-a440-fa99ad78f54d"},{"length":46,"position":212832,"velocity":0.8661417322834646,"pitch":61,"id":"37b32d78-b46c-4346-8b2e-19c8ed47e5df"},{"length":46,"position":212880,"velocity":0.8661417322834646,"pitch":62,"id":"c442ae5b-57e1-4966-a1c7-882a80b7e28d"},{"length":46,"position":212928,"velocity":0.8661417322834646,"pitch":67,"id":"496f0c70-0179-4c4d-bf60-88676111638c"},{"length":46,"position":212976,"velocity":0.8661417322834646,"pitch":62,"id":"fe2ed855-fef2-4049-abe4-84631cc72bf2"},{"length":46,"position":213024,"velocity":0.8661417322834646,"pitch":61,"id":"4d8aaf1a-0ab5-4c16-a1bc-c28908f54b93"},{"length":46,"position":213072,"velocity":0.8661417322834646,"pitch":62,"id":"3fc062ed-aea4-4b0b-a459-c605108b6c8b"},{"length":46,"position":213120,"velocity":0.8661417322834646,"pitch":69,"id":"1e74f905-6461-49a3-8bf5-6d187ee11b83"},{"length":46,"position":213168,"velocity":0.8661417322834646,"pitch":62,"id":"785d76c5-1ec9-4578-aba1-024812b12f08"},{"length":46,"position":213216,"velocity":0.8661417322834646,"pitch":61,"id":"b4189f60-1900-4c66-8429-53ad5d0ada55"},{"length":46,"position":213264,"velocity":0.8661417322834646,"pitch":62,"id":"d25a1a36-0d2e-41ce-b70c-7ecccfb95118"},{"length":46,"position":213312,"velocity":0.8661417322834646,"pitch":67,"id":"eddadb49-5c51-459b-9b1f-d09c38322dc8"},{"length":46,"position":213360,"velocity":0.8661417322834646,"pitch":62,"id":"43243b5f-52d1-4990-b5c1-4074a726276b"},{"length":46,"position":213408,"velocity":0.8661417322834646,"pitch":61,"id":"4dbb29e2-6715-44e8-9a2a-7f5a1e7f1015"},{"length":46,"position":213456,"velocity":0.8661417322834646,"pitch":62,"id":"d158de57-bef4-4e2a-a12a-8a2013fb32c6"},{"length":46,"position":213504,"velocity":0.8661417322834646,"pitch":61,"id":"3704392f-0fb5-4cb8-bfe8-75bb067afa70"},{"length":46,"position":213552,"velocity":0.8661417322834646,"pitch":62,"id":"97695cc7-babb-477b-b8f7-6276b4fc033b"},{"length":46,"position":213600,"velocity":0.8661417322834646,"pitch":61,"id":"45f0cb0e-c3aa-4fcc-bfa7-eb813eec2462"},{"length":46,"position":213648,"velocity":0.8661417322834646,"pitch":62,"id":"f191659d-dbf4-49e9-9725-b1b30555f0bb"},{"length":46,"position":213696,"velocity":0.8661417322834646,"pitch":64,"id":"d467d67c-d384-456f-bf48-7304fa80cb58"},{"length":46,"position":213744,"velocity":0.8661417322834646,"pitch":62,"id":"956961ec-bc81-4aa0-9501-410f69bf9afb"},{"length":46,"position":213792,"velocity":0.8661417322834646,"pitch":61,"id":"3cafb168-a044-4475-86ff-1d2319744eca"},{"length":46,"position":213840,"velocity":0.8661417322834646,"pitch":62,"id":"8782553c-5578-4752-9da4-4d3218d7c209"},{"length":46,"position":213888,"velocity":0.8661417322834646,"pitch":61,"id":"0ce301c7-ce14-460c-b00c-fd1ab8b9a745"},{"length":46,"position":213936,"velocity":0.8661417322834646,"pitch":62,"id":"181203cd-d13c-4050-815e-6d5f406f7a8f"},{"length":46,"position":213984,"velocity":0.8661417322834646,"pitch":61,"id":"5e9fa93f-1fff-4e5b-b2e0-677392fd07d9"},{"length":46,"position":214032,"velocity":0.8661417322834646,"pitch":62,"id":"bbff8837-a9cd-4f3e-8a8f-dc1d1f3156d0"},{"length":46,"position":214080,"velocity":0.8661417322834646,"pitch":64,"id":"ba7b5472-a938-4b28-b874-d0c7f3f46ec5"},{"length":46,"position":214128,"velocity":0.8661417322834646,"pitch":62,"id":"a5065f11-5ab8-4245-892c-b4ba470f19b0"},{"length":46,"position":214176,"velocity":0.8661417322834646,"pitch":61,"id":"be59e9a2-0f1b-477c-9fe0-4f921983e65c"},{"length":46,"position":214224,"velocity":0.8661417322834646,"pitch":62,"id":"66c6ee85-22c9-4932-b471-8501adf8e777"},{"length":46,"position":214272,"velocity":0.8661417322834646,"pitch":61,"id":"373918c6-b891-4416-a61a-9617ec7db664"},{"length":46,"position":214320,"velocity":0.8661417322834646,"pitch":62,"id":"1e244995-8bab-4ab0-9340-12afa6c15bb6"},{"length":46,"position":214368,"velocity":0.8661417322834646,"pitch":61,"id":"199b1d41-24dc-4761-8cdb-ceb32a2ec060"},{"length":46,"position":214416,"velocity":0.8661417322834646,"pitch":62,"id":"a2145318-89fc-4ede-8375-1d5020259083"},{"length":46,"position":214464,"velocity":0.8661417322834646,"pitch":67,"id":"5b440ecf-46fb-4e64-83a3-98bc1c983458"},{"length":46,"position":214512,"velocity":0.8661417322834646,"pitch":62,"id":"90acb1b0-8ea0-4905-8ab7-ed71d4095d10"},{"length":46,"position":214560,"velocity":0.8661417322834646,"pitch":61,"id":"8e7238f2-3267-4180-9e0c-20e0f4424e6d"},{"length":46,"position":214608,"velocity":0.8661417322834646,"pitch":62,"id":"7a801f9e-493d-4a1e-898a-fd9b148cd395"},{"length":46,"position":214656,"velocity":0.8661417322834646,"pitch":69,"id":"33879acd-f189-4de5-8c08-3d01b2d093a1"},{"length":46,"position":214704,"velocity":0.8661417322834646,"pitch":62,"id":"3fb58c0e-1d2a-407f-b775-f63e6704e289"},{"length":46,"position":214752,"velocity":0.8661417322834646,"pitch":61,"id":"c3f5f03f-e775-4fde-b806-a43c4565f0b3"},{"length":46,"position":214800,"velocity":0.8661417322834646,"pitch":62,"id":"1e7942f1-dca0-42e0-919a-63b9d29381bc"},{"length":46,"position":214848,"velocity":0.8661417322834646,"pitch":67,"id":"423beacf-47d6-49fc-9db0-8cc3511a4d1d"},{"length":46,"position":214896,"velocity":0.8661417322834646,"pitch":62,"id":"366460a0-c35a-4eb9-af30-ad00b7a53446"},{"length":46,"position":214944,"velocity":0.8661417322834646,"pitch":61,"id":"57830b79-4294-4ed7-acc7-198d1569ddc5"},{"length":46,"position":214992,"velocity":0.8661417322834646,"pitch":62,"id":"4a19d9bc-3936-47dd-8e57-eccbcc236e03"},{"length":160,"position":215040,"velocity":0.8661417322834646,"pitch":74,"id":"f1d08846-aa12-458d-9cb7-f91da51ff337"},{"length":160,"position":215040,"velocity":0.8661417322834646,"pitch":79,"id":"5ed71ff7-0d00-4fab-8297-4d89f4216a9f"},{"length":160,"position":215040,"velocity":0.8661417322834646,"pitch":81,"id":"b3f9d248-cd2f-47ab-9a84-292abc603a08"},{"length":160,"position":215424,"velocity":0.8661417322834646,"pitch":74,"id":"fb5fd3e7-3752-4766-a40f-f46c31cdfbd1"},{"length":160,"position":215424,"velocity":0.8661417322834646,"pitch":79,"id":"01496e7e-f02d-46bc-a4a6-32be07f070be"},{"length":160,"position":215424,"velocity":0.8661417322834646,"pitch":81,"id":"914e70ed-71e8-4734-bd97-15aef961a990"},{"length":160,"position":215808,"velocity":0.8661417322834646,"pitch":74,"id":"9ac307f4-1a42-4e9e-be4e-3e8d5965b345"},{"length":160,"position":215808,"velocity":0.8661417322834646,"pitch":79,"id":"020bebb5-260f-4750-8403-848a910badf5"},{"length":160,"position":215808,"velocity":0.8661417322834646,"pitch":81,"id":"d96fa565-b137-4c8e-a633-4b3a89056c03"},{"length":160,"position":216000,"velocity":0.8661417322834646,"pitch":78,"id":"b1df6e52-e136-4408-b463-b43ea0ac9fc9"},{"length":160,"position":216192,"velocity":0.8661417322834646,"pitch":76,"id":"fab7ac55-3dd1-4a87-a9eb-5b6b3543b423"},{"length":160,"position":216384,"velocity":0.8661417322834646,"pitch":75,"id":"60c097be-f27d-40d1-8d08-d93b48791a7e"},{"length":160,"position":216576,"velocity":0.8661417322834646,"pitch":67,"id":"114e1ea0-c5db-4bf7-8e2e-72fc381adc6f"},{"length":160,"position":216576,"velocity":0.8661417322834646,"pitch":72,"id":"6b4528b0-f71f-4ec6-834b-766fc0acc283"},{"length":160,"position":216576,"velocity":0.8661417322834646,"pitch":74,"id":"f1282015-169c-484c-a198-e00e8b45ab12"},{"length":160,"position":216960,"velocity":0.8661417322834646,"pitch":67,"id":"024ef21a-3033-429c-8a7a-75ab83f9776b"},{"length":160,"position":216960,"velocity":0.8661417322834646,"pitch":72,"id":"9e1fdb1d-52eb-41cf-b0b0-8ab348a416a0"},{"length":160,"position":216960,"velocity":0.8661417322834646,"pitch":74,"id":"6179c55d-42d4-432e-8141-39fa7cee3fd2"},{"length":160,"position":217344,"velocity":0.8661417322834646,"pitch":67,"id":"537efa56-d0d3-4a21-92a3-f1bafb1eefce"},{"length":160,"position":217344,"velocity":0.8661417322834646,"pitch":72,"id":"82012a44-25b5-4e79-ad8f-5838f5954d5b"},{"length":160,"position":217344,"velocity":0.8661417322834646,"pitch":74,"id":"2c839bae-0834-4de9-93ac-3bf56e41c489"},{"length":46,"position":217632,"velocity":0.8661417322834646,"pitch":67,"id":"263e568d-2e9b-435d-8018-f5f4457de361"},{"length":46,"position":217632,"velocity":0.8661417322834646,"pitch":71,"id":"ecf51319-9ad0-4cd7-85ee-12e08d74c5f0"},{"length":46,"position":217680,"velocity":0.8661417322834646,"pitch":67,"id":"b49c40fa-377f-48d0-ba7b-ec35bbfc5ddd"},{"length":46,"position":217680,"velocity":0.8661417322834646,"pitch":72,"id":"7b61c50d-3400-4080-b567-8bac8e5d7eb8"},{"length":160,"position":217728,"velocity":0.8661417322834646,"pitch":67,"id":"0e4704a9-d860-40f2-9f34-43afa4d3f55a"},{"length":160,"position":217728,"velocity":0.8661417322834646,"pitch":72,"id":"71aca13d-7bed-4400-9d7f-39a320795b16"},{"length":160,"position":217728,"velocity":0.8661417322834646,"pitch":74,"id":"077a502b-15c2-475c-9fa3-b4a41cfb61e1"},{"length":160,"position":217920,"velocity":0.8661417322834646,"pitch":67,"id":"de00b2b9-17f1-4b40-9fe3-09eb4aef9c3b"},{"length":160,"position":217920,"velocity":0.8661417322834646,"pitch":74,"id":"acca2738-4ffd-47c2-96da-a23443496f07"},{"length":160,"position":217920,"velocity":0.8661417322834646,"pitch":76,"id":"e89e53f4-f086-4e8c-8437-8a1c8bc36ec4"},{"length":160,"position":218112,"velocity":0.8661417322834646,"pitch":69,"id":"b1e92dfc-2b24-451d-bc4f-9099c84c406c"},{"length":160,"position":218112,"velocity":0.8661417322834646,"pitch":72,"id":"02fa8e18-45fd-4979-9aef-109a705b0e85"},{"length":160,"position":218112,"velocity":0.8661417322834646,"pitch":74,"id":"48c5dca5-9b0c-40b3-8c23-f980cf0d19fa"},{"length":94,"position":218400,"velocity":0.8661417322834646,"pitch":74,"id":"b7ec81cf-f11b-49b3-a5c3-f693497b415d"},{"length":160,"position":218496,"velocity":0.8661417322834646,"pitch":69,"id":"e8f595a6-806d-4e83-a6bf-49f6ce9e6b0c"},{"length":160,"position":218496,"velocity":0.8661417322834646,"pitch":78,"id":"54393874-de0e-49e5-b94b-53e940c128c4"},{"length":160,"position":218688,"velocity":0.8661417322834646,"pitch":81,"id":"ba4d86c3-4923-40eb-9446-dc0c7033df57"},{"length":160,"position":218880,"velocity":0.8661417322834646,"pitch":80,"id":"624c5570-6389-4ed4-9ea5-9c2c08122941"},{"length":160,"position":219072,"velocity":0.8661417322834646,"pitch":81,"id":"c7b896c9-398e-4ecb-90c6-bdcc06940777"},{"length":46,"position":219264,"velocity":0.8661417322834646,"pitch":80,"id":"09178d46-ea31-4a35-9167-80b059afb785"},{"length":46,"position":219312,"velocity":0.8661417322834646,"pitch":81,"id":"c408f4d0-c09d-4ca2-9407-c59d6e4298c2"},{"length":46,"position":219360,"velocity":0.8661417322834646,"pitch":80,"id":"24133a47-f9ed-4a09-865d-fc805325808c"},{"length":46,"position":219408,"velocity":0.8661417322834646,"pitch":78,"id":"742c7cc4-fb03-421e-a7bd-2d25905c4b5c"},{"length":94,"position":219456,"velocity":0.8661417322834646,"pitch":74,"id":"23ea71b3-711c-4808-85e1-8cbed95113e1"},{"length":94,"position":219552,"velocity":0.8661417322834646,"pitch":69,"id":"21573999-1610-4204-a86c-8afe723aad47"},{"length":142,"position":219648,"velocity":0.8661417322834646,"pitch":71,"id":"3e1273c9-969a-46b7-95b0-d913fcb57f2f"},{"length":46,"position":219792,"velocity":0.8661417322834646,"pitch":73,"id":"e710d251-44f4-4dea-b5dd-7f067ef05571"},{"length":142,"position":219840,"velocity":0.8661417322834646,"pitch":74,"id":"c9fc2c4d-80bd-47dc-a88b-cef7a1228ec3"},{"length":46,"position":219984,"velocity":0.8661417322834646,"pitch":76,"id":"b2d01269-16c8-4fbf-8fcd-7bda778ac5d6"},{"length":46,"position":220032,"velocity":0.8661417322834646,"pitch":78,"id":"c2ce3b2e-ea00-44a6-ab0e-6d7467eee838"},{"length":46,"position":220080,"velocity":0.8661417322834646,"pitch":77,"id":"839f8721-a6b3-40d4-aff4-4e6ffede93da"},{"length":46,"position":220128,"velocity":0.8661417322834646,"pitch":78,"id":"dda53ab9-8c91-4bd8-ae73-de33ea28dbcc"},{"length":46,"position":220176,"velocity":0.8661417322834646,"pitch":79,"id":"ca43d20e-4d2d-45b3-8a4d-12d71f066ee5"},{"length":46,"position":220224,"velocity":0.8661417322834646,"pitch":81,"id":"961df4a9-3ef5-44b6-af56-7f3b145b641b"},{"length":46,"position":220272,"velocity":0.8661417322834646,"pitch":79,"id":"a0c9804d-1ca9-44f7-b40c-8526dece5489"},{"length":46,"position":220320,"velocity":0.8661417322834646,"pitch":78,"id":"430fab8a-bb63-4078-918c-36899187bfbd"},{"length":46,"position":220368,"velocity":0.8661417322834646,"pitch":76,"id":"f1033994-023c-415c-b09a-da9cbc037935"},{"length":46,"position":220416,"velocity":0.8661417322834646,"pitch":74,"id":"7cec66e4-8005-48e9-9181-513142617588"},{"length":46,"position":220464,"velocity":0.8661417322834646,"pitch":73,"id":"80110fff-3804-4689-bab9-d64aaeb05e55"},{"length":46,"position":220512,"velocity":0.8661417322834646,"pitch":74,"id":"da836ba3-a311-4005-808c-a2802ba7427f"},{"length":46,"position":220560,"velocity":0.8661417322834646,"pitch":81,"id":"23cc4edd-5e7b-4b4b-a70f-6c63d1fbf1fa"},{"length":46,"position":220608,"velocity":0.8661417322834646,"pitch":73,"id":"462ee287-d805-4f5b-8649-8414c6ccdb17"},{"length":46,"position":220656,"velocity":0.8661417322834646,"pitch":72,"id":"f17022d2-f778-4d82-b9b7-5a9014b447c3"},{"length":46,"position":220704,"velocity":0.8661417322834646,"pitch":73,"id":"65c72baf-e80b-4b0c-a2c0-69db26656413"},{"length":46,"position":220752,"velocity":0.8661417322834646,"pitch":81,"id":"44630710-8239-477a-8ba3-266ee27f1429"},{"length":46,"position":220800,"velocity":0.8661417322834646,"pitch":73,"id":"7633ba7f-232a-43d8-b104-9966a4943063"},{"length":46,"position":220848,"velocity":0.8661417322834646,"pitch":72,"id":"2edcd475-79f3-4055-902e-aebb5de8c4ca"},{"length":46,"position":220896,"velocity":0.8661417322834646,"pitch":71,"id":"bfd7f954-a614-4507-9770-73d6c24ed743"},{"length":46,"position":220944,"velocity":0.8661417322834646,"pitch":70,"id":"c2170504-99a3-4c51-aaed-1f358e91efeb"},{"length":46,"position":220992,"velocity":0.8661417322834646,"pitch":69,"id":"9627eee9-c7f5-4379-beb4-f28b066601df"},{"length":46,"position":221040,"velocity":0.8661417322834646,"pitch":68,"id":"8045b245-a82f-402a-aea8-f03266498830"},{"length":46,"position":221088,"velocity":0.8661417322834646,"pitch":67,"id":"dca02eb9-a720-4c84-8647-7ff704957cf3"},{"length":46,"position":221136,"velocity":0.8661417322834646,"pitch":64,"id":"c33d3add-a5dd-4d60-ade1-d8fe95d2d996"},{"length":94,"position":221952,"velocity":0.8661417322834646,"pitch":69,"id":"5331576f-03fc-43ed-b442-fa35d014ab1f"},{"length":94,"position":222048,"velocity":0.8661417322834646,"pitch":74,"id":"64c9d597-3398-48e4-bbac-c55f4b1017ca"},{"length":94,"position":222048,"velocity":0.8661417322834646,"pitch":86,"id":"26c33f9f-199f-4d25-8f6a-765b18fa7e1c"},{"length":94,"position":222144,"velocity":0.8661417322834646,"pitch":77,"id":"aa6e8139-1b7f-4c1d-b949-fd5a869b1c0d"},{"length":94,"position":222144,"velocity":0.8661417322834646,"pitch":81,"id":"43b77967-c585-4025-baed-ca658f334778"},{"length":816,"position":222240,"velocity":0.8661417322834646,"pitch":76,"id":"b597dc5f-85c4-4ea6-8212-474203e0f284"},{"length":816,"position":222240,"velocity":0.8661417322834646,"pitch":80,"id":"ee2dc409-61a1-4ff1-ab86-cbddc218c7fa"},{"length":94,"position":225024,"velocity":0.8661417322834646,"pitch":69,"id":"e4efcad4-652b-42d5-915f-fd85d75b54cd"},{"length":94,"position":225120,"velocity":0.8661417322834646,"pitch":74,"id":"aca6df0e-d19d-4385-9066-11daa74e388b"},{"length":94,"position":225120,"velocity":0.8661417322834646,"pitch":86,"id":"76556849-f5a4-4ecb-b1d1-47a6a0355216"},{"length":94,"position":225216,"velocity":0.8661417322834646,"pitch":77,"id":"03ab6793-03a5-4b13-a03a-363cc54c4e95"},{"length":94,"position":225216,"velocity":0.8661417322834646,"pitch":81,"id":"e45f4174-0277-489a-98f5-ba4fbaa545af"},{"length":640,"position":225312,"velocity":0.8661417322834646,"pitch":76,"id":"546216f8-0bc8-42f3-85ec-4cf32b47183d"},{"length":640,"position":225312,"velocity":0.8661417322834646,"pitch":80,"id":"2614e7c9-1a22-49de-a45b-fc88313dd485"},{"length":160,"position":225984,"velocity":0.8661417322834646,"pitch":83,"id":"7d371de4-102d-468c-9ab0-ae7cc4013c4c"},{"length":160,"position":225984,"velocity":0.8661417322834646,"pitch":95,"id":"bcec2522-e5ed-4e14-ab26-4eefa914db76"},{"length":94,"position":228096,"velocity":0.8661417322834646,"pitch":69,"id":"5a009ef9-a0cb-4a13-a957-0968bafc6299"},{"length":94,"position":228192,"velocity":0.8661417322834646,"pitch":74,"id":"18f54cd3-7750-4b26-8a4a-edc377defe54"},{"length":94,"position":228192,"velocity":0.8661417322834646,"pitch":86,"id":"0562d586-df1e-4efa-ad36-24f51c31b9f2"},{"length":94,"position":228288,"velocity":0.8661417322834646,"pitch":77,"id":"9489ff33-98ce-4cba-b5bf-def43a25622e"},{"length":94,"position":228288,"velocity":0.8661417322834646,"pitch":81,"id":"0bc0b780-94b4-4d96-b30f-d9c0b5b0a706"},{"length":432,"position":228384,"velocity":0.8661417322834646,"pitch":76,"id":"22e67078-428c-41b1-8dba-2bb6d5b3e6d9"},{"length":432,"position":228384,"velocity":0.8661417322834646,"pitch":80,"id":"e9e31ea3-fe82-4471-8801-cf59c3a2216f"},{"length":46,"position":228912,"velocity":0.8661417322834646,"pitch":69,"id":"4abf23ef-4e64-4dac-bfbc-485ca9267f4f"},{"length":46,"position":228960,"velocity":0.8661417322834646,"pitch":74,"id":"1a31378e-63fc-4d81-8356-d486c579b5b4"},{"length":46,"position":229008,"velocity":0.8661417322834646,"pitch":81,"id":"3bef90a8-306c-4154-b290-ba87baee73d9"},{"length":46,"position":229056,"velocity":0.8661417322834646,"pitch":80,"id":"125eb8e2-7f17-4e86-9c6c-97ca0165b534"},{"length":46,"position":229104,"velocity":0.8661417322834646,"pitch":69,"id":"a733f1f9-de15-4ac7-94cc-0cf3628eb4ec"},{"length":46,"position":229152,"velocity":0.8661417322834646,"pitch":74,"id":"81591bcf-1b40-4b05-9655-41a1d29d4f4a"},{"length":46,"position":229200,"velocity":0.8661417322834646,"pitch":79,"id":"c0a2d39d-76c3-42c8-9b25-b49de08fe7be"},{"length":46,"position":229248,"velocity":0.8661417322834646,"pitch":77,"id":"a50c71f4-2039-4499-859c-92e0b742d01b"},{"length":46,"position":229296,"velocity":0.8661417322834646,"pitch":69,"id":"5c2587a6-c281-4a2c-8f3f-3999ad266cd0"},{"length":46,"position":229344,"velocity":0.8661417322834646,"pitch":74,"id":"bea9dcb8-c40f-4534-bf86-6bd229b25f77"},{"length":46,"position":229392,"velocity":0.8661417322834646,"pitch":77,"id":"da9a1669-2b6a-404c-bd93-6b714a8fac7b"},{"length":46,"position":229440,"velocity":0.8661417322834646,"pitch":76,"id":"30f93291-7a68-4c1e-a334-7aed07d86546"},{"length":46,"position":229488,"velocity":0.8661417322834646,"pitch":67,"id":"10bee950-6b79-4599-b41c-bdb3ddc0260e"},{"length":46,"position":229536,"velocity":0.8661417322834646,"pitch":73,"id":"14bbb8f6-93d0-457e-a81b-9c611ff75c48"},{"length":46,"position":229584,"velocity":0.8661417322834646,"pitch":76,"id":"20448074-6935-4304-b7f4-5bf7b85a400c"},{"length":94,"position":229632,"velocity":0.8661417322834646,"pitch":74,"id":"577d35e8-edc1-4cdb-a4f2-73d0e1ccb82e"},{"length":46,"position":229728,"velocity":0.8661417322834646,"pitch":69,"id":"084567e9-9737-4ff0-b462-0a87b3ef7699"},{"length":46,"position":229776,"velocity":0.8661417322834646,"pitch":74,"id":"26a159dd-4133-4c35-b58d-605af7977e55"},{"length":94,"position":229824,"velocity":0.8661417322834646,"pitch":73,"id":"4b528114-1d8b-43a4-9ace-52b3a41cc783"},{"length":46,"position":229920,"velocity":0.8661417322834646,"pitch":67,"id":"49c1d9b9-07f7-4d3f-8ba9-d95a61069503"},{"length":46,"position":229968,"velocity":0.8661417322834646,"pitch":70,"id":"753d2a95-f9a3-4267-877a-de9e68b9b20b"},{"length":94,"position":230016,"velocity":0.8661417322834646,"pitch":69,"id":"c7ae2d91-b7f2-4b82-b621-704dd0bdc24b"},{"length":46,"position":230112,"velocity":0.8661417322834646,"pitch":69,"id":"55e744c3-4e7e-4ada-9d83-a53fbdddd7f3"},{"length":46,"position":230160,"velocity":0.8661417322834646,"pitch":74,"id":"bfc17cb9-b25c-4287-9d95-e106ca503d6d"},{"length":46,"position":230208,"velocity":0.8661417322834646,"pitch":77,"id":"d35d96ac-bd24-41a1-a947-6509ac38cbc5"},{"length":46,"position":230256,"velocity":0.8661417322834646,"pitch":69,"id":"4c90deec-a017-49bb-94ce-074ed35b93e2"},{"length":46,"position":230304,"velocity":0.8661417322834646,"pitch":74,"id":"3fd9700e-1d67-4793-bb99-e5b6a95019bb"},{"length":46,"position":230352,"velocity":0.8661417322834646,"pitch":77,"id":"47960f04-42e2-406d-979f-f582c66515f8"},{"length":46,"position":230400,"velocity":0.8661417322834646,"pitch":70,"id":"de95414b-f0e7-4cd6-90dc-47d10baf10dc"},{"length":46,"position":230448,"velocity":0.8661417322834646,"pitch":67,"id":"7016625e-59aa-4b64-b6da-b9da0f13185d"},{"length":46,"position":230496,"velocity":0.8661417322834646,"pitch":70,"id":"be6a08ab-2616-479e-b0c6-cd45d999ea4a"},{"length":46,"position":230544,"velocity":0.8661417322834646,"pitch":73,"id":"b20a86c2-6323-44d6-a22d-ed553fe3802f"},{"length":46,"position":230592,"velocity":0.8661417322834646,"pitch":76,"id":"dfa8f9df-6d6d-43af-b848-061377bb4e12"},{"length":46,"position":230640,"velocity":0.8661417322834646,"pitch":70,"id":"43e12bbf-f2c1-454c-8a45-257e91c2ef13"},{"length":46,"position":230688,"velocity":0.8661417322834646,"pitch":73,"id":"343db8b0-d108-4fe9-90dd-64417dc5ad35"},{"length":46,"position":230736,"velocity":0.8661417322834646,"pitch":76,"id":"86e613a1-a6c7-41d8-b8c0-691d0713278a"},{"length":46,"position":230784,"velocity":0.8661417322834646,"pitch":77,"id":"63969e8b-8186-4a6c-abad-fc3281b8f3b5"},{"length":46,"position":230832,"velocity":0.8661417322834646,"pitch":81,"id":"df923f83-29d5-4dc8-8cd4-491d7e59e26f"},{"length":46,"position":230880,"velocity":0.8661417322834646,"pitch":86,"id":"0463cdc9-f46b-4a6f-8386-cca79e9e0ce7"},{"length":46,"position":230928,"velocity":0.8661417322834646,"pitch":81,"id":"2d93ec4a-9c1f-4a40-bf67-845e244854b6"},{"length":46,"position":230976,"velocity":0.8661417322834646,"pitch":77,"id":"e8a83192-da4f-47d4-be1e-9ab6db09a1d3"},{"length":46,"position":231024,"velocity":0.8661417322834646,"pitch":86,"id":"add8d277-e1e4-4449-b1fb-8360e9629c65"},{"length":46,"position":231072,"velocity":0.8661417322834646,"pitch":81,"id":"778b8dde-4f49-4e43-b95e-f47831b88f0b"},{"length":46,"position":231120,"velocity":0.8661417322834646,"pitch":77,"id":"9b1ad4ab-16b3-4d38-929b-6fd7457ccd40"},{"length":46,"position":231168,"velocity":0.8661417322834646,"pitch":76,"id":"ab39eb64-8d52-4f78-9793-e949a89b89ea"},{"length":46,"position":231216,"velocity":0.8661417322834646,"pitch":79,"id":"0023a3f1-2f0a-40ee-bfda-bd834e3baf39"},{"length":46,"position":231264,"velocity":0.8661417322834646,"pitch":85,"id":"0627d82d-244d-4e81-85d6-3a2e56938d6e"},{"length":46,"position":231312,"velocity":0.8661417322834646,"pitch":79,"id":"55980ace-e61b-464a-941a-26095e476325"},{"length":46,"position":231360,"velocity":0.8661417322834646,"pitch":76,"id":"c9f5f3a7-ffd4-40ae-b37d-fded5bbd7cf4"},{"length":46,"position":231408,"velocity":0.8661417322834646,"pitch":85,"id":"b9a2f1c2-fb19-4d08-aa1b-4b3d27590243"},{"length":46,"position":231456,"velocity":0.8661417322834646,"pitch":79,"id":"8d682848-347d-4ae0-b2f7-f0dfcafba32e"},{"length":46,"position":231504,"velocity":0.8661417322834646,"pitch":76,"id":"5eb51452-2358-4626-9b7f-c25f0b60de32"},{"length":46,"position":231552,"velocity":0.8661417322834646,"pitch":74,"id":"ed1c42d5-e742-43f9-8c5d-a6dc26012fb9"},{"length":46,"position":231600,"velocity":0.8661417322834646,"pitch":77,"id":"2c126260-22b2-4f10-84cd-2d0a82ac2b11"},{"length":46,"position":231648,"velocity":0.8661417322834646,"pitch":81,"id":"f64e941c-9620-46b0-875f-c45ce906edc3"},{"length":46,"position":231696,"velocity":0.8661417322834646,"pitch":77,"id":"476ed558-7c5c-4307-83ed-85f99a7037c2"},{"length":46,"position":231744,"velocity":0.8661417322834646,"pitch":74,"id":"937b42fc-8b0e-4555-8ec6-69db8ae1df1c"},{"length":46,"position":231792,"velocity":0.8661417322834646,"pitch":81,"id":"1a2e2bcf-d48d-45d2-a539-2bb4acdcb374"},{"length":46,"position":231840,"velocity":0.8661417322834646,"pitch":77,"id":"5eb9f116-a4b5-4616-be75-d51804d3e8aa"},{"length":46,"position":231888,"velocity":0.8661417322834646,"pitch":74,"id":"7a49cd1c-79dc-420e-b848-6b72d6cc6096"},{"length":94,"position":231936,"velocity":0.8661417322834646,"pitch":73,"id":"1619f825-7ea0-4746-a1c9-525fd3d926e7"},{"length":94,"position":232032,"velocity":0.8661417322834646,"pitch":69,"id":"d752d8db-cf22-4aad-a50d-945e9758b8cd"},{"length":94,"position":232032,"velocity":0.8661417322834646,"pitch":73,"id":"80e8647e-441b-4191-9db0-170ebe55bceb"},{"length":94,"position":232032,"velocity":0.8661417322834646,"pitch":79,"id":"6227c8ce-8b43-404b-b03f-27bfb56c02da"},{"length":94,"position":232128,"velocity":0.8661417322834646,"pitch":74,"id":"8f3357df-e99c-4868-b131-dea917ca0f43"},{"length":94,"position":232128,"velocity":0.8661417322834646,"pitch":77,"id":"f0aa1df2-591e-493f-ba89-625a84198571"},{"length":94,"position":232128,"velocity":0.8661417322834646,"pitch":82,"id":"bdaedc0a-7fd0-4278-9fca-4f445599490c"},{"length":94,"position":232224,"velocity":0.8661417322834646,"pitch":73,"id":"fc3c3f30-f149-4b0b-a320-a990614af3d6"},{"length":94,"position":232224,"velocity":0.8661417322834646,"pitch":76,"id":"7b673a81-d553-4266-95e4-197e4042a660"},{"length":94,"position":232224,"velocity":0.8661417322834646,"pitch":81,"id":"d9259394-c325-4774-9cd3-c50857a92d09"},{"length":336,"position":232320,"velocity":0.8661417322834646,"pitch":69,"id":"02a2b4bd-5bef-4b47-9785-ae54211ab687"},{"length":336,"position":232320,"velocity":0.8661417322834646,"pitch":73,"id":"5ec1916a-bf59-4963-85a1-72ba40719751"},{"length":336,"position":232320,"velocity":0.8661417322834646,"pitch":79,"id":"e0b6abbe-3e09-4312-9694-5c5fa5e41ac1"},{"length":46,"position":232752,"velocity":0.8661417322834646,"pitch":74,"id":"f1e60abb-c8bf-442b-9a4a-7d6512070a19"},{"length":46,"position":232752,"velocity":0.8661417322834646,"pitch":86,"id":"7e870b09-6b23-4056-8800-e4c200217c1f"},{"length":46,"position":232800,"velocity":0.8661417322834646,"pitch":73,"id":"ce8d9221-5a27-4930-a8d1-74e3d8e05f42"},{"length":46,"position":232800,"velocity":0.8661417322834646,"pitch":85,"id":"3358c5ab-5d8d-48bb-b00b-377955e104a6"},{"length":46,"position":232848,"velocity":0.8661417322834646,"pitch":74,"id":"6e10e29d-eff5-4bd9-b595-0c84782765c6"},{"length":46,"position":232848,"velocity":0.8661417322834646,"pitch":86,"id":"7942b2a7-aa23-4776-9cc9-f3a54527d481"},{"length":46,"position":232896,"velocity":0.8661417322834646,"pitch":75,"id":"554b24e2-8dfd-48b2-93d6-69cb5cb3502b"},{"length":46,"position":232896,"velocity":0.8661417322834646,"pitch":87,"id":"c1d167fd-cf58-421d-a198-a411545b647b"},{"length":46,"position":232944,"velocity":0.8661417322834646,"pitch":74,"id":"9b767d90-9f8a-4f37-8f46-5db9974552de"},{"length":46,"position":232944,"velocity":0.8661417322834646,"pitch":86,"id":"525dc0b7-0ab6-4568-ae99-cb0dcbf6dc4a"},{"length":46,"position":232992,"velocity":0.8661417322834646,"pitch":73,"id":"48952c1e-2403-47a1-84b1-cb7ff536f26e"},{"length":46,"position":232992,"velocity":0.8661417322834646,"pitch":85,"id":"cd34ac93-f6db-48e9-96bd-bab9685fcaae"},{"length":46,"position":233040,"velocity":0.8661417322834646,"pitch":68,"id":"d32a6d87-ed2c-4c82-92cb-7d73530ef8d5"},{"length":46,"position":233040,"velocity":0.8661417322834646,"pitch":80,"id":"4abe6e0c-da54-48e6-a195-ac9bb42e86f2"},{"length":46,"position":233088,"velocity":0.8661417322834646,"pitch":69,"id":"d8cc2bc8-d3e6-42fa-849e-acb3c2800698"},{"length":46,"position":233088,"velocity":0.8661417322834646,"pitch":81,"id":"650ec574-9317-403a-9151-4dfba4927596"},{"length":46,"position":233136,"velocity":0.8661417322834646,"pitch":77,"id":"27d52ade-5ffe-4caa-b980-4161c847a6bb"},{"length":46,"position":233184,"velocity":0.8661417322834646,"pitch":76,"id":"e90c6843-4556-4dc0-8348-2a59e7764d4d"},{"length":46,"position":233232,"velocity":0.8661417322834646,"pitch":77,"id":"8349f45e-ee47-4a85-aea7-ffdd96256413"},{"length":46,"position":233280,"velocity":0.8661417322834646,"pitch":67,"id":"3e8a1daa-825f-4354-853e-c85b0916f237"},{"length":46,"position":233280,"velocity":0.8661417322834646,"pitch":79,"id":"2ab82711-b5fd-478a-b95d-7a0a9f2d6870"},{"length":46,"position":233328,"velocity":0.8661417322834646,"pitch":77,"id":"e012e611-900c-4386-8136-87eae8716af6"},{"length":46,"position":233376,"velocity":0.8661417322834646,"pitch":76,"id":"918555ea-02ff-4214-a52c-69cacdfc0046"},{"length":46,"position":233424,"velocity":0.8661417322834646,"pitch":73,"id":"44bd0c60-5608-485a-8503-30696d0097fd"},{"length":160,"position":233472,"velocity":0.8661417322834646,"pitch":74,"id":"48e39cee-e78e-40cd-9c2a-6de471ae7d3c"},{"length":94,"position":234528,"velocity":0.8661417322834646,"pitch":67,"id":"d62c5435-baf3-4ac2-816f-e4a75b0a453e"},{"length":94,"position":234720,"velocity":0.8661417322834646,"pitch":70,"id":"3e8b71d3-980c-4a47-beb1-f0e32e5a5aad"},{"length":94,"position":234816,"velocity":0.8661417322834646,"pitch":67,"id":"5a857239-a506-49ab-bef7-75464bde1658"},{"length":94,"position":234816,"velocity":0.8661417322834646,"pitch":69,"id":"53ed424c-22d2-40cc-ab89-df603ae8c898"},{"length":94,"position":234912,"velocity":0.8661417322834646,"pitch":73,"id":"84a9b897-2273-4ad5-987b-3238b33f4dd3"},{"length":46,"position":235008,"velocity":0.8661417322834646,"pitch":69,"id":"4fe59eac-12f5-4f45-8b55-dc2f1e89c560"},{"length":46,"position":235008,"velocity":0.8661417322834646,"pitch":74,"id":"e066e8b6-e411-4c92-bea4-2172b203d2c2"},{"length":46,"position":235056,"velocity":0.8661417322834646,"pitch":69,"id":"c227f184-9419-483e-8474-d0ab5fb23e74"},{"length":46,"position":235104,"velocity":0.8661417322834646,"pitch":74,"id":"e54abc85-b23b-469e-a4ef-79f8bef5f2d7"},{"length":46,"position":235152,"velocity":0.8661417322834646,"pitch":81,"id":"e617e626-f9a3-4035-8129-3a2181249928"},{"length":46,"position":235200,"velocity":0.8661417322834646,"pitch":80,"id":"efd62dda-4af1-4109-8dce-14821c589bb0"},{"length":46,"position":235248,"velocity":0.8661417322834646,"pitch":69,"id":"433622ad-fbf4-4a6a-bf58-b5557f8867e6"},{"length":46,"position":235296,"velocity":0.8661417322834646,"pitch":74,"id":"b57a2028-b95b-4a38-9b0c-19a71d3a1fd2"},{"length":46,"position":235344,"velocity":0.8661417322834646,"pitch":79,"id":"726be34f-8769-4ac5-90ed-2c6f4a5cacb5"},{"length":46,"position":235392,"velocity":0.8661417322834646,"pitch":77,"id":"00f5fd75-4583-4b49-8da6-f5fbad149dbf"},{"length":46,"position":235440,"velocity":0.8661417322834646,"pitch":69,"id":"434ba6d1-85ed-4253-bff4-6711f2a74b00"},{"length":46,"position":235488,"velocity":0.8661417322834646,"pitch":74,"id":"e41c9313-5dc0-444b-8cca-e1e6b1c340b4"},{"length":46,"position":235536,"velocity":0.8661417322834646,"pitch":77,"id":"ca00d1e1-2c47-40c1-bf58-1d5aa9f1fbed"},{"length":46,"position":235584,"velocity":0.8661417322834646,"pitch":76,"id":"5a78dd8d-7edd-40d6-a513-d4ce417e4263"},{"length":46,"position":235632,"velocity":0.8661417322834646,"pitch":67,"id":"3cc388da-4945-40fa-b15f-4f175f912685"},{"length":46,"position":235680,"velocity":0.8661417322834646,"pitch":73,"id":"2a526978-4d5d-41a9-b135-5971fb320eaf"},{"length":46,"position":235728,"velocity":0.8661417322834646,"pitch":76,"id":"ae062ba2-a138-4529-bbbf-0eba90cd8897"},{"length":94,"position":235776,"velocity":0.8661417322834646,"pitch":74,"id":"4f06f480-659e-4d20-9add-9d75c0bf1a73"},{"length":46,"position":235872,"velocity":0.8661417322834646,"pitch":69,"id":"76b5bda0-098c-4608-8547-2772cf8141ee"},{"length":46,"position":235920,"velocity":0.8661417322834646,"pitch":74,"id":"99a41513-007d-4c03-a233-3ec88c8d44ea"},{"length":94,"position":235968,"velocity":0.8661417322834646,"pitch":73,"id":"1289cbf4-e0eb-42b0-a6ac-208ac62778ac"},{"length":46,"position":236064,"velocity":0.8661417322834646,"pitch":67,"id":"1df562f1-3c65-4fb2-9d34-19be1945b848"},{"length":46,"position":236112,"velocity":0.8661417322834646,"pitch":70,"id":"9a20fdb5-264a-41e0-95f8-c30ad1625e30"},{"length":94,"position":236160,"velocity":0.8661417322834646,"pitch":69,"id":"bfd22658-e340-4830-8f30-d8bfc5d293cb"},{"length":46,"position":236256,"velocity":0.8661417322834646,"pitch":69,"id":"9d92e37a-509e-42b7-b8f8-e4c44b3ef2c4"},{"length":46,"position":236304,"velocity":0.8661417322834646,"pitch":74,"id":"9c4234a0-3281-4482-b8a1-3ebf697c8cf9"},{"length":46,"position":236352,"velocity":0.8661417322834646,"pitch":77,"id":"e10ee039-cc58-418a-a239-9a14787db420"},{"length":46,"position":236400,"velocity":0.8661417322834646,"pitch":69,"id":"8323a69e-d5a5-43be-8451-91e635f972d4"},{"length":46,"position":236448,"velocity":0.8661417322834646,"pitch":74,"id":"23ca1369-8691-4e41-a438-b83b9fb2e6e0"},{"length":46,"position":236496,"velocity":0.8661417322834646,"pitch":77,"id":"cf5cd0c6-c6ec-464a-8cf3-d27dcb5db6e1"},{"length":46,"position":236544,"velocity":0.8661417322834646,"pitch":76,"id":"0401752f-3e98-485a-8a20-57451b004f93"},{"length":46,"position":236592,"velocity":0.8661417322834646,"pitch":67,"id":"f128b569-8487-4529-b2f5-b3e96cbc17e2"},{"length":46,"position":236640,"velocity":0.8661417322834646,"pitch":70,"id":"194cfd81-9f8f-4984-9f1b-5649626b7dc1"},{"length":46,"position":236688,"velocity":0.8661417322834646,"pitch":73,"id":"03dd09d2-3acb-47d8-a786-03659a7e0046"},{"length":46,"position":236736,"velocity":0.8661417322834646,"pitch":76,"id":"60622427-8e47-4973-85c8-d6be8478c4e5"},{"length":46,"position":236784,"velocity":0.8661417322834646,"pitch":73,"id":"f2ff11e4-047c-4c4a-88c1-3a6c13039074"},{"length":46,"position":236832,"velocity":0.8661417322834646,"pitch":76,"id":"7d1eba54-bf22-4320-9117-3dcd4ef0f78d"},{"length":46,"position":236880,"velocity":0.8661417322834646,"pitch":79,"id":"6030d864-c9bc-4149-bc2b-27a72ced76cd"},{"length":46,"position":236928,"velocity":0.8661417322834646,"pitch":77,"id":"9183ffcf-1fac-42f6-b415-14a522ce7898"},{"length":46,"position":236976,"velocity":0.8661417322834646,"pitch":81,"id":"69864502-d1c5-4240-b194-cb3c100b5046"},{"length":46,"position":237024,"velocity":0.8661417322834646,"pitch":86,"id":"1341383d-1ccc-4508-a922-87bbe12ed296"},{"length":46,"position":237072,"velocity":0.8661417322834646,"pitch":81,"id":"d8c9678d-a187-44a8-8577-7a89aeb6ae67"},{"length":46,"position":237120,"velocity":0.8661417322834646,"pitch":77,"id":"930ee95a-2157-4d68-a6c0-f7b3b072400e"},{"length":46,"position":237168,"velocity":0.8661417322834646,"pitch":86,"id":"f99fcdc1-0bc0-4f08-a325-702d11271343"},{"length":46,"position":237216,"velocity":0.8661417322834646,"pitch":81,"id":"0bcb265a-3a5d-4b41-b813-10540ee20987"},{"length":46,"position":237264,"velocity":0.8661417322834646,"pitch":77,"id":"9a1621d6-e5b9-4048-8a2d-d3507ad0943a"},{"length":46,"position":237312,"velocity":0.8661417322834646,"pitch":76,"id":"e367702b-6afc-4ecc-94c1-9a7915830041"},{"length":46,"position":237360,"velocity":0.8661417322834646,"pitch":79,"id":"0f790b73-13e9-4d7b-a063-965d43ed496e"},{"length":46,"position":237408,"velocity":0.8661417322834646,"pitch":85,"id":"82497e10-7f5b-42ae-9dd3-a011a008ffd5"},{"length":46,"position":237456,"velocity":0.8661417322834646,"pitch":79,"id":"faca4037-7a3d-4970-b67b-126b3af1293f"},{"length":46,"position":237504,"velocity":0.8661417322834646,"pitch":76,"id":"0dae1208-6492-46e3-819a-0b1145ef1dae"},{"length":46,"position":237552,"velocity":0.8661417322834646,"pitch":85,"id":"b28e5250-f3db-4da7-9803-50cf5beff25f"},{"length":46,"position":237600,"velocity":0.8661417322834646,"pitch":79,"id":"6ace3a31-7338-466b-810e-8e0336ff4107"},{"length":46,"position":237648,"velocity":0.8661417322834646,"pitch":76,"id":"77a9ca65-004f-4dab-be15-115426783ced"},{"length":46,"position":237744,"velocity":0.8661417322834646,"pitch":69,"id":"bf71e2a5-ff1c-4dac-9402-e4d477571a81"},{"length":46,"position":237792,"velocity":0.8661417322834646,"pitch":74,"id":"bc677338-ab7c-4b9d-b1c7-d6839671cf44"},{"length":46,"position":237840,"velocity":0.8661417322834646,"pitch":69,"id":"6f7f203a-db07-4e2a-bbdc-8caeeb9fee65"},{"length":46,"position":237888,"velocity":0.8661417322834646,"pitch":77,"id":"6f968ceb-67a7-49f4-8cf1-3038537e21ab"},{"length":46,"position":237936,"velocity":0.8661417322834646,"pitch":69,"id":"a26923e8-739f-4361-9853-b1a0e41b7ece"},{"length":46,"position":237984,"velocity":0.8661417322834646,"pitch":74,"id":"8af84154-49f2-41c2-bfd9-6376ebf02225"},{"length":46,"position":238032,"velocity":0.8661417322834646,"pitch":69,"id":"e14e2660-3bc2-4e77-b9bb-0b2631a296e6"},{"length":46,"position":238080,"velocity":0.8661417322834646,"pitch":75,"id":"3f37323e-78c4-4c75-8529-7ac75d362de3"},{"length":46,"position":238128,"velocity":0.8661417322834646,"pitch":67,"id":"a6918b18-60cf-43d4-83f8-5f1766c789a3"},{"length":46,"position":238176,"velocity":0.8661417322834646,"pitch":74,"id":"8e968588-dd13-4552-8f2f-db5e4a504db7"},{"length":46,"position":238224,"velocity":0.8661417322834646,"pitch":69,"id":"3db9a985-3865-487b-8953-f0fd93f40411"},{"length":46,"position":238272,"velocity":0.8661417322834646,"pitch":75,"id":"2d5fd73e-9e4e-4986-9a13-7a54bf71abe3"},{"length":46,"position":238320,"velocity":0.8661417322834646,"pitch":69,"id":"de95c8a5-8010-4e5f-bdc5-e0beb5d90313"},{"length":46,"position":238368,"velocity":0.8661417322834646,"pitch":74,"id":"56c58a34-4852-4d89-8adf-42d4cdf9231a"},{"length":46,"position":238416,"velocity":0.8661417322834646,"pitch":69,"id":"1303db44-56c0-4f89-a10b-361f51fdb40a"},{"length":46,"position":238512,"velocity":0.8661417322834646,"pitch":67,"id":"0f77b757-49ef-4179-9c84-aef26e90bb47"},{"length":46,"position":238560,"velocity":0.8661417322834646,"pitch":73,"id":"908ab8c5-1549-4b56-bc9e-cdc192a8c1a7"},{"length":46,"position":238608,"velocity":0.8661417322834646,"pitch":67,"id":"eb5c8868-8d2d-4976-bc42-e9e9835ccd4a"},{"length":46,"position":238704,"velocity":0.8661417322834646,"pitch":67,"id":"1c12e04b-b989-414a-8b96-8e9fa6bf2b6c"},{"length":46,"position":238752,"velocity":0.8661417322834646,"pitch":73,"id":"79c363eb-9aaf-4fb2-aaa0-9ba5c6e02fca"},{"length":46,"position":238800,"velocity":0.8661417322834646,"pitch":67,"id":"4f9cbcbe-0640-4748-84b7-0d46f18e9ad6"},{"length":46,"position":238896,"velocity":0.8661417322834646,"pitch":67,"id":"57acc984-32c2-4a49-a53a-da5eb2d5e534"},{"length":46,"position":238944,"velocity":0.8661417322834646,"pitch":73,"id":"6859e935-5e92-4d32-8500-6deda51ffb90"},{"length":46,"position":238992,"velocity":0.8661417322834646,"pitch":67,"id":"c353b5d4-e11e-44eb-b202-0413995f9554"},{"length":46,"position":239088,"velocity":0.8661417322834646,"pitch":67,"id":"5d22856d-74fd-4f53-8ea2-62e80a2590ca"},{"length":46,"position":239136,"velocity":0.8661417322834646,"pitch":73,"id":"1328f4a4-9d34-4723-ac93-7d02a8481988"},{"length":46,"position":239184,"velocity":0.8661417322834646,"pitch":67,"id":"91e0ce65-7627-4100-a577-9be35c4d32f0"},{"length":46,"position":239280,"velocity":0.8661417322834646,"pitch":68,"id":"b818f69e-9425-4acb-820f-21674c6b3e03"},{"length":46,"position":239328,"velocity":0.8661417322834646,"pitch":71,"id":"b1b3a635-aa16-4498-89ba-572257d13565"},{"length":46,"position":239376,"velocity":0.8661417322834646,"pitch":68,"id":"4468dfa5-1584-45e9-a6ef-34a703ee775d"},{"length":46,"position":239424,"velocity":0.8661417322834646,"pitch":74,"id":"ff8180d8-fb17-47e4-94c7-2466e2270520"},{"length":46,"position":239472,"velocity":0.8661417322834646,"pitch":68,"id":"22e2c43b-833d-4b42-8123-7c0783314120"},{"length":46,"position":239520,"velocity":0.8661417322834646,"pitch":71,"id":"563e4d29-310c-4f30-901a-724e175510d7"},{"length":46,"position":239568,"velocity":0.8661417322834646,"pitch":68,"id":"55d8ceda-bc65-4a04-b831-c87654121ae0"},{"length":46,"position":239664,"velocity":0.8661417322834646,"pitch":68,"id":"fc251f0e-f155-4b22-b9d8-aa598ca5fb1a"},{"length":46,"position":239712,"velocity":0.8661417322834646,"pitch":71,"id":"5b85b6ee-2de3-4ea3-8f89-da74aa005a5f"},{"length":46,"position":239760,"velocity":0.8661417322834646,"pitch":68,"id":"cfebb095-9708-47fe-86bc-6f0a2e37ca0f"},{"length":46,"position":239808,"velocity":0.8661417322834646,"pitch":73,"id":"1ff608da-dcda-4592-88de-1980b47a9f07"},{"length":46,"position":239856,"velocity":0.8661417322834646,"pitch":67,"id":"23588b14-738b-477e-8fb6-817e187cfa15"},{"length":46,"position":239904,"velocity":0.8661417322834646,"pitch":70,"id":"7acf3810-3821-43b4-a16b-2934ce983c9c"},{"length":46,"position":239952,"velocity":0.8661417322834646,"pitch":67,"id":"ad3ac44d-44c9-4ffc-b11b-6fc172ac64fc"},{"length":46,"position":240048,"velocity":0.8661417322834646,"pitch":69,"id":"f8e172c7-d323-4ab7-aa5b-5d3f087fcab4"},{"length":46,"position":240096,"velocity":0.8661417322834646,"pitch":74,"id":"bf696127-fca4-4764-846a-f576ed966123"},{"length":46,"position":240144,"velocity":0.8661417322834646,"pitch":69,"id":"fc8935ab-ce37-41fb-a8e1-cae674ba5176"},{"length":46,"position":240192,"velocity":0.8661417322834646,"pitch":77,"id":"c7766a35-e761-4546-ba2d-8bd52fed901c"},{"length":46,"position":240240,"velocity":0.8661417322834646,"pitch":69,"id":"60329ca5-0d95-4aa5-8d0b-fcdf37b6bc9d"},{"length":46,"position":240288,"velocity":0.8661417322834646,"pitch":74,"id":"6b2a1d5c-5db9-4811-bafd-9390e3a455fa"},{"length":46,"position":240336,"velocity":0.8661417322834646,"pitch":69,"id":"d78d0b7a-bf3f-497e-bdbf-10efcbdc2436"},{"length":46,"position":240432,"velocity":0.8661417322834646,"pitch":69,"id":"c551cf39-28a0-4b3e-ac1b-9ebe20f30a40"},{"length":46,"position":240480,"velocity":0.8661417322834646,"pitch":74,"id":"b08ba2e8-e42a-4016-a4a1-795a976580df"},{"length":46,"position":240528,"velocity":0.8661417322834646,"pitch":69,"id":"bf9613ca-2e01-48f3-be40-e65297205354"},{"length":46,"position":240576,"velocity":0.8661417322834646,"pitch":77,"id":"0597f393-851f-46cd-9bf2-1895aede4b8e"},{"length":46,"position":240624,"velocity":0.8661417322834646,"pitch":74,"id":"ccadc57d-15a5-46fa-a4c1-81585b2b5591"},{"length":46,"position":240672,"velocity":0.8661417322834646,"pitch":77,"id":"487bfbd4-3f76-48ae-954a-1337c92fbf4d"},{"length":46,"position":240720,"velocity":0.8661417322834646,"pitch":81,"id":"1ad5daab-ad1e-4039-a7ef-6755df85cb3e"},{"length":46,"position":240768,"velocity":0.8661417322834646,"pitch":74,"id":"fd3252a9-55a1-4f7c-a681-30bc6abab0ee"},{"length":46,"position":240768,"velocity":0.8661417322834646,"pitch":86,"id":"c5c1ee7c-c784-497e-b83e-7bdabf3fe7de"},{"length":46,"position":240816,"velocity":0.8661417322834646,"pitch":74,"id":"325f8eba-4a7d-4329-83ec-6640736a5ca3"},{"length":46,"position":240864,"velocity":0.8661417322834646,"pitch":77,"id":"88a08288-98cb-4f22-b0cb-755404fac85d"},{"length":46,"position":240912,"velocity":0.8661417322834646,"pitch":74,"id":"915bb298-42a1-4279-b27d-e040e6bc625c"},{"length":46,"position":240960,"velocity":0.8661417322834646,"pitch":81,"id":"c1d2e97b-2507-4ad4-bc13-2e9fc40e5385"},{"length":46,"position":241008,"velocity":0.8661417322834646,"pitch":74,"id":"55f5dd9d-7212-4a79-bdc9-47812b8c1b9a"},{"length":46,"position":241056,"velocity":0.8661417322834646,"pitch":77,"id":"f561f6da-ba67-4413-b23b-be986c5f8c6b"},{"length":46,"position":241104,"velocity":0.8661417322834646,"pitch":74,"id":"fa85ea22-de37-4202-87f6-5df190d7961e"},{"length":46,"position":241152,"velocity":0.8661417322834646,"pitch":75,"id":"079bb6db-fb36-477d-8874-f34e6b39f95e"},{"length":46,"position":241152,"velocity":0.8661417322834646,"pitch":81,"id":"759c1215-b081-4ab0-85d5-ff62d92c4cd0"},{"length":46,"position":241200,"velocity":0.8661417322834646,"pitch":74,"id":"34ba2d8f-e42a-46db-9947-8476d5b73e2c"},{"length":94,"position":241248,"velocity":0.8661417322834646,"pitch":74,"id":"e6320445-0f99-4d4d-bc88-f9294a1444b4"},{"length":94,"position":241248,"velocity":0.8661417322834646,"pitch":77,"id":"4b21d212-6671-4d9c-be88-626966e30ada"},{"length":46,"position":241344,"velocity":0.8661417322834646,"pitch":73,"id":"fffd56ae-adf5-486c-899d-ebaadca99d97"},{"length":46,"position":241344,"velocity":0.8661417322834646,"pitch":81,"id":"74dc54fb-e50a-4b19-8be8-74bd2a42d370"},{"length":46,"position":241392,"velocity":0.8661417322834646,"pitch":74,"id":"dceda0b4-cfc5-4899-8f78-0ac7f9fe4565"},{"length":46,"position":241440,"velocity":0.8661417322834646,"pitch":68,"id":"d1eb8d13-0d07-4256-b0f7-f210e63ced8a"},{"length":46,"position":241440,"velocity":0.8661417322834646,"pitch":77,"id":"9a1d595a-2aef-44c7-a866-0e0cfc8a937f"},{"length":46,"position":241488,"velocity":0.8661417322834646,"pitch":74,"id":"030503ec-867f-41b9-a1c5-1c770ccbf626"},{"length":46,"position":241536,"velocity":0.8661417322834646,"pitch":69,"id":"32b58682-352b-404f-8e59-4de119be274e"},{"length":46,"position":241584,"velocity":0.8661417322834646,"pitch":73,"id":"e978ffec-353f-4a5d-975b-3da1a221230f"},{"length":46,"position":241632,"velocity":0.8661417322834646,"pitch":76,"id":"846e55d6-750d-4c34-8675-c5ac65a7b873"},{"length":46,"position":241680,"velocity":0.8661417322834646,"pitch":73,"id":"38444ff0-ca85-4832-9147-d96c0be63126"},{"length":46,"position":241728,"velocity":0.8661417322834646,"pitch":79,"id":"b931516a-1cf6-4947-86c5-32b65bf8ca86"},{"length":46,"position":241776,"velocity":0.8661417322834646,"pitch":73,"id":"263aaeaa-c120-4b18-a8d9-4f4aa6f23755"},{"length":46,"position":241824,"velocity":0.8661417322834646,"pitch":76,"id":"001c17fd-f2a7-43fd-83b8-6a24f19bb1a0"},{"length":46,"position":241872,"velocity":0.8661417322834646,"pitch":73,"id":"947170ce-4624-44d8-908d-2a878e100673"},{"length":46,"position":241920,"velocity":0.8661417322834646,"pitch":69,"id":"9a7d3df7-94fd-4eb8-873c-2c738e16c9fe"},{"length":46,"position":241968,"velocity":0.8661417322834646,"pitch":73,"id":"494101f7-97d8-4c46-b479-1329a4250ec2"},{"length":46,"position":242016,"velocity":0.8661417322834646,"pitch":76,"id":"49690dda-3a99-4b40-a266-750e5b52809f"},{"length":46,"position":242064,"velocity":0.8661417322834646,"pitch":73,"id":"a9a10f7c-d4fe-4e75-a0a4-03b17160c0e5"},{"length":46,"position":242112,"velocity":0.8661417322834646,"pitch":79,"id":"a3bae1e4-950c-4667-8c7e-2728b720bc4b"},{"length":46,"position":242160,"velocity":0.8661417322834646,"pitch":73,"id":"8c037cde-6a3f-46f0-847e-9b40fccd123a"},{"length":46,"position":242208,"velocity":0.8661417322834646,"pitch":76,"id":"a649a6ed-24d3-4797-ba33-d1ad4fa1a20d"},{"length":46,"position":242256,"velocity":0.8661417322834646,"pitch":73,"id":"ccd1f291-3716-4e68-bcf5-0189d87c3d27"},{"length":46,"position":242304,"velocity":0.8661417322834646,"pitch":68,"id":"dd335ffa-ab77-4ddc-8c7e-2b60d62ff02d"},{"length":46,"position":242304,"velocity":0.8661417322834646,"pitch":71,"id":"96beabc4-11b5-46de-8696-1161e5701689"},{"length":46,"position":242352,"velocity":0.8661417322834646,"pitch":74,"id":"2546efbc-e2db-4378-b455-7dbef6fb3401"},{"length":46,"position":242400,"velocity":0.8661417322834646,"pitch":77,"id":"3c48862f-e5f5-4847-a0fc-0df1417f2021"},{"length":46,"position":242448,"velocity":0.8661417322834646,"pitch":74,"id":"36a8cf06-0803-4cac-a9e2-3a985ae31aa4"},{"length":46,"position":242496,"velocity":0.8661417322834646,"pitch":80,"id":"e2e06d7f-99af-45ab-a749-b03fb1fdc47e"},{"length":46,"position":242544,"velocity":0.8661417322834646,"pitch":74,"id":"2fa7af4d-7de4-4dca-a5e0-133639608e75"},{"length":46,"position":242592,"velocity":0.8661417322834646,"pitch":77,"id":"2e04dd71-07ab-4cea-9d0d-bd7bb1a8c35c"},{"length":46,"position":242640,"velocity":0.8661417322834646,"pitch":74,"id":"16ff2c77-04d3-420e-92c9-706cdf11ed6f"},{"length":46,"position":242688,"velocity":0.8661417322834646,"pitch":69,"id":"541cd636-e1fe-4a99-a88d-52c57510c08b"},{"length":46,"position":242688,"velocity":0.8661417322834646,"pitch":71,"id":"9ded0429-164f-4314-a7e6-dd653873b32a"},{"length":46,"position":242736,"velocity":0.8661417322834646,"pitch":74,"id":"493658a3-0d7f-4043-a41a-e65da0299e27"},{"length":46,"position":242784,"velocity":0.8661417322834646,"pitch":77,"id":"f07004ba-242b-4202-905a-7486df5507e3"},{"length":46,"position":242832,"velocity":0.8661417322834646,"pitch":74,"id":"73c66bf6-bb11-4493-927c-4eff70998fda"},{"length":46,"position":242880,"velocity":0.8661417322834646,"pitch":67,"id":"c4246780-97a7-450d-9b79-e52665c2d664"},{"length":46,"position":242880,"velocity":0.8661417322834646,"pitch":79,"id":"6a51bf3f-711b-4625-b039-350c28d3e25d"},{"length":46,"position":242928,"velocity":0.8661417322834646,"pitch":70,"id":"df2bb486-aebd-448b-b9b6-71c754101636"},{"length":46,"position":242976,"velocity":0.8661417322834646,"pitch":73,"id":"a7cb4b08-b491-42c7-bbf0-b65ce78a8696"},{"length":46,"position":243024,"velocity":0.8661417322834646,"pitch":70,"id":"f87f763e-505c-4491-be0e-50d0799ac2f8"},{"length":46,"position":243072,"velocity":0.8661417322834646,"pitch":69,"id":"1943e0e0-e8d2-482f-b839-39bb2534812e"},{"length":46,"position":243120,"velocity":0.8661417322834646,"pitch":74,"id":"30e0ad97-2213-4d22-8140-de716012c26c"},{"length":46,"position":243168,"velocity":0.8661417322834646,"pitch":77,"id":"4be1f16a-ff34-409f-88e2-d9fa38e1f759"},{"length":46,"position":243216,"velocity":0.8661417322834646,"pitch":74,"id":"f62effbf-8b26-45b1-aa59-433c5fa84dc9"},{"length":46,"position":243264,"velocity":0.8661417322834646,"pitch":81,"id":"89d9b877-33eb-43c2-b8aa-596fd5e54d53"},{"length":46,"position":243312,"velocity":0.8661417322834646,"pitch":69,"id":"134acc17-8b7f-454f-811f-e46272fa7508"},{"length":46,"position":243360,"velocity":0.8661417322834646,"pitch":74,"id":"0ea7bd46-d4fb-4083-8ff1-78750036c662"},{"length":46,"position":243408,"velocity":0.8661417322834646,"pitch":77,"id":"34c0c075-34d8-4277-bc5c-588fe29a6459"},{"length":94,"position":243456,"velocity":0.8661417322834646,"pitch":74,"id":"55798bda-b879-48f0-bb5f-194d53e27263"},{"length":94,"position":243456,"velocity":0.8661417322834646,"pitch":77,"id":"aaedcaa0-1ca9-490d-b8dc-b03406a11f80"},{"length":94,"position":243456,"velocity":0.8661417322834646,"pitch":81,"id":"ae8a1276-4a7d-4a87-86d8-6ce9e09035ad"},{"length":94,"position":243552,"velocity":0.8661417322834646,"pitch":74,"id":"5db0684b-385a-4d76-a0a1-e55f6db1dde8"},{"length":94,"position":243552,"velocity":0.8661417322834646,"pitch":77,"id":"509ba3d3-d204-4ff4-8b7e-ff94f35f9790"},{"length":94,"position":243552,"velocity":0.8661417322834646,"pitch":81,"id":"3611b67c-ccef-4678-b2a1-c3df0a12b136"},{"length":94,"position":243648,"velocity":0.8661417322834646,"pitch":74,"id":"7483bd2c-69c8-4771-83ed-f1687532916e"},{"length":94,"position":243648,"velocity":0.8661417322834646,"pitch":77,"id":"88ded1cb-3c81-41c4-b94c-ef731dd6b3db"},{"length":94,"position":243648,"velocity":0.8661417322834646,"pitch":81,"id":"71f4f3b2-8663-441c-8482-f8542d4c9b68"},{"length":94,"position":243744,"velocity":0.8661417322834646,"pitch":74,"id":"9d1be4c1-2c11-468c-811c-0dd60a1b598d"},{"length":94,"position":243744,"velocity":0.8661417322834646,"pitch":77,"id":"fcaa9f5e-b93e-40ea-ba9e-d5077d15ae68"},{"length":94,"position":243744,"velocity":0.8661417322834646,"pitch":81,"id":"ebc4b15d-e66a-4610-980e-db287ab04fc3"},{"length":46,"position":243888,"velocity":0.8661417322834646,"pitch":57,"id":"af4f3a46-f6d2-40f7-ab5b-f2040cb69ba3"},{"length":46,"position":243888,"velocity":0.8661417322834646,"pitch":62,"id":"692dab4a-2640-48f8-9866-a5e8e92d3421"},{"length":46,"position":243888,"velocity":0.8661417322834646,"pitch":65,"id":"dd250dc9-c00f-4401-9cfe-5d0afff9fb0b"},{"length":46,"position":243936,"velocity":0.8661417322834646,"pitch":57,"id":"b918df2c-7817-450c-8c1f-e0147781dd6e"},{"length":46,"position":243936,"velocity":0.8661417322834646,"pitch":62,"id":"4f0ba1f7-aa0c-4741-9016-e414a64a71ff"},{"length":46,"position":243936,"velocity":0.8661417322834646,"pitch":65,"id":"8e720a2e-2a08-4a90-a521-84b873a1c42d"},{"length":46,"position":243984,"velocity":0.8661417322834646,"pitch":57,"id":"a026d5cc-71ff-493c-ba6e-759d1a5aa489"},{"length":46,"position":243984,"velocity":0.8661417322834646,"pitch":62,"id":"0e890da4-11b1-45a4-8e64-25556f2c0f32"},{"length":46,"position":243984,"velocity":0.8661417322834646,"pitch":65,"id":"5e8d02c6-3414-4554-8535-d7d7b3f5d53a"},{"length":46,"position":244032,"velocity":0.8661417322834646,"pitch":58,"id":"f7d6984a-eefd-453b-b65b-d943b62ce0a7"},{"length":46,"position":244032,"velocity":0.8661417322834646,"pitch":64,"id":"90054bf8-740f-48ca-82e1-b14316cdc4ab"},{"length":46,"position":244080,"velocity":0.8661417322834646,"pitch":58,"id":"a10fabbe-f4df-4395-9049-92b9bdcb11c6"},{"length":46,"position":244080,"velocity":0.8661417322834646,"pitch":64,"id":"5b43f050-f1df-4629-b5c7-a526a9c1020d"},{"length":46,"position":244128,"velocity":0.8661417322834646,"pitch":55,"id":"8f0cf469-0dcd-4607-a1aa-a12bba20215d"},{"length":46,"position":244128,"velocity":0.8661417322834646,"pitch":61,"id":"eca49048-51a0-4dec-a264-d84e18fb3bc3"},{"length":46,"position":244176,"velocity":0.8661417322834646,"pitch":55,"id":"3dde960a-a68d-4561-99f1-c249f3bb4a23"},{"length":46,"position":244176,"velocity":0.8661417322834646,"pitch":61,"id":"640a5dd0-42b2-4665-b775-9ce31cf591d3"},{"length":46,"position":244224,"velocity":0.8661417322834646,"pitch":57,"id":"3d761304-e3d8-403f-b29f-13e89503429e"},{"length":46,"position":244224,"velocity":0.8661417322834646,"pitch":62,"id":"41eeb23b-6448-46ab-9df2-a6925f4a4ffd"},{"length":46,"position":244272,"velocity":0.8661417322834646,"pitch":57,"id":"f9597938-abb8-4e5c-b497-234fb6ed76c6"},{"length":46,"position":244272,"velocity":0.8661417322834646,"pitch":62,"id":"dd589efc-9a47-4529-a21c-3812d3fc4d9b"},{"length":46,"position":244320,"velocity":0.8661417322834646,"pitch":57,"id":"e2c8616e-c75a-4cba-b5e3-6693c37483f7"},{"length":46,"position":244320,"velocity":0.8661417322834646,"pitch":62,"id":"3043a282-6b22-401e-8d0b-19cf4ba7317a"},{"length":46,"position":244320,"velocity":0.8661417322834646,"pitch":65,"id":"cb46567c-7ebf-4ff4-9ec3-0920190c6b08"},{"length":46,"position":244368,"velocity":0.8661417322834646,"pitch":57,"id":"a23af5e5-4f74-4dec-a862-d83a16a4d062"},{"length":46,"position":244368,"velocity":0.8661417322834646,"pitch":62,"id":"0f3ab0ed-e99e-45b1-a3f5-93d982d35109"},{"length":46,"position":244368,"velocity":0.8661417322834646,"pitch":65,"id":"68305eca-44e9-44f2-84b1-a56e8582a5db"},{"length":46,"position":244416,"velocity":0.8661417322834646,"pitch":58,"id":"b25d495f-15cb-4cc7-abee-589f7a5127b8"},{"length":46,"position":244416,"velocity":0.8661417322834646,"pitch":64,"id":"36bc515b-face-4492-ae36-b3976317463f"},{"length":46,"position":244464,"velocity":0.8661417322834646,"pitch":58,"id":"acbbd42a-3150-4549-b226-3cbb12372068"},{"length":46,"position":244464,"velocity":0.8661417322834646,"pitch":64,"id":"eb0cc8b1-d3aa-4cb2-a8c6-a953e9a8f4ba"},{"length":46,"position":244512,"velocity":0.8661417322834646,"pitch":55,"id":"31c9199b-c2d3-4083-84d5-9dec5b683402"},{"length":46,"position":244512,"velocity":0.8661417322834646,"pitch":60,"id":"276d31b9-22a1-4248-b1cc-05cf332714e5"},{"length":46,"position":244560,"velocity":0.8661417322834646,"pitch":55,"id":"7863e950-0ae6-4876-b05b-3aacfee051e1"},{"length":46,"position":244560,"velocity":0.8661417322834646,"pitch":60,"id":"e4d02103-f45e-4e6c-a2f2-52ebb68687a0"},{"length":46,"position":244656,"velocity":0.8661417322834646,"pitch":62,"id":"7434a789-0773-4ea3-b8ea-0548c5fdb287"},{"length":46,"position":244656,"velocity":0.8661417322834646,"pitch":65,"id":"045007a6-307d-4c8f-9071-dee448c94f10"},{"length":46,"position":244656,"velocity":0.8661417322834646,"pitch":70,"id":"f6b9b4eb-310e-47a0-8245-eba2a11fa33e"},{"length":46,"position":244704,"velocity":0.8661417322834646,"pitch":62,"id":"679888df-9182-45a4-9026-4cad2992021f"},{"length":46,"position":244704,"velocity":0.8661417322834646,"pitch":65,"id":"51e97350-ddf1-4674-8d37-fec9f91c74f9"},{"length":46,"position":244704,"velocity":0.8661417322834646,"pitch":70,"id":"8b2bfea6-a712-488b-a585-41bbc17e3bfc"},{"length":46,"position":244752,"velocity":0.8661417322834646,"pitch":62,"id":"4862a529-e4d4-4dc4-b831-e9d94470ffb0"},{"length":46,"position":244752,"velocity":0.8661417322834646,"pitch":65,"id":"0d5bb8af-dd53-4f08-b2cf-282fe7d4a02f"},{"length":46,"position":244752,"velocity":0.8661417322834646,"pitch":70,"id":"5324a920-84cb-4247-a2ea-38a739d05472"},{"length":46,"position":244800,"velocity":0.8661417322834646,"pitch":62,"id":"b5d1ca67-4331-44f8-92cd-78fd3e670444"},{"length":46,"position":244800,"velocity":0.8661417322834646,"pitch":65,"id":"d9ac8617-5b05-4118-90ac-dc130498f58d"},{"length":46,"position":244800,"velocity":0.8661417322834646,"pitch":74,"id":"68d891bf-f688-4904-8d76-72080c45327a"},{"length":46,"position":244848,"velocity":0.8661417322834646,"pitch":62,"id":"bb59e816-ca77-4109-b379-afff3c7c066f"},{"length":46,"position":244848,"velocity":0.8661417322834646,"pitch":65,"id":"2b67c857-3730-40de-a70a-9fe36b0ae6a9"},{"length":46,"position":244848,"velocity":0.8661417322834646,"pitch":74,"id":"4f1574a1-fb9b-4275-b0a6-ddc08a713cae"},{"length":46,"position":244896,"velocity":0.8661417322834646,"pitch":62,"id":"ceddb9f4-9a1c-482d-99b9-f2cbfc5a4ac7"},{"length":46,"position":244896,"velocity":0.8661417322834646,"pitch":65,"id":"df9857aa-1f5e-41e2-ae6a-f18f566302a1"},{"length":46,"position":244896,"velocity":0.8661417322834646,"pitch":70,"id":"a2bd6523-fd2f-4202-a479-94faf6dfc7a3"},{"length":46,"position":244944,"velocity":0.8661417322834646,"pitch":62,"id":"f685bc15-5f89-45a5-bb1c-b7d7b0bc29bd"},{"length":46,"position":244944,"velocity":0.8661417322834646,"pitch":65,"id":"784bb64d-9199-4e58-8e69-579329b6d611"},{"length":46,"position":244944,"velocity":0.8661417322834646,"pitch":70,"id":"07f2d53e-f251-401d-a269-888cd93b4409"},{"length":46,"position":244992,"velocity":0.8661417322834646,"pitch":67,"id":"1ddde955-57c3-4e87-a89b-3e59e98b4b33"},{"length":46,"position":244992,"velocity":0.8661417322834646,"pitch":76,"id":"f8b1ba97-c9c9-48de-8644-af9af2901d95"},{"length":46,"position":244992,"velocity":0.8661417322834646,"pitch":82,"id":"a5f9ffea-6977-408d-812a-d5b084e0f85e"},{"length":46,"position":245040,"velocity":0.8661417322834646,"pitch":67,"id":"5f531a5d-b3d7-413e-a740-c658e9595a6d"},{"length":46,"position":245040,"velocity":0.8661417322834646,"pitch":76,"id":"4c21c0b9-26a0-4abd-a0ad-83d58b1523e3"},{"length":46,"position":245040,"velocity":0.8661417322834646,"pitch":82,"id":"376d4b9c-a013-4ce5-995e-9f7ecb50adbd"},{"length":46,"position":245088,"velocity":0.8661417322834646,"pitch":67,"id":"6aac5ffe-2efc-4e20-9a29-6b232352a310"},{"length":46,"position":245088,"velocity":0.8661417322834646,"pitch":73,"id":"813ca257-4b21-4740-9766-a58838c4a01f"},{"length":46,"position":245088,"velocity":0.8661417322834646,"pitch":79,"id":"49ea3a5b-3434-4d97-8ebe-33c39ac7ed61"},{"length":46,"position":245136,"velocity":0.8661417322834646,"pitch":67,"id":"9c11c25c-51ca-45ba-8a73-50f51b5366db"},{"length":46,"position":245136,"velocity":0.8661417322834646,"pitch":73,"id":"9f5e1dfc-a4a4-4cf8-83e9-cd5df6e51318"},{"length":46,"position":245136,"velocity":0.8661417322834646,"pitch":79,"id":"72f38585-69ab-4711-add8-79196c622bbb"},{"length":46,"position":245184,"velocity":0.8661417322834646,"pitch":67,"id":"2415b813-c2ee-4153-84f6-0d50c34269be"},{"length":46,"position":245184,"velocity":0.8661417322834646,"pitch":70,"id":"bb0f78f3-8db7-4ea9-9cd6-4efc33c7a3ab"},{"length":46,"position":245184,"velocity":0.8661417322834646,"pitch":79,"id":"5ab68e84-4253-421e-97b1-2da005cf5044"},{"length":46,"position":245184,"velocity":0.8661417322834646,"pitch":85,"id":"997484ff-8aa7-4542-aee4-0118b6c8bf57"},{"length":46,"position":245232,"velocity":0.8661417322834646,"pitch":67,"id":"198e115b-ce54-4aad-8b6a-3f378ed30d39"},{"length":46,"position":245232,"velocity":0.8661417322834646,"pitch":70,"id":"6b4d7c51-e37a-489c-a216-a7a51189a7d3"},{"length":46,"position":245232,"velocity":0.8661417322834646,"pitch":79,"id":"e8627f05-f6fe-4069-bf3d-11d1b1831ca4"},{"length":46,"position":245232,"velocity":0.8661417322834646,"pitch":85,"id":"4b321dde-a189-4a71-9e17-7c29ea45ed23"},{"length":46,"position":245280,"velocity":0.8661417322834646,"pitch":67,"id":"39c931c6-5979-42ea-8e28-1153d4262f9d"},{"length":46,"position":245280,"velocity":0.8661417322834646,"pitch":70,"id":"838eca7a-59b1-4255-b83e-172a2845c609"},{"length":46,"position":245280,"velocity":0.8661417322834646,"pitch":76,"id":"54b8be7e-be18-4abb-a79c-c05a8cec7c59"},{"length":46,"position":245280,"velocity":0.8661417322834646,"pitch":82,"id":"839b48dd-cef3-4892-bb82-fdc4ebb67ff5"},{"length":46,"position":245328,"velocity":0.8661417322834646,"pitch":67,"id":"ba25a49b-95ab-4eeb-8090-48f85b78684a"},{"length":46,"position":245328,"velocity":0.8661417322834646,"pitch":70,"id":"99105a29-cc6b-4789-a860-1fcb0af96eb5"},{"length":46,"position":245328,"velocity":0.8661417322834646,"pitch":76,"id":"70fdf4e1-bd10-4745-9cf6-bb2de9349143"},{"length":46,"position":245328,"velocity":0.8661417322834646,"pitch":82,"id":"e1f1cbea-fd73-4bb8-96c6-525f376dd286"},{"length":46,"position":245424,"velocity":0.8661417322834646,"pitch":69,"id":"11ae6946-f09c-432a-a7d2-bf5cac1175f6"},{"length":46,"position":245472,"velocity":0.8661417322834646,"pitch":74,"id":"a70a12aa-8d25-40bf-a496-86993102647d"},{"length":46,"position":245520,"velocity":0.8661417322834646,"pitch":81,"id":"9431c45b-eb6f-4c73-bf78-efe54d3fb55d"},{"length":46,"position":245568,"velocity":0.8661417322834646,"pitch":80,"id":"27005d6b-58ef-4517-9846-d84d7a3b60b7"},{"length":46,"position":245616,"velocity":0.8661417322834646,"pitch":69,"id":"8dddd8e0-0cdb-4cc8-af01-960865024563"},{"length":46,"position":245664,"velocity":0.8661417322834646,"pitch":74,"id":"9b2fd7af-aac9-4dc7-aa02-e18fc618de15"},{"length":46,"position":245712,"velocity":0.8661417322834646,"pitch":79,"id":"b8b22234-cd59-42f2-a3ee-c53b39d2d7d8"},{"length":46,"position":245760,"velocity":0.8661417322834646,"pitch":77,"id":"bc524775-ff2f-4fca-9bf2-cfcaf80e3b72"},{"length":46,"position":245808,"velocity":0.8661417322834646,"pitch":69,"id":"545ebf91-21c3-41e9-b510-84f980fd4e71"},{"length":46,"position":245856,"velocity":0.8661417322834646,"pitch":74,"id":"5640f76d-0416-40a5-bbb8-f9c0b9577448"},{"length":46,"position":245904,"velocity":0.8661417322834646,"pitch":77,"id":"55874381-5da8-4920-9cc3-eb6356acd077"},{"length":46,"position":245952,"velocity":0.8661417322834646,"pitch":76,"id":"973a0365-3545-4075-aa69-ae47385ea218"},{"length":46,"position":246000,"velocity":0.8661417322834646,"pitch":67,"id":"052f3e87-f0c8-4f33-bd8c-80b039ecc58e"},{"length":46,"position":246048,"velocity":0.8661417322834646,"pitch":73,"id":"44788180-9687-4fa0-ba48-1ddb8ce3c414"},{"length":46,"position":246096,"velocity":0.8661417322834646,"pitch":76,"id":"d5f786ba-6bf1-4df4-b0b6-089d4f90527f"},{"length":94,"position":246144,"velocity":0.8661417322834646,"pitch":74,"id":"cfc371bc-8bf1-4a52-8586-e45251377f6f"},{"length":46,"position":246240,"velocity":0.8661417322834646,"pitch":69,"id":"f3a89d13-bedc-40ed-9a8f-efcf806ad893"},{"length":46,"position":246288,"velocity":0.8661417322834646,"pitch":74,"id":"3fff1950-9585-423c-989d-055ce3086b91"},{"length":94,"position":246336,"velocity":0.8661417322834646,"pitch":73,"id":"1de63eb7-064b-47c5-846e-e582787559eb"},{"length":46,"position":246432,"velocity":0.8661417322834646,"pitch":67,"id":"01f40e93-049a-471e-924e-2d4f1a197720"},{"length":46,"position":246480,"velocity":0.8661417322834646,"pitch":70,"id":"66a0ff73-1f2a-4862-bd42-f7bf4c30ee4e"},{"length":94,"position":246528,"velocity":0.8661417322834646,"pitch":69,"id":"340ed007-d10f-470f-9161-f2677b45289b"},{"length":46,"position":246624,"velocity":0.8661417322834646,"pitch":69,"id":"f357d279-4db0-4711-891e-fa2b66e65eba"},{"length":46,"position":246672,"velocity":0.8661417322834646,"pitch":74,"id":"bd8238ae-b0da-4353-b46f-edb06145f34a"},{"length":46,"position":246720,"velocity":0.8661417322834646,"pitch":77,"id":"a31993a8-26e0-4081-b21b-c47788bdfaec"},{"length":46,"position":246768,"velocity":0.8661417322834646,"pitch":69,"id":"250397d6-1068-4b69-b9c2-b525bf3972a2"},{"length":46,"position":246816,"velocity":0.8661417322834646,"pitch":74,"id":"94565c7a-2d83-447d-871f-c611136725e7"},{"length":46,"position":246864,"velocity":0.8661417322834646,"pitch":77,"id":"f67a3b49-9090-4ce8-a07d-30407b8f6383"},{"length":46,"position":246912,"velocity":0.8661417322834646,"pitch":70,"id":"acdaed2c-623a-4725-b7c8-a74e622fd4cb"},{"length":46,"position":246960,"velocity":0.8661417322834646,"pitch":67,"id":"9857a147-3cfa-4345-b68a-9e8f424d2343"},{"length":46,"position":247008,"velocity":0.8661417322834646,"pitch":70,"id":"744a150f-7f87-4c42-87da-40e0b57f84ea"},{"length":46,"position":247056,"velocity":0.8661417322834646,"pitch":73,"id":"1f8edb5a-16ba-42b7-9523-515731f1dad1"},{"length":46,"position":247104,"velocity":0.8661417322834646,"pitch":76,"id":"585091ca-9b92-48fe-a31d-9ea2037d94f2"},{"length":46,"position":247152,"velocity":0.8661417322834646,"pitch":70,"id":"e893da68-2aea-45a6-99cc-e64cde92d684"},{"length":46,"position":247200,"velocity":0.8661417322834646,"pitch":73,"id":"8ad75ecf-4ffa-4f7e-b84c-529f5c076188"},{"length":46,"position":247248,"velocity":0.8661417322834646,"pitch":76,"id":"78692047-5077-4ce5-844c-49b3128e3614"},{"length":46,"position":247296,"velocity":0.8661417322834646,"pitch":77,"id":"f010e4f9-1316-4d42-afa3-46ef3003a578"},{"length":46,"position":247344,"velocity":0.8661417322834646,"pitch":81,"id":"f37c1c06-a353-4bf9-b1af-659495298ecb"},{"length":46,"position":247392,"velocity":0.8661417322834646,"pitch":86,"id":"e766d1fb-dd7e-4c9b-8a89-81c53b281155"},{"length":46,"position":247440,"velocity":0.8661417322834646,"pitch":81,"id":"deb22638-fa3f-473b-8bca-ee3eebeda4f8"},{"length":46,"position":247488,"velocity":0.8661417322834646,"pitch":77,"id":"1588f6a5-687d-4fa0-8d6b-38794a2bfc04"},{"length":46,"position":247536,"velocity":0.8661417322834646,"pitch":86,"id":"0abc8a1d-21ab-4116-bbd4-47d825243a6d"},{"length":46,"position":247584,"velocity":0.8661417322834646,"pitch":81,"id":"9f1337b7-2d44-4331-b966-01be26fafd6d"},{"length":46,"position":247632,"velocity":0.8661417322834646,"pitch":77,"id":"51f39bb3-40ee-4c7f-bc56-7d1bf1880f5d"},{"length":46,"position":247680,"velocity":0.8661417322834646,"pitch":76,"id":"01cdb1a6-d5cf-4c42-8e37-8b38a7500555"},{"length":46,"position":247728,"velocity":0.8661417322834646,"pitch":79,"id":"bc6ec94f-d3a5-4595-8625-f6c1968e4736"},{"length":46,"position":247776,"velocity":0.8661417322834646,"pitch":85,"id":"0c7bfce8-c5e5-4088-9140-7feecaad908b"},{"length":46,"position":247824,"velocity":0.8661417322834646,"pitch":79,"id":"cbc49aa4-be1a-4104-ba86-38e2e60f2a00"},{"length":46,"position":247872,"velocity":0.8661417322834646,"pitch":76,"id":"f533b3bd-278f-4deb-b538-d1386a90ed5e"},{"length":46,"position":247920,"velocity":0.8661417322834646,"pitch":85,"id":"8627ce0f-f662-4e7d-9bc1-663c02f5f02f"},{"length":46,"position":247968,"velocity":0.8661417322834646,"pitch":79,"id":"c9dd78b7-d747-49a0-8d53-f7cc3e464703"},{"length":46,"position":248016,"velocity":0.8661417322834646,"pitch":76,"id":"fe30d035-2b2a-4160-9a82-c060ab915298"},{"length":46,"position":248064,"velocity":0.8661417322834646,"pitch":74,"id":"ca6d2490-3c53-4a2a-9c28-2fd1c26f862a"},{"length":46,"position":248112,"velocity":0.8661417322834646,"pitch":77,"id":"8ea0f99d-3a10-4c11-8ba2-7f920106df2d"},{"length":46,"position":248160,"velocity":0.8661417322834646,"pitch":81,"id":"d559db25-1058-4533-9917-407b69b9cc75"},{"length":46,"position":248208,"velocity":0.8661417322834646,"pitch":77,"id":"75f0817e-14a9-4acb-b918-afbca0090563"},{"length":46,"position":248256,"velocity":0.8661417322834646,"pitch":74,"id":"44b259a3-7492-4f0b-8231-23e09ad1e5c0"},{"length":46,"position":248304,"velocity":0.8661417322834646,"pitch":81,"id":"200c5abc-9e59-4b98-a250-1f81fe6af136"},{"length":46,"position":248352,"velocity":0.8661417322834646,"pitch":77,"id":"52bf3530-b2e5-4aca-b8e5-f67dd73c170d"},{"length":46,"position":248400,"velocity":0.8661417322834646,"pitch":74,"id":"accf399c-24f4-4f77-bd65-18dd071c5eba"},{"length":94,"position":248448,"velocity":0.8661417322834646,"pitch":73,"id":"b3e21415-847d-4f1a-af30-cbe57600e758"},{"length":94,"position":248544,"velocity":0.8661417322834646,"pitch":69,"id":"764a058b-6c1e-4884-aa5c-181381b0360e"},{"length":94,"position":248544,"velocity":0.8661417322834646,"pitch":73,"id":"27b398d8-5bac-43ea-aed6-6742ac577612"},{"length":94,"position":248544,"velocity":0.8661417322834646,"pitch":79,"id":"d8d945f5-409e-4921-b1fc-fa54b145fb41"},{"length":94,"position":248640,"velocity":0.8661417322834646,"pitch":74,"id":"487ebff2-6635-46ef-bd1a-2e80c58d884e"},{"length":94,"position":248640,"velocity":0.8661417322834646,"pitch":77,"id":"34dec263-6827-48b9-95b1-bc47dd050c5a"},{"length":94,"position":248640,"velocity":0.8661417322834646,"pitch":82,"id":"c941d3a6-fa2c-40b4-af52-ac599026deab"},{"length":94,"position":248736,"velocity":0.8661417322834646,"pitch":73,"id":"e302454e-c6fe-4706-a251-d7b6e031cb81"},{"length":94,"position":248736,"velocity":0.8661417322834646,"pitch":76,"id":"260ec951-8cf6-49ae-8c6b-0e13ddc122e0"},{"length":94,"position":248736,"velocity":0.8661417322834646,"pitch":81,"id":"804cfcdc-86a8-4985-8f13-6842f6f4ac45"},{"length":336,"position":248832,"velocity":0.8661417322834646,"pitch":69,"id":"215f9b19-85a3-467b-925c-70edc12d966c"},{"length":336,"position":248832,"velocity":0.8661417322834646,"pitch":72,"id":"1c88538a-4925-42e8-ae7c-98b77c6454f4"},{"length":336,"position":248832,"velocity":0.8661417322834646,"pitch":79,"id":"da2e6d02-88d0-4a52-84c6-f58614e28af9"},{"length":46,"position":249264,"velocity":0.8661417322834646,"pitch":74,"id":"499fea63-f162-4a61-89bc-28ae34277da8"},{"length":46,"position":249264,"velocity":0.8661417322834646,"pitch":86,"id":"f165757e-1664-4914-92a7-8bf49e350df2"},{"length":46,"position":249312,"velocity":0.8661417322834646,"pitch":72,"id":"714b17ac-6084-4f1e-8084-fa5a4254caf7"},{"length":46,"position":249312,"velocity":0.8661417322834646,"pitch":84,"id":"f2203999-5177-45a7-a7d8-1b22248b051e"},{"length":46,"position":249360,"velocity":0.8661417322834646,"pitch":74,"id":"28059bd5-2a7e-4fb7-99b9-0b3b068d92a6"},{"length":46,"position":249360,"velocity":0.8661417322834646,"pitch":86,"id":"1d214e84-2e7e-442b-8e3e-ecfcd2b83c04"},{"length":46,"position":249408,"velocity":0.8661417322834646,"pitch":75,"id":"ddc3d6a2-156c-48ab-8542-6e90cfe78372"},{"length":46,"position":249408,"velocity":0.8661417322834646,"pitch":87,"id":"e09565cf-27bf-4286-ad61-216a23e3c6a3"},{"length":46,"position":249456,"velocity":0.8661417322834646,"pitch":74,"id":"b495cfa1-adbd-4403-837e-e70a1a267bd6"},{"length":46,"position":249456,"velocity":0.8661417322834646,"pitch":86,"id":"c4df7cfb-1b5f-492b-9a38-81285f0b5fb6"},{"length":46,"position":249504,"velocity":0.8661417322834646,"pitch":72,"id":"5f9ed9f5-c797-4087-9ac4-3980be9cd538"},{"length":46,"position":249504,"velocity":0.8661417322834646,"pitch":84,"id":"e9c28400-6cc3-405f-99e2-450195b3f0c0"},{"length":46,"position":249552,"velocity":0.8661417322834646,"pitch":68,"id":"75a903c4-a296-4155-aff4-0cf73834492c"},{"length":46,"position":249552,"velocity":0.8661417322834646,"pitch":80,"id":"92c3c88e-23b2-43c3-9d54-c1a3f548e86f"},{"length":46,"position":249600,"velocity":0.8661417322834646,"pitch":69,"id":"051aee8b-8a6c-4999-befe-2379071127f4"},{"length":46,"position":249600,"velocity":0.8661417322834646,"pitch":81,"id":"a13905d1-2f11-4f5a-ad84-298d77f82c13"},{"length":46,"position":249648,"velocity":0.8661417322834646,"pitch":77,"id":"b362b5d2-86ca-42c8-aaf0-c593a891184e"},{"length":46,"position":249696,"velocity":0.8661417322834646,"pitch":76,"id":"70167177-ec6b-4a8e-ae29-f4ec21439b8b"},{"length":46,"position":249744,"velocity":0.8661417322834646,"pitch":77,"id":"dcbdee76-dfb8-45ef-b1ec-1ac8ac0f4dd0"},{"length":46,"position":249792,"velocity":0.8661417322834646,"pitch":67,"id":"6ebd0f35-3f6d-4406-9d28-667af3bddd13"},{"length":46,"position":249792,"velocity":0.8661417322834646,"pitch":79,"id":"2b2cb3d9-5fe6-4c93-ae4c-fa7158e786f2"},{"length":46,"position":249840,"velocity":0.8661417322834646,"pitch":77,"id":"5dca5d52-9afe-4d58-a255-2d7d9c831f42"},{"length":46,"position":249888,"velocity":0.8661417322834646,"pitch":76,"id":"20e6d6cd-7000-4c17-8aeb-082bb87d8e5a"},{"length":46,"position":249936,"velocity":0.8661417322834646,"pitch":73,"id":"df8b0992-ee08-48b7-98c9-69e09ec7b884"},{"length":160,"position":249984,"velocity":0.8661417322834646,"pitch":74,"id":"b7a89c30-359c-4ec4-941c-dfb6896377fc"},{"length":94,"position":251040,"velocity":0.8661417322834646,"pitch":67,"id":"6cfad607-314c-4577-9cda-a62337183e9e"},{"length":94,"position":251232,"velocity":0.8661417322834646,"pitch":70,"id":"2e1d6b10-8877-40e9-a8e2-70b1e93fbd96"},{"length":94,"position":251328,"velocity":0.8661417322834646,"pitch":67,"id":"d1fa480d-10fe-4109-8e1c-8411d070694b"},{"length":94,"position":251328,"velocity":0.8661417322834646,"pitch":69,"id":"8f938903-1c0b-4834-bef4-258d20cbff9c"},{"length":94,"position":251424,"velocity":0.8661417322834646,"pitch":73,"id":"1f64278c-82ab-44cb-8fe4-2c512973dce7"},{"length":46,"position":251520,"velocity":0.8661417322834646,"pitch":69,"id":"c1ceb279-7395-44d8-a0c8-c02d78882d12"},{"length":46,"position":251520,"velocity":0.8661417322834646,"pitch":74,"id":"ad42a20a-96a5-4e43-8435-3a053a5e3e53"},{"length":46,"position":251568,"velocity":0.8661417322834646,"pitch":69,"id":"c85fa342-7c51-4221-b055-799fae402ddb"},{"length":46,"position":251616,"velocity":0.8661417322834646,"pitch":74,"id":"ebf3d385-9416-4838-b208-5764acc2a974"},{"length":46,"position":251664,"velocity":0.8661417322834646,"pitch":81,"id":"0f31f306-0a89-4a9b-95c0-8d112666145c"},{"length":46,"position":251712,"velocity":0.8661417322834646,"pitch":80,"id":"a282b310-02dd-4d97-9174-8802a59e7215"},{"length":46,"position":251760,"velocity":0.8661417322834646,"pitch":69,"id":"4be9dfd6-58dc-4cdf-b1af-31c9530f47d8"},{"length":46,"position":251808,"velocity":0.8661417322834646,"pitch":74,"id":"a3ee03c8-eabe-45b3-b2da-05e1b78ebc81"},{"length":46,"position":251856,"velocity":0.8661417322834646,"pitch":79,"id":"36e7b3ec-6be7-45a7-8ccd-ac01003d346f"},{"length":46,"position":251904,"velocity":0.8661417322834646,"pitch":77,"id":"635ba465-000b-4fbc-8424-638de1948433"},{"length":46,"position":251952,"velocity":0.8661417322834646,"pitch":69,"id":"9fbde94d-215e-4ed1-bf01-fdc3616ce190"},{"length":46,"position":252000,"velocity":0.8661417322834646,"pitch":74,"id":"639e9fe6-136d-4a77-a44c-dd2ae24d7cbe"},{"length":46,"position":252048,"velocity":0.8661417322834646,"pitch":77,"id":"558f1a0f-addd-41cd-bd4b-fad2e9b8125c"},{"length":46,"position":252096,"velocity":0.8661417322834646,"pitch":76,"id":"2a9b00ed-f8a2-45c4-9825-53cd9bd1d9b8"},{"length":46,"position":252144,"velocity":0.8661417322834646,"pitch":67,"id":"0ae44793-d2ae-4eb2-abd7-a70d0f4875db"},{"length":46,"position":252192,"velocity":0.8661417322834646,"pitch":73,"id":"bfee0eb9-d020-4584-ae4f-a3d94de876ee"},{"length":46,"position":252240,"velocity":0.8661417322834646,"pitch":76,"id":"d757d1d2-9343-46bd-ae59-47699b91ca6e"},{"length":46,"position":252288,"velocity":0.8661417322834646,"pitch":74,"id":"817d8db1-9ab0-4b6a-91d7-b1696d53553c"},{"length":46,"position":252336,"velocity":0.8661417322834646,"pitch":65,"id":"11fe1cd8-e0ab-4fe2-9f16-ca324ef04dc9"},{"length":46,"position":252384,"velocity":0.8661417322834646,"pitch":69,"id":"ee68ce81-5530-46cb-9c6d-242b8b22c2f3"},{"length":46,"position":252432,"velocity":0.8661417322834646,"pitch":74,"id":"02bd6e26-ffa5-43e2-8dbe-751689f8708b"},{"length":94,"position":252480,"velocity":0.8661417322834646,"pitch":73,"id":"37beb742-3c08-4102-8a69-35a2cdacb16e"},{"length":46,"position":252576,"velocity":0.8661417322834646,"pitch":67,"id":"8e1b4bb4-9827-4795-a377-55642dbb5867"},{"length":46,"position":252624,"velocity":0.8661417322834646,"pitch":70,"id":"08b9a161-703f-457e-857e-c9b599f0cf86"},{"length":46,"position":252672,"velocity":0.8661417322834646,"pitch":69,"id":"6f2e072e-10c8-40f1-a787-b6856c6aad97"},{"length":46,"position":252720,"velocity":0.8661417322834646,"pitch":65,"id":"efbca391-202b-4509-b438-2c3d4d78b6f0"},{"length":46,"position":252768,"velocity":0.8661417322834646,"pitch":69,"id":"9c06981e-e02b-4d6c-8e70-1040fc34863b"},{"length":46,"position":252816,"velocity":0.8661417322834646,"pitch":74,"id":"8f9d2cd3-04ed-43ee-a9fc-9cec90548d4d"},{"length":46,"position":252864,"velocity":0.8661417322834646,"pitch":77,"id":"acb32c2f-fbb4-45e6-9dc4-6cac3d305275"},{"length":46,"position":252912,"velocity":0.8661417322834646,"pitch":69,"id":"725438fb-46b9-4ee6-84d1-875c5e3d9515"},{"length":46,"position":252960,"velocity":0.8661417322834646,"pitch":74,"id":"978f987f-3f6d-4877-933c-1ae12b8c18d4"},{"length":46,"position":253008,"velocity":0.8661417322834646,"pitch":77,"id":"cb44b509-0987-412b-a45d-cec562bfad33"},{"length":46,"position":253056,"velocity":0.8661417322834646,"pitch":76,"id":"1c20e9e2-0a22-4bdb-84a3-c34a7e5f7afb"},{"length":46,"position":253104,"velocity":0.8661417322834646,"pitch":67,"id":"61330457-b480-4dbc-8e89-3503cf30e9db"},{"length":46,"position":253152,"velocity":0.8661417322834646,"pitch":70,"id":"3ea4dd94-91e8-4883-8585-6a8cda516b0b"},{"length":46,"position":253200,"velocity":0.8661417322834646,"pitch":73,"id":"0e294b35-00fc-4e19-81c9-ab99323c3762"},{"length":46,"position":253248,"velocity":0.8661417322834646,"pitch":76,"id":"d3c7c901-ed11-40d5-8972-da3aab819eec"},{"length":46,"position":253296,"velocity":0.8661417322834646,"pitch":73,"id":"821d9661-d212-482e-84f0-7b97ac6fe794"},{"length":46,"position":253344,"velocity":0.8661417322834646,"pitch":76,"id":"4bac3afd-99ff-4c59-9901-119fa3760d99"},{"length":46,"position":253392,"velocity":0.8661417322834646,"pitch":79,"id":"98fe8cf1-74a4-42b9-90d6-069df32cddb6"},{"length":46,"position":253440,"velocity":0.8661417322834646,"pitch":77,"id":"fa83ad6e-c921-4c97-97b9-de967f3bd975"},{"length":46,"position":253488,"velocity":0.8661417322834646,"pitch":81,"id":"0880dfb5-0931-48ac-b4cd-1557c5b4cc8c"},{"length":46,"position":253536,"velocity":0.8661417322834646,"pitch":86,"id":"fc3e09f0-0c76-468d-a548-9a02334b4a88"},{"length":46,"position":253584,"velocity":0.8661417322834646,"pitch":81,"id":"b87f8afc-4351-491c-afde-c882c0a92030"},{"length":46,"position":253632,"velocity":0.8661417322834646,"pitch":77,"id":"e521ef8a-9e58-4863-b8a2-a6ede6daf17c"},{"length":46,"position":253680,"velocity":0.8661417322834646,"pitch":86,"id":"d505f72e-c522-4a17-9dc3-71644fe35e6e"},{"length":46,"position":253728,"velocity":0.8661417322834646,"pitch":81,"id":"d5d79092-15cd-4ab1-ac23-57110feca969"},{"length":46,"position":253776,"velocity":0.8661417322834646,"pitch":77,"id":"6b6ca6b4-f76a-4e0a-bc56-ba36bc30ee3c"},{"length":46,"position":253824,"velocity":0.8661417322834646,"pitch":76,"id":"cd65adb5-26f5-46b2-b5e3-c7cc329162c2"},{"length":46,"position":253872,"velocity":0.8661417322834646,"pitch":79,"id":"e4974a19-1586-4f34-bc80-0d7497848390"},{"length":46,"position":253920,"velocity":0.8661417322834646,"pitch":85,"id":"b0d2f70a-5ade-485e-905b-df33635a962f"},{"length":46,"position":253968,"velocity":0.8661417322834646,"pitch":79,"id":"f58b0c8c-80ee-406d-bad9-223d7e3ef693"},{"length":46,"position":254016,"velocity":0.8661417322834646,"pitch":76,"id":"09dba010-5a36-47cd-b0d3-fe80b14bc891"},{"length":46,"position":254064,"velocity":0.8661417322834646,"pitch":85,"id":"5f150165-ac1a-4eb9-8350-9b845e3a411f"},{"length":46,"position":254112,"velocity":0.8661417322834646,"pitch":79,"id":"60667f87-62a6-49a3-a589-4c592d541914"},{"length":46,"position":254160,"velocity":0.8661417322834646,"pitch":76,"id":"8f176614-53da-4bb5-8778-0f4b16b63095"},{"length":46,"position":254256,"velocity":0.8661417322834646,"pitch":69,"id":"1fc94a69-e807-45c0-824c-892377d53b3f"},{"length":46,"position":254304,"velocity":0.8661417322834646,"pitch":74,"id":"3f937b00-ef10-43bb-8e3c-0b0e34a030ad"},{"length":46,"position":254352,"velocity":0.8661417322834646,"pitch":69,"id":"235ee1cc-1d51-4be3-89f2-fbcc2e7add7c"},{"length":46,"position":254400,"velocity":0.8661417322834646,"pitch":77,"id":"e0bbad21-2d8a-40b2-8c2d-38d8613293ba"},{"length":46,"position":254448,"velocity":0.8661417322834646,"pitch":69,"id":"f286e0aa-32a1-40da-bab8-59ce3ffcff73"},{"length":46,"position":254496,"velocity":0.8661417322834646,"pitch":74,"id":"18115b5d-c1b4-422d-ae57-824d0d969e59"},{"length":46,"position":254544,"velocity":0.8661417322834646,"pitch":69,"id":"1b1cc924-865f-4fb6-b256-92fac00efa51"},{"length":46,"position":254592,"velocity":0.8661417322834646,"pitch":75,"id":"ee58dc7c-04c5-4b61-969f-6c08eda53fac"},{"length":46,"position":254640,"velocity":0.8661417322834646,"pitch":67,"id":"48715757-a190-4534-81a5-b37160ca80ca"},{"length":46,"position":254688,"velocity":0.8661417322834646,"pitch":74,"id":"fb62effa-8cc6-4113-863b-1c7a53791358"},{"length":46,"position":254736,"velocity":0.8661417322834646,"pitch":69,"id":"04433cfb-6f2b-4d2f-a163-b3f37e85d163"},{"length":46,"position":254784,"velocity":0.8661417322834646,"pitch":75,"id":"b06bb08e-0cc9-4f21-ad75-8f2c873a278b"},{"length":46,"position":254832,"velocity":0.8661417322834646,"pitch":69,"id":"bc09e8d2-da99-4f9e-9a2b-738c2eddaed3"},{"length":46,"position":254880,"velocity":0.8661417322834646,"pitch":74,"id":"8ee0b944-8694-4e0e-a253-35c318b1ffe7"},{"length":46,"position":254928,"velocity":0.8661417322834646,"pitch":69,"id":"a0aa7487-2dc2-4cf7-9fdf-72e1aaec7c7e"},{"length":46,"position":255024,"velocity":0.8661417322834646,"pitch":67,"id":"7133c543-6b45-4dbd-8adb-71488c7ffd0a"},{"length":46,"position":255072,"velocity":0.8661417322834646,"pitch":73,"id":"f73904e2-5d34-4d67-acfa-288aa5c42381"},{"length":46,"position":255120,"velocity":0.8661417322834646,"pitch":67,"id":"bfa24dfb-ef2b-4a05-b71b-b2ac4e6280a7"},{"length":46,"position":255216,"velocity":0.8661417322834646,"pitch":67,"id":"73486e2b-519c-4324-a341-3629804ec6c7"},{"length":46,"position":255264,"velocity":0.8661417322834646,"pitch":73,"id":"fcc3ca70-fbae-46e0-88b3-8f9bf0eb5045"},{"length":46,"position":255312,"velocity":0.8661417322834646,"pitch":67,"id":"20d402cc-4827-4dfc-a914-11dfbc670d5f"},{"length":46,"position":255408,"velocity":0.8661417322834646,"pitch":67,"id":"ad4fbfc1-8591-4463-a313-18dc4a01ae87"},{"length":46,"position":255456,"velocity":0.8661417322834646,"pitch":73,"id":"ffae245c-acca-4c01-94fd-3689d8ca067f"},{"length":46,"position":255504,"velocity":0.8661417322834646,"pitch":67,"id":"c646557e-dbb1-4996-a41d-a5ee902f78bc"},{"length":46,"position":255600,"velocity":0.8661417322834646,"pitch":67,"id":"8aecec9d-23d9-4932-a2c4-02f02d52b086"},{"length":46,"position":255648,"velocity":0.8661417322834646,"pitch":73,"id":"71bd682e-f908-41ee-9af4-e495f1639d6e"},{"length":46,"position":255696,"velocity":0.8661417322834646,"pitch":67,"id":"be1b835e-958e-4d9b-ae42-489758855c41"},{"length":46,"position":255792,"velocity":0.8661417322834646,"pitch":68,"id":"b4fb77e0-da0f-4026-ba9f-8198fae9a424"},{"length":46,"position":255840,"velocity":0.8661417322834646,"pitch":71,"id":"8c81885c-052d-4b4b-a7bb-66df2072ca68"},{"length":46,"position":255888,"velocity":0.8661417322834646,"pitch":68,"id":"7cf3a313-54c6-43cb-b8d2-9a9b7caa652e"},{"length":46,"position":255936,"velocity":0.8661417322834646,"pitch":74,"id":"ccb2101c-6d05-428b-be10-4352f5e4d181"},{"length":46,"position":255984,"velocity":0.8661417322834646,"pitch":68,"id":"5c11f828-d511-4433-80eb-91c4b2096dda"},{"length":46,"position":256032,"velocity":0.8661417322834646,"pitch":71,"id":"f1b547ef-9439-4d63-887c-071b65066982"},{"length":46,"position":256080,"velocity":0.8661417322834646,"pitch":68,"id":"97da987f-4469-4c22-8a2d-87d9763788eb"},{"length":46,"position":256176,"velocity":0.8661417322834646,"pitch":68,"id":"ea71e33b-c2f7-421f-90a5-9bc51059e54f"},{"length":46,"position":256224,"velocity":0.8661417322834646,"pitch":71,"id":"17bf412b-1335-46ed-97ce-04fa5f7741d4"},{"length":46,"position":256272,"velocity":0.8661417322834646,"pitch":68,"id":"6a710469-2bb8-4986-afb8-82ce9b5e0d5a"},{"length":46,"position":256320,"velocity":0.8661417322834646,"pitch":73,"id":"258ebbd8-d633-4e43-aeaa-15c9839d924c"},{"length":46,"position":256368,"velocity":0.8661417322834646,"pitch":67,"id":"9b25b814-c40c-447d-907e-3386caed2a03"},{"length":46,"position":256416,"velocity":0.8661417322834646,"pitch":70,"id":"265041b5-09cc-4ee4-ad4e-a47ee34dec4d"},{"length":46,"position":256464,"velocity":0.8661417322834646,"pitch":67,"id":"856c8979-2648-49db-a9d9-5bc57e4ce6b9"},{"length":46,"position":256560,"velocity":0.8661417322834646,"pitch":69,"id":"9e182cf5-2242-4b0b-bc3a-19db21c85e91"},{"length":46,"position":256608,"velocity":0.8661417322834646,"pitch":74,"id":"6bc4f848-525c-4f22-8073-eadd410901ef"},{"length":46,"position":256656,"velocity":0.8661417322834646,"pitch":69,"id":"a0ea468b-cea5-4ee9-8587-8162e87ff17f"},{"length":46,"position":256704,"velocity":0.8661417322834646,"pitch":77,"id":"4a0cd3b0-7540-4e1b-b5b9-d27005ed7529"},{"length":46,"position":256752,"velocity":0.8661417322834646,"pitch":69,"id":"89d403e5-c05d-4bd3-beb7-1de75e47c669"},{"length":46,"position":256800,"velocity":0.8661417322834646,"pitch":74,"id":"ebb30f14-5fb3-4e0d-9cee-b8e382cf8661"},{"length":46,"position":256848,"velocity":0.8661417322834646,"pitch":69,"id":"876db960-4d56-4299-b458-9591724e040f"},{"length":46,"position":256944,"velocity":0.8661417322834646,"pitch":69,"id":"532b3d81-4350-4dcb-a6be-6500f645c218"},{"length":46,"position":256992,"velocity":0.8661417322834646,"pitch":74,"id":"bf751826-898a-4dd9-97f6-e1eeb0bb5e83"},{"length":46,"position":257040,"velocity":0.8661417322834646,"pitch":69,"id":"2de62af0-3aec-4ab8-9cc6-35b2414e54d5"},{"length":46,"position":257088,"velocity":0.8661417322834646,"pitch":77,"id":"c7d05b33-85ad-4715-8ac7-bd327ea7dc40"},{"length":46,"position":257136,"velocity":0.8661417322834646,"pitch":74,"id":"e708a0de-195e-4048-bbce-896a1d93ef8b"},{"length":46,"position":257184,"velocity":0.8661417322834646,"pitch":77,"id":"9fc31efa-9ecc-430a-84a2-84f65b663060"},{"length":46,"position":257232,"velocity":0.8661417322834646,"pitch":81,"id":"905fc872-71ad-4f09-9baa-147dd6aa3350"},{"length":46,"position":257280,"velocity":0.8661417322834646,"pitch":74,"id":"b710e1cb-5d39-4442-9ad9-e3649602aee5"},{"length":46,"position":257280,"velocity":0.8661417322834646,"pitch":86,"id":"cc11a259-ce99-438f-a511-4c9f441d7275"},{"length":46,"position":257328,"velocity":0.8661417322834646,"pitch":74,"id":"eb91a079-14e6-42d6-8d1d-63de0bdf5ad8"},{"length":46,"position":257376,"velocity":0.8661417322834646,"pitch":77,"id":"3a7c4dcc-0be9-46a0-a968-098682ec9c68"},{"length":46,"position":257424,"velocity":0.8661417322834646,"pitch":74,"id":"290e7014-3775-440a-8c63-740aa3cee527"},{"length":46,"position":257472,"velocity":0.8661417322834646,"pitch":81,"id":"892f7439-d45e-4749-aa79-7c2ad6119c2e"},{"length":46,"position":257520,"velocity":0.8661417322834646,"pitch":74,"id":"31001449-19a0-4cc6-8ac7-f78c5bdaae6b"},{"length":46,"position":257568,"velocity":0.8661417322834646,"pitch":77,"id":"80d509e3-5daa-4c13-b16f-7d89558156f8"},{"length":46,"position":257616,"velocity":0.8661417322834646,"pitch":74,"id":"b702dc4a-6f1e-4c3f-a10b-7321635693ec"},{"length":46,"position":257664,"velocity":0.8661417322834646,"pitch":75,"id":"5cf7b8fc-350e-4742-8f73-25fe4ec1c322"},{"length":46,"position":257664,"velocity":0.8661417322834646,"pitch":81,"id":"e620b91a-a8b0-4c46-b6d2-139d47b91222"},{"length":46,"position":257712,"velocity":0.8661417322834646,"pitch":74,"id":"30f66873-075b-4565-9db6-75392b130cb9"},{"length":94,"position":257760,"velocity":0.8661417322834646,"pitch":74,"id":"0b5e88cb-f7d0-4650-86c9-fbfbeb71b247"},{"length":94,"position":257760,"velocity":0.8661417322834646,"pitch":77,"id":"3afc1b6a-044b-4137-a05b-513981036654"},{"length":46,"position":257856,"velocity":0.8661417322834646,"pitch":73,"id":"c99ec2db-cef6-42d6-9b5b-9f3c9091b7f3"},{"length":46,"position":257856,"velocity":0.8661417322834646,"pitch":81,"id":"e75acfba-1d2b-407c-98a5-a566c4f5310e"},{"length":46,"position":257904,"velocity":0.8661417322834646,"pitch":74,"id":"92572f92-d31e-4592-9c9c-3d4e9be06c30"},{"length":46,"position":257952,"velocity":0.8661417322834646,"pitch":68,"id":"846b6ea1-2020-408f-a142-5ad51e3973b4"},{"length":46,"position":257952,"velocity":0.8661417322834646,"pitch":77,"id":"dd87f414-98e6-4f0e-a214-fd324732f454"},{"length":46,"position":258000,"velocity":0.8661417322834646,"pitch":74,"id":"a9c91cef-64b6-433a-9860-e932101e51ec"},{"length":46,"position":258048,"velocity":0.8661417322834646,"pitch":69,"id":"a26449a6-06ba-4e25-bcc2-c7af189bc665"},{"length":46,"position":258096,"velocity":0.8661417322834646,"pitch":73,"id":"24b4f8af-aea1-4ee6-a581-2e6b37b0e140"},{"length":46,"position":258144,"velocity":0.8661417322834646,"pitch":76,"id":"88d621c6-6d87-4d1d-9458-6e5f087012f3"},{"length":46,"position":258192,"velocity":0.8661417322834646,"pitch":73,"id":"b9c14631-d4e0-4a6e-a7ba-5a08f66f40a4"},{"length":46,"position":258240,"velocity":0.8661417322834646,"pitch":79,"id":"61b80f0b-a6bc-4a0e-9511-876141247763"},{"length":46,"position":258288,"velocity":0.8661417322834646,"pitch":73,"id":"50e876c0-3e80-4d65-83d6-22b61fb48b20"},{"length":46,"position":258336,"velocity":0.8661417322834646,"pitch":76,"id":"6a208e4a-158b-4be3-bc8d-dfd5554cb92d"},{"length":46,"position":258384,"velocity":0.8661417322834646,"pitch":73,"id":"0b282e3d-68c5-4e3b-a897-884a69e9e442"},{"length":46,"position":258432,"velocity":0.8661417322834646,"pitch":69,"id":"fdf94f8e-b020-4fb9-9514-9365a91b249f"},{"length":46,"position":258480,"velocity":0.8661417322834646,"pitch":73,"id":"79eb24de-4b9b-482d-bf51-100cc464d205"},{"length":46,"position":258528,"velocity":0.8661417322834646,"pitch":76,"id":"f149f7cc-a3b7-4771-8ea2-572016b96092"},{"length":46,"position":258576,"velocity":0.8661417322834646,"pitch":73,"id":"df9d23b4-99b7-418b-b905-f294542929a7"},{"length":46,"position":258624,"velocity":0.8661417322834646,"pitch":79,"id":"d08f9b7f-713f-4375-ab72-d84c4e26301f"},{"length":46,"position":258672,"velocity":0.8661417322834646,"pitch":73,"id":"1e09568f-60b9-40e1-b0c7-c5f8978572df"},{"length":46,"position":258720,"velocity":0.8661417322834646,"pitch":76,"id":"8345bff6-f2ff-45cd-a538-26ab1ca130f4"},{"length":46,"position":258768,"velocity":0.8661417322834646,"pitch":73,"id":"b7d7f1f6-21c4-4022-826a-d9bb6fc3f329"},{"length":46,"position":258816,"velocity":0.8661417322834646,"pitch":68,"id":"9d4f1b3b-af3f-472d-a69a-bd33de64afef"},{"length":46,"position":258816,"velocity":0.8661417322834646,"pitch":71,"id":"86ea0db9-4405-459b-9089-f6f790e0c553"},{"length":46,"position":258864,"velocity":0.8661417322834646,"pitch":74,"id":"53e17ca4-b33c-4e41-991b-5d49d2bd4e9b"},{"length":46,"position":258912,"velocity":0.8661417322834646,"pitch":77,"id":"f41fb46a-afe8-4034-92e1-69c4958dfe31"},{"length":46,"position":258960,"velocity":0.8661417322834646,"pitch":74,"id":"320c230f-b04a-481e-bf34-837d04729a68"},{"length":46,"position":259008,"velocity":0.8661417322834646,"pitch":80,"id":"0fab0d5a-1835-4b4a-9447-648f77cff87f"},{"length":46,"position":259056,"velocity":0.8661417322834646,"pitch":74,"id":"e6455d01-364e-4c89-87cc-792bdf0d0c80"},{"length":46,"position":259104,"velocity":0.8661417322834646,"pitch":77,"id":"13ff0de0-4b74-4dbe-a1c4-d92d2c11a5ff"},{"length":46,"position":259152,"velocity":0.8661417322834646,"pitch":74,"id":"db5e73d8-e400-4fc0-8077-3210b96ea2a1"},{"length":46,"position":259200,"velocity":0.8661417322834646,"pitch":69,"id":"88cc94e3-0a47-40a3-8e51-91f05c60147a"},{"length":46,"position":259200,"velocity":0.8661417322834646,"pitch":71,"id":"8d607d74-9960-4cda-b1af-4f9a76cd1516"},{"length":46,"position":259248,"velocity":0.8661417322834646,"pitch":74,"id":"40d08e23-5a8c-432e-b842-eeade62fedf2"},{"length":46,"position":259296,"velocity":0.8661417322834646,"pitch":77,"id":"193bced8-0d0b-4b8e-8882-e2f573156260"},{"length":46,"position":259344,"velocity":0.8661417322834646,"pitch":74,"id":"b2867763-3ec2-4154-8f5c-64eee877c159"},{"length":46,"position":259392,"velocity":0.8661417322834646,"pitch":67,"id":"e4a2e9f4-72ff-4f0c-9b31-f52edc3add70"},{"length":46,"position":259392,"velocity":0.8661417322834646,"pitch":79,"id":"2235c7cb-18c5-46a7-9ea0-f2d6d93a1846"},{"length":46,"position":259440,"velocity":0.8661417322834646,"pitch":70,"id":"7f9dac4e-bcfe-483a-bcf0-beb0a5e1ad1c"},{"length":46,"position":259488,"velocity":0.8661417322834646,"pitch":73,"id":"c5f7bb14-a9bb-427e-9288-5465126a5e85"},{"length":46,"position":259536,"velocity":0.8661417322834646,"pitch":70,"id":"65298d0e-ff31-4c5b-8829-fb9071a6117f"},{"length":46,"position":259584,"velocity":0.8661417322834646,"pitch":69,"id":"e6bfdc5c-417d-4f84-9852-8c15a17c4f74"},{"length":46,"position":259632,"velocity":0.8661417322834646,"pitch":74,"id":"a9933f9f-2d81-4e07-bf27-d82838eb5a0e"},{"length":46,"position":259680,"velocity":0.8661417322834646,"pitch":77,"id":"eb6a5bc5-53a1-492c-816e-69b8e605ec19"},{"length":46,"position":259728,"velocity":0.8661417322834646,"pitch":74,"id":"b5c1f01d-a3c9-4647-8ff5-a702eafb8f95"},{"length":46,"position":259776,"velocity":0.8661417322834646,"pitch":81,"id":"0ea06f7d-bbe2-4f0b-8e58-1813ef4c36ea"},{"length":46,"position":259824,"velocity":0.8661417322834646,"pitch":69,"id":"52e7cd9e-c44a-49b3-a840-3619c0c84306"},{"length":46,"position":259872,"velocity":0.8661417322834646,"pitch":74,"id":"bf6d9258-d9b0-4eae-acf2-cbd9d1ef0f9d"},{"length":46,"position":259920,"velocity":0.8661417322834646,"pitch":77,"id":"1a24468c-2629-4f6c-82a0-cc4333bdf641"},{"length":94,"position":259968,"velocity":0.8661417322834646,"pitch":74,"id":"62e68141-e74c-4b65-911f-3c4e67475c13"},{"length":94,"position":259968,"velocity":0.8661417322834646,"pitch":77,"id":"61727a94-4d90-4b0a-86fe-a3957261f502"},{"length":94,"position":259968,"velocity":0.8661417322834646,"pitch":81,"id":"17bc7f1b-c5d0-4758-9c3a-946bc890e646"},{"length":94,"position":260064,"velocity":0.8661417322834646,"pitch":74,"id":"3df90eac-2d96-4b43-b4b4-4dcbbff29a06"},{"length":94,"position":260064,"velocity":0.8661417322834646,"pitch":77,"id":"74f1b8c8-12ab-42d6-9f34-dbdb9eeb05f1"},{"length":94,"position":260064,"velocity":0.8661417322834646,"pitch":81,"id":"eae27121-5875-4bd2-81ca-01f509a7efa4"},{"length":94,"position":260160,"velocity":0.8661417322834646,"pitch":74,"id":"e3ea73c5-c692-4db5-8608-20d9ef84cb6f"},{"length":94,"position":260160,"velocity":0.8661417322834646,"pitch":77,"id":"6e899f16-216a-4889-b379-e5180b2bae36"},{"length":94,"position":260160,"velocity":0.8661417322834646,"pitch":81,"id":"339ba5d9-93b9-468c-a0e2-226b57c5dc9c"},{"length":94,"position":260256,"velocity":0.8661417322834646,"pitch":74,"id":"0765fe18-f056-4e14-9ff0-926bc5f758cc"},{"length":94,"position":260256,"velocity":0.8661417322834646,"pitch":77,"id":"3bed656c-9b3f-4c84-b1ad-90f3a2f57226"},{"length":94,"position":260256,"velocity":0.8661417322834646,"pitch":81,"id":"a1edff96-a231-487c-815c-c221df9e0fca"},{"length":46,"position":260400,"velocity":0.8661417322834646,"pitch":57,"id":"b1cc013e-ef0a-4dfd-8a59-58432bec8482"},{"length":46,"position":260400,"velocity":0.8661417322834646,"pitch":62,"id":"bd3ebae7-4543-4d7d-af19-528206303f47"},{"length":46,"position":260400,"velocity":0.8661417322834646,"pitch":65,"id":"bcb9c7af-7436-4eea-9c0c-d60ed94d9c7a"},{"length":46,"position":260448,"velocity":0.8661417322834646,"pitch":57,"id":"08ffe7b3-83ec-40ce-9999-998f4853f310"},{"length":46,"position":260448,"velocity":0.8661417322834646,"pitch":62,"id":"b11af457-0bb2-41c5-aff4-26f2a232d3b5"},{"length":46,"position":260448,"velocity":0.8661417322834646,"pitch":65,"id":"da7ee3c7-0427-4d60-aa5b-66a9d86fa29d"},{"length":46,"position":260496,"velocity":0.8661417322834646,"pitch":57,"id":"43f9371c-8f0a-48cd-b7a0-2848494cabd8"},{"length":46,"position":260496,"velocity":0.8661417322834646,"pitch":62,"id":"bb095d3f-8fba-45b7-ac8f-0ab877792a73"},{"length":46,"position":260496,"velocity":0.8661417322834646,"pitch":65,"id":"4178ddac-eac9-48a4-acb6-abcc9dc43d61"},{"length":46,"position":260544,"velocity":0.8661417322834646,"pitch":58,"id":"c2cc73d5-1670-4b07-9f26-eb92eaf0530c"},{"length":46,"position":260544,"velocity":0.8661417322834646,"pitch":64,"id":"c8b4ea20-3a1a-4f52-b1d7-9714603b6966"},{"length":46,"position":260592,"velocity":0.8661417322834646,"pitch":58,"id":"48137507-063d-426b-bd21-3e5d1c36a4f0"},{"length":46,"position":260592,"velocity":0.8661417322834646,"pitch":64,"id":"78a86d6d-38b8-4578-b290-6a419176b4a1"},{"length":46,"position":260640,"velocity":0.8661417322834646,"pitch":55,"id":"d1373ae1-adfe-4b2a-9a9b-ad3ec88440c3"},{"length":46,"position":260640,"velocity":0.8661417322834646,"pitch":61,"id":"f7b90b23-586d-4b75-bfa4-a7f5b4405b97"},{"length":46,"position":260688,"velocity":0.8661417322834646,"pitch":55,"id":"f4cc902f-e677-40a8-8b63-4b32c27e79cd"},{"length":46,"position":260688,"velocity":0.8661417322834646,"pitch":61,"id":"64cdbd8c-fe27-41cb-9f7b-a4694f0afab2"},{"length":46,"position":260736,"velocity":0.8661417322834646,"pitch":57,"id":"664ba07f-513e-4c6d-a1bf-dff18e493ff5"},{"length":46,"position":260736,"velocity":0.8661417322834646,"pitch":62,"id":"2f2bd0b2-284e-4f08-b3ce-903c22c47d9d"},{"length":46,"position":260784,"velocity":0.8661417322834646,"pitch":57,"id":"3dc666ed-58fd-450c-8430-d5ce90579108"},{"length":46,"position":260784,"velocity":0.8661417322834646,"pitch":62,"id":"b8b3ca45-369f-417f-9905-68917a78f9ba"},{"length":46,"position":260832,"velocity":0.8661417322834646,"pitch":57,"id":"13cf769e-36f6-472b-bb01-3e6ccb61fb64"},{"length":46,"position":260832,"velocity":0.8661417322834646,"pitch":62,"id":"dbe5cc76-3c16-4598-a7bf-b509652cb20a"},{"length":46,"position":260832,"velocity":0.8661417322834646,"pitch":65,"id":"4eea7cc7-8f5a-478c-aa67-51ff9891b8d1"},{"length":46,"position":260880,"velocity":0.8661417322834646,"pitch":57,"id":"11aa8a97-8876-48cd-bed8-9b4d1a5b5167"},{"length":46,"position":260880,"velocity":0.8661417322834646,"pitch":62,"id":"38ea5c2e-63b5-4960-ad1a-6f2543f49d81"},{"length":46,"position":260880,"velocity":0.8661417322834646,"pitch":65,"id":"c186de46-5f8b-4aba-9e80-88dc39e6b4fb"},{"length":46,"position":260928,"velocity":0.8661417322834646,"pitch":58,"id":"e68e1088-5f45-4847-8c35-8398bdda98f2"},{"length":46,"position":260928,"velocity":0.8661417322834646,"pitch":64,"id":"37e08fd2-25fa-4781-b8fe-3c81607eee99"},{"length":46,"position":260976,"velocity":0.8661417322834646,"pitch":58,"id":"ea8a9b79-36f0-44c1-8853-9d4dd4023790"},{"length":46,"position":260976,"velocity":0.8661417322834646,"pitch":64,"id":"1f82b9f6-160f-449e-bb59-63fecbb05e99"},{"length":46,"position":261024,"velocity":0.8661417322834646,"pitch":55,"id":"6ce368e4-0dfe-42db-ba66-199d27963f75"},{"length":46,"position":261024,"velocity":0.8661417322834646,"pitch":61,"id":"a1fd5f17-3fef-45d9-ace5-1dbf52429a68"},{"length":46,"position":261072,"velocity":0.8661417322834646,"pitch":55,"id":"eb919d4b-4cb2-4e86-9b78-ea087cdd34c2"},{"length":46,"position":261072,"velocity":0.8661417322834646,"pitch":61,"id":"e0ff831f-8fc2-468a-894b-0a69f2f5b586"},{"length":46,"position":261168,"velocity":0.8661417322834646,"pitch":62,"id":"3ccd863c-2690-4630-be8c-4bb61e9490ec"},{"length":46,"position":261168,"velocity":0.8661417322834646,"pitch":65,"id":"ec283553-7756-4e3b-a328-783866f76ce5"},{"length":46,"position":261168,"velocity":0.8661417322834646,"pitch":69,"id":"fdf66979-2b75-42ea-b0d3-d2a98ffb3b9c"},{"length":46,"position":261216,"velocity":0.8661417322834646,"pitch":62,"id":"271da492-729a-4758-94e4-817d7e82c426"},{"length":46,"position":261216,"velocity":0.8661417322834646,"pitch":65,"id":"b6397271-4b00-49f2-bdb7-7182080f7ccb"},{"length":46,"position":261216,"velocity":0.8661417322834646,"pitch":69,"id":"4bedd316-eaba-4ea8-ad4b-98eddb36ffc5"},{"length":46,"position":261264,"velocity":0.8661417322834646,"pitch":62,"id":"84c2b963-267f-494f-b62d-36253cf7053d"},{"length":46,"position":261264,"velocity":0.8661417322834646,"pitch":65,"id":"2f919b54-f51e-4f6c-8cbd-a89c62414a27"},{"length":46,"position":261264,"velocity":0.8661417322834646,"pitch":69,"id":"e516949e-fd96-4680-a8d0-ca0be3337089"},{"length":46,"position":261312,"velocity":0.8661417322834646,"pitch":62,"id":"dc914da2-128c-4ec6-908b-c3c618932890"},{"length":46,"position":261312,"velocity":0.8661417322834646,"pitch":65,"id":"f4feb53a-9a55-4dec-8554-cb6065541f0b"},{"length":46,"position":261312,"velocity":0.8661417322834646,"pitch":74,"id":"6e139a05-68e8-46d8-9193-6274a4eed650"},{"length":46,"position":261360,"velocity":0.8661417322834646,"pitch":62,"id":"91086b87-b195-4b54-9289-0cc2c51ca75c"},{"length":46,"position":261360,"velocity":0.8661417322834646,"pitch":65,"id":"0642118c-b92c-4a2c-a114-985d153ddcf9"},{"length":46,"position":261360,"velocity":0.8661417322834646,"pitch":74,"id":"0dee8cca-a26f-4d3c-bdba-5cf5cf098214"},{"length":46,"position":261408,"velocity":0.8661417322834646,"pitch":62,"id":"f2479e70-c9f9-4a71-ad31-da14a5a36c3a"},{"length":46,"position":261408,"velocity":0.8661417322834646,"pitch":65,"id":"61d1b862-d659-4b84-9e69-e372e82c0c53"},{"length":46,"position":261408,"velocity":0.8661417322834646,"pitch":69,"id":"0f1b86fb-f546-4da6-b5ec-daddf2ed5847"},{"length":46,"position":261456,"velocity":0.8661417322834646,"pitch":62,"id":"39ff10a9-89f6-4d24-b9c6-5996d145f565"},{"length":46,"position":261456,"velocity":0.8661417322834646,"pitch":65,"id":"5c9e8b50-740f-4f49-8924-82a02709dd8a"},{"length":46,"position":261456,"velocity":0.8661417322834646,"pitch":69,"id":"13307e97-2017-4376-af0a-4db39dc178af"},{"length":46,"position":261504,"velocity":0.8661417322834646,"pitch":67,"id":"8ffb4dde-a484-4f66-9109-306351b8d2be"},{"length":46,"position":261504,"velocity":0.8661417322834646,"pitch":76,"id":"60dbfbb4-b36d-42e6-9715-7ae8370d5eb8"},{"length":46,"position":261504,"velocity":0.8661417322834646,"pitch":82,"id":"a583e15e-1351-4783-9f99-68c13ec7c3d3"},{"length":46,"position":261552,"velocity":0.8661417322834646,"pitch":67,"id":"6d19181a-7a78-470d-b944-9f55acebafa5"},{"length":46,"position":261552,"velocity":0.8661417322834646,"pitch":76,"id":"d8e5c79c-9253-422e-8861-494ed2e50812"},{"length":46,"position":261552,"velocity":0.8661417322834646,"pitch":82,"id":"005b568a-2471-49e7-9c4c-e4226f3dafc4"},{"length":46,"position":261600,"velocity":0.8661417322834646,"pitch":67,"id":"fd20a9af-b5bf-4e53-af71-67a8d26e8b53"},{"length":46,"position":261600,"velocity":0.8661417322834646,"pitch":73,"id":"04aff340-318f-4284-93b3-2140da7e6c8e"},{"length":46,"position":261600,"velocity":0.8661417322834646,"pitch":79,"id":"4df510e5-e8c8-481f-8625-bdf8f2bb4578"},{"length":46,"position":261648,"velocity":0.8661417322834646,"pitch":67,"id":"aef20aba-e8e6-48a8-82ec-1c3f0b3fa06c"},{"length":46,"position":261648,"velocity":0.8661417322834646,"pitch":73,"id":"c5fa5564-60b4-4ce8-a8ac-6f695a5ba6b5"},{"length":46,"position":261648,"velocity":0.8661417322834646,"pitch":79,"id":"ff2e3b04-75f3-419c-a5e3-ceefa9a808fd"},{"length":46,"position":261696,"velocity":0.8661417322834646,"pitch":67,"id":"c1644f21-212b-4566-a92c-a5d95a4a20f7"},{"length":46,"position":261696,"velocity":0.8661417322834646,"pitch":70,"id":"c653e2ea-04ef-4e6a-a802-4d66988e863b"},{"length":46,"position":261696,"velocity":0.8661417322834646,"pitch":79,"id":"195a02fc-31aa-4ce4-84a8-206bfde9dd03"},{"length":46,"position":261696,"velocity":0.8661417322834646,"pitch":85,"id":"648c328f-ee93-4363-ade3-c52baf66c1a7"},{"length":46,"position":261744,"velocity":0.8661417322834646,"pitch":67,"id":"5ac16bfb-5b31-48aa-9647-f3886053e224"},{"length":46,"position":261744,"velocity":0.8661417322834646,"pitch":70,"id":"a8fdfd93-3b65-455a-b440-a15e318383f9"},{"length":46,"position":261744,"velocity":0.8661417322834646,"pitch":79,"id":"97d7e771-0490-486d-a159-6295ca1383ea"},{"length":46,"position":261744,"velocity":0.8661417322834646,"pitch":85,"id":"4a2c586a-372a-49cf-b1fa-47f26075aed2"},{"length":46,"position":261792,"velocity":0.8661417322834646,"pitch":67,"id":"e5d8d8e2-4cab-46fd-adf8-42b2fe3db11c"},{"length":46,"position":261792,"velocity":0.8661417322834646,"pitch":70,"id":"c1592623-0187-4efc-8c90-6a95eafcbd33"},{"length":46,"position":261792,"velocity":0.8661417322834646,"pitch":76,"id":"56437875-0134-4953-8512-4ad5508d5871"},{"length":46,"position":261792,"velocity":0.8661417322834646,"pitch":82,"id":"909bf8c1-74c7-409f-9102-97b80bd9843d"},{"length":46,"position":261840,"velocity":0.8661417322834646,"pitch":67,"id":"9762018e-1a54-408c-9413-82ca61cfa83d"},{"length":46,"position":261840,"velocity":0.8661417322834646,"pitch":70,"id":"7ae0cc6b-df43-4c78-b497-87e87593c2fa"},{"length":46,"position":261840,"velocity":0.8661417322834646,"pitch":76,"id":"ca6ab1c2-6ee6-4dd1-9501-a569cf797cda"},{"length":46,"position":261840,"velocity":0.8661417322834646,"pitch":82,"id":"58427e72-c7b8-4b58-be0e-f6c122d42817"},{"length":94,"position":262320,"velocity":0.8661417322834646,"pitch":62,"id":"ce4b9df2-6288-44b6-ab51-cc65902f58e3"},{"length":94,"position":262416,"velocity":0.8661417322834646,"pitch":65,"id":"59fe2204-9e75-436d-bc3e-ee9f750d6058"},{"length":46,"position":262512,"velocity":0.8661417322834646,"pitch":66,"id":"df1af268-5838-49ee-b80e-6602c6f52aca"},{"length":94,"position":262560,"velocity":0.8661417322834646,"pitch":67,"id":"6b58739e-8473-4639-b165-b28a900f9bbf"},{"length":94,"position":262656,"velocity":0.8661417322834646,"pitch":57,"id":"c2be5f6b-ebf0-4d19-a976-3ab6eecb674b"},{"length":94,"position":262656,"velocity":0.8661417322834646,"pitch":60,"id":"3682d185-54e9-4443-b305-69bcb1608caa"},{"length":94,"position":262752,"velocity":0.8661417322834646,"pitch":57,"id":"37ac86cc-74ff-4ad2-b105-5da94f33faa9"},{"length":94,"position":262752,"velocity":0.8661417322834646,"pitch":60,"id":"521de9b1-baaf-42f5-b077-97c9ab214e16"},{"length":94,"position":262848,"velocity":0.8661417322834646,"pitch":57,"id":"5bda7231-08e9-4120-b7cb-6407a81764ca"},{"length":94,"position":262848,"velocity":0.8661417322834646,"pitch":60,"id":"fed1161f-1e49-4029-94bb-2b5b5c06d207"},{"length":46,"position":262944,"velocity":0.8661417322834646,"pitch":53,"id":"893c390a-dd4d-472c-b07b-2ad758b70b89"},{"length":46,"position":262944,"velocity":0.8661417322834646,"pitch":57,"id":"0d5a90b5-0fb0-4c34-8fd9-88cfa6367615"},{"length":46,"position":262992,"velocity":0.8661417322834646,"pitch":57,"id":"16e70f04-43d1-454f-9dec-288d8208fa26"},{"length":46,"position":262992,"velocity":0.8661417322834646,"pitch":60,"id":"9cbd321a-b5c4-457a-8f5d-2a98fb9f2cf3"},{"length":94,"position":263088,"velocity":0.8661417322834646,"pitch":57,"id":"586967c9-4bd9-4e1f-8575-4b8573672464"},{"length":94,"position":263088,"velocity":0.8661417322834646,"pitch":60,"id":"b504d533-bc71-4acd-baf4-70cfd52e1a2c"},{"length":46,"position":263184,"velocity":0.8661417322834646,"pitch":53,"id":"4bf4a8cf-5c69-4d7b-8c03-a52c619d4b46"},{"length":46,"position":263184,"velocity":0.8661417322834646,"pitch":57,"id":"eed74369-135d-4ee4-8c73-12f9eaa10883"},{"length":46,"position":263232,"velocity":0.8661417322834646,"pitch":57,"id":"e17431f5-3f1c-45ab-a257-07fdb1612d20"},{"length":46,"position":263232,"velocity":0.8661417322834646,"pitch":60,"id":"605001f5-31b7-459d-9c62-571b0715a621"},{"length":46,"position":263280,"velocity":0.8661417322834646,"pitch":53,"id":"13f9e8fe-57ac-41e8-8c76-eb120741fa49"},{"length":46,"position":263280,"velocity":0.8661417322834646,"pitch":57,"id":"a2098b78-5b67-4a10-ad22-924e2e348d25"},{"length":94,"position":263328,"velocity":0.8661417322834646,"pitch":57,"id":"eb0c3ab0-d870-44eb-b510-5176e650ba25"},{"length":94,"position":263328,"velocity":0.8661417322834646,"pitch":60,"id":"c2816250-3c06-4c6e-b254-e59d61faf6a1"},{"length":94,"position":263424,"velocity":0.8661417322834646,"pitch":55,"id":"a81b3d56-818e-4b7e-819c-7032b23783a5"},{"length":94,"position":263424,"velocity":0.8661417322834646,"pitch":59,"id":"f301934d-8a6e-41b4-9783-31f2ca68d78c"},{"length":94,"position":263520,"velocity":0.8661417322834646,"pitch":55,"id":"7b025327-0069-4b71-af04-705ad093a612"},{"length":94,"position":263520,"velocity":0.8661417322834646,"pitch":59,"id":"0d4c75af-f714-401d-91a1-881d4efe5ab2"},{"length":94,"position":263616,"velocity":0.8661417322834646,"pitch":55,"id":"e9e21385-8be3-4c57-b53a-d02bd0cb7cb8"},{"length":94,"position":263616,"velocity":0.8661417322834646,"pitch":59,"id":"05fed64f-7c3b-4390-8bcc-d235c880dd6a"},{"length":46,"position":263712,"velocity":0.8661417322834646,"pitch":52,"id":"1fe2a851-826e-4b00-a36d-77771a0decfd"},{"length":46,"position":263712,"velocity":0.8661417322834646,"pitch":55,"id":"e6e09d4b-eae4-404b-8bb5-aaf2e29eabb9"},{"length":46,"position":263760,"velocity":0.8661417322834646,"pitch":55,"id":"7ebe8c00-a911-4abb-9750-71ac051f9596"},{"length":46,"position":263760,"velocity":0.8661417322834646,"pitch":59,"id":"f1054392-bc27-4fc7-ba6a-645cf06e2dab"},{"length":94,"position":263856,"velocity":0.8661417322834646,"pitch":55,"id":"4c341684-d2fd-43aa-aef5-b6b5e83650b1"},{"length":94,"position":263856,"velocity":0.8661417322834646,"pitch":59,"id":"c335d9f6-6fff-48b4-8242-50ca84ca0a65"},{"length":46,"position":263952,"velocity":0.8661417322834646,"pitch":52,"id":"c172c7d9-9d6a-4ab0-87bc-fc0efc406a02"},{"length":46,"position":263952,"velocity":0.8661417322834646,"pitch":55,"id":"a5b8febf-daea-42e3-9cc2-460657ed9ae6"},{"length":46,"position":264000,"velocity":0.8661417322834646,"pitch":55,"id":"0ffc2585-6619-4a1d-bcdf-64c4474822b7"},{"length":46,"position":264000,"velocity":0.8661417322834646,"pitch":59,"id":"34e3b5b1-ea2e-4645-9762-c7b068725965"},{"length":46,"position":264048,"velocity":0.8661417322834646,"pitch":52,"id":"c7d881f9-3b8c-4895-b999-721df0fd5d61"},{"length":46,"position":264048,"velocity":0.8661417322834646,"pitch":55,"id":"7b40900f-d21f-4c8c-8eca-7256d3d36e9f"},{"length":94,"position":264096,"velocity":0.8661417322834646,"pitch":55,"id":"ad1664cb-eaf1-42ec-92a4-b97dbb80ed93"},{"length":94,"position":264096,"velocity":0.8661417322834646,"pitch":59,"id":"7591ba2e-a822-4c14-8956-9fe29e8d97cf"},{"length":94,"position":264192,"velocity":0.8661417322834646,"pitch":57,"id":"b53d711a-2570-40a5-93af-84e0027eaf83"},{"length":94,"position":264192,"velocity":0.8661417322834646,"pitch":60,"id":"47f3c892-8e2b-45aa-8ac9-33fa124f07ef"},{"length":94,"position":264288,"velocity":0.8661417322834646,"pitch":57,"id":"0d121d9f-d2ea-4e16-9cdc-4a9e2687e3a8"},{"length":94,"position":264288,"velocity":0.8661417322834646,"pitch":60,"id":"28d81797-744a-4e81-a75c-37437bee6c0e"},{"length":94,"position":264384,"velocity":0.8661417322834646,"pitch":57,"id":"986a0ff7-503b-4eaa-b3e9-43601ef09389"},{"length":94,"position":264384,"velocity":0.8661417322834646,"pitch":60,"id":"2a301174-39f0-441f-a877-3d317e4143f0"},{"length":46,"position":264480,"velocity":0.8661417322834646,"pitch":53,"id":"89b43587-dc0a-4c46-af8a-d66ca6dd844b"},{"length":46,"position":264480,"velocity":0.8661417322834646,"pitch":57,"id":"0bcf8e5e-8b5d-48c7-a7d6-a0bf71383812"},{"length":46,"position":264528,"velocity":0.8661417322834646,"pitch":57,"id":"79599362-82cc-4c38-bde2-9004dacb649d"},{"length":46,"position":264528,"velocity":0.8661417322834646,"pitch":60,"id":"e305724c-2e58-43a4-9bca-df865a4d7707"},{"length":94,"position":264624,"velocity":0.8661417322834646,"pitch":57,"id":"cefad92d-9aa0-44c6-8812-d14f260f78bd"},{"length":94,"position":264624,"velocity":0.8661417322834646,"pitch":60,"id":"9e3efb63-b9ac-4130-858b-4e175ed588e3"},{"length":46,"position":264720,"velocity":0.8661417322834646,"pitch":53,"id":"79fc9b71-6a12-4aed-a1e3-bc44c86fd05c"},{"length":46,"position":264720,"velocity":0.8661417322834646,"pitch":57,"id":"c770c81c-cac5-4917-bac6-1cdbf7044bf0"},{"length":46,"position":264768,"velocity":0.8661417322834646,"pitch":57,"id":"b234cf8f-16e1-4d3b-971d-5c0d2e94f3a6"},{"length":46,"position":264768,"velocity":0.8661417322834646,"pitch":60,"id":"a7d5ed19-50a7-495b-8e1e-90af93b0b1f0"},{"length":46,"position":264816,"velocity":0.8661417322834646,"pitch":53,"id":"8a43d1b5-af25-472a-8aa0-ab2c15ae03e3"},{"length":46,"position":264816,"velocity":0.8661417322834646,"pitch":57,"id":"ef18eb19-fde8-484d-8462-15c7568789d2"},{"length":94,"position":264864,"velocity":0.8661417322834646,"pitch":57,"id":"caba3015-857e-4061-9a54-8eb3cfa5f8fe"},{"length":94,"position":264864,"velocity":0.8661417322834646,"pitch":60,"id":"590faa06-a811-4518-b837-07e16d179909"},{"length":94,"position":264960,"velocity":0.8661417322834646,"pitch":55,"id":"9f876251-3fad-4df2-aa30-6d7d0ded5438"},{"length":94,"position":264960,"velocity":0.8661417322834646,"pitch":59,"id":"f1f174bd-319f-40e0-a4b0-6933921e673a"},{"length":94,"position":265056,"velocity":0.8661417322834646,"pitch":55,"id":"0e320a1e-9c0f-40de-95b6-8b72a82316ba"},{"length":94,"position":265056,"velocity":0.8661417322834646,"pitch":59,"id":"19f24f7b-0c4d-49b8-9c5b-713b8bbf7623"},{"length":94,"position":265152,"velocity":0.8661417322834646,"pitch":55,"id":"8b45ef1b-4f65-4432-90d0-dcd23259d513"},{"length":94,"position":265152,"velocity":0.8661417322834646,"pitch":59,"id":"91b41388-e936-4730-ab67-dcfd5c5aa046"},{"length":46,"position":265248,"velocity":0.8661417322834646,"pitch":52,"id":"4cd90b8e-052b-4af2-bc0d-4490e8410ff6"},{"length":46,"position":265248,"velocity":0.8661417322834646,"pitch":55,"id":"2e80b300-936c-45de-ac87-069bfa7ab544"},{"length":46,"position":265296,"velocity":0.8661417322834646,"pitch":55,"id":"653b9495-e18f-4645-8684-6360179bdcc8"},{"length":46,"position":265296,"velocity":0.8661417322834646,"pitch":59,"id":"0c515510-755d-4226-a402-8656761cca3a"},{"length":94,"position":265392,"velocity":0.8661417322834646,"pitch":55,"id":"8f7d3449-01fd-40c1-80b6-4d63ded6d0de"},{"length":94,"position":265392,"velocity":0.8661417322834646,"pitch":59,"id":"19afd710-a24a-4652-a7bc-4c4dfa9ff0db"},{"length":46,"position":265488,"velocity":0.8661417322834646,"pitch":52,"id":"c81bba3b-495a-4fd7-b847-3bfa1bc9fbab"},{"length":46,"position":265488,"velocity":0.8661417322834646,"pitch":55,"id":"6b5dcf62-28dc-4f3c-9cae-04dce4023148"},{"length":46,"position":265536,"velocity":0.8661417322834646,"pitch":55,"id":"fe7ce5a1-c1c8-4e68-a6e4-9e82e4323630"},{"length":46,"position":265536,"velocity":0.8661417322834646,"pitch":59,"id":"02a6efd1-5592-46fe-94f2-9bc01d29700b"},{"length":46,"position":265584,"velocity":0.8661417322834646,"pitch":52,"id":"2d12b616-672f-4cf9-89bf-28f08e8a725a"},{"length":46,"position":265584,"velocity":0.8661417322834646,"pitch":55,"id":"098df07d-0c8d-42cf-b7af-2445ef317358"},{"length":94,"position":265632,"velocity":0.8661417322834646,"pitch":55,"id":"4e6190e0-da2b-4bd7-b8f2-de6bdce76d7e"},{"length":94,"position":265632,"velocity":0.8661417322834646,"pitch":59,"id":"6118fbc9-a923-4960-a9af-7492ae3f03cf"},{"length":720,"position":265728,"velocity":0.8661417322834646,"pitch":57,"id":"5d239c6a-fcc5-4417-b01f-f441afca0868"},{"length":720,"position":265728,"velocity":0.8661417322834646,"pitch":60,"id":"d73aae05-670c-49cb-8c7b-d61bc52e7409"},{"length":336,"position":266496,"velocity":0.8661417322834646,"pitch":55,"id":"080852da-0116-4c56-92ea-2133731fa214"},{"length":336,"position":266496,"velocity":0.8661417322834646,"pitch":59,"id":"9be47385-1d6f-40fe-8af2-abe3fe212471"},{"length":336,"position":266496,"velocity":0.8661417322834646,"pitch":64,"id":"51aa99a2-70dc-468b-831c-c710becc6a71"},{"length":94,"position":266976,"velocity":0.8661417322834646,"pitch":64,"id":"b4282e66-b558-4542-a89a-6b82532cf748"},{"length":70,"position":267072,"velocity":0.8661417322834646,"pitch":65,"id":"909a84a1-351b-4e78-a809-32368ebc7320"},{"length":118,"position":267144,"velocity":0.8661417322834646,"pitch":67,"id":"1c7516d7-ab99-42b1-b6f5-bf4eef3eff02"},{"length":336,"position":267264,"velocity":0.8661417322834646,"pitch":60,"id":"8477fea0-ec94-4ee1-8671-d4e7dec60e5b"},{"length":336,"position":267264,"velocity":0.8661417322834646,"pitch":65,"id":"48a4fe78-2546-42fb-ad96-90c7418295b1"},{"length":336,"position":267264,"velocity":0.8661417322834646,"pitch":69,"id":"4d078d12-1243-414c-a246-d050295e0cf4"},{"length":94,"position":267744,"velocity":0.8661417322834646,"pitch":69,"id":"e351c0dc-ca93-48a3-9e76-c601465cd5c7"},{"length":70,"position":267840,"velocity":0.8661417322834646,"pitch":67,"id":"e02e23e8-319c-4203-8dfe-32d55a512e75"},{"length":118,"position":267912,"velocity":0.8661417322834646,"pitch":65,"id":"77bbeb1c-e2d4-4b3c-bfd1-57081ff99bc4"},{"length":336,"position":268032,"velocity":0.8661417322834646,"pitch":55,"id":"e8004b0d-abbc-4a05-9675-72d562161e63"},{"length":336,"position":268032,"velocity":0.8661417322834646,"pitch":59,"id":"c9cdf86f-4793-4fe5-971d-24ca17c4d276"},{"length":336,"position":268032,"velocity":0.8661417322834646,"pitch":64,"id":"1944c152-5543-4304-94e8-36649609fcda"},{"length":94,"position":268512,"velocity":0.8661417322834646,"pitch":64,"id":"c062a3df-db1b-4609-96a3-2e940f22d618"},{"length":70,"position":268608,"velocity":0.8661417322834646,"pitch":65,"id":"6416b669-0f5f-4dda-be78-0ebadec1257b"},{"length":118,"position":268680,"velocity":0.8661417322834646,"pitch":67,"id":"36435fa6-69af-4976-91b6-efd2fe7c7295"},{"length":336,"position":268800,"velocity":0.8661417322834646,"pitch":60,"id":"c9e83f2c-5443-412e-8f79-24d59834240a"},{"length":336,"position":268800,"velocity":0.8661417322834646,"pitch":65,"id":"0e1b8868-6a61-4b83-a77d-d9729e4998bc"},{"length":336,"position":268800,"velocity":0.8661417322834646,"pitch":69,"id":"2cce544e-c8cd-4aad-9ee7-c67cc19f7273"},{"length":94,"position":269280,"velocity":0.8661417322834646,"pitch":71,"id":"b4a12926-177b-40bb-aafd-f76d705b9c8b"},{"length":70,"position":269376,"velocity":0.8661417322834646,"pitch":72,"id":"aaa2d54a-4463-4776-83ba-e043c13f1cec"},{"length":118,"position":269448,"velocity":0.8661417322834646,"pitch":74,"id":"f93acde0-10eb-4015-8c8c-b02e89e441e0"},{"length":336,"position":269568,"velocity":0.8661417322834646,"pitch":55,"id":"4bd5b84e-155d-4151-834c-4174c7d673e5"},{"length":336,"position":269568,"velocity":0.8661417322834646,"pitch":59,"id":"047b3628-d5d4-4e80-89e6-edfd3a64792d"},{"length":336,"position":269568,"velocity":0.8661417322834646,"pitch":64,"id":"9a1ef227-31be-4464-85e6-3bf67c815610"},{"length":94,"position":270048,"velocity":0.8661417322834646,"pitch":64,"id":"b329e9c0-9cb0-471c-a29e-d9626d9976df"},{"length":70,"position":270144,"velocity":0.8661417322834646,"pitch":65,"id":"f2a94be8-93da-4ce6-8a07-686b64eb357e"},{"length":118,"position":270216,"velocity":0.8661417322834646,"pitch":67,"id":"f7f73708-b163-4118-99de-371ffae1b4e7"},{"length":336,"position":270336,"velocity":0.8661417322834646,"pitch":60,"id":"f558c64a-aaf5-4c9e-aca6-ae0f29c62038"},{"length":336,"position":270336,"velocity":0.8661417322834646,"pitch":65,"id":"fbfdbd70-b559-4fcf-9f7e-88fda4fbd6bd"},{"length":336,"position":270336,"velocity":0.8661417322834646,"pitch":69,"id":"4fb2a7cf-6a25-4a05-9a57-be52308b2ccc"},{"length":94,"position":270720,"velocity":0.8661417322834646,"pitch":62,"id":"45a55393-9382-40a4-8d06-b2d58fe13001"},{"length":94,"position":270720,"velocity":0.8661417322834646,"pitch":67,"id":"fc61de4d-1fbf-4193-9f7e-474b816062a9"},{"length":94,"position":270720,"velocity":0.8661417322834646,"pitch":71,"id":"17373750-73c1-4f2d-bcea-b0fa4d6aeedc"},{"length":94,"position":270816,"velocity":0.8661417322834646,"pitch":62,"id":"6d00a265-8acd-4cef-b112-a15cd544d9c1"},{"length":94,"position":270816,"velocity":0.8661417322834646,"pitch":67,"id":"67ce890f-87e4-4f55-994b-e0de34c05cd8"},{"length":94,"position":270816,"velocity":0.8661417322834646,"pitch":71,"id":"a40d0bfb-275a-48b0-942f-b05b8e9f3479"},{"length":118,"position":270984,"velocity":0.8661417322834646,"pitch":62,"id":"f16135e7-6fcc-4fda-a345-8aafe92298a4"},{"length":118,"position":270984,"velocity":0.8661417322834646,"pitch":67,"id":"026e7871-ef38-4ba0-bd5b-45405d239089"},{"length":118,"position":270984,"velocity":0.8661417322834646,"pitch":71,"id":"ef16c198-30f3-4d78-979d-d1cf723713d7"},{"length":256,"position":271104,"velocity":0.8661417322834646,"pitch":64,"id":"26204d07-f993-479d-8528-8e9d9691660a"},{"length":94,"position":271392,"velocity":0.8661417322834646,"pitch":64,"id":"fee27c7b-28c3-4bac-b411-e55eef3989c8"},{"length":94,"position":271488,"velocity":0.8661417322834646,"pitch":65,"id":"f1ef628e-986d-4690-98d5-426656c0bd70"},{"length":94,"position":271584,"velocity":0.8661417322834646,"pitch":64,"id":"bfce5299-437a-4290-a734-28fd2a311099"},{"length":94,"position":271680,"velocity":0.8661417322834646,"pitch":65,"id":"c01532ca-9e34-4527-8d72-f849cf3e1133"},{"length":94,"position":271776,"velocity":0.8661417322834646,"pitch":67,"id":"7ffc1d49-5629-4b0d-ab0d-3e2019bacad8"},{"length":336,"position":271872,"velocity":0.8661417322834646,"pitch":64,"id":"8a4d7baa-6377-4d57-95e4-10eaa72ae94d"},{"length":160,"position":272256,"velocity":0.8661417322834646,"pitch":60,"id":"eb7a575d-4ed4-4f6b-acc3-75919195ef0a"},{"length":94,"position":272448,"velocity":0.8661417322834646,"pitch":64,"id":"70d1e798-e730-4818-875a-9a94cbf62c09"},{"length":94,"position":272544,"velocity":0.8661417322834646,"pitch":67,"id":"0e8d2bef-4dd9-4c05-8dfa-e3b76ff0eebd"},{"length":160,"position":272640,"velocity":0.8661417322834646,"pitch":69,"id":"7f8482c3-7e71-4588-a633-71413e93b2ff"},{"length":94,"position":272832,"velocity":0.8661417322834646,"pitch":69,"id":"e342818c-f342-4743-ae1c-1b67d19bfb3a"},{"length":94,"position":272928,"velocity":0.8661417322834646,"pitch":69,"id":"caa55717-1f82-44bf-ac51-3bb4eef4e4bc"},{"length":160,"position":273024,"velocity":0.8661417322834646,"pitch":71,"id":"027318d3-6766-4d59-83c9-bd02aadfb57a"},{"length":94,"position":273216,"velocity":0.8661417322834646,"pitch":74,"id":"b3edf375-6f49-4df0-930c-ace171514fce"},{"length":94,"position":273312,"velocity":0.8661417322834646,"pitch":72,"id":"992c86a2-abfd-4f9d-8e10-9d376f734aca"},{"length":528,"position":273408,"velocity":0.8661417322834646,"pitch":67,"id":"4240b251-0d19-47bd-8fcb-9d9270ec6b3e"},{"length":256,"position":274176,"velocity":0.8661417322834646,"pitch":69,"id":"caa71e91-fd86-44d8-9e82-eb9e94cf3775"},{"length":94,"position":274464,"velocity":0.8661417322834646,"pitch":69,"id":"15c9ebd8-9c59-4328-a3f8-8cdb090fb158"},{"length":160,"position":274560,"velocity":0.8661417322834646,"pitch":71,"id":"4294757c-0b0c-4023-86cc-03db48348148"},{"length":94,"position":274752,"velocity":0.8661417322834646,"pitch":74,"id":"753ee9fc-c70f-4f7f-a27d-0c0591b0e930"},{"length":94,"position":274848,"velocity":0.8661417322834646,"pitch":72,"id":"5efaea28-b5aa-417f-b498-73b23fafcd9a"},{"length":336,"position":274944,"velocity":0.8661417322834646,"pitch":67,"id":"321feb57-f777-4ba8-8b55-aec33f8b698c"},{"length":160,"position":275328,"velocity":0.8661417322834646,"pitch":72,"id":"45a8deeb-c266-442d-a9e4-ba1dad8ad5b1"},{"length":94,"position":275520,"velocity":0.8661417322834646,"pitch":60,"id":"b49b55a2-8955-4d65-b525-2576355af644"},{"length":94,"position":275616,"velocity":0.8661417322834646,"pitch":62,"id":"a5ef2c0a-0c30-4280-a485-e4435fd1cadd"},{"length":256,"position":275712,"velocity":0.8661417322834646,"pitch":65,"id":"195c4fa6-a628-46bf-97c0-16f121cb351a"},{"length":118,"position":276000,"velocity":0.8661417322834646,"pitch":67,"id":"4f04880b-f741-4431-8e4c-ee0d7c744a7d"},{"length":94,"position":276120,"velocity":0.8661417322834646,"pitch":65,"id":"712a16f0-7102-4ac6-b2d3-d8cab6efbe7b"},{"length":70,"position":276216,"velocity":0.8661417322834646,"pitch":64,"id":"7d62575a-cfec-42a1-a57f-3e1c5f186c5e"},{"length":94,"position":276288,"velocity":0.8661417322834646,"pitch":62,"id":"d71850e2-1068-4e03-b43a-072c3a2718a4"},{"length":94,"position":276384,"velocity":0.8661417322834646,"pitch":60,"id":"237ab817-da5f-4859-bf81-7df6fedaa5f8"},{"length":720,"position":276480,"velocity":0.8661417322834646,"pitch":67,"id":"e53ad03b-44c1-4bf0-9b42-2dabdac0a1ee"},{"length":256,"position":277248,"velocity":0.8661417322834646,"pitch":64,"id":"d14a81b9-e0a3-46be-92d7-024ec2ab3a7a"},{"length":94,"position":277536,"velocity":0.8661417322834646,"pitch":64,"id":"954b1f42-a261-44ea-b091-07f958e346f4"},{"length":94,"position":277632,"velocity":0.8661417322834646,"pitch":65,"id":"b9e5c539-efa2-4122-80cb-6e9d43c18185"},{"length":94,"position":277728,"velocity":0.8661417322834646,"pitch":64,"id":"4867fe0f-7747-44f0-baa9-dcb50cf0c76d"},{"length":94,"position":277824,"velocity":0.8661417322834646,"pitch":65,"id":"8b2650b5-1ae9-4995-bb12-0c8d15da27f2"},{"length":94,"position":277920,"velocity":0.8661417322834646,"pitch":67,"id":"5a598b99-0ae7-49ee-a741-f10e9b67013f"},{"length":336,"position":278016,"velocity":0.8661417322834646,"pitch":64,"id":"ff4a93cf-2045-4b36-a97d-559defee7af4"},{"length":160,"position":278400,"velocity":0.8661417322834646,"pitch":60,"id":"18c29b89-d286-4a0c-ab2e-9492750eba21"},{"length":94,"position":278592,"velocity":0.8661417322834646,"pitch":64,"id":"8aaa7f78-0620-4059-93d8-870b538031f4"},{"length":94,"position":278688,"velocity":0.8661417322834646,"pitch":67,"id":"790d15d8-2c15-4837-bd40-e7c7dec7222f"},{"length":160,"position":278784,"velocity":0.8661417322834646,"pitch":69,"id":"81b864d0-15d1-433f-840b-4848296f995e"},{"length":94,"position":278976,"velocity":0.8661417322834646,"pitch":69,"id":"ecfa0486-e8f9-4e02-a03c-0e636325ab4c"},{"length":94,"position":279072,"velocity":0.8661417322834646,"pitch":69,"id":"849c62f2-38fc-42bf-92c9-0b36aca0f984"},{"length":160,"position":279168,"velocity":0.8661417322834646,"pitch":71,"id":"480684d6-59c9-446f-b3ca-c92ab3f6d9d4"},{"length":94,"position":279360,"velocity":0.8661417322834646,"pitch":74,"id":"22e4a6ef-1361-44a9-8d3a-4055efcb6602"},{"length":94,"position":279456,"velocity":0.8661417322834646,"pitch":72,"id":"8402d6e8-c067-47aa-a686-53027e592ff2"},{"length":528,"position":279552,"velocity":0.8661417322834646,"pitch":67,"id":"080686d2-2d46-4ae0-8606-fb9b226d0790"},{"length":256,"position":280320,"velocity":0.8661417322834646,"pitch":69,"id":"b14b9192-7fd9-456d-90c0-a02e4c86a7e0"},{"length":94,"position":280608,"velocity":0.8661417322834646,"pitch":69,"id":"c1fb1897-6d43-424f-976a-a93078b858a3"},{"length":160,"position":280704,"velocity":0.8661417322834646,"pitch":71,"id":"a7a80db0-0c7e-418e-9f7e-170c6ab095f6"},{"length":94,"position":280896,"velocity":0.8661417322834646,"pitch":74,"id":"d81dd0b8-b78f-4540-99fe-e75c78af22f3"},{"length":94,"position":280992,"velocity":0.8661417322834646,"pitch":72,"id":"aaca0ad4-8e3c-4d18-afdf-e48ab29fc1af"},{"length":336,"position":281088,"velocity":0.8661417322834646,"pitch":67,"id":"272bee35-df49-4a70-9962-e2cba8e8bcfd"},{"length":160,"position":281472,"velocity":0.8661417322834646,"pitch":72,"id":"d4f578b5-1f2e-4145-9e67-018dfe7aa164"},{"length":94,"position":281664,"velocity":0.8661417322834646,"pitch":72,"id":"80af0d5b-7005-4bcd-9966-ec1a51d3367a"},{"length":94,"position":281760,"velocity":0.8661417322834646,"pitch":74,"id":"386b54bf-1365-4efa-9ac8-1a9e0b3335cb"},{"length":160,"position":281856,"velocity":0.8661417322834646,"pitch":77,"id":"56734bc8-2c39-4f20-abec-4e3968c64f43"},{"length":160,"position":282048,"velocity":0.8661417322834646,"pitch":76,"id":"08e2e17a-836e-471f-8701-0c550a33da09"},{"length":160,"position":282240,"velocity":0.8661417322834646,"pitch":71,"id":"57fba90d-38f8-4bf7-bfd4-ae54632382d0"},{"length":94,"position":282528,"velocity":0.8661417322834646,"pitch":72,"id":"2b66ae8d-9a8e-40ef-8234-11c9f3ace4f7"},{"length":336,"position":282624,"velocity":0.8661417322834646,"pitch":72,"id":"ecd30b17-aad9-4006-943c-d5200e9092e6"},{"length":160,"position":283392,"velocity":0.8661417322834646,"pitch":72,"id":"e443bb98-c3e3-4352-8593-3ada1864a1ca"},{"length":94,"position":283680,"velocity":0.8661417322834646,"pitch":74,"id":"caa8f7dc-8e4e-40a6-976b-b114104d99a1"},{"length":160,"position":283968,"velocity":0.8661417322834646,"pitch":76,"id":"5c9a882c-3585-4a4b-811d-e317137a677a"},{"length":160,"position":284160,"velocity":0.8661417322834646,"pitch":71,"id":"1d75f630-4a52-4e1d-8965-2f84cf895a21"},{"length":94,"position":284448,"velocity":0.8661417322834646,"pitch":67,"id":"e079c06e-12d8-40d5-bc28-33c346c35bb2"},{"length":160,"position":284736,"velocity":0.8661417322834646,"pitch":64,"id":"ef6ab96b-8e16-4f18-a7b5-f9d6185de171"},{"length":160,"position":284928,"velocity":0.8661417322834646,"pitch":69,"id":"f336607a-5234-4b8d-8a4f-4b140ca83058"},{"length":94,"position":285216,"velocity":0.8661417322834646,"pitch":71,"id":"5d70273d-d76b-4cc8-a0bf-0e6bb13cad2c"},{"length":160,"position":285504,"velocity":0.8661417322834646,"pitch":72,"id":"24213ff8-8933-4c51-afca-6e11b9761a53"},{"length":160,"position":285696,"velocity":0.8661417322834646,"pitch":67,"id":"1fbe9608-b80f-40f5-b5ef-2454c165ea0c"},{"length":160,"position":286464,"velocity":0.8661417322834646,"pitch":65,"id":"3ae09853-ec5c-4b21-b4b8-21094d6575af"},{"length":94,"position":286752,"velocity":0.8661417322834646,"pitch":67,"id":"429a982b-7abf-4808-9889-aab05e10c93d"},{"length":160,"position":287040,"velocity":0.8661417322834646,"pitch":69,"id":"3895c602-f079-4579-a131-18752618698e"},{"length":160,"position":287232,"velocity":0.8661417322834646,"pitch":67,"id":"55417a8c-4e23-488b-929d-3532c770d4ad"},{"length":94,"position":287520,"velocity":0.8661417322834646,"pitch":71,"id":"94332bff-64f6-4a79-8bbe-ce56d3743bc4"},{"length":160,"position":287808,"velocity":0.8661417322834646,"pitch":72,"id":"4d695e9f-6e0c-4181-a6e4-02932e3d8f19"},{"length":160,"position":288000,"velocity":0.8661417322834646,"pitch":69,"id":"2ad25cad-b4d3-4dde-95d5-a4d4eda263c0"},{"length":160,"position":288576,"velocity":0.8661417322834646,"pitch":72,"id":"6048d2cb-8ea4-4a2a-a7a2-ae6ec8623f5e"},{"length":160,"position":288768,"velocity":0.8661417322834646,"pitch":74,"id":"9611c5e7-edbb-4445-ace5-f30c58f94eee"},{"length":94,"position":289536,"velocity":0.8661417322834646,"pitch":72,"id":"6dfefc79-e7df-4418-8c81-07a296371134"},{"length":94,"position":289536,"velocity":0.8661417322834646,"pitch":76,"id":"e0c1de21-0300-4d85-a5af-cf18eb769c15"},{"length":94,"position":289632,"velocity":0.8661417322834646,"pitch":71,"id":"16cf32c9-bf54-455e-9fe7-d254ecfdacf6"},{"length":94,"position":289632,"velocity":0.8661417322834646,"pitch":74,"id":"5c345492-6cc9-4feb-bbc8-c0cdf97b230d"},{"length":94,"position":289728,"velocity":0.8661417322834646,"pitch":72,"id":"f9da2cdd-e6af-4fcb-8f03-041b6ea85d78"},{"length":94,"position":289728,"velocity":0.8661417322834646,"pitch":76,"id":"d19a5a01-2a57-416d-9f22-3e789a2c39b2"},{"length":94,"position":289824,"velocity":0.8661417322834646,"pitch":74,"id":"eba7b49d-055c-4824-870a-5859a94d1831"},{"length":94,"position":289824,"velocity":0.8661417322834646,"pitch":77,"id":"11562178-5d05-40fc-90f7-1ea0e4a8faa8"},{"length":160,"position":289920,"velocity":0.8661417322834646,"pitch":76,"id":"97d7306f-7f0e-442d-ba23-aa134f7f35a6"},{"length":160,"position":289920,"velocity":0.8661417322834646,"pitch":79,"id":"c82a3a61-a201-4a39-b866-a5875e0ad78b"},{"length":94,"position":290112,"velocity":0.8661417322834646,"pitch":72,"id":"bd453b9b-6ddd-4c07-916f-25e5d02bcc49"},{"length":94,"position":290112,"velocity":0.8661417322834646,"pitch":76,"id":"fdb1587d-ac53-45c4-bd82-38fa3915fcf3"},{"length":94,"position":290208,"velocity":0.8661417322834646,"pitch":71,"id":"48bc9628-5f0e-462e-a0e2-0ddb7e5eb8e4"},{"length":94,"position":290208,"velocity":0.8661417322834646,"pitch":74,"id":"6f97252a-0f0d-49b3-8257-01801ab060be"},{"length":256,"position":290304,"velocity":0.8661417322834646,"pitch":71,"id":"aa3ad201-3d40-4903-8e66-28324280aa95"},{"length":256,"position":290304,"velocity":0.8661417322834646,"pitch":74,"id":"12d86be4-406e-4781-90b0-567cd5079674"},{"length":94,"position":290592,"velocity":0.8661417322834646,"pitch":67,"id":"f2567324-c970-4904-89c8-d3482d70883c"},{"length":94,"position":290592,"velocity":0.8661417322834646,"pitch":72,"id":"9ca49225-733b-4768-9e2d-6858e368b539"},{"length":160,"position":290688,"velocity":0.8661417322834646,"pitch":67,"id":"3a9379f8-46c2-4967-a473-87e081a53cc0"},{"length":160,"position":290688,"velocity":0.8661417322834646,"pitch":72,"id":"7cad3d27-675d-496f-bef0-b5b68e90fa98"},{"length":94,"position":290880,"velocity":0.8661417322834646,"pitch":72,"id":"268041ab-15fd-4dcb-93ed-55183320fa90"},{"length":94,"position":290880,"velocity":0.8661417322834646,"pitch":76,"id":"3f6e3d3e-16b9-4ba9-af60-07cb0071b71f"},{"length":94,"position":290976,"velocity":0.8661417322834646,"pitch":76,"id":"4ce665f8-0fcc-4cb7-8c9d-64c7b409025e"},{"length":94,"position":290976,"velocity":0.8661417322834646,"pitch":79,"id":"9ca8c518-a822-41ec-becb-40731322bb66"},{"length":94,"position":291072,"velocity":0.8661417322834646,"pitch":77,"id":"59d0e3c3-5895-45aa-8aab-14932a068dbb"},{"length":94,"position":291072,"velocity":0.8661417322834646,"pitch":81,"id":"9fc582b4-bb65-49ed-a446-c9c211b02d20"},{"length":94,"position":291168,"velocity":0.8661417322834646,"pitch":76,"id":"af8cb110-a830-4bea-803c-e39ce24cfeb4"},{"length":94,"position":291168,"velocity":0.8661417322834646,"pitch":79,"id":"b5f96b21-20f5-4617-8af0-38b2049442cf"},{"length":94,"position":291264,"velocity":0.8661417322834646,"pitch":77,"id":"2f902fc6-7d39-4a47-95eb-fb61cb132b45"},{"length":94,"position":291264,"velocity":0.8661417322834646,"pitch":81,"id":"020f0883-71a2-4d73-8880-3e5b1b3ee309"},{"length":94,"position":291360,"velocity":0.8661417322834646,"pitch":77,"id":"dd3904f6-8318-4b82-b156-c9a0501b5a8e"},{"length":94,"position":291360,"velocity":0.8661417322834646,"pitch":83,"id":"0f303fdf-2c34-461c-89ce-ef83cf62dd14"},{"length":160,"position":291456,"velocity":0.8661417322834646,"pitch":76,"id":"715e5669-8981-4cc2-8654-b95438669a10"},{"length":160,"position":291456,"velocity":0.8661417322834646,"pitch":84,"id":"94053f54-4cc3-4d98-a6b1-7da6b0b15801"},{"length":94,"position":291648,"velocity":0.8661417322834646,"pitch":76,"id":"9d87e750-2525-41ff-b7a1-285888156481"},{"length":94,"position":291648,"velocity":0.8661417322834646,"pitch":79,"id":"a824a4b5-479d-4db4-8d3e-63138ad21dcd"},{"length":94,"position":291744,"velocity":0.8661417322834646,"pitch":74,"id":"1e16093a-69e5-4794-85bc-0679359089bf"},{"length":94,"position":291744,"velocity":0.8661417322834646,"pitch":77,"id":"47d8b08d-6dd9-4d0c-9e86-d9d92ec3d71d"},{"length":160,"position":291840,"velocity":0.8661417322834646,"pitch":72,"id":"24151577-0297-4d22-944a-e73a719fe8bd"},{"length":160,"position":291840,"velocity":0.8661417322834646,"pitch":76,"id":"72da176f-6e56-42ad-ad43-d4d5cde96dd5"},{"length":94,"position":292032,"velocity":0.8661417322834646,"pitch":72,"id":"3cc794a4-4cc3-4c4f-8326-efa3c9b70e6b"},{"length":94,"position":292032,"velocity":0.8661417322834646,"pitch":76,"id":"c0a988bb-f623-4c13-803a-d54c258b8523"},{"length":94,"position":292128,"velocity":0.8661417322834646,"pitch":74,"id":"900679c0-59b2-432a-ab5c-514eeaf8312a"},{"length":94,"position":292128,"velocity":0.8661417322834646,"pitch":77,"id":"c37121a9-e4fb-4148-906b-dfdd42b1d6be"},{"length":336,"position":292224,"velocity":0.8661417322834646,"pitch":71,"id":"33bc3016-7409-41fa-824a-c89c31266195"},{"length":336,"position":292224,"velocity":0.8661417322834646,"pitch":74,"id":"c433610e-b5d6-4ab2-8fa1-0b05e8d08c9c"},{"length":94,"position":292608,"velocity":0.8661417322834646,"pitch":72,"id":"7abebabf-b638-46f1-b215-c481b6a37bf5"},{"length":94,"position":292608,"velocity":0.8661417322834646,"pitch":76,"id":"2704a7fa-64c7-4e04-9686-3e7ec25d925d"},{"length":94,"position":292704,"velocity":0.8661417322834646,"pitch":71,"id":"5659fd3c-c98c-4450-bd45-df972b52433d"},{"length":94,"position":292704,"velocity":0.8661417322834646,"pitch":74,"id":"4e12eb9a-602a-4f2c-858d-2ce0b469d180"},{"length":94,"position":292800,"velocity":0.8661417322834646,"pitch":72,"id":"6f2e713d-6281-4b4d-b408-a5eac0c170f6"},{"length":94,"position":292800,"velocity":0.8661417322834646,"pitch":76,"id":"525e75f9-163a-4b43-9961-dfcec360532b"},{"length":94,"position":292896,"velocity":0.8661417322834646,"pitch":74,"id":"74cf98ce-374a-450d-834e-fe29767ac527"},{"length":94,"position":292896,"velocity":0.8661417322834646,"pitch":77,"id":"eec9ce80-1d6c-4f5a-acac-87648574ede9"},{"length":160,"position":292992,"velocity":0.8661417322834646,"pitch":76,"id":"94c8d94e-9225-43ee-b757-905d9ffd4c95"},{"length":160,"position":292992,"velocity":0.8661417322834646,"pitch":79,"id":"6b9420dd-6885-4eda-9a90-dbadf9f8dcec"},{"length":94,"position":293184,"velocity":0.8661417322834646,"pitch":72,"id":"12980589-ad6b-451f-b743-25369e5eb16d"},{"length":94,"position":293184,"velocity":0.8661417322834646,"pitch":76,"id":"d44c70f9-2125-4d9f-bd7e-641ebad05a04"},{"length":94,"position":293280,"velocity":0.8661417322834646,"pitch":71,"id":"2c7ae817-f0af-4d52-bb6c-7b3edaa7fa05"},{"length":94,"position":293280,"velocity":0.8661417322834646,"pitch":74,"id":"9ef9f46a-d0c4-42d7-8428-70e6aecc09d1"},{"length":256,"position":293376,"velocity":0.8661417322834646,"pitch":71,"id":"088b8845-f428-4eed-87e5-89218685c38e"},{"length":256,"position":293376,"velocity":0.8661417322834646,"pitch":74,"id":"7bdf60e6-3acb-4566-99c0-5100b265e7bc"},{"length":94,"position":293664,"velocity":0.8661417322834646,"pitch":67,"id":"1d5ab96d-3e61-4d3b-bf1c-28756ea21a34"},{"length":94,"position":293664,"velocity":0.8661417322834646,"pitch":72,"id":"3b4ac80b-d90b-497f-9c06-c843695c9d0c"},{"length":160,"position":293760,"velocity":0.8661417322834646,"pitch":67,"id":"2e99a803-3876-4aec-8263-98955810b8c2"},{"length":160,"position":293760,"velocity":0.8661417322834646,"pitch":72,"id":"01690760-c68c-4659-8017-95383ebac045"},{"length":94,"position":293952,"velocity":0.8661417322834646,"pitch":72,"id":"9d30e13c-6573-40ad-bf7c-b39c975490fb"},{"length":94,"position":293952,"velocity":0.8661417322834646,"pitch":76,"id":"eba40f4a-05b1-40ad-9d29-45e921c37df6"},{"length":94,"position":294048,"velocity":0.8661417322834646,"pitch":76,"id":"ba261382-c11d-4026-ba76-510d8d77d118"},{"length":94,"position":294048,"velocity":0.8661417322834646,"pitch":79,"id":"a2d2d7fb-3d0b-4fab-b8f6-171cc771685e"},{"length":94,"position":294144,"velocity":0.8661417322834646,"pitch":77,"id":"6af8e161-1b54-4a13-86a5-08cc029a13ce"},{"length":94,"position":294144,"velocity":0.8661417322834646,"pitch":81,"id":"46286a11-bb0e-43e2-bdb5-b8bff2a8209d"},{"length":94,"position":294240,"velocity":0.8661417322834646,"pitch":76,"id":"983240db-d8e4-43da-8ba2-8ac766700e75"},{"length":94,"position":294240,"velocity":0.8661417322834646,"pitch":79,"id":"820f0948-2fa7-4fc1-8ab1-7b088afa7186"},{"length":94,"position":294336,"velocity":0.8661417322834646,"pitch":77,"id":"377b804f-72b0-4e88-922a-6d5a42c57278"},{"length":94,"position":294336,"velocity":0.8661417322834646,"pitch":81,"id":"447b26ba-1817-403f-8fa5-1c78efd53a9c"},{"length":94,"position":294432,"velocity":0.8661417322834646,"pitch":77,"id":"86533950-7a5e-4e6b-a85e-5489e19a126a"},{"length":94,"position":294432,"velocity":0.8661417322834646,"pitch":83,"id":"d80b07d4-89ee-4630-bce3-1118787c0c95"},{"length":160,"position":294528,"velocity":0.8661417322834646,"pitch":76,"id":"87cc65c0-e226-4f66-a1dc-bddef74d9506"},{"length":160,"position":294528,"velocity":0.8661417322834646,"pitch":84,"id":"c92f0ec6-aff2-43f2-89fb-6992e0541e6e"},{"length":94,"position":294720,"velocity":0.8661417322834646,"pitch":76,"id":"1b875ffe-a52b-4071-af27-72bbe340d950"},{"length":94,"position":294720,"velocity":0.8661417322834646,"pitch":79,"id":"de2d59a3-bf82-4e4e-8d06-64cbf348509c"},{"length":94,"position":294816,"velocity":0.8661417322834646,"pitch":74,"id":"9932d871-d8a9-49a5-baba-d250c0c1a8d0"},{"length":94,"position":294816,"velocity":0.8661417322834646,"pitch":77,"id":"5389a509-f16c-459f-bda6-27203ba1f165"},{"length":94,"position":294912,"velocity":0.8661417322834646,"pitch":72,"id":"71fea085-abc1-4188-8a63-d2cfd498fa82"},{"length":94,"position":294912,"velocity":0.8661417322834646,"pitch":77,"id":"32030c7a-0613-419f-96db-e0640e78fcef"},{"length":94,"position":295008,"velocity":0.8661417322834646,"pitch":72,"id":"cbcea5da-aeef-4038-ad2d-ffc53325fd79"},{"length":94,"position":295008,"velocity":0.8661417322834646,"pitch":76,"id":"b413fb31-2e8a-4faf-9324-f010b894f8fb"},{"length":94,"position":295104,"velocity":0.8661417322834646,"pitch":71,"id":"fc1d6626-c752-4024-9818-11c07db8e767"},{"length":94,"position":295104,"velocity":0.8661417322834646,"pitch":74,"id":"17661f0b-650e-4944-b7f0-79d11806af33"},{"length":94,"position":295200,"velocity":0.8661417322834646,"pitch":67,"id":"cccf6d91-923f-43cc-811d-0647bcd3b58b"},{"length":94,"position":295200,"velocity":0.8661417322834646,"pitch":72,"id":"73f988a4-a7e4-4930-828d-3bd955bae3d7"},{"length":160,"position":295296,"velocity":0.8661417322834646,"pitch":74,"id":"47a4ea24-8e27-4959-92e6-55e0acc8ff67"},{"length":160,"position":295296,"velocity":0.8661417322834646,"pitch":79,"id":"46954c8d-7e74-4179-b7b5-ecaa3ea69410"},{"length":160,"position":295488,"velocity":0.8661417322834646,"pitch":62,"id":"7790d3ef-efda-4226-9329-91a3370f37bb"},{"length":160,"position":295488,"velocity":0.8661417322834646,"pitch":67,"id":"efd04e5e-b8f8-4e77-ae29-bd8cd2886abf"},{"length":256,"position":295680,"velocity":0.8661417322834646,"pitch":76,"id":"a260a888-6a3f-4b52-8d18-276a72f76ed2"},{"length":94,"position":295968,"velocity":0.8661417322834646,"pitch":76,"id":"4c6245c1-0420-4df6-9b22-907af6f15820"},{"length":94,"position":296064,"velocity":0.8661417322834646,"pitch":77,"id":"c24cf8c0-2a83-4b95-8367-a184fc5d384f"},{"length":94,"position":296160,"velocity":0.8661417322834646,"pitch":76,"id":"07cee271-3f51-4f00-87cd-12c869c6b346"},{"length":94,"position":296256,"velocity":0.8661417322834646,"pitch":77,"id":"0ece5f96-c7bf-4763-bcb7-e6c0c1639da2"},{"length":94,"position":296352,"velocity":0.8661417322834646,"pitch":79,"id":"f5867223-5e8d-4357-a9e0-8463a2b01f1d"},{"length":336,"position":296448,"velocity":0.8661417322834646,"pitch":76,"id":"ac6b4def-b9de-4f85-a0af-cb2722cf8965"},{"length":160,"position":296832,"velocity":0.8661417322834646,"pitch":72,"id":"6d54191e-fc8c-4339-873d-9587f46c579d"},{"length":94,"position":297024,"velocity":0.8661417322834646,"pitch":76,"id":"882198b8-07f5-4659-83ed-835944d23584"},{"length":94,"position":297120,"velocity":0.8661417322834646,"pitch":79,"id":"1de26de2-ffda-4bf5-915c-8393578788d6"},{"length":160,"position":297216,"velocity":0.8661417322834646,"pitch":81,"id":"6c4c380c-9e36-4807-873d-e659a5dafd01"},{"length":94,"position":297408,"velocity":0.8661417322834646,"pitch":81,"id":"227c4ed2-62e7-4388-b303-cc5e1c2e8e00"},{"length":94,"position":297504,"velocity":0.8661417322834646,"pitch":81,"id":"d4118701-913d-4f4b-9086-bcdc4b260776"},{"length":160,"position":297600,"velocity":0.8661417322834646,"pitch":83,"id":"2196ca80-8e0e-438c-b20e-e6708c481895"},{"length":94,"position":297792,"velocity":0.8661417322834646,"pitch":86,"id":"20e53034-2b09-47d5-a6ba-ffccd7489f41"},{"length":94,"position":297888,"velocity":0.8661417322834646,"pitch":84,"id":"c4f36fe4-5838-48b5-b5a3-7a3cba8525e9"},{"length":528,"position":297984,"velocity":0.8661417322834646,"pitch":79,"id":"5c96c471-0b5b-42e8-904c-bfbb4997e35e"},{"length":256,"position":298752,"velocity":0.8661417322834646,"pitch":81,"id":"7cef3a84-25dc-46fd-a4ac-5f6b517ecee8"},{"length":94,"position":299040,"velocity":0.8661417322834646,"pitch":81,"id":"eacd5fd7-8e54-4354-866d-88e3314382f0"},{"length":160,"position":299136,"velocity":0.8661417322834646,"pitch":83,"id":"3397c8b5-e55d-49fe-a72f-c0ea193dd6ca"},{"length":94,"position":299328,"velocity":0.8661417322834646,"pitch":86,"id":"6f41de4f-6aef-442b-9922-c1c28eba59b6"},{"length":94,"position":299424,"velocity":0.8661417322834646,"pitch":84,"id":"0fd61dad-48bd-49c7-9b20-319d010ddda5"},{"length":336,"position":299520,"velocity":0.8661417322834646,"pitch":79,"id":"3f9ea454-337a-462e-b377-fde0cf40511f"},{"length":160,"position":299904,"velocity":0.8661417322834646,"pitch":84,"id":"9b14738d-3dc7-4308-8bb2-e1557989cf58"},{"length":94,"position":300096,"velocity":0.8661417322834646,"pitch":72,"id":"dca5ada1-2596-4911-a466-d6ed359882af"},{"length":94,"position":300192,"velocity":0.8661417322834646,"pitch":74,"id":"4be80477-50f9-48b2-89e6-94b4c8071503"},{"length":256,"position":300288,"velocity":0.8661417322834646,"pitch":77,"id":"a3a88459-b7c1-4feb-8e8b-b2d99ca100cc"},{"length":118,"position":300576,"velocity":0.8661417322834646,"pitch":79,"id":"e5d0f268-3245-487a-a970-8bfb25dac924"},{"length":94,"position":300696,"velocity":0.8661417322834646,"pitch":77,"id":"72ea5309-64d5-4868-83b5-e4ac50755985"},{"length":70,"position":300792,"velocity":0.8661417322834646,"pitch":76,"id":"5f48a82f-a891-4e5f-a42c-f1d7a72f27ae"},{"length":94,"position":300864,"velocity":0.8661417322834646,"pitch":74,"id":"1fcc91b5-51e2-4b9a-99af-039fa7c54464"},{"length":94,"position":300960,"velocity":0.8661417322834646,"pitch":72,"id":"64a39d90-8070-47ab-8e84-188fc57cf526"},{"length":720,"position":301056,"velocity":0.8661417322834646,"pitch":79,"id":"c055b54d-22d8-4088-8ce6-22349bf1e586"},{"length":256,"position":301824,"velocity":0.8661417322834646,"pitch":64,"id":"b5f95fb0-110f-453a-85b4-825342417074"},{"length":94,"position":302112,"velocity":0.8661417322834646,"pitch":64,"id":"e409dcfe-c2ea-41b8-af84-914cb0b656d3"},{"length":94,"position":302208,"velocity":0.8661417322834646,"pitch":65,"id":"19c5fdd0-477e-4437-ad56-1bcfa03d817d"},{"length":94,"position":302304,"velocity":0.8661417322834646,"pitch":64,"id":"7549b9da-38b2-4943-bf19-280d1391f4bb"},{"length":94,"position":302400,"velocity":0.8661417322834646,"pitch":65,"id":"b06c0984-da49-4b7c-8058-bb910287c8fe"},{"length":94,"position":302496,"velocity":0.8661417322834646,"pitch":67,"id":"5bfdebc2-a8f0-46fd-9c15-cacd96ba8338"},{"length":336,"position":302592,"velocity":0.8661417322834646,"pitch":64,"id":"ee76120b-8583-4fb0-8c41-57d2d86b491f"},{"length":160,"position":302976,"velocity":0.8661417322834646,"pitch":60,"id":"f8c1ec04-240b-4ec8-8aa2-2da21da2ad1f"},{"length":94,"position":303168,"velocity":0.8661417322834646,"pitch":64,"id":"459d38ec-75fe-4d55-b3f4-f5b939c33a82"},{"length":94,"position":303264,"velocity":0.8661417322834646,"pitch":67,"id":"113f3ec6-aa87-44a2-8b38-f533e25a6ca5"},{"length":160,"position":303360,"velocity":0.8661417322834646,"pitch":69,"id":"88ca8e94-11ff-43f5-b7f7-f107f71055f9"},{"length":94,"position":303552,"velocity":0.8661417322834646,"pitch":69,"id":"d4365f1f-4ab7-4a3b-8ffc-1c4d25548af6"},{"length":94,"position":303648,"velocity":0.8661417322834646,"pitch":69,"id":"bc999ea9-97cc-4ac4-955a-e7bae7ce47dc"},{"length":160,"position":303744,"velocity":0.8661417322834646,"pitch":71,"id":"707879b8-f845-40c1-b6c7-ec1e44ce9f6f"},{"length":94,"position":303936,"velocity":0.8661417322834646,"pitch":74,"id":"d0d6be7d-b44a-422b-8837-e7909bc8b407"},{"length":94,"position":304032,"velocity":0.8661417322834646,"pitch":72,"id":"436632e4-9db3-4863-b7a5-05bcec0c5039"},{"length":528,"position":304128,"velocity":0.8661417322834646,"pitch":67,"id":"38e1ee04-8175-464e-b28f-e62bfc9747ac"},{"length":256,"position":304896,"velocity":0.8661417322834646,"pitch":69,"id":"e1eaa62e-f23c-4574-9256-ba6bd1226a96"},{"length":94,"position":305184,"velocity":0.8661417322834646,"pitch":69,"id":"40664428-69d0-4782-ba4c-4ea162866528"},{"length":160,"position":305280,"velocity":0.8661417322834646,"pitch":71,"id":"d433e612-50d1-4b08-ab7b-f618de16bfec"},{"length":94,"position":305472,"velocity":0.8661417322834646,"pitch":74,"id":"4348a7e3-38af-4814-b362-db2fb742ec57"},{"length":94,"position":305568,"velocity":0.8661417322834646,"pitch":72,"id":"17273668-d2e4-4462-b833-3a4f10648bf6"},{"length":336,"position":305664,"velocity":0.8661417322834646,"pitch":67,"id":"e0f5a7da-5291-4e98-a9a4-2e65e4e59a0a"},{"length":160,"position":306048,"velocity":0.8661417322834646,"pitch":72,"id":"cef80679-f12d-4b9a-bf2c-b98f33fc7ee2"},{"length":94,"position":306240,"velocity":0.8661417322834646,"pitch":72,"id":"e3d1839c-5301-49f7-be99-611c4dcf9a7e"},{"length":94,"position":306336,"velocity":0.8661417322834646,"pitch":74,"id":"ed7af6c1-46b3-4317-a077-f4076609dd72"},{"length":160,"position":306432,"velocity":0.8661417322834646,"pitch":77,"id":"5e914a7d-03cc-4bce-8f1a-b3f0d5627d6e"},{"length":160,"position":306624,"velocity":0.8661417322834646,"pitch":76,"id":"aaa10534-d89f-44b4-896f-2aba2aa3c205"},{"length":160,"position":306816,"velocity":0.8661417322834646,"pitch":71,"id":"c8844371-956f-4ee7-ba02-a62625e06cf2"},{"length":94,"position":307104,"velocity":0.8661417322834646,"pitch":72,"id":"f93dcc38-ca80-4162-8920-424cbb27be6d"},{"length":336,"position":307200,"velocity":0.8661417322834646,"pitch":72,"id":"3fc77921-589b-4d69-9a5e-0daba7bc02fd"},{"length":160,"position":307968,"velocity":0.8661417322834646,"pitch":72,"id":"b170d5ee-0086-4436-8888-65ca78e12e39"},{"length":94,"position":308256,"velocity":0.8661417322834646,"pitch":74,"id":"06ef13bb-a4b7-4723-a3ca-19773e22e6a0"},{"length":160,"position":308544,"velocity":0.8661417322834646,"pitch":76,"id":"3728e2fa-079b-4e2e-a636-b0868b8e839e"},{"length":160,"position":308736,"velocity":0.8661417322834646,"pitch":71,"id":"34ac4ac8-a2c9-489a-8c38-25a3d47bed17"},{"length":94,"position":309024,"velocity":0.8661417322834646,"pitch":67,"id":"a0a1b762-c524-48c9-9104-4d8086589d20"},{"length":160,"position":309312,"velocity":0.8661417322834646,"pitch":64,"id":"52625f65-c028-4288-a2fc-78112404992d"},{"length":160,"position":309504,"velocity":0.8661417322834646,"pitch":69,"id":"aad71000-9b8b-420f-933f-415d56da2a01"},{"length":94,"position":309792,"velocity":0.8661417322834646,"pitch":71,"id":"c058fa7d-45b9-487f-ad6e-4ef4ebb3767b"},{"length":160,"position":310080,"velocity":0.8661417322834646,"pitch":72,"id":"6269275f-5041-4ff6-8255-067c8c8fdf46"},{"length":160,"position":310272,"velocity":0.8661417322834646,"pitch":67,"id":"2d0db52a-98ae-4345-bd37-a1fb40c7a31b"},{"length":160,"position":311040,"velocity":0.8661417322834646,"pitch":65,"id":"d917c161-dc58-44d5-aa45-09735bc5beb3"},{"length":94,"position":311328,"velocity":0.8661417322834646,"pitch":67,"id":"40fc8974-2edf-4ede-bffe-f2b14f79a93a"},{"length":160,"position":311616,"velocity":0.8661417322834646,"pitch":69,"id":"8035de8f-0b22-4d0e-ae95-e69dba0ba785"},{"length":160,"position":311808,"velocity":0.8661417322834646,"pitch":67,"id":"8150700a-cd5b-4dab-a66a-432a740e2bab"},{"length":94,"position":312096,"velocity":0.8661417322834646,"pitch":71,"id":"e66a58e0-96fe-4f5d-815d-2621fffbac07"},{"length":160,"position":312384,"velocity":0.8661417322834646,"pitch":72,"id":"166a53c7-98e1-4b9e-b09c-474ee71cfd32"},{"length":160,"position":312576,"velocity":0.8661417322834646,"pitch":69,"id":"c1f8adef-eb5f-4cec-a838-634f4623e423"},{"length":160,"position":313152,"velocity":0.8661417322834646,"pitch":72,"id":"08038456-9323-4868-b27c-d5e0690e0b76"},{"length":160,"position":313344,"velocity":0.8661417322834646,"pitch":74,"id":"439f6e68-1559-4f4f-ac82-f184a52076f2"},{"length":94,"position":314112,"velocity":0.8661417322834646,"pitch":72,"id":"6118c3a4-65de-4049-a8d3-d78cfee4caac"},{"length":94,"position":314112,"velocity":0.8661417322834646,"pitch":76,"id":"09609443-0cd2-4026-9b5e-65ee3e15e85e"},{"length":94,"position":314208,"velocity":0.8661417322834646,"pitch":71,"id":"4cc5d4d2-4242-4709-a8d0-0710f209b8fa"},{"length":94,"position":314208,"velocity":0.8661417322834646,"pitch":74,"id":"3515b0ee-6dfd-4d9a-ae2e-631b30a17ec1"},{"length":94,"position":314304,"velocity":0.8661417322834646,"pitch":72,"id":"8a939881-3cd8-4d29-b40e-f09a500d6cc8"},{"length":94,"position":314304,"velocity":0.8661417322834646,"pitch":76,"id":"9de10ee8-a584-4224-9d48-5b5ecf3445a8"},{"length":94,"position":314400,"velocity":0.8661417322834646,"pitch":74,"id":"863f9103-d612-4980-bf8f-c37f510f3ce4"},{"length":94,"position":314400,"velocity":0.8661417322834646,"pitch":77,"id":"c2debbfa-9154-4cdd-a6f6-502e92dd3d50"},{"length":160,"position":314496,"velocity":0.8661417322834646,"pitch":76,"id":"bf3ed449-1c8c-4f10-b006-53e607822c34"},{"length":160,"position":314496,"velocity":0.8661417322834646,"pitch":79,"id":"899d8f2e-c8ed-4d67-88bc-6af2f344a4b3"},{"length":94,"position":314688,"velocity":0.8661417322834646,"pitch":72,"id":"faf4443a-4783-47a5-8432-909e0a5e71a5"},{"length":94,"position":314688,"velocity":0.8661417322834646,"pitch":76,"id":"62cf8b2c-b0da-44d3-b59a-e85dc2b2a32b"},{"length":94,"position":314784,"velocity":0.8661417322834646,"pitch":71,"id":"9e63d835-7964-49b2-9200-3ea2a771d861"},{"length":94,"position":314784,"velocity":0.8661417322834646,"pitch":74,"id":"31fa83d2-2a72-4e63-855e-68ffb6eb32cf"},{"length":256,"position":314880,"velocity":0.8661417322834646,"pitch":71,"id":"bd3e70a9-4eb8-4585-9149-2d759583b9d5"},{"length":256,"position":314880,"velocity":0.8661417322834646,"pitch":74,"id":"5baa7aea-4611-442d-9314-8c137c49ac56"},{"length":94,"position":315168,"velocity":0.8661417322834646,"pitch":67,"id":"6e401db6-d122-4c63-a2fb-1dce9a15977d"},{"length":94,"position":315168,"velocity":0.8661417322834646,"pitch":72,"id":"a02f7734-9f7a-4f68-8242-48c0e2be47ad"},{"length":160,"position":315264,"velocity":0.8661417322834646,"pitch":67,"id":"db2a6046-62f2-4dfd-b343-ceb9215b49d1"},{"length":160,"position":315264,"velocity":0.8661417322834646,"pitch":72,"id":"09210edb-bc4b-4785-9771-95cabf45852a"},{"length":94,"position":315456,"velocity":0.8661417322834646,"pitch":72,"id":"d8ab4646-7d19-4d08-8167-b9da37ddf134"},{"length":94,"position":315456,"velocity":0.8661417322834646,"pitch":76,"id":"013d8d79-5037-4319-94ea-f32ff9a26338"},{"length":94,"position":315552,"velocity":0.8661417322834646,"pitch":76,"id":"effafe33-f1cc-4915-b1fa-2b7aa07e68ca"},{"length":94,"position":315552,"velocity":0.8661417322834646,"pitch":79,"id":"9877e844-9335-4956-83c0-170b13438294"},{"length":94,"position":315648,"velocity":0.8661417322834646,"pitch":77,"id":"c26a3c52-2f23-41aa-9b9f-9ba4bcbe7d18"},{"length":94,"position":315648,"velocity":0.8661417322834646,"pitch":81,"id":"e1f229ab-d6dc-4421-a705-5b8d550e4e7c"},{"length":94,"position":315744,"velocity":0.8661417322834646,"pitch":76,"id":"9d5f9a61-1aa4-4c0e-8bfb-cd19111a9af5"},{"length":94,"position":315744,"velocity":0.8661417322834646,"pitch":79,"id":"bb850705-f7ee-4bac-94f4-024ad1fe536f"},{"length":94,"position":315840,"velocity":0.8661417322834646,"pitch":77,"id":"638d0498-54aa-47ed-b37f-36a043cb6658"},{"length":94,"position":315840,"velocity":0.8661417322834646,"pitch":81,"id":"d05d0a1c-4d37-43bd-8f25-fdc15ae6283b"},{"length":94,"position":315936,"velocity":0.8661417322834646,"pitch":77,"id":"22f809f4-8feb-4fa9-b2fc-9156dfe1006c"},{"length":94,"position":315936,"velocity":0.8661417322834646,"pitch":83,"id":"3012a263-e0d3-4d19-ba24-1a23f720ca71"},{"length":160,"position":316032,"velocity":0.8661417322834646,"pitch":76,"id":"4b5427b9-82d4-47e6-83c0-ed959872f7bd"},{"length":160,"position":316032,"velocity":0.8661417322834646,"pitch":84,"id":"627c0489-5577-4355-a16c-f2d80509fa2c"},{"length":94,"position":316224,"velocity":0.8661417322834646,"pitch":76,"id":"dc3f2a87-eb00-4513-b819-cb59e131f2ee"},{"length":94,"position":316224,"velocity":0.8661417322834646,"pitch":79,"id":"11ff64b4-2341-4985-b11b-4e4c25079af6"},{"length":94,"position":316320,"velocity":0.8661417322834646,"pitch":74,"id":"aac0657a-7aeb-4954-940e-7cd8023dc3c4"},{"length":94,"position":316320,"velocity":0.8661417322834646,"pitch":77,"id":"22151dc5-4588-43e7-b593-399f8ae6e131"},{"length":160,"position":316416,"velocity":0.8661417322834646,"pitch":72,"id":"ffdf635a-c098-4549-a54d-c3706d02ae99"},{"length":160,"position":316416,"velocity":0.8661417322834646,"pitch":76,"id":"ffd20678-6c44-45a1-86c9-d0ff5d2a7e6c"},{"length":94,"position":316608,"velocity":0.8661417322834646,"pitch":72,"id":"d0b19309-6db0-4a57-acde-66d9ae3a148e"},{"length":94,"position":316608,"velocity":0.8661417322834646,"pitch":76,"id":"739123ee-500a-45e5-9fa9-e36fd5051d5e"},{"length":94,"position":316704,"velocity":0.8661417322834646,"pitch":74,"id":"18795915-4bc3-4511-b1b8-2df43258383d"},{"length":94,"position":316704,"velocity":0.8661417322834646,"pitch":77,"id":"5f09317b-9959-47c2-aa74-f6fe21ab6e05"},{"length":336,"position":316800,"velocity":0.8661417322834646,"pitch":71,"id":"b39f77ea-6e91-4283-bfc5-ae8265bf970f"},{"length":336,"position":316800,"velocity":0.8661417322834646,"pitch":74,"id":"133ca182-8538-43a1-99e1-a06d0c327ca7"},{"length":94,"position":317184,"velocity":0.8661417322834646,"pitch":72,"id":"7088e890-517b-41db-9454-8629ca9f9f48"},{"length":94,"position":317184,"velocity":0.8661417322834646,"pitch":76,"id":"061c3bff-797f-4254-870e-aad6b788fce9"},{"length":94,"position":317280,"velocity":0.8661417322834646,"pitch":71,"id":"8940a53b-4fdd-4919-ae51-4a0a302b389f"},{"length":94,"position":317280,"velocity":0.8661417322834646,"pitch":74,"id":"96773a89-b342-41ac-b943-32fbfcd0d3e6"},{"length":94,"position":317376,"velocity":0.8661417322834646,"pitch":72,"id":"c29ac654-7016-4a7a-89aa-0d693bc52de9"},{"length":94,"position":317376,"velocity":0.8661417322834646,"pitch":76,"id":"368ac3a5-9fdf-4b4e-9328-9539a725f35d"},{"length":94,"position":317472,"velocity":0.8661417322834646,"pitch":74,"id":"b6cbb650-101b-489f-a79f-f881976d2df8"},{"length":94,"position":317472,"velocity":0.8661417322834646,"pitch":77,"id":"af7a6531-ee5e-449a-a412-e02c604cd075"},{"length":160,"position":317568,"velocity":0.8661417322834646,"pitch":76,"id":"3d05db32-995d-4413-84b8-e3c2fae88b6b"},{"length":160,"position":317568,"velocity":0.8661417322834646,"pitch":79,"id":"4d6754b4-7fce-4e9c-b60d-7c1d66fb35b2"},{"length":94,"position":317760,"velocity":0.8661417322834646,"pitch":72,"id":"aa2335b2-2a60-4b83-afb9-f1f6c4580f1e"},{"length":94,"position":317760,"velocity":0.8661417322834646,"pitch":76,"id":"0ee9d3be-aa49-4ca8-bb4a-774db70cf41a"},{"length":94,"position":317856,"velocity":0.8661417322834646,"pitch":71,"id":"9521a9d0-7339-42d9-b557-15f627a4162b"},{"length":94,"position":317856,"velocity":0.8661417322834646,"pitch":74,"id":"ff948eb1-a9fd-4d7d-ac5e-3c237d95a243"},{"length":256,"position":317952,"velocity":0.8661417322834646,"pitch":71,"id":"d5a41df9-8281-46c6-b07c-34fcccd09111"},{"length":256,"position":317952,"velocity":0.8661417322834646,"pitch":74,"id":"873bb0b9-349c-4517-a3c4-de0e070f2a0d"},{"length":94,"position":318240,"velocity":0.8661417322834646,"pitch":67,"id":"b1ae5b5e-777e-49e2-9257-a5e0a9115235"},{"length":94,"position":318240,"velocity":0.8661417322834646,"pitch":72,"id":"bc70e51b-2d3c-48c8-ac54-f3cf735fd26f"},{"length":160,"position":318336,"velocity":0.8661417322834646,"pitch":67,"id":"98e82410-f1c9-49a2-94d1-59ecbd3f7cac"},{"length":160,"position":318336,"velocity":0.8661417322834646,"pitch":72,"id":"c60c3645-6c66-4c94-9ec9-98f752b23ed2"},{"length":94,"position":318528,"velocity":0.8661417322834646,"pitch":72,"id":"07dc480d-52c7-4001-a3d1-1b2917d19803"},{"length":94,"position":318528,"velocity":0.8661417322834646,"pitch":76,"id":"90c8f96d-25ae-4d38-aec7-02840d083482"},{"length":94,"position":318624,"velocity":0.8661417322834646,"pitch":76,"id":"85424ff9-0600-45a2-b19c-0e1dcead41b5"},{"length":94,"position":318624,"velocity":0.8661417322834646,"pitch":79,"id":"4b4f1945-305c-4f7c-8c78-11f80896c915"},{"length":94,"position":318720,"velocity":0.8661417322834646,"pitch":77,"id":"ceefabf1-fbb7-4cce-8115-743f687a1307"},{"length":94,"position":318720,"velocity":0.8661417322834646,"pitch":81,"id":"fab63527-1e7e-493a-b895-4d2822012eb8"},{"length":94,"position":318816,"velocity":0.8661417322834646,"pitch":76,"id":"47a8ad24-027b-447a-b9b1-c1bdcde8851b"},{"length":94,"position":318816,"velocity":0.8661417322834646,"pitch":79,"id":"34b30b5f-1b9a-474b-8ea4-cde7cfa4a759"},{"length":94,"position":318912,"velocity":0.8661417322834646,"pitch":77,"id":"0c999805-01d5-4864-93fa-775a57a398cd"},{"length":94,"position":318912,"velocity":0.8661417322834646,"pitch":81,"id":"25991382-515d-4e12-b1cb-9107e364d476"},{"length":94,"position":319008,"velocity":0.8661417322834646,"pitch":77,"id":"a3f879b6-af9b-46c3-b10e-e3d39188db20"},{"length":94,"position":319008,"velocity":0.8661417322834646,"pitch":83,"id":"870d4118-9e7d-45fc-86a4-0e2cc7f3b639"},{"length":160,"position":319104,"velocity":0.8661417322834646,"pitch":76,"id":"29532a5a-e282-485e-ab08-bcfb82f4db37"},{"length":160,"position":319104,"velocity":0.8661417322834646,"pitch":84,"id":"775ae0bb-24f5-4846-8357-c8881489d33a"},{"length":94,"position":319296,"velocity":0.8661417322834646,"pitch":76,"id":"fcaad555-3a37-48e0-8a26-7c8c6d1ce5c1"},{"length":94,"position":319296,"velocity":0.8661417322834646,"pitch":79,"id":"b5fb1536-a3a1-4507-aef7-8ed8798b1573"},{"length":94,"position":319392,"velocity":0.8661417322834646,"pitch":74,"id":"90eec6e0-490e-44ce-bda5-d34be8adc699"},{"length":94,"position":319392,"velocity":0.8661417322834646,"pitch":77,"id":"4afb8c45-389f-496f-aeed-efaf74b85c46"},{"length":94,"position":319488,"velocity":0.8661417322834646,"pitch":72,"id":"1a6e6b76-0964-40f8-82e8-23bdbf4b698d"},{"length":94,"position":319488,"velocity":0.8661417322834646,"pitch":77,"id":"2e739d7a-50b0-4564-bf7f-0baeb4ad59cb"},{"length":94,"position":319584,"velocity":0.8661417322834646,"pitch":72,"id":"190c1521-1cb5-4c33-a563-a49216ef40ad"},{"length":94,"position":319584,"velocity":0.8661417322834646,"pitch":76,"id":"6d414389-50a5-4143-81f7-576396663194"},{"length":94,"position":319680,"velocity":0.8661417322834646,"pitch":71,"id":"ed610e70-ed0e-437a-a908-c093ede53adc"},{"length":94,"position":319680,"velocity":0.8661417322834646,"pitch":74,"id":"f16aad64-2dee-4101-a4bd-d41f3f4b2609"},{"length":94,"position":319776,"velocity":0.8661417322834646,"pitch":67,"id":"ef9aa496-a53e-45e0-aca8-510780e7a90d"},{"length":94,"position":319776,"velocity":0.8661417322834646,"pitch":72,"id":"5614015d-b73b-4659-942d-ddfe7fa7abd4"},{"length":160,"position":319872,"velocity":0.8661417322834646,"pitch":74,"id":"07961c5f-59a1-41a5-981e-d5e0c70ede91"},{"length":160,"position":319872,"velocity":0.8661417322834646,"pitch":79,"id":"566b3bd2-c520-4672-8879-c1d6ff60fe3b"},{"length":160,"position":320064,"velocity":0.8661417322834646,"pitch":62,"id":"1e050c03-301f-49c2-8ff6-111e94b937c7"},{"length":160,"position":320064,"velocity":0.8661417322834646,"pitch":67,"id":"573b57df-d86a-4b34-819b-c2477a5ba4f0"},{"length":94,"position":320256,"velocity":0.8661417322834646,"pitch":73,"id":"751e4210-57ad-4f87-9708-8c129adfae0c"},{"length":94,"position":320256,"velocity":0.8661417322834646,"pitch":77,"id":"c5c5d04a-3fee-4ecf-9db8-08d539e92d1b"},{"length":94,"position":320352,"velocity":0.8661417322834646,"pitch":72,"id":"2cd90cc7-9a19-4ebf-88c2-82a9fd7ef05a"},{"length":94,"position":320352,"velocity":0.8661417322834646,"pitch":75,"id":"1a10ad15-fc54-4224-ace8-9fdc7b4a2b64"},{"length":94,"position":320448,"velocity":0.8661417322834646,"pitch":73,"id":"bd0806e3-4630-475a-bddd-153784d1b24e"},{"length":94,"position":320448,"velocity":0.8661417322834646,"pitch":77,"id":"a75a0afd-9eee-4710-b320-18779ef10ffb"},{"length":94,"position":320544,"velocity":0.8661417322834646,"pitch":75,"id":"810caae9-79c1-44d4-9781-cf5b6b162dff"},{"length":94,"position":320544,"velocity":0.8661417322834646,"pitch":78,"id":"1a2afe68-df15-48a7-9b68-4d333b4ee145"},{"length":160,"position":320640,"velocity":0.8661417322834646,"pitch":77,"id":"cd5df973-e23f-4de8-98f1-85120ca168f2"},{"length":160,"position":320640,"velocity":0.8661417322834646,"pitch":80,"id":"994d581b-f516-47d2-a50b-4475f0960229"},{"length":94,"position":320832,"velocity":0.8661417322834646,"pitch":73,"id":"305b0c95-4d06-4ef2-b526-7ab5bf595149"},{"length":94,"position":320832,"velocity":0.8661417322834646,"pitch":77,"id":"3399c049-7947-4723-a662-3bdb74f9e06c"},{"length":94,"position":320928,"velocity":0.8661417322834646,"pitch":72,"id":"a29f1844-6f2d-422e-a830-6416de890c02"},{"length":94,"position":320928,"velocity":0.8661417322834646,"pitch":75,"id":"36f2d574-9051-453b-9c56-d3e1af3f9300"},{"length":256,"position":321024,"velocity":0.8661417322834646,"pitch":72,"id":"bf493280-926a-4099-b6ee-d86fbd623ffd"},{"length":256,"position":321024,"velocity":0.8661417322834646,"pitch":75,"id":"ba8671f5-ea9c-483f-8f61-be484785742d"},{"length":94,"position":321312,"velocity":0.8661417322834646,"pitch":68,"id":"2acc2482-f2b6-4571-af06-c0508c911116"},{"length":94,"position":321312,"velocity":0.8661417322834646,"pitch":73,"id":"3fbba28a-6b64-439c-a479-64f8bd056066"},{"length":160,"position":321408,"velocity":0.8661417322834646,"pitch":68,"id":"6f64f488-aa86-411c-96db-839638e3117e"},{"length":160,"position":321408,"velocity":0.8661417322834646,"pitch":73,"id":"b42a20b6-3748-431f-bd17-593589ec3e21"},{"length":94,"position":321600,"velocity":0.8661417322834646,"pitch":73,"id":"a15f480a-3225-46a8-81cb-1aba7ec018b7"},{"length":94,"position":321600,"velocity":0.8661417322834646,"pitch":77,"id":"13ef242f-8b74-4587-a6a5-ebe1e6410325"},{"length":94,"position":321696,"velocity":0.8661417322834646,"pitch":77,"id":"91f10270-7e7a-4cdf-ae83-0de98f502b77"},{"length":94,"position":321696,"velocity":0.8661417322834646,"pitch":80,"id":"d54040cc-8cf2-44a2-9a72-3d30e86bb95d"},{"length":94,"position":321792,"velocity":0.8661417322834646,"pitch":78,"id":"fbb9c69c-364d-49a6-b93e-3499a2007777"},{"length":94,"position":321792,"velocity":0.8661417322834646,"pitch":82,"id":"bed2b210-4058-4dbd-8242-b1e09e678836"},{"length":94,"position":321888,"velocity":0.8661417322834646,"pitch":77,"id":"16b88bd2-f820-4ff3-9684-d4d2dbfd9822"},{"length":94,"position":321888,"velocity":0.8661417322834646,"pitch":80,"id":"d09978ca-1ac3-4732-b626-df4223577d61"},{"length":94,"position":321984,"velocity":0.8661417322834646,"pitch":78,"id":"11f016aa-950b-4bd9-832b-9e5957217c1e"},{"length":94,"position":321984,"velocity":0.8661417322834646,"pitch":82,"id":"d952d6ba-f6e9-4e92-8115-41d49797d0f8"},{"length":94,"position":322080,"velocity":0.8661417322834646,"pitch":78,"id":"fa541178-90cc-4884-976c-14a76705ff78"},{"length":94,"position":322080,"velocity":0.8661417322834646,"pitch":84,"id":"6e623c4f-bad9-4294-a863-93ded19e07f4"},{"length":160,"position":322176,"velocity":0.8661417322834646,"pitch":77,"id":"9594f800-62ad-4177-8bc0-c1a6e008e5bb"},{"length":160,"position":322176,"velocity":0.8661417322834646,"pitch":85,"id":"e341f5d3-7cf3-42fc-9de1-a9157bc3390e"},{"length":94,"position":322368,"velocity":0.8661417322834646,"pitch":77,"id":"83721b16-0360-4100-96bc-211d71e078e4"},{"length":94,"position":322368,"velocity":0.8661417322834646,"pitch":80,"id":"6dccc5fc-6446-4894-a89f-2b47d86e429a"},{"length":94,"position":322464,"velocity":0.8661417322834646,"pitch":75,"id":"feeab0bf-2736-4a8c-bc26-db5581b96052"},{"length":94,"position":322464,"velocity":0.8661417322834646,"pitch":78,"id":"f70ea294-62ae-47a5-ab3f-9be568641e8d"},{"length":160,"position":322560,"velocity":0.8661417322834646,"pitch":73,"id":"1e1424a7-16ab-42ba-8c8c-ef9c1a46ad62"},{"length":160,"position":322560,"velocity":0.8661417322834646,"pitch":77,"id":"7f77566c-f737-479c-bff9-1e3fdd7a8f4d"},{"length":94,"position":322752,"velocity":0.8661417322834646,"pitch":73,"id":"1124f672-8585-44fc-9748-f348de41806d"},{"length":94,"position":322752,"velocity":0.8661417322834646,"pitch":77,"id":"e089f50d-dbfa-404a-b589-9f967959169d"},{"length":94,"position":322848,"velocity":0.8661417322834646,"pitch":75,"id":"7d2bb789-40cf-4c41-bfdb-da47a8a418a4"},{"length":94,"position":322848,"velocity":0.8661417322834646,"pitch":78,"id":"973eb1e4-e2f1-4aab-bd93-b1b0aaa0c96a"},{"length":336,"position":322944,"velocity":0.8661417322834646,"pitch":72,"id":"91df2b1e-51ad-47df-8d39-f924cf4fe79e"},{"length":336,"position":322944,"velocity":0.8661417322834646,"pitch":75,"id":"340dd4ce-5963-4780-b0bb-9de255852d54"},{"length":94,"position":323328,"velocity":0.8661417322834646,"pitch":73,"id":"aeb70fff-540a-4293-9238-12dab21368a0"},{"length":94,"position":323328,"velocity":0.8661417322834646,"pitch":77,"id":"7b7937e7-90f0-416a-b520-4b98cfe12c37"},{"length":94,"position":323424,"velocity":0.8661417322834646,"pitch":72,"id":"2d06dec9-dd97-42ac-b91a-1a4b0d2b0955"},{"length":94,"position":323424,"velocity":0.8661417322834646,"pitch":75,"id":"4f58782e-29fd-49e8-aebb-3de2dfea345e"},{"length":94,"position":323520,"velocity":0.8661417322834646,"pitch":73,"id":"ee16a734-bb80-4b29-94eb-a6ba729aa96d"},{"length":94,"position":323520,"velocity":0.8661417322834646,"pitch":77,"id":"6339d90f-1491-4872-a418-ca75db9a4188"},{"length":94,"position":323616,"velocity":0.8661417322834646,"pitch":75,"id":"11403391-831a-4b21-b9e9-7f1e38ba1940"},{"length":94,"position":323616,"velocity":0.8661417322834646,"pitch":78,"id":"3651614e-3fef-4aa7-b99f-82e4fa166453"},{"length":160,"position":323712,"velocity":0.8661417322834646,"pitch":77,"id":"5105d555-c7f8-4eef-8bdc-85f75347da82"},{"length":160,"position":323712,"velocity":0.8661417322834646,"pitch":80,"id":"98074f5b-e67c-4a28-a725-9234c9c4043b"},{"length":94,"position":323904,"velocity":0.8661417322834646,"pitch":73,"id":"d1c728a0-ad03-4a3a-bbfc-8f3bdc5d9222"},{"length":94,"position":323904,"velocity":0.8661417322834646,"pitch":77,"id":"4cdf3401-d4fa-4cae-85fa-96639d286872"},{"length":94,"position":324000,"velocity":0.8661417322834646,"pitch":72,"id":"f0238c47-5cb5-4350-b251-5f663d898658"},{"length":94,"position":324000,"velocity":0.8661417322834646,"pitch":75,"id":"d19b9f0d-45f6-4092-bdd0-bb6a8d757268"},{"length":256,"position":324096,"velocity":0.8661417322834646,"pitch":72,"id":"32ee3fbb-79a4-488b-b892-f91981cce1a0"},{"length":256,"position":324096,"velocity":0.8661417322834646,"pitch":75,"id":"e56d64f5-5c25-42b0-b4c4-abb4f5def168"},{"length":94,"position":324384,"velocity":0.8661417322834646,"pitch":68,"id":"4ecabe30-8167-45e1-9129-cb972b7d4623"},{"length":94,"position":324384,"velocity":0.8661417322834646,"pitch":73,"id":"d91bb558-6a6c-4f2c-81ca-ecc467a1bc0a"},{"length":160,"position":324480,"velocity":0.8661417322834646,"pitch":68,"id":"4efd5e2c-f00c-4600-b787-72388546be5b"},{"length":160,"position":324480,"velocity":0.8661417322834646,"pitch":73,"id":"7f7d795e-a99a-42e1-9111-8ccb67912dfa"},{"length":94,"position":324672,"velocity":0.8661417322834646,"pitch":73,"id":"ae987873-0d78-4318-93fb-6b2baf20f3ea"},{"length":94,"position":324672,"velocity":0.8661417322834646,"pitch":77,"id":"242e1f28-660c-40f4-8e1a-be9d04072c8f"},{"length":94,"position":324768,"velocity":0.8661417322834646,"pitch":77,"id":"6dcc09ff-c4dd-43f1-a462-538bd80fdeb5"},{"length":94,"position":324768,"velocity":0.8661417322834646,"pitch":80,"id":"55b7d96e-b0b0-4065-bfc6-7faa98ea06f6"},{"length":94,"position":324864,"velocity":0.8661417322834646,"pitch":78,"id":"c257e792-2ed2-4f0a-99fe-000f7d07d687"},{"length":94,"position":324864,"velocity":0.8661417322834646,"pitch":82,"id":"e006dca1-e798-48d7-9d56-e2e4f0a4fe20"},{"length":94,"position":324960,"velocity":0.8661417322834646,"pitch":77,"id":"71659c4a-89b7-4cd7-9551-3c30f5290cc5"},{"length":94,"position":324960,"velocity":0.8661417322834646,"pitch":80,"id":"36dadc6f-d6e3-4fbc-98ba-198e24dd816d"},{"length":94,"position":325056,"velocity":0.8661417322834646,"pitch":78,"id":"1cbf1131-498c-4c25-9b74-45e6bc22efdf"},{"length":94,"position":325056,"velocity":0.8661417322834646,"pitch":82,"id":"73b3a0a8-1462-40bf-b0c7-bb5e5af985b8"},{"length":94,"position":325152,"velocity":0.8661417322834646,"pitch":78,"id":"d074309a-f895-4262-b40e-8a2a8365f83b"},{"length":94,"position":325152,"velocity":0.8661417322834646,"pitch":84,"id":"23d87e38-4f8c-4d38-88e5-f96429178893"},{"length":160,"position":325248,"velocity":0.8661417322834646,"pitch":77,"id":"5a0f272b-029b-4aac-87a9-efcd90c71236"},{"length":160,"position":325248,"velocity":0.8661417322834646,"pitch":85,"id":"aab2a1bf-0d2d-424f-9e88-318387287c7c"},{"length":94,"position":325440,"velocity":0.8661417322834646,"pitch":77,"id":"4071841d-de68-4283-a766-0e83de450dab"},{"length":94,"position":325440,"velocity":0.8661417322834646,"pitch":80,"id":"b722eedc-8c84-4600-a144-623ff4432213"},{"length":94,"position":325536,"velocity":0.8661417322834646,"pitch":75,"id":"e671191f-5b3a-4bdc-9062-5e12ae88ccd1"},{"length":94,"position":325536,"velocity":0.8661417322834646,"pitch":78,"id":"001094aa-258c-4f39-a3d9-211298d8bc32"},{"length":94,"position":325632,"velocity":0.8661417322834646,"pitch":73,"id":"00264751-16bc-4671-b9d7-a50d40dcf9ce"},{"length":94,"position":325632,"velocity":0.8661417322834646,"pitch":78,"id":"dfd6b0a7-7bb5-432d-a401-ea51ca3acd2e"},{"length":94,"position":325728,"velocity":0.8661417322834646,"pitch":73,"id":"7c9b1422-5dfd-48bb-bc46-1cf6ad5fed33"},{"length":94,"position":325728,"velocity":0.8661417322834646,"pitch":77,"id":"2b8d135f-20dd-4104-82cb-0cb0979467af"},{"length":94,"position":325824,"velocity":0.8661417322834646,"pitch":72,"id":"2441e816-30ed-49fd-a0da-0fc8bb30b6e0"},{"length":94,"position":325824,"velocity":0.8661417322834646,"pitch":75,"id":"11ec71d7-3245-42fa-869c-8981b00f1432"},{"length":94,"position":325920,"velocity":0.8661417322834646,"pitch":68,"id":"08cf3b1e-ee54-44db-8fbd-7c0acadf421b"},{"length":94,"position":325920,"velocity":0.8661417322834646,"pitch":73,"id":"44c9631a-833c-4934-bd27-13443a05cbf3"},{"length":160,"position":326016,"velocity":0.8661417322834646,"pitch":75,"id":"1dfb0d3b-0332-48aa-adf0-0229560aa665"},{"length":160,"position":326016,"velocity":0.8661417322834646,"pitch":80,"id":"93e9ef94-d61f-48c5-a60a-9e9a94c02809"},{"length":160,"position":326208,"velocity":0.8661417322834646,"pitch":68,"id":"75a34a3d-080d-4988-98d0-5a3939368f41"},{"length":160,"position":326208,"velocity":0.8661417322834646,"pitch":72,"id":"e189b992-6816-4f9c-9605-d7c41b76d40e"},{"length":336,"position":326400,"velocity":0.8661417322834646,"pitch":56,"id":"2d8363bd-c6ac-40dc-86b7-d96564091529"},{"length":336,"position":326400,"velocity":0.8661417322834646,"pitch":60,"id":"f9cb0883-b22b-4baa-b49c-096f7701aaec"},{"length":336,"position":326400,"velocity":0.8661417322834646,"pitch":65,"id":"45c2f54e-efa9-43e1-8453-15d10e07b45b"},{"length":94,"position":326880,"velocity":0.8661417322834646,"pitch":65,"id":"191dd12c-bc45-4939-bff3-5963dd6f3308"},{"length":70,"position":326976,"velocity":0.8661417322834646,"pitch":66,"id":"2bf817f5-3554-4a3d-87b8-f9e0afc4a93e"},{"length":118,"position":327048,"velocity":0.8661417322834646,"pitch":68,"id":"04fe7ece-a817-4289-a79a-490f3f377d95"},{"length":336,"position":327168,"velocity":0.8661417322834646,"pitch":61,"id":"4fe67f05-08b7-412f-a701-af701e75f9ac"},{"length":336,"position":327168,"velocity":0.8661417322834646,"pitch":66,"id":"08cd0de4-6334-41a6-b9a8-43bd65f5ac84"},{"length":336,"position":327168,"velocity":0.8661417322834646,"pitch":70,"id":"f4f28dc4-b7cb-4fef-845e-647350dcf51a"},{"length":94,"position":327648,"velocity":0.8661417322834646,"pitch":70,"id":"8c0314ae-6bb1-49c4-9577-973bd3db9a37"},{"length":70,"position":327744,"velocity":0.8661417322834646,"pitch":68,"id":"75fd5583-6643-44a2-a543-0faf614a9fa2"},{"length":118,"position":327816,"velocity":0.8661417322834646,"pitch":66,"id":"3daa835b-0f61-4881-9f88-9bb91de6c32a"},{"length":336,"position":327936,"velocity":0.8661417322834646,"pitch":56,"id":"2a1217d0-595c-419f-aa8a-3e17ce01a937"},{"length":336,"position":327936,"velocity":0.8661417322834646,"pitch":60,"id":"c0acf8d2-9b52-4311-a10c-104e660bfb5b"},{"length":336,"position":327936,"velocity":0.8661417322834646,"pitch":65,"id":"adc9e3f3-60ae-4a8e-bfd0-1837cd5b0579"},{"length":94,"position":328416,"velocity":0.8661417322834646,"pitch":65,"id":"2e63a09c-9bba-4979-8573-e5b0a2ec2ecf"},{"length":70,"position":328512,"velocity":0.8661417322834646,"pitch":66,"id":"dcfe27b2-1afe-432a-ba3a-109cd589fd5c"},{"length":118,"position":328584,"velocity":0.8661417322834646,"pitch":68,"id":"bf49f31e-249a-407a-abcc-1ecdd4810b59"},{"length":336,"position":328704,"velocity":0.8661417322834646,"pitch":61,"id":"0b9a2804-d8d1-4cf4-a8d2-650c7d607ff7"},{"length":336,"position":328704,"velocity":0.8661417322834646,"pitch":66,"id":"d323dd0e-4b4d-48a7-92f3-ec55cf7f6d2b"},{"length":336,"position":328704,"velocity":0.8661417322834646,"pitch":70,"id":"4c8e257a-2b1f-408c-a87c-3589dc899e84"},{"length":94,"position":329184,"velocity":0.8661417322834646,"pitch":70,"id":"7c9bfcf3-e410-40fa-9b06-95d6e8a49e78"},{"length":70,"position":329280,"velocity":0.8661417322834646,"pitch":68,"id":"9d1698eb-25ee-4a32-a22b-9bcf6c83347e"},{"length":118,"position":329352,"velocity":0.8661417322834646,"pitch":66,"id":"702af4d1-0dfa-4624-9f3d-03eaa065aace"},{"length":336,"position":329472,"velocity":0.8661417322834646,"pitch":56,"id":"f2e75a5e-b796-4eb6-9121-98ad342f04cd"},{"length":336,"position":329472,"velocity":0.8661417322834646,"pitch":60,"id":"09c3c18d-a3c0-47f1-b7b3-8636dfa579ee"},{"length":336,"position":329472,"velocity":0.8661417322834646,"pitch":65,"id":"f74016df-7fe2-4e51-b742-f13f000b10e3"},{"length":94,"position":329952,"velocity":0.8661417322834646,"pitch":65,"id":"f62b2543-164e-44a6-b9df-9382f5f7e97b"},{"length":70,"position":330048,"velocity":0.8661417322834646,"pitch":66,"id":"65ae4db0-8f56-4b1e-a16c-a732a295b96a"},{"length":118,"position":330120,"velocity":0.8661417322834646,"pitch":68,"id":"56ef545e-e094-4514-a6e3-58410dc73747"},{"length":336,"position":330240,"velocity":0.8661417322834646,"pitch":61,"id":"5418059c-36fa-4a7c-b866-2124b9c38a9c"},{"length":336,"position":330240,"velocity":0.8661417322834646,"pitch":66,"id":"7f8e23e6-7645-4c56-9dc7-c1fb849bcf87"},{"length":336,"position":330240,"velocity":0.8661417322834646,"pitch":70,"id":"dda6d00a-25d8-44d2-a546-096519e2bec6"},{"length":478,"position":330624,"velocity":0.8661417322834646,"pitch":66,"id":"d3384a2a-b692-44d1-9780-e7a859a48455"},{"length":478,"position":330624,"velocity":0.8661417322834646,"pitch":69,"id":"ec5f0237-127e-4ea0-aed2-e2787d80f0df"},{"length":478,"position":330624,"velocity":0.8661417322834646,"pitch":73,"id":"4bdb6ba6-7e5f-4a10-8d48-0f51b8c6af31"},{"length":22,"position":331104,"velocity":0.8661417322834646,"pitch":68,"id":"ff107e3b-b2d3-4dfb-bead-a6e2a35a177f"},{"length":408,"position":331128,"velocity":0.8661417322834646,"pitch":65,"id":"bdea86c8-2f34-42db-8e24-0696e4058eda"},{"length":408,"position":331128,"velocity":0.8661417322834646,"pitch":73,"id":"5b9c34c4-7f6d-4eeb-b28a-7e7448c117b0"}],"timing":{"pulsesContentPosition":0,"pulsesLength":56064},"type":"N"}]}},{"type":"InstrumentChannel","data":{"mute":false,"solo":false,"gainAutomation":[{"time":0,"value":-10}],"id":"d7252e41-0b91-46d2-9d37-a37acf3b402a","instrument":{"config":{"type":"generalMidiSynth","data":{"programId":3,"isPercussion":false}},"name":"Honky-tonk Piano"},"name":"Acoustic Grand Piano","regions":[{"loopCount":1,"position":0,"color":"#516E41","id":"e7fc14ec-ddd8-4fd3-85b4-e9def14c9503","name":"Note Clip","notes":[{"length":94,"position":0,"velocity":0.8661417322834646,"pitch":38,"id":"148c6eb4-f175-455a-b27f-177f0c3d09c6"},{"length":94,"position":96,"velocity":0.8661417322834646,"pitch":38,"id":"b493c42f-d426-4c54-ab34-3347cb73d29a"},{"length":94,"position":288,"velocity":0.8661417322834646,"pitch":38,"id":"0de83e6a-2252-4d83-b3fb-761defa82359"},{"length":94,"position":480,"velocity":0.8661417322834646,"pitch":38,"id":"ee761984-aa7f-498a-bd9c-d7f868e390d9"},{"length":160,"position":576,"velocity":0.8661417322834646,"pitch":38,"id":"96e9cbf0-dccb-4063-aa7e-760a5dcadbe7"},{"length":160,"position":768,"velocity":0.8661417322834646,"pitch":43,"id":"a10a7710-a4cf-4d7e-81f4-a05e212f82c2"},{"length":160,"position":1152,"velocity":0.8661417322834646,"pitch":47,"id":"e1e33d42-5859-4db2-854a-4cca1876e013"},{"length":1104,"position":1536,"velocity":0.8661417322834646,"pitch":43,"id":"46db5422-4fab-4821-9b0e-73449c8ccda9"},{"length":1104,"position":3072,"velocity":0.8661417322834646,"pitch":48,"id":"e972f764-60cc-45ca-b2ce-03f605d56dc6"},{"length":1104,"position":4608,"velocity":0.8661417322834646,"pitch":43,"id":"5525f6cc-bb9c-40b7-a7b8-f4c45ea3b46e"},{"length":1104,"position":6144,"velocity":0.8661417322834646,"pitch":48,"id":"4f3c1591-4b47-4acb-8800-d6b37e68c4bc"},{"length":1104,"position":7680,"velocity":0.8661417322834646,"pitch":47,"id":"07c04fb1-595b-4804-8320-73376e27735d"},{"length":1104,"position":9216,"velocity":0.8661417322834646,"pitch":45,"id":"48ca549d-e4b0-4fb2-8a3e-84354e678ec1"},{"length":1104,"position":10752,"velocity":0.8661417322834646,"pitch":47,"id":"a574e489-437e-468a-b3fc-e872738cc007"},{"length":1104,"position":12288,"velocity":0.8661417322834646,"pitch":50,"id":"00a4f88c-24c7-49f7-8aea-7a7d2c19989e"},{"length":1488,"position":13824,"velocity":0.8661417322834646,"pitch":36,"id":"37095796-dc10-400f-bfe8-2044eefe1b9f"},{"length":1488,"position":13824,"velocity":0.8661417322834646,"pitch":48,"id":"95297d98-4d45-44f0-b450-62578a9145f9"},{"length":720,"position":15360,"velocity":0.8661417322834646,"pitch":36,"id":"f2dc9eff-4b9f-4a32-851c-3886154ef2d6"},{"length":720,"position":15360,"velocity":0.8661417322834646,"pitch":48,"id":"b1034a5d-21a3-49c5-805c-4b8691b7733e"},{"length":720,"position":16128,"velocity":0.8661417322834646,"pitch":36,"id":"140ac2ca-1f47-4c53-a8d1-c14380500e68"},{"length":720,"position":16128,"velocity":0.8661417322834646,"pitch":48,"id":"83859796-fbb6-441e-95d7-bfac08145457"},{"length":720,"position":16896,"velocity":0.8661417322834646,"pitch":36,"id":"a7650622-d5af-462d-bad3-5db0b4897ceb"},{"length":720,"position":16896,"velocity":0.8661417322834646,"pitch":48,"id":"627102e5-59f1-4e2c-bdcf-20b79cb6c618"},{"length":720,"position":17664,"velocity":0.8661417322834646,"pitch":36,"id":"44e0de0f-1441-444d-8fa7-6ddd3c35b77a"},{"length":720,"position":17664,"velocity":0.8661417322834646,"pitch":48,"id":"a04bf5aa-f08f-4b4c-aa6c-acc1a45e321d"},{"length":720,"position":18432,"velocity":0.8661417322834646,"pitch":37,"id":"3fce9260-c026-4f00-87f5-8da923b8aa2b"},{"length":720,"position":18432,"velocity":0.8661417322834646,"pitch":49,"id":"6afd5491-fcee-4963-9317-686ede791f24"},{"length":720,"position":19200,"velocity":0.8661417322834646,"pitch":38,"id":"ffa7108a-6371-4a17-9a1c-3fe1c080029e"},{"length":720,"position":19200,"velocity":0.8661417322834646,"pitch":50,"id":"fb131ba5-9fa9-49d6-bf91-f1bd82c9cb0a"},{"length":720,"position":19968,"velocity":0.8661417322834646,"pitch":39,"id":"a2a7fd81-f038-49ae-aab6-948829cdbdf7"},{"length":720,"position":19968,"velocity":0.8661417322834646,"pitch":51,"id":"c6ca9695-29a2-4b04-8611-7a26318e47cd"},{"length":720,"position":20736,"velocity":0.8661417322834646,"pitch":40,"id":"870543ad-22f7-4828-bfb0-49465c646622"},{"length":720,"position":20736,"velocity":0.8661417322834646,"pitch":52,"id":"3fa5cf1f-3b71-4550-abb7-53968512f9bb"},{"length":720,"position":21504,"velocity":0.8661417322834646,"pitch":39,"id":"982d840c-ed45-4caa-acb9-9939f0caba37"},{"length":720,"position":21504,"velocity":0.8661417322834646,"pitch":51,"id":"17cd8609-8e2f-4729-be57-5d3c79dffd0f"},{"length":720,"position":22272,"velocity":0.8661417322834646,"pitch":38,"id":"363dae2f-b9bf-4af8-88bf-8c2e5430259b"},{"length":720,"position":22272,"velocity":0.8661417322834646,"pitch":50,"id":"d659da7f-984d-4320-ba46-ed254ff5bcf1"},{"length":1488,"position":23040,"velocity":0.8661417322834646,"pitch":37,"id":"cb34c972-356e-4d1e-9599-f3cc5eb722d0"},{"length":1488,"position":23040,"velocity":0.8661417322834646,"pitch":49,"id":"ac41badb-183a-4a8a-a8c9-5ecf1f6d743f"},{"length":94,"position":24576,"velocity":0.8661417322834646,"pitch":48,"id":"bbbb65e3-0e77-4e9a-9c32-dba995a9e3e9"},{"length":94,"position":24576,"velocity":0.8661417322834646,"pitch":60,"id":"8818c256-85f9-4353-8a58-0bc1e9cfae3d"},{"length":94,"position":24672,"velocity":0.8661417322834646,"pitch":45,"id":"9cc70b68-ac16-43f0-a250-9b35e30c9aa1"},{"length":94,"position":24672,"velocity":0.8661417322834646,"pitch":57,"id":"81bad543-3c9f-4b73-b460-9a2988e1dd6b"},{"length":94,"position":24768,"velocity":0.8661417322834646,"pitch":48,"id":"fe324942-b814-4b92-80cf-13df2358757e"},{"length":94,"position":24768,"velocity":0.8661417322834646,"pitch":60,"id":"2db9daaf-7180-4908-a814-15309b48c80c"},{"length":22,"position":24864,"velocity":0.8661417322834646,"pitch":62,"id":"1ebe8279-a3d6-4d60-9514-678f7e49c942"},{"length":22,"position":24888,"velocity":0.8661417322834646,"pitch":50,"id":"fc5e972d-2f24-4611-9928-e78381a51d47"},{"length":46,"position":24912,"velocity":0.8661417322834646,"pitch":48,"id":"4028d067-1e34-4182-b667-693733f0a2bf"},{"length":46,"position":24912,"velocity":0.8661417322834646,"pitch":60,"id":"92d6fd6e-f8a5-47aa-8f5f-7f36b00b73f1"},{"length":142,"position":25008,"velocity":0.8661417322834646,"pitch":40,"id":"17b8703b-4106-4b46-80c3-45413fd13c64"},{"length":142,"position":25008,"velocity":0.8661417322834646,"pitch":52,"id":"554058cc-41a1-4662-bf3d-59fee9f0d775"},{"length":94,"position":25152,"velocity":0.8661417322834646,"pitch":41,"id":"a3ea655a-8a98-4573-ab53-ca497e6aff45"},{"length":94,"position":25152,"velocity":0.8661417322834646,"pitch":53,"id":"c8da6b68-eb12-426a-be95-ba6c1d3077d1"},{"length":94,"position":25248,"velocity":0.8661417322834646,"pitch":42,"id":"6e25bd75-80f4-4d0e-a026-e25674524f04"},{"length":94,"position":25248,"velocity":0.8661417322834646,"pitch":54,"id":"77a6e6b5-52f3-4e40-8e47-d44125c4e1ba"},{"length":160,"position":25344,"velocity":0.8661417322834646,"pitch":43,"id":"8dd28c20-ca5d-407e-8882-96e0cf45e03f"},{"length":160,"position":25344,"velocity":0.8661417322834646,"pitch":55,"id":"12c34491-50e1-4806-9e5c-9426983a1171"},{"length":46,"position":25536,"velocity":0.8661417322834646,"pitch":43,"id":"618b4601-53cd-4c5a-b537-744f37d77238"},{"length":46,"position":25536,"velocity":0.8661417322834646,"pitch":55,"id":"befd3e17-0425-480a-8e7f-82da7bae920a"},{"length":94,"position":25584,"velocity":0.8661417322834646,"pitch":43,"id":"0342212d-f9da-49f3-9a40-ad5aa54d9c66"},{"length":94,"position":25584,"velocity":0.8661417322834646,"pitch":55,"id":"c0bc8c60-c8e6-4177-abfb-7d6eb3c67d63"},{"length":46,"position":25680,"velocity":0.8661417322834646,"pitch":43,"id":"49881b87-f44b-46e9-9bfe-3eb82cef11b5"},{"length":46,"position":25680,"velocity":0.8661417322834646,"pitch":55,"id":"328415eb-7d65-4eb9-b4ea-fc2bb3ebc9ec"},{"length":160,"position":26112,"velocity":0.8661417322834646,"pitch":52,"id":"fffc6c4b-a6c0-4b2a-b6b8-64d9af919f37"},{"length":160,"position":26112,"velocity":0.8661417322834646,"pitch":55,"id":"144052e9-656f-40a0-8f80-a5fc25324638"},{"length":94,"position":26304,"velocity":0.8661417322834646,"pitch":52,"id":"cd794bce-df0e-47c6-929c-eb3436d6be49"},{"length":94,"position":26304,"velocity":0.8661417322834646,"pitch":55,"id":"9adb00fd-3915-4cf3-b214-a66d0225d918"},{"length":94,"position":26400,"velocity":0.8661417322834646,"pitch":52,"id":"689b590e-7528-4022-8f1d-8bdcf38803d3"},{"length":94,"position":26400,"velocity":0.8661417322834646,"pitch":55,"id":"327a951a-2ed6-4892-b3ae-17aa6a2ac9f1"},{"length":94,"position":26592,"velocity":0.8661417322834646,"pitch":52,"id":"34ff8e70-b9d2-4925-9b6d-c7751e5dc724"},{"length":94,"position":26592,"velocity":0.8661417322834646,"pitch":55,"id":"175f95f3-c3d1-4c0e-b3a3-f929ddb0bf6f"},{"length":160,"position":26688,"velocity":0.8661417322834646,"pitch":52,"id":"047a7618-119a-4b1b-9fe7-c709e4649009"},{"length":160,"position":26688,"velocity":0.8661417322834646,"pitch":55,"id":"9eb54dfe-3fb7-4c7c-9b14-3497b479d52e"},{"length":160,"position":26880,"velocity":0.8661417322834646,"pitch":53,"id":"ae0ad520-48c3-4bbd-b6cf-fef6a50272bd"},{"length":160,"position":26880,"velocity":0.8661417322834646,"pitch":57,"id":"451464dc-433a-4911-a04f-f80b74738bc9"},{"length":142,"position":27072,"velocity":0.8661417322834646,"pitch":53,"id":"c2eeadd9-2428-4797-b922-576567d00365"},{"length":142,"position":27072,"velocity":0.8661417322834646,"pitch":57,"id":"13dde5f7-64ed-4de9-a899-98cacc51b9e0"},{"length":46,"position":27216,"velocity":0.8661417322834646,"pitch":53,"id":"2a6cf6a9-4258-48b0-a652-e0d5a395416e"},{"length":46,"position":27216,"velocity":0.8661417322834646,"pitch":57,"id":"e7869351-f354-4f5f-8ab6-c777d9331077"},{"length":256,"position":27360,"velocity":0.8661417322834646,"pitch":53,"id":"568b498c-23d3-42a0-b414-9724679d2848"},{"length":256,"position":27360,"velocity":0.8661417322834646,"pitch":57,"id":"58fadb88-ad25-465b-aa39-11c1cd2000a9"},{"length":160,"position":27648,"velocity":0.8661417322834646,"pitch":52,"id":"07dffb91-8135-40db-9377-f84d9502cd29"},{"length":160,"position":27648,"velocity":0.8661417322834646,"pitch":55,"id":"955a2cdc-ad96-4a06-8a72-2d2c6bf2d28a"},{"length":142,"position":27840,"velocity":0.8661417322834646,"pitch":52,"id":"1e4e2e48-2bca-4c64-8c42-42ff6bd63757"},{"length":142,"position":27840,"velocity":0.8661417322834646,"pitch":55,"id":"5f47899a-4343-46f3-85d4-f84eaebbd988"},{"length":46,"position":27984,"velocity":0.8661417322834646,"pitch":52,"id":"6f35b5cb-4c22-44f6-b4a1-f0e6b0426962"},{"length":46,"position":27984,"velocity":0.8661417322834646,"pitch":55,"id":"1ac2b699-ca04-426d-ac19-c2c8573037d8"},{"length":94,"position":28128,"velocity":0.8661417322834646,"pitch":52,"id":"bc88fbac-3f1a-4781-8cce-7d09c44f21a9"},{"length":94,"position":28128,"velocity":0.8661417322834646,"pitch":55,"id":"70a3f73a-e63f-4921-ba9f-36a775db02f3"},{"length":160,"position":28224,"velocity":0.8661417322834646,"pitch":52,"id":"a0a8cc01-0caf-44fb-aa71-e893412aafd4"},{"length":160,"position":28224,"velocity":0.8661417322834646,"pitch":55,"id":"e8cb0a4f-5aef-45c5-837e-1f6bf25c2d05"},{"length":160,"position":28416,"velocity":0.8661417322834646,"pitch":50,"id":"ebf2800b-9f30-403a-8868-a9f8d8c4e2fe"},{"length":160,"position":28416,"velocity":0.8661417322834646,"pitch":53,"id":"5103bc8f-f8ad-46f8-bf7b-6c34ad72fb9d"},{"length":142,"position":28608,"velocity":0.8661417322834646,"pitch":50,"id":"28ad6866-9928-4399-b65b-13f6ce9e164e"},{"length":142,"position":28608,"velocity":0.8661417322834646,"pitch":53,"id":"4349c156-10dc-4883-be6b-2e8ccae315a5"},{"length":46,"position":28752,"velocity":0.8661417322834646,"pitch":50,"id":"e0af8397-1a95-4523-92bb-50e5016d4296"},{"length":46,"position":28752,"velocity":0.8661417322834646,"pitch":55,"id":"706c18c2-3b4e-4609-afbb-ec055636a169"},{"length":190,"position":28896,"velocity":0.8661417322834646,"pitch":50,"id":"3d40b560-0a46-417c-87b5-b034ba5afa22"},{"length":190,"position":28896,"velocity":0.8661417322834646,"pitch":55,"id":"a2f32333-3343-4ca0-9b67-bacacfc6aa02"},{"length":94,"position":29088,"velocity":0.8661417322834646,"pitch":52,"id":"3eba126d-7c88-4b4f-aeca-25d3f4f4f0bc"},{"length":94,"position":29088,"velocity":0.8661417322834646,"pitch":55,"id":"b9fab03b-59ba-4d70-a736-faa3240459ae"},{"length":160,"position":29184,"velocity":0.8661417322834646,"pitch":52,"id":"b808055c-88d5-4796-a29d-ba3707d4f8d7"},{"length":160,"position":29184,"velocity":0.8661417322834646,"pitch":55,"id":"f49eb5c5-fc6b-4eaa-8240-7db5decc1bb9"},{"length":94,"position":29376,"velocity":0.8661417322834646,"pitch":52,"id":"1ab00f66-afb8-4ed1-adea-144c087a72c1"},{"length":94,"position":29376,"velocity":0.8661417322834646,"pitch":55,"id":"87a0997c-dc3d-4403-92aa-441100efdc74"},{"length":94,"position":29472,"velocity":0.8661417322834646,"pitch":52,"id":"ba7044cf-f02f-492a-8e86-7315f295c7fc"},{"length":94,"position":29472,"velocity":0.8661417322834646,"pitch":55,"id":"c6171ea7-4aea-4334-a764-c5dd375195b9"},{"length":94,"position":29664,"velocity":0.8661417322834646,"pitch":52,"id":"9aacb96c-beca-44cf-976c-4d22c1064398"},{"length":94,"position":29664,"velocity":0.8661417322834646,"pitch":55,"id":"169741f2-3b73-4fa1-9993-243416f5875b"},{"length":160,"position":29760,"velocity":0.8661417322834646,"pitch":52,"id":"fb40c2c6-71be-4d12-862a-8e402107ce94"},{"length":160,"position":29760,"velocity":0.8661417322834646,"pitch":55,"id":"c697230a-93ff-4430-aa16-70f984ae478a"},{"length":160,"position":29952,"velocity":0.8661417322834646,"pitch":53,"id":"5b25abb7-08fb-4ff4-96d8-f14182cf5ce0"},{"length":160,"position":29952,"velocity":0.8661417322834646,"pitch":57,"id":"7a9d139b-1a60-484f-a909-c64d9484ea55"},{"length":142,"position":30144,"velocity":0.8661417322834646,"pitch":53,"id":"3070bc4e-ee7a-460c-8d51-0000cf387f55"},{"length":142,"position":30144,"velocity":0.8661417322834646,"pitch":57,"id":"67cf639f-e581-4422-ac20-0a762277222d"},{"length":46,"position":30288,"velocity":0.8661417322834646,"pitch":54,"id":"2bf8cbba-d9d3-4d88-8172-2af176154d2a"},{"length":46,"position":30288,"velocity":0.8661417322834646,"pitch":57,"id":"b9b5890a-4c19-4516-b994-3580a3b8accc"},{"length":94,"position":30432,"velocity":0.8661417322834646,"pitch":54,"id":"46bedaee-d5b0-4202-9884-d77db8bf8ed9"},{"length":94,"position":30432,"velocity":0.8661417322834646,"pitch":57,"id":"834b3219-3a4e-4e9a-965f-bda4ca477bc0"},{"length":160,"position":30528,"velocity":0.8661417322834646,"pitch":54,"id":"8b930007-ef6e-476c-9d0f-0ac7ae4a43d7"},{"length":160,"position":30528,"velocity":0.8661417322834646,"pitch":57,"id":"3da47271-1382-4cb4-9454-d48559821e33"},{"length":160,"position":30720,"velocity":0.8661417322834646,"pitch":52,"id":"02ee35b8-2bce-4d7d-b562-7315108d2609"},{"length":160,"position":30720,"velocity":0.8661417322834646,"pitch":55,"id":"2904201c-8f2e-4170-8e41-a94626cf949f"},{"length":94,"position":30912,"velocity":0.8661417322834646,"pitch":52,"id":"85da69bf-46ae-4b89-8844-ac4ce151f3bc"},{"length":94,"position":30912,"velocity":0.8661417322834646,"pitch":55,"id":"608db9c1-d15b-4e2b-aea2-43609e50faa0"},{"length":94,"position":31008,"velocity":0.8661417322834646,"pitch":52,"id":"26827fdf-d5da-48e0-b366-c4275d77f9f7"},{"length":94,"position":31008,"velocity":0.8661417322834646,"pitch":55,"id":"25aad85f-6704-45e5-bf04-a174d1d9e487"},{"length":94,"position":31200,"velocity":0.8661417322834646,"pitch":52,"id":"c8af54f9-e855-4f35-8ae1-0648091cabb9"},{"length":94,"position":31200,"velocity":0.8661417322834646,"pitch":55,"id":"83fe8285-3214-4fad-aaf2-a2e49c300ff4"},{"length":160,"position":31296,"velocity":0.8661417322834646,"pitch":52,"id":"95458018-49b5-400a-a9b1-da97906ab8e7"},{"length":160,"position":31296,"velocity":0.8661417322834646,"pitch":55,"id":"e9f4ba03-7d6b-4949-898c-65b78d89456b"},{"length":160,"position":31488,"velocity":0.8661417322834646,"pitch":48,"id":"4af752a2-1585-4acb-b188-17b3f477aa2c"},{"length":160,"position":31488,"velocity":0.8661417322834646,"pitch":55,"id":"fcefad79-0733-40ab-bd7c-68280468db68"},{"length":46,"position":31680,"velocity":0.8661417322834646,"pitch":55,"id":"5943e356-49a0-4f72-b115-ade845c93d0d"},{"length":94,"position":31728,"velocity":0.8661417322834646,"pitch":57,"id":"ba802658-76f6-4d50-906c-a3e2bd0c9043"},{"length":46,"position":31824,"velocity":0.8661417322834646,"pitch":60,"id":"75521e2d-9056-4c03-928f-350d31fa7d25"},{"length":94,"position":32256,"velocity":0.8661417322834646,"pitch":52,"id":"baff4164-8b98-4fa8-9dd8-89ac5028d69f"},{"length":94,"position":32256,"velocity":0.8661417322834646,"pitch":55,"id":"5e51678f-bb43-48b0-be02-8e084ff134f9"},{"length":94,"position":32352,"velocity":0.8661417322834646,"pitch":52,"id":"209fe074-ca41-4cb5-8665-0bbd710eb454"},{"length":94,"position":32352,"velocity":0.8661417322834646,"pitch":55,"id":"7f310938-75f4-47b2-a7d5-e8ac9445d40a"},{"length":46,"position":32592,"velocity":0.8661417322834646,"pitch":52,"id":"21367598-371c-41c9-9127-facb0087ef59"},{"length":46,"position":32592,"velocity":0.8661417322834646,"pitch":55,"id":"51eee166-5cf7-4f1c-8ffb-9271eb0f028f"},{"length":94,"position":32736,"velocity":0.8661417322834646,"pitch":52,"id":"061465b9-dabb-4493-9abd-719f938405b9"},{"length":94,"position":32736,"velocity":0.8661417322834646,"pitch":55,"id":"639a17b8-6555-4ca4-bbe6-ac0856db22b8"},{"length":94,"position":32832,"velocity":0.8661417322834646,"pitch":67,"id":"5804d926-0074-403d-ac40-4fa39dc2de19"},{"length":22,"position":32928,"velocity":0.8661417322834646,"pitch":65,"id":"7e5213b8-ab20-4084-bf8b-17e44cbeba44"},{"length":22,"position":32952,"velocity":0.8661417322834646,"pitch":64,"id":"2a7f7252-57d8-494a-b695-27df8d1816db"},{"length":22,"position":32976,"velocity":0.8661417322834646,"pitch":62,"id":"d2b614ad-bd41-4db9-aa2c-a61069fd5e42"},{"length":22,"position":33024,"velocity":0.8661417322834646,"pitch":59,"id":"4c3d35c3-79f5-49e0-a7f0-fa6f0b095fee"},{"length":22,"position":33048,"velocity":0.8661417322834646,"pitch":57,"id":"6cb53a14-5d9a-49ae-9ee8-1b81867d4180"},{"length":22,"position":33072,"velocity":0.8661417322834646,"pitch":55,"id":"15f49bb0-4de8-49e4-9766-392386c33346"},{"length":22,"position":33096,"velocity":0.8661417322834646,"pitch":53,"id":"37f29742-0797-4ee4-b460-cc0f982051e7"},{"length":94,"position":33120,"velocity":0.8661417322834646,"pitch":53,"id":"ae86d246-76d3-4aa8-beab-52edc328b4e1"},{"length":94,"position":33120,"velocity":0.8661417322834646,"pitch":57,"id":"a3e87f3f-346c-4b8f-a66f-91e8744dc98c"},{"length":46,"position":33360,"velocity":0.8661417322834646,"pitch":53,"id":"fc2c38ab-6b3b-4171-8127-945126dafbcf"},{"length":46,"position":33360,"velocity":0.8661417322834646,"pitch":57,"id":"c7e8f50f-fbc7-4b2e-b3d7-298286ba32a6"},{"length":94,"position":33504,"velocity":0.8661417322834646,"pitch":53,"id":"d5fc28d7-c9a3-47c2-a531-b19f4447393f"},{"length":94,"position":33504,"velocity":0.8661417322834646,"pitch":57,"id":"dabf0f6c-ac6f-4fe3-b83a-0343a0f0298c"},{"length":94,"position":33600,"velocity":0.8661417322834646,"pitch":65,"id":"413aeaae-0785-4d38-8854-5ecf077f80d7"},{"length":22,"position":33696,"velocity":0.8661417322834646,"pitch":64,"id":"1d47f526-6f9e-4c28-aaa3-b36e41958bac"},{"length":22,"position":33720,"velocity":0.8661417322834646,"pitch":62,"id":"11073441-de31-47bc-8aa1-68c583a672d2"},{"length":22,"position":33744,"velocity":0.8661417322834646,"pitch":60,"id":"b08e890f-ff7f-42cd-bb12-6497426e489c"},{"length":22,"position":33792,"velocity":0.8661417322834646,"pitch":57,"id":"3ac58ea1-534b-4a53-8873-166ee5890427"},{"length":22,"position":33816,"velocity":0.8661417322834646,"pitch":55,"id":"43722f1a-92ed-41cb-b5a5-3cbab6300b24"},{"length":22,"position":33840,"velocity":0.8661417322834646,"pitch":53,"id":"46ac0c4e-9f3c-4b0b-a753-5c98de1223fb"},{"length":70,"position":33864,"velocity":0.8661417322834646,"pitch":52,"id":"4bba77c4-90e7-4172-b0c7-cf56f24128e5"},{"length":70,"position":33864,"velocity":0.8661417322834646,"pitch":55,"id":"02c8bd00-1f28-49e7-9e73-3c17aa597965"},{"length":46,"position":33936,"velocity":0.8661417322834646,"pitch":52,"id":"a3bf2d5b-0aa3-45ac-8061-3560c2d1130a"},{"length":46,"position":33936,"velocity":0.8661417322834646,"pitch":55,"id":"6573a492-4487-41cf-9cab-e0670dcced09"},{"length":94,"position":34080,"velocity":0.8661417322834646,"pitch":52,"id":"f4e57c03-ee5e-4b25-a388-778426726801"},{"length":94,"position":34080,"velocity":0.8661417322834646,"pitch":55,"id":"37623735-4d31-4ca8-87e7-8ee0b6ed0f69"},{"length":336,"position":34176,"velocity":0.8661417322834646,"pitch":52,"id":"3ecb7e26-ec67-4e34-b63b-2b856d3ba62b"},{"length":336,"position":34176,"velocity":0.8661417322834646,"pitch":55,"id":"896edfbd-8e50-4a9e-abe8-b54e17bf461d"},{"length":142,"position":34560,"velocity":0.8661417322834646,"pitch":53,"id":"f41e3ac1-1022-4a3f-bbb0-fdea4b850223"},{"length":142,"position":34560,"velocity":0.8661417322834646,"pitch":57,"id":"b7235fc5-a297-4091-8fbd-d7ca533735dd"},{"length":22,"position":34704,"velocity":0.8661417322834646,"pitch":60,"id":"1355f1dd-7fca-46fc-ad9a-a231164046f9"},{"length":22,"position":34728,"velocity":0.8661417322834646,"pitch":55,"id":"47f719da-2ccf-4364-b524-0f7b1887104b"},{"length":214,"position":34848,"velocity":0.8661417322834646,"pitch":55,"id":"e16e6bc7-353c-42e7-96aa-78e3e1606063"},{"length":214,"position":34848,"velocity":0.8661417322834646,"pitch":62,"id":"f31db085-d9b9-4b02-8de1-3593ea500716"},{"length":22,"position":35064,"velocity":0.8661417322834646,"pitch":60,"id":"fa352ec3-92de-4194-9970-b1c5595d70f1"},{"length":22,"position":35088,"velocity":0.8661417322834646,"pitch":59,"id":"74ca7444-1ef5-42bc-82a7-12ebf5caf581"},{"length":22,"position":35112,"velocity":0.8661417322834646,"pitch":57,"id":"f936377b-0441-4934-9ed3-1dc0585dd81e"},{"length":22,"position":35136,"velocity":0.8661417322834646,"pitch":55,"id":"c7987d20-0bd4-4c2a-9bed-ed8235def50d"},{"length":22,"position":35160,"velocity":0.8661417322834646,"pitch":53,"id":"9db643df-ea30-4ea0-b9b7-5f86afc217fd"},{"length":46,"position":35184,"velocity":0.8661417322834646,"pitch":50,"id":"36eacef1-fd24-479b-bc2d-f07696f7ba29"},{"length":94,"position":35232,"velocity":0.8661417322834646,"pitch":48,"id":"218039e1-0c26-400b-8368-1890bd16f662"},{"length":94,"position":35232,"velocity":0.8661417322834646,"pitch":52,"id":"22ba82ab-9405-4497-b22a-43b766e3e3a9"},{"length":142,"position":35328,"velocity":0.8661417322834646,"pitch":52,"id":"7b053c07-d77d-442c-b50e-7d20c41b3f98"},{"length":142,"position":35328,"velocity":0.8661417322834646,"pitch":55,"id":"75a65639-5ae1-4026-b261-5da0ca491ffa"},{"length":46,"position":35472,"velocity":0.8661417322834646,"pitch":52,"id":"c2b95d4f-5279-44ff-802b-29628a7cede8"},{"length":46,"position":35472,"velocity":0.8661417322834646,"pitch":55,"id":"eba9d877-c10c-49f3-8f46-faf8d9d5b27b"},{"length":94,"position":35616,"velocity":0.8661417322834646,"pitch":52,"id":"df324bf0-1154-42ea-b14f-5c56ad9771e8"},{"length":94,"position":35616,"velocity":0.8661417322834646,"pitch":55,"id":"fe232d40-a902-48a5-b512-eb3de0f710a9"},{"length":94,"position":35808,"velocity":0.8661417322834646,"pitch":52,"id":"66934fe1-22ab-486f-8a45-1fce05064233"},{"length":94,"position":35808,"velocity":0.8661417322834646,"pitch":60,"id":"a5e04f3f-8042-4ddc-950f-60831b9d7dca"},{"length":46,"position":35904,"velocity":0.8661417322834646,"pitch":62,"id":"9c1b31ed-d89d-4e51-9f34-f195641eb4fc"},{"length":94,"position":35952,"velocity":0.8661417322834646,"pitch":64,"id":"e97f9739-2e15-4aea-81b9-5f10e2baafa7"},{"length":46,"position":36048,"velocity":0.8661417322834646,"pitch":60,"id":"8ea81fc2-a857-49fa-91f5-b5d14dfed824"},{"length":160,"position":36096,"velocity":0.8661417322834646,"pitch":53,"id":"265a5951-001c-4542-9c2a-87b2301514ac"},{"length":160,"position":36096,"velocity":0.8661417322834646,"pitch":57,"id":"3fda973e-3f94-4f3f-9d08-a34ecde11a9f"},{"length":142,"position":36288,"velocity":0.8661417322834646,"pitch":53,"id":"9b3146c4-4949-4570-9ade-5e6faef0bb77"},{"length":142,"position":36288,"velocity":0.8661417322834646,"pitch":57,"id":"eb2835a5-b443-49ce-8b4f-ad00a3652730"},{"length":46,"position":36432,"velocity":0.8661417322834646,"pitch":54,"id":"bfd90b39-e426-4441-b9f8-2f59eb74f451"},{"length":46,"position":36432,"velocity":0.8661417322834646,"pitch":57,"id":"c5d8c869-bed6-40cf-b07a-2cd5079da668"},{"length":94,"position":36576,"velocity":0.8661417322834646,"pitch":54,"id":"51cd65e5-3c9a-4960-ae33-8ac2b2fdfe59"},{"length":94,"position":36576,"velocity":0.8661417322834646,"pitch":60,"id":"dbe35f8d-506d-44cb-8b96-7b586fdb8318"},{"length":46,"position":36672,"velocity":0.8661417322834646,"pitch":63,"id":"d15a0762-6e25-42b5-b108-bdbe025ff72c"},{"length":94,"position":36720,"velocity":0.8661417322834646,"pitch":62,"id":"5632b05a-e660-4a00-ae1c-03165e66a07d"},{"length":46,"position":36816,"velocity":0.8661417322834646,"pitch":55,"id":"23a66209-a8d7-4bfa-a2d1-2ac7573c4ce9"},{"length":46,"position":36816,"velocity":0.8661417322834646,"pitch":60,"id":"b4bb8487-c37e-4ec9-9e91-a436871075a4"},{"length":94,"position":36960,"velocity":0.8661417322834646,"pitch":52,"id":"4eb9966d-399f-42b4-81d3-679b817aae7e"},{"length":94,"position":36960,"velocity":0.8661417322834646,"pitch":55,"id":"a81aec10-a51b-4dd4-afe0-ed74001de7a9"},{"length":46,"position":37200,"velocity":0.8661417322834646,"pitch":52,"id":"8b6d9484-95df-4a3d-a374-6efe6e5b4120"},{"length":46,"position":37200,"velocity":0.8661417322834646,"pitch":55,"id":"943fba69-9ff4-4a3d-9cde-576e25ce931f"},{"length":94,"position":37344,"velocity":0.8661417322834646,"pitch":52,"id":"675b3cbb-d5d7-4f72-bb34-f8c28367104c"},{"length":94,"position":37344,"velocity":0.8661417322834646,"pitch":55,"id":"e5ddd131-5e50-4de7-a76c-9ecd4b797f02"},{"length":94,"position":37536,"velocity":0.8661417322834646,"pitch":52,"id":"ebc14b1f-52fd-47ff-8388-a5834735e594"},{"length":94,"position":37536,"velocity":0.8661417322834646,"pitch":55,"id":"486b3d43-4cf4-42f4-9646-006e591ea7c0"},{"length":160,"position":37632,"velocity":0.8661417322834646,"pitch":52,"id":"50f8139a-d352-40ed-be9d-b132cab8f5b1"},{"length":160,"position":37632,"velocity":0.8661417322834646,"pitch":55,"id":"d1af37ca-b858-42ba-9122-d6b97498fa25"},{"length":46,"position":37824,"velocity":0.8661417322834646,"pitch":58,"id":"d3cf30b1-4874-45af-9b77-b751b03250f7"},{"length":94,"position":37872,"velocity":0.8661417322834646,"pitch":59,"id":"bf5bd901-beb7-4abe-a9ac-1b7f1630b7b9"},{"length":208,"position":37968,"velocity":0.8661417322834646,"pitch":60,"id":"50c9211d-8e78-49d5-ad09-404180e3eb36"},{"length":70,"position":38208,"velocity":0.8661417322834646,"pitch":64,"id":"15a8784a-3257-4ecf-9e84-450cc022e086"},{"length":22,"position":38280,"velocity":0.8661417322834646,"pitch":65,"id":"d17a9d04-a6a3-4fd1-a325-0fd60340ad14"},{"length":46,"position":38304,"velocity":0.8661417322834646,"pitch":67,"id":"11e824eb-fcf3-45ec-9326-7d697b6bdc7b"},{"length":46,"position":38352,"velocity":0.8661417322834646,"pitch":68,"id":"186f1caf-136d-4a19-bf03-e65fb11d9067"},{"length":256,"position":38400,"velocity":0.8661417322834646,"pitch":65,"id":"b84ccbd8-cd5c-492d-b248-f4f1e2e9ad6d"},{"length":256,"position":38400,"velocity":0.8661417322834646,"pitch":69,"id":"b0055fe9-2515-4aca-8e4a-d7e4387c0816"},{"length":94,"position":38688,"velocity":0.8661417322834646,"pitch":60,"id":"2baede80-5287-4065-9076-c73a9650fd1b"},{"length":94,"position":38688,"velocity":0.8661417322834646,"pitch":65,"id":"c6ce51b0-0020-4d05-9459-0eabcfa13cb2"},{"length":256,"position":38784,"velocity":0.8661417322834646,"pitch":64,"id":"59688566-d188-480e-8237-c6f9dcb87862"},{"length":256,"position":38784,"velocity":0.8661417322834646,"pitch":67,"id":"dd984548-5166-434a-a6c9-c202a6b47d48"},{"length":94,"position":39072,"velocity":0.8661417322834646,"pitch":60,"id":"05da3e4d-1e3a-4750-90c6-283e9480a86a"},{"length":94,"position":39072,"velocity":0.8661417322834646,"pitch":64,"id":"cb04e788-6ce1-4e7f-a2df-08ea338fa787"},{"length":142,"position":39168,"velocity":0.8661417322834646,"pitch":65,"id":"289acb2e-cf98-488d-a487-e2408772a595"},{"length":46,"position":39312,"velocity":0.8661417322834646,"pitch":67,"id":"f89fcd69-9380-47cf-852a-675e76e2b690"},{"length":40,"position":39480,"velocity":0.8661417322834646,"pitch":64,"id":"a9348ab1-fda5-4cfa-a5a5-5e84936b1bdd"},{"length":70,"position":39552,"velocity":0.8661417322834646,"pitch":64,"id":"7de0f12a-879b-4864-93d0-ecadd8933336"},{"length":22,"position":39624,"velocity":0.8661417322834646,"pitch":65,"id":"4a3f5c37-2325-4491-98c3-288f59220a10"},{"length":46,"position":39648,"velocity":0.8661417322834646,"pitch":67,"id":"3be30ec5-4a11-4afc-9915-d3693a0c017d"},{"length":46,"position":39696,"velocity":0.8661417322834646,"pitch":68,"id":"2ebe49e6-85fc-4f9a-a53e-6ab6dcbe8a34"},{"length":256,"position":39936,"velocity":0.8661417322834646,"pitch":65,"id":"d6ed764d-1257-45c8-ba22-ac16080b2049"},{"length":256,"position":39936,"velocity":0.8661417322834646,"pitch":69,"id":"79d68233-d7cd-40e9-b1b3-6e13e2f8819b"},{"length":94,"position":40224,"velocity":0.8661417322834646,"pitch":65,"id":"e0a510bb-63a8-49ad-9765-b5b4eb49e784"},{"length":94,"position":40224,"velocity":0.8661417322834646,"pitch":68,"id":"c3322233-bdf8-490f-a5cb-641fb84e1b2c"},{"length":256,"position":40320,"velocity":0.8661417322834646,"pitch":64,"id":"6216ce92-98e9-4a82-8a2f-9187db3cc721"},{"length":256,"position":40320,"velocity":0.8661417322834646,"pitch":67,"id":"12609c9d-43b5-4806-ac59-4454b118ef7d"},{"length":94,"position":40608,"velocity":0.8661417322834646,"pitch":66,"id":"69ad243d-c744-4462-8819-d80b8f7a68c6"},{"length":142,"position":40704,"velocity":0.8661417322834646,"pitch":65,"id":"cabb2d34-dfb5-43cd-97b0-5ff9abb7a4ed"},{"length":142,"position":40848,"velocity":0.8661417322834646,"pitch":64,"id":"f186c9cf-7d56-42df-9ea1-e0e6bb8306fc"},{"length":256,"position":40992,"velocity":0.8661417322834646,"pitch":60,"id":"779fc54b-1acc-4849-979d-2a37a58c10b5"},{"length":94,"position":41472,"velocity":0.8661417322834646,"pitch":65,"id":"93ad1503-a6b2-4600-af23-76aeb30645d2"},{"length":94,"position":41472,"velocity":0.8661417322834646,"pitch":69,"id":"9d6e7d4c-9636-490d-ba44-7bd406af4005"},{"length":94,"position":41568,"velocity":0.8661417322834646,"pitch":65,"id":"2b1ff82d-7e37-43a7-889b-f428a95d74ae"},{"length":94,"position":41568,"velocity":0.8661417322834646,"pitch":69,"id":"f629fcb2-bdb1-40fb-b1de-af350ead779c"},{"length":94,"position":41664,"velocity":0.8661417322834646,"pitch":65,"id":"7dfdd35f-e409-4117-a08e-471d4b6135a3"},{"length":94,"position":41664,"velocity":0.8661417322834646,"pitch":68,"id":"3295e7a6-d0e7-4299-8827-85d2d1aa5fe7"},{"length":94,"position":41760,"velocity":0.8661417322834646,"pitch":65,"id":"d752691b-577b-4de4-8d53-05b5a7d42e33"},{"length":94,"position":41760,"velocity":0.8661417322834646,"pitch":68,"id":"f831f030-34cc-4cb5-8dc2-5ce6a3d39048"},{"length":94,"position":41856,"velocity":0.8661417322834646,"pitch":64,"id":"4dc6bc90-a1b2-432f-9dd2-82acddefb1d4"},{"length":94,"position":41856,"velocity":0.8661417322834646,"pitch":67,"id":"d18ac079-ae9c-47ef-bed8-7f14a8f2a57c"},{"length":94,"position":41952,"velocity":0.8661417322834646,"pitch":64,"id":"e0a54578-d9fb-4203-9711-85f119bc791a"},{"length":94,"position":41952,"velocity":0.8661417322834646,"pitch":67,"id":"4ea245a9-77bd-479f-bcb4-10fca5ae2e0a"},{"length":94,"position":42048,"velocity":0.8661417322834646,"pitch":63,"id":"24f9f516-4b84-4815-a2e5-90aa47e996c0"},{"length":94,"position":42048,"velocity":0.8661417322834646,"pitch":66,"id":"5ac288ea-4d7c-49e2-82c2-1bd989eb2a3d"},{"length":94,"position":42144,"velocity":0.8661417322834646,"pitch":63,"id":"2a429470-7afa-4c24-bc45-d2571356ab45"},{"length":94,"position":42144,"velocity":0.8661417322834646,"pitch":66,"id":"c753849f-2ff7-4673-bc61-06392b051709"},{"length":142,"position":42240,"velocity":0.8661417322834646,"pitch":62,"id":"a5ac5396-546d-47ff-b04b-9bee7e0b59de"},{"length":142,"position":42240,"velocity":0.8661417322834646,"pitch":65,"id":"176aff69-33d0-4765-8023-ab209cf2a41e"},{"length":46,"position":42384,"velocity":0.8661417322834646,"pitch":64,"id":"0c20ba20-e2aa-4f5f-b36b-1cf3e9c944a9"},{"length":46,"position":42384,"velocity":0.8661417322834646,"pitch":67,"id":"cfa8ca11-e0fd-4e9a-8a88-e97b1ee50569"},{"length":432,"position":42528,"velocity":0.8661417322834646,"pitch":60,"id":"22002ab1-2297-401b-ba40-4b6df1aaee44"},{"length":432,"position":42528,"velocity":0.8661417322834646,"pitch":64,"id":"ea195454-b605-4fa3-ac3a-ece1ddb198df"},{"length":94,"position":43008,"velocity":0.8661417322834646,"pitch":65,"id":"37011e12-311b-4e22-9281-35b313c693e5"},{"length":94,"position":43008,"velocity":0.8661417322834646,"pitch":69,"id":"161439d9-e5d2-41cc-b5ed-0d05e31bcc66"},{"length":94,"position":43104,"velocity":0.8661417322834646,"pitch":65,"id":"8e2b5e92-6fa8-44b1-9f85-dde73fed1675"},{"length":94,"position":43104,"velocity":0.8661417322834646,"pitch":69,"id":"d61991b8-fbb6-4d54-a921-239e99f6fb57"},{"length":94,"position":43200,"velocity":0.8661417322834646,"pitch":65,"id":"2bde7ce3-6458-4636-8511-62b713a0e79e"},{"length":94,"position":43200,"velocity":0.8661417322834646,"pitch":68,"id":"1c09d50f-fb08-441d-b9a2-998deab31b51"},{"length":94,"position":43296,"velocity":0.8661417322834646,"pitch":65,"id":"2ac50980-c660-4c51-88b1-d5fa0faeb934"},{"length":94,"position":43296,"velocity":0.8661417322834646,"pitch":68,"id":"63a95da2-c629-4c81-ba3c-599ce5a348b8"},{"length":94,"position":43392,"velocity":0.8661417322834646,"pitch":64,"id":"6a738991-e39b-4d8e-bed1-e9c838d2df99"},{"length":94,"position":43392,"velocity":0.8661417322834646,"pitch":67,"id":"465a5d49-87a0-4a9b-bda4-449bf6e65746"},{"length":94,"position":43488,"velocity":0.8661417322834646,"pitch":64,"id":"d87d6cfb-3ba4-4fed-b9db-77bea22e84d8"},{"length":94,"position":43488,"velocity":0.8661417322834646,"pitch":67,"id":"a680ae01-82a7-40d3-b638-a2c32a8dfca9"},{"length":94,"position":43584,"velocity":0.8661417322834646,"pitch":63,"id":"9d6bf4f0-2fb9-4c7f-914b-b697fa1733dc"},{"length":94,"position":43584,"velocity":0.8661417322834646,"pitch":66,"id":"c10c0027-0bee-4ecf-81c8-d590af9bf4d2"},{"length":94,"position":43680,"velocity":0.8661417322834646,"pitch":63,"id":"7bd30d25-31f8-46a4-a1a6-07d492210769"},{"length":94,"position":43680,"velocity":0.8661417322834646,"pitch":66,"id":"ebe733f6-0727-4637-941b-f29c9e5bdae6"},{"length":142,"position":43776,"velocity":0.8661417322834646,"pitch":62,"id":"1d3e9729-f4b3-41f4-bb1e-a89eadb77c2e"},{"length":142,"position":43776,"velocity":0.8661417322834646,"pitch":65,"id":"f4247677-e0ba-4e62-aead-50a96ba2c88a"},{"length":46,"position":43920,"velocity":0.8661417322834646,"pitch":60,"id":"0e5d052f-07b6-42f9-8a04-fbb04c033170"},{"length":46,"position":43920,"velocity":0.8661417322834646,"pitch":64,"id":"43e4aafc-f943-4439-8bcd-00cd4a951cb7"},{"length":432,"position":44064,"velocity":0.8661417322834646,"pitch":55,"id":"64cf6e70-c814-4586-9c29-bc2772d67bc4"},{"length":432,"position":44064,"velocity":0.8661417322834646,"pitch":60,"id":"baa833b1-fbf5-4621-84db-b4ea5a9ecd5a"},{"length":46,"position":44544,"velocity":0.8661417322834646,"pitch":60,"id":"0113fbe4-26fb-4c8c-a370-17d655c9092c"},{"length":94,"position":44592,"velocity":0.8661417322834646,"pitch":52,"id":"7912cc83-e180-4d90-b391-ce6f80506a40"},{"length":46,"position":44688,"velocity":0.8661417322834646,"pitch":58,"id":"12aac085-90df-4d22-a1e8-c55793a9249d"},{"length":46,"position":44928,"velocity":0.8661417322834646,"pitch":60,"id":"45d50d3b-1380-4780-b913-efb7c594ed4c"},{"length":94,"position":44976,"velocity":0.8661417322834646,"pitch":52,"id":"d3591b27-f07b-43a3-ac56-aaf3e7ebd252"},{"length":46,"position":45072,"velocity":0.8661417322834646,"pitch":58,"id":"83d00b2f-16e3-4fa1-aebe-5c518b3a653c"},{"length":46,"position":45312,"velocity":0.8661417322834646,"pitch":57,"id":"fe66c3ba-4ad9-4d6a-a26b-415f71489bec"},{"length":94,"position":45360,"velocity":0.8661417322834646,"pitch":48,"id":"9dcbb281-6004-40e7-9d55-d4c83e034036"},{"length":46,"position":45456,"velocity":0.8661417322834646,"pitch":51,"id":"07fdd031-3804-4dfc-be47-2ea8e4b194ad"},{"length":46,"position":45696,"velocity":0.8661417322834646,"pitch":57,"id":"9d22df6e-0082-41ce-baaf-1f1688f03ffd"},{"length":94,"position":45744,"velocity":0.8661417322834646,"pitch":48,"id":"0e51f96e-80c9-429d-971b-5755caee9a5c"},{"length":46,"position":45840,"velocity":0.8661417322834646,"pitch":51,"id":"6646a14c-6915-40fb-8102-df65c3e895f2"},{"length":46,"position":46080,"velocity":0.8661417322834646,"pitch":60,"id":"ec82a7c5-f2f4-43e2-9e1a-4b548172a58d"},{"length":94,"position":46128,"velocity":0.8661417322834646,"pitch":52,"id":"7b5a1eab-663d-4360-90fd-372b098055a5"},{"length":46,"position":46224,"velocity":0.8661417322834646,"pitch":58,"id":"288cc073-e885-4c19-9ba4-4fd2c9cebba1"},{"length":46,"position":46464,"velocity":0.8661417322834646,"pitch":60,"id":"7ab70682-de3e-4738-bfbc-c2b55356e8ff"},{"length":94,"position":46512,"velocity":0.8661417322834646,"pitch":52,"id":"3b5a422e-76e8-4ec2-b46d-c61cde936a51"},{"length":46,"position":46608,"velocity":0.8661417322834646,"pitch":58,"id":"397dea21-b024-4471-842d-d70ab0ddbcce"},{"length":94,"position":46848,"velocity":0.8661417322834646,"pitch":53,"id":"5cec8b0c-b1dc-49d6-950d-231bbfa398c7"},{"length":94,"position":46848,"velocity":0.8661417322834646,"pitch":57,"id":"a37c5754-961c-41e6-b39c-a2fcba44cda0"},{"length":94,"position":46944,"velocity":0.8661417322834646,"pitch":53,"id":"cc31544b-b4e5-4ca2-9134-bf4e7365a9b1"},{"length":94,"position":46944,"velocity":0.8661417322834646,"pitch":57,"id":"0aba125a-b950-4c15-b249-e1ccfe0c58f9"},{"length":94,"position":47040,"velocity":0.8661417322834646,"pitch":53,"id":"39286b76-e533-4933-9575-b68da9114521"},{"length":94,"position":47040,"velocity":0.8661417322834646,"pitch":57,"id":"c27c6046-408d-4bc2-b0ce-cd3b3d4a05aa"},{"length":94,"position":47136,"velocity":0.8661417322834646,"pitch":53,"id":"94ce63b4-7843-419a-af56-c0aa168ba7cc"},{"length":94,"position":47136,"velocity":0.8661417322834646,"pitch":57,"id":"08b19f43-ad0c-4632-9665-ccdcaa880058"},{"length":160,"position":47232,"velocity":0.8661417322834646,"pitch":53,"id":"999b1519-2800-417b-add7-912a0a48d5a0"},{"length":160,"position":47232,"velocity":0.8661417322834646,"pitch":56,"id":"a21f9546-3a0a-4792-bec5-0733175c423f"},{"length":22,"position":47424,"velocity":0.8661417322834646,"pitch":55,"id":"47d4ada2-1258-4661-8516-041a21285bb2"},{"length":22,"position":47448,"velocity":0.8661417322834646,"pitch":53,"id":"d988ec39-12a9-4c5f-abb2-31b12de1dc11"},{"length":22,"position":47472,"velocity":0.8661417322834646,"pitch":52,"id":"92bdf4d8-e8eb-4ae7-84cb-a09c13ee997f"},{"length":22,"position":47496,"velocity":0.8661417322834646,"pitch":50,"id":"d4cc51b8-de00-4220-92d3-fb5e544bb3c1"},{"length":22,"position":47520,"velocity":0.8661417322834646,"pitch":48,"id":"0987b2af-a80e-4513-aaf2-615026bed4b5"},{"length":22,"position":47544,"velocity":0.8661417322834646,"pitch":46,"id":"a81c1998-a367-4bfc-8ad0-ef313fee162f"},{"length":46,"position":47568,"velocity":0.8661417322834646,"pitch":43,"id":"7ddbae73-f47a-4ba6-8c25-4f6c602accc1"},{"length":46,"position":47616,"velocity":0.8661417322834646,"pitch":60,"id":"4c01e0d2-7770-454c-b27d-81d14e1aa24b"},{"length":94,"position":47664,"velocity":0.8661417322834646,"pitch":52,"id":"aedfb8a0-842c-42c9-90ce-9398c3208916"},{"length":46,"position":47760,"velocity":0.8661417322834646,"pitch":58,"id":"1a0f014c-accf-4702-8657-219bfc1fa2ef"},{"length":46,"position":48000,"velocity":0.8661417322834646,"pitch":60,"id":"23154fbc-fe41-44dd-86a8-392dd4302525"},{"length":94,"position":48048,"velocity":0.8661417322834646,"pitch":52,"id":"9b8cc569-3381-4a59-b1c4-25de9cc222e0"},{"length":46,"position":48144,"velocity":0.8661417322834646,"pitch":58,"id":"ec7d572b-6590-450c-b790-e2f51603bc0e"},{"length":46,"position":48384,"velocity":0.8661417322834646,"pitch":57,"id":"2bf8c99c-3f5c-41c5-a032-0cb0f3069273"},{"length":94,"position":48432,"velocity":0.8661417322834646,"pitch":48,"id":"df09bf8e-8e60-44fb-b135-d50ff8f9f133"},{"length":46,"position":48528,"velocity":0.8661417322834646,"pitch":51,"id":"32b6ed25-06c9-47fd-8795-aeeea2f8653a"},{"length":46,"position":48768,"velocity":0.8661417322834646,"pitch":57,"id":"40222dc7-ee6f-4993-a91b-ec22bca03ae6"},{"length":94,"position":48816,"velocity":0.8661417322834646,"pitch":48,"id":"02e13ef2-6418-4be5-bd12-d4c64673cee2"},{"length":46,"position":48912,"velocity":0.8661417322834646,"pitch":51,"id":"ebee7f47-febb-41c0-affa-36876659c5e8"},{"length":46,"position":49152,"velocity":0.8661417322834646,"pitch":60,"id":"a718d3d4-4b89-46ba-a9fa-808431e33ad9"},{"length":94,"position":49200,"velocity":0.8661417322834646,"pitch":52,"id":"4b83096e-204d-45d0-85d6-7018a469e53a"},{"length":46,"position":49296,"velocity":0.8661417322834646,"pitch":58,"id":"0c112a6e-ef9d-433c-89b9-6c438b90c209"},{"length":46,"position":49536,"velocity":0.8661417322834646,"pitch":60,"id":"ada9eca5-7838-4825-a1c6-ecdda52f877c"},{"length":94,"position":49584,"velocity":0.8661417322834646,"pitch":52,"id":"c5fdcdaf-dad1-49ee-8029-12b913e631a7"},{"length":46,"position":49680,"velocity":0.8661417322834646,"pitch":58,"id":"5f7ee4cf-e172-40b5-b9c4-67908fa90881"},{"length":160,"position":49920,"velocity":0.8661417322834646,"pitch":52,"id":"0370ca94-caba-4c5f-b62d-9dbca5dafc60"},{"length":160,"position":49920,"velocity":0.8661417322834646,"pitch":60,"id":"18d4ad86-254b-49a1-81ef-6d26c8703e4a"},{"length":94,"position":50208,"velocity":0.8661417322834646,"pitch":53,"id":"192d7d64-8df3-4d4b-a0e9-7f512a05a5a5"},{"length":94,"position":50208,"velocity":0.8661417322834646,"pitch":60,"id":"139f9a0b-153e-4d42-b25c-5be27e7f3a8a"},{"length":94,"position":50400,"velocity":0.8661417322834646,"pitch":52,"id":"071e06ca-3768-403c-9d0a-bd0696be603c"},{"length":94,"position":50400,"velocity":0.8661417322834646,"pitch":60,"id":"5de70741-ad93-4eaa-b6d7-f3c6e6bde093"},{"length":94,"position":50592,"velocity":0.8661417322834646,"pitch":51,"id":"bc45cb14-7f6b-481d-b25c-5a63527a9d6a"},{"length":94,"position":50592,"velocity":0.8661417322834646,"pitch":55,"id":"5fd8e764-cdd0-4bfa-8cf3-e082a43960ba"},{"length":94,"position":50688,"velocity":0.8661417322834646,"pitch":52,"id":"516c4c09-a0d1-4498-94b4-a7f0c73bd041"},{"length":94,"position":50688,"velocity":0.8661417322834646,"pitch":60,"id":"e8185b1b-4993-4a80-99a1-05ab1c5ef600"},{"length":94,"position":50784,"velocity":0.8661417322834646,"pitch":55,"id":"3f714037-0b80-46c6-8efa-741a23190641"},{"length":94,"position":50784,"velocity":0.8661417322834646,"pitch":60,"id":"ff4a6a65-235d-46cf-9559-c1b9585fd5cd"},{"length":160,"position":50880,"velocity":0.8661417322834646,"pitch":60,"id":"0632c4fc-4a3f-496d-b9f2-ac4f398e3a00"},{"length":160,"position":51456,"velocity":0.8661417322834646,"pitch":50,"id":"f87daa08-1824-48ad-9c29-e9f1e01e1e98"},{"length":160,"position":51456,"velocity":0.8661417322834646,"pitch":59,"id":"9f67f5ba-3729-4399-ae3d-b7953dda5a54"},{"length":94,"position":51744,"velocity":0.8661417322834646,"pitch":52,"id":"c2bfdf66-78bb-4b44-9631-19430a2cc954"},{"length":94,"position":51744,"velocity":0.8661417322834646,"pitch":59,"id":"4f3584db-90ed-43d3-882b-3e3cdbdcddf8"},{"length":94,"position":51936,"velocity":0.8661417322834646,"pitch":50,"id":"e301e556-9981-4099-92cc-7f638a43ab09"},{"length":94,"position":51936,"velocity":0.8661417322834646,"pitch":59,"id":"83a228ba-498e-4b54-88b5-05fb65fbce08"},{"length":94,"position":52128,"velocity":0.8661417322834646,"pitch":49,"id":"8ebff1b7-188e-48ac-93c4-9e2e8ffdbae1"},{"length":94,"position":52128,"velocity":0.8661417322834646,"pitch":55,"id":"f1533845-03bb-48d9-b42b-bef08e65522f"},{"length":94,"position":52224,"velocity":0.8661417322834646,"pitch":50,"id":"6dc2c49b-c246-4618-af7e-9ab9ca2c1be3"},{"length":94,"position":52224,"velocity":0.8661417322834646,"pitch":59,"id":"547545a2-47f9-420b-8c3b-47c2e6cd711a"},{"length":94,"position":52320,"velocity":0.8661417322834646,"pitch":55,"id":"298731c8-fd82-4a37-b165-ddcb97679056"},{"length":94,"position":52320,"velocity":0.8661417322834646,"pitch":59,"id":"b8786439-82ba-4811-895b-6a09c26e1f9e"},{"length":160,"position":52416,"velocity":0.8661417322834646,"pitch":59,"id":"8244ea39-a5f2-408c-8d19-44acd51fe438"},{"length":160,"position":52992,"velocity":0.8661417322834646,"pitch":48,"id":"fb3315f8-a04a-4e4d-969a-0ba0e061d73a"},{"length":160,"position":52992,"velocity":0.8661417322834646,"pitch":57,"id":"924686e6-1759-49b1-827d-08b3d2cd2ad0"},{"length":94,"position":53280,"velocity":0.8661417322834646,"pitch":50,"id":"055f0869-018f-4d4c-bfd1-86e56a5714c4"},{"length":94,"position":53280,"velocity":0.8661417322834646,"pitch":57,"id":"88a9f3bf-018b-407a-bc91-2ce485768736"},{"length":94,"position":53472,"velocity":0.8661417322834646,"pitch":48,"id":"5ef8c6b7-1756-458b-b503-5116cadc1f8e"},{"length":94,"position":53472,"velocity":0.8661417322834646,"pitch":57,"id":"d3daa318-bce0-4796-b690-385cae6cf469"},{"length":94,"position":53664,"velocity":0.8661417322834646,"pitch":47,"id":"f0485863-4c6d-4084-a2b4-cabcdcb0a43f"},{"length":94,"position":53664,"velocity":0.8661417322834646,"pitch":52,"id":"03d12109-5520-4a84-b133-46cb675ce37d"},{"length":94,"position":53760,"velocity":0.8661417322834646,"pitch":48,"id":"a6969305-b22e-485c-bbd8-55cd4b2917a1"},{"length":94,"position":53760,"velocity":0.8661417322834646,"pitch":57,"id":"c91ac65f-b319-4ab5-ad80-ec0dbf3f0762"},{"length":94,"position":53856,"velocity":0.8661417322834646,"pitch":52,"id":"62d43cfe-02d1-4345-be97-9ef24188b97b"},{"length":94,"position":53856,"velocity":0.8661417322834646,"pitch":57,"id":"14a975ff-767c-412a-af9c-df18542e5c92"},{"length":160,"position":53952,"velocity":0.8661417322834646,"pitch":57,"id":"517d228d-e58b-4aed-9eca-2724caa97a9b"},{"length":94,"position":54240,"velocity":0.8661417322834646,"pitch":48,"id":"6ab90304-081c-4684-a171-9708fcf5e95b"},{"length":94,"position":54240,"velocity":0.8661417322834646,"pitch":57,"id":"033cebc4-91ca-4280-9de2-40d8e9589639"},{"length":94,"position":54336,"velocity":0.8661417322834646,"pitch":50,"id":"979c09fb-1a06-403f-b7f5-aa46bd59605f"},{"length":94,"position":54336,"velocity":0.8661417322834646,"pitch":59,"id":"4c5beffc-ddcb-4bc0-8265-1dc212bc43d5"},{"length":94,"position":54432,"velocity":0.8661417322834646,"pitch":52,"id":"ec236216-d1fc-48aa-bcc5-e9e0c65d3f37"},{"length":94,"position":54432,"velocity":0.8661417322834646,"pitch":60,"id":"8ee80941-dd5d-42bc-b730-7588390d41d6"},{"length":94,"position":54528,"velocity":0.8661417322834646,"pitch":54,"id":"0f88f424-973b-41af-9c60-08ef0bc0b043"},{"length":94,"position":54528,"velocity":0.8661417322834646,"pitch":62,"id":"baac4ce9-046e-48fa-82c6-b09ad5961c56"},{"length":94,"position":54624,"velocity":0.8661417322834646,"pitch":54,"id":"3ea4177d-187b-4c76-aea2-0e11c29e885f"},{"length":94,"position":54624,"velocity":0.8661417322834646,"pitch":60,"id":"ceb76cbc-8e1e-4594-b607-ce4b09be8838"},{"length":94,"position":54720,"velocity":0.8661417322834646,"pitch":54,"id":"bf370807-16ef-4304-898d-c253b8e6f42e"},{"length":94,"position":54720,"velocity":0.8661417322834646,"pitch":62,"id":"d20f9340-d29c-40ce-94ba-73f8ffec1be4"},{"length":190,"position":54816,"velocity":0.8661417322834646,"pitch":54,"id":"96831fdf-65b3-4014-8f4f-e876bd495486"},{"length":190,"position":54816,"velocity":0.8661417322834646,"pitch":60,"id":"cee13e99-11f2-4f86-aeb3-d48de4802048"},{"length":94,"position":55008,"velocity":0.8661417322834646,"pitch":50,"id":"437031f7-9a31-4f2c-8257-6e3ce6cadf73"},{"length":94,"position":55008,"velocity":0.8661417322834646,"pitch":57,"id":"911c5877-4b7c-47fb-8e83-f96419f93201"},{"length":94,"position":55104,"velocity":0.8661417322834646,"pitch":48,"id":"b38362e1-f1d2-4d9b-a786-9a289a86e2df"},{"length":94,"position":55104,"velocity":0.8661417322834646,"pitch":54,"id":"a004366d-3d59-439d-b5e5-f1f58516ca8f"},{"length":94,"position":55200,"velocity":0.8661417322834646,"pitch":45,"id":"7c3eb0ed-2170-408a-982b-14a1089578df"},{"length":94,"position":55200,"velocity":0.8661417322834646,"pitch":50,"id":"e2c9cb16-ddd7-463f-97c2-fa288a84f6b1"},{"length":94,"position":55296,"velocity":0.8661417322834646,"pitch":45,"id":"f1d09d6e-c6d0-4d52-83a5-2759d887e2d6"},{"length":94,"position":55296,"velocity":0.8661417322834646,"pitch":50,"id":"fd08e9f8-206c-4151-b335-152636d69ab6"},{"length":94,"position":55392,"velocity":0.8661417322834646,"pitch":47,"id":"1b549f44-deda-41a7-a9dd-9c2d516665ab"},{"length":94,"position":55392,"velocity":0.8661417322834646,"pitch":52,"id":"6ac1b281-354c-4fb7-9dfc-33e346b772b9"},{"length":94,"position":55488,"velocity":0.8661417322834646,"pitch":49,"id":"f89242fb-c367-4990-8683-ebf320e61fec"},{"length":94,"position":55488,"velocity":0.8661417322834646,"pitch":53,"id":"913f2776-3abb-4046-b768-63939f838bf6"},{"length":432,"position":55584,"velocity":0.8661417322834646,"pitch":50,"id":"81c89eae-c739-4091-8930-05d78329a681"},{"length":432,"position":55584,"velocity":0.8661417322834646,"pitch":54,"id":"b45414ce-844d-4233-b25b-49e8ac33fff4"},{"length":94,"position":56064,"velocity":0.8661417322834646,"pitch":43,"id":"73a3e23b-5e1b-45b5-b4bb-a34278f0648a"},{"length":94,"position":56160,"velocity":0.8661417322834646,"pitch":50,"id":"8d4dff22-8619-4e67-ae5c-4cc84da6ba4e"},{"length":160,"position":56256,"velocity":0.8661417322834646,"pitch":55,"id":"db5d558b-6c04-4b80-a759-1e2b4a4c966f"},{"length":94,"position":56832,"velocity":0.8661417322834646,"pitch":43,"id":"743da7a4-f0c0-419c-9e87-3609c470c96e"},{"length":94,"position":56928,"velocity":0.8661417322834646,"pitch":50,"id":"3d6519db-f1fe-4924-83b8-43783a672b78"},{"length":160,"position":57024,"velocity":0.8661417322834646,"pitch":55,"id":"c2c1f567-54e1-42cd-a11f-e6013b82fe50"},{"length":94,"position":57600,"velocity":0.8661417322834646,"pitch":41,"id":"10479de5-4fab-492e-85c3-568bb7e3569f"},{"length":94,"position":57696,"velocity":0.8661417322834646,"pitch":48,"id":"d216dc0a-42d5-4529-9ba6-9b13d290f2ca"},{"length":160,"position":57792,"velocity":0.8661417322834646,"pitch":53,"id":"b60a3479-78e1-4c14-afd9-4f392ba11111"},{"length":94,"position":58368,"velocity":0.8661417322834646,"pitch":41,"id":"2b55f247-ea43-46c2-89fe-e9f9c65da1e1"},{"length":94,"position":58464,"velocity":0.8661417322834646,"pitch":48,"id":"f9a43458-9f26-4ec6-b776-cace5900db2f"},{"length":160,"position":58560,"velocity":0.8661417322834646,"pitch":53,"id":"069c75e7-88ae-4cc9-91a8-720ea8fa9ae5"},{"length":160,"position":58944,"velocity":0.8661417322834646,"pitch":48,"id":"a1104baf-5ac6-4323-b9b9-7e1238d1f392"},{"length":94,"position":59136,"velocity":0.8661417322834646,"pitch":43,"id":"23fdc6c9-2696-414a-8adf-70097436de72"},{"length":94,"position":59232,"velocity":0.8661417322834646,"pitch":50,"id":"f2cfa5bb-9d7c-4ea5-abf2-f43a6e9cbb00"},{"length":160,"position":59328,"velocity":0.8661417322834646,"pitch":55,"id":"cbd15a31-7e06-41e9-8c69-899ae3ec6e47"},{"length":94,"position":59904,"velocity":0.8661417322834646,"pitch":43,"id":"c00658e9-7f3d-4561-b5ab-4326b3c0625e"},{"length":94,"position":60000,"velocity":0.8661417322834646,"pitch":50,"id":"bf7b376c-e7c7-4e4c-96b2-cd826bbee590"},{"length":160,"position":60096,"velocity":0.8661417322834646,"pitch":55,"id":"3490622b-a98a-4fca-9b31-1d7b01623570"},{"length":94,"position":60672,"velocity":0.8661417322834646,"pitch":41,"id":"3fd44930-276f-458a-8a22-1f3aaecca088"},{"length":94,"position":60768,"velocity":0.8661417322834646,"pitch":48,"id":"6952de03-d399-48f6-9d55-4257acd44ae4"},{"length":160,"position":60864,"velocity":0.8661417322834646,"pitch":53,"id":"180912ec-fabe-41ed-972e-df8df925ee70"},{"length":94,"position":61440,"velocity":0.8661417322834646,"pitch":41,"id":"b2071875-975e-4a4b-a139-37b066330100"},{"length":94,"position":61536,"velocity":0.8661417322834646,"pitch":48,"id":"defd0e1f-9b5c-406a-94e7-70f47f653128"},{"length":160,"position":61632,"velocity":0.8661417322834646,"pitch":53,"id":"e252c087-a956-4f76-9a02-4bf80735b8a1"},{"length":94,"position":62208,"velocity":0.8661417322834646,"pitch":39,"id":"fdc64ccf-84e9-4bf6-ac25-cadaaf1f04db"},{"length":94,"position":62304,"velocity":0.8661417322834646,"pitch":46,"id":"b57c9b07-4bab-429a-b6f2-c6ecb011bac6"},{"length":160,"position":62400,"velocity":0.8661417322834646,"pitch":51,"id":"ad7d7230-e51f-4f01-9a80-b4595e28f579"},{"length":94,"position":62976,"velocity":0.8661417322834646,"pitch":39,"id":"bffaa658-48eb-4235-955e-a7eb5557d460"},{"length":94,"position":63072,"velocity":0.8661417322834646,"pitch":46,"id":"b243a2d4-8e17-4f8d-8b6f-00a5b7748605"},{"length":160,"position":63168,"velocity":0.8661417322834646,"pitch":51,"id":"ee3d7e9c-cbb6-42ec-a782-652a36256425"},{"length":94,"position":63744,"velocity":0.8661417322834646,"pitch":41,"id":"65d386fa-e1b8-4df8-affd-419b1a679cbf"},{"length":94,"position":63840,"velocity":0.8661417322834646,"pitch":48,"id":"75ac499a-6784-4184-a49d-1557b1994ac8"},{"length":160,"position":63936,"velocity":0.8661417322834646,"pitch":53,"id":"18b75b9b-ae48-4001-900f-1974811a5028"},{"length":94,"position":64512,"velocity":0.8661417322834646,"pitch":41,"id":"0c51e5c1-f09a-4521-b497-59364735d2ac"},{"length":94,"position":64608,"velocity":0.8661417322834646,"pitch":48,"id":"c652eb56-8d8d-47ed-98f3-dfa91bd083f3"},{"length":160,"position":64704,"velocity":0.8661417322834646,"pitch":53,"id":"e1d423a2-abd0-489e-bb97-242df2909ebe"},{"length":160,"position":65088,"velocity":0.8661417322834646,"pitch":48,"id":"4511b4ad-323f-42c8-aae3-9b303c4daa75"},{"length":94,"position":65280,"velocity":0.8661417322834646,"pitch":43,"id":"6fbc000a-c8a8-4c2a-8d05-53a8b1139cab"},{"length":94,"position":65376,"velocity":0.8661417322834646,"pitch":50,"id":"7faadb40-33f7-4db6-aa0d-f59fd9f944af"},{"length":94,"position":65856,"velocity":0.8661417322834646,"pitch":55,"id":"78972608-f46d-4aa0-8c8e-2dc3b9b052e3"},{"length":94,"position":65952,"velocity":0.8661417322834646,"pitch":50,"id":"d1606627-4ac4-4995-b7ce-7948a8d934fa"},{"length":94,"position":66048,"velocity":0.8661417322834646,"pitch":41,"id":"dbe79a8c-c26e-4777-920a-f0691b90cb98"},{"length":94,"position":66144,"velocity":0.8661417322834646,"pitch":48,"id":"4e4d3292-5439-4299-b3ef-98eaf602ac18"},{"length":160,"position":66240,"velocity":0.8661417322834646,"pitch":53,"id":"b8dd959b-9933-47f5-a168-bb63bed89dfc"},{"length":94,"position":66816,"velocity":0.8661417322834646,"pitch":39,"id":"df2cdbc4-fc30-4792-85e6-6a1bd9811a6f"},{"length":94,"position":66912,"velocity":0.8661417322834646,"pitch":46,"id":"bacdbc31-b605-4776-af0c-721c57e99946"},{"length":160,"position":67008,"velocity":0.8661417322834646,"pitch":51,"id":"05bf0710-1fd6-4a73-9ed8-67cf4fada9e2"},{"length":160,"position":67392,"velocity":0.8661417322834646,"pitch":51,"id":"660635ca-8043-4229-9e1d-c70ee19372c0"},{"length":94,"position":67584,"velocity":0.8661417322834646,"pitch":41,"id":"a68f4fda-866c-4619-ac9a-85b76630a8ed"},{"length":94,"position":67680,"velocity":0.8661417322834646,"pitch":48,"id":"29d9444a-939f-4e04-88d5-b094f6d69a40"},{"length":160,"position":67776,"velocity":0.8661417322834646,"pitch":53,"id":"26b5e901-254d-44f5-9aa0-e11d2949ad41"},{"length":94,"position":68160,"velocity":0.8661417322834646,"pitch":48,"id":"dff9c4d9-18ec-4b0f-bc73-3eccabf8bc40"},{"length":94,"position":68256,"velocity":0.8661417322834646,"pitch":53,"id":"22a8e309-6ec2-4e43-9165-def7b75927ec"},{"length":94,"position":68352,"velocity":0.8661417322834646,"pitch":43,"id":"42b77958-77af-48e1-b5c9-79263394ac56"},{"length":94,"position":68448,"velocity":0.8661417322834646,"pitch":50,"id":"b10ff426-aa70-43aa-8f03-8dcd43938d00"},{"length":160,"position":68544,"velocity":0.8661417322834646,"pitch":55,"id":"1021e1af-ff36-4584-b35f-ad6d95eb5194"},{"length":94,"position":69024,"velocity":0.8661417322834646,"pitch":55,"id":"172b4604-9ca5-4626-8fa2-4aac9a787df0"},{"length":94,"position":69120,"velocity":0.8661417322834646,"pitch":43,"id":"a16d54f4-eb76-473c-a5a9-1d1db0730524"},{"length":94,"position":69216,"velocity":0.8661417322834646,"pitch":50,"id":"37cdb295-3e5c-4308-87fc-d3e4b4cb5631"},{"length":160,"position":69312,"velocity":0.8661417322834646,"pitch":55,"id":"64ea8389-5cc2-452e-96c4-e9a967fe0f25"},{"length":94,"position":69888,"velocity":0.8661417322834646,"pitch":43,"id":"1f928465-626d-43ca-857a-e874efb1685f"},{"length":94,"position":69984,"velocity":0.8661417322834646,"pitch":50,"id":"a5cee6bf-f985-48f4-a9e6-19ad6430e726"},{"length":94,"position":70464,"velocity":0.8661417322834646,"pitch":55,"id":"9c6c640d-f189-4365-9c52-788867d15e9c"},{"length":94,"position":70560,"velocity":0.8661417322834646,"pitch":50,"id":"04cb8b2c-50b3-4f58-827a-c9b617060475"},{"length":94,"position":70656,"velocity":0.8661417322834646,"pitch":41,"id":"815a2d5c-2fc7-45c4-a455-cd4b6bfb4240"},{"length":94,"position":70752,"velocity":0.8661417322834646,"pitch":48,"id":"e82c6576-d8ac-43b3-8d61-676be5c900c7"},{"length":160,"position":70848,"velocity":0.8661417322834646,"pitch":53,"id":"79f2ada3-c84c-4d70-9de5-9250ab4b350b"},{"length":94,"position":71424,"velocity":0.8661417322834646,"pitch":39,"id":"fa3ba294-9341-4ed3-9584-5e00b96f0f4f"},{"length":94,"position":71520,"velocity":0.8661417322834646,"pitch":46,"id":"e061efc2-42f9-41f0-8b45-43ad0ad5219c"},{"length":160,"position":71616,"velocity":0.8661417322834646,"pitch":51,"id":"2cb37f52-693e-4723-bd4a-a929bbee5117"},{"length":160,"position":72000,"velocity":0.8661417322834646,"pitch":51,"id":"a2953727-dfa6-4674-9d15-c17f46a3f88b"},{"length":94,"position":72192,"velocity":0.8661417322834646,"pitch":41,"id":"fa37745c-9c60-48c2-b54a-ad8c0933f2c3"},{"length":94,"position":72288,"velocity":0.8661417322834646,"pitch":48,"id":"90d68a09-b245-4f26-b69f-00f07b3fef4a"},{"length":94,"position":72480,"velocity":0.8661417322834646,"pitch":53,"id":"2105ef4e-0c0e-4445-a4fc-6870cf274112"},{"length":160,"position":72768,"velocity":0.8661417322834646,"pitch":48,"id":"a0748939-7acb-4462-aeb0-e2c98448e271"},{"length":94,"position":72960,"velocity":0.8661417322834646,"pitch":43,"id":"cfe1417b-b030-4a07-a1b6-627d10342973"},{"length":94,"position":73056,"velocity":0.8661417322834646,"pitch":50,"id":"fe7a342d-bb78-4ba7-a475-165be063cd6e"},{"length":94,"position":73248,"velocity":0.8661417322834646,"pitch":55,"id":"93f1262c-873e-4512-8a32-7591ac5089d7"},{"length":160,"position":73536,"velocity":0.8661417322834646,"pitch":50,"id":"16190504-4d9e-44cc-aa75-7a8f9ebd7e47"},{"length":94,"position":73728,"velocity":0.8661417322834646,"pitch":43,"id":"e2c6c4b8-f3ea-456a-ad94-439a5bdbb3af"},{"length":94,"position":73824,"velocity":0.8661417322834646,"pitch":50,"id":"4eb68790-4221-4420-a065-8d0c607fee11"},{"length":160,"position":73920,"velocity":0.8661417322834646,"pitch":55,"id":"3d04770d-713d-436e-aab7-8277b3927d16"},{"length":94,"position":74496,"velocity":0.8661417322834646,"pitch":48,"id":"d1330215-bb81-4ed6-8ed1-cb89d439fc6b"},{"length":94,"position":74592,"velocity":0.8661417322834646,"pitch":55,"id":"24c150e5-d908-4bd5-9fc2-e307f96db017"},{"length":160,"position":74688,"velocity":0.8661417322834646,"pitch":60,"id":"62a50d81-cef1-4bee-9eca-05326f278335"},{"length":94,"position":75264,"velocity":0.8661417322834646,"pitch":47,"id":"4d009e83-2777-4c0b-a631-dcd5aac3acf5"},{"length":94,"position":75360,"velocity":0.8661417322834646,"pitch":55,"id":"d1056e66-1fcf-4c31-a93d-1fbbc20e1229"},{"length":160,"position":75456,"velocity":0.8661417322834646,"pitch":59,"id":"40f8e32a-f510-410f-8221-6e47eabdc28e"},{"length":94,"position":75744,"velocity":0.8661417322834646,"pitch":55,"id":"08fbace7-5f57-47d9-b83c-163ffa17646c"},{"length":160,"position":75840,"velocity":0.8661417322834646,"pitch":59,"id":"7e30c23b-1455-4648-9fed-f370e60fec3a"},{"length":94,"position":76032,"velocity":0.8661417322834646,"pitch":45,"id":"318f9e19-fc48-4ed7-a4c4-bfbc9c9cbd9b"},{"length":94,"position":76128,"velocity":0.8661417322834646,"pitch":52,"id":"a773bb23-0cef-4614-942d-1515416920d4"},{"length":160,"position":76224,"velocity":0.8661417322834646,"pitch":57,"id":"646d4b46-de45-4add-8143-4ecad5f2f3e6"},{"length":160,"position":76608,"velocity":0.8661417322834646,"pitch":52,"id":"d2a7c152-832d-40df-9683-466999668cac"},{"length":94,"position":76800,"velocity":0.8661417322834646,"pitch":43,"id":"b3bf7ef8-da5a-49c8-983c-04a4baea8a20"},{"length":94,"position":76896,"velocity":0.8661417322834646,"pitch":50,"id":"7088824f-4a4a-4a1f-ad57-7e63191245a7"},{"length":160,"position":76992,"velocity":0.8661417322834646,"pitch":55,"id":"faf1c153-b94f-4707-860f-9617633090cd"},{"length":160,"position":77376,"velocity":0.8661417322834646,"pitch":50,"id":"9053adec-4194-4d40-92ab-f2f382cb448c"},{"length":94,"position":77568,"velocity":0.8661417322834646,"pitch":48,"id":"8453eecb-ca1b-4170-8259-8bbb06a6f4bc"},{"length":94,"position":77664,"velocity":0.8661417322834646,"pitch":55,"id":"5a528e05-5964-4780-9afb-5e7922c17bad"},{"length":160,"position":77760,"velocity":0.8661417322834646,"pitch":60,"id":"a144559a-64bd-4cfb-ae95-f91368bfe925"},{"length":94,"position":78336,"velocity":0.8661417322834646,"pitch":47,"id":"3ba06d10-9ef0-4fb7-a271-6c5023848aa1"},{"length":94,"position":78432,"velocity":0.8661417322834646,"pitch":55,"id":"fb020378-350b-462d-9e62-8b5116c82d06"},{"length":160,"position":78528,"velocity":0.8661417322834646,"pitch":59,"id":"e396afa0-bfc5-4356-8620-070a2d02c77a"},{"length":160,"position":78912,"velocity":0.8661417322834646,"pitch":59,"id":"dd21d0da-8018-4762-b42c-a57153a159b6"},{"length":94,"position":79104,"velocity":0.8661417322834646,"pitch":46,"id":"bbe928c7-5525-4bbf-94c1-6e9eb85ea95f"},{"length":94,"position":79200,"velocity":0.8661417322834646,"pitch":53,"id":"018e156b-17e7-4344-a73b-15fe992a066f"},{"length":160,"position":79296,"velocity":0.8661417322834646,"pitch":58,"id":"f78e8bf4-a444-4685-8c60-ca5450e723bd"},{"length":160,"position":79680,"velocity":0.8661417322834646,"pitch":58,"id":"140b6991-3774-4f19-b813-7b95d79209ec"},{"length":94,"position":79872,"velocity":0.8661417322834646,"pitch":45,"id":"012c80dc-b92a-4c2c-a486-ef63fe7cbd30"},{"length":94,"position":79968,"velocity":0.8661417322834646,"pitch":57,"id":"152c86aa-9fb8-462a-a44b-87ee9ccb6dbb"},{"length":94,"position":80256,"velocity":0.8661417322834646,"pitch":50,"id":"5ce3dc78-f780-4df8-90c5-ae473187a250"},{"length":94,"position":80352,"velocity":0.8661417322834646,"pitch":57,"id":"51724fc1-00f7-447e-9f27-2432a2e71f77"},{"length":94,"position":80640,"velocity":0.8661417322834646,"pitch":43,"id":"d07c1edf-c590-4918-92ea-c548b657a0a1"},{"length":94,"position":80736,"velocity":0.8661417322834646,"pitch":50,"id":"3bfe5e44-804b-4645-8bf4-ff2dbdd9eb6b"},{"length":160,"position":81216,"velocity":0.8661417322834646,"pitch":55,"id":"7a72906a-1abc-4fca-a677-36e032d94dc8"},{"length":94,"position":81408,"velocity":0.8661417322834646,"pitch":41,"id":"b6cbd785-e785-4663-8db3-cf5803a3611c"},{"length":94,"position":81504,"velocity":0.8661417322834646,"pitch":48,"id":"4270018e-b2f1-4d37-941f-a4102d02977d"},{"length":160,"position":81600,"velocity":0.8661417322834646,"pitch":53,"id":"4b688bff-b8a1-4acd-9c4f-deeab0d6d1a3"},{"length":94,"position":81888,"velocity":0.8661417322834646,"pitch":48,"id":"0fecba1f-c023-45b3-a83b-6cf8c65f25aa"},{"length":160,"position":81984,"velocity":0.8661417322834646,"pitch":53,"id":"869bf498-765c-4c62-a88c-6011b1e6248b"},{"length":94,"position":82176,"velocity":0.8661417322834646,"pitch":39,"id":"722c83c1-942c-4fb6-99eb-ad9cfa392988"},{"length":94,"position":82272,"velocity":0.8661417322834646,"pitch":46,"id":"e3023c18-18a8-43e4-9fb2-ce4dce13de90"},{"length":160,"position":82368,"velocity":0.8661417322834646,"pitch":51,"id":"d3943390-8f1b-4d35-af48-41183f4fe436"},{"length":160,"position":82752,"velocity":0.8661417322834646,"pitch":46,"id":"b8c7db03-0233-4c5b-9f32-38144fb08378"},{"length":94,"position":82944,"velocity":0.8661417322834646,"pitch":41,"id":"b7eee58e-74fa-4726-94a1-a0240ebd228c"},{"length":94,"position":83040,"velocity":0.8661417322834646,"pitch":48,"id":"c58b9f75-9c74-4f64-a8d2-37489558845c"},{"length":160,"position":83136,"velocity":0.8661417322834646,"pitch":53,"id":"e27bd675-6d51-4be7-aaeb-c57597210c30"},{"length":160,"position":83520,"velocity":0.8661417322834646,"pitch":48,"id":"2a3caa75-71e7-408e-bbaa-79681f345248"},{"length":94,"position":83712,"velocity":0.8661417322834646,"pitch":43,"id":"e63a7b40-b735-4119-bddb-f5062e95cf8a"},{"length":94,"position":83808,"velocity":0.8661417322834646,"pitch":50,"id":"0eaad92b-c98b-4d63-ba67-2b65dc19810f"},{"length":160,"position":83904,"velocity":0.8661417322834646,"pitch":55,"id":"8c1c4be8-2030-4c8b-9487-ef4a68d001b2"},{"length":160,"position":84288,"velocity":0.8661417322834646,"pitch":55,"id":"95b9406c-8110-4f00-9439-95161c866489"},{"length":160,"position":84480,"velocity":0.8661417322834646,"pitch":43,"id":"36e9d0da-3687-4c3f-b8ff-24d93431f03b"},{"length":160,"position":84672,"velocity":0.8661417322834646,"pitch":50,"id":"b27fcf2d-0877-477f-bc3b-22ef6fd4e83c"},{"length":94,"position":85248,"velocity":0.8661417322834646,"pitch":43,"id":"fa50126a-a682-460e-ba3a-64787f0538dc"},{"length":94,"position":85344,"velocity":0.8661417322834646,"pitch":50,"id":"4631f770-0c6a-4c28-afff-7fc7e4519298"},{"length":94,"position":85824,"velocity":0.8661417322834646,"pitch":55,"id":"4eb35404-22a8-486c-a740-bface9d7a292"},{"length":94,"position":85920,"velocity":0.8661417322834646,"pitch":50,"id":"4ba49eed-b038-46cd-b814-3fc5827fdf65"},{"length":94,"position":86016,"velocity":0.8661417322834646,"pitch":41,"id":"ab3e6995-3219-41dd-9bdd-61c21fa05906"},{"length":94,"position":86112,"velocity":0.8661417322834646,"pitch":48,"id":"62bb18c0-a264-483d-b87c-5a77eba238b0"},{"length":160,"position":86208,"velocity":0.8661417322834646,"pitch":53,"id":"45396c61-80d9-40db-9eb3-32a18cf17c87"},{"length":94,"position":86496,"velocity":0.8661417322834646,"pitch":48,"id":"cb6e6449-26e4-4578-bb57-ea9c875c0332"},{"length":94,"position":86784,"velocity":0.8661417322834646,"pitch":39,"id":"57005ca1-8a19-4b57-ae8a-1a76e4b75b3e"},{"length":94,"position":86880,"velocity":0.8661417322834646,"pitch":46,"id":"17cfa896-7399-4277-91ff-a9b119e3c6f8"},{"length":160,"position":86976,"velocity":0.8661417322834646,"pitch":51,"id":"668bf6c8-54aa-4617-b9ff-e64b7c2a2500"},{"length":160,"position":87360,"velocity":0.8661417322834646,"pitch":51,"id":"32d632cd-4eb9-4c05-91bc-b8a39cbf2c4d"},{"length":94,"position":87552,"velocity":0.8661417322834646,"pitch":41,"id":"4fc35b2d-11a8-4a27-ba0f-5172981434d8"},{"length":94,"position":87648,"velocity":0.8661417322834646,"pitch":48,"id":"95875ec4-2922-415b-8634-165f359096e9"},{"length":160,"position":87744,"velocity":0.8661417322834646,"pitch":53,"id":"f30831f6-1fd4-455f-87b6-32ce2dc2c96a"},{"length":160,"position":88128,"velocity":0.8661417322834646,"pitch":48,"id":"92cba05b-cd78-4bda-931e-81fcbc6f4a62"},{"length":94,"position":88320,"velocity":0.8661417322834646,"pitch":43,"id":"58001d97-df63-416f-83f4-b27d02866574"},{"length":94,"position":88416,"velocity":0.8661417322834646,"pitch":50,"id":"2f0646b2-c731-4279-9483-a6f84e2aedaa"},{"length":160,"position":88512,"velocity":0.8661417322834646,"pitch":55,"id":"8a51cd4e-e72d-4e90-bc35-ac798d68ec5c"},{"length":160,"position":88896,"velocity":0.8661417322834646,"pitch":55,"id":"b146059b-f8e2-4d4c-83b8-2f90f82d6d9f"},{"length":94,"position":89088,"velocity":0.8661417322834646,"pitch":43,"id":"85b0a56b-5417-47d5-884c-0e4af38c43f2"},{"length":94,"position":89184,"velocity":0.8661417322834646,"pitch":50,"id":"ccce7c0b-76f4-41e3-b1da-49c05af2e0a6"},{"length":160,"position":89280,"velocity":0.8661417322834646,"pitch":55,"id":"564124f6-9bbe-4915-8fff-1822a47f013c"},{"length":94,"position":89856,"velocity":0.8661417322834646,"pitch":41,"id":"5fdaed12-1fa8-49d5-9983-eb33eeba75e4"},{"length":94,"position":89952,"velocity":0.8661417322834646,"pitch":48,"id":"105bb5db-69f8-49db-b8ff-9741dd6e1221"},{"length":160,"position":90048,"velocity":0.8661417322834646,"pitch":53,"id":"ea6032cd-15c2-4881-bbf9-ac9f23bc43cc"},{"length":160,"position":90624,"velocity":0.8661417322834646,"pitch":41,"id":"9436d183-92a7-43a5-b0da-186617f96532"},{"length":160,"position":91008,"velocity":0.8661417322834646,"pitch":48,"id":"a538b25d-1008-4572-907a-59b52cf47eac"},{"length":160,"position":91200,"velocity":0.8661417322834646,"pitch":53,"id":"c3d1116f-7f87-40ff-8fe8-53434ca7f714"},{"length":94,"position":91392,"velocity":0.8661417322834646,"pitch":39,"id":"6597351b-4e16-4b3b-a9b0-b0f0d6233c49"},{"length":94,"position":91488,"velocity":0.8661417322834646,"pitch":46,"id":"2f9763f0-a32b-4357-9f1f-b19d071bc64f"},{"length":160,"position":91584,"velocity":0.8661417322834646,"pitch":51,"id":"9b57b1e5-3232-4c13-b32b-b8a8b1761445"},{"length":160,"position":91968,"velocity":0.8661417322834646,"pitch":51,"id":"5c414219-69b2-4751-af24-3689dfdeaaf4"},{"length":160,"position":92160,"velocity":0.8661417322834646,"pitch":39,"id":"354bd65d-e3c8-47b6-8243-e684ae05d102"},{"length":46,"position":92496,"velocity":0.8661417322834646,"pitch":51,"id":"c8f43c24-6e84-4784-aa1a-6a0534d26e9b"},{"length":94,"position":92928,"velocity":0.8661417322834646,"pitch":38,"id":"fe6a0a2a-2e4a-4a39-9f8a-ab86bea2c3dd"},{"length":94,"position":93024,"velocity":0.8661417322834646,"pitch":45,"id":"f8ca20df-b56a-430e-a3c6-34b18712c9ab"},{"length":160,"position":93120,"velocity":0.8661417322834646,"pitch":50,"id":"143a8c22-fbd3-4f65-b51a-994a5b968a4b"},{"length":160,"position":93504,"velocity":0.8661417322834646,"pitch":50,"id":"f773e51d-1c1f-4aee-80c3-f6b38c95614d"},{"length":160,"position":93696,"velocity":0.8661417322834646,"pitch":38,"id":"e6c86ff9-69f7-4298-9fea-c230225fbb90"},{"length":160,"position":93888,"velocity":0.8661417322834646,"pitch":50,"id":"c6d23d1b-afe5-4628-af9f-d61954f82b64"},{"length":94,"position":94176,"velocity":0.8661417322834646,"pitch":50,"id":"c1e0a76e-59e7-4367-87bb-cd1c80b532c8"},{"length":94,"position":94368,"velocity":0.8661417322834646,"pitch":50,"id":"f2390b84-e392-4470-ac31-013b1e942111"},{"length":94,"position":94464,"velocity":0.8661417322834646,"pitch":45,"id":"2c9c6079-b497-4b64-9c8a-0b0cb3eccbbc"},{"length":94,"position":94464,"velocity":0.8661417322834646,"pitch":50,"id":"87fb3541-7c8a-4113-9989-de1814f0bc73"},{"length":94,"position":94560,"velocity":0.8661417322834646,"pitch":38,"id":"cbf5af8f-62d7-47e1-9aa3-a1bef8744beb"},{"length":94,"position":94560,"velocity":0.8661417322834646,"pitch":53,"id":"618e5405-86be-4ac2-8942-a2252a02dd73"},{"length":94,"position":94656,"velocity":0.8661417322834646,"pitch":45,"id":"316bb44d-b522-4d09-91a5-6b328bd94a7f"},{"length":94,"position":94656,"velocity":0.8661417322834646,"pitch":57,"id":"ab6536b7-66c1-401b-9369-1c1e9be0f4fa"},{"length":448,"position":94752,"velocity":0.8661417322834646,"pitch":44,"id":"9b67cdc2-bb5a-4c93-bb1c-1157fd86b376"},{"length":448,"position":94752,"velocity":0.8661417322834646,"pitch":56,"id":"b451bd39-5415-4885-a638-3f7037937133"},{"length":70,"position":95232,"velocity":0.8661417322834646,"pitch":62,"id":"c3181e85-f021-4d21-a114-6d6b4faf14ee"},{"length":70,"position":95304,"velocity":0.8661417322834646,"pitch":60,"id":"17f3adbd-7296-423c-9858-72c1276ff0c0"},{"length":46,"position":95376,"velocity":0.8661417322834646,"pitch":55,"id":"f66e8787-89e4-4ca9-b980-bde154c6c7ff"},{"length":70,"position":95424,"velocity":0.8661417322834646,"pitch":50,"id":"0326b7f0-630c-4c13-84ea-a3a617e715a8"},{"length":70,"position":95496,"velocity":0.8661417322834646,"pitch":48,"id":"1b805897-8077-42d6-b25d-6150881b6939"},{"length":46,"position":95568,"velocity":0.8661417322834646,"pitch":43,"id":"d74dfc99-538a-4573-a548-529b192e694d"},{"length":1104,"position":95616,"velocity":0.8661417322834646,"pitch":38,"id":"714c71aa-ade0-419a-9cac-d3bed50ba668"},{"length":1104,"position":95616,"velocity":0.8661417322834646,"pitch":45,"id":"8ceec0b2-6598-431a-bbd9-012b866498c2"},{"length":1104,"position":95616,"velocity":0.8661417322834646,"pitch":50,"id":"7770c547-864b-424b-bddd-9f0154a6bc73"},{"length":3024,"position":96768,"velocity":0.8661417322834646,"pitch":38,"id":"e1e66f2a-f679-4d60-be0a-411412058625"},{"length":3024,"position":96768,"velocity":0.8661417322834646,"pitch":45,"id":"1cea85d0-c6fb-4e97-8996-42cbfe55e3c7"},{"length":3024,"position":96768,"velocity":0.8661417322834646,"pitch":50,"id":"b6739776-de97-4d37-96e3-a02c6b620ff5"},{"length":2640,"position":99840,"velocity":0.8661417322834646,"pitch":38,"id":"be22b4e5-41db-4d9c-8f6d-99450f009e11"},{"length":2640,"position":99840,"velocity":0.8661417322834646,"pitch":45,"id":"be2ab72b-53c7-463a-92e7-9302b992f6a1"},{"length":2640,"position":99840,"velocity":0.8661417322834646,"pitch":50,"id":"b91e10b0-6b5c-4d23-9636-bbc5e5820c80"},{"length":160,"position":102912,"velocity":0.8661417322834646,"pitch":50,"id":"3e666053-a735-4823-acf8-87e098c4b75c"},{"length":160,"position":102912,"velocity":0.8661417322834646,"pitch":57,"id":"5e86a438-565e-4286-bbf8-498b75b44f6d"},{"length":160,"position":102912,"velocity":0.8661417322834646,"pitch":62,"id":"9d52ff52-b650-4102-bce3-79c5de528f2b"},{"length":160,"position":103104,"velocity":0.8661417322834646,"pitch":50,"id":"b2b206cf-e5c1-40f3-adee-d839fa7775da"},{"length":160,"position":103104,"velocity":0.8661417322834646,"pitch":57,"id":"39c5e85f-7489-4d33-9bef-a6400ee591da"},{"length":160,"position":103104,"velocity":0.8661417322834646,"pitch":62,"id":"262cc57d-3526-47d9-b613-65e446b9290d"},{"length":94,"position":103392,"velocity":0.8661417322834646,"pitch":50,"id":"bbd9acbc-418e-4d86-9580-e0babb957490"},{"length":94,"position":103392,"velocity":0.8661417322834646,"pitch":57,"id":"49f45c64-06e6-42e0-9c6b-2983e336059b"},{"length":94,"position":103392,"velocity":0.8661417322834646,"pitch":62,"id":"1dfb1ba5-fe94-46f3-959e-2f43964b5c5b"},{"length":46,"position":103488,"velocity":0.8661417322834646,"pitch":50,"id":"81870c72-be0c-4fdb-b06c-d4ff499b3639"},{"length":46,"position":103488,"velocity":0.8661417322834646,"pitch":57,"id":"99a74ada-9d58-4eb2-80fd-f866df459af3"},{"length":46,"position":103488,"velocity":0.8661417322834646,"pitch":62,"id":"fc9c7e31-cc16-48af-a236-1896ec5abb57"},{"length":46,"position":103536,"velocity":0.8661417322834646,"pitch":50,"id":"be180134-4fbf-4309-9301-4617c8d66df1"},{"length":46,"position":103536,"velocity":0.8661417322834646,"pitch":57,"id":"5a8d282d-384e-4a11-aa9b-20bf628d4923"},{"length":46,"position":103536,"velocity":0.8661417322834646,"pitch":62,"id":"7366b4d5-20d8-4aaf-894a-3c9e0f6930fb"},{"length":46,"position":103584,"velocity":0.8661417322834646,"pitch":50,"id":"04e2f76d-7d0e-487b-9494-502ec4de6718"},{"length":46,"position":103584,"velocity":0.8661417322834646,"pitch":57,"id":"3f628dc0-d3c3-4007-8080-8b7809a71bb2"},{"length":46,"position":103584,"velocity":0.8661417322834646,"pitch":62,"id":"9a5afe0d-62d4-41fd-b8a8-471ed3467273"},{"length":46,"position":103632,"velocity":0.8661417322834646,"pitch":50,"id":"74753b6f-0690-4c07-8f79-b3b70d3b9cce"},{"length":46,"position":103632,"velocity":0.8661417322834646,"pitch":57,"id":"dc0fa6bc-d261-4ff8-84aa-16bfc4305f62"},{"length":46,"position":103632,"velocity":0.8661417322834646,"pitch":62,"id":"53cab643-4efa-46a5-8711-e80a6513ad97"},{"length":160,"position":103680,"velocity":0.8661417322834646,"pitch":52,"id":"d69b54c6-5fdd-49a5-9dd6-3d3b76557dd7"},{"length":160,"position":103680,"velocity":0.8661417322834646,"pitch":59,"id":"6558a2a0-798f-4456-bd18-a150af85b517"},{"length":160,"position":103680,"velocity":0.8661417322834646,"pitch":64,"id":"17082d60-8dad-48b1-bbc6-fd70b9e32bf2"},{"length":160,"position":103872,"velocity":0.8661417322834646,"pitch":52,"id":"e88320e3-a19f-4c90-a539-a9be58f506d4"},{"length":160,"position":103872,"velocity":0.8661417322834646,"pitch":59,"id":"4e81dd25-1b66-44bf-bec5-7077c85b8e01"},{"length":160,"position":103872,"velocity":0.8661417322834646,"pitch":64,"id":"f13f4126-053b-4289-bb6b-c2ca6211c108"},{"length":94,"position":104160,"velocity":0.8661417322834646,"pitch":52,"id":"ee46cad2-a785-4562-80a5-6355413341b0"},{"length":94,"position":104160,"velocity":0.8661417322834646,"pitch":59,"id":"0c19f6c0-db9d-4b69-83af-35d0d6dd9145"},{"length":94,"position":104160,"velocity":0.8661417322834646,"pitch":64,"id":"6feb801a-6e1d-44ba-940e-a3bdf7787bb3"},{"length":46,"position":104256,"velocity":0.8661417322834646,"pitch":52,"id":"a91023cd-c982-4117-aa82-4807b4aa3dcb"},{"length":46,"position":104256,"velocity":0.8661417322834646,"pitch":59,"id":"249c0622-b1f3-4805-9ad5-0f46d1e876fe"},{"length":46,"position":104256,"velocity":0.8661417322834646,"pitch":64,"id":"21a8f764-3ec7-4e41-a8fb-553a1e3a5733"},{"length":46,"position":104304,"velocity":0.8661417322834646,"pitch":52,"id":"70d1a9bb-246b-4928-9e3e-9fa975fe6bde"},{"length":46,"position":104304,"velocity":0.8661417322834646,"pitch":59,"id":"dd082479-5748-456b-8c4e-b6a9c8fe07d3"},{"length":46,"position":104304,"velocity":0.8661417322834646,"pitch":64,"id":"478281e5-fd39-4a7a-94be-f09fc9dac9c8"},{"length":46,"position":104352,"velocity":0.8661417322834646,"pitch":52,"id":"8d135685-d8b0-4af7-8f4b-f359c5ea00e9"},{"length":46,"position":104352,"velocity":0.8661417322834646,"pitch":59,"id":"8547a1c7-2bc7-4725-9860-1285526d8418"},{"length":46,"position":104352,"velocity":0.8661417322834646,"pitch":64,"id":"f9e0a8b8-868b-4129-8195-0ed30d485115"},{"length":46,"position":104400,"velocity":0.8661417322834646,"pitch":52,"id":"13a84108-1cb3-4342-8237-73f766757026"},{"length":46,"position":104400,"velocity":0.8661417322834646,"pitch":59,"id":"74113974-f9e9-4c65-ad9b-6137d7d742b8"},{"length":46,"position":104400,"velocity":0.8661417322834646,"pitch":64,"id":"8c54f370-2fe5-499b-8fb6-cd65154edff6"},{"length":160,"position":104448,"velocity":0.8661417322834646,"pitch":53,"id":"79493ac4-421a-4b75-8325-8288b3ffa753"},{"length":160,"position":104448,"velocity":0.8661417322834646,"pitch":60,"id":"5b7c289b-8d19-453f-a565-f1b1630b54eb"},{"length":160,"position":104448,"velocity":0.8661417322834646,"pitch":65,"id":"029b90f9-991b-4ed0-b17a-779b8e34be7d"},{"length":160,"position":104640,"velocity":0.8661417322834646,"pitch":53,"id":"50c176d3-857e-42eb-acef-fcac93f4b317"},{"length":160,"position":104640,"velocity":0.8661417322834646,"pitch":60,"id":"7f655977-290e-4a5d-b9b7-83ffc47fe45f"},{"length":160,"position":104640,"velocity":0.8661417322834646,"pitch":65,"id":"a69fba59-b04e-4419-8ba3-ea43cb167419"},{"length":94,"position":104928,"velocity":0.8661417322834646,"pitch":53,"id":"fcd50bee-ae99-4297-9744-6b5ca90ebb32"},{"length":94,"position":104928,"velocity":0.8661417322834646,"pitch":60,"id":"88cfd35d-0da0-4f67-8469-471ce7047928"},{"length":94,"position":104928,"velocity":0.8661417322834646,"pitch":65,"id":"73c36725-be5f-4353-95b9-984360bbbd70"},{"length":46,"position":105024,"velocity":0.8661417322834646,"pitch":53,"id":"31e356ed-ed86-4c3c-87ca-c32547905440"},{"length":46,"position":105024,"velocity":0.8661417322834646,"pitch":60,"id":"cae4d5b1-0aa4-4668-a08d-f919026d30d2"},{"length":46,"position":105024,"velocity":0.8661417322834646,"pitch":65,"id":"a5003c8c-4a5f-4711-80a2-b8801bf5f0c0"},{"length":46,"position":105072,"velocity":0.8661417322834646,"pitch":53,"id":"b4d710e1-a841-4790-8188-ada63232a9fe"},{"length":46,"position":105072,"velocity":0.8661417322834646,"pitch":60,"id":"a73c9deb-c4aa-4aa6-9b7c-c66a491c1512"},{"length":46,"position":105072,"velocity":0.8661417322834646,"pitch":65,"id":"5d29f4a6-bb13-4226-a13e-269f64e1f02d"},{"length":46,"position":105120,"velocity":0.8661417322834646,"pitch":53,"id":"0954ee29-2ad8-4943-a84c-48b7e16b1cac"},{"length":46,"position":105120,"velocity":0.8661417322834646,"pitch":60,"id":"96db33da-02ae-4eec-80d5-191ba53471a6"},{"length":46,"position":105120,"velocity":0.8661417322834646,"pitch":65,"id":"419610db-ae26-4818-b1b3-c1c4ff0f0bb1"},{"length":46,"position":105168,"velocity":0.8661417322834646,"pitch":53,"id":"9b7a749f-6853-46ef-92e8-83bb7b414455"},{"length":46,"position":105168,"velocity":0.8661417322834646,"pitch":60,"id":"0d0e1c4d-b869-464e-a638-a4d5c8014359"},{"length":46,"position":105168,"velocity":0.8661417322834646,"pitch":65,"id":"1e8630bc-5591-4865-bd65-2507638e7d25"},{"length":160,"position":105216,"velocity":0.8661417322834646,"pitch":55,"id":"2bb92703-958e-4afb-a3ca-305d115b7d6f"},{"length":160,"position":105216,"velocity":0.8661417322834646,"pitch":62,"id":"d0e3e40b-0e22-4d04-925e-bafb69d69e8d"},{"length":160,"position":105216,"velocity":0.8661417322834646,"pitch":67,"id":"bd5a4073-c563-43fa-a6b1-3e0812470878"},{"length":160,"position":105408,"velocity":0.8661417322834646,"pitch":55,"id":"3f983a68-6184-482d-a227-447d786c3016"},{"length":160,"position":105408,"velocity":0.8661417322834646,"pitch":62,"id":"1148c1fd-f4c3-43cf-96fb-648ac3de2c1b"},{"length":160,"position":105408,"velocity":0.8661417322834646,"pitch":67,"id":"5b33462a-c328-4412-b200-7a4757f47e3d"},{"length":94,"position":105696,"velocity":0.8661417322834646,"pitch":55,"id":"53fb0d80-ab67-4323-a207-698132546cc2"},{"length":94,"position":105696,"velocity":0.8661417322834646,"pitch":62,"id":"720b2ff4-d216-4397-9a88-2ca0a1f7e232"},{"length":94,"position":105696,"velocity":0.8661417322834646,"pitch":67,"id":"d9b0c507-9cca-4151-accf-9ca8ab992bbf"},{"length":46,"position":105792,"velocity":0.8661417322834646,"pitch":55,"id":"dab53fef-6d7a-4de1-92ce-452649d8bb0e"},{"length":46,"position":105792,"velocity":0.8661417322834646,"pitch":62,"id":"51dbcd20-8325-4d54-9fd1-c5323891ae73"},{"length":46,"position":105792,"velocity":0.8661417322834646,"pitch":67,"id":"3f959b0e-62ff-4982-976a-1cccd6907140"},{"length":46,"position":105840,"velocity":0.8661417322834646,"pitch":55,"id":"ce8e896d-3fe8-406e-ae81-fb2eef5e8e52"},{"length":46,"position":105840,"velocity":0.8661417322834646,"pitch":62,"id":"5759d84a-208f-44aa-8efe-bdb281be10e2"},{"length":46,"position":105840,"velocity":0.8661417322834646,"pitch":67,"id":"8d1a71ea-4635-4dcb-99e3-a25c878d5889"},{"length":46,"position":105888,"velocity":0.8661417322834646,"pitch":55,"id":"1096db1b-86f4-4eae-9b27-d127513169ea"},{"length":46,"position":105888,"velocity":0.8661417322834646,"pitch":62,"id":"5fc84393-d5a3-4dee-aa0a-98be2f518f93"},{"length":46,"position":105888,"velocity":0.8661417322834646,"pitch":67,"id":"9fbbf01f-5ee6-48f6-a5e6-257b857a19b6"},{"length":46,"position":105936,"velocity":0.8661417322834646,"pitch":55,"id":"60ce1d30-5076-4f07-ac3e-3cb03509bce0"},{"length":46,"position":105936,"velocity":0.8661417322834646,"pitch":62,"id":"b91b3a2e-b5c8-4889-ab41-69f9f90da66d"},{"length":46,"position":105936,"velocity":0.8661417322834646,"pitch":67,"id":"74fa57b8-48a7-4843-989e-196ead6790f6"},{"length":160,"position":105984,"velocity":0.8661417322834646,"pitch":50,"id":"1f3f9711-e9aa-4ab6-84ff-d84be7ea1f23"},{"length":160,"position":105984,"velocity":0.8661417322834646,"pitch":57,"id":"26c1fbc6-0895-4f62-bcd5-8ebbe33c3a66"},{"length":160,"position":105984,"velocity":0.8661417322834646,"pitch":62,"id":"46af7619-606b-48da-981d-37355c89e4b7"},{"length":160,"position":106176,"velocity":0.8661417322834646,"pitch":50,"id":"604aa01e-1cbd-4856-8496-2532ddfb3b56"},{"length":160,"position":106176,"velocity":0.8661417322834646,"pitch":57,"id":"bc012512-aec6-4666-8d90-b564ab4c1660"},{"length":160,"position":106176,"velocity":0.8661417322834646,"pitch":62,"id":"68d217a0-77d6-4bd7-9bc9-af2e6a953b76"},{"length":94,"position":106464,"velocity":0.8661417322834646,"pitch":50,"id":"5e0c7e5d-c939-443c-8a40-6667a27960a6"},{"length":94,"position":106464,"velocity":0.8661417322834646,"pitch":57,"id":"f6660a47-bb10-4539-b6c3-4397492e18c0"},{"length":94,"position":106464,"velocity":0.8661417322834646,"pitch":62,"id":"1ecf2b24-20e1-48a6-9b93-dd39231bde81"},{"length":46,"position":106560,"velocity":0.8661417322834646,"pitch":50,"id":"5c4ba4d7-d508-4464-8564-8afc6e574ae6"},{"length":46,"position":106560,"velocity":0.8661417322834646,"pitch":57,"id":"bf68591a-2281-4aa6-9a9d-503c0762448a"},{"length":46,"position":106560,"velocity":0.8661417322834646,"pitch":62,"id":"c477e790-7ae8-42e5-b512-c3e69a44b9a4"},{"length":46,"position":106608,"velocity":0.8661417322834646,"pitch":50,"id":"d4ba6d7c-8d6f-42d5-b38f-2501c2e4f5c0"},{"length":46,"position":106608,"velocity":0.8661417322834646,"pitch":57,"id":"0e4a6599-9da3-4894-a060-7d4b10cb96c9"},{"length":46,"position":106608,"velocity":0.8661417322834646,"pitch":62,"id":"cc90a893-7ffb-4a77-8429-b5a68e776489"},{"length":46,"position":106656,"velocity":0.8661417322834646,"pitch":50,"id":"4bba3c54-038e-4c7b-9835-4a640714ef16"},{"length":46,"position":106656,"velocity":0.8661417322834646,"pitch":57,"id":"7c19e6dc-f91d-4f0d-9506-358b51305401"},{"length":46,"position":106656,"velocity":0.8661417322834646,"pitch":62,"id":"2705534a-b383-46ae-812f-e873609d4fe6"},{"length":46,"position":106704,"velocity":0.8661417322834646,"pitch":50,"id":"5e43923a-7439-48c6-b59f-de4b3376ecd7"},{"length":46,"position":106704,"velocity":0.8661417322834646,"pitch":57,"id":"639da637-71bb-4fe0-bc75-1c8a34d05913"},{"length":46,"position":106704,"velocity":0.8661417322834646,"pitch":62,"id":"2026dd96-7bbd-4fbe-aabf-acd56d596290"},{"length":160,"position":106752,"velocity":0.8661417322834646,"pitch":52,"id":"f4b89cd4-9755-4ea0-945e-c60c1048689b"},{"length":160,"position":106752,"velocity":0.8661417322834646,"pitch":59,"id":"1f6e1d29-403e-43ff-9bc6-e08958f81f1b"},{"length":160,"position":106752,"velocity":0.8661417322834646,"pitch":64,"id":"36e8479d-910a-4a65-a7bd-d0584e323385"},{"length":160,"position":106944,"velocity":0.8661417322834646,"pitch":52,"id":"5bbc01dd-8abc-41e3-b5d7-41033a58477c"},{"length":160,"position":106944,"velocity":0.8661417322834646,"pitch":59,"id":"e15ef417-179e-4597-b0d6-5dec4df862ab"},{"length":160,"position":106944,"velocity":0.8661417322834646,"pitch":64,"id":"0e1d8a73-ba80-43a1-b2fa-fbf38468bd87"},{"length":94,"position":107232,"velocity":0.8661417322834646,"pitch":52,"id":"442f81e8-15dc-490b-bc70-5685dbd450a9"},{"length":94,"position":107232,"velocity":0.8661417322834646,"pitch":59,"id":"0bf7b655-a3bd-4db1-9faf-2b0ede5d67c6"},{"length":94,"position":107232,"velocity":0.8661417322834646,"pitch":64,"id":"83c1b5df-7998-4314-b0e7-ba33119bcaf6"},{"length":46,"position":107328,"velocity":0.8661417322834646,"pitch":52,"id":"170a3c7b-a413-47a1-b52c-1288d54d8373"},{"length":46,"position":107328,"velocity":0.8661417322834646,"pitch":59,"id":"9e039bd2-9700-46ae-b7cc-c565b2fd68a2"},{"length":46,"position":107328,"velocity":0.8661417322834646,"pitch":64,"id":"7b056f42-7f6d-4177-8385-c8987e654582"},{"length":46,"position":107376,"velocity":0.8661417322834646,"pitch":52,"id":"c42e0817-6984-4578-bdaa-811f41c92925"},{"length":46,"position":107376,"velocity":0.8661417322834646,"pitch":59,"id":"3d8860a3-3378-4b55-9bdf-02a33942abb3"},{"length":46,"position":107376,"velocity":0.8661417322834646,"pitch":64,"id":"d52f89c3-087a-40f3-9a2c-4086bb57f07b"},{"length":46,"position":107424,"velocity":0.8661417322834646,"pitch":52,"id":"b2bc7e27-8dc5-4f33-8ab5-f86bf60443a4"},{"length":46,"position":107424,"velocity":0.8661417322834646,"pitch":59,"id":"c0111784-58cd-4c1e-8687-c1e52884402a"},{"length":46,"position":107424,"velocity":0.8661417322834646,"pitch":64,"id":"1e6ea9a8-76af-4c33-8369-4e0393e880c8"},{"length":46,"position":107472,"velocity":0.8661417322834646,"pitch":52,"id":"b0db353e-be0a-4705-9566-af1d7171d09f"},{"length":46,"position":107472,"velocity":0.8661417322834646,"pitch":59,"id":"2159cb5c-66ce-492e-9c52-a69ceb89c915"},{"length":46,"position":107472,"velocity":0.8661417322834646,"pitch":64,"id":"d0e17e6a-3480-47a5-a07d-64ef91d10e0e"},{"length":160,"position":107520,"velocity":0.8661417322834646,"pitch":53,"id":"8e7095cf-ae52-47f0-aa80-752f8d464a7c"},{"length":160,"position":107520,"velocity":0.8661417322834646,"pitch":60,"id":"4bdf2736-3bc8-4fda-aa33-9c0c0b6b1e4f"},{"length":160,"position":107520,"velocity":0.8661417322834646,"pitch":65,"id":"4422cf3f-03a1-43ae-97ef-775036577637"},{"length":160,"position":107712,"velocity":0.8661417322834646,"pitch":53,"id":"84877311-979b-4ebf-ae25-83cc1984dedb"},{"length":160,"position":107712,"velocity":0.8661417322834646,"pitch":60,"id":"3968f5e2-a84f-4b5c-ac9c-286df2cb35eb"},{"length":160,"position":107712,"velocity":0.8661417322834646,"pitch":65,"id":"feccb5e8-1016-46ce-9683-60bd68c735a1"},{"length":94,"position":108000,"velocity":0.8661417322834646,"pitch":53,"id":"c490f713-7664-4968-855b-3d01d36b819d"},{"length":94,"position":108000,"velocity":0.8661417322834646,"pitch":60,"id":"01b637ea-e42f-4d4c-bdff-e2100a2de42e"},{"length":94,"position":108000,"velocity":0.8661417322834646,"pitch":65,"id":"8bc7ae7f-d365-4647-a1fb-62daa2dece7f"},{"length":46,"position":108096,"velocity":0.8661417322834646,"pitch":53,"id":"380be375-99ad-48dc-9ae0-b8de070b3c4d"},{"length":46,"position":108096,"velocity":0.8661417322834646,"pitch":60,"id":"ece183ca-00b0-4b43-b7b4-c9e75e371f1a"},{"length":46,"position":108096,"velocity":0.8661417322834646,"pitch":65,"id":"c3e60a24-3c94-4795-8c31-3021af3fde47"},{"length":46,"position":108144,"velocity":0.8661417322834646,"pitch":53,"id":"47057312-2a5e-4169-828e-96cef3050335"},{"length":46,"position":108144,"velocity":0.8661417322834646,"pitch":60,"id":"64e0b011-8531-46ae-b7de-a65313bc9f21"},{"length":46,"position":108144,"velocity":0.8661417322834646,"pitch":65,"id":"b46b0324-142e-400a-912e-ed6be5402c5f"},{"length":46,"position":108192,"velocity":0.8661417322834646,"pitch":53,"id":"b0aa7fab-8721-4cf2-bc54-a15f83ca3434"},{"length":46,"position":108192,"velocity":0.8661417322834646,"pitch":60,"id":"770e878d-4cab-4a62-8b56-5738fdc0f1a5"},{"length":46,"position":108192,"velocity":0.8661417322834646,"pitch":65,"id":"38c95796-6473-40a3-a6cc-eb16d1d3c967"},{"length":46,"position":108240,"velocity":0.8661417322834646,"pitch":53,"id":"236caef2-83a3-4fbc-bccd-1eec6d71a9ea"},{"length":46,"position":108240,"velocity":0.8661417322834646,"pitch":60,"id":"5650afc2-b94d-4dfc-9e33-ad54fbc3b17e"},{"length":46,"position":108240,"velocity":0.8661417322834646,"pitch":65,"id":"98feede6-6a2b-4349-830f-17bf20982b60"},{"length":160,"position":108288,"velocity":0.8661417322834646,"pitch":55,"id":"1fb9db36-92c6-402f-9850-8e3d4d9823dd"},{"length":160,"position":108288,"velocity":0.8661417322834646,"pitch":62,"id":"5972fade-bba7-406d-9817-38e7959e713c"},{"length":160,"position":108288,"velocity":0.8661417322834646,"pitch":67,"id":"83e8d0ee-6dcc-4d9d-8b42-6254ba0b6d87"},{"length":160,"position":108480,"velocity":0.8661417322834646,"pitch":55,"id":"769c4e1d-2427-47a3-8eb6-93a7237c607c"},{"length":160,"position":108480,"velocity":0.8661417322834646,"pitch":62,"id":"2e5f840b-4da8-46c9-9690-6ac03c5a06e9"},{"length":160,"position":108480,"velocity":0.8661417322834646,"pitch":67,"id":"b1b9bf1c-4953-4d35-ac1b-4fef4ceedd51"},{"length":94,"position":108768,"velocity":0.8661417322834646,"pitch":55,"id":"ace789bc-b331-4bba-a6f4-f7abcdee385b"},{"length":94,"position":108768,"velocity":0.8661417322834646,"pitch":62,"id":"3454947b-30e6-4124-b442-72676f0bd196"},{"length":94,"position":108768,"velocity":0.8661417322834646,"pitch":67,"id":"60225df8-2622-434c-8f66-7da288b740f8"},{"length":46,"position":108864,"velocity":0.8661417322834646,"pitch":55,"id":"3a9622b6-4587-46e2-9f24-cec01dcd7ead"},{"length":46,"position":108864,"velocity":0.8661417322834646,"pitch":62,"id":"7174e9ec-f54b-4d2a-8591-19b786546080"},{"length":46,"position":108864,"velocity":0.8661417322834646,"pitch":67,"id":"68df749a-8809-4158-a038-13f2de7844f3"},{"length":46,"position":108912,"velocity":0.8661417322834646,"pitch":55,"id":"b208bc63-f73f-47eb-bc46-3c342148e639"},{"length":46,"position":108912,"velocity":0.8661417322834646,"pitch":62,"id":"d759f59a-face-4276-8fa4-d9048149b79d"},{"length":46,"position":108912,"velocity":0.8661417322834646,"pitch":67,"id":"5a6cbb36-913c-4e0a-a1fe-18e1ff41c799"},{"length":46,"position":108960,"velocity":0.8661417322834646,"pitch":55,"id":"361e3f8e-3a7a-4cc4-b813-ffc29cc29dbe"},{"length":46,"position":108960,"velocity":0.8661417322834646,"pitch":62,"id":"2cf30d23-fb37-4359-bc08-48a873460208"},{"length":46,"position":108960,"velocity":0.8661417322834646,"pitch":67,"id":"c1b67fc9-7be3-4214-8740-8d6a00fcfea4"},{"length":46,"position":109008,"velocity":0.8661417322834646,"pitch":55,"id":"6bc9916a-d9b6-418a-aa12-a991e1664882"},{"length":46,"position":109008,"velocity":0.8661417322834646,"pitch":62,"id":"cefa76c2-e913-4374-9d1e-9f59347a101b"},{"length":46,"position":109008,"velocity":0.8661417322834646,"pitch":67,"id":"4dbc984e-39e5-4cef-b74c-5741a3430503"},{"length":160,"position":109056,"velocity":0.8661417322834646,"pitch":53,"id":"fbf3487a-50d4-4778-8b0a-7a51cfeefbac"},{"length":160,"position":109056,"velocity":0.8661417322834646,"pitch":60,"id":"93979404-a5bc-4831-abe6-44c0154fb872"},{"length":160,"position":109056,"velocity":0.8661417322834646,"pitch":65,"id":"63ac78b4-5191-4f9a-bc05-c15cf8d5649f"},{"length":160,"position":109248,"velocity":0.8661417322834646,"pitch":53,"id":"de80873e-fe03-4a51-b0be-b43e3add5043"},{"length":160,"position":109248,"velocity":0.8661417322834646,"pitch":60,"id":"267f3f1c-13d7-4fde-84c5-3f3e16d6d18b"},{"length":160,"position":109248,"velocity":0.8661417322834646,"pitch":65,"id":"38e2f7df-274e-49cc-8477-ab0401f9c0bb"},{"length":94,"position":109536,"velocity":0.8661417322834646,"pitch":53,"id":"ab6c7ec0-0d7f-4cd3-bff1-6b9d51979750"},{"length":94,"position":109536,"velocity":0.8661417322834646,"pitch":60,"id":"f8b6ef06-3898-4a33-b20b-9970e74da873"},{"length":94,"position":109536,"velocity":0.8661417322834646,"pitch":65,"id":"26c23532-29a9-4a27-bca0-6ebb1393b2da"},{"length":46,"position":109632,"velocity":0.8661417322834646,"pitch":53,"id":"c7b4f32e-d001-4673-b503-e186c9736f87"},{"length":46,"position":109632,"velocity":0.8661417322834646,"pitch":60,"id":"78b85765-da84-4625-acbb-7d46348fec69"},{"length":46,"position":109632,"velocity":0.8661417322834646,"pitch":65,"id":"b71dadbc-dcf7-4c46-9f41-423788f52ad5"},{"length":46,"position":109680,"velocity":0.8661417322834646,"pitch":53,"id":"e2d5df0d-e306-4c36-9bab-0ecb70919fac"},{"length":46,"position":109680,"velocity":0.8661417322834646,"pitch":60,"id":"fe922539-f513-4503-85f9-d986787f4b13"},{"length":46,"position":109680,"velocity":0.8661417322834646,"pitch":65,"id":"e9eeac5f-c842-436a-ae1a-9d1a8d17c739"},{"length":46,"position":109728,"velocity":0.8661417322834646,"pitch":53,"id":"a9a5a409-f69f-4202-bd39-f211bc69d704"},{"length":46,"position":109728,"velocity":0.8661417322834646,"pitch":60,"id":"b7bd1b88-e1b8-4dda-b976-82c04781b068"},{"length":46,"position":109728,"velocity":0.8661417322834646,"pitch":65,"id":"e133f82b-d398-4d59-a0ae-e9640e91d448"},{"length":46,"position":109776,"velocity":0.8661417322834646,"pitch":53,"id":"1fe261be-59b3-458b-91e6-82c718629e68"},{"length":46,"position":109776,"velocity":0.8661417322834646,"pitch":60,"id":"1d8d683e-acd3-4bfc-82e4-505fb67f4959"},{"length":46,"position":109776,"velocity":0.8661417322834646,"pitch":65,"id":"efd99bc1-d03d-47ee-be43-a9577bc9e21d"},{"length":160,"position":109824,"velocity":0.8661417322834646,"pitch":55,"id":"21f6cbf3-424b-420d-9cae-447281738c7b"},{"length":160,"position":109824,"velocity":0.8661417322834646,"pitch":62,"id":"d116058d-5f05-4a12-b94b-1ff5bd60912f"},{"length":160,"position":109824,"velocity":0.8661417322834646,"pitch":67,"id":"55f97392-23d8-46ce-bb49-82e4883093fb"},{"length":160,"position":110016,"velocity":0.8661417322834646,"pitch":55,"id":"b2d650eb-dc61-4628-abc8-f3b50ad89a76"},{"length":160,"position":110016,"velocity":0.8661417322834646,"pitch":62,"id":"7e92c304-d30f-4747-a0bd-bec5cb3678f4"},{"length":160,"position":110016,"velocity":0.8661417322834646,"pitch":67,"id":"6758b1eb-28a1-4566-9366-6b23c4a5a333"},{"length":94,"position":110304,"velocity":0.8661417322834646,"pitch":55,"id":"91b7bbf8-f898-4540-8b2d-8d4af3b420c5"},{"length":94,"position":110304,"velocity":0.8661417322834646,"pitch":62,"id":"1f024119-749f-4602-a472-2343447f519b"},{"length":94,"position":110304,"velocity":0.8661417322834646,"pitch":67,"id":"8a4802e4-c6c3-4ce2-b047-0ee5aa93f662"},{"length":46,"position":110400,"velocity":0.8661417322834646,"pitch":55,"id":"4a8bc907-adf1-4b4a-85d4-495b0c713af1"},{"length":46,"position":110400,"velocity":0.8661417322834646,"pitch":62,"id":"83c6c7e4-db64-492f-ada7-1b486077a58c"},{"length":46,"position":110400,"velocity":0.8661417322834646,"pitch":67,"id":"807fd870-1f0c-4d53-aca2-8f648cd528fd"},{"length":46,"position":110448,"velocity":0.8661417322834646,"pitch":55,"id":"21a5e849-b6b5-41b9-ae57-ceb78fdbc2d0"},{"length":46,"position":110448,"velocity":0.8661417322834646,"pitch":62,"id":"4979b051-ddb9-4d4d-9922-06fbd96258be"},{"length":46,"position":110448,"velocity":0.8661417322834646,"pitch":67,"id":"142a5cc0-6b5e-4c51-8fa7-9d8df7882d2d"},{"length":46,"position":110496,"velocity":0.8661417322834646,"pitch":55,"id":"6ef9c4b6-0cc5-47d1-9206-dcecf059a4ad"},{"length":46,"position":110496,"velocity":0.8661417322834646,"pitch":62,"id":"bcc98755-369f-4446-9945-be090baea5bd"},{"length":46,"position":110496,"velocity":0.8661417322834646,"pitch":67,"id":"491d2ae4-09ba-4f26-a1ee-5d26134582b7"},{"length":46,"position":110544,"velocity":0.8661417322834646,"pitch":55,"id":"2a389448-a61b-4854-ba7f-aeff07ae3425"},{"length":46,"position":110544,"velocity":0.8661417322834646,"pitch":62,"id":"6a01a319-60ec-424f-969c-4f1a825157ae"},{"length":46,"position":110544,"velocity":0.8661417322834646,"pitch":67,"id":"43528f38-0cb9-4936-aed5-4c5540bbd1c4"},{"length":160,"position":110592,"velocity":0.8661417322834646,"pitch":56,"id":"76fd7f56-791a-47d5-858c-6be72df62d62"},{"length":160,"position":110592,"velocity":0.8661417322834646,"pitch":63,"id":"9c851340-9f9f-48c0-88c4-ef34d99bc954"},{"length":160,"position":110592,"velocity":0.8661417322834646,"pitch":68,"id":"1d6b7962-23ca-456f-9e5f-5dc2771864e8"},{"length":160,"position":110784,"velocity":0.8661417322834646,"pitch":56,"id":"b878e621-1777-454a-852d-b5a3df34f007"},{"length":160,"position":110784,"velocity":0.8661417322834646,"pitch":63,"id":"bf13b598-bfe0-49cc-879b-225b3425b269"},{"length":160,"position":110784,"velocity":0.8661417322834646,"pitch":68,"id":"4978675c-6ab3-43d9-a251-5ddc04074903"},{"length":94,"position":111072,"velocity":0.8661417322834646,"pitch":56,"id":"66874032-e44e-487e-ba73-f37877d4d72b"},{"length":94,"position":111072,"velocity":0.8661417322834646,"pitch":63,"id":"173e0262-bf69-444a-ad88-7b0ff4f95c10"},{"length":94,"position":111072,"velocity":0.8661417322834646,"pitch":68,"id":"05513228-c816-400c-b13f-e31ffd41369c"},{"length":46,"position":111168,"velocity":0.8661417322834646,"pitch":56,"id":"a8002ac6-2a14-4e72-b5a0-1c5389b88768"},{"length":46,"position":111168,"velocity":0.8661417322834646,"pitch":63,"id":"4fd434fb-51a9-4abf-9980-13f49924a47b"},{"length":46,"position":111168,"velocity":0.8661417322834646,"pitch":68,"id":"f2b93e26-63ba-4a3a-9d6a-861f5660bc70"},{"length":46,"position":111216,"velocity":0.8661417322834646,"pitch":56,"id":"a63b5ec6-22c0-4bdf-b6e8-af56db11de5f"},{"length":46,"position":111216,"velocity":0.8661417322834646,"pitch":63,"id":"db403d15-153b-4967-950c-ec07965e07b0"},{"length":46,"position":111216,"velocity":0.8661417322834646,"pitch":68,"id":"a7092f36-f6b3-4107-bc25-87c038ce9f4a"},{"length":46,"position":111264,"velocity":0.8661417322834646,"pitch":56,"id":"993a18dc-30f6-426e-9035-17f77787ed0a"},{"length":46,"position":111264,"velocity":0.8661417322834646,"pitch":63,"id":"fb406c57-256d-4fe7-9baf-cbb802e122f3"},{"length":46,"position":111264,"velocity":0.8661417322834646,"pitch":68,"id":"bf0d8fcb-7224-4b9a-9171-94b126ea33e4"},{"length":46,"position":111312,"velocity":0.8661417322834646,"pitch":56,"id":"14957bab-462e-4344-a710-7842a59ed814"},{"length":46,"position":111312,"velocity":0.8661417322834646,"pitch":63,"id":"16a52aba-8201-498e-8623-5245eb762095"},{"length":46,"position":111312,"velocity":0.8661417322834646,"pitch":68,"id":"08fb130a-dd24-4288-a267-6a5fdc5ccf1e"},{"length":160,"position":111360,"velocity":0.8661417322834646,"pitch":58,"id":"458b8852-574d-4a32-a215-851513e0ede5"},{"length":160,"position":111360,"velocity":0.8661417322834646,"pitch":65,"id":"732c01ae-656a-4dc1-becb-43b6f8b85185"},{"length":160,"position":111360,"velocity":0.8661417322834646,"pitch":70,"id":"bda669ad-5a4d-4eda-9679-5e7f956e7762"},{"length":160,"position":111552,"velocity":0.8661417322834646,"pitch":58,"id":"ee7a1482-30f1-4c56-9a76-49114710bfbc"},{"length":160,"position":111552,"velocity":0.8661417322834646,"pitch":65,"id":"49fb06ac-9691-45ad-a91e-11611836c4fa"},{"length":160,"position":111552,"velocity":0.8661417322834646,"pitch":70,"id":"d0752977-c8cf-4ca7-bb97-2eccb90e1d4d"},{"length":94,"position":111840,"velocity":0.8661417322834646,"pitch":58,"id":"a7b8d89e-c6d9-4c28-b2d6-c02561aca3ba"},{"length":94,"position":111840,"velocity":0.8661417322834646,"pitch":65,"id":"b0d5b0d2-f9b3-4a03-9244-a8a5e71bab09"},{"length":94,"position":111840,"velocity":0.8661417322834646,"pitch":70,"id":"6eac9d6f-486a-4a68-8b96-df9f924cc286"},{"length":46,"position":111936,"velocity":0.8661417322834646,"pitch":58,"id":"871a492c-e9e7-4831-9198-5ad744014bee"},{"length":46,"position":111936,"velocity":0.8661417322834646,"pitch":65,"id":"ebe72435-239f-4c7a-adee-87ddeda1da24"},{"length":46,"position":111936,"velocity":0.8661417322834646,"pitch":70,"id":"9791608c-3adf-4eaf-a804-eff13f764731"},{"length":46,"position":111984,"velocity":0.8661417322834646,"pitch":58,"id":"7bd822af-d8a8-4080-b232-889056c3acde"},{"length":46,"position":111984,"velocity":0.8661417322834646,"pitch":65,"id":"fd897a62-323f-42fd-991e-1de865037020"},{"length":46,"position":111984,"velocity":0.8661417322834646,"pitch":70,"id":"c56333e9-dd5c-479f-aed0-b730a0d60a26"},{"length":46,"position":112032,"velocity":0.8661417322834646,"pitch":58,"id":"e3d42f7a-f069-4551-9875-49a3c60accf5"},{"length":46,"position":112032,"velocity":0.8661417322834646,"pitch":65,"id":"c7890919-5ff4-4467-9291-52cddb2a4129"},{"length":46,"position":112032,"velocity":0.8661417322834646,"pitch":70,"id":"2ab4673c-fd0a-4d72-bb4e-f18515ebc5af"},{"length":46,"position":112080,"velocity":0.8661417322834646,"pitch":58,"id":"334d2f42-c8fa-4ccd-b3a1-6a21e48499c5"},{"length":46,"position":112080,"velocity":0.8661417322834646,"pitch":65,"id":"9589469c-57c8-4099-ae57-3d2e732c6ecd"},{"length":46,"position":112080,"velocity":0.8661417322834646,"pitch":70,"id":"63c19e8a-215d-4758-8f91-ba9a01b39eea"},{"length":160,"position":112128,"velocity":0.8661417322834646,"pitch":50,"id":"7e1b0d1c-bb99-4c26-8d8b-5de2543eada3"},{"length":160,"position":112128,"velocity":0.8661417322834646,"pitch":57,"id":"0581f545-cb62-41bc-8eca-cc93fdcf7cd5"},{"length":160,"position":112128,"velocity":0.8661417322834646,"pitch":62,"id":"5aa2ed41-49cb-40e5-b7b1-e5cb55ea292f"},{"length":160,"position":112320,"velocity":0.8661417322834646,"pitch":50,"id":"81872fff-b52d-4c54-864a-0d9e1bb17b15"},{"length":160,"position":112320,"velocity":0.8661417322834646,"pitch":57,"id":"110fecbc-7ee2-4e7e-87bd-f847a83f7c02"},{"length":160,"position":112320,"velocity":0.8661417322834646,"pitch":62,"id":"ae9b9992-9b25-471b-87c5-e30d4d4770e1"},{"length":94,"position":112608,"velocity":0.8661417322834646,"pitch":50,"id":"bb412ace-ceec-4b2f-b528-2742a82edeb9"},{"length":94,"position":112608,"velocity":0.8661417322834646,"pitch":57,"id":"28fd5058-d77f-498a-b318-be5e153f52da"},{"length":94,"position":112608,"velocity":0.8661417322834646,"pitch":62,"id":"a0f30ccf-c791-406a-91ec-ebfa8647ae7a"},{"length":46,"position":112704,"velocity":0.8661417322834646,"pitch":50,"id":"fee6f416-a899-41fa-8847-7d2d6e9bf5ef"},{"length":46,"position":112704,"velocity":0.8661417322834646,"pitch":57,"id":"17cce6a2-23be-4ebb-a408-dccd23c71ae7"},{"length":46,"position":112704,"velocity":0.8661417322834646,"pitch":62,"id":"836c36d9-45c4-4420-83c1-096bfdb246e0"},{"length":46,"position":112752,"velocity":0.8661417322834646,"pitch":50,"id":"4ccf1309-1919-48d9-99e7-5894177ddbf9"},{"length":46,"position":112752,"velocity":0.8661417322834646,"pitch":57,"id":"177c72cc-5bf6-4c30-b237-bd77b12977b9"},{"length":46,"position":112752,"velocity":0.8661417322834646,"pitch":62,"id":"302c559f-3907-480f-8115-7c93e5cb9866"},{"length":46,"position":112800,"velocity":0.8661417322834646,"pitch":50,"id":"41c6a6f5-3b3e-49dc-8eb0-7b4e79d78995"},{"length":46,"position":112800,"velocity":0.8661417322834646,"pitch":57,"id":"83792ae3-6756-41c6-bcbf-376b6dc769f8"},{"length":46,"position":112800,"velocity":0.8661417322834646,"pitch":62,"id":"4ab80aab-5475-4f23-90a6-ae5e1e0ca63f"},{"length":46,"position":112848,"velocity":0.8661417322834646,"pitch":50,"id":"373c8502-e643-4d25-987a-85ff8b0cde4e"},{"length":46,"position":112848,"velocity":0.8661417322834646,"pitch":57,"id":"d7a36e7c-4fc6-46ba-8bc8-36d2946a8fad"},{"length":46,"position":112848,"velocity":0.8661417322834646,"pitch":62,"id":"106972b9-5b6b-4d6e-a0e3-1581d2a55305"},{"length":160,"position":112896,"velocity":0.8661417322834646,"pitch":52,"id":"4d718403-70da-47f8-b8e0-ac5618eff1d6"},{"length":160,"position":112896,"velocity":0.8661417322834646,"pitch":59,"id":"b50ab1fe-9524-45f3-8745-77ffdba43556"},{"length":160,"position":112896,"velocity":0.8661417322834646,"pitch":64,"id":"a633a8df-4847-482d-a731-c9ba30129a02"},{"length":160,"position":113088,"velocity":0.8661417322834646,"pitch":52,"id":"99717b62-8d75-4aec-b473-a2de889e21a6"},{"length":160,"position":113088,"velocity":0.8661417322834646,"pitch":59,"id":"3d04c453-4014-4ef7-a995-cb2ea0cde064"},{"length":160,"position":113088,"velocity":0.8661417322834646,"pitch":64,"id":"67be5c51-0a7f-4b14-b285-b8283155ac3f"},{"length":94,"position":113376,"velocity":0.8661417322834646,"pitch":52,"id":"5c834093-234e-468b-9369-af2a2d150c2d"},{"length":94,"position":113376,"velocity":0.8661417322834646,"pitch":59,"id":"efbfe1a7-3f04-447f-8af1-72a87f053125"},{"length":94,"position":113376,"velocity":0.8661417322834646,"pitch":64,"id":"f83db237-5446-4e2a-878e-e3950b92da01"},{"length":46,"position":113472,"velocity":0.8661417322834646,"pitch":52,"id":"ff25cf6e-846b-4c7a-9c3f-093ad5df1e76"},{"length":46,"position":113472,"velocity":0.8661417322834646,"pitch":59,"id":"548e0802-5fe8-4ba0-be6d-9dc4a7688cf5"},{"length":46,"position":113472,"velocity":0.8661417322834646,"pitch":64,"id":"ba5a4f0e-d53c-4525-b984-2df135edc6d1"},{"length":46,"position":113520,"velocity":0.8661417322834646,"pitch":52,"id":"3cf0b1f3-bc72-49ab-90b5-7e5c9f61908b"},{"length":46,"position":113520,"velocity":0.8661417322834646,"pitch":59,"id":"435b4d39-fba7-48a2-9129-994f2e4b6506"},{"length":46,"position":113520,"velocity":0.8661417322834646,"pitch":64,"id":"3271d791-e69d-40b8-8e66-8fd7ccfae9c6"},{"length":46,"position":113568,"velocity":0.8661417322834646,"pitch":52,"id":"ba07db47-03af-402f-914a-0b0ccf9bd210"},{"length":46,"position":113568,"velocity":0.8661417322834646,"pitch":59,"id":"55784262-657a-4ada-b792-871a3c548f1e"},{"length":46,"position":113568,"velocity":0.8661417322834646,"pitch":64,"id":"229fe3dd-411a-4569-a6c4-41451511bec6"},{"length":46,"position":113616,"velocity":0.8661417322834646,"pitch":52,"id":"2c35bb96-4729-4aff-a036-3f95d6f5f12a"},{"length":46,"position":113616,"velocity":0.8661417322834646,"pitch":59,"id":"7bd0c86f-d123-497d-ac21-d369654fab09"},{"length":46,"position":113616,"velocity":0.8661417322834646,"pitch":64,"id":"2d4f1dbb-1a5a-42c2-95c9-c9c0d71dac54"},{"length":160,"position":113664,"velocity":0.8661417322834646,"pitch":53,"id":"2a09abd2-8768-4f06-809f-5ed32e8c96d8"},{"length":160,"position":113664,"velocity":0.8661417322834646,"pitch":60,"id":"189affec-6d21-4add-b76e-8d94dd84693d"},{"length":160,"position":113664,"velocity":0.8661417322834646,"pitch":65,"id":"43797a92-567b-4cdd-a333-afefe1bd25a7"},{"length":160,"position":113856,"velocity":0.8661417322834646,"pitch":53,"id":"f585021f-a7db-4da7-af77-e9e8536411c3"},{"length":160,"position":113856,"velocity":0.8661417322834646,"pitch":60,"id":"1a84fed0-ee07-4799-a695-6ad016255070"},{"length":160,"position":113856,"velocity":0.8661417322834646,"pitch":65,"id":"182a804e-8136-4d77-8683-1d290c5fbc29"},{"length":94,"position":114144,"velocity":0.8661417322834646,"pitch":53,"id":"1ecbbcfe-e915-4d64-a3c3-8938bf103df5"},{"length":94,"position":114144,"velocity":0.8661417322834646,"pitch":60,"id":"0fffa1f4-052a-4ed9-b6d9-3c2b106223e3"},{"length":94,"position":114144,"velocity":0.8661417322834646,"pitch":65,"id":"9807c657-ec01-4863-bb0c-e5c741c73229"},{"length":46,"position":114240,"velocity":0.8661417322834646,"pitch":53,"id":"fa55b734-69a7-4f83-8d69-039f293bcd1e"},{"length":46,"position":114240,"velocity":0.8661417322834646,"pitch":60,"id":"0f1761df-3c5d-4933-a382-209d996871b6"},{"length":46,"position":114240,"velocity":0.8661417322834646,"pitch":65,"id":"efa567c0-4f9e-4ca9-aa8e-904926f871ea"},{"length":46,"position":114288,"velocity":0.8661417322834646,"pitch":53,"id":"029235d3-fc52-477c-942b-b027270c6db0"},{"length":46,"position":114288,"velocity":0.8661417322834646,"pitch":60,"id":"e2ac2906-6486-4d59-a0f2-402e2a26aabb"},{"length":46,"position":114288,"velocity":0.8661417322834646,"pitch":65,"id":"118c0ee2-2266-49f9-8d02-6c5f7518598f"},{"length":46,"position":114336,"velocity":0.8661417322834646,"pitch":53,"id":"0434f44b-7c92-4776-ba23-396d42f6c31b"},{"length":46,"position":114336,"velocity":0.8661417322834646,"pitch":60,"id":"070114b9-2fa5-4190-a20e-97e9baca5a67"},{"length":46,"position":114336,"velocity":0.8661417322834646,"pitch":65,"id":"80dd8176-acbe-42af-9805-a541c82a9e21"},{"length":46,"position":114384,"velocity":0.8661417322834646,"pitch":53,"id":"f0088df4-86e1-4523-b392-ad375d970743"},{"length":46,"position":114384,"velocity":0.8661417322834646,"pitch":60,"id":"a674c849-213a-453d-988f-620f60d0d628"},{"length":46,"position":114384,"velocity":0.8661417322834646,"pitch":65,"id":"6d540b22-dfd7-484c-bf68-1e11ba520ec9"},{"length":160,"position":114432,"velocity":0.8661417322834646,"pitch":55,"id":"b1304447-63ef-493d-a5b1-08a790e0dad0"},{"length":160,"position":114432,"velocity":0.8661417322834646,"pitch":62,"id":"a353270b-3c55-41a1-adbe-b0ec079d9ef9"},{"length":160,"position":114432,"velocity":0.8661417322834646,"pitch":67,"id":"d7f858e2-b76b-4a70-b5ca-bf4e2d605c67"},{"length":160,"position":114624,"velocity":0.8661417322834646,"pitch":55,"id":"026bb072-5cc9-46bd-94c3-841d2a9ac702"},{"length":160,"position":114624,"velocity":0.8661417322834646,"pitch":62,"id":"4b6c0458-725b-4cfb-8581-bb9687e1e07d"},{"length":160,"position":114624,"velocity":0.8661417322834646,"pitch":67,"id":"47fc15d4-d013-49f9-81fb-0a43c4e1d90e"},{"length":94,"position":114912,"velocity":0.8661417322834646,"pitch":55,"id":"95040ebc-2cb6-4cea-9837-42842c646471"},{"length":94,"position":114912,"velocity":0.8661417322834646,"pitch":62,"id":"874d3654-d679-4b6b-b813-f362bfe9a498"},{"length":94,"position":114912,"velocity":0.8661417322834646,"pitch":67,"id":"7e4c4d8d-4126-4bc5-84b7-b3f377ff1d39"},{"length":46,"position":115008,"velocity":0.8661417322834646,"pitch":55,"id":"4ea6b046-3912-45db-ac8f-e674a5535f42"},{"length":46,"position":115008,"velocity":0.8661417322834646,"pitch":62,"id":"fe9fc0a5-34c7-4939-8243-56b586769f09"},{"length":46,"position":115008,"velocity":0.8661417322834646,"pitch":67,"id":"1f59565f-bd3f-483a-9efd-15148293f937"},{"length":46,"position":115056,"velocity":0.8661417322834646,"pitch":55,"id":"580aed96-cfdc-481e-a332-fd44ee5600a3"},{"length":46,"position":115056,"velocity":0.8661417322834646,"pitch":62,"id":"da62ce1b-11e0-49ca-9985-d8c1e7c8c90c"},{"length":46,"position":115056,"velocity":0.8661417322834646,"pitch":67,"id":"5bcd3d9d-bb4a-400a-96a7-f73a16eb83b3"},{"length":46,"position":115104,"velocity":0.8661417322834646,"pitch":55,"id":"6f76cac9-cb9d-4b65-b70b-d1bae9b58429"},{"length":46,"position":115104,"velocity":0.8661417322834646,"pitch":62,"id":"a2c23859-f721-4a95-bdb2-27c05adde2b4"},{"length":46,"position":115104,"velocity":0.8661417322834646,"pitch":67,"id":"03c1ab7d-32f9-432c-85d3-f073da977553"},{"length":46,"position":115152,"velocity":0.8661417322834646,"pitch":55,"id":"d134720e-aa37-4ee1-81ad-e9c4e3d995eb"},{"length":46,"position":115152,"velocity":0.8661417322834646,"pitch":62,"id":"862ec104-8717-4a45-9efe-7dac2ce892d8"},{"length":46,"position":115152,"velocity":0.8661417322834646,"pitch":67,"id":"46927f9f-205d-4387-848a-bc5e0718c59d"},{"length":94,"position":125952,"velocity":0.8661417322834646,"pitch":33,"id":"961e1b7f-0a1e-4b27-ab62-845e56f4b7a4"},{"length":94,"position":126048,"velocity":0.8661417322834646,"pitch":38,"id":"f8ce0af4-10f6-4e10-a943-3bf0347e1b51"},{"length":94,"position":126144,"velocity":0.8661417322834646,"pitch":45,"id":"9c069008-6ca2-468d-b51d-e111b6b59291"},{"length":432,"position":126240,"velocity":0.8661417322834646,"pitch":44,"id":"be83f898-b82c-482c-b4e2-907da6522721"},{"length":94,"position":126720,"velocity":0.8661417322834646,"pitch":33,"id":"ff4b7a38-448b-4b70-9496-3bc03a5f6d56"},{"length":94,"position":126816,"velocity":0.8661417322834646,"pitch":38,"id":"ceb2ca66-2de6-4aaf-910a-2392dc91b544"},{"length":94,"position":126912,"velocity":0.8661417322834646,"pitch":43,"id":"532b8224-2612-4679-8e80-4dacc4a096fb"},{"length":432,"position":127008,"velocity":0.8661417322834646,"pitch":41,"id":"7f23c884-65d2-4102-a58d-e215bf715a09"},{"length":94,"position":127488,"velocity":0.8661417322834646,"pitch":33,"id":"3f0b7f1a-07af-4c3c-b3ab-4a43a62a7270"},{"length":94,"position":127584,"velocity":0.8661417322834646,"pitch":38,"id":"8eb2b8bd-b7b6-45c3-a301-f7eeedff0049"},{"length":94,"position":127680,"velocity":0.8661417322834646,"pitch":45,"id":"ee9a27a3-9622-4975-aa87-32258cf65eed"},{"length":190,"position":127776,"velocity":0.8661417322834646,"pitch":44,"id":"98bfae24-3069-4a25-ae97-3644ee6ddb6b"},{"length":190,"position":127968,"velocity":0.8661417322834646,"pitch":43,"id":"ad795389-5d3c-4dc8-b46c-10d958a99b85"},{"length":190,"position":128160,"velocity":0.8661417322834646,"pitch":41,"id":"ee0648d1-5277-44af-a958-a3b0560bde01"},{"length":624,"position":128352,"velocity":0.8661417322834646,"pitch":38,"id":"3cd9c546-4edd-42f9-870f-1d267d1736af"},{"length":94,"position":129024,"velocity":0.8661417322834646,"pitch":33,"id":"e7c930d1-4534-43c8-961b-3af6f2cc6c6b"},{"length":94,"position":129120,"velocity":0.8661417322834646,"pitch":38,"id":"f32360b1-fa4a-4e22-aec4-f5a2dc047bc4"},{"length":94,"position":129216,"velocity":0.8661417322834646,"pitch":45,"id":"6a4d1870-be51-4d64-bae6-ebe09e608c86"},{"length":432,"position":129312,"velocity":0.8661417322834646,"pitch":44,"id":"40a5e89d-e665-404a-aed7-f00a0407bfc3"},{"length":94,"position":129792,"velocity":0.8661417322834646,"pitch":33,"id":"c4cb6ab0-26d7-41ea-9199-054008ca75c7"},{"length":94,"position":129888,"velocity":0.8661417322834646,"pitch":38,"id":"bebfcacd-c950-4a9e-aba4-8b82a4b54876"},{"length":94,"position":129984,"velocity":0.8661417322834646,"pitch":43,"id":"458f92cf-943b-44bc-84d4-9476c3e65897"},{"length":432,"position":130080,"velocity":0.8661417322834646,"pitch":41,"id":"b2c81acf-d76d-4079-84ff-d1affe6142be"},{"length":94,"position":130560,"velocity":0.8661417322834646,"pitch":33,"id":"833971c1-48e0-4d2e-9fbe-c8359e14f0c8"},{"length":94,"position":130656,"velocity":0.8661417322834646,"pitch":38,"id":"85c4114e-b7ae-47f0-9e45-4dc3f1d97a18"},{"length":94,"position":130752,"velocity":0.8661417322834646,"pitch":45,"id":"dfd6784f-bd8f-4280-a3cf-aaa25609d44c"},{"length":190,"position":130848,"velocity":0.8661417322834646,"pitch":44,"id":"42241d1c-e7d6-485a-8b65-5823a64cd865"},{"length":190,"position":131040,"velocity":0.8661417322834646,"pitch":43,"id":"b8c4c292-67c4-4a4d-8ee2-fc2e988878f8"},{"length":190,"position":131232,"velocity":0.8661417322834646,"pitch":41,"id":"2defe9f5-66b9-4909-862b-fd5b003947c1"},{"length":624,"position":131424,"velocity":0.8661417322834646,"pitch":38,"id":"4e069a5a-d258-43d1-8441-67662617f7ac"},{"length":94,"position":132096,"velocity":0.8661417322834646,"pitch":33,"id":"6dbf5360-e871-4071-8888-1e3d1fadd5dc"},{"length":94,"position":132192,"velocity":0.8661417322834646,"pitch":38,"id":"37b6a07c-7d41-43cc-8db8-4670f4dc4179"},{"length":94,"position":132288,"velocity":0.8661417322834646,"pitch":45,"id":"292427a2-299e-44fc-92cc-8475dea84786"},{"length":432,"position":132384,"velocity":0.8661417322834646,"pitch":44,"id":"95b931ec-70db-4798-9695-211e1d2fdaca"},{"length":94,"position":132864,"velocity":0.8661417322834646,"pitch":33,"id":"2bd3c75d-f60d-47e9-a510-942d48145482"},{"length":94,"position":132960,"velocity":0.8661417322834646,"pitch":38,"id":"283e5536-b1ae-452a-aafa-d553653c7513"},{"length":94,"position":133056,"velocity":0.8661417322834646,"pitch":43,"id":"68ff8493-ff72-46d8-bac3-67f3ddffaf7d"},{"length":432,"position":133152,"velocity":0.8661417322834646,"pitch":41,"id":"2e003f75-6551-492c-a5e0-25f49147f9dc"},{"length":94,"position":133632,"velocity":0.8661417322834646,"pitch":33,"id":"7aac365d-0dc8-4556-9a2d-c9f9299e6427"},{"length":94,"position":133728,"velocity":0.8661417322834646,"pitch":38,"id":"16c59f14-cf46-4e1a-b1ad-d19b40b827b0"},{"length":94,"position":133824,"velocity":0.8661417322834646,"pitch":45,"id":"80eb03f3-739d-4fd7-9803-5835cd90931d"},{"length":190,"position":133920,"velocity":0.8661417322834646,"pitch":44,"id":"880ffa7c-8650-4106-adee-65fb54a3cea5"},{"length":190,"position":134112,"velocity":0.8661417322834646,"pitch":43,"id":"7f8f904b-6119-4b01-909f-73426c2cf28a"},{"length":190,"position":134304,"velocity":0.8661417322834646,"pitch":41,"id":"15107576-e8e7-4066-b02d-cb2d50cca83e"},{"length":624,"position":134496,"velocity":0.8661417322834646,"pitch":38,"id":"5f456bdc-76dc-4633-8922-8ab31fb25544"},{"length":94,"position":135168,"velocity":0.8661417322834646,"pitch":38,"id":"05c73530-b060-479d-82aa-9dc70fef6db2"},{"length":94,"position":135264,"velocity":0.8661417322834646,"pitch":33,"id":"0925f7d2-d1a1-4622-b083-7068678653dd"},{"length":94,"position":135360,"velocity":0.8661417322834646,"pitch":38,"id":"6027a139-44b8-4833-826c-6297c7ff0f25"},{"length":432,"position":135456,"velocity":0.8661417322834646,"pitch":37,"id":"c08d90ab-0517-49c5-9cdd-8cacfc929828"},{"length":94,"position":135936,"velocity":0.8661417322834646,"pitch":36,"id":"0005918d-1deb-4d87-8cde-9e8c1687f8f0"},{"length":94,"position":136032,"velocity":0.8661417322834646,"pitch":33,"id":"9441dd4a-f660-45b0-a519-5b789eaee2a5"},{"length":94,"position":136128,"velocity":0.8661417322834646,"pitch":36,"id":"8e54346b-c5e6-41d1-a597-541002a5a3bf"},{"length":432,"position":136224,"velocity":0.8661417322834646,"pitch":35,"id":"06a2300b-5b19-41e0-ae90-e1e2736ebf90"},{"length":94,"position":136704,"velocity":0.8661417322834646,"pitch":38,"id":"cde3cbed-8e2b-412b-a113-e026eae0aa21"},{"length":94,"position":136800,"velocity":0.8661417322834646,"pitch":33,"id":"d4a0f9c2-adf2-4729-a9bb-9f1b08e9eba6"},{"length":94,"position":136896,"velocity":0.8661417322834646,"pitch":38,"id":"88039aa6-276e-4f5f-be8b-e3e5c7336e5f"},{"length":432,"position":136992,"velocity":0.8661417322834646,"pitch":37,"id":"8c9be5b1-e7e8-4349-8882-952f3c87e044"},{"length":94,"position":137472,"velocity":0.8661417322834646,"pitch":36,"id":"4b8a4c73-7cd5-4960-bfb9-0722b8e6a982"},{"length":94,"position":137568,"velocity":0.8661417322834646,"pitch":33,"id":"30499e51-4aeb-485b-be90-646aa5848cc8"},{"length":94,"position":137664,"velocity":0.8661417322834646,"pitch":36,"id":"ee44798c-86c3-4573-9883-75b5a44c1a49"},{"length":432,"position":137760,"velocity":0.8661417322834646,"pitch":35,"id":"e80c86e0-7200-4833-9aa2-33991a2ae98c"},{"length":94,"position":138240,"velocity":0.8661417322834646,"pitch":38,"id":"84ee7a20-2696-4014-a6b5-ddd9a917c7d4"},{"length":94,"position":138336,"velocity":0.8661417322834646,"pitch":33,"id":"d7f022ea-ec35-4cc3-9306-2f218cd9ca89"},{"length":94,"position":138432,"velocity":0.8661417322834646,"pitch":38,"id":"0838f533-4988-406d-9c5e-638065c07868"},{"length":190,"position":138528,"velocity":0.8661417322834646,"pitch":37,"id":"dfb57ccc-b47b-4565-8bb4-593431484370"},{"length":256,"position":138720,"velocity":0.8661417322834646,"pitch":40,"id":"be32bc2e-c01e-4037-9361-39569653a265"},{"length":94,"position":139008,"velocity":0.8661417322834646,"pitch":38,"id":"e138ccd2-0fd1-42ec-bc11-803a6802b123"},{"length":94,"position":139104,"velocity":0.8661417322834646,"pitch":33,"id":"e88aeb40-27d6-4635-b403-d4c8932388ec"},{"length":94,"position":139200,"velocity":0.8661417322834646,"pitch":38,"id":"6b6456c2-52cb-41e7-8dbf-e3fb1f2d369e"},{"length":432,"position":139296,"velocity":0.8661417322834646,"pitch":37,"id":"bdc5d723-cc91-4934-a882-102dbcd6b70c"},{"length":94,"position":139776,"velocity":0.8661417322834646,"pitch":38,"id":"3fb91de4-ceb2-4e5e-9339-4ef929377fdc"},{"length":94,"position":139872,"velocity":0.8661417322834646,"pitch":33,"id":"f8ce886b-a0ba-407a-84d2-8ddb20fe5cd7"},{"length":94,"position":139968,"velocity":0.8661417322834646,"pitch":38,"id":"7c21d8bb-5912-44b4-a9ca-8ad8f154dc23"},{"length":432,"position":140064,"velocity":0.8661417322834646,"pitch":37,"id":"12bf42df-8ac0-4f23-98c6-65bef5500476"},{"length":94,"position":140544,"velocity":0.8661417322834646,"pitch":36,"id":"5cd3ae0a-c5af-4007-bcf5-04ba3aeac175"},{"length":94,"position":140640,"velocity":0.8661417322834646,"pitch":33,"id":"4b3cbb99-8e55-47fa-9d62-0cb41de31d36"},{"length":94,"position":140736,"velocity":0.8661417322834646,"pitch":36,"id":"2c9a0b36-8ec7-417c-93c7-46f40e065ac4"},{"length":432,"position":140832,"velocity":0.8661417322834646,"pitch":35,"id":"3041c4a7-0c37-4bed-a255-43f06c7a8603"},{"length":94,"position":141312,"velocity":0.8661417322834646,"pitch":26,"id":"3029ad53-1419-4d61-b006-60b307e18ab1"},{"length":94,"position":141408,"velocity":0.8661417322834646,"pitch":33,"id":"575aa1e0-e9be-4a2d-aa15-381e83274bcb"},{"length":94,"position":141504,"velocity":0.8661417322834646,"pitch":38,"id":"49e28081-dcc4-451b-8a11-25b9cf26e5a5"},{"length":94,"position":141600,"velocity":0.8661417322834646,"pitch":26,"id":"2c8aa8a7-b062-4bf4-94e5-a4b9e1fc0c64"},{"length":94,"position":141696,"velocity":0.8661417322834646,"pitch":33,"id":"3337b093-c25c-4e10-8887-a36d3e4e257c"},{"length":94,"position":141792,"velocity":0.8661417322834646,"pitch":37,"id":"fd937819-c1bd-4ccb-a012-e44559952197"},{"length":94,"position":141888,"velocity":0.8661417322834646,"pitch":26,"id":"ef272487-42b8-4faa-823b-b4bbfb6ac8e8"},{"length":94,"position":141984,"velocity":0.8661417322834646,"pitch":33,"id":"c84e1a6a-c311-446e-82d4-c0e7b35de456"},{"length":94,"position":142080,"velocity":0.8661417322834646,"pitch":36,"id":"16d5ad28-5bc2-413c-9078-a102466b1aa8"},{"length":94,"position":142176,"velocity":0.8661417322834646,"pitch":26,"id":"ea771ff1-dc81-4c3b-b3b9-43992e79e61d"},{"length":94,"position":142272,"velocity":0.8661417322834646,"pitch":29,"id":"6752b519-e61b-4c26-b27c-67a80b3f141e"},{"length":94,"position":142368,"velocity":0.8661417322834646,"pitch":36,"id":"b40c60b3-134c-4d38-8f3c-2531466828a2"},{"length":94,"position":142464,"velocity":0.8661417322834646,"pitch":35,"id":"c2cb5d9b-96c7-4c02-af95-dbab368007c4"},{"length":256,"position":142560,"velocity":0.8661417322834646,"pitch":31,"id":"d7583898-2653-466a-9b4d-dd8d688ff6a5"},{"length":94,"position":142848,"velocity":0.8661417322834646,"pitch":26,"id":"06d943e8-df26-45e1-8b6f-8dbf84e543e5"},{"length":94,"position":142944,"velocity":0.8661417322834646,"pitch":33,"id":"90bb8db3-f41d-4bc1-9e33-cc2d0f80c926"},{"length":94,"position":143040,"velocity":0.8661417322834646,"pitch":38,"id":"b920c60a-3818-423d-a867-0351ce586397"},{"length":94,"position":143136,"velocity":0.8661417322834646,"pitch":26,"id":"55a4f49d-1eb9-4dea-8034-6e516d893303"},{"length":94,"position":143232,"velocity":0.8661417322834646,"pitch":33,"id":"d61a731d-e38a-418d-89dc-ab4f1887b731"},{"length":94,"position":143328,"velocity":0.8661417322834646,"pitch":37,"id":"8eed717f-9a5e-428b-9455-5c4b012fdd05"},{"length":94,"position":143424,"velocity":0.8661417322834646,"pitch":26,"id":"94afc5de-506a-48a6-9a1d-148db97463fa"},{"length":94,"position":143520,"velocity":0.8661417322834646,"pitch":33,"id":"a60d5309-989e-41a8-b4be-a113cb82a37e"},{"length":94,"position":143616,"velocity":0.8661417322834646,"pitch":36,"id":"4be510a0-13db-497b-ac3e-64b726ef9160"},{"length":94,"position":143712,"velocity":0.8661417322834646,"pitch":26,"id":"d0c2ffe7-8691-4f30-84c0-d407a7e9643a"},{"length":94,"position":143808,"velocity":0.8661417322834646,"pitch":29,"id":"1023b9b9-015c-4990-ba3d-b7cbccdd528b"},{"length":94,"position":143904,"velocity":0.8661417322834646,"pitch":36,"id":"e3e46ccd-9c4d-4f23-af6f-d40d73ae2240"},{"length":94,"position":144000,"velocity":0.8661417322834646,"pitch":35,"id":"2a05c6ec-c384-42b0-9214-1e2b629abadd"},{"length":256,"position":144096,"velocity":0.8661417322834646,"pitch":31,"id":"d601451a-0120-4921-b315-ab724349a420"},{"length":160,"position":144384,"velocity":0.8661417322834646,"pitch":48,"id":"ea5f594a-f6ae-47cb-a21b-13efa0fa55e6"},{"length":160,"position":144768,"velocity":0.8661417322834646,"pitch":46,"id":"047380c1-e6ef-4e13-b17a-d0f367eefc49"},{"length":160,"position":144960,"velocity":0.8661417322834646,"pitch":43,"id":"ea3d5ca0-b26e-4740-b102-6e23a4fcc2f2"},{"length":160,"position":145152,"velocity":0.8661417322834646,"pitch":48,"id":"e844395b-eb47-46cf-92ac-4c3942a341cd"},{"length":160,"position":145536,"velocity":0.8661417322834646,"pitch":46,"id":"a643d5e4-6b5c-4cd6-8630-f98dc4556951"},{"length":160,"position":145728,"velocity":0.8661417322834646,"pitch":43,"id":"de6c5adb-7dd3-42a2-bedd-f931770a50cb"},{"length":160,"position":145920,"velocity":0.8661417322834646,"pitch":48,"id":"b8589f71-2d9b-4304-a488-d4c0835817de"},{"length":160,"position":146304,"velocity":0.8661417322834646,"pitch":46,"id":"e4c6a176-0d73-41d0-b214-e877d4124315"},{"length":160,"position":146496,"velocity":0.8661417322834646,"pitch":43,"id":"ce9e1ebc-b14b-476d-b2fc-343855e596c7"},{"length":160,"position":146688,"velocity":0.8661417322834646,"pitch":48,"id":"52cb726c-471d-449d-8ae8-401444091945"},{"length":160,"position":147072,"velocity":0.8661417322834646,"pitch":46,"id":"abcffd27-febb-4946-b31c-ef33d6409d7e"},{"length":160,"position":147264,"velocity":0.8661417322834646,"pitch":43,"id":"45977390-3e69-4d87-9a2e-89b2ed3667a8"},{"length":160,"position":147456,"velocity":0.8661417322834646,"pitch":48,"id":"349af2a6-2d54-4d65-be8b-9604da2d8f17"},{"length":160,"position":147840,"velocity":0.8661417322834646,"pitch":46,"id":"1fd0146d-6ac9-4cd5-be68-f687de3e058f"},{"length":160,"position":148032,"velocity":0.8661417322834646,"pitch":43,"id":"12bb3dd4-a150-4d23-bfd7-f2c0155fdaa1"},{"length":160,"position":148224,"velocity":0.8661417322834646,"pitch":48,"id":"ac8c7df5-32a9-45da-94fb-34bf32b4207a"},{"length":160,"position":148608,"velocity":0.8661417322834646,"pitch":46,"id":"e40c86bd-605c-4896-a7a8-b1e9f74ea648"},{"length":160,"position":148800,"velocity":0.8661417322834646,"pitch":43,"id":"bcc432d5-89a3-42b9-b83f-c2e03a6dac47"},{"length":160,"position":148992,"velocity":0.8661417322834646,"pitch":48,"id":"312e1012-46bc-4942-8b79-e85ad01c121e"},{"length":160,"position":149376,"velocity":0.8661417322834646,"pitch":46,"id":"d2c4294e-5ff3-4ec4-950f-ebbac49650b3"},{"length":160,"position":149568,"velocity":0.8661417322834646,"pitch":43,"id":"31c04d53-84e4-4f47-90bc-18810ff064a2"},{"length":160,"position":149760,"velocity":0.8661417322834646,"pitch":48,"id":"d44afe1c-e251-4b57-9380-4c506754b38a"},{"length":160,"position":150144,"velocity":0.8661417322834646,"pitch":46,"id":"665ddd50-1a2c-499b-9aa7-197f1d5c2fdb"},{"length":160,"position":150336,"velocity":0.8661417322834646,"pitch":43,"id":"01d027fb-e1f0-4db5-8547-cc20917bd58e"},{"length":160,"position":150528,"velocity":0.8661417322834646,"pitch":48,"id":"87001738-dd8e-4dda-9f0a-c423712d84b3"},{"length":160,"position":150912,"velocity":0.8661417322834646,"pitch":46,"id":"11f06e53-6c7a-466c-af47-2e05f91546be"},{"length":160,"position":151104,"velocity":0.8661417322834646,"pitch":43,"id":"31651a35-8432-4d9e-8470-64c0e7358f92"},{"length":160,"position":151296,"velocity":0.8661417322834646,"pitch":48,"id":"73263f08-8649-4bc3-a79f-019c157af426"},{"length":160,"position":151680,"velocity":0.8661417322834646,"pitch":46,"id":"e3510018-2603-4818-afd7-ce78cce52d9f"},{"length":160,"position":151872,"velocity":0.8661417322834646,"pitch":43,"id":"44829df6-a65c-4ea1-bc51-bcd793028f76"},{"length":160,"position":152064,"velocity":0.8661417322834646,"pitch":48,"id":"72609ad4-f490-4326-b211-3095dd202eb2"},{"length":160,"position":152448,"velocity":0.8661417322834646,"pitch":46,"id":"eb53a7d9-d321-417f-8dbe-c395767b0bc9"},{"length":160,"position":152640,"velocity":0.8661417322834646,"pitch":43,"id":"a156e596-126a-4a6a-9012-fe2cd007a5a0"},{"length":160,"position":152832,"velocity":0.8661417322834646,"pitch":48,"id":"e0ec8020-5b4e-432a-bb64-19baa13f23e2"},{"length":160,"position":153216,"velocity":0.8661417322834646,"pitch":46,"id":"3865cbf0-e4cd-4e12-8065-4a76aaf9ad3b"},{"length":160,"position":153408,"velocity":0.8661417322834646,"pitch":43,"id":"dd45742b-3a00-4c6c-9d42-8e74abb62c6c"},{"length":160,"position":153600,"velocity":0.8661417322834646,"pitch":48,"id":"a1a9afcc-90c7-444a-bbd7-aacc3f06e46d"},{"length":160,"position":153984,"velocity":0.8661417322834646,"pitch":46,"id":"4aaed1b1-01a6-42f1-bf19-9e7ac4059699"},{"length":160,"position":154176,"velocity":0.8661417322834646,"pitch":43,"id":"4bac7cb1-2dfa-43f5-8300-eab4ff040a2b"},{"length":160,"position":154368,"velocity":0.8661417322834646,"pitch":48,"id":"eb2a8813-ec46-408d-bf7d-4bf5253bf814"},{"length":160,"position":154752,"velocity":0.8661417322834646,"pitch":46,"id":"42071558-5c8b-4179-8360-6d92ab5e21d5"},{"length":160,"position":154944,"velocity":0.8661417322834646,"pitch":43,"id":"395b4a1e-1271-4db6-a984-fd42172a9e82"},{"length":160,"position":155136,"velocity":0.8661417322834646,"pitch":48,"id":"ba5e66a7-c71c-45b5-a002-7f7566f7bf98"},{"length":160,"position":155520,"velocity":0.8661417322834646,"pitch":46,"id":"b978fe62-2c7b-45c2-a0dc-7d6bc14d6902"},{"length":160,"position":155712,"velocity":0.8661417322834646,"pitch":43,"id":"04906811-a194-4db9-b4fd-b6a482b853a4"},{"length":160,"position":155904,"velocity":0.8661417322834646,"pitch":48,"id":"37214528-de84-47a4-956a-eaff35db69b5"},{"length":160,"position":156288,"velocity":0.8661417322834646,"pitch":46,"id":"7b02891f-e3c5-425f-bffe-d3cb64a728fb"},{"length":160,"position":156480,"velocity":0.8661417322834646,"pitch":43,"id":"b133afce-2b08-4eb5-9b5d-e10a7e80cae7"},{"length":160,"position":156672,"velocity":0.8661417322834646,"pitch":48,"id":"29c449fd-2d35-4583-8c2c-6b8eedc498f8"},{"length":160,"position":157056,"velocity":0.8661417322834646,"pitch":46,"id":"b6383b7c-22a0-4085-a287-7da247ff7f13"},{"length":160,"position":157248,"velocity":0.8661417322834646,"pitch":43,"id":"80222842-db98-4200-accd-717b5c271167"},{"length":160,"position":157440,"velocity":0.8661417322834646,"pitch":48,"id":"f9948b72-c336-4984-ae49-7788bd83eabd"},{"length":160,"position":157824,"velocity":0.8661417322834646,"pitch":46,"id":"e0ccdcf3-75da-48cd-8e88-59d081f7be98"},{"length":160,"position":158016,"velocity":0.8661417322834646,"pitch":43,"id":"ae27957c-3b4e-4c4d-8f04-3c4a71b17a90"},{"length":160,"position":158208,"velocity":0.8661417322834646,"pitch":41,"id":"d874613c-2b12-4c06-9120-7cce7277fec1"},{"length":160,"position":158592,"velocity":0.8661417322834646,"pitch":39,"id":"80c8fe6e-da5b-415c-84ac-0da68759d89c"},{"length":160,"position":158784,"velocity":0.8661417322834646,"pitch":43,"id":"76534434-ce2a-4ce1-9c64-6bc4ba7977cf"},{"length":160,"position":158976,"velocity":0.8661417322834646,"pitch":48,"id":"45810133-5d27-4db4-9eaf-60d7ee6261d7"},{"length":160,"position":159360,"velocity":0.8661417322834646,"pitch":46,"id":"79b87284-249b-4d18-aa48-cf7d458d246e"},{"length":160,"position":159552,"velocity":0.8661417322834646,"pitch":43,"id":"2cc7ef5b-7a67-4512-a137-312716af0513"},{"length":160,"position":159744,"velocity":0.8661417322834646,"pitch":41,"id":"297486c4-125c-4cf8-b745-c4d3ad52daaf"},{"length":160,"position":160128,"velocity":0.8661417322834646,"pitch":39,"id":"113686d0-bba9-411c-a933-11e22b206cc2"},{"length":160,"position":160320,"velocity":0.8661417322834646,"pitch":43,"id":"a2ad1cf3-9c86-40ed-8291-9141ab8de6f2"},{"length":160,"position":160512,"velocity":0.8661417322834646,"pitch":48,"id":"1199f080-fb74-459e-8381-f32765fa030d"},{"length":160,"position":160896,"velocity":0.8661417322834646,"pitch":46,"id":"1b768d69-67f0-4cce-97da-8290475fa0c8"},{"length":160,"position":161088,"velocity":0.8661417322834646,"pitch":43,"id":"5e872182-c53a-48cc-9af7-1f3ddd620f43"},{"length":160,"position":161280,"velocity":0.8661417322834646,"pitch":48,"id":"87931a8e-a5c5-4ae0-a7ad-31b67a0af798"},{"length":160,"position":161664,"velocity":0.8661417322834646,"pitch":46,"id":"94784e94-1aea-4a36-a47b-7d21d4c651e1"},{"length":160,"position":161856,"velocity":0.8661417322834646,"pitch":43,"id":"6c7ce337-677a-46d5-a76e-92a93bc4a79c"},{"length":160,"position":162048,"velocity":0.8661417322834646,"pitch":41,"id":"2860e27f-e220-4328-9332-d7ab128656e5"},{"length":160,"position":162432,"velocity":0.8661417322834646,"pitch":39,"id":"a66a5437-c99e-44e0-b39a-ae085f2ec112"},{"length":160,"position":162624,"velocity":0.8661417322834646,"pitch":43,"id":"4fe62e6d-9a96-49b3-af24-411ba48818f4"},{"length":160,"position":162816,"velocity":0.8661417322834646,"pitch":48,"id":"eb2813ed-498e-4915-804a-551ea3555447"},{"length":160,"position":163200,"velocity":0.8661417322834646,"pitch":46,"id":"bcf60a40-f4fb-4bea-8016-9daad409369e"},{"length":160,"position":163392,"velocity":0.8661417322834646,"pitch":43,"id":"38626723-c25a-4459-ad76-c35b79c93b7c"},{"length":160,"position":163584,"velocity":0.8661417322834646,"pitch":48,"id":"780739fe-c9b4-4fd9-ae78-1332c51267c5"},{"length":160,"position":163968,"velocity":0.8661417322834646,"pitch":46,"id":"d6376f83-6606-434c-a8aa-5c4c8e45ccb2"},{"length":160,"position":164160,"velocity":0.8661417322834646,"pitch":43,"id":"56d6ad83-c907-49e6-b21b-b6a654d90b06"},{"length":160,"position":164352,"velocity":0.8661417322834646,"pitch":48,"id":"fc3b3994-e979-45e0-9581-a3f085cc7dcc"},{"length":160,"position":164736,"velocity":0.8661417322834646,"pitch":46,"id":"36acc0d2-28cb-4f2d-9887-91ab12444864"},{"length":160,"position":164928,"velocity":0.8661417322834646,"pitch":43,"id":"83f8fb31-6cca-42ae-bfb3-a747ae9b1638"},{"length":160,"position":165120,"velocity":0.8661417322834646,"pitch":48,"id":"2cb6ca9c-fefa-4321-a401-7acb626ba8c1"},{"length":160,"position":165504,"velocity":0.8661417322834646,"pitch":46,"id":"e9f0fa4d-538f-4931-be92-74b08df85749"},{"length":160,"position":165696,"velocity":0.8661417322834646,"pitch":43,"id":"906cabb8-5d08-4651-9db3-49e7f2cffa89"},{"length":160,"position":165888,"velocity":0.8661417322834646,"pitch":48,"id":"f44dcaaf-39db-452a-9766-02a5e5c39c99"},{"length":160,"position":166272,"velocity":0.8661417322834646,"pitch":46,"id":"b10c774d-8c28-46bd-8c55-2160145a9e04"},{"length":160,"position":166464,"velocity":0.8661417322834646,"pitch":43,"id":"4ea0c889-0a5f-45b7-ad12-015ff5dc4146"},{"length":160,"position":166656,"velocity":0.8661417322834646,"pitch":48,"id":"dc8a000b-8f5c-42b4-ae19-2d4ff004810a"},{"length":160,"position":167040,"velocity":0.8661417322834646,"pitch":46,"id":"f24d2060-e551-4f3c-a4c9-23cbe049eb95"},{"length":160,"position":167232,"velocity":0.8661417322834646,"pitch":43,"id":"043022fc-14b1-4145-aeac-4c3e3c9b7f8b"},{"length":160,"position":167424,"velocity":0.8661417322834646,"pitch":41,"id":"b25cabff-fcd9-4af1-8736-6805dcb7bb76"},{"length":160,"position":167808,"velocity":0.8661417322834646,"pitch":39,"id":"ec393673-91c6-45e8-bc83-38de3d29f1d6"},{"length":160,"position":168000,"velocity":0.8661417322834646,"pitch":43,"id":"7ceedaf5-b413-4fa9-962a-3fdd4ed7e128"},{"length":160,"position":168192,"velocity":0.8661417322834646,"pitch":48,"id":"005a8201-bdb6-4885-96aa-c54f57081d58"},{"length":160,"position":168576,"velocity":0.8661417322834646,"pitch":46,"id":"f4d9b993-8ccb-4dbd-ba3d-e2bb2c06507c"},{"length":160,"position":168768,"velocity":0.8661417322834646,"pitch":43,"id":"850a12ed-5b8f-4f18-a77e-86be66e42b1f"},{"length":160,"position":168960,"velocity":0.8661417322834646,"pitch":41,"id":"5dd0f162-d128-4925-8cf2-7692ea07f787"},{"length":160,"position":169344,"velocity":0.8661417322834646,"pitch":39,"id":"17a5e972-6dfa-41f7-8c1d-af9992509f56"},{"length":160,"position":169536,"velocity":0.8661417322834646,"pitch":43,"id":"586fb33b-7aee-4077-85e4-38e79df510a2"},{"length":160,"position":169728,"velocity":0.8661417322834646,"pitch":48,"id":"8b8bad1c-9f99-48be-94f3-e50c13ce8f83"},{"length":160,"position":170112,"velocity":0.8661417322834646,"pitch":46,"id":"997681e8-a727-4fd1-bb57-ab45b70ad5cc"},{"length":160,"position":170304,"velocity":0.8661417322834646,"pitch":43,"id":"80b2d998-7a06-4e52-bc36-a3eaecd424ba"},{"length":160,"position":170496,"velocity":0.8661417322834646,"pitch":48,"id":"f5acf33e-6c44-47c1-91c7-9b1b99fb4ff2"},{"length":160,"position":170880,"velocity":0.8661417322834646,"pitch":46,"id":"1c701d1c-085c-4481-907b-81daefb097fb"},{"length":160,"position":171072,"velocity":0.8661417322834646,"pitch":43,"id":"34d61d3e-359c-4324-a1db-9390d5717942"},{"length":160,"position":171264,"velocity":0.8661417322834646,"pitch":41,"id":"473e939a-1f18-4ddf-91c9-344d87db238e"},{"length":160,"position":171648,"velocity":0.8661417322834646,"pitch":39,"id":"1ca3ec15-5206-488e-b5d2-00eda2c06a02"},{"length":160,"position":171840,"velocity":0.8661417322834646,"pitch":43,"id":"6f14f987-519b-413a-aea4-224ffa11d4a6"},{"length":160,"position":172032,"velocity":0.8661417322834646,"pitch":48,"id":"b991eeb7-289b-4a65-ada0-6cceca001c4b"},{"length":160,"position":172416,"velocity":0.8661417322834646,"pitch":46,"id":"6f1642d2-8090-4eb8-b13b-f8f4961af2c3"},{"length":160,"position":172608,"velocity":0.8661417322834646,"pitch":43,"id":"dc5125e1-bb62-42b4-977f-ef5b1d3c29f3"},{"length":160,"position":172800,"velocity":0.8661417322834646,"pitch":48,"id":"5840f491-ed45-4462-af6d-d0171e100f7b"},{"length":160,"position":173184,"velocity":0.8661417322834646,"pitch":46,"id":"faa78d32-34eb-426b-ba51-c0383c9d65ce"},{"length":160,"position":173376,"velocity":0.8661417322834646,"pitch":43,"id":"9bd586bc-f74a-4d92-84f1-4671ab164bce"},{"length":160,"position":173568,"velocity":0.8661417322834646,"pitch":52,"id":"929e6f42-c697-4458-9ae3-4544cc23d6d5"},{"length":160,"position":173568,"velocity":0.8661417322834646,"pitch":60,"id":"7c49815f-36b8-4271-9849-f897e250fd62"},{"length":94,"position":173856,"velocity":0.8661417322834646,"pitch":53,"id":"1ace25dc-62b1-45d9-a68b-ecfd43df59ee"},{"length":94,"position":173856,"velocity":0.8661417322834646,"pitch":60,"id":"c935d1f3-108a-4411-89b5-e492667ba3d8"},{"length":94,"position":174048,"velocity":0.8661417322834646,"pitch":52,"id":"a7ff9cc7-fb1a-471b-a82c-8ff5477e1bf9"},{"length":94,"position":174048,"velocity":0.8661417322834646,"pitch":60,"id":"7c2e0ca0-b9f6-4b32-a868-71213d588165"},{"length":94,"position":174240,"velocity":0.8661417322834646,"pitch":51,"id":"ee11f67c-578d-4d5c-bf6f-f49dee48f538"},{"length":94,"position":174240,"velocity":0.8661417322834646,"pitch":55,"id":"e91e2f28-7de9-4715-ab2c-e3efd0be3a8d"},{"length":94,"position":174336,"velocity":0.8661417322834646,"pitch":52,"id":"6c48846e-f45e-45d6-b655-df248c4d7fb7"},{"length":94,"position":174336,"velocity":0.8661417322834646,"pitch":60,"id":"be2f0930-ce44-4bc0-ac56-aa4094f34d00"},{"length":94,"position":174432,"velocity":0.8661417322834646,"pitch":55,"id":"5372b4a3-ec83-4f05-abf4-ea1bedde8eec"},{"length":94,"position":174432,"velocity":0.8661417322834646,"pitch":60,"id":"692f193e-c8f4-414b-b04e-96afc9a5a121"},{"length":160,"position":174528,"velocity":0.8661417322834646,"pitch":60,"id":"d0f2d763-54b5-4386-b9e8-033efeb73e8b"},{"length":160,"position":175104,"velocity":0.8661417322834646,"pitch":50,"id":"40d67399-4969-40d2-86f4-d4bffe25f70f"},{"length":160,"position":175104,"velocity":0.8661417322834646,"pitch":59,"id":"4bc8c671-e1df-492d-9b42-5b765c9b1b47"},{"length":94,"position":175392,"velocity":0.8661417322834646,"pitch":52,"id":"90774fe8-be3c-4158-942a-cf9b77f4545f"},{"length":94,"position":175392,"velocity":0.8661417322834646,"pitch":59,"id":"2d691960-43f2-4f92-9ca2-eb89fd7e4b13"},{"length":94,"position":175584,"velocity":0.8661417322834646,"pitch":50,"id":"127d4e48-2715-4577-bd7c-722a389e517d"},{"length":94,"position":175584,"velocity":0.8661417322834646,"pitch":59,"id":"07e2f0ea-edfa-4d5f-9561-e6e22ecc293e"},{"length":94,"position":175776,"velocity":0.8661417322834646,"pitch":49,"id":"4814cb3f-70c2-4553-94fa-96ffd87d8671"},{"length":94,"position":175776,"velocity":0.8661417322834646,"pitch":55,"id":"f975a506-d894-4fb6-a94b-4204e785f919"},{"length":94,"position":175872,"velocity":0.8661417322834646,"pitch":50,"id":"509b88f5-e4fc-49a7-8e60-aff56e4deded"},{"length":94,"position":175872,"velocity":0.8661417322834646,"pitch":59,"id":"33370e1a-63dd-433c-b5ca-abbda255c6cc"},{"length":94,"position":175968,"velocity":0.8661417322834646,"pitch":55,"id":"d3659498-a9cf-4744-ba2f-c7b179e7e00a"},{"length":94,"position":175968,"velocity":0.8661417322834646,"pitch":59,"id":"0dcc8c73-fb34-49d8-86f6-3042a847cc15"},{"length":160,"position":176064,"velocity":0.8661417322834646,"pitch":59,"id":"bff84ac7-bf12-4baa-b0fc-e670a450b957"},{"length":160,"position":176640,"velocity":0.8661417322834646,"pitch":48,"id":"1891b206-2e34-49ab-a703-77ce153675e1"},{"length":160,"position":176640,"velocity":0.8661417322834646,"pitch":57,"id":"bcddbcb8-8f9c-4686-8dd6-31ced55c598e"},{"length":94,"position":176928,"velocity":0.8661417322834646,"pitch":50,"id":"326d341b-f200-4036-ab36-1d90fe6cc061"},{"length":94,"position":176928,"velocity":0.8661417322834646,"pitch":57,"id":"cccaadc4-0c08-42f0-a9b3-db0fe6105f16"},{"length":94,"position":177120,"velocity":0.8661417322834646,"pitch":48,"id":"a12c5b69-71fc-486f-b6f0-5093e99d1255"},{"length":94,"position":177120,"velocity":0.8661417322834646,"pitch":57,"id":"6fc2fba7-140b-4460-8d6b-af0c6c51aa08"},{"length":94,"position":177312,"velocity":0.8661417322834646,"pitch":47,"id":"acc9b3f8-0ae7-4020-a049-4ea2d72a4327"},{"length":94,"position":177312,"velocity":0.8661417322834646,"pitch":52,"id":"8d549c4c-dfc4-4a92-a8c9-319234ff804a"},{"length":94,"position":177408,"velocity":0.8661417322834646,"pitch":48,"id":"f9e9b1c1-efad-41df-aeba-cd6637193b6d"},{"length":94,"position":177408,"velocity":0.8661417322834646,"pitch":57,"id":"e74c9b20-e5db-43eb-a69e-06c43d0eaa32"},{"length":94,"position":177504,"velocity":0.8661417322834646,"pitch":52,"id":"ef65a75e-7dff-4794-ad93-8b7d1ee7d798"},{"length":94,"position":177504,"velocity":0.8661417322834646,"pitch":57,"id":"6154d09c-00f3-43a3-84d3-a21f0450d3b1"},{"length":160,"position":177600,"velocity":0.8661417322834646,"pitch":57,"id":"387d8bea-3a15-4020-b12d-4762e944dba3"},{"length":94,"position":177888,"velocity":0.8661417322834646,"pitch":48,"id":"2fd99a7d-7f3b-4e4a-9c3d-18701d3cbd6a"},{"length":94,"position":177888,"velocity":0.8661417322834646,"pitch":57,"id":"cb8e7e81-ddb1-4ab6-ba7a-05d196d79b5e"},{"length":94,"position":177984,"velocity":0.8661417322834646,"pitch":50,"id":"baf6fb91-752c-4484-89bd-a5f564cd6076"},{"length":94,"position":177984,"velocity":0.8661417322834646,"pitch":59,"id":"48ceef28-6164-43b1-9ff1-e4414a345963"},{"length":94,"position":178080,"velocity":0.8661417322834646,"pitch":52,"id":"34215bb6-9484-487c-b77d-1cd7c9be3f3f"},{"length":94,"position":178080,"velocity":0.8661417322834646,"pitch":60,"id":"a1cad17e-122a-4737-b5fd-0c91067bb2f4"},{"length":94,"position":178176,"velocity":0.8661417322834646,"pitch":54,"id":"3e8f4778-ba53-42e3-9fc1-250a683c13ca"},{"length":94,"position":178176,"velocity":0.8661417322834646,"pitch":62,"id":"d31b5447-a3b1-480a-8696-eead5ec685e7"},{"length":94,"position":178272,"velocity":0.8661417322834646,"pitch":54,"id":"d2e48ff0-9543-4f94-8fa5-d24f67e0988b"},{"length":94,"position":178272,"velocity":0.8661417322834646,"pitch":60,"id":"9c7eea3b-0a91-4161-96b9-caabe121fb47"},{"length":94,"position":178368,"velocity":0.8661417322834646,"pitch":54,"id":"cf4363d6-8124-4606-b76d-2226349f3437"},{"length":94,"position":178368,"velocity":0.8661417322834646,"pitch":62,"id":"f8dfbbe9-17c1-4203-9ced-be45738b97fd"},{"length":190,"position":178464,"velocity":0.8661417322834646,"pitch":54,"id":"799c8f13-49fa-4fcc-8c3e-53ed32847123"},{"length":190,"position":178464,"velocity":0.8661417322834646,"pitch":60,"id":"b223006c-457d-46d7-a55d-6ca51524350e"},{"length":94,"position":178656,"velocity":0.8661417322834646,"pitch":50,"id":"46b5d2e3-67c7-434a-8407-fe695b9d0626"},{"length":94,"position":178656,"velocity":0.8661417322834646,"pitch":57,"id":"20a1daac-05f0-4d63-8191-b3ef0a7f729a"},{"length":94,"position":178752,"velocity":0.8661417322834646,"pitch":48,"id":"5f10b233-69be-4dc9-9892-22e742ed2896"},{"length":94,"position":178752,"velocity":0.8661417322834646,"pitch":54,"id":"0ee5bc64-b5df-4727-89b5-2f8ba9583598"},{"length":94,"position":178848,"velocity":0.8661417322834646,"pitch":45,"id":"d9aea6ba-9375-4b72-804d-80500d5aa449"},{"length":94,"position":178848,"velocity":0.8661417322834646,"pitch":50,"id":"090522aa-0187-4ee9-8dcc-57c2c8085c2c"},{"length":94,"position":178944,"velocity":0.8661417322834646,"pitch":45,"id":"92181d9e-e044-4876-8d3c-e536d43936d0"},{"length":94,"position":178944,"velocity":0.8661417322834646,"pitch":50,"id":"4676bcb2-1994-45b2-8b48-9122d26277b4"},{"length":94,"position":179040,"velocity":0.8661417322834646,"pitch":47,"id":"016d2e3a-4411-439d-8c51-1e8a35666071"},{"length":94,"position":179040,"velocity":0.8661417322834646,"pitch":52,"id":"64d1b926-50f5-4780-b7c1-3a3e205077c1"},{"length":94,"position":179136,"velocity":0.8661417322834646,"pitch":49,"id":"0cfe1a04-5d84-467b-9f68-6d24e00b9b40"},{"length":94,"position":179136,"velocity":0.8661417322834646,"pitch":53,"id":"be499364-d3ac-4f00-b1bf-8e8a9b4b09b7"},{"length":432,"position":179232,"velocity":0.8661417322834646,"pitch":50,"id":"ed6ca807-7e46-4597-9747-e5fdb9f6a371"},{"length":432,"position":179232,"velocity":0.8661417322834646,"pitch":54,"id":"17deeb98-54ae-4638-94a1-b93545c81d92"},{"length":160,"position":179904,"velocity":0.8661417322834646,"pitch":57,"id":"47f01d52-af5f-40d6-a6ce-c195b2cfc68a"},{"length":160,"position":180288,"velocity":0.8661417322834646,"pitch":57,"id":"262b0310-a91c-4267-aaac-a496b0052974"},{"length":160,"position":180672,"velocity":0.8661417322834646,"pitch":57,"id":"87c3c5db-bbf3-4677-bc52-82a469b9714b"},{"length":94,"position":180864,"velocity":0.8661417322834646,"pitch":59,"id":"1a9bac20-cb7f-4b59-83d1-cd0f4f40465e"},{"length":94,"position":180960,"velocity":0.8661417322834646,"pitch":59,"id":"479e5d00-6449-4737-9902-3ec02b32837a"},{"length":94,"position":181056,"velocity":0.8661417322834646,"pitch":60,"id":"e1ebeafe-90dc-4b1d-8ef0-b2ef96befeaf"},{"length":94,"position":181152,"velocity":0.8661417322834646,"pitch":60,"id":"d6722ff2-8372-4c72-b8ef-7f85a7007e39"},{"length":94,"position":181248,"velocity":0.8661417322834646,"pitch":57,"id":"6a89e8a2-8162-4cdf-97cd-5a6b6fa5d7c8"},{"length":94,"position":181344,"velocity":0.8661417322834646,"pitch":50,"id":"8d43e8af-3acc-4438-abdd-f8e51a1d2606"},{"length":94,"position":181344,"velocity":0.8661417322834646,"pitch":54,"id":"0d7c6ced-2e94-4ae1-b237-27587ce1e519"},{"length":94,"position":181344,"velocity":0.8661417322834646,"pitch":57,"id":"4d4bbe16-0746-4a11-bf37-c0d25b8d40ca"},{"length":94,"position":181440,"velocity":0.8661417322834646,"pitch":50,"id":"aed16787-d47f-4bc5-b0b0-168a017bdab0"},{"length":94,"position":181536,"velocity":0.8661417322834646,"pitch":50,"id":"28eb533b-31b4-47b5-a3b9-666eda13378b"},{"length":94,"position":181536,"velocity":0.8661417322834646,"pitch":54,"id":"6fcc7d36-5ff3-4d3e-97c1-228faee615ed"},{"length":94,"position":181536,"velocity":0.8661417322834646,"pitch":57,"id":"5a0da31f-91bf-4372-82c4-3f569ec13901"},{"length":160,"position":181632,"velocity":0.8661417322834646,"pitch":50,"id":"3240629a-8e8d-4206-8891-fe3fd7a6018a"},{"length":160,"position":181632,"velocity":0.8661417322834646,"pitch":54,"id":"a5f9ea92-0db8-43cf-b7f8-d562dcbb419c"},{"length":160,"position":181632,"velocity":0.8661417322834646,"pitch":57,"id":"95d41301-cf8a-44ac-b124-6a485b90f8fc"},{"length":94,"position":181824,"velocity":0.8661417322834646,"pitch":50,"id":"de704e8e-9154-4c55-8bed-2aff9055cbec"},{"length":94,"position":181920,"velocity":0.8661417322834646,"pitch":57,"id":"830c2b41-a36e-4f5f-a260-4a305dd265de"},{"length":94,"position":182016,"velocity":0.8661417322834646,"pitch":57,"id":"696e7ce5-70a2-417e-b187-7d1896c66fba"},{"length":94,"position":182112,"velocity":0.8661417322834646,"pitch":50,"id":"1bede77c-e08d-4739-9a3e-aa0794581b27"},{"length":94,"position":182112,"velocity":0.8661417322834646,"pitch":54,"id":"df66573d-2665-4a1c-8b87-39361ded6405"},{"length":94,"position":182112,"velocity":0.8661417322834646,"pitch":57,"id":"2d508bb8-dbfb-46d6-9131-7e5e5e4bdd1e"},{"length":94,"position":182208,"velocity":0.8661417322834646,"pitch":50,"id":"c1770492-6ba0-46f7-ab7e-1c10a31f0a0b"},{"length":94,"position":182304,"velocity":0.8661417322834646,"pitch":50,"id":"07730654-c713-44e5-9197-3b71f4d56f4a"},{"length":94,"position":182304,"velocity":0.8661417322834646,"pitch":54,"id":"e4309a04-01fc-4317-9161-9614a6c69935"},{"length":94,"position":182304,"velocity":0.8661417322834646,"pitch":57,"id":"9d17edfb-64ba-4609-925c-180f2cbab53e"},{"length":160,"position":182400,"velocity":0.8661417322834646,"pitch":50,"id":"799bbb26-09ef-42db-b9b1-082bcb0d383a"},{"length":160,"position":182400,"velocity":0.8661417322834646,"pitch":54,"id":"4f5fdc28-3a37-4416-b533-e9597acbc7ff"},{"length":160,"position":182400,"velocity":0.8661417322834646,"pitch":57,"id":"dee8a63c-0e9f-4e8e-8b67-3eb125928668"},{"length":94,"position":182592,"velocity":0.8661417322834646,"pitch":50,"id":"718a721a-67c7-442d-854b-f3bdb095c197"},{"length":94,"position":182592,"velocity":0.8661417322834646,"pitch":54,"id":"71674d0e-6772-420c-8266-d75fe5637486"},{"length":94,"position":182592,"velocity":0.8661417322834646,"pitch":57,"id":"f476f287-f731-451c-8bb2-2967cf0f0fb8"},{"length":94,"position":182688,"velocity":0.8661417322834646,"pitch":48,"id":"fd298eaa-6000-4019-bf7c-a7a9e534e432"},{"length":94,"position":182784,"velocity":0.8661417322834646,"pitch":43,"id":"243de3ba-5d31-4cd7-bc2b-c63a8a1be840"},{"length":94,"position":182880,"velocity":0.8661417322834646,"pitch":50,"id":"45526f3d-ff15-46f8-8642-b4f4632a1632"},{"length":94,"position":182880,"velocity":0.8661417322834646,"pitch":55,"id":"827ca0ee-95f0-4e4e-a5a2-131440e666cd"},{"length":94,"position":182880,"velocity":0.8661417322834646,"pitch":59,"id":"62b0178d-e68f-44bb-ac27-1a5cf630a989"},{"length":46,"position":182976,"velocity":0.8661417322834646,"pitch":38,"id":"88bff1f7-dbbd-43ba-af20-2e9bc5ed8be6"},{"length":142,"position":183024,"velocity":0.8661417322834646,"pitch":50,"id":"08c526a9-980f-4c2d-892c-360eb23d7447"},{"length":142,"position":183024,"velocity":0.8661417322834646,"pitch":55,"id":"f645fdad-e4f4-488a-9d42-05a5a808286b"},{"length":142,"position":183024,"velocity":0.8661417322834646,"pitch":59,"id":"43c93e02-6103-4dda-b99a-37dc30692ec1"},{"length":142,"position":183168,"velocity":0.8661417322834646,"pitch":43,"id":"9f48fa2b-6f93-4c10-9995-3ae552798886"},{"length":142,"position":183168,"velocity":0.8661417322834646,"pitch":50,"id":"02bd758c-8add-4b42-92a0-cc551113ac57"},{"length":142,"position":183168,"velocity":0.8661417322834646,"pitch":55,"id":"f1418382-f9ca-4961-890e-6d878078d97e"},{"length":142,"position":183168,"velocity":0.8661417322834646,"pitch":59,"id":"8172e159-8194-417b-935b-284740ec0b5f"},{"length":46,"position":183312,"velocity":0.8661417322834646,"pitch":50,"id":"d1361784-d205-47b0-8d07-ca2ca807f5dd"},{"length":46,"position":183312,"velocity":0.8661417322834646,"pitch":55,"id":"981f5719-da2f-47c9-b000-f23d59188fe2"},{"length":46,"position":183312,"velocity":0.8661417322834646,"pitch":59,"id":"75ab6f5d-2677-4337-b8bb-6e344e19d10e"},{"length":94,"position":183360,"velocity":0.8661417322834646,"pitch":38,"id":"7c0eae73-dff2-4356-a9d2-8b64e9eb5958"},{"length":94,"position":183456,"velocity":0.8661417322834646,"pitch":50,"id":"23e28e87-fbe2-4213-b9a4-03f5ee46a698"},{"length":94,"position":183456,"velocity":0.8661417322834646,"pitch":55,"id":"e48a1e8f-68db-41d0-a950-0b32d15da7fa"},{"length":94,"position":183456,"velocity":0.8661417322834646,"pitch":59,"id":"c60053aa-2de9-4886-9db8-894c47c0405d"},{"length":94,"position":183552,"velocity":0.8661417322834646,"pitch":44,"id":"75ed2db7-0ff0-4ace-a484-738de8594817"},{"length":94,"position":183648,"velocity":0.8661417322834646,"pitch":52,"id":"0a2a7aed-524d-46a9-9874-8f9d1e1a2ec3"},{"length":94,"position":183648,"velocity":0.8661417322834646,"pitch":56,"id":"8cb65a4a-70c6-417d-accb-72aeeb6496e2"},{"length":94,"position":183648,"velocity":0.8661417322834646,"pitch":59,"id":"ac36a8a6-1c48-4d53-8e4d-58e5c2ba3531"},{"length":94,"position":183744,"velocity":0.8661417322834646,"pitch":38,"id":"10cddce7-93ca-475a-aaf4-50eefe6fb44c"},{"length":94,"position":183840,"velocity":0.8661417322834646,"pitch":52,"id":"100f19c6-06b8-4467-a853-cf9b714417b1"},{"length":94,"position":183840,"velocity":0.8661417322834646,"pitch":56,"id":"503d99b5-cf2a-4ca6-a7a5-7f8dfef9d267"},{"length":94,"position":183840,"velocity":0.8661417322834646,"pitch":59,"id":"efb19d0e-1eb7-48bf-b638-b7b7552de493"},{"length":160,"position":183936,"velocity":0.8661417322834646,"pitch":44,"id":"6307aa8a-8c64-4583-aa11-e9aff6c24089"},{"length":160,"position":183936,"velocity":0.8661417322834646,"pitch":52,"id":"79151e03-8590-48ed-ba3a-3a655c462aee"},{"length":160,"position":183936,"velocity":0.8661417322834646,"pitch":56,"id":"a9ea76bc-6385-45d3-9dc9-4f54ab0b6a68"},{"length":160,"position":183936,"velocity":0.8661417322834646,"pitch":59,"id":"a6831248-6df8-4809-b1d2-109b2866afd5"},{"length":160,"position":184128,"velocity":0.8661417322834646,"pitch":38,"id":"039ce536-49f8-4123-9873-5621bb5c1c1d"},{"length":160,"position":184128,"velocity":0.8661417322834646,"pitch":52,"id":"295ed616-3979-41f1-8f07-bfa3274f505f"},{"length":160,"position":184128,"velocity":0.8661417322834646,"pitch":56,"id":"45ab8543-4ea4-4a5e-a575-d0642426a786"},{"length":160,"position":184128,"velocity":0.8661417322834646,"pitch":59,"id":"47d7d295-fe12-42b4-8c9a-0ab80268db57"},{"length":94,"position":184320,"velocity":0.8661417322834646,"pitch":45,"id":"7feffbab-145d-4b85-b679-e918049925cd"},{"length":94,"position":184416,"velocity":0.8661417322834646,"pitch":50,"id":"f88034f3-a4f8-4ec1-8c77-97be86bf24a1"},{"length":94,"position":184416,"velocity":0.8661417322834646,"pitch":54,"id":"0d93d831-9a26-4517-bea4-755fb2b540d8"},{"length":94,"position":184416,"velocity":0.8661417322834646,"pitch":57,"id":"6cf4d467-bc0e-4a81-81f6-8fce196473f1"},{"length":94,"position":184512,"velocity":0.8661417322834646,"pitch":38,"id":"978b5cce-8a4d-4b4c-a6a9-5a719853421e"},{"length":94,"position":184608,"velocity":0.8661417322834646,"pitch":50,"id":"706284d2-7da7-4922-8c04-29c545b6acf3"},{"length":94,"position":184608,"velocity":0.8661417322834646,"pitch":54,"id":"6e24edaa-1663-497b-84e5-272961dd2e17"},{"length":94,"position":184608,"velocity":0.8661417322834646,"pitch":57,"id":"f68810f8-d5b2-4955-8589-e60d58fc383d"},{"length":94,"position":184704,"velocity":0.8661417322834646,"pitch":45,"id":"d09abf90-8510-476f-adea-52753347c3b8"},{"length":94,"position":184800,"velocity":0.8661417322834646,"pitch":50,"id":"5eb03532-7c95-47c8-b9a8-eb9e447f4eff"},{"length":94,"position":184800,"velocity":0.8661417322834646,"pitch":54,"id":"9ed6e3ec-6ebb-4db0-acdb-4fb28dfffdfa"},{"length":94,"position":184800,"velocity":0.8661417322834646,"pitch":57,"id":"77339b62-554c-46eb-9724-6205e656d465"},{"length":94,"position":184896,"velocity":0.8661417322834646,"pitch":45,"id":"a38e0f8f-3989-4357-b500-5b2ee6ac9d1d"},{"length":94,"position":184992,"velocity":0.8661417322834646,"pitch":50,"id":"be2b6be3-e7bc-47b5-a536-cffa1bf1931c"},{"length":94,"position":184992,"velocity":0.8661417322834646,"pitch":54,"id":"9876e74f-e3b7-43ea-a6e2-7fa35ddd0374"},{"length":94,"position":184992,"velocity":0.8661417322834646,"pitch":57,"id":"25b48e06-c728-4724-873a-9767a15fce18"},{"length":94,"position":185088,"velocity":0.8661417322834646,"pitch":45,"id":"5a222fd9-4405-42a3-9a04-a665a47b2c5e"},{"length":94,"position":185184,"velocity":0.8661417322834646,"pitch":50,"id":"f9a02dbf-d5d3-42b1-8c0d-fe4912295075"},{"length":94,"position":185184,"velocity":0.8661417322834646,"pitch":54,"id":"1a2b1a7e-bb01-4d9a-8bf9-6022a98b9b4f"},{"length":94,"position":185184,"velocity":0.8661417322834646,"pitch":57,"id":"4c6e395f-29f3-4826-a7ba-0dd37909207f"},{"length":94,"position":185280,"velocity":0.8661417322834646,"pitch":38,"id":"ca210c65-3d17-47f2-9094-e889fbd738ec"},{"length":94,"position":185376,"velocity":0.8661417322834646,"pitch":50,"id":"c0eac934-f76c-49d2-a104-311dde05ddd5"},{"length":94,"position":185376,"velocity":0.8661417322834646,"pitch":54,"id":"c6a2e0ee-6606-4703-92ac-95e189e08050"},{"length":94,"position":185376,"velocity":0.8661417322834646,"pitch":57,"id":"0c751007-8c81-419d-a238-f43d46ff9e3f"},{"length":94,"position":185472,"velocity":0.8661417322834646,"pitch":45,"id":"e7b8a4ce-269b-49de-990e-b2e640d45885"},{"length":94,"position":185568,"velocity":0.8661417322834646,"pitch":50,"id":"b9cd80cf-e744-4245-875d-7551da4f2598"},{"length":94,"position":185568,"velocity":0.8661417322834646,"pitch":54,"id":"6f4888b1-a94b-4805-84d3-e6d606a52f19"},{"length":94,"position":185568,"velocity":0.8661417322834646,"pitch":57,"id":"07160147-9e25-4d6c-a993-f3eb79fead28"},{"length":94,"position":185664,"velocity":0.8661417322834646,"pitch":45,"id":"fb3e11c3-9964-44a1-8736-4cb792f32619"},{"length":94,"position":185760,"velocity":0.8661417322834646,"pitch":50,"id":"0f40f021-0a08-4b55-bcc3-654d74cbb025"},{"length":94,"position":185760,"velocity":0.8661417322834646,"pitch":54,"id":"ac477258-e29a-45a8-978e-e01fbef2cb57"},{"length":94,"position":185760,"velocity":0.8661417322834646,"pitch":57,"id":"d1c60683-4046-4dd8-a46e-2ffd2be3e209"},{"length":94,"position":185856,"velocity":0.8661417322834646,"pitch":45,"id":"0816a475-1732-450a-8ad8-0b77d55529d1"},{"length":94,"position":185952,"velocity":0.8661417322834646,"pitch":50,"id":"26eef06e-ab52-4f56-864d-530fc425d618"},{"length":94,"position":185952,"velocity":0.8661417322834646,"pitch":54,"id":"013a3963-ed56-49e3-8694-2b0d24b6eece"},{"length":94,"position":185952,"velocity":0.8661417322834646,"pitch":57,"id":"e6c2a08b-8738-4b40-aac8-8411ee728f86"},{"length":94,"position":186048,"velocity":0.8661417322834646,"pitch":38,"id":"fa88cc1a-4747-498a-8546-d62e6a1a4fc0"},{"length":94,"position":186144,"velocity":0.8661417322834646,"pitch":50,"id":"a3d40f06-7f8c-4800-9c61-664fce15400d"},{"length":94,"position":186144,"velocity":0.8661417322834646,"pitch":54,"id":"39934778-9945-4f32-a5a3-7999172774cf"},{"length":94,"position":186144,"velocity":0.8661417322834646,"pitch":57,"id":"522eb739-42a8-47e1-b118-71053f93560b"},{"length":94,"position":186240,"velocity":0.8661417322834646,"pitch":45,"id":"f6705f33-b0ee-46f5-8a77-787c12b84028"},{"length":94,"position":186336,"velocity":0.8661417322834646,"pitch":50,"id":"6a09888a-d0d6-4ce4-bc1b-cf56ae230686"},{"length":94,"position":186336,"velocity":0.8661417322834646,"pitch":54,"id":"f1980beb-0068-4354-9aa1-4c79e26e2a5f"},{"length":94,"position":186336,"velocity":0.8661417322834646,"pitch":57,"id":"d3607437-e78b-4356-ab7a-eb92cfa00953"},{"length":94,"position":186432,"velocity":0.8661417322834646,"pitch":45,"id":"8028d4e5-0d10-4aa0-a5cf-20a63eab6e13"},{"length":94,"position":186528,"velocity":0.8661417322834646,"pitch":50,"id":"6eca3037-a823-45e7-8388-766007707f90"},{"length":94,"position":186528,"velocity":0.8661417322834646,"pitch":54,"id":"4412b24d-7081-41c4-8f10-2152a0c1e468"},{"length":94,"position":186528,"velocity":0.8661417322834646,"pitch":57,"id":"98bc20f0-04fd-4379-8098-505303605a4a"},{"length":94,"position":186624,"velocity":0.8661417322834646,"pitch":52,"id":"13bd2a4d-1ad6-4552-acd7-169a68ed4ec7"},{"length":94,"position":186720,"velocity":0.8661417322834646,"pitch":49,"id":"a3278687-2335-493f-95cb-02ef66eb2245"},{"length":94,"position":186720,"velocity":0.8661417322834646,"pitch":52,"id":"8e16c63d-330d-4899-b55e-b2dba569a090"},{"length":94,"position":186720,"velocity":0.8661417322834646,"pitch":57,"id":"911b4e4f-dd01-490d-873f-2894461b884b"},{"length":94,"position":186816,"velocity":0.8661417322834646,"pitch":45,"id":"3c71b114-54c3-476d-8fc5-6abd2cb2d6bd"},{"length":94,"position":186912,"velocity":0.8661417322834646,"pitch":49,"id":"09b37ca3-f8a5-4681-900e-bbd5dd98f733"},{"length":94,"position":186912,"velocity":0.8661417322834646,"pitch":52,"id":"d8347672-17b3-4390-a1d5-882784082672"},{"length":94,"position":186912,"velocity":0.8661417322834646,"pitch":57,"id":"b81eed37-ab52-40de-9a69-f494718fe819"},{"length":160,"position":187008,"velocity":0.8661417322834646,"pitch":49,"id":"e445d9e0-c2cd-43fd-96fb-9f7e1bc6a12c"},{"length":160,"position":187008,"velocity":0.8661417322834646,"pitch":52,"id":"4a11d6a9-7cfa-48f3-a360-8080947930d2"},{"length":160,"position":187008,"velocity":0.8661417322834646,"pitch":57,"id":"e3e25968-e621-497e-a2cf-56f700f4f735"},{"length":94,"position":187200,"velocity":0.8661417322834646,"pitch":49,"id":"cfa4481e-7c2d-4dd8-9a7c-365b7bbbe048"},{"length":94,"position":187200,"velocity":0.8661417322834646,"pitch":52,"id":"3e76a2a5-6349-48e1-b495-7757ca146d66"},{"length":94,"position":187200,"velocity":0.8661417322834646,"pitch":57,"id":"385ce7e4-1ea9-4764-a13f-1798204ddcda"},{"length":94,"position":187296,"velocity":0.8661417322834646,"pitch":49,"id":"c1b4422c-80a8-436c-b3b1-891cac5b819a"},{"length":94,"position":187296,"velocity":0.8661417322834646,"pitch":52,"id":"c90689b9-7b1d-408d-a65a-323c01ee986b"},{"length":94,"position":187296,"velocity":0.8661417322834646,"pitch":57,"id":"e3762a78-5fdf-4cbc-a8f9-283588f619b5"},{"length":46,"position":187392,"velocity":0.8661417322834646,"pitch":54,"id":"277ce596-2aa9-4062-9f21-287457643c78"},{"length":46,"position":187392,"velocity":0.8661417322834646,"pitch":57,"id":"38b51e8c-1b12-409e-bc1e-3b6315d14c19"},{"length":46,"position":187440,"velocity":0.8661417322834646,"pitch":50,"id":"946ca32b-d006-4b31-9292-f8f5497d61fa"},{"length":46,"position":187488,"velocity":0.8661417322834646,"pitch":54,"id":"ea576512-279d-48a1-af56-769f92e81020"},{"length":46,"position":187536,"velocity":0.8661417322834646,"pitch":50,"id":"05981c2e-9e99-4b3d-8ef3-f72c77b7687e"},{"length":94,"position":187584,"velocity":0.8661417322834646,"pitch":50,"id":"b35da6e7-bc73-4a0b-9bb7-e261e9c1e0a8"},{"length":94,"position":187584,"velocity":0.8661417322834646,"pitch":57,"id":"f03480db-4e8d-4e85-8b17-519be169d802"},{"length":94,"position":187680,"velocity":0.8661417322834646,"pitch":50,"id":"d3c9d655-2178-408f-852c-274f5f7d138a"},{"length":94,"position":187680,"velocity":0.8661417322834646,"pitch":54,"id":"4c3cfd8d-52af-4d9f-b7b6-17245160e60c"},{"length":94,"position":187680,"velocity":0.8661417322834646,"pitch":57,"id":"72255728-3455-4757-8dec-81144ed97f28"},{"length":94,"position":187776,"velocity":0.8661417322834646,"pitch":57,"id":"40414b31-125c-4e48-a47e-4c814e82faf1"},{"length":94,"position":187872,"velocity":0.8661417322834646,"pitch":50,"id":"e0d2ae60-530a-4126-89e0-d92704fca758"},{"length":94,"position":187872,"velocity":0.8661417322834646,"pitch":54,"id":"44583445-d903-432f-b7bd-502c361e24cc"},{"length":94,"position":187872,"velocity":0.8661417322834646,"pitch":57,"id":"d8fc32d3-72d0-4c66-9885-ef47556e21d4"},{"length":94,"position":187968,"velocity":0.8661417322834646,"pitch":50,"id":"4f2c4ea9-f75d-47e1-b303-197f8dace383"},{"length":94,"position":188064,"velocity":0.8661417322834646,"pitch":50,"id":"d78fb3f0-c3cb-458a-a7b1-85af08611ac5"},{"length":94,"position":188064,"velocity":0.8661417322834646,"pitch":54,"id":"ee524391-c725-47b0-ac5a-36b56ed936e1"},{"length":94,"position":188064,"velocity":0.8661417322834646,"pitch":57,"id":"bb0fd2b9-660b-4b60-99e2-c198f7390c55"},{"length":46,"position":188160,"velocity":0.8661417322834646,"pitch":54,"id":"3031841d-8b4a-47b3-bd85-b705b84f13cd"},{"length":46,"position":188160,"velocity":0.8661417322834646,"pitch":57,"id":"0da1eb8a-9d6f-4a49-829e-f5c068e95737"},{"length":46,"position":188208,"velocity":0.8661417322834646,"pitch":50,"id":"f6a1cc82-a292-46e9-bc5b-0773336d813c"},{"length":46,"position":188256,"velocity":0.8661417322834646,"pitch":54,"id":"8889384a-a999-4998-b021-741f5ee6ff8c"},{"length":46,"position":188304,"velocity":0.8661417322834646,"pitch":50,"id":"300cacd9-4268-4915-9eb8-f032faeccc61"},{"length":94,"position":188352,"velocity":0.8661417322834646,"pitch":50,"id":"718c386f-92b1-48c4-a553-884551219f82"},{"length":94,"position":188352,"velocity":0.8661417322834646,"pitch":57,"id":"e873d796-4dbc-4ef3-9b41-ca36de90a826"},{"length":94,"position":188448,"velocity":0.8661417322834646,"pitch":50,"id":"71a7af30-c47a-4c37-bef7-f324bd730c0d"},{"length":94,"position":188448,"velocity":0.8661417322834646,"pitch":54,"id":"66d70920-5b7c-4cff-882e-fa3e06ec8c21"},{"length":94,"position":188448,"velocity":0.8661417322834646,"pitch":57,"id":"40e07c4d-1f34-4e31-858b-a4fd48a5f0ff"},{"length":94,"position":188544,"velocity":0.8661417322834646,"pitch":57,"id":"a33cc57c-d085-4b52-91e9-dca486bd3031"},{"length":94,"position":188640,"velocity":0.8661417322834646,"pitch":50,"id":"049a6d72-1952-49b9-8ada-5b6f891e63da"},{"length":94,"position":188640,"velocity":0.8661417322834646,"pitch":54,"id":"6bfd80a2-c820-4e37-bae0-42d0c3705b4e"},{"length":94,"position":188640,"velocity":0.8661417322834646,"pitch":57,"id":"02343862-bb06-44ef-81d1-c1feac1bd0ef"},{"length":94,"position":188736,"velocity":0.8661417322834646,"pitch":50,"id":"94bb97d8-e6ce-4dfe-a1f6-71f2e1b137ec"},{"length":94,"position":188832,"velocity":0.8661417322834646,"pitch":50,"id":"0cbb656a-f082-4e8b-918c-4877d7b84738"},{"length":94,"position":188832,"velocity":0.8661417322834646,"pitch":54,"id":"2f41638b-42d3-409b-bde5-51c7a96e21fc"},{"length":94,"position":188832,"velocity":0.8661417322834646,"pitch":57,"id":"6794452b-43f6-488e-8845-3642093cb860"},{"length":46,"position":188928,"velocity":0.8661417322834646,"pitch":56,"id":"332e107d-23a6-427a-aae7-d5df9979bb03"},{"length":46,"position":188928,"velocity":0.8661417322834646,"pitch":59,"id":"1fb23b57-d4ea-4731-a092-4f0479777167"},{"length":46,"position":188976,"velocity":0.8661417322834646,"pitch":52,"id":"d975f1a1-9c19-4fbd-ba13-ae09945d981d"},{"length":46,"position":189024,"velocity":0.8661417322834646,"pitch":56,"id":"dfd8032c-f14d-493d-be67-3505ce958161"},{"length":46,"position":189072,"velocity":0.8661417322834646,"pitch":52,"id":"4865f0f5-42a5-40ea-8174-e2087e4c18a7"},{"length":94,"position":189120,"velocity":0.8661417322834646,"pitch":52,"id":"ed1ab36a-140a-4fd4-a546-ad8394288837"},{"length":94,"position":189120,"velocity":0.8661417322834646,"pitch":59,"id":"4f23d65a-4450-425d-be20-03a01c12634a"},{"length":94,"position":189216,"velocity":0.8661417322834646,"pitch":52,"id":"be17a15f-6d14-4f67-8b74-846103290f30"},{"length":94,"position":189216,"velocity":0.8661417322834646,"pitch":56,"id":"1d1582eb-1145-47a0-bb67-dfcb34ff06c6"},{"length":94,"position":189216,"velocity":0.8661417322834646,"pitch":59,"id":"773a4ee0-c2b4-42ce-9dc4-37e7971538d9"},{"length":94,"position":189312,"velocity":0.8661417322834646,"pitch":59,"id":"c7d5f555-5b71-412d-862e-ca44355930a9"},{"length":94,"position":189408,"velocity":0.8661417322834646,"pitch":52,"id":"24cbe596-09d3-4a90-9b71-252e27f042da"},{"length":94,"position":189408,"velocity":0.8661417322834646,"pitch":56,"id":"45030cf0-926a-4324-9139-0fd62a4962b0"},{"length":94,"position":189408,"velocity":0.8661417322834646,"pitch":59,"id":"647db11b-68c5-4305-a16b-e87c5590bb3a"},{"length":94,"position":189504,"velocity":0.8661417322834646,"pitch":52,"id":"c1666caa-6d5a-4b94-9b92-669cfab5edb8"},{"length":94,"position":189600,"velocity":0.8661417322834646,"pitch":52,"id":"ca550a18-1f8d-4e86-bba4-dc4704fec0b7"},{"length":94,"position":189600,"velocity":0.8661417322834646,"pitch":56,"id":"7b81e94a-dc77-4a99-9f47-c16092dde0f8"},{"length":94,"position":189600,"velocity":0.8661417322834646,"pitch":59,"id":"0806972c-5ef9-4c39-b624-176619bdc5fa"},{"length":46,"position":189696,"velocity":0.8661417322834646,"pitch":56,"id":"f46ebda6-61a2-4a85-a0d2-661e79cf01be"},{"length":46,"position":189696,"velocity":0.8661417322834646,"pitch":62,"id":"cc0024a2-43cd-4b58-bb87-4a12c3e1de46"},{"length":46,"position":189744,"velocity":0.8661417322834646,"pitch":52,"id":"1e4614f5-23d9-41c4-940b-de5c7d9e941f"},{"length":46,"position":189792,"velocity":0.8661417322834646,"pitch":56,"id":"ef625674-9b7d-4dba-bb37-e4df25331a24"},{"length":46,"position":189840,"velocity":0.8661417322834646,"pitch":52,"id":"8aa262b0-c49c-4834-b82f-9a5ffade7473"},{"length":94,"position":189888,"velocity":0.8661417322834646,"pitch":52,"id":"c02320f9-08dd-4e1c-b38a-8e6a76a7a15a"},{"length":94,"position":189888,"velocity":0.8661417322834646,"pitch":62,"id":"1ef8ba61-dc6d-498d-87d9-50874dd98332"},{"length":94,"position":189984,"velocity":0.8661417322834646,"pitch":52,"id":"8866a905-8f50-4f10-bb46-cc17c85d0462"},{"length":94,"position":189984,"velocity":0.8661417322834646,"pitch":56,"id":"881e1c2a-cde7-4c7f-a24f-cca6c8f95c66"},{"length":94,"position":189984,"velocity":0.8661417322834646,"pitch":62,"id":"b8f721f2-78f4-4bc7-a6fb-4301cdf79ecf"},{"length":94,"position":190080,"velocity":0.8661417322834646,"pitch":62,"id":"301e1ee6-3595-4fae-aa5e-2115a40659e1"},{"length":94,"position":190176,"velocity":0.8661417322834646,"pitch":52,"id":"4a4b07c6-c83c-4e15-8969-82291243af01"},{"length":94,"position":190176,"velocity":0.8661417322834646,"pitch":56,"id":"f669be80-4cc6-42a0-8f45-a7df0783e07d"},{"length":94,"position":190176,"velocity":0.8661417322834646,"pitch":62,"id":"bdbd67ae-eee0-485d-a923-692b25835a61"},{"length":94,"position":190272,"velocity":0.8661417322834646,"pitch":52,"id":"243665eb-60eb-4c7b-80df-5cb60840c367"},{"length":94,"position":190368,"velocity":0.8661417322834646,"pitch":52,"id":"ef8f7fea-9b9c-46be-8141-e5d4b340591d"},{"length":94,"position":190368,"velocity":0.8661417322834646,"pitch":56,"id":"9f1bd98e-f6fe-4196-9876-7b54a565240c"},{"length":94,"position":190368,"velocity":0.8661417322834646,"pitch":62,"id":"d5816c26-a4cc-431f-9a84-a62c3b70705c"},{"length":160,"position":190464,"velocity":0.8661417322834646,"pitch":50,"id":"32167f81-595c-4d5c-a77c-ca891561d632"},{"length":160,"position":190464,"velocity":0.8661417322834646,"pitch":54,"id":"15f6afb0-0a1b-4683-a599-522262dab809"},{"length":160,"position":190464,"velocity":0.8661417322834646,"pitch":57,"id":"4e6e13a4-b271-4cd3-b257-6d4f9561ff54"},{"length":160,"position":190656,"velocity":0.8661417322834646,"pitch":50,"id":"faf64dcb-3a17-4fa7-a125-1c17cb8d2956"},{"length":160,"position":190656,"velocity":0.8661417322834646,"pitch":54,"id":"29dbabe6-4918-443f-b6eb-21215992a445"},{"length":160,"position":190656,"velocity":0.8661417322834646,"pitch":57,"id":"93e927b8-08be-453f-a1a1-494f356d54d5"},{"length":94,"position":190848,"velocity":0.8661417322834646,"pitch":53,"id":"9e01d629-6b4b-4d9f-a620-42cd704e1f71"},{"length":94,"position":190944,"velocity":0.8661417322834646,"pitch":50,"id":"288eb4df-08dd-4f7f-95e9-6bf3977f7099"},{"length":94,"position":190944,"velocity":0.8661417322834646,"pitch":53,"id":"64ed0537-14f8-4056-9869-3b80f91a8839"},{"length":94,"position":190944,"velocity":0.8661417322834646,"pitch":57,"id":"29e5a243-505d-4a85-9cf5-c70806fd60fc"},{"length":94,"position":191040,"velocity":0.8661417322834646,"pitch":53,"id":"d7901bfa-8a32-4781-be61-f83cbad98e5c"},{"length":94,"position":191136,"velocity":0.8661417322834646,"pitch":50,"id":"2d384fac-b0b1-4724-a929-d2c1f2af9f02"},{"length":94,"position":191136,"velocity":0.8661417322834646,"pitch":53,"id":"583bbce7-21fc-4818-a8d7-7af0a8af15fc"},{"length":94,"position":191136,"velocity":0.8661417322834646,"pitch":57,"id":"0057de08-3dc1-4500-aa27-2e765d67eb42"},{"length":94,"position":191232,"velocity":0.8661417322834646,"pitch":52,"id":"cb352e5f-1ed7-4248-a5fe-ec551629ea56"},{"length":94,"position":191328,"velocity":0.8661417322834646,"pitch":50,"id":"cf85604f-04f2-465e-b363-3a792a8a4cb6"},{"length":94,"position":191328,"velocity":0.8661417322834646,"pitch":57,"id":"41f281c3-3386-4e63-a0d6-31d15f8473d7"},{"length":94,"position":191328,"velocity":0.8661417322834646,"pitch":59,"id":"407f3a83-5d8b-44ed-a666-9022c73f8044"},{"length":94,"position":191424,"velocity":0.8661417322834646,"pitch":52,"id":"8bcecd24-e11b-43db-b7c7-cd76833b351d"},{"length":94,"position":191520,"velocity":0.8661417322834646,"pitch":50,"id":"e04df8a5-076f-48e8-9573-e093c810b2c7"},{"length":94,"position":191520,"velocity":0.8661417322834646,"pitch":57,"id":"0b15f88e-6d93-49c5-b521-c7d0e88a1bd7"},{"length":94,"position":191520,"velocity":0.8661417322834646,"pitch":59,"id":"d4ef9419-9079-45af-a8d1-bd2b954354cb"},{"length":94,"position":191616,"velocity":0.8661417322834646,"pitch":51,"id":"bc2fd583-209a-40b8-9a34-eaccdeb42f70"},{"length":94,"position":191712,"velocity":0.8661417322834646,"pitch":52,"id":"35f3eb0e-1b85-4497-969b-26be0ab12520"},{"length":94,"position":191712,"velocity":0.8661417322834646,"pitch":57,"id":"f5f7e1b2-b89e-44de-afed-ccf98d50700e"},{"length":94,"position":191712,"velocity":0.8661417322834646,"pitch":59,"id":"c3530fb9-cfa1-481e-a5f7-f59e6d1b3ea7"},{"length":160,"position":191808,"velocity":0.8661417322834646,"pitch":51,"id":"59372585-84d3-4c0f-beab-1dbca5b4e847"},{"length":160,"position":192000,"velocity":0.8661417322834646,"pitch":50,"id":"e2703176-f3e4-4222-b836-5c023c1abd59"},{"length":160,"position":192000,"velocity":0.8661417322834646,"pitch":54,"id":"f7021bcb-8418-467f-b3f4-1db8310e6b69"},{"length":160,"position":192000,"velocity":0.8661417322834646,"pitch":57,"id":"a22e480b-eac8-4c21-993b-1ed9ce48f692"},{"length":160,"position":192192,"velocity":0.8661417322834646,"pitch":50,"id":"28e1f551-56ca-48a3-8b4d-8b56ad76df32"},{"length":160,"position":192192,"velocity":0.8661417322834646,"pitch":54,"id":"e20af2f5-8412-4139-bab7-9a9ba995fe50"},{"length":160,"position":192192,"velocity":0.8661417322834646,"pitch":57,"id":"bfd2f1f9-db67-48f9-81ab-f24fd1c26994"},{"length":94,"position":192384,"velocity":0.8661417322834646,"pitch":47,"id":"4c1fc4d6-ef19-4a4b-858b-ef5196f8c5c1"},{"length":94,"position":192480,"velocity":0.8661417322834646,"pitch":50,"id":"28bdf70a-c022-426e-942b-383281b9e73e"},{"length":94,"position":192480,"velocity":0.8661417322834646,"pitch":54,"id":"a91512ba-5e60-4e2e-9707-7d8774920410"},{"length":94,"position":192480,"velocity":0.8661417322834646,"pitch":57,"id":"0ec8b72b-687b-4860-8414-ee98d269d951"},{"length":94,"position":192576,"velocity":0.8661417322834646,"pitch":47,"id":"f73a3238-d3fe-4fd6-8f38-8aa707f8dcaf"},{"length":94,"position":192672,"velocity":0.8661417322834646,"pitch":50,"id":"42be4059-fc7f-4afe-a09a-6356e62792d3"},{"length":94,"position":192672,"velocity":0.8661417322834646,"pitch":54,"id":"1417a9d2-c307-48ac-baf0-4bb1989f461f"},{"length":94,"position":192672,"velocity":0.8661417322834646,"pitch":57,"id":"048bcd02-3b78-4dc6-8614-0f8975c7646f"},{"length":94,"position":192768,"velocity":0.8661417322834646,"pitch":46,"id":"45531322-d3d3-4978-94a9-7bfdf9b91ca0"},{"length":94,"position":192864,"velocity":0.8661417322834646,"pitch":50,"id":"4fbd3d10-bd37-44a5-992a-2d00af1c1462"},{"length":94,"position":192864,"velocity":0.8661417322834646,"pitch":53,"id":"fd8837b8-fe26-45b8-a858-6bc2fadae2aa"},{"length":94,"position":192864,"velocity":0.8661417322834646,"pitch":57,"id":"35ae1f94-edc0-44f8-8a90-8c0f009b89aa"},{"length":94,"position":192960,"velocity":0.8661417322834646,"pitch":46,"id":"c4e78c01-eb3a-4e3c-99d5-aa473366e2e7"},{"length":94,"position":193056,"velocity":0.8661417322834646,"pitch":50,"id":"b892df88-fd2c-4abe-8195-f8be57302201"},{"length":94,"position":193056,"velocity":0.8661417322834646,"pitch":53,"id":"e2bc3203-16f5-4ae3-b375-9067edd5ce29"},{"length":94,"position":193056,"velocity":0.8661417322834646,"pitch":57,"id":"7f4f4189-0b0d-4575-a3f3-ad2af59b9411"},{"length":94,"position":193152,"velocity":0.8661417322834646,"pitch":51,"id":"82e81017-65bb-436b-adf3-fd98a0056e38"},{"length":94,"position":193248,"velocity":0.8661417322834646,"pitch":50,"id":"7f3b65dc-9417-46c7-9ac1-68e658c6cd0d"},{"length":94,"position":193248,"velocity":0.8661417322834646,"pitch":53,"id":"dc60a3fc-798b-4de9-9eae-ea4cfe39af4c"},{"length":94,"position":193248,"velocity":0.8661417322834646,"pitch":57,"id":"c6534ba4-765a-483f-be83-7326c17450ff"},{"length":160,"position":193344,"velocity":0.8661417322834646,"pitch":51,"id":"11eb7374-ae2a-4262-a498-1530c00380fe"},{"length":94,"position":193536,"velocity":0.8661417322834646,"pitch":57,"id":"6ee56c0e-64f4-48c5-8ab6-de072de14a03"},{"length":94,"position":193632,"velocity":0.8661417322834646,"pitch":50,"id":"4d6a1bc7-0e1c-4124-aa16-51c8fd4adf1e"},{"length":94,"position":193632,"velocity":0.8661417322834646,"pitch":54,"id":"3f7d2d02-5cf2-407e-8c86-b2ba4def4dbe"},{"length":94,"position":193632,"velocity":0.8661417322834646,"pitch":57,"id":"7cf79237-c373-4d4d-8dd3-4bbacaf44dcf"},{"length":94,"position":193728,"velocity":0.8661417322834646,"pitch":50,"id":"3d985903-2780-438e-be24-109abbf6ca62"},{"length":94,"position":193824,"velocity":0.8661417322834646,"pitch":50,"id":"e44b456a-35c2-4ddc-8bb0-17db320ac516"},{"length":94,"position":193824,"velocity":0.8661417322834646,"pitch":54,"id":"b287f259-b7ec-48ab-bb29-fe7c7b56f790"},{"length":94,"position":193824,"velocity":0.8661417322834646,"pitch":57,"id":"480db916-7e07-4d6f-9d2c-8950693ca904"},{"length":160,"position":193920,"velocity":0.8661417322834646,"pitch":50,"id":"0b89613b-811b-4f32-8e57-2f9b396359b0"},{"length":160,"position":193920,"velocity":0.8661417322834646,"pitch":54,"id":"3912a8cb-84cd-4b86-83a3-2be828633180"},{"length":160,"position":193920,"velocity":0.8661417322834646,"pitch":57,"id":"98d8a948-e855-4b1b-b265-a2897bcf541c"},{"length":94,"position":194112,"velocity":0.8661417322834646,"pitch":50,"id":"56a18421-7718-4577-936c-0b6b93fea528"},{"length":94,"position":194208,"velocity":0.8661417322834646,"pitch":57,"id":"cf87091e-6803-4732-9eff-453fa963582f"},{"length":94,"position":194304,"velocity":0.8661417322834646,"pitch":57,"id":"9ff62f31-4fb7-4451-a8a7-37e787c55a78"},{"length":94,"position":194400,"velocity":0.8661417322834646,"pitch":50,"id":"3b41abed-55a3-48e0-8b73-cfecefef23bc"},{"length":94,"position":194400,"velocity":0.8661417322834646,"pitch":54,"id":"ecf56fc6-aa2c-41ec-a419-6ba42085dbb2"},{"length":94,"position":194400,"velocity":0.8661417322834646,"pitch":57,"id":"b9e3be3e-26d8-41b0-a60a-0e30a8579f0b"},{"length":94,"position":194496,"velocity":0.8661417322834646,"pitch":50,"id":"ab87a9d1-535f-4623-af9e-19a647a9bad4"},{"length":94,"position":194592,"velocity":0.8661417322834646,"pitch":50,"id":"ac81810d-e8e3-428c-8acf-5194091f6b5c"},{"length":94,"position":194592,"velocity":0.8661417322834646,"pitch":54,"id":"7dde8bc8-77c4-442c-9cfc-19cfa21fdc3d"},{"length":94,"position":194592,"velocity":0.8661417322834646,"pitch":57,"id":"c6e09339-27fd-42e0-b22d-af6e05148693"},{"length":160,"position":194688,"velocity":0.8661417322834646,"pitch":50,"id":"a38a84f8-9e93-4594-ac6b-622c5154dd2b"},{"length":160,"position":194688,"velocity":0.8661417322834646,"pitch":54,"id":"14610185-7932-4755-8c93-efb7d1ba7787"},{"length":160,"position":194688,"velocity":0.8661417322834646,"pitch":57,"id":"0e00db73-997a-4cfc-82ef-7277a33985f1"},{"length":94,"position":194880,"velocity":0.8661417322834646,"pitch":50,"id":"9a5b1be8-d1a8-4035-be0a-ad1122768704"},{"length":94,"position":194880,"velocity":0.8661417322834646,"pitch":54,"id":"29b07bc4-f628-4aaa-b07c-b60f484a211e"},{"length":94,"position":194880,"velocity":0.8661417322834646,"pitch":57,"id":"790e3fa3-ac50-4d9d-ade0-6337ce48b54e"},{"length":94,"position":194976,"velocity":0.8661417322834646,"pitch":48,"id":"7ed652b1-3dfa-4b97-b84b-00aae4614292"},{"length":94,"position":195072,"velocity":0.8661417322834646,"pitch":43,"id":"f4623647-2f15-440c-ab5e-686b9907527d"},{"length":94,"position":195168,"velocity":0.8661417322834646,"pitch":50,"id":"989dc384-45d5-4710-ae35-44abe9fbc69e"},{"length":94,"position":195168,"velocity":0.8661417322834646,"pitch":55,"id":"8874b13b-189b-4a32-ba02-071288b61e9e"},{"length":94,"position":195168,"velocity":0.8661417322834646,"pitch":59,"id":"904a2feb-662d-4f71-b5a0-f8333c71ff04"},{"length":46,"position":195264,"velocity":0.8661417322834646,"pitch":38,"id":"ee464d0c-f4d0-4f2f-aa0d-bedd3a93b151"},{"length":142,"position":195312,"velocity":0.8661417322834646,"pitch":50,"id":"b86d2a04-699a-4efa-a51e-97297580b802"},{"length":142,"position":195312,"velocity":0.8661417322834646,"pitch":55,"id":"21cc54f4-8441-4628-ae8c-9df7ff9d0e00"},{"length":142,"position":195312,"velocity":0.8661417322834646,"pitch":59,"id":"73fd2e68-092a-427e-8943-a2e8c27218ff"},{"length":142,"position":195456,"velocity":0.8661417322834646,"pitch":43,"id":"e4b1ac2c-96ad-4390-98c7-35f8d0407175"},{"length":142,"position":195456,"velocity":0.8661417322834646,"pitch":50,"id":"f01da68a-c6eb-4522-9c06-695bd64e91ff"},{"length":142,"position":195456,"velocity":0.8661417322834646,"pitch":55,"id":"c3ddfda1-7048-4607-96f8-8bb14c84f3e8"},{"length":142,"position":195456,"velocity":0.8661417322834646,"pitch":59,"id":"ff702d88-7ab3-47ee-869c-09ced866ab5c"},{"length":46,"position":195600,"velocity":0.8661417322834646,"pitch":50,"id":"22d798d1-493e-4c06-b30c-acf8e8949f7f"},{"length":46,"position":195600,"velocity":0.8661417322834646,"pitch":55,"id":"148915ce-ad26-4fbc-8835-294de5b1e1e2"},{"length":46,"position":195600,"velocity":0.8661417322834646,"pitch":59,"id":"2081421f-2b2e-4931-a19d-4e119b5c8dd8"},{"length":94,"position":195648,"velocity":0.8661417322834646,"pitch":38,"id":"ea5190bc-0247-4fd7-9c0c-1ba089fd71cc"},{"length":94,"position":195744,"velocity":0.8661417322834646,"pitch":50,"id":"46b04ae2-c89b-4550-b6c2-0de6a60a7e55"},{"length":94,"position":195744,"velocity":0.8661417322834646,"pitch":55,"id":"a4695064-9637-4fdf-bc77-1f195f8acce8"},{"length":94,"position":195744,"velocity":0.8661417322834646,"pitch":59,"id":"7b4a53f3-b93b-489e-b8fb-ed2ad1e6b3a8"},{"length":94,"position":195840,"velocity":0.8661417322834646,"pitch":44,"id":"efa059f0-f217-42c5-b818-3d0d3ac7ebaa"},{"length":94,"position":195936,"velocity":0.8661417322834646,"pitch":52,"id":"da0be953-5596-42d1-9d3f-8318a7b52d7f"},{"length":94,"position":195936,"velocity":0.8661417322834646,"pitch":56,"id":"71fd395a-3cee-47e7-b13b-399487504c6b"},{"length":94,"position":195936,"velocity":0.8661417322834646,"pitch":59,"id":"43b07722-052d-48aa-be42-bcd6267f1190"},{"length":94,"position":196032,"velocity":0.8661417322834646,"pitch":38,"id":"b2a69916-4ff9-43ef-8e1e-0fdd0219f6c7"},{"length":94,"position":196128,"velocity":0.8661417322834646,"pitch":52,"id":"c18179f9-642c-49a0-b7f2-f75e400adf04"},{"length":94,"position":196128,"velocity":0.8661417322834646,"pitch":56,"id":"d56b78a9-9dc3-458d-becc-b2440aa20557"},{"length":94,"position":196128,"velocity":0.8661417322834646,"pitch":59,"id":"297d5dd1-e887-4232-8a94-ce2be00fd6f6"},{"length":160,"position":196224,"velocity":0.8661417322834646,"pitch":44,"id":"0ab1cfe4-7cda-4b6a-a8ca-a421298cbc58"},{"length":160,"position":196224,"velocity":0.8661417322834646,"pitch":52,"id":"fe2c7c12-3dee-4eb1-adc2-127809e007ec"},{"length":160,"position":196224,"velocity":0.8661417322834646,"pitch":56,"id":"0e8594e6-df72-40cf-a6f1-54092f85a78d"},{"length":160,"position":196224,"velocity":0.8661417322834646,"pitch":59,"id":"cc0291ea-fd2b-4b44-92af-07936b5c3373"},{"length":160,"position":196416,"velocity":0.8661417322834646,"pitch":38,"id":"6d3c342d-9f75-4dcc-a9f8-6230a35d426e"},{"length":160,"position":196416,"velocity":0.8661417322834646,"pitch":52,"id":"94c2a074-d0f3-46cd-b7fa-1bca5da7db0d"},{"length":160,"position":196416,"velocity":0.8661417322834646,"pitch":56,"id":"f8612ad9-d75f-4f4e-8f71-81813fc4b2c9"},{"length":160,"position":196416,"velocity":0.8661417322834646,"pitch":59,"id":"abbaf93e-0409-49e7-91d3-8b4adfa752fc"},{"length":94,"position":196608,"velocity":0.8661417322834646,"pitch":45,"id":"2038b10b-0c06-4ddf-88e4-98e3a915d413"},{"length":94,"position":196704,"velocity":0.8661417322834646,"pitch":50,"id":"c9f3f86f-ef34-49ef-b384-f40b2126cfb9"},{"length":94,"position":196704,"velocity":0.8661417322834646,"pitch":54,"id":"d5c7ca6e-9708-4f95-985c-2246ec538a07"},{"length":94,"position":196704,"velocity":0.8661417322834646,"pitch":57,"id":"102e098e-33de-4f75-8101-0c277b8d6fbf"},{"length":94,"position":196800,"velocity":0.8661417322834646,"pitch":38,"id":"def492f1-9ee8-48eb-944b-c8740895ba00"},{"length":94,"position":196896,"velocity":0.8661417322834646,"pitch":50,"id":"c6a1a67c-05d8-4766-9e73-0597652b90ce"},{"length":94,"position":196896,"velocity":0.8661417322834646,"pitch":54,"id":"d1834280-3e65-4292-b033-0fc6eaa66542"},{"length":94,"position":196896,"velocity":0.8661417322834646,"pitch":57,"id":"242c6bb3-ae77-4855-ba84-20b6145b40ff"},{"length":94,"position":196992,"velocity":0.8661417322834646,"pitch":45,"id":"f6eb3080-3806-4e2b-85ef-c9011ed42e8e"},{"length":94,"position":197088,"velocity":0.8661417322834646,"pitch":50,"id":"a42e4a71-79e6-4acf-b2b4-42fca541bb13"},{"length":94,"position":197088,"velocity":0.8661417322834646,"pitch":54,"id":"f8a2bcae-f4a2-4b3f-be9a-57c47b8a8c5e"},{"length":94,"position":197088,"velocity":0.8661417322834646,"pitch":57,"id":"269b0d19-9aa9-4ad5-8c7a-1ab63a5f7cf7"},{"length":94,"position":197184,"velocity":0.8661417322834646,"pitch":45,"id":"250248ca-2e01-48eb-86b2-30a225f77be7"},{"length":94,"position":197280,"velocity":0.8661417322834646,"pitch":50,"id":"0050187e-df69-4f43-91e2-abb03efc8d32"},{"length":94,"position":197280,"velocity":0.8661417322834646,"pitch":54,"id":"c9082185-37d0-424a-b40a-f1df274b97ec"},{"length":94,"position":197280,"velocity":0.8661417322834646,"pitch":57,"id":"babb962d-47cc-45e5-9162-6ee62e20437b"},{"length":94,"position":197376,"velocity":0.8661417322834646,"pitch":45,"id":"e6d85a35-bda0-45a9-8e36-9bc19d2b7e7a"},{"length":94,"position":197472,"velocity":0.8661417322834646,"pitch":50,"id":"b756c1f4-f78c-451e-a0af-e17c7008fd41"},{"length":94,"position":197472,"velocity":0.8661417322834646,"pitch":54,"id":"73ae3ded-a17a-47c0-905b-2deb8c8b1b39"},{"length":94,"position":197472,"velocity":0.8661417322834646,"pitch":57,"id":"78d02019-05c0-4ffe-8541-6312d06d9513"},{"length":94,"position":197568,"velocity":0.8661417322834646,"pitch":38,"id":"d486bdc2-bac7-4f44-ba3b-89d43ba2f3e5"},{"length":94,"position":197664,"velocity":0.8661417322834646,"pitch":50,"id":"45a8b2ed-5667-4efb-bc37-b6ae7c7ec281"},{"length":94,"position":197664,"velocity":0.8661417322834646,"pitch":54,"id":"fceeda68-a11e-433f-b228-a1e0fb0ee816"},{"length":94,"position":197664,"velocity":0.8661417322834646,"pitch":57,"id":"ad37ddbc-d086-471d-95fe-74eab12c2d55"},{"length":94,"position":197760,"velocity":0.8661417322834646,"pitch":45,"id":"ae0757e6-d934-4e70-a8e9-70945115653a"},{"length":94,"position":197856,"velocity":0.8661417322834646,"pitch":50,"id":"e0f5f715-e264-4ac7-b15c-8bb4ebf460f3"},{"length":94,"position":197856,"velocity":0.8661417322834646,"pitch":54,"id":"fecb3bb1-e66a-47bc-ab48-f40da5712956"},{"length":94,"position":197856,"velocity":0.8661417322834646,"pitch":57,"id":"d13891eb-5bd5-4f52-9623-ff8c12c14d38"},{"length":94,"position":197952,"velocity":0.8661417322834646,"pitch":45,"id":"c53322a5-67db-46a6-8415-b93d31604398"},{"length":94,"position":198048,"velocity":0.8661417322834646,"pitch":50,"id":"ddebe144-e863-4c20-9541-65701b00880c"},{"length":94,"position":198048,"velocity":0.8661417322834646,"pitch":54,"id":"bdda59af-013b-487c-913e-8211b3250e2c"},{"length":94,"position":198048,"velocity":0.8661417322834646,"pitch":57,"id":"83cee012-ffee-4474-b8d0-61dda9959f25"},{"length":94,"position":198144,"velocity":0.8661417322834646,"pitch":45,"id":"b9a5365a-ef54-4372-9257-3e4ab30da9f9"},{"length":94,"position":198240,"velocity":0.8661417322834646,"pitch":50,"id":"7423d328-8b9b-48e3-a3bf-57150d38f4d8"},{"length":94,"position":198240,"velocity":0.8661417322834646,"pitch":54,"id":"de6fc1f2-e719-41bb-9abd-b386866850f8"},{"length":94,"position":198240,"velocity":0.8661417322834646,"pitch":57,"id":"556220fd-97fd-4428-a246-f871f4dcb32f"},{"length":94,"position":198336,"velocity":0.8661417322834646,"pitch":38,"id":"23258dc1-61db-42ac-82f6-061e4eea8f7c"},{"length":94,"position":198432,"velocity":0.8661417322834646,"pitch":50,"id":"e18e607b-1abf-46be-99a5-464520a36a39"},{"length":94,"position":198432,"velocity":0.8661417322834646,"pitch":54,"id":"e735a919-9d4f-4b8f-a04a-7e36b576c356"},{"length":94,"position":198432,"velocity":0.8661417322834646,"pitch":57,"id":"a7c0a295-2bc1-45d6-9a30-79fb433d7213"},{"length":94,"position":198528,"velocity":0.8661417322834646,"pitch":45,"id":"898c70b7-20ac-4e8d-b566-ee7e16ef3829"},{"length":94,"position":198624,"velocity":0.8661417322834646,"pitch":50,"id":"345f51fe-bb31-4bb7-93c4-c8b66508d3b1"},{"length":94,"position":198624,"velocity":0.8661417322834646,"pitch":54,"id":"66d09b48-bbce-49d8-9545-1a976ba7c33b"},{"length":94,"position":198624,"velocity":0.8661417322834646,"pitch":57,"id":"d9cdb6a9-0558-448d-9fc4-79c52a4c432a"},{"length":94,"position":198720,"velocity":0.8661417322834646,"pitch":45,"id":"b513bcd5-409e-42f7-b206-a82674311f59"},{"length":94,"position":198816,"velocity":0.8661417322834646,"pitch":50,"id":"15778b7f-92ab-409d-988c-258066a3842b"},{"length":94,"position":198816,"velocity":0.8661417322834646,"pitch":54,"id":"4327438c-c82a-4380-b25b-4d5fda65a57c"},{"length":94,"position":198816,"velocity":0.8661417322834646,"pitch":57,"id":"5da1dd1e-f9e6-473b-aefa-6b09f25536f3"},{"length":94,"position":198912,"velocity":0.8661417322834646,"pitch":52,"id":"a1b21f58-45aa-47ae-b606-5fa816b0723a"},{"length":94,"position":199008,"velocity":0.8661417322834646,"pitch":49,"id":"a4802202-2673-4726-8686-b9535b1ec0b5"},{"length":94,"position":199008,"velocity":0.8661417322834646,"pitch":52,"id":"068a04e6-d985-44c3-a5b2-03fdcde7a41b"},{"length":94,"position":199008,"velocity":0.8661417322834646,"pitch":57,"id":"197aaa33-e41f-4adf-b6bf-9d3f77c18142"},{"length":94,"position":199104,"velocity":0.8661417322834646,"pitch":45,"id":"86ccc10a-fd18-4cb8-ba2f-1b1b57590d36"},{"length":94,"position":199200,"velocity":0.8661417322834646,"pitch":49,"id":"cf5fd984-a831-474c-b89d-96e91ab6fefa"},{"length":94,"position":199200,"velocity":0.8661417322834646,"pitch":52,"id":"2699b4bd-0553-41b8-89b6-c904b24c1a9d"},{"length":94,"position":199200,"velocity":0.8661417322834646,"pitch":57,"id":"2b56707b-3e41-4914-be62-9cc6ab48b9e3"},{"length":160,"position":199296,"velocity":0.8661417322834646,"pitch":49,"id":"f9a656c1-631f-4726-b87c-d78f4586e38a"},{"length":160,"position":199296,"velocity":0.8661417322834646,"pitch":52,"id":"ea6d60b2-bfcd-48da-addc-ce716f13d9e2"},{"length":160,"position":199296,"velocity":0.8661417322834646,"pitch":57,"id":"53c8df6e-3378-46aa-ad94-b1a1d405db3a"},{"length":94,"position":199488,"velocity":0.8661417322834646,"pitch":49,"id":"c4a97fdd-cb5d-42b3-a06d-da1cb087b71d"},{"length":94,"position":199488,"velocity":0.8661417322834646,"pitch":52,"id":"d42ed479-1a94-4170-8f49-03a1030c3efd"},{"length":94,"position":199488,"velocity":0.8661417322834646,"pitch":57,"id":"88568ef5-ea89-46c0-a85b-bbf1b77bdfac"},{"length":94,"position":199584,"velocity":0.8661417322834646,"pitch":49,"id":"33193d06-eb84-45be-b69e-3140c5e289d1"},{"length":94,"position":199584,"velocity":0.8661417322834646,"pitch":52,"id":"9c3be279-192b-46a3-aeeb-9249e3e9b506"},{"length":94,"position":199584,"velocity":0.8661417322834646,"pitch":57,"id":"ef768182-db84-4f43-8691-b46dc23f959a"},{"length":46,"position":199680,"velocity":0.8661417322834646,"pitch":54,"id":"0a44970b-4db5-4130-b94a-123928b8f196"},{"length":46,"position":199680,"velocity":0.8661417322834646,"pitch":57,"id":"b526218f-eb1c-44f2-aa19-7fca38c1a49e"},{"length":46,"position":199728,"velocity":0.8661417322834646,"pitch":50,"id":"5c977c18-b1e3-4e17-987a-f88ea24753af"},{"length":46,"position":199776,"velocity":0.8661417322834646,"pitch":54,"id":"eb6c967f-d353-4609-8922-5c79ff55e016"},{"length":46,"position":199824,"velocity":0.8661417322834646,"pitch":50,"id":"eae33a04-94d5-49bf-b87a-d82c4593fdb7"},{"length":94,"position":199872,"velocity":0.8661417322834646,"pitch":50,"id":"9d403da5-45ce-46e8-99a6-294ceb19916b"},{"length":94,"position":199872,"velocity":0.8661417322834646,"pitch":57,"id":"83814838-4f86-47ca-ac52-75fb7ef0d20c"},{"length":94,"position":199968,"velocity":0.8661417322834646,"pitch":50,"id":"34839779-f29c-4935-b647-d9f7dbbf21e9"},{"length":94,"position":199968,"velocity":0.8661417322834646,"pitch":54,"id":"5cd791cd-1699-4159-96c4-7d97ae28575e"},{"length":94,"position":199968,"velocity":0.8661417322834646,"pitch":57,"id":"7e0ef6df-9ea6-430f-8b35-15668014c553"},{"length":94,"position":200064,"velocity":0.8661417322834646,"pitch":57,"id":"a4c6d58d-821e-48c3-9f3f-e244599cae74"},{"length":94,"position":200160,"velocity":0.8661417322834646,"pitch":50,"id":"b4e7724d-4304-4559-87b6-61f44374297e"},{"length":94,"position":200160,"velocity":0.8661417322834646,"pitch":54,"id":"3aacf7ce-814d-4bfe-896e-bea732184b25"},{"length":94,"position":200160,"velocity":0.8661417322834646,"pitch":57,"id":"20bad2fb-1132-44a3-b524-347b7e1e5a64"},{"length":94,"position":200256,"velocity":0.8661417322834646,"pitch":50,"id":"5060fb6c-0789-42f5-8ef2-b6445df11957"},{"length":94,"position":200352,"velocity":0.8661417322834646,"pitch":50,"id":"70b331b7-7a8d-4cc0-8e3c-07ff6ba9f526"},{"length":94,"position":200352,"velocity":0.8661417322834646,"pitch":54,"id":"316ce6ef-7e75-48ae-a563-1b0afd9eae0c"},{"length":94,"position":200352,"velocity":0.8661417322834646,"pitch":57,"id":"16191549-3c93-471a-aff4-c7b1a872cf1f"},{"length":46,"position":200448,"velocity":0.8661417322834646,"pitch":54,"id":"00f9636f-5deb-44b6-b1ff-59dfb6e042e3"},{"length":46,"position":200448,"velocity":0.8661417322834646,"pitch":57,"id":"e93a1a50-fce8-4c95-b810-ffe3d81ab486"},{"length":46,"position":200496,"velocity":0.8661417322834646,"pitch":50,"id":"cf1ee286-1280-4d23-b8cd-7b049a442826"},{"length":46,"position":200544,"velocity":0.8661417322834646,"pitch":54,"id":"409153ca-aa42-4de9-949f-71815f8e72e8"},{"length":46,"position":200592,"velocity":0.8661417322834646,"pitch":50,"id":"02a22f65-c62e-4f60-ab94-f6c036609ac7"},{"length":94,"position":200640,"velocity":0.8661417322834646,"pitch":50,"id":"a013c4ab-87a1-4407-a203-f5bdc6b59a82"},{"length":94,"position":200640,"velocity":0.8661417322834646,"pitch":57,"id":"10a06b0a-f096-4111-86d9-83f97a653508"},{"length":94,"position":200736,"velocity":0.8661417322834646,"pitch":50,"id":"a420ed11-b4f4-4dc0-944b-2465b5528df0"},{"length":94,"position":200736,"velocity":0.8661417322834646,"pitch":54,"id":"01c8fcc2-12a8-435d-ba3c-9431284b5007"},{"length":94,"position":200736,"velocity":0.8661417322834646,"pitch":57,"id":"beaef4b2-dca2-4603-85ce-617c10fbe38e"},{"length":94,"position":200832,"velocity":0.8661417322834646,"pitch":57,"id":"f4ee6e80-f8bc-4f0b-974b-70e36e83d452"},{"length":94,"position":200928,"velocity":0.8661417322834646,"pitch":50,"id":"46f2d8fc-8796-4e0e-ab58-f2712b0292dd"},{"length":94,"position":200928,"velocity":0.8661417322834646,"pitch":54,"id":"386f627b-1a67-4b9a-a268-45017d40cc7b"},{"length":94,"position":200928,"velocity":0.8661417322834646,"pitch":57,"id":"a59e440e-e037-4881-add2-ce85947fb1e8"},{"length":94,"position":201024,"velocity":0.8661417322834646,"pitch":50,"id":"5e2ee37d-fcee-453b-92f4-670032386d8d"},{"length":94,"position":201120,"velocity":0.8661417322834646,"pitch":50,"id":"0d23d56a-3e61-4d73-a9e0-9dc0e0d77bc1"},{"length":94,"position":201120,"velocity":0.8661417322834646,"pitch":54,"id":"813b2893-f38c-4740-bce4-2517a0c7e14e"},{"length":94,"position":201120,"velocity":0.8661417322834646,"pitch":57,"id":"573761b9-f711-49be-be2e-952ce808b9ad"},{"length":46,"position":201216,"velocity":0.8661417322834646,"pitch":56,"id":"917cc2fd-9675-40b5-be3e-396f77517c35"},{"length":46,"position":201216,"velocity":0.8661417322834646,"pitch":59,"id":"3d233ec1-2ceb-4c24-89f4-c4d519f42ce9"},{"length":46,"position":201264,"velocity":0.8661417322834646,"pitch":52,"id":"c708609e-383e-44a3-8b76-5df5378b08c4"},{"length":46,"position":201312,"velocity":0.8661417322834646,"pitch":56,"id":"483a5388-c76a-411c-862e-c5f00f41e41e"},{"length":46,"position":201360,"velocity":0.8661417322834646,"pitch":52,"id":"31960f31-4807-4fd0-9043-07539edf02c0"},{"length":94,"position":201408,"velocity":0.8661417322834646,"pitch":52,"id":"95602512-90c7-4d62-b03d-e991576862a9"},{"length":94,"position":201408,"velocity":0.8661417322834646,"pitch":59,"id":"f850f1c8-e610-41e7-b5c1-4737a8f7ece0"},{"length":94,"position":201504,"velocity":0.8661417322834646,"pitch":52,"id":"ed3f79e0-edd8-4b3a-9e0f-8fa4d13c43d3"},{"length":94,"position":201504,"velocity":0.8661417322834646,"pitch":56,"id":"6907d3c1-5966-492d-b6fe-02b2b6303ce3"},{"length":94,"position":201504,"velocity":0.8661417322834646,"pitch":59,"id":"b174c0cd-2016-46c8-899c-23fb9a527efa"},{"length":94,"position":201600,"velocity":0.8661417322834646,"pitch":59,"id":"8d63aa52-ef9a-4f25-b423-718416e257e8"},{"length":94,"position":201696,"velocity":0.8661417322834646,"pitch":52,"id":"ba61cc05-8ee4-4e19-a6d1-940d76fd6384"},{"length":94,"position":201696,"velocity":0.8661417322834646,"pitch":56,"id":"8b3d3c98-33fa-40db-97b1-4fdd6bf88832"},{"length":94,"position":201696,"velocity":0.8661417322834646,"pitch":59,"id":"7634f376-dd3d-41ae-99c4-3c5e06a0ca2d"},{"length":94,"position":201792,"velocity":0.8661417322834646,"pitch":52,"id":"b6733bc3-adbb-44fa-afae-992b22a0cf25"},{"length":94,"position":201888,"velocity":0.8661417322834646,"pitch":52,"id":"ca3fd09a-f445-42e8-b77b-f1c9e381b26e"},{"length":94,"position":201888,"velocity":0.8661417322834646,"pitch":56,"id":"08a84ca1-26ed-4a49-af56-96b98396b2e9"},{"length":94,"position":201888,"velocity":0.8661417322834646,"pitch":59,"id":"c5c5af4b-a2f8-4809-8d95-a5dc04835e83"},{"length":46,"position":201984,"velocity":0.8661417322834646,"pitch":56,"id":"1f996e22-191e-4c42-abb6-53e8dc4b034e"},{"length":46,"position":201984,"velocity":0.8661417322834646,"pitch":62,"id":"3242b424-83ea-4f02-9b5a-2a1a0113b192"},{"length":46,"position":202032,"velocity":0.8661417322834646,"pitch":52,"id":"3ac8d050-839a-4254-ab79-39215bc31a49"},{"length":46,"position":202080,"velocity":0.8661417322834646,"pitch":56,"id":"760a5a83-92cb-4d8e-8ed5-75393d0dae86"},{"length":46,"position":202128,"velocity":0.8661417322834646,"pitch":52,"id":"b1e97255-605c-47a3-8ebc-baf180519ce5"},{"length":94,"position":202176,"velocity":0.8661417322834646,"pitch":52,"id":"98d4aaf5-0b8e-473a-bc78-e53b41eb2a37"},{"length":94,"position":202176,"velocity":0.8661417322834646,"pitch":62,"id":"b093c154-9c46-4df0-a416-f2d48a51b971"},{"length":94,"position":202272,"velocity":0.8661417322834646,"pitch":52,"id":"64d6da34-ac80-4cea-bb6a-e3cba280cf95"},{"length":94,"position":202272,"velocity":0.8661417322834646,"pitch":56,"id":"a37422ba-fdb8-49b0-9083-2aa4cc2168da"},{"length":94,"position":202272,"velocity":0.8661417322834646,"pitch":62,"id":"6da4274d-5218-468e-b503-d8175da8bfdf"},{"length":94,"position":202368,"velocity":0.8661417322834646,"pitch":62,"id":"f0d5e566-3702-40b0-836e-c333f0cb1eed"},{"length":94,"position":202464,"velocity":0.8661417322834646,"pitch":52,"id":"42c73a5f-de31-4a0b-8065-5434f46619cf"},{"length":94,"position":202464,"velocity":0.8661417322834646,"pitch":56,"id":"5740161b-311b-4018-a851-d94269057eca"},{"length":94,"position":202464,"velocity":0.8661417322834646,"pitch":62,"id":"f29273f7-36c4-4f78-b2c5-9330e8395ff5"},{"length":94,"position":202560,"velocity":0.8661417322834646,"pitch":52,"id":"35199165-5b1d-487d-9758-20b392152f0d"},{"length":94,"position":202656,"velocity":0.8661417322834646,"pitch":52,"id":"d7d4b4e6-c2d5-4a63-96e5-cf200fad37af"},{"length":94,"position":202656,"velocity":0.8661417322834646,"pitch":56,"id":"b8d87780-6d01-45c4-9838-63182c0243bb"},{"length":94,"position":202656,"velocity":0.8661417322834646,"pitch":62,"id":"701739ce-bb85-457f-b953-ea9a8605c28d"},{"length":160,"position":202752,"velocity":0.8661417322834646,"pitch":50,"id":"b0375bc9-9087-477a-b88c-3e87344ec5ba"},{"length":160,"position":202752,"velocity":0.8661417322834646,"pitch":54,"id":"e03177a8-14ec-44da-87a4-ff3b82455676"},{"length":160,"position":202752,"velocity":0.8661417322834646,"pitch":57,"id":"185befcb-9d0e-4de9-ada5-3678fc9fffc6"},{"length":160,"position":202944,"velocity":0.8661417322834646,"pitch":50,"id":"8f7bf476-81fb-4206-9b86-ae9d96f5ef0c"},{"length":160,"position":202944,"velocity":0.8661417322834646,"pitch":54,"id":"7bd8a9bf-6325-4ea1-bfbe-29e186f9d82c"},{"length":160,"position":202944,"velocity":0.8661417322834646,"pitch":57,"id":"72ec53ab-27a6-4e37-aa2a-6c74094fe2e1"},{"length":94,"position":203136,"velocity":0.8661417322834646,"pitch":53,"id":"cf293a5a-97bd-4e2e-bf23-015004b00d00"},{"length":94,"position":203232,"velocity":0.8661417322834646,"pitch":50,"id":"13c61c59-f250-4bf3-9744-05859191543f"},{"length":94,"position":203232,"velocity":0.8661417322834646,"pitch":53,"id":"2fb1b166-426a-4a08-84f2-beccbc567d4a"},{"length":94,"position":203232,"velocity":0.8661417322834646,"pitch":57,"id":"58881be4-8769-4031-b7dc-82ad26aed946"},{"length":94,"position":203328,"velocity":0.8661417322834646,"pitch":53,"id":"ae16f133-e27d-4c2b-80b8-8d941cd862b2"},{"length":94,"position":203424,"velocity":0.8661417322834646,"pitch":50,"id":"88b31198-260c-4c1c-81fa-0d4c219ed46e"},{"length":94,"position":203424,"velocity":0.8661417322834646,"pitch":53,"id":"7f78da2f-814a-493c-9648-ac2969a996af"},{"length":94,"position":203424,"velocity":0.8661417322834646,"pitch":57,"id":"af674c9a-dfb2-4415-a4f1-f1210c2cb5dc"},{"length":94,"position":203520,"velocity":0.8661417322834646,"pitch":52,"id":"459b5369-23b7-447d-a743-bbdb94a98f03"},{"length":94,"position":203616,"velocity":0.8661417322834646,"pitch":50,"id":"f99312bc-eae2-4028-aa75-801d81d5a3e3"},{"length":94,"position":203616,"velocity":0.8661417322834646,"pitch":57,"id":"1d93ad28-a018-49e7-9888-1c14a75552f7"},{"length":94,"position":203616,"velocity":0.8661417322834646,"pitch":59,"id":"94f22957-41d6-4d31-9a97-6321d8724a40"},{"length":94,"position":203712,"velocity":0.8661417322834646,"pitch":52,"id":"e5a16ebe-5099-44bc-8a29-2b60ea565763"},{"length":94,"position":203808,"velocity":0.8661417322834646,"pitch":50,"id":"477d1063-cfde-496e-af54-db495bb30474"},{"length":94,"position":203808,"velocity":0.8661417322834646,"pitch":57,"id":"54d94dff-2431-4a6b-9f28-f545fa02a452"},{"length":94,"position":203808,"velocity":0.8661417322834646,"pitch":59,"id":"4fa29133-990b-48d4-b7ef-9e5e99c3e89b"},{"length":94,"position":203904,"velocity":0.8661417322834646,"pitch":51,"id":"225e8aad-d3f1-4c2a-b8d5-b893edb04648"},{"length":94,"position":204000,"velocity":0.8661417322834646,"pitch":52,"id":"f90b1876-207a-4ef7-ab4e-956fa09419f5"},{"length":94,"position":204000,"velocity":0.8661417322834646,"pitch":57,"id":"90fd1034-0d9f-4f85-8248-083719bd0d4e"},{"length":94,"position":204000,"velocity":0.8661417322834646,"pitch":59,"id":"028805de-ff9f-4b81-a0d1-b6aa8bd29eb1"},{"length":160,"position":204096,"velocity":0.8661417322834646,"pitch":51,"id":"a363e0b4-ef5f-48b8-ba00-cdbd93448304"},{"length":160,"position":204288,"velocity":0.8661417322834646,"pitch":50,"id":"94715336-fffc-4f42-bfe8-c0e0ff060b2c"},{"length":160,"position":204288,"velocity":0.8661417322834646,"pitch":54,"id":"9e5b07d2-8eea-44df-981a-1637cc78e629"},{"length":160,"position":204288,"velocity":0.8661417322834646,"pitch":57,"id":"771ef301-05e7-45b4-a449-62756ef7d84e"},{"length":94,"position":204480,"velocity":0.8661417322834646,"pitch":47,"id":"c6dc9e07-4f22-46aa-a63e-91c3f79d5381"},{"length":94,"position":204480,"velocity":0.8661417322834646,"pitch":50,"id":"600b8509-ecb9-40ac-80b5-7891e403da7a"},{"length":94,"position":204480,"velocity":0.8661417322834646,"pitch":54,"id":"0604d40d-99a6-4f9d-a622-0636a186a584"},{"length":94,"position":204480,"velocity":0.8661417322834646,"pitch":57,"id":"f248b738-c663-4817-9f9b-2b13a41fbbe1"},{"length":94,"position":204576,"velocity":0.8661417322834646,"pitch":49,"id":"e26abc19-13e2-4e09-9465-d1a292efb51b"},{"length":94,"position":204672,"velocity":0.8661417322834646,"pitch":50,"id":"9484ae05-b3f4-4979-9179-295323c81fec"},{"length":94,"position":204768,"velocity":0.8661417322834646,"pitch":50,"id":"6b99ae2f-1e59-4f5a-9ca6-7a935a7757f3"},{"length":94,"position":204768,"velocity":0.8661417322834646,"pitch":54,"id":"73b5e9a9-5711-482e-82db-3726096f2fba"},{"length":94,"position":204768,"velocity":0.8661417322834646,"pitch":57,"id":"b2d86e5d-7d48-4295-a01b-8d428a581aee"},{"length":94,"position":204864,"velocity":0.8661417322834646,"pitch":45,"id":"59fbd9f3-9a64-42ff-8033-5303dd2ae2e9"},{"length":94,"position":204960,"velocity":0.8661417322834646,"pitch":50,"id":"00958128-62a8-42a7-b670-77a9a4cd61d3"},{"length":94,"position":204960,"velocity":0.8661417322834646,"pitch":54,"id":"1589921b-8030-4d58-b5a5-5b60fd9149c9"},{"length":94,"position":204960,"velocity":0.8661417322834646,"pitch":57,"id":"fff02140-b71a-4fc7-b4e0-e74ab38a2401"},{"length":94,"position":205056,"velocity":0.8661417322834646,"pitch":50,"id":"a86b7007-9b78-47ee-b7a0-bbf1042ed64b"},{"length":94,"position":205152,"velocity":0.8661417322834646,"pitch":50,"id":"53745b8d-c171-471d-a3f2-dd75f2291ba8"},{"length":94,"position":205152,"velocity":0.8661417322834646,"pitch":54,"id":"63ccdd9a-7e97-4093-9a2f-68336b4dcefa"},{"length":94,"position":205152,"velocity":0.8661417322834646,"pitch":57,"id":"379a803b-c71d-483a-bfc6-ce06397fd56e"},{"length":94,"position":205248,"velocity":0.8661417322834646,"pitch":47,"id":"bfbfe3e8-1235-4f1b-92ab-ab5e7cd559e5"},{"length":94,"position":205344,"velocity":0.8661417322834646,"pitch":49,"id":"4689acd7-d265-49b2-9cbc-b9bb965692ae"},{"length":94,"position":205344,"velocity":0.8661417322834646,"pitch":50,"id":"46183590-92b2-4dc7-b6d7-2587463a1531"},{"length":94,"position":205344,"velocity":0.8661417322834646,"pitch":54,"id":"bffb267c-46be-4323-96c4-3e88d148c3b9"},{"length":94,"position":205344,"velocity":0.8661417322834646,"pitch":57,"id":"321abcaf-613a-40d3-ad8f-88b6db0d4c53"},{"length":94,"position":205440,"velocity":0.8661417322834646,"pitch":50,"id":"0f83277d-a1ed-40f2-b4af-39f3a1cf5e74"},{"length":94,"position":205536,"velocity":0.8661417322834646,"pitch":50,"id":"bc507455-7e77-4a46-a918-57cadd928743"},{"length":94,"position":205536,"velocity":0.8661417322834646,"pitch":54,"id":"f5fe33ff-d0b0-4a58-a752-e9815934caf1"},{"length":94,"position":205536,"velocity":0.8661417322834646,"pitch":57,"id":"4f710650-1911-4698-908d-47bb0a9cea1f"},{"length":94,"position":205632,"velocity":0.8661417322834646,"pitch":52,"id":"574806be-44d0-4f81-a757-26e5bf896657"},{"length":94,"position":205728,"velocity":0.8661417322834646,"pitch":54,"id":"dce6f107-3536-4eb3-95cf-2d18f14c18f0"},{"length":142,"position":205824,"velocity":0.8661417322834646,"pitch":50,"id":"468c294c-7c6e-41b4-afa4-818ab6b501dd"},{"length":142,"position":205824,"velocity":0.8661417322834646,"pitch":55,"id":"b27f3020-88fa-4420-837e-a16996219710"},{"length":142,"position":205824,"velocity":0.8661417322834646,"pitch":59,"id":"66cf8e1e-e447-4ab7-9fbf-73bd30310fad"},{"length":46,"position":205968,"velocity":0.8661417322834646,"pitch":50,"id":"11bff675-65b7-49e2-badc-5713997eb615"},{"length":46,"position":205968,"velocity":0.8661417322834646,"pitch":55,"id":"bf0c75ee-253c-4fb3-8da2-bcd9da378688"},{"length":46,"position":205968,"velocity":0.8661417322834646,"pitch":59,"id":"789563fc-20e8-4097-a720-32d20d089f99"},{"length":94,"position":206016,"velocity":0.8661417322834646,"pitch":55,"id":"4d43ff1a-c695-47b1-a136-3330921a4cf5"},{"length":94,"position":206112,"velocity":0.8661417322834646,"pitch":50,"id":"b968eb8f-67bf-49f9-8dd3-2916eddf9dcd"},{"length":94,"position":206112,"velocity":0.8661417322834646,"pitch":55,"id":"582bd59f-f38e-4fb3-bdcd-0cc428700df1"},{"length":94,"position":206112,"velocity":0.8661417322834646,"pitch":59,"id":"061421d9-56c5-4df0-997f-b8775fc8bdcb"},{"length":160,"position":206208,"velocity":0.8661417322834646,"pitch":50,"id":"0ea60868-2e60-4bbb-9b87-d8da8d5af417"},{"length":160,"position":206208,"velocity":0.8661417322834646,"pitch":55,"id":"c4a47a1d-aae5-471e-83f9-1438083fc799"},{"length":160,"position":206208,"velocity":0.8661417322834646,"pitch":59,"id":"54735fb3-8b6e-4b12-9ef5-ea857baa4389"},{"length":160,"position":206400,"velocity":0.8661417322834646,"pitch":55,"id":"e1973c01-7a22-47dc-b797-a2c737b84409"},{"length":142,"position":206592,"velocity":0.8661417322834646,"pitch":50,"id":"fe9d57bb-8ae3-461d-9390-2598194742e3"},{"length":142,"position":206592,"velocity":0.8661417322834646,"pitch":54,"id":"a67c2fa4-65a4-4f40-9762-d69c887ff521"},{"length":142,"position":206592,"velocity":0.8661417322834646,"pitch":57,"id":"f7cb8e69-e049-4061-b3db-85beb0595fd8"},{"length":46,"position":206736,"velocity":0.8661417322834646,"pitch":50,"id":"3fe305e5-f9db-4677-99b4-d89cc84bc047"},{"length":46,"position":206736,"velocity":0.8661417322834646,"pitch":54,"id":"8ca50be8-5161-4e82-9525-c1b5c157b50f"},{"length":46,"position":206736,"velocity":0.8661417322834646,"pitch":57,"id":"3aad3087-fc1d-45d9-90d9-54afb2ca679c"},{"length":94,"position":206784,"velocity":0.8661417322834646,"pitch":54,"id":"4a3f4dc6-e230-4b8e-819b-1325bbbdba73"},{"length":94,"position":206880,"velocity":0.8661417322834646,"pitch":50,"id":"2c6737cd-01a1-43c3-9dca-33ac1a3acedd"},{"length":94,"position":206880,"velocity":0.8661417322834646,"pitch":54,"id":"07f08966-183f-493d-8ed5-dd5cbcfd6a25"},{"length":94,"position":206880,"velocity":0.8661417322834646,"pitch":57,"id":"7ece93d5-f351-474b-89a7-1a33241c0422"},{"length":94,"position":206976,"velocity":0.8661417322834646,"pitch":53,"id":"e7ad9467-c86e-4f0e-ac44-0e14d1b74162"},{"length":94,"position":207072,"velocity":0.8661417322834646,"pitch":50,"id":"0bcc600d-ec27-4807-8e3b-be0b83d42499"},{"length":94,"position":207072,"velocity":0.8661417322834646,"pitch":53,"id":"ed5208c9-1628-44f7-8bae-90fe6e363831"},{"length":94,"position":207072,"velocity":0.8661417322834646,"pitch":56,"id":"7152c5bb-1fa2-42cb-a4c4-1bf6b8e864a2"},{"length":46,"position":207168,"velocity":0.8661417322834646,"pitch":53,"id":"4c83e6ba-55b6-469f-af6d-f431ad4ca7d4"},{"length":142,"position":207216,"velocity":0.8661417322834646,"pitch":50,"id":"d7c614eb-cb36-4d41-bf07-75c0cbfd7def"},{"length":142,"position":207216,"velocity":0.8661417322834646,"pitch":53,"id":"c33d52d4-0bf8-47f4-9e2f-bc12d53e20e7"},{"length":142,"position":207216,"velocity":0.8661417322834646,"pitch":56,"id":"2bd9d8ff-7d44-47f1-8e5f-3e4ce32c6075"},{"length":142,"position":207360,"velocity":0.8661417322834646,"pitch":52,"id":"073159c0-9cd5-4a94-96a6-ec448d4c87ae"},{"length":46,"position":207504,"velocity":0.8661417322834646,"pitch":45,"id":"05f79cb1-8619-4c91-9e74-08401deed5f2"},{"length":46,"position":207504,"velocity":0.8661417322834646,"pitch":49,"id":"afdfa768-ecf2-4de7-85f5-8b995b1d03fa"},{"length":46,"position":207504,"velocity":0.8661417322834646,"pitch":55,"id":"e2614523-8a33-453a-a65c-b36d886cde18"},{"length":94,"position":207552,"velocity":0.8661417322834646,"pitch":52,"id":"41cd3563-ac6a-4fcf-9496-9cd23a4cd22d"},{"length":94,"position":207648,"velocity":0.8661417322834646,"pitch":45,"id":"0935c737-e0dd-4ff1-a974-d768c7f11940"},{"length":94,"position":207648,"velocity":0.8661417322834646,"pitch":49,"id":"3d9089c1-bf2b-4943-8228-42a15b69fe87"},{"length":94,"position":207648,"velocity":0.8661417322834646,"pitch":55,"id":"0a949303-a27c-4d05-bcd9-3d75ccc76a1f"},{"length":160,"position":207744,"velocity":0.8661417322834646,"pitch":45,"id":"7d04dde5-a1c4-4d22-a18a-0c6a35877e8e"},{"length":160,"position":207744,"velocity":0.8661417322834646,"pitch":49,"id":"c2526651-887b-45ac-aab2-7e40cbec2e37"},{"length":160,"position":207744,"velocity":0.8661417322834646,"pitch":51,"id":"d27a1b37-a2ac-43aa-a17e-b1156a8e8cc4"},{"length":160,"position":207744,"velocity":0.8661417322834646,"pitch":54,"id":"5810ab67-aba7-4637-9fe5-73584a812708"},{"length":160,"position":207936,"velocity":0.8661417322834646,"pitch":51,"id":"7727d410-3fd1-4be8-bb10-8f211c260dc5"},{"length":94,"position":208128,"velocity":0.8661417322834646,"pitch":50,"id":"099b2fb1-4ab3-41a6-b8f4-1d4d206d1e75"},{"length":94,"position":208224,"velocity":0.8661417322834646,"pitch":45,"id":"f6e8d3bd-28db-4a8b-9eea-efee81fe629b"},{"length":94,"position":208224,"velocity":0.8661417322834646,"pitch":50,"id":"29c96206-c8b0-4dbb-9cfa-46f40a699e30"},{"length":94,"position":208224,"velocity":0.8661417322834646,"pitch":54,"id":"0aaf0cad-f7b6-46bc-a74a-209a67351eed"},{"length":94,"position":208320,"velocity":0.8661417322834646,"pitch":45,"id":"9a651196-38f5-4d9c-9591-4e52efb76ea5"},{"length":94,"position":208416,"velocity":0.8661417322834646,"pitch":45,"id":"ab6b98dd-9508-4bc7-b397-3d00172e4940"},{"length":94,"position":208416,"velocity":0.8661417322834646,"pitch":50,"id":"dbfde607-44aa-4561-a4b2-0076a8c1eafc"},{"length":94,"position":208416,"velocity":0.8661417322834646,"pitch":54,"id":"ca17c4c7-4b79-4159-895b-ed9b6de3e249"},{"length":94,"position":208512,"velocity":0.8661417322834646,"pitch":50,"id":"c17ac7f4-5c10-494d-bd13-27dc8f8c35f9"},{"length":94,"position":208608,"velocity":0.8661417322834646,"pitch":45,"id":"27e3ad56-6ad9-45de-94aa-0115c8ce0731"},{"length":94,"position":208608,"velocity":0.8661417322834646,"pitch":50,"id":"5d27ce00-4a79-4e4d-a509-02c07d3ac0d5"},{"length":94,"position":208608,"velocity":0.8661417322834646,"pitch":54,"id":"e8bdde54-39fc-4590-b05b-0db5790cf59d"},{"length":94,"position":208704,"velocity":0.8661417322834646,"pitch":52,"id":"54a3bf40-2363-46a3-9844-9c2f23765e15"},{"length":94,"position":208800,"velocity":0.8661417322834646,"pitch":45,"id":"719d5e30-15c0-4cd3-93ef-6c703078adfe"},{"length":94,"position":208800,"velocity":0.8661417322834646,"pitch":50,"id":"ac9d902a-1f6f-4817-a9c6-7c5e4cc7f591"},{"length":94,"position":208800,"velocity":0.8661417322834646,"pitch":54,"id":"006cbf8a-2b6f-4480-a13e-46bb194d4234"},{"length":160,"position":208896,"velocity":0.8661417322834646,"pitch":43,"id":"91456fc1-6202-48e4-9cca-7bb0b0e5c91e"},{"length":160,"position":208896,"velocity":0.8661417322834646,"pitch":47,"id":"f41a19e3-7878-4153-a64b-f9d0a8abb7ff"},{"length":160,"position":208896,"velocity":0.8661417322834646,"pitch":50,"id":"111c94ff-5c91-4524-8f97-d6c9581c5527"},{"length":160,"position":208896,"velocity":0.8661417322834646,"pitch":55,"id":"c2e6077a-3bea-46b7-807a-b4eeb78dedb4"},{"length":160,"position":209088,"velocity":0.8661417322834646,"pitch":55,"id":"e3bf3b8a-4c6c-4606-98d6-eab303fef92e"},{"length":160,"position":209280,"velocity":0.8661417322834646,"pitch":43,"id":"bb1ba785-f099-4c0c-aa27-18daea11dee3"},{"length":160,"position":209280,"velocity":0.8661417322834646,"pitch":46,"id":"25c3a127-a6f2-4599-b89f-8e888a970f72"},{"length":160,"position":209280,"velocity":0.8661417322834646,"pitch":49,"id":"60e358bc-d958-481e-b2de-c80c29a1108f"},{"length":160,"position":209280,"velocity":0.8661417322834646,"pitch":55,"id":"e89e9697-a935-4e3a-ba62-21379d8af44a"},{"length":160,"position":209472,"velocity":0.8661417322834646,"pitch":43,"id":"73e9048d-6694-4429-85e8-755fa696d400"},{"length":160,"position":209472,"velocity":0.8661417322834646,"pitch":46,"id":"90f91895-ea82-43b5-8f4c-3a7d12eeefa7"},{"length":160,"position":209472,"velocity":0.8661417322834646,"pitch":49,"id":"7011bd60-c346-4d7d-b936-566abed11cba"},{"length":160,"position":209472,"velocity":0.8661417322834646,"pitch":55,"id":"43cfc58a-1b73-4e08-a1d8-a1a5ebdba484"},{"length":94,"position":209664,"velocity":0.8661417322834646,"pitch":54,"id":"c0b19c74-752a-4d1f-b3e0-2648eaefcfc2"},{"length":94,"position":209760,"velocity":0.8661417322834646,"pitch":42,"id":"022fb9b3-6006-46e8-886f-dbc176e71f50"},{"length":94,"position":209760,"velocity":0.8661417322834646,"pitch":45,"id":"285c9a5c-0a69-41cb-bcb0-f3af205dcb05"},{"length":94,"position":209760,"velocity":0.8661417322834646,"pitch":50,"id":"6324f7d7-8a5f-40ac-ae0c-c21b64bc7ad0"},{"length":94,"position":209856,"velocity":0.8661417322834646,"pitch":49,"id":"2e712e8f-5708-462e-bc89-d20683807e9e"},{"length":94,"position":209952,"velocity":0.8661417322834646,"pitch":51,"id":"a7f78ba1-cac3-4013-bab9-b8c36cfe86da"},{"length":160,"position":210048,"velocity":0.8661417322834646,"pitch":42,"id":"94ad368c-95a3-4503-bb4f-ed33c298e665"},{"length":160,"position":210048,"velocity":0.8661417322834646,"pitch":45,"id":"c1469cd9-63fb-4606-81d1-61858cf6de43"},{"length":160,"position":210048,"velocity":0.8661417322834646,"pitch":50,"id":"107896b8-ba5f-4715-b616-c7e6d2245691"},{"length":160,"position":210048,"velocity":0.8661417322834646,"pitch":54,"id":"953aebaa-5a2e-4b1f-95c0-8b88b912e888"},{"length":160,"position":210240,"velocity":0.8661417322834646,"pitch":42,"id":"e2606a7e-7aae-4d14-a07b-d3319e34c550"},{"length":160,"position":210240,"velocity":0.8661417322834646,"pitch":45,"id":"32f4cc19-a84a-490e-bfb4-7db25896f4cd"},{"length":160,"position":210240,"velocity":0.8661417322834646,"pitch":50,"id":"36d6097c-c394-4a49-8799-30ed0161c062"},{"length":160,"position":210240,"velocity":0.8661417322834646,"pitch":54,"id":"ed7437b2-954f-4ffa-ae74-a09c86341ab4"},{"length":94,"position":210432,"velocity":0.8661417322834646,"pitch":52,"id":"1d26950e-a97d-4b92-adb2-865a53df6452"},{"length":94,"position":210528,"velocity":0.8661417322834646,"pitch":43,"id":"59bd3aa3-79bb-4cb2-9e8c-30b2459b1634"},{"length":94,"position":210528,"velocity":0.8661417322834646,"pitch":47,"id":"4aac35c9-59ca-405f-b063-c50156ea2654"},{"length":94,"position":210528,"velocity":0.8661417322834646,"pitch":50,"id":"b784c072-bf70-46d1-8526-a1f8e9e8340f"},{"length":94,"position":210624,"velocity":0.8661417322834646,"pitch":52,"id":"fe9ebd44-5025-4596-af0f-78a8f19dcaff"},{"length":94,"position":210720,"velocity":0.8661417322834646,"pitch":43,"id":"de2482c4-b1a5-410b-91ac-be9ca76b10ca"},{"length":94,"position":210720,"velocity":0.8661417322834646,"pitch":47,"id":"d955b709-2022-4378-879b-c04d9ed4f7a2"},{"length":94,"position":210720,"velocity":0.8661417322834646,"pitch":50,"id":"ae130230-2dbd-42e8-9d0d-290eac776268"},{"length":94,"position":210816,"velocity":0.8661417322834646,"pitch":50,"id":"6f0b4727-0852-45b4-8e1c-aede3866bb2d"},{"length":94,"position":210912,"velocity":0.8661417322834646,"pitch":43,"id":"042904bb-6ec7-4f59-b9c9-81d29e073794"},{"length":94,"position":210912,"velocity":0.8661417322834646,"pitch":47,"id":"a68e2837-0445-4a2f-8d79-5fcdd21db232"},{"length":94,"position":210912,"velocity":0.8661417322834646,"pitch":50,"id":"371141ae-fe3e-4ad1-876b-861d4cf298f5"},{"length":94,"position":211008,"velocity":0.8661417322834646,"pitch":50,"id":"49504ae9-ed80-4849-8087-7c2de85cde88"},{"length":94,"position":211104,"velocity":0.8661417322834646,"pitch":43,"id":"09ec07e7-3f2b-4356-9ebd-52ac4a21e710"},{"length":94,"position":211104,"velocity":0.8661417322834646,"pitch":46,"id":"076244d4-cbb5-41ae-ae8a-d38d89878c1e"},{"length":94,"position":211104,"velocity":0.8661417322834646,"pitch":50,"id":"a5209d6f-e27f-4c43-b947-172034d51174"},{"length":160,"position":211200,"velocity":0.8661417322834646,"pitch":42,"id":"d7742298-896f-434d-8499-9f497239073e"},{"length":160,"position":211200,"velocity":0.8661417322834646,"pitch":45,"id":"20fd0a25-f267-4c5b-9cb1-826c9d649a97"},{"length":160,"position":211200,"velocity":0.8661417322834646,"pitch":50,"id":"49214240-ba68-468a-af95-4ec1e036b030"},{"length":160,"position":211392,"velocity":0.8661417322834646,"pitch":45,"id":"c01f8e60-787e-41c1-8586-f825d9ea04e7"},{"length":94,"position":211584,"velocity":0.8661417322834646,"pitch":50,"id":"a3c19acd-4fd6-4e44-bf11-9b987d243c25"},{"length":94,"position":211680,"velocity":0.8661417322834646,"pitch":42,"id":"01327a01-6a60-4a7e-b398-5b62450cf88b"},{"length":94,"position":211680,"velocity":0.8661417322834646,"pitch":45,"id":"404b3fa5-2681-4808-87e2-3e932ceb56ac"},{"length":94,"position":211680,"velocity":0.8661417322834646,"pitch":50,"id":"e0cf400e-0245-46d9-830c-463d2c8ab1c3"},{"length":46,"position":211776,"velocity":0.8661417322834646,"pitch":45,"id":"db68ad04-251e-41d5-96d9-b84914785e37"},{"length":142,"position":211824,"velocity":0.8661417322834646,"pitch":42,"id":"5b1dc195-f118-4bd9-aecf-101d6f0b45f4"},{"length":142,"position":211824,"velocity":0.8661417322834646,"pitch":45,"id":"814022e1-554d-4120-b023-398c4d8c0f68"},{"length":142,"position":211824,"velocity":0.8661417322834646,"pitch":50,"id":"1f09c1e9-c7d8-49e2-8ee5-b3cd38aaa787"},{"length":94,"position":211968,"velocity":0.8661417322834646,"pitch":50,"id":"0d81e928-eb33-4b3b-976c-56b90be8db90"},{"length":94,"position":212064,"velocity":0.8661417322834646,"pitch":45,"id":"bc5325b1-56a8-49f2-b579-722ceb561525"},{"length":94,"position":212064,"velocity":0.8661417322834646,"pitch":50,"id":"935b20e2-1d21-4f8c-9253-06f79f64daeb"},{"length":94,"position":212064,"velocity":0.8661417322834646,"pitch":54,"id":"ac8cc092-f210-4c59-ba81-627c3eff5485"},{"length":94,"position":212160,"velocity":0.8661417322834646,"pitch":49,"id":"9f8f320c-d767-44e4-9070-1cfe947cd92a"},{"length":94,"position":212256,"velocity":0.8661417322834646,"pitch":45,"id":"cf1abad3-6ea8-4406-8577-3cf3c068ca4b"},{"length":94,"position":212256,"velocity":0.8661417322834646,"pitch":50,"id":"e2829c30-2fbf-4a66-b15a-66d4486eafe2"},{"length":94,"position":212256,"velocity":0.8661417322834646,"pitch":54,"id":"ad2ea85f-526a-4faf-93ed-45741e0a092c"},{"length":94,"position":212352,"velocity":0.8661417322834646,"pitch":47,"id":"29ad9d15-36c5-40fe-a130-617b435542f6"},{"length":94,"position":212448,"velocity":0.8661417322834646,"pitch":45,"id":"29b9ea11-458c-44cf-919d-e8f29509b57d"},{"length":94,"position":212448,"velocity":0.8661417322834646,"pitch":50,"id":"41f2ee3d-3cc7-4571-8753-3264d32240d2"},{"length":94,"position":212448,"velocity":0.8661417322834646,"pitch":54,"id":"c836c3f8-2e01-4b58-9032-bb842c1c4f27"},{"length":94,"position":212544,"velocity":0.8661417322834646,"pitch":45,"id":"5e8f6ed2-336c-448a-806f-0383d8b5c8a4"},{"length":94,"position":212640,"velocity":0.8661417322834646,"pitch":45,"id":"b96b3e56-0aeb-4270-8767-1ec242f44b9c"},{"length":94,"position":212640,"velocity":0.8661417322834646,"pitch":50,"id":"bffc4f1e-f1bf-4643-932b-df7ffb2008c8"},{"length":94,"position":212640,"velocity":0.8661417322834646,"pitch":54,"id":"ec8781ce-4014-4783-9c2c-3ab9de752ee3"},{"length":94,"position":212736,"velocity":0.8661417322834646,"pitch":50,"id":"8e506fcd-bb27-47af-b674-f4da98de50a7"},{"length":94,"position":212832,"velocity":0.8661417322834646,"pitch":45,"id":"9bcf0f56-2b92-4d54-9e4a-f8500560721f"},{"length":94,"position":212832,"velocity":0.8661417322834646,"pitch":50,"id":"b16c3e3e-cf50-4faf-9500-08221555be6a"},{"length":94,"position":212832,"velocity":0.8661417322834646,"pitch":54,"id":"b3823060-58c4-44bd-a85e-fa429babae3e"},{"length":94,"position":212928,"velocity":0.8661417322834646,"pitch":45,"id":"265c7eb9-0e88-4972-84c1-8fe6866da84e"},{"length":94,"position":213024,"velocity":0.8661417322834646,"pitch":45,"id":"7680eeeb-f722-4305-898f-10b18813a126"},{"length":94,"position":213024,"velocity":0.8661417322834646,"pitch":50,"id":"35a1c7c4-872f-4dac-917b-0c189f866f79"},{"length":94,"position":213024,"velocity":0.8661417322834646,"pitch":54,"id":"560d5e87-8661-4c3e-835d-fb93b4fa5b4a"},{"length":94,"position":213120,"velocity":0.8661417322834646,"pitch":50,"id":"861ad96e-a3a2-456d-8b5b-9f7243a2fcc5"},{"length":94,"position":213216,"velocity":0.8661417322834646,"pitch":45,"id":"c90ca8dd-f1c8-46cd-8e2d-1ab601741c3f"},{"length":94,"position":213216,"velocity":0.8661417322834646,"pitch":50,"id":"f652ed7e-6264-48a3-8555-6364c033d4d8"},{"length":94,"position":213216,"velocity":0.8661417322834646,"pitch":54,"id":"36286257-226e-4d7a-a58a-2bc1507f45df"},{"length":94,"position":213312,"velocity":0.8661417322834646,"pitch":52,"id":"f1c930ba-48fe-4892-93de-bb0311fce3bc"},{"length":94,"position":213408,"velocity":0.8661417322834646,"pitch":45,"id":"7bbbf79e-e269-4cd8-af1e-6310d483ca6b"},{"length":94,"position":213408,"velocity":0.8661417322834646,"pitch":50,"id":"96477ddf-6756-4806-a6e2-d7128509a859"},{"length":94,"position":213408,"velocity":0.8661417322834646,"pitch":54,"id":"99c554ef-d818-4529-a429-878eeff1e228"},{"length":160,"position":213504,"velocity":0.8661417322834646,"pitch":47,"id":"f84fb1d0-68b6-416a-8a4a-57e39db2a3b7"},{"length":160,"position":213504,"velocity":0.8661417322834646,"pitch":50,"id":"4be697e7-7604-4865-9e56-c8fd0ba7ec6c"},{"length":160,"position":213504,"velocity":0.8661417322834646,"pitch":55,"id":"92e85de0-1c7c-45b2-a239-a98c3e7b4ff5"},{"length":94,"position":213696,"velocity":0.8661417322834646,"pitch":54,"id":"a03583ff-5771-42f1-be8e-3b4b90ef13e8"},{"length":94,"position":213792,"velocity":0.8661417322834646,"pitch":47,"id":"4a424e31-e9a8-417a-8f7a-a831ada7b502"},{"length":94,"position":213792,"velocity":0.8661417322834646,"pitch":50,"id":"afdee276-a469-4e01-a212-c12c02d83581"},{"length":94,"position":213792,"velocity":0.8661417322834646,"pitch":55,"id":"3e88c3c0-a363-444f-9efd-65f6016975bd"},{"length":94,"position":213888,"velocity":0.8661417322834646,"pitch":52,"id":"3eae34b2-ca2e-434b-816b-aae52a5976aa"},{"length":94,"position":213984,"velocity":0.8661417322834646,"pitch":47,"id":"b68b8fd3-fbe8-41f2-937f-6c1d5707ce81"},{"length":94,"position":213984,"velocity":0.8661417322834646,"pitch":50,"id":"67585a6e-a0ef-4766-99b2-49df05675c94"},{"length":94,"position":213984,"velocity":0.8661417322834646,"pitch":55,"id":"ec53213a-b6db-46cb-863f-3adf2bd1d534"},{"length":94,"position":214080,"velocity":0.8661417322834646,"pitch":50,"id":"4aeff474-bd77-4874-9de4-accda4649767"},{"length":94,"position":214176,"velocity":0.8661417322834646,"pitch":47,"id":"ccb7a5be-ab64-4154-b6cf-730dbf13ed90"},{"length":94,"position":214176,"velocity":0.8661417322834646,"pitch":50,"id":"84e4c728-f256-4267-83ff-e77df6ab0da1"},{"length":94,"position":214176,"velocity":0.8661417322834646,"pitch":55,"id":"6eda43a3-7676-4a62-8dd5-9bb7de8db3c1"},{"length":94,"position":214272,"velocity":0.8661417322834646,"pitch":55,"id":"7332e0d3-9e73-4a37-917d-b44fd11135dd"},{"length":94,"position":214368,"velocity":0.8661417322834646,"pitch":47,"id":"24fa5b6f-4387-4527-9231-c2b69fe67d8a"},{"length":94,"position":214368,"velocity":0.8661417322834646,"pitch":50,"id":"3243edbd-50ac-465d-b611-75787e660efa"},{"length":94,"position":214368,"velocity":0.8661417322834646,"pitch":55,"id":"15f4326c-d1d7-4ba2-a01f-afc53c45b142"},{"length":94,"position":214464,"velocity":0.8661417322834646,"pitch":50,"id":"fa77fa19-ac1f-41cc-90f1-224a936f311a"},{"length":94,"position":214560,"velocity":0.8661417322834646,"pitch":47,"id":"2c0a97c0-7a1e-446e-8e3f-bef989c1729f"},{"length":94,"position":214560,"velocity":0.8661417322834646,"pitch":50,"id":"6c916616-5d88-4124-9650-657af2840099"},{"length":94,"position":214560,"velocity":0.8661417322834646,"pitch":55,"id":"c6479e14-c0aa-47b9-8ff9-4024c2206bbb"},{"length":94,"position":214656,"velocity":0.8661417322834646,"pitch":55,"id":"84145b81-88d0-4bfb-bc63-52b07a0d89ce"},{"length":46,"position":214752,"velocity":0.8661417322834646,"pitch":47,"id":"f88366d5-d807-45f0-8757-53d3fb0a8277"},{"length":46,"position":214752,"velocity":0.8661417322834646,"pitch":50,"id":"32de162a-72a9-4402-b72b-4035c849b5a5"},{"length":46,"position":214752,"velocity":0.8661417322834646,"pitch":55,"id":"86c14629-ecff-40bb-ac2d-b98df66a4c4b"},{"length":46,"position":214800,"velocity":0.8661417322834646,"pitch":55,"id":"684f8f57-229a-4f87-9dd0-32c001e2e691"},{"length":94,"position":214848,"velocity":0.8661417322834646,"pitch":54,"id":"afe3b880-083e-4ff3-80d2-fc5d31cfe41c"},{"length":94,"position":214944,"velocity":0.8661417322834646,"pitch":47,"id":"de707783-b491-4b00-82cc-fd4da93bb99b"},{"length":94,"position":214944,"velocity":0.8661417322834646,"pitch":50,"id":"1118d4af-6e01-445a-a41d-bcee8668ecb9"},{"length":94,"position":214944,"velocity":0.8661417322834646,"pitch":52,"id":"0791715f-77db-43b4-aac3-1620ee461b82"},{"length":94,"position":214944,"velocity":0.8661417322834646,"pitch":55,"id":"ced5cb5a-c30b-4c71-a101-b3290f8e2b04"},{"length":142,"position":215040,"velocity":0.8661417322834646,"pitch":45,"id":"c2f02c9a-5ffe-4c49-91d7-1515ff6296cb"},{"length":142,"position":215040,"velocity":0.8661417322834646,"pitch":50,"id":"8be08077-fad2-42cd-bb50-3bcd768fa7d9"},{"length":142,"position":215040,"velocity":0.8661417322834646,"pitch":54,"id":"57fbc161-3111-42ef-bc09-f82b89178946"},{"length":46,"position":215184,"velocity":0.8661417322834646,"pitch":45,"id":"a276b9fd-2843-46ac-9a71-bc3c6d2d85d8"},{"length":46,"position":215184,"velocity":0.8661417322834646,"pitch":50,"id":"37094b85-3243-4e99-8aa6-4826fb14827c"},{"length":46,"position":215184,"velocity":0.8661417322834646,"pitch":54,"id":"f6a220ce-deea-40d5-b429-743a58a71cdc"},{"length":94,"position":215232,"velocity":0.8661417322834646,"pitch":49,"id":"0b59400d-e0f9-4358-9d55-69cb52e59899"},{"length":94,"position":215328,"velocity":0.8661417322834646,"pitch":45,"id":"20c9df14-cc07-42be-950f-ea109d96581b"},{"length":94,"position":215328,"velocity":0.8661417322834646,"pitch":50,"id":"83ad4d71-d3a3-4cea-9de0-fbb314809f83"},{"length":94,"position":215328,"velocity":0.8661417322834646,"pitch":54,"id":"bd4b09ae-5374-4ea3-837a-79251bdd9450"},{"length":94,"position":215424,"velocity":0.8661417322834646,"pitch":47,"id":"0ce4d262-9d08-4ae6-80e4-16047d4002e0"},{"length":94,"position":215520,"velocity":0.8661417322834646,"pitch":45,"id":"f3070b91-bda7-4165-9785-bd151c67d5a0"},{"length":94,"position":215520,"velocity":0.8661417322834646,"pitch":50,"id":"06b87a19-c8f5-4a73-8dcd-53bcd5cc14e2"},{"length":94,"position":215520,"velocity":0.8661417322834646,"pitch":54,"id":"7c11a63e-09b1-4a88-bd21-3edb2d2e86c7"},{"length":94,"position":215616,"velocity":0.8661417322834646,"pitch":45,"id":"8e43798c-da25-41a3-b7d0-5fe118376bfe"},{"length":94,"position":215712,"velocity":0.8661417322834646,"pitch":45,"id":"1106799c-8ed9-47cb-8f6f-d0a2bd3779f5"},{"length":94,"position":215712,"velocity":0.8661417322834646,"pitch":50,"id":"2c29a066-5d4b-4039-b7e8-1962f371d191"},{"length":94,"position":215712,"velocity":0.8661417322834646,"pitch":54,"id":"932a69f0-2ff0-4a92-8757-062451d15012"},{"length":160,"position":215808,"velocity":0.8661417322834646,"pitch":45,"id":"3cd2d48e-a074-4e23-afa7-b6675f624072"},{"length":160,"position":215808,"velocity":0.8661417322834646,"pitch":50,"id":"01c6ce0f-4065-4334-bb37-ec79fbb7c17f"},{"length":160,"position":215808,"velocity":0.8661417322834646,"pitch":54,"id":"2d9df01d-01b9-40b4-98d8-d2bea3f9d379"},{"length":94,"position":216000,"velocity":0.8661417322834646,"pitch":45,"id":"a29f60c1-3858-4a10-9ec9-a2a1ce90676d"},{"length":94,"position":216096,"velocity":0.8661417322834646,"pitch":45,"id":"1fd564b9-06d7-47aa-af7a-5bb0807f4681"},{"length":94,"position":216096,"velocity":0.8661417322834646,"pitch":50,"id":"5e06b0ad-a92e-49a5-804d-eef4564fd27d"},{"length":94,"position":216096,"velocity":0.8661417322834646,"pitch":54,"id":"0e4df0a8-eeea-47be-bad3-b795a9868047"},{"length":94,"position":216192,"velocity":0.8661417322834646,"pitch":50,"id":"c09d1ad3-c008-41cd-ad07-8bb303c20105"},{"length":94,"position":216288,"velocity":0.8661417322834646,"pitch":45,"id":"42448e5a-0cc0-4551-9bdd-0f7d50d00e9d"},{"length":94,"position":216288,"velocity":0.8661417322834646,"pitch":50,"id":"0c525782-609f-47d0-9e30-e41517b36665"},{"length":94,"position":216288,"velocity":0.8661417322834646,"pitch":54,"id":"bc5df94f-17ec-47cf-8c67-8465d0b19c5a"},{"length":94,"position":216384,"velocity":0.8661417322834646,"pitch":52,"id":"dcbe0062-7031-40bd-8c93-c758affe1a3a"},{"length":94,"position":216480,"velocity":0.8661417322834646,"pitch":45,"id":"186ac785-9fea-47f0-a0dc-7a6ad6d28246"},{"length":94,"position":216480,"velocity":0.8661417322834646,"pitch":50,"id":"ecfd83d3-66db-4c0f-8f1e-82d919fffae4"},{"length":94,"position":216480,"velocity":0.8661417322834646,"pitch":54,"id":"30639182-fbaf-4012-88c7-83a9961e7ac5"},{"length":142,"position":216576,"velocity":0.8661417322834646,"pitch":47,"id":"4d30598b-0e19-4970-ba8a-11330a60e1fc"},{"length":142,"position":216576,"velocity":0.8661417322834646,"pitch":50,"id":"d5ea26fb-a547-434d-b99a-79657138a8e6"},{"length":142,"position":216576,"velocity":0.8661417322834646,"pitch":55,"id":"803d68ef-883a-4dab-9011-e3b8253fa555"},{"length":46,"position":216720,"velocity":0.8661417322834646,"pitch":47,"id":"bedebf88-f7bf-4e4e-a62f-4e137f9c84e4"},{"length":46,"position":216720,"velocity":0.8661417322834646,"pitch":50,"id":"928d9abb-7b6c-45d5-bcd8-6d5e47c6e90a"},{"length":46,"position":216720,"velocity":0.8661417322834646,"pitch":55,"id":"eabd3a75-7b4b-4770-974f-3b42edde02a6"},{"length":94,"position":216768,"velocity":0.8661417322834646,"pitch":50,"id":"251ef37c-a953-424c-aab3-a36440e94c6b"},{"length":94,"position":216864,"velocity":0.8661417322834646,"pitch":47,"id":"7b30689c-2849-4199-ac3c-ac5e41d119f0"},{"length":94,"position":216864,"velocity":0.8661417322834646,"pitch":50,"id":"ede4da2f-d6fb-484a-b259-343ed9e71999"},{"length":94,"position":216864,"velocity":0.8661417322834646,"pitch":55,"id":"32b54875-1ce8-4001-b490-01c624f00541"},{"length":94,"position":216960,"velocity":0.8661417322834646,"pitch":55,"id":"a08d6f3d-0302-4bd9-878e-1c79e4d603e1"},{"length":94,"position":217056,"velocity":0.8661417322834646,"pitch":47,"id":"5fe13388-4ab1-4ba3-9d45-8def6f0e77a8"},{"length":94,"position":217056,"velocity":0.8661417322834646,"pitch":50,"id":"ab5a3b8b-c546-4171-94ec-60f0e7980ec1"},{"length":94,"position":217056,"velocity":0.8661417322834646,"pitch":55,"id":"2b1b6202-128e-427e-99ef-5f736b89dd93"},{"length":94,"position":217152,"velocity":0.8661417322834646,"pitch":50,"id":"26d40180-10f4-4320-8b83-af192591c769"},{"length":94,"position":217248,"velocity":0.8661417322834646,"pitch":47,"id":"2fb01af8-b3b7-425a-b470-4897feacf332"},{"length":94,"position":217248,"velocity":0.8661417322834646,"pitch":50,"id":"50aa5ea5-bda1-4377-9cd0-3c1fd6215b38"},{"length":94,"position":217248,"velocity":0.8661417322834646,"pitch":55,"id":"29c041b0-5913-4621-8961-a4e3ca722e3e"},{"length":94,"position":217344,"velocity":0.8661417322834646,"pitch":55,"id":"68345ab5-b645-4d54-8cbc-51989534364e"},{"length":94,"position":217440,"velocity":0.8661417322834646,"pitch":47,"id":"c018efdc-78e9-41e8-8c95-125874a0ae52"},{"length":94,"position":217440,"velocity":0.8661417322834646,"pitch":50,"id":"93ea3189-2133-4332-847f-d99506e82bb6"},{"length":94,"position":217440,"velocity":0.8661417322834646,"pitch":55,"id":"fee00b12-9f44-471c-a271-c478cd67482b"},{"length":94,"position":217536,"velocity":0.8661417322834646,"pitch":50,"id":"835d9dd8-302a-48c2-bbdd-ba6ca592d1b9"},{"length":94,"position":217632,"velocity":0.8661417322834646,"pitch":47,"id":"d1772464-ea98-48e5-9bf4-eadc35106b45"},{"length":94,"position":217632,"velocity":0.8661417322834646,"pitch":50,"id":"80e21491-d020-4936-9ce8-c4f9b8408f63"},{"length":94,"position":217632,"velocity":0.8661417322834646,"pitch":55,"id":"eded4fc7-89f2-472a-bab9-243b7102368b"},{"length":94,"position":217728,"velocity":0.8661417322834646,"pitch":55,"id":"2e24e9f6-adf8-468d-9f28-b00dbad92954"},{"length":94,"position":217824,"velocity":0.8661417322834646,"pitch":47,"id":"7f35244d-9cbd-4c40-84c2-5abc3b811db5"},{"length":94,"position":217824,"velocity":0.8661417322834646,"pitch":50,"id":"5199445a-ceed-43c1-8133-65bd0a7334d8"},{"length":94,"position":217824,"velocity":0.8661417322834646,"pitch":55,"id":"d0bbff3c-aca0-4721-a409-bc36d742c23f"},{"length":94,"position":217920,"velocity":0.8661417322834646,"pitch":54,"id":"c37e0698-0ec6-4794-a43e-3a94bdc1c210"},{"length":94,"position":218016,"velocity":0.8661417322834646,"pitch":47,"id":"9745f39b-4207-47f0-a00d-0ab41ba14b5e"},{"length":94,"position":218016,"velocity":0.8661417322834646,"pitch":50,"id":"6df5ac5b-2074-4d84-9ecf-62ad49c29ddc"},{"length":94,"position":218016,"velocity":0.8661417322834646,"pitch":55,"id":"9f5796e1-2894-470b-bef6-83c85fdb4681"},{"length":160,"position":218112,"velocity":0.8661417322834646,"pitch":42,"id":"55d5c66f-0c04-4b43-a5d1-8cc5e072c6b2"},{"length":160,"position":218112,"velocity":0.8661417322834646,"pitch":45,"id":"ff77c0c2-80f9-411f-8f47-8b041bd9a105"},{"length":160,"position":218112,"velocity":0.8661417322834646,"pitch":50,"id":"595fc2ab-5b2e-4789-a337-1b626f8f57b5"},{"length":160,"position":218304,"velocity":0.8661417322834646,"pitch":45,"id":"c8758b11-75f1-49bd-a557-2a5576db187b"},{"length":94,"position":218496,"velocity":0.8661417322834646,"pitch":50,"id":"147a5191-6000-4da0-9638-ee841061cd2d"},{"length":94,"position":218592,"velocity":0.8661417322834646,"pitch":42,"id":"becb3ff9-435e-4d0c-aad5-0c9b1d2fefef"},{"length":94,"position":218592,"velocity":0.8661417322834646,"pitch":45,"id":"7f7f4ac8-3cf5-40b4-b7a1-4606180668dc"},{"length":94,"position":218592,"velocity":0.8661417322834646,"pitch":50,"id":"2d513436-ec03-45b3-92fb-3279a8f1cf25"},{"length":46,"position":218688,"velocity":0.8661417322834646,"pitch":45,"id":"9409fb36-7eea-4bdb-a696-6b93b9946022"},{"length":142,"position":218736,"velocity":0.8661417322834646,"pitch":42,"id":"69b45701-e10c-4ae6-bad5-15c33d5836da"},{"length":142,"position":218736,"velocity":0.8661417322834646,"pitch":45,"id":"3b9a4db0-e5f4-4bdc-a4d6-57c7e7ab50ae"},{"length":142,"position":218736,"velocity":0.8661417322834646,"pitch":50,"id":"46e6112d-465e-4461-8736-268239df5093"},{"length":160,"position":218880,"velocity":0.8661417322834646,"pitch":42,"id":"6b2b6d90-1c2d-4141-94c7-457e1d31c78b"},{"length":160,"position":218880,"velocity":0.8661417322834646,"pitch":45,"id":"20f79f72-a18e-4302-9e6a-79f28aa96603"},{"length":160,"position":218880,"velocity":0.8661417322834646,"pitch":50,"id":"99558f27-8e42-4bad-8704-0c8fee3365ec"},{"length":94,"position":219072,"velocity":0.8661417322834646,"pitch":45,"id":"2e1ecabc-8f05-4f5e-b35d-246869d96e51"},{"length":94,"position":219168,"velocity":0.8661417322834646,"pitch":42,"id":"435936c5-a380-41b7-b3b8-1aa5102f6ba1"},{"length":94,"position":219168,"velocity":0.8661417322834646,"pitch":45,"id":"c29e5bb2-afb4-4d9d-b150-251323a6b3c2"},{"length":94,"position":219168,"velocity":0.8661417322834646,"pitch":50,"id":"47847f61-a423-42a7-8557-a69f271b4ba0"},{"length":94,"position":219264,"velocity":0.8661417322834646,"pitch":50,"id":"4cd8d05f-8046-4517-8831-b757c3695981"},{"length":94,"position":219360,"velocity":0.8661417322834646,"pitch":42,"id":"a79443b5-870c-4a35-855e-68518852e4ef"},{"length":94,"position":219360,"velocity":0.8661417322834646,"pitch":45,"id":"80803ca0-7652-4a9e-aa52-8650eee0b62a"},{"length":94,"position":219360,"velocity":0.8661417322834646,"pitch":50,"id":"ef0035c4-9738-4325-a005-9033b25e6937"},{"length":94,"position":219456,"velocity":0.8661417322834646,"pitch":52,"id":"f7410474-255f-4391-93f6-bf11d45bb293"},{"length":94,"position":219552,"velocity":0.8661417322834646,"pitch":42,"id":"f47f82c7-45d9-4761-998b-aea279687140"},{"length":94,"position":219552,"velocity":0.8661417322834646,"pitch":45,"id":"c85caeb1-4df2-4657-94f4-91b6697214e5"},{"length":94,"position":219552,"velocity":0.8661417322834646,"pitch":50,"id":"b7ace159-5615-4d48-a703-738d8d6759b7"},{"length":94,"position":219552,"velocity":0.8661417322834646,"pitch":54,"id":"04936313-48e4-4369-9fd8-41ab749e315c"},{"length":160,"position":219648,"velocity":0.8661417322834646,"pitch":47,"id":"2fc985dd-ab44-4245-a8cc-e969e96f362c"},{"length":160,"position":219648,"velocity":0.8661417322834646,"pitch":50,"id":"0bdc7f19-0d5c-4ecf-9be7-bbe02240357a"},{"length":160,"position":219648,"velocity":0.8661417322834646,"pitch":55,"id":"471e44a2-2aa9-42bf-b03f-6417e7a78c3c"},{"length":94,"position":219840,"velocity":0.8661417322834646,"pitch":50,"id":"72da6c76-17c4-4794-a8c6-84edb56bde6b"},{"length":94,"position":219936,"velocity":0.8661417322834646,"pitch":47,"id":"2bed2ed8-c88d-4059-970e-86195f87980b"},{"length":94,"position":219936,"velocity":0.8661417322834646,"pitch":50,"id":"cf2a3a0e-baf6-41ef-a803-983430ed4f5c"},{"length":94,"position":219936,"velocity":0.8661417322834646,"pitch":55,"id":"5325f610-b6b9-480b-a291-3ebe163d8f98"},{"length":160,"position":220032,"velocity":0.8661417322834646,"pitch":47,"id":"24f6f4a4-1849-42ed-af8d-a0e9677a7ea4"},{"length":160,"position":220032,"velocity":0.8661417322834646,"pitch":50,"id":"b399a5bf-4a76-49a2-aacf-17d612344514"},{"length":160,"position":220032,"velocity":0.8661417322834646,"pitch":55,"id":"f2a1e204-66a8-4275-8b70-5f82103d068e"},{"length":160,"position":220224,"velocity":0.8661417322834646,"pitch":47,"id":"ca0eb524-5c79-4d0f-adbb-2e9aee438e42"},{"length":160,"position":220224,"velocity":0.8661417322834646,"pitch":50,"id":"47f24a46-ae7c-449c-b4a5-7d2b40ba3756"},{"length":160,"position":220224,"velocity":0.8661417322834646,"pitch":55,"id":"53a0ab2b-fd84-4baf-930d-3f5fcf8f66d1"},{"length":94,"position":220416,"velocity":0.8661417322834646,"pitch":57,"id":"3f3dcdfc-a150-422f-a0c5-ef323e4326d8"},{"length":94,"position":220512,"velocity":0.8661417322834646,"pitch":47,"id":"f629f6a4-4b50-46d6-bc15-277617332f3c"},{"length":94,"position":220512,"velocity":0.8661417322834646,"pitch":50,"id":"7db49973-ab96-43d5-8101-1128fb423b8c"},{"length":94,"position":220512,"velocity":0.8661417322834646,"pitch":55,"id":"c6b8a15c-fe74-4cec-83d6-e11cdfc1ab86"},{"length":94,"position":220608,"velocity":0.8661417322834646,"pitch":52,"id":"6a6ab65a-cf33-414f-b18f-c09f5a99dc5c"},{"length":94,"position":220704,"velocity":0.8661417322834646,"pitch":47,"id":"7b40d5c7-21a4-4063-b1a2-1605e9159926"},{"length":94,"position":220704,"velocity":0.8661417322834646,"pitch":50,"id":"f592f1c4-97b6-4041-b813-b027072fb654"},{"length":94,"position":220704,"velocity":0.8661417322834646,"pitch":55,"id":"a565cb08-5bf9-4c36-a62f-65d4bc8c78fd"},{"length":94,"position":220800,"velocity":0.8661417322834646,"pitch":57,"id":"10dcaec3-20f4-4ea8-8d4c-13d07c65e19e"},{"length":94,"position":220896,"velocity":0.8661417322834646,"pitch":47,"id":"799dbb91-cc37-4d37-8220-6aa29ba43432"},{"length":94,"position":220896,"velocity":0.8661417322834646,"pitch":50,"id":"699e70b6-8212-406e-bf94-0012f0ef36d4"},{"length":94,"position":220896,"velocity":0.8661417322834646,"pitch":55,"id":"605fcfcb-305d-4f73-acf5-343cb73c5b92"},{"length":94,"position":220992,"velocity":0.8661417322834646,"pitch":52,"id":"e33357b4-8540-4186-b667-b9eb89551b2c"},{"length":94,"position":221088,"velocity":0.8661417322834646,"pitch":47,"id":"d38a8be3-ca17-45f1-b252-6c88ccff1650"},{"length":94,"position":221088,"velocity":0.8661417322834646,"pitch":50,"id":"8cc1a991-021e-4e89-a70a-07fd17dabd16"},{"length":94,"position":221088,"velocity":0.8661417322834646,"pitch":55,"id":"7616fe32-40e5-4120-803c-a4932d601f7e"},{"length":3232,"position":221184,"velocity":0.8661417322834646,"pitch":38,"id":"71db9c0a-55b6-44df-bd83-558152b63cb5"},{"length":3232,"position":221184,"velocity":0.8661417322834646,"pitch":50,"id":"a7617bde-071f-48d6-9d67-e001af2a12d9"},{"length":2832,"position":224448,"velocity":0.8661417322834646,"pitch":38,"id":"c8eeb9ec-c1f6-411f-9fa4-e809ca7b183f"},{"length":2832,"position":224448,"velocity":0.8661417322834646,"pitch":50,"id":"92c79f57-6e49-4852-85f4-f281735a1f56"},{"length":1488,"position":227328,"velocity":0.8661417322834646,"pitch":38,"id":"f648ea88-6d74-4444-a04b-b273448e0473"},{"length":1488,"position":227328,"velocity":0.8661417322834646,"pitch":50,"id":"2958999b-2df8-4126-9719-8eb0d60dde97"},{"length":928,"position":228864,"velocity":0.8661417322834646,"pitch":38,"id":"3b39115b-8924-45c1-b228-25c04621ddb1"},{"length":928,"position":228864,"velocity":0.8661417322834646,"pitch":50,"id":"bf466540-9250-4a70-9066-caebb29e93a9"},{"length":160,"position":229824,"velocity":0.8661417322834646,"pitch":40,"id":"f6e26772-e562-4f9d-ab0d-328e473e1d51"},{"length":160,"position":229824,"velocity":0.8661417322834646,"pitch":52,"id":"93a98398-a62f-45f1-8cc1-f198317654ee"},{"length":336,"position":230016,"velocity":0.8661417322834646,"pitch":41,"id":"13d362af-3f2c-426b-bbcc-30d8998716b6"},{"length":336,"position":230016,"velocity":0.8661417322834646,"pitch":53,"id":"eb76c6c7-fa4a-4bbf-a1e4-a9000cbb4e52"},{"length":336,"position":230400,"velocity":0.8661417322834646,"pitch":43,"id":"29d0c365-dc80-4e48-afbb-662f32e90ba6"},{"length":336,"position":230784,"velocity":0.8661417322834646,"pitch":45,"id":"a58e12c1-150d-4f70-8eaf-e7cd8e888f3d"},{"length":336,"position":231168,"velocity":0.8661417322834646,"pitch":43,"id":"293bc38b-211e-47bd-bc06-7708c91498d3"},{"length":336,"position":231552,"velocity":0.8661417322834646,"pitch":41,"id":"97bc512b-cac2-4289-9b0f-7d81852eeb62"},{"length":336,"position":231552,"velocity":0.8661417322834646,"pitch":53,"id":"9ecaa7a2-7776-488b-a724-9d3831a79ddb"},{"length":94,"position":231936,"velocity":0.8661417322834646,"pitch":40,"id":"bea6d581-19d5-4c4e-892c-53989ddf3ff7"},{"length":94,"position":231936,"velocity":0.8661417322834646,"pitch":52,"id":"fea98aee-54e1-4df3-bf80-a248216ec7a1"},{"length":94,"position":232032,"velocity":0.8661417322834646,"pitch":43,"id":"c7fb2b38-b72f-4ceb-928d-82d29d9fbe4d"},{"length":94,"position":232128,"velocity":0.8661417322834646,"pitch":46,"id":"e95a32de-0dcf-4596-9d34-87c6a128d45d"},{"length":94,"position":232224,"velocity":0.8661417322834646,"pitch":44,"id":"51d2482e-cf6c-43ee-bb7c-60c2e5da1194"},{"length":336,"position":232320,"velocity":0.8661417322834646,"pitch":45,"id":"85b937fa-5c2b-4a26-895a-3b36320aca20"},{"length":1102,"position":232704,"velocity":0.8661417322834646,"pitch":38,"id":"f96f796a-00f8-4ee6-9a70-22f10e2e9cad"},{"length":1102,"position":232704,"velocity":0.8661417322834646,"pitch":50,"id":"16a30c2a-4992-4ecc-95bf-f0d5ea1bc497"},{"length":46,"position":233808,"velocity":0.8661417322834646,"pitch":52,"id":"69eba241-1f54-430e-8d07-d734f81e77d2"},{"length":46,"position":233856,"velocity":0.8661417322834646,"pitch":53,"id":"f8837f93-c936-4e60-a089-1d5a9e941d77"},{"length":46,"position":233904,"velocity":0.8661417322834646,"pitch":50,"id":"4c6ef445-06b4-4d9d-8fa0-677eea746ee6"},{"length":46,"position":233952,"velocity":0.8661417322834646,"pitch":49,"id":"029910a5-f8fd-48b3-9b0c-5ac1e672173b"},{"length":46,"position":234000,"velocity":0.8661417322834646,"pitch":50,"id":"7078574c-4a4c-443b-880c-138732c884db"},{"length":46,"position":234048,"velocity":0.8661417322834646,"pitch":51,"id":"61e43a99-2991-4a5d-838d-072e8a6d9632"},{"length":46,"position":234096,"velocity":0.8661417322834646,"pitch":50,"id":"23ff74e7-b66e-4c3d-bdbd-b750321f254b"},{"length":46,"position":234144,"velocity":0.8661417322834646,"pitch":49,"id":"02a9f21a-2cbe-421e-9dec-0d2ba6f97222"},{"length":46,"position":234192,"velocity":0.8661417322834646,"pitch":44,"id":"8c5408ce-69e6-48f6-acf8-81003077124e"},{"length":94,"position":234240,"velocity":0.8661417322834646,"pitch":45,"id":"e0a83601-c7dc-416d-bb48-9592fcb0f429"},{"length":94,"position":234240,"velocity":0.8661417322834646,"pitch":50,"id":"89570d03-dfec-49d2-8db9-08aaff3010e0"},{"length":94,"position":234336,"velocity":0.8661417322834646,"pitch":50,"id":"22f1528f-b91a-4de3-a7c1-74ff865c2c3a"},{"length":94,"position":234336,"velocity":0.8661417322834646,"pitch":53,"id":"01508f64-166f-43ff-9f0c-6b441276f99f"},{"length":94,"position":234432,"velocity":0.8661417322834646,"pitch":40,"id":"30e66b72-f0fd-4ba0-93e5-209ea5ece17f"},{"length":94,"position":234432,"velocity":0.8661417322834646,"pitch":49,"id":"6b18640d-216a-424d-ba10-f923ab3c7471"},{"length":94,"position":234432,"velocity":0.8661417322834646,"pitch":52,"id":"2c3a3108-7b8a-42ad-8856-513901de886e"},{"length":94,"position":234528,"velocity":0.8661417322834646,"pitch":52,"id":"906f62f5-b18d-4612-8763-1f1f16f349eb"},{"length":94,"position":234624,"velocity":0.8661417322834646,"pitch":41,"id":"86127701-4f66-47df-b899-5c34ba0300de"},{"length":94,"position":234624,"velocity":0.8661417322834646,"pitch":50,"id":"d2567302-0f7b-4e70-8fa0-ec97b6cf2246"},{"length":94,"position":234624,"velocity":0.8661417322834646,"pitch":53,"id":"62dcb799-9f96-4173-b387-309d58b12769"},{"length":94,"position":234720,"velocity":0.8661417322834646,"pitch":53,"id":"6051f3d4-809b-4c76-9845-191946a1b6ac"},{"length":94,"position":234816,"velocity":0.8661417322834646,"pitch":43,"id":"2956031d-518a-4b71-96ba-bbf70b254145"},{"length":94,"position":234912,"velocity":0.8661417322834646,"pitch":52,"id":"4487dcee-6a90-45a9-92fa-97b672dcd2ea"},{"length":160,"position":235008,"velocity":0.8661417322834646,"pitch":45,"id":"660c2e01-ab55-48d7-952c-addde218d8e9"},{"length":336,"position":237696,"velocity":0.8661417322834646,"pitch":38,"id":"4ad7b175-4d67-4bd8-bee6-3ad0a7777801"},{"length":336,"position":237696,"velocity":0.8661417322834646,"pitch":50,"id":"3746c643-7822-40d1-94db-5f8725679c6e"},{"length":94,"position":238080,"velocity":0.8661417322834646,"pitch":39,"id":"bc48bbb8-d9d4-484b-8207-336070396061"},{"length":94,"position":238080,"velocity":0.8661417322834646,"pitch":51,"id":"83c60df2-b336-4112-9016-75eb372f3f35"},{"length":94,"position":238176,"velocity":0.8661417322834646,"pitch":38,"id":"020d3764-78fe-435e-a36d-b7bef4f99bc3"},{"length":94,"position":238176,"velocity":0.8661417322834646,"pitch":50,"id":"32564ae7-f9ee-4798-b674-edd8f3f3846b"},{"length":94,"position":238272,"velocity":0.8661417322834646,"pitch":49,"id":"22df1543-eb95-4881-891f-71d4e238e883"},{"length":94,"position":238368,"velocity":0.8661417322834646,"pitch":44,"id":"b5a19412-8565-4d7c-9840-01fba3cc6d64"},{"length":720,"position":238464,"velocity":0.8661417322834646,"pitch":45,"id":"779b342c-437f-450a-b7c3-179362f4f8bb"},{"length":336,"position":239232,"velocity":0.8661417322834646,"pitch":44,"id":"9249970d-5384-4ada-b32a-5db2918e2f82"},{"length":94,"position":239616,"velocity":0.8661417322834646,"pitch":45,"id":"91467294-f3db-4ccb-a8f0-0cfb4263eb1d"},{"length":94,"position":239712,"velocity":0.8661417322834646,"pitch":44,"id":"dc6e1439-20b3-44c8-b3a3-acbb2e2d91a3"},{"length":94,"position":239808,"velocity":0.8661417322834646,"pitch":43,"id":"798ae493-de67-425a-bd77-d1d30eb4d84a"},{"length":94,"position":239904,"velocity":0.8661417322834646,"pitch":49,"id":"0d84407a-04a9-49ce-ab92-58d3f7999f8c"},{"length":720,"position":240000,"velocity":0.8661417322834646,"pitch":38,"id":"37070914-8c92-4f21-8560-55cf2bdc8266"},{"length":720,"position":240000,"velocity":0.8661417322834646,"pitch":50,"id":"8a115a4c-aec4-42e0-85d7-874354856a73"},{"length":336,"position":240768,"velocity":0.8661417322834646,"pitch":38,"id":"fb735527-8faa-47cf-bd81-07d858a64cda"},{"length":336,"position":240768,"velocity":0.8661417322834646,"pitch":50,"id":"07de710e-fbba-4180-9043-f4bbfe5ad923"},{"length":94,"position":241152,"velocity":0.8661417322834646,"pitch":51,"id":"0efaaef7-b851-473d-b12a-1edcc92f016a"},{"length":94,"position":241248,"velocity":0.8661417322834646,"pitch":50,"id":"f5a56964-fb15-4a68-afee-5a316c2be3fb"},{"length":94,"position":241344,"velocity":0.8661417322834646,"pitch":49,"id":"a6582407-cc18-4ca2-933a-f72cc1902ae6"},{"length":94,"position":241440,"velocity":0.8661417322834646,"pitch":44,"id":"d7c81fef-9b2b-47d0-9397-0ab87c07d372"},{"length":720,"position":241536,"velocity":0.8661417322834646,"pitch":40,"id":"11e60aee-5217-429d-92fa-de6750897a09"},{"length":720,"position":241536,"velocity":0.8661417322834646,"pitch":45,"id":"f637cd02-1da7-4903-be7a-3bc9ec55c339"},{"length":720,"position":241536,"velocity":0.8661417322834646,"pitch":52,"id":"91e64659-2ffe-4eeb-8bbd-02810f1eb7bc"},{"length":336,"position":242304,"velocity":0.8661417322834646,"pitch":41,"id":"1004984e-2e43-477d-9104-7f8ce72e0644"},{"length":336,"position":242304,"velocity":0.8661417322834646,"pitch":44,"id":"6b74e7d9-fa91-4902-a4c9-fc96ff1cebc1"},{"length":336,"position":242304,"velocity":0.8661417322834646,"pitch":53,"id":"70a68a22-d3db-4afb-b463-b53fbe326674"},{"length":94,"position":242688,"velocity":0.8661417322834646,"pitch":45,"id":"ae1082c4-fbd3-4fa7-b1fe-c19b04a31b3d"},{"length":94,"position":242784,"velocity":0.8661417322834646,"pitch":44,"id":"85890c58-f16e-4bee-9c15-88fde40a6b34"},{"length":94,"position":242880,"velocity":0.8661417322834646,"pitch":40,"id":"f6af7652-8ee9-48e5-a35c-c3b341b1c56c"},{"length":94,"position":242880,"velocity":0.8661417322834646,"pitch":43,"id":"b06a50dd-4c30-4a40-9471-c50792c3847d"},{"length":94,"position":242880,"velocity":0.8661417322834646,"pitch":52,"id":"53b49a50-5ce7-427d-b932-f14ebe87aa4f"},{"length":94,"position":242976,"velocity":0.8661417322834646,"pitch":49,"id":"1b45f5c5-a7d5-4896-b88b-78b3fe0d6b32"},{"length":720,"position":243072,"velocity":0.8661417322834646,"pitch":38,"id":"0e983820-629e-49ed-ae1f-17f771871bf7"},{"length":720,"position":243072,"velocity":0.8661417322834646,"pitch":50,"id":"461d25ad-e2fd-48f9-b381-a4b679cbe867"},{"length":720,"position":243072,"velocity":0.8661417322834646,"pitch":53,"id":"0b4da68f-1eb8-4eaf-98a4-4efcd18e6325"},{"length":912,"position":245376,"velocity":0.8661417322834646,"pitch":38,"id":"525ce133-3d20-4259-a7f8-f24e18c0e930"},{"length":912,"position":245376,"velocity":0.8661417322834646,"pitch":50,"id":"03d9d861-ff15-4781-8140-b70f88341965"},{"length":160,"position":246336,"velocity":0.8661417322834646,"pitch":40,"id":"eab152dc-687b-4a96-8cd5-d9c5da387e79"},{"length":160,"position":246336,"velocity":0.8661417322834646,"pitch":52,"id":"8f85dd10-ed41-4f48-89ce-e070521a1ba6"},{"length":336,"position":246528,"velocity":0.8661417322834646,"pitch":41,"id":"bc3a8c29-37b3-4870-bb78-5fe8de24bece"},{"length":336,"position":246528,"velocity":0.8661417322834646,"pitch":53,"id":"1c75fc55-084d-4c41-a3f5-82aec12ad7c2"},{"length":336,"position":246912,"velocity":0.8661417322834646,"pitch":43,"id":"0b76585a-9eb8-485a-af32-76ed61138be7"},{"length":336,"position":247296,"velocity":0.8661417322834646,"pitch":45,"id":"a0a3b775-0301-4e66-92fa-e686c60358aa"},{"length":336,"position":247680,"velocity":0.8661417322834646,"pitch":43,"id":"e1b93d96-20ab-4364-8f68-f737c94a0c89"},{"length":336,"position":248064,"velocity":0.8661417322834646,"pitch":41,"id":"43faaaab-6691-455f-8796-9a387ecb93e0"},{"length":336,"position":248064,"velocity":0.8661417322834646,"pitch":53,"id":"8e5f0a07-3be2-4c6e-961b-da3b9877e34c"},{"length":94,"position":248448,"velocity":0.8661417322834646,"pitch":40,"id":"6f1714f5-f714-4456-b0c4-0d7ce3d2ee2f"},{"length":94,"position":248448,"velocity":0.8661417322834646,"pitch":52,"id":"a3b03dc3-6caa-4e42-8cfb-bc75be52599f"},{"length":94,"position":248544,"velocity":0.8661417322834646,"pitch":43,"id":"465edb0c-8871-4eaa-84ea-80f3d62e9d3f"},{"length":94,"position":248640,"velocity":0.8661417322834646,"pitch":46,"id":"78b7d1a3-5d0c-4685-a01a-79671935c4a9"},{"length":94,"position":248736,"velocity":0.8661417322834646,"pitch":44,"id":"795ca270-154e-4fa5-902f-b0c3b17a8aea"},{"length":336,"position":248832,"velocity":0.8661417322834646,"pitch":45,"id":"03f5823f-340f-4dc4-83ad-13069f12b79a"},{"length":1102,"position":249216,"velocity":0.8661417322834646,"pitch":38,"id":"8c0ff10b-fb33-43ad-ac77-b31447bf4910"},{"length":1102,"position":249216,"velocity":0.8661417322834646,"pitch":50,"id":"38b80a54-b9aa-48ee-b925-700b3e9dde59"},{"length":46,"position":250320,"velocity":0.8661417322834646,"pitch":52,"id":"9a3db4a5-461a-4092-acbe-dc76278d9ef5"},{"length":46,"position":250368,"velocity":0.8661417322834646,"pitch":53,"id":"a2af21e2-1a3e-4d20-81c5-aa40a43ae828"},{"length":46,"position":250416,"velocity":0.8661417322834646,"pitch":50,"id":"a7e2fd81-8f96-488a-8008-17dc521dff38"},{"length":46,"position":250464,"velocity":0.8661417322834646,"pitch":49,"id":"5c2a20a6-a60e-490e-a0ae-217e0fc71271"},{"length":46,"position":250512,"velocity":0.8661417322834646,"pitch":50,"id":"5943c1ee-ff10-4474-ab5d-7ecfb5f27c4e"},{"length":46,"position":250560,"velocity":0.8661417322834646,"pitch":51,"id":"37f23f15-c19b-4cb0-8392-61a33f6ca6a1"},{"length":46,"position":250608,"velocity":0.8661417322834646,"pitch":50,"id":"d7f32b92-1fe7-4e34-a31f-68f05c81f2f3"},{"length":46,"position":250656,"velocity":0.8661417322834646,"pitch":49,"id":"61a77c1e-208b-4437-86b2-53ba2e5ffdbf"},{"length":46,"position":250704,"velocity":0.8661417322834646,"pitch":44,"id":"0a9827aa-3082-44dd-9fe2-87013e5615b7"},{"length":94,"position":250752,"velocity":0.8661417322834646,"pitch":45,"id":"f3a7c89c-34e9-4d44-861e-813b1c9e2449"},{"length":94,"position":250752,"velocity":0.8661417322834646,"pitch":50,"id":"c956b378-15ef-4703-b53e-a4f85e6500a5"},{"length":94,"position":250848,"velocity":0.8661417322834646,"pitch":50,"id":"b1a07818-0c43-49a7-bb93-7d013946ca24"},{"length":94,"position":250848,"velocity":0.8661417322834646,"pitch":53,"id":"d27c401a-35e5-4182-adfb-ca6982e8fb45"},{"length":94,"position":250944,"velocity":0.8661417322834646,"pitch":40,"id":"e547547c-e6c2-4d32-97c4-2729fc3e4b2c"},{"length":94,"position":250944,"velocity":0.8661417322834646,"pitch":49,"id":"36447de4-779d-45bb-a2ec-010b9189e72c"},{"length":94,"position":250944,"velocity":0.8661417322834646,"pitch":52,"id":"81673686-72d0-4b0c-82ea-ec4968ca575a"},{"length":94,"position":251040,"velocity":0.8661417322834646,"pitch":52,"id":"4a4e8ec2-0c89-42a9-a257-8325d62b8f1e"},{"length":94,"position":251136,"velocity":0.8661417322834646,"pitch":41,"id":"46c98c84-3ca5-4475-a129-d88e0709c007"},{"length":94,"position":251136,"velocity":0.8661417322834646,"pitch":50,"id":"7ea3e7a2-de3c-4886-839a-908df828bb2c"},{"length":94,"position":251136,"velocity":0.8661417322834646,"pitch":53,"id":"b63f7a5e-7ace-43d3-a966-2cd364970f81"},{"length":94,"position":251232,"velocity":0.8661417322834646,"pitch":53,"id":"88768c50-f750-496b-b175-e9b881e29926"},{"length":94,"position":251328,"velocity":0.8661417322834646,"pitch":43,"id":"1a120120-da00-4ef0-ac85-ab8a9d3a1145"},{"length":94,"position":251424,"velocity":0.8661417322834646,"pitch":52,"id":"484750e3-e214-47e5-80e5-38604bb8966b"},{"length":160,"position":251520,"velocity":0.8661417322834646,"pitch":45,"id":"ca46e319-631d-4bd2-8ace-54f65a08f75a"},{"length":336,"position":254208,"velocity":0.8661417322834646,"pitch":38,"id":"49ec41c9-9c5f-46fc-be2e-2778c7d5afd8"},{"length":336,"position":254208,"velocity":0.8661417322834646,"pitch":50,"id":"a2566408-464a-4748-bfae-db608e00daa9"},{"length":94,"position":254592,"velocity":0.8661417322834646,"pitch":39,"id":"5d4321f6-e01e-497f-a163-16b3e2d5a986"},{"length":94,"position":254592,"velocity":0.8661417322834646,"pitch":51,"id":"0f6d731b-0caa-4baa-b0fc-290fec2ba83a"},{"length":94,"position":254688,"velocity":0.8661417322834646,"pitch":38,"id":"22826c0b-f949-44e8-a975-703f0d653056"},{"length":94,"position":254688,"velocity":0.8661417322834646,"pitch":50,"id":"d880fdf5-4784-4a39-8b19-5bb26f938c2c"},{"length":94,"position":254784,"velocity":0.8661417322834646,"pitch":49,"id":"b85058af-4fd6-4fdf-a33a-8a0e90cc26c2"},{"length":94,"position":254880,"velocity":0.8661417322834646,"pitch":44,"id":"9b582471-a3c4-4635-b7e9-ea170da3e2a3"},{"length":720,"position":254976,"velocity":0.8661417322834646,"pitch":45,"id":"b01ac9c8-7401-4e9f-a386-1581c9ab661c"},{"length":336,"position":255744,"velocity":0.8661417322834646,"pitch":44,"id":"4d66a995-0d52-49b5-84d0-0cbb58bf8dd7"},{"length":94,"position":256128,"velocity":0.8661417322834646,"pitch":45,"id":"a9e0dde7-e1e8-4dd3-909f-f73537965c43"},{"length":94,"position":256224,"velocity":0.8661417322834646,"pitch":44,"id":"43bb8803-00bd-4ca1-b95d-14900970c82b"},{"length":94,"position":256320,"velocity":0.8661417322834646,"pitch":43,"id":"22838155-9b0e-4773-a422-fc4adf399e9a"},{"length":94,"position":256416,"velocity":0.8661417322834646,"pitch":49,"id":"d6513ad8-c9e1-4248-a11a-272ff57a16cf"},{"length":720,"position":256512,"velocity":0.8661417322834646,"pitch":38,"id":"0aad7649-0128-4ba6-89f5-2ac419c359c6"},{"length":720,"position":256512,"velocity":0.8661417322834646,"pitch":50,"id":"c9b6825c-8a80-4e75-9519-4e21e8170679"},{"length":336,"position":257280,"velocity":0.8661417322834646,"pitch":38,"id":"4406890a-8f9a-41ce-add4-388db27ac7d9"},{"length":336,"position":257280,"velocity":0.8661417322834646,"pitch":50,"id":"76d77434-155d-4e61-a535-c9cd7e6f50e1"},{"length":94,"position":257664,"velocity":0.8661417322834646,"pitch":51,"id":"e147e0a2-d96e-478e-b93a-919bcaf8f303"},{"length":94,"position":257760,"velocity":0.8661417322834646,"pitch":50,"id":"ae2a620c-1263-4f6d-8299-a7b578459d74"},{"length":94,"position":257856,"velocity":0.8661417322834646,"pitch":49,"id":"e0c940f0-7dd1-49f1-9868-5314ce254a14"},{"length":94,"position":257952,"velocity":0.8661417322834646,"pitch":44,"id":"5a6e838a-e81d-4069-8b83-fdb925d3314a"},{"length":720,"position":258048,"velocity":0.8661417322834646,"pitch":40,"id":"90fc2d86-3baf-47f4-81ba-8417e628817a"},{"length":720,"position":258048,"velocity":0.8661417322834646,"pitch":45,"id":"8c92d07d-1adb-446f-a058-7f9dd738a709"},{"length":720,"position":258048,"velocity":0.8661417322834646,"pitch":52,"id":"d6c1cfa0-160d-40a1-83bc-b74c76233d4d"},{"length":336,"position":258816,"velocity":0.8661417322834646,"pitch":41,"id":"fe87d655-0425-4fc7-93e8-e8a9f3cb68ce"},{"length":336,"position":258816,"velocity":0.8661417322834646,"pitch":44,"id":"86944515-d75e-4415-a843-39bee026acd4"},{"length":336,"position":258816,"velocity":0.8661417322834646,"pitch":53,"id":"a05b3c4e-70cd-44cb-adb7-c0897b1ee600"},{"length":94,"position":259200,"velocity":0.8661417322834646,"pitch":45,"id":"0bc9ba1d-31c7-4de7-ba44-1f936db9a258"},{"length":94,"position":259296,"velocity":0.8661417322834646,"pitch":44,"id":"715b3f71-6c6f-44bc-9ac6-d2c4c82fc0a8"},{"length":94,"position":259392,"velocity":0.8661417322834646,"pitch":40,"id":"ded85051-a1d1-4a8c-a9f7-eae43269395f"},{"length":94,"position":259392,"velocity":0.8661417322834646,"pitch":43,"id":"b32da151-13df-4e31-9186-ce749650e84c"},{"length":94,"position":259392,"velocity":0.8661417322834646,"pitch":52,"id":"fb1b3876-9a3b-432a-8663-a8f712ca1298"},{"length":94,"position":259488,"velocity":0.8661417322834646,"pitch":49,"id":"35f49a52-8ffe-451e-b81f-fdc1ad1dd24d"},{"length":720,"position":259584,"velocity":0.8661417322834646,"pitch":38,"id":"4fc49e31-0f8f-42f8-b325-87e8bb710e3f"},{"length":720,"position":259584,"velocity":0.8661417322834646,"pitch":50,"id":"d6fbcd83-b2bd-4eba-97d3-feb676d5a326"},{"length":720,"position":259584,"velocity":0.8661417322834646,"pitch":53,"id":"d5c0db0e-1896-4cdf-8335-e7960b541c6b"},{"length":720,"position":266496,"velocity":0.8661417322834646,"pitch":36,"id":"ed06e3b0-c6cd-4120-bfee-8802221c49e4"},{"length":720,"position":267264,"velocity":0.8661417322834646,"pitch":41,"id":"a01fd456-3604-44c5-a042-4486a58a4c32"},{"length":720,"position":268032,"velocity":0.8661417322834646,"pitch":36,"id":"8764c3ed-cef0-4f10-aeae-e97548ed7ac0"},{"length":336,"position":268800,"velocity":0.8661417322834646,"pitch":41,"id":"9a999e90-0714-4b2e-8247-f104a2ca1a0e"},{"length":336,"position":269184,"velocity":0.8661417322834646,"pitch":43,"id":"235c9cfd-c592-4a44-b08c-e3f85815b7ee"},{"length":720,"position":269568,"velocity":0.8661417322834646,"pitch":36,"id":"94d9e11e-e1b6-4ce8-9abc-547dd43cea14"},{"length":336,"position":270336,"velocity":0.8661417322834646,"pitch":41,"id":"a92818e8-6f6b-42b3-87b2-977f84a0c492"},{"length":94,"position":270720,"velocity":0.8661417322834646,"pitch":43,"id":"34c237ea-c2d8-4046-a003-d6bb9e7f3b37"},{"length":94,"position":270816,"velocity":0.8661417322834646,"pitch":43,"id":"cb863be0-e449-4b0d-862b-b8b78f3adf01"},{"length":118,"position":270984,"velocity":0.8661417322834646,"pitch":43,"id":"d201687d-56b0-4c2e-9897-bd43e200c830"},{"length":94,"position":271104,"velocity":0.8661417322834646,"pitch":36,"id":"e3cbc834-82b9-4def-aa87-d78f6c46f9ff"},{"length":94,"position":271200,"velocity":0.8661417322834646,"pitch":36,"id":"1a06a2f3-a563-4296-84b4-7927378c648f"},{"length":94,"position":271296,"velocity":0.8661417322834646,"pitch":36,"id":"3377e5d4-9813-43d7-80b2-f95dc7f03cb3"},{"length":94,"position":271392,"velocity":0.8661417322834646,"pitch":36,"id":"4eab569d-c884-4ef3-9e23-7269d5c93402"},{"length":94,"position":271488,"velocity":0.8661417322834646,"pitch":38,"id":"90d7feac-2267-46b0-ba2f-1947271c199e"},{"length":94,"position":271584,"velocity":0.8661417322834646,"pitch":38,"id":"b65ecbd3-e984-460e-9c81-5d0647c76721"},{"length":94,"position":271680,"velocity":0.8661417322834646,"pitch":38,"id":"8fcaaa14-d6b3-448a-af27-0c9a607a91ff"},{"length":94,"position":271776,"velocity":0.8661417322834646,"pitch":38,"id":"138d7f22-780f-4631-a291-6490fbc644ae"},{"length":94,"position":271872,"velocity":0.8661417322834646,"pitch":40,"id":"77b1d866-c363-4327-9f5a-6c3b323d954d"},{"length":94,"position":271968,"velocity":0.8661417322834646,"pitch":40,"id":"19f88d4f-d168-448c-ba8a-28b8694278e7"},{"length":94,"position":272064,"velocity":0.8661417322834646,"pitch":40,"id":"436788cc-3020-4603-bc43-1efca2a98c66"},{"length":94,"position":272160,"velocity":0.8661417322834646,"pitch":40,"id":"9cc1c1f2-0287-49e0-be25-e604040fb2d8"},{"length":94,"position":272256,"velocity":0.8661417322834646,"pitch":36,"id":"2952f264-4cf4-4478-84e2-b1305aed72db"},{"length":94,"position":272352,"velocity":0.8661417322834646,"pitch":36,"id":"e2a383e9-e3a3-4604-b3a4-7aa8ff6e5637"},{"length":94,"position":272448,"velocity":0.8661417322834646,"pitch":36,"id":"f7eff452-1aa6-4aa6-8daa-4b71adf7d20b"},{"length":94,"position":272544,"velocity":0.8661417322834646,"pitch":36,"id":"623571e9-a5fd-4fd7-b9cb-6944b6e8971b"},{"length":94,"position":272640,"velocity":0.8661417322834646,"pitch":41,"id":"71008818-dd4c-46dd-b923-9da0f1cc0e51"},{"length":94,"position":272736,"velocity":0.8661417322834646,"pitch":41,"id":"9417dfa5-725a-4282-8b3b-308cb5f63b6b"},{"length":94,"position":272832,"velocity":0.8661417322834646,"pitch":41,"id":"43ed08e4-5712-4d4f-a31e-63dc2ff98218"},{"length":94,"position":272928,"velocity":0.8661417322834646,"pitch":41,"id":"6976a8d0-82e4-49e2-b267-991e8b8cc682"},{"length":94,"position":273024,"velocity":0.8661417322834646,"pitch":43,"id":"58fb5f89-d0be-4a45-aadc-aaa5b1355242"},{"length":94,"position":273120,"velocity":0.8661417322834646,"pitch":43,"id":"89fae209-2abc-4624-a3a1-2f245bcac035"},{"length":94,"position":273216,"velocity":0.8661417322834646,"pitch":43,"id":"dc38ba77-9a50-4b45-9298-f1628de1ed89"},{"length":94,"position":273312,"velocity":0.8661417322834646,"pitch":43,"id":"a1296838-a358-4ebf-afd2-07c721826fdf"},{"length":94,"position":273408,"velocity":0.8661417322834646,"pitch":36,"id":"5081dd5b-568d-4b65-84fa-369c0ed2afa4"},{"length":94,"position":273504,"velocity":0.8661417322834646,"pitch":36,"id":"29718621-cc13-4924-ba61-cdb8b6bab807"},{"length":94,"position":273600,"velocity":0.8661417322834646,"pitch":36,"id":"e5d5a2b4-5d56-4579-9266-d3a629fd823e"},{"length":94,"position":273696,"velocity":0.8661417322834646,"pitch":36,"id":"9aeb4179-61b6-44c3-a8f4-02e004bac308"},{"length":94,"position":273792,"velocity":0.8661417322834646,"pitch":36,"id":"473ca098-f6b0-416d-a4a7-234040be607d"},{"length":94,"position":273888,"velocity":0.8661417322834646,"pitch":36,"id":"0b8acc35-d5b3-4578-aa47-d91a61b8cb95"},{"length":46,"position":273984,"velocity":0.8661417322834646,"pitch":38,"id":"ea464558-ee03-4fa0-a8b5-e6e34a6e70fb"},{"length":142,"position":274032,"velocity":0.8661417322834646,"pitch":40,"id":"6852ba34-08bd-40b5-b064-bf85483c4bdf"},{"length":94,"position":274176,"velocity":0.8661417322834646,"pitch":41,"id":"3b5d36d2-8d9c-4f4b-adeb-275b74d65b18"},{"length":94,"position":274272,"velocity":0.8661417322834646,"pitch":41,"id":"58594a93-d426-48d4-8484-c2c3cfbfa6ec"},{"length":94,"position":274368,"velocity":0.8661417322834646,"pitch":41,"id":"bf01bb16-aeb4-4e22-8a37-fd3ff4ca52ab"},{"length":94,"position":274464,"velocity":0.8661417322834646,"pitch":41,"id":"b7ce1c16-d43a-428d-8b46-40d0e3c35451"},{"length":94,"position":274560,"velocity":0.8661417322834646,"pitch":43,"id":"a6027677-4c2b-4f0f-983e-95f75fc9cb20"},{"length":94,"position":274656,"velocity":0.8661417322834646,"pitch":43,"id":"52896ae8-7d94-4f07-b5a1-e2346e3025d3"},{"length":94,"position":274752,"velocity":0.8661417322834646,"pitch":43,"id":"cc8afdbb-0579-4586-8e99-2ff34db10551"},{"length":94,"position":274848,"velocity":0.8661417322834646,"pitch":43,"id":"394453d7-a8b4-4fe9-a8f8-8f858a413214"},{"length":94,"position":274944,"velocity":0.8661417322834646,"pitch":40,"id":"5bf7de0f-3bd6-486e-926d-bf68b84fa7de"},{"length":94,"position":275040,"velocity":0.8661417322834646,"pitch":40,"id":"739633d7-fa56-44ba-b164-5d732837e62b"},{"length":94,"position":275136,"velocity":0.8661417322834646,"pitch":40,"id":"4a886d0f-e053-493b-a78d-c163385ddd95"},{"length":94,"position":275232,"velocity":0.8661417322834646,"pitch":40,"id":"548bf5fa-7678-4917-a032-76f1d49d3cb4"},{"length":94,"position":275328,"velocity":0.8661417322834646,"pitch":36,"id":"459d057c-a3af-46b1-a25b-d785d6ffd005"},{"length":94,"position":275424,"velocity":0.8661417322834646,"pitch":36,"id":"bd446a44-3a16-4a8e-a58d-fc589835a010"},{"length":94,"position":275520,"velocity":0.8661417322834646,"pitch":36,"id":"49d7adce-468a-4550-8858-3390d2aa3263"},{"length":94,"position":275616,"velocity":0.8661417322834646,"pitch":36,"id":"9b2b94aa-084e-4c40-8f98-08954bc80c92"},{"length":94,"position":275712,"velocity":0.8661417322834646,"pitch":34,"id":"f4f2d882-8c45-45c3-9851-1d1a2dc4da8c"},{"length":94,"position":275808,"velocity":0.8661417322834646,"pitch":34,"id":"95dd0a4f-7861-4283-8dcc-f99b6728671c"},{"length":94,"position":275904,"velocity":0.8661417322834646,"pitch":34,"id":"08545c88-c952-41b1-90d9-b38702cdeea6"},{"length":94,"position":276000,"velocity":0.8661417322834646,"pitch":34,"id":"b8f8b6cb-e729-480e-bf86-1b4a9f779965"},{"length":94,"position":276096,"velocity":0.8661417322834646,"pitch":34,"id":"74d91b9b-3fbe-4fa4-b0f9-b49ab069b442"},{"length":94,"position":276192,"velocity":0.8661417322834646,"pitch":34,"id":"f509ab9e-ef30-4f36-9881-4ec905392879"},{"length":94,"position":276288,"velocity":0.8661417322834646,"pitch":34,"id":"e4bc85e5-5082-4018-857a-d46e9bf083da"},{"length":94,"position":276384,"velocity":0.8661417322834646,"pitch":34,"id":"def69774-e6ab-40f7-bbaa-625ffd21a52b"},{"length":94,"position":276480,"velocity":0.8661417322834646,"pitch":38,"id":"cda5dbdc-c601-4fe6-90ce-c8ed73f1b48e"},{"length":94,"position":276576,"velocity":0.8661417322834646,"pitch":38,"id":"6a1cdd75-efd9-407d-b22f-ef24b86e6d84"},{"length":94,"position":276672,"velocity":0.8661417322834646,"pitch":38,"id":"2f107983-88f7-4632-905b-7eb3ef535be7"},{"length":94,"position":276768,"velocity":0.8661417322834646,"pitch":38,"id":"beafe7b4-3f52-4db2-9b9c-e56f625d78d5"},{"length":94,"position":276864,"velocity":0.8661417322834646,"pitch":43,"id":"21d013d4-1cfe-4776-bd3f-6262ccc97afa"},{"length":94,"position":276960,"velocity":0.8661417322834646,"pitch":43,"id":"d62a3599-65b2-4861-b238-642ce6335013"},{"length":94,"position":277056,"velocity":0.8661417322834646,"pitch":43,"id":"386c0e88-cc1d-4605-9ec6-da06f8fe4c47"},{"length":94,"position":277152,"velocity":0.8661417322834646,"pitch":43,"id":"275fa62b-8a26-4d9e-9953-6a7aa86d05d4"},{"length":94,"position":277248,"velocity":0.8661417322834646,"pitch":36,"id":"acf50916-9500-494e-bff1-43f36c02a63a"},{"length":94,"position":277344,"velocity":0.8661417322834646,"pitch":36,"id":"b904b739-215f-4ee5-a2ba-d8486db6ad74"},{"length":94,"position":277440,"velocity":0.8661417322834646,"pitch":36,"id":"2f8b4219-0451-43d7-bec2-339cfe394f3f"},{"length":94,"position":277536,"velocity":0.8661417322834646,"pitch":36,"id":"308f53b6-005e-436f-9f89-7905e11b9e65"},{"length":94,"position":277632,"velocity":0.8661417322834646,"pitch":38,"id":"83a5aa8a-6bb4-45d0-89fa-fe1898daf28c"},{"length":94,"position":277728,"velocity":0.8661417322834646,"pitch":38,"id":"aa07a86a-1a36-4f8a-b401-1d81cd1cd607"},{"length":94,"position":277824,"velocity":0.8661417322834646,"pitch":38,"id":"3df444ad-6da6-4705-9642-04dfcbb725b2"},{"length":94,"position":277920,"velocity":0.8661417322834646,"pitch":38,"id":"306b48ae-3a7c-47d3-84fc-a496919487dd"},{"length":94,"position":278016,"velocity":0.8661417322834646,"pitch":40,"id":"16899316-621c-427d-a818-3459518f4384"},{"length":94,"position":278112,"velocity":0.8661417322834646,"pitch":40,"id":"66c305de-2b53-417e-97fb-7009766b06b3"},{"length":94,"position":278208,"velocity":0.8661417322834646,"pitch":40,"id":"1479850b-a291-494b-b27f-b58f4801b9f9"},{"length":94,"position":278304,"velocity":0.8661417322834646,"pitch":40,"id":"6439c9e8-502a-4845-b729-eff87197b0c1"},{"length":94,"position":278400,"velocity":0.8661417322834646,"pitch":36,"id":"9d7f8e6c-fe4a-431e-9b30-858b63f5b49a"},{"length":94,"position":278496,"velocity":0.8661417322834646,"pitch":36,"id":"c4c67a52-3d7d-4c8c-b626-a454508e9e34"},{"length":94,"position":278592,"velocity":0.8661417322834646,"pitch":36,"id":"93879a43-053a-4515-8b62-75eb25c6bd48"},{"length":94,"position":278688,"velocity":0.8661417322834646,"pitch":36,"id":"3adc72f2-7a37-4200-873b-a90ac7706418"},{"length":94,"position":278784,"velocity":0.8661417322834646,"pitch":41,"id":"be09276c-8c2b-4186-ab22-335767191092"},{"length":94,"position":278880,"velocity":0.8661417322834646,"pitch":41,"id":"7428a281-26ee-47e2-8d00-8c2ef07a35fa"},{"length":94,"position":278976,"velocity":0.8661417322834646,"pitch":41,"id":"faa4e0bf-484b-4a09-8031-3c590ccb024a"},{"length":94,"position":279072,"velocity":0.8661417322834646,"pitch":41,"id":"a61aafd8-5413-4149-9fc5-51bf4dbe73ab"},{"length":94,"position":279168,"velocity":0.8661417322834646,"pitch":43,"id":"a56dc369-86d4-4823-8d53-98e21d98f68a"},{"length":94,"position":279264,"velocity":0.8661417322834646,"pitch":43,"id":"73382a24-dbb6-45c3-9f4b-432360b09b6c"},{"length":94,"position":279360,"velocity":0.8661417322834646,"pitch":43,"id":"622c929d-7dfc-4ad6-a8c6-670d4f198832"},{"length":94,"position":279456,"velocity":0.8661417322834646,"pitch":43,"id":"f1b6fa45-367f-46fc-ae70-72acdcb4f242"},{"length":94,"position":279552,"velocity":0.8661417322834646,"pitch":36,"id":"00f83cf4-2587-4777-afaf-f1d73bd66225"},{"length":94,"position":279648,"velocity":0.8661417322834646,"pitch":36,"id":"ec949399-25ed-4231-b3af-984f0c8faebb"},{"length":94,"position":279744,"velocity":0.8661417322834646,"pitch":36,"id":"8ed4fa3b-d715-4edd-8258-4a3d25d2c2d2"},{"length":94,"position":279840,"velocity":0.8661417322834646,"pitch":36,"id":"5f384440-092b-4b7a-8173-799b2eb54c59"},{"length":94,"position":279936,"velocity":0.8661417322834646,"pitch":36,"id":"1ac388e4-25ef-4578-8123-68c1ef956dc1"},{"length":94,"position":280032,"velocity":0.8661417322834646,"pitch":36,"id":"77f3a834-1370-45ad-b645-84c95ea611d8"},{"length":46,"position":280128,"velocity":0.8661417322834646,"pitch":38,"id":"09b71e55-3106-4356-a8b0-72faf4e18d47"},{"length":142,"position":280176,"velocity":0.8661417322834646,"pitch":40,"id":"c688688b-d3b4-4b6a-b8bb-6a29c117aa0e"},{"length":94,"position":280320,"velocity":0.8661417322834646,"pitch":41,"id":"20848165-a6b7-41fd-b907-599eec3089df"},{"length":94,"position":280416,"velocity":0.8661417322834646,"pitch":41,"id":"d568a9f8-4a0a-450d-90db-dcd38fe9659d"},{"length":94,"position":280512,"velocity":0.8661417322834646,"pitch":41,"id":"ebda8d2e-3755-422d-a022-6088f39f5386"},{"length":94,"position":280608,"velocity":0.8661417322834646,"pitch":41,"id":"fd9d45fa-70e6-47d3-a4fd-93d8dd4f41b8"},{"length":94,"position":280704,"velocity":0.8661417322834646,"pitch":43,"id":"8e20b913-ddae-4d27-be00-10d087afae56"},{"length":94,"position":280800,"velocity":0.8661417322834646,"pitch":43,"id":"85f8fb44-a067-409c-bebb-2537d7ebee13"},{"length":94,"position":280896,"velocity":0.8661417322834646,"pitch":43,"id":"e3cb486a-cff3-40e0-99c4-59be340fdc23"},{"length":94,"position":280992,"velocity":0.8661417322834646,"pitch":43,"id":"da48026b-53df-4363-8467-209a59952051"},{"length":94,"position":281088,"velocity":0.8661417322834646,"pitch":40,"id":"7c744236-0d96-4733-b2a5-52c6f97bb2a4"},{"length":94,"position":281184,"velocity":0.8661417322834646,"pitch":40,"id":"79fa1508-c148-4b6d-a9d5-103ff3e8c910"},{"length":94,"position":281280,"velocity":0.8661417322834646,"pitch":40,"id":"3855344a-8c7c-49ef-aada-b0d68e9bd0f4"},{"length":94,"position":281376,"velocity":0.8661417322834646,"pitch":40,"id":"a9728d3e-fd9c-4bfb-9d48-aa7f6b69c52f"},{"length":94,"position":281472,"velocity":0.8661417322834646,"pitch":36,"id":"0596acb6-1e95-4bc3-a7f9-c29e8e14db92"},{"length":94,"position":281568,"velocity":0.8661417322834646,"pitch":36,"id":"9d188fd3-030f-4a12-bda7-b873f44d4bfd"},{"length":94,"position":281664,"velocity":0.8661417322834646,"pitch":36,"id":"22db7523-bffb-4242-94a6-8f738c8a8edd"},{"length":94,"position":281760,"velocity":0.8661417322834646,"pitch":36,"id":"b83d7209-1e9c-435b-9540-e27dc19db60a"},{"length":94,"position":281856,"velocity":0.8661417322834646,"pitch":38,"id":"7c279443-6b65-43bc-9499-fdf694f65739"},{"length":94,"position":281952,"velocity":0.8661417322834646,"pitch":38,"id":"9d1c8e90-ed9e-41fd-9cc2-6f5e62708822"},{"length":94,"position":282048,"velocity":0.8661417322834646,"pitch":38,"id":"bca5c323-c5f2-44ab-a7a5-a0fee16b407c"},{"length":94,"position":282144,"velocity":0.8661417322834646,"pitch":38,"id":"d7890401-5cea-4584-afd2-8bce7dbb0bf2"},{"length":94,"position":282240,"velocity":0.8661417322834646,"pitch":43,"id":"cdbe65be-baf0-4908-a8af-6d14d7df9e27"},{"length":94,"position":282336,"velocity":0.8661417322834646,"pitch":43,"id":"f6be154a-f799-4304-8be4-ee1d1b8a5a1e"},{"length":94,"position":282432,"velocity":0.8661417322834646,"pitch":43,"id":"1c4ff2cc-1664-4fe9-8cf0-51016a2c46d2"},{"length":94,"position":282528,"velocity":0.8661417322834646,"pitch":43,"id":"6bb38795-673d-4105-8eaa-6728549ce61b"},{"length":94,"position":282624,"velocity":0.8661417322834646,"pitch":36,"id":"5822fba1-8c5d-4b32-a80c-e3b1c4bde071"},{"length":94,"position":282720,"velocity":0.8661417322834646,"pitch":36,"id":"faedf6d3-d5ba-44d3-90f8-d928333edaef"},{"length":94,"position":282816,"velocity":0.8661417322834646,"pitch":36,"id":"a7947e3d-d388-425d-aebb-778b4906567c"},{"length":94,"position":282912,"velocity":0.8661417322834646,"pitch":36,"id":"0ac03708-3747-413d-af1a-0511dc28c297"},{"length":94,"position":283008,"velocity":0.8661417322834646,"pitch":36,"id":"f8e4b661-60bf-4d05-8baa-ebcac5ae8071"},{"length":94,"position":283104,"velocity":0.8661417322834646,"pitch":36,"id":"ca64639e-9b08-472d-b6ed-cf5e6ca6c484"},{"length":94,"position":283200,"velocity":0.8661417322834646,"pitch":36,"id":"ff8c5397-2295-4b89-98a9-0db2812c83c3"},{"length":94,"position":283296,"velocity":0.8661417322834646,"pitch":36,"id":"99254224-fd4b-4e13-b73e-711700aec867"},{"length":256,"position":283392,"velocity":0.8661417322834646,"pitch":45,"id":"4df501d7-c1d2-446f-a8d0-59cd678f8d30"},{"length":432,"position":283680,"velocity":0.8661417322834646,"pitch":45,"id":"24ee0d7c-09ce-441f-812b-ee8994ff845f"},{"length":256,"position":284160,"velocity":0.8661417322834646,"pitch":43,"id":"b6e1318f-ffb5-46f8-8ceb-3fc2cace3835"},{"length":432,"position":284448,"velocity":0.8661417322834646,"pitch":43,"id":"4eed0393-d6db-474a-abbb-cd3935dfade1"},{"length":256,"position":284928,"velocity":0.8661417322834646,"pitch":41,"id":"a4761a0e-a9b1-44f6-8482-79611da062dd"},{"length":432,"position":285216,"velocity":0.8661417322834646,"pitch":41,"id":"2e158538-611e-4671-9304-fbde8eb0451a"},{"length":256,"position":285696,"velocity":0.8661417322834646,"pitch":40,"id":"aaa92d8b-107f-401b-9d71-041d9c9f87e2"},{"length":432,"position":285984,"velocity":0.8661417322834646,"pitch":40,"id":"5d9f9864-be44-4ae1-b70b-56d5b1ffd4d1"},{"length":528,"position":286464,"velocity":0.8661417322834646,"pitch":38,"id":"cb81c7a3-7dfd-4e1a-9491-c8478371bbf6"},{"length":160,"position":287040,"velocity":0.8661417322834646,"pitch":38,"id":"5edbccc8-88b2-463f-9448-a0ef952ce10c"},{"length":528,"position":287232,"velocity":0.8661417322834646,"pitch":40,"id":"9e44ea78-9205-463c-8ddd-6acc919a352a"},{"length":160,"position":287808,"velocity":0.8661417322834646,"pitch":40,"id":"f93fcec3-b904-421a-8657-cbc7110e7fc6"},{"length":528,"position":288000,"velocity":0.8661417322834646,"pitch":41,"id":"09fea386-f831-454b-b671-44f58e81d9b8"},{"length":160,"position":288576,"velocity":0.8661417322834646,"pitch":41,"id":"456399cd-5104-4a28-adb0-57a72125bdce"},{"length":720,"position":288768,"velocity":0.8661417322834646,"pitch":43,"id":"a8ba86d8-db16-4369-bb32-bead715b11a6"},{"length":94,"position":289536,"velocity":0.8661417322834646,"pitch":48,"id":"8fe9d041-921f-4632-97bd-4d86c24b6d8b"},{"length":94,"position":289632,"velocity":0.8661417322834646,"pitch":48,"id":"3bbf95fc-368a-47e8-9ac3-695688f42457"},{"length":94,"position":289728,"velocity":0.8661417322834646,"pitch":48,"id":"645edf5c-24c3-4d39-a418-95897d4da678"},{"length":94,"position":289824,"velocity":0.8661417322834646,"pitch":48,"id":"a0f9f91d-3638-4260-af49-afed760f28e7"},{"length":94,"position":289920,"velocity":0.8661417322834646,"pitch":47,"id":"8e19133d-3db5-418c-9245-5971c257f1f9"},{"length":94,"position":290016,"velocity":0.8661417322834646,"pitch":47,"id":"ce21b54b-c6e7-467b-903e-fcb274b54831"},{"length":94,"position":290112,"velocity":0.8661417322834646,"pitch":47,"id":"013c5221-618a-4606-a9b6-3b3f94e49147"},{"length":94,"position":290208,"velocity":0.8661417322834646,"pitch":47,"id":"44006754-ba65-426e-8633-1f1790fd3c1e"},{"length":94,"position":290304,"velocity":0.8661417322834646,"pitch":45,"id":"015b8fbd-0814-417b-a709-379100c22cea"},{"length":94,"position":290400,"velocity":0.8661417322834646,"pitch":45,"id":"cd869370-a8e0-487b-8d69-0d1d91a9cca4"},{"length":94,"position":290496,"velocity":0.8661417322834646,"pitch":45,"id":"36382c0c-6494-446d-812f-e636fd179847"},{"length":94,"position":290592,"velocity":0.8661417322834646,"pitch":45,"id":"dead067b-6153-403d-842a-0b10e68634f9"},{"length":94,"position":290688,"velocity":0.8661417322834646,"pitch":43,"id":"b78e5d9f-509e-4f04-95e1-194538332205"},{"length":94,"position":290784,"velocity":0.8661417322834646,"pitch":43,"id":"b9960991-91ec-489c-803a-ade0679c294e"},{"length":94,"position":290880,"velocity":0.8661417322834646,"pitch":43,"id":"656e65b4-62e0-4ef9-8827-af82f4cbd012"},{"length":94,"position":290976,"velocity":0.8661417322834646,"pitch":43,"id":"459e31c5-d831-4954-b0cf-02fe4b142fa7"},{"length":94,"position":291072,"velocity":0.8661417322834646,"pitch":41,"id":"628e2e3c-ef6a-4a14-a233-a0cacf99d7d5"},{"length":94,"position":291168,"velocity":0.8661417322834646,"pitch":41,"id":"83b6979d-d954-4685-87f6-feefcaab0bff"},{"length":94,"position":291264,"velocity":0.8661417322834646,"pitch":41,"id":"ff473ac1-9937-4b1d-b8c4-daf6ef0a6904"},{"length":94,"position":291360,"velocity":0.8661417322834646,"pitch":41,"id":"b2f1d23d-f630-4035-8883-0ca325cc8174"},{"length":94,"position":291456,"velocity":0.8661417322834646,"pitch":40,"id":"8d62f55f-4158-47da-bd7f-ba4fd02514c4"},{"length":94,"position":291552,"velocity":0.8661417322834646,"pitch":40,"id":"96e069c2-2250-4b6f-80c4-59aaa3e2c94c"},{"length":94,"position":291648,"velocity":0.8661417322834646,"pitch":40,"id":"0e025ad7-9c29-4acf-bb26-759d09e5d147"},{"length":94,"position":291744,"velocity":0.8661417322834646,"pitch":40,"id":"fb0e6c36-3cb0-4802-bb02-5c8caf87ffa7"},{"length":94,"position":291840,"velocity":0.8661417322834646,"pitch":38,"id":"628e9946-b6af-48dc-9761-eb839db003ef"},{"length":94,"position":291936,"velocity":0.8661417322834646,"pitch":38,"id":"7397cbaf-415b-49c9-86b7-8ea63f32bc4d"},{"length":94,"position":292032,"velocity":0.8661417322834646,"pitch":38,"id":"9d8b8e21-573a-4cdf-a469-2250117e3e38"},{"length":94,"position":292128,"velocity":0.8661417322834646,"pitch":38,"id":"1ebc12de-d62d-4a50-b831-7ce2b345207a"},{"length":94,"position":292224,"velocity":0.8661417322834646,"pitch":43,"id":"753ddfa0-803f-4f8f-9180-9eb66159a79f"},{"length":94,"position":292320,"velocity":0.8661417322834646,"pitch":43,"id":"13f59848-3c9c-4933-9576-51a1e4d4c7e8"},{"length":94,"position":292416,"velocity":0.8661417322834646,"pitch":43,"id":"2c061f1c-1af8-48e6-b2eb-1c1ef282394e"},{"length":94,"position":292512,"velocity":0.8661417322834646,"pitch":43,"id":"47fe1bf4-539c-4815-adb4-10506db7bb1a"},{"length":94,"position":292608,"velocity":0.8661417322834646,"pitch":48,"id":"ec48b8a6-ca91-4cbb-aea2-aa0caa5c095b"},{"length":94,"position":292704,"velocity":0.8661417322834646,"pitch":48,"id":"78a1f434-dd66-4d4b-8e18-1bb613e40d3f"},{"length":94,"position":292800,"velocity":0.8661417322834646,"pitch":48,"id":"c8c2a498-4afd-4283-bf73-d117e29aca66"},{"length":94,"position":292896,"velocity":0.8661417322834646,"pitch":48,"id":"3cd24d3e-b20d-4ec4-b877-2c5ecbff4395"},{"length":94,"position":292992,"velocity":0.8661417322834646,"pitch":47,"id":"367c93a7-1f2d-4419-a1c3-9feca9d1c2c9"},{"length":94,"position":293088,"velocity":0.8661417322834646,"pitch":47,"id":"ea03ecc9-722c-4b56-948e-3beb4f101555"},{"length":94,"position":293184,"velocity":0.8661417322834646,"pitch":47,"id":"eb157ac9-a6ff-4b6a-bb5f-d9cfdd106e56"},{"length":94,"position":293280,"velocity":0.8661417322834646,"pitch":47,"id":"d9341ccb-7664-4e16-8bd9-d4bad61ba223"},{"length":94,"position":293376,"velocity":0.8661417322834646,"pitch":45,"id":"e2c0784b-aa21-4d67-a392-27625a5cb07d"},{"length":94,"position":293472,"velocity":0.8661417322834646,"pitch":45,"id":"645498fb-2a47-47d0-aeb1-5368d0a3782d"},{"length":94,"position":293568,"velocity":0.8661417322834646,"pitch":45,"id":"b406dd5d-5735-4700-a9ae-4268cfcc2039"},{"length":94,"position":293664,"velocity":0.8661417322834646,"pitch":45,"id":"5ca38c0a-91e9-4fce-a64e-9ea6e6d7dad8"},{"length":94,"position":293760,"velocity":0.8661417322834646,"pitch":43,"id":"c53de502-85a4-423f-ab27-278f6b4e4f24"},{"length":94,"position":293856,"velocity":0.8661417322834646,"pitch":43,"id":"8f0a2950-eaca-4289-bd5b-37cde52acc38"},{"length":94,"position":293952,"velocity":0.8661417322834646,"pitch":43,"id":"b77c8b4f-5b11-418e-b36d-1f70817bbd7d"},{"length":94,"position":294048,"velocity":0.8661417322834646,"pitch":43,"id":"84d46cd2-91b4-4d25-8123-673ff36f8e13"},{"length":94,"position":294144,"velocity":0.8661417322834646,"pitch":41,"id":"191d3e51-188c-4551-b415-776dafbadf3f"},{"length":94,"position":294240,"velocity":0.8661417322834646,"pitch":41,"id":"2a188d8a-f687-47f9-b4bd-c6b91e9ba2fc"},{"length":94,"position":294336,"velocity":0.8661417322834646,"pitch":41,"id":"9718e80a-da75-4e7f-bb08-1b422c5887ac"},{"length":94,"position":294432,"velocity":0.8661417322834646,"pitch":41,"id":"631ebd85-fb2e-464a-9ab6-2efa480d9a2d"},{"length":94,"position":294528,"velocity":0.8661417322834646,"pitch":40,"id":"bdaedef8-9a2b-4c98-a48e-bb9115e91e05"},{"length":94,"position":294624,"velocity":0.8661417322834646,"pitch":40,"id":"5bda1be5-7637-4fec-bb14-4e0ad5dcd743"},{"length":94,"position":294720,"velocity":0.8661417322834646,"pitch":40,"id":"e7c833af-89d9-42b4-bbc8-b4c3e18aa0a2"},{"length":94,"position":294816,"velocity":0.8661417322834646,"pitch":40,"id":"aac3b5ad-d918-479c-9ac7-4ea670660a1a"},{"length":94,"position":294912,"velocity":0.8661417322834646,"pitch":38,"id":"731a65d8-a6ad-422b-b272-d94f3db03554"},{"length":94,"position":295008,"velocity":0.8661417322834646,"pitch":38,"id":"c383cba9-0222-43e9-9e7d-ab454cd33316"},{"length":94,"position":295104,"velocity":0.8661417322834646,"pitch":38,"id":"9a88aca0-9ff3-4e6c-9980-efc7130b7db9"},{"length":94,"position":295200,"velocity":0.8661417322834646,"pitch":38,"id":"7497d489-90fd-47dc-a7f2-d1eb6e4b6f4a"},{"length":94,"position":295296,"velocity":0.8661417322834646,"pitch":43,"id":"b231afc2-a4e8-40a0-848c-1b4da00c3ed2"},{"length":94,"position":295392,"velocity":0.8661417322834646,"pitch":43,"id":"3da1cf66-57ad-4f57-98cb-31865bb61451"},{"length":94,"position":295488,"velocity":0.8661417322834646,"pitch":43,"id":"949c0b3d-bd7d-411b-aa23-9373f7e9be92"},{"length":94,"position":295584,"velocity":0.8661417322834646,"pitch":43,"id":"a6f1a160-c744-43de-8823-a84bea3d6fd6"},{"length":94,"position":295680,"velocity":0.8661417322834646,"pitch":36,"id":"cccf1ac4-9820-4884-a8be-4b5f8954b3d6"},{"length":94,"position":295776,"velocity":0.8661417322834646,"pitch":36,"id":"42d5a5ac-4f95-47f2-8dab-fe8bad36bbeb"},{"length":94,"position":295872,"velocity":0.8661417322834646,"pitch":36,"id":"0f5bdef2-961a-494d-96ec-9f06eebe5e4e"},{"length":94,"position":295968,"velocity":0.8661417322834646,"pitch":36,"id":"6ce299fd-82aa-416f-9798-7861479c6066"},{"length":94,"position":296064,"velocity":0.8661417322834646,"pitch":38,"id":"a329fb23-20fe-4de8-b523-5ad53576156f"},{"length":94,"position":296160,"velocity":0.8661417322834646,"pitch":38,"id":"e793977a-1113-4a9e-8ea5-1fc1454b6e94"},{"length":94,"position":296256,"velocity":0.8661417322834646,"pitch":38,"id":"71d46544-f38a-4417-b22a-47fa2bb31bd9"},{"length":94,"position":296352,"velocity":0.8661417322834646,"pitch":38,"id":"225b1b84-61a0-4212-99dc-5c213f705211"},{"length":94,"position":296448,"velocity":0.8661417322834646,"pitch":40,"id":"dfa0cbe0-59da-4e17-9860-4173532bd231"},{"length":94,"position":296544,"velocity":0.8661417322834646,"pitch":40,"id":"16b92fa2-75cf-4d5c-9739-69b07281e8f6"},{"length":94,"position":296640,"velocity":0.8661417322834646,"pitch":40,"id":"065c7e1b-97d6-4ff8-be91-201efd4cc2d2"},{"length":94,"position":296736,"velocity":0.8661417322834646,"pitch":40,"id":"d8a35c23-f393-42bf-8d24-d60061271a88"},{"length":94,"position":296832,"velocity":0.8661417322834646,"pitch":36,"id":"26aa2340-0c0b-40fc-b05f-9777a6ee67ba"},{"length":94,"position":296928,"velocity":0.8661417322834646,"pitch":36,"id":"057daaab-cd26-440e-ae67-abe91c9de969"},{"length":94,"position":297024,"velocity":0.8661417322834646,"pitch":36,"id":"8e1c696e-73c9-4b2f-b5d9-0ae8cc1e41bf"},{"length":94,"position":297120,"velocity":0.8661417322834646,"pitch":36,"id":"f3f0c44d-028e-4204-a4d2-67ff7b15f7c5"},{"length":94,"position":297216,"velocity":0.8661417322834646,"pitch":41,"id":"3894a847-0741-4a4c-9f62-934cb8c9b359"},{"length":94,"position":297312,"velocity":0.8661417322834646,"pitch":41,"id":"72505c8a-ae74-45e9-9600-c45145eaf72d"},{"length":94,"position":297408,"velocity":0.8661417322834646,"pitch":41,"id":"fe0e8b7c-f5a0-4dc7-a4bb-ff9bb588360b"},{"length":94,"position":297504,"velocity":0.8661417322834646,"pitch":41,"id":"daaa9f38-d202-4c9b-8744-64b1fa433054"},{"length":94,"position":297600,"velocity":0.8661417322834646,"pitch":43,"id":"c9ab1d3e-4df4-4832-8e2c-0dcbc062ce07"},{"length":94,"position":297696,"velocity":0.8661417322834646,"pitch":43,"id":"04c8bd56-1276-450f-874f-d2d8178af024"},{"length":94,"position":297792,"velocity":0.8661417322834646,"pitch":43,"id":"a507fe8d-ee69-4003-973d-e7d08ff39a92"},{"length":94,"position":297888,"velocity":0.8661417322834646,"pitch":43,"id":"62c26585-9ee7-411b-8f7a-8ffc7b4853bd"},{"length":94,"position":297984,"velocity":0.8661417322834646,"pitch":36,"id":"08ee92a3-c190-4209-9490-a317071456d2"},{"length":94,"position":298080,"velocity":0.8661417322834646,"pitch":36,"id":"4f7cfc45-57c8-4921-bfa9-57261a271af2"},{"length":94,"position":298176,"velocity":0.8661417322834646,"pitch":36,"id":"b22b67b8-3d89-47f6-a736-1d0ea92db3b8"},{"length":94,"position":298272,"velocity":0.8661417322834646,"pitch":36,"id":"5225437c-962b-48fb-90f7-c0711e42e20b"},{"length":94,"position":298368,"velocity":0.8661417322834646,"pitch":36,"id":"5321d7f2-d620-41f7-b071-ba07da27902c"},{"length":94,"position":298464,"velocity":0.8661417322834646,"pitch":36,"id":"910b97a2-965d-46a2-a340-60c9fdfe9904"},{"length":46,"position":298560,"velocity":0.8661417322834646,"pitch":38,"id":"daa786b8-5f45-4fd0-a3c9-009b195cd7c2"},{"length":142,"position":298608,"velocity":0.8661417322834646,"pitch":40,"id":"9dc98eec-1b41-4386-b69c-d1ce2e93a970"},{"length":94,"position":298752,"velocity":0.8661417322834646,"pitch":41,"id":"8fdb3caf-8349-4192-a568-022fee168615"},{"length":94,"position":298848,"velocity":0.8661417322834646,"pitch":41,"id":"f5a69aec-42e8-4d58-a84f-c157fbcf7b9d"},{"length":94,"position":298944,"velocity":0.8661417322834646,"pitch":41,"id":"8c6cc5cb-3724-41db-9a8c-ef826f2d3816"},{"length":94,"position":299040,"velocity":0.8661417322834646,"pitch":41,"id":"668c4424-e00c-40f1-9638-1e6b06071234"},{"length":94,"position":299136,"velocity":0.8661417322834646,"pitch":43,"id":"dc061144-1f23-4f42-8655-08e172c1976f"},{"length":94,"position":299232,"velocity":0.8661417322834646,"pitch":43,"id":"99182a49-13a9-4fca-8bed-93801304df78"},{"length":94,"position":299328,"velocity":0.8661417322834646,"pitch":43,"id":"404bb463-6936-4839-b8dc-4f94e1627d7c"},{"length":94,"position":299424,"velocity":0.8661417322834646,"pitch":43,"id":"aa8ecab7-ce5d-4d53-a64f-3837105f74e5"},{"length":94,"position":299520,"velocity":0.8661417322834646,"pitch":40,"id":"0f8a8bd3-aed5-4737-a4d2-3c0292ab0971"},{"length":94,"position":299616,"velocity":0.8661417322834646,"pitch":40,"id":"36547337-378c-4c7a-a947-175124cbaf57"},{"length":94,"position":299712,"velocity":0.8661417322834646,"pitch":40,"id":"8326f4b1-2fba-4629-90d6-a189564fd85b"},{"length":94,"position":299808,"velocity":0.8661417322834646,"pitch":40,"id":"d60c5490-2f12-4eea-9750-e042c06609a9"},{"length":94,"position":299904,"velocity":0.8661417322834646,"pitch":36,"id":"68509640-82ba-4da8-bea2-b42b7d55d718"},{"length":94,"position":300000,"velocity":0.8661417322834646,"pitch":36,"id":"94c881a4-a5c4-45ea-a9f6-6b7c274e02a5"},{"length":94,"position":300096,"velocity":0.8661417322834646,"pitch":36,"id":"75e0c528-9453-4e3d-8179-6af401baabca"},{"length":94,"position":300192,"velocity":0.8661417322834646,"pitch":36,"id":"a258086f-5eba-4d56-8830-ca9783e25105"},{"length":94,"position":300288,"velocity":0.8661417322834646,"pitch":34,"id":"b00607af-b6f8-44bb-9eb3-d5827e1e6f99"},{"length":94,"position":300384,"velocity":0.8661417322834646,"pitch":34,"id":"88c9acb0-82d0-4e72-a48b-825744b30700"},{"length":94,"position":300480,"velocity":0.8661417322834646,"pitch":34,"id":"d6bf8210-d41a-41d7-9c06-6e6a935f18f1"},{"length":94,"position":300576,"velocity":0.8661417322834646,"pitch":34,"id":"2b72ef99-2e5d-4d45-a9e0-03f678a4c1b8"},{"length":94,"position":300672,"velocity":0.8661417322834646,"pitch":34,"id":"705f5ccb-3e1a-4af5-b002-9e4d31d55aad"},{"length":94,"position":300768,"velocity":0.8661417322834646,"pitch":34,"id":"70b67676-9857-4590-ae2a-66419ae6d89d"},{"length":94,"position":300864,"velocity":0.8661417322834646,"pitch":34,"id":"520bad0f-d35e-4178-95f2-4fa0173e7959"},{"length":94,"position":300960,"velocity":0.8661417322834646,"pitch":34,"id":"c95a6542-a03f-4b16-b415-31fcf9773fb0"},{"length":94,"position":301056,"velocity":0.8661417322834646,"pitch":38,"id":"326c7ed2-0854-4d2b-a079-0ac848caef2f"},{"length":94,"position":301152,"velocity":0.8661417322834646,"pitch":38,"id":"213b1a71-bfd8-404e-ad3b-b281aaa6f931"},{"length":94,"position":301248,"velocity":0.8661417322834646,"pitch":38,"id":"6f9e2bee-4064-4900-a59a-28643f5a4e52"},{"length":94,"position":301344,"velocity":0.8661417322834646,"pitch":38,"id":"e99aa44b-9ac5-4e9d-b7a1-2b3180aa5758"},{"length":94,"position":301440,"velocity":0.8661417322834646,"pitch":43,"id":"dbf78dc6-1ffd-4772-9abf-4bc4b9a6b8ec"},{"length":94,"position":301536,"velocity":0.8661417322834646,"pitch":43,"id":"aaedb3ca-4c70-4249-b257-08bea1b04f54"},{"length":94,"position":301632,"velocity":0.8661417322834646,"pitch":43,"id":"eb5f6ad7-c2a2-40ad-a131-b949d7f7abee"},{"length":94,"position":301728,"velocity":0.8661417322834646,"pitch":43,"id":"407ac536-cf7f-4727-b481-720fc77db9ac"},{"length":94,"position":301824,"velocity":0.8661417322834646,"pitch":36,"id":"4611a059-b427-4654-b01c-83b83eea6e23"},{"length":94,"position":301920,"velocity":0.8661417322834646,"pitch":36,"id":"a4e2f028-8366-46e5-b6b3-9999f718c600"},{"length":94,"position":302016,"velocity":0.8661417322834646,"pitch":36,"id":"80553f41-f002-4717-877f-47ec3e08b7af"},{"length":94,"position":302112,"velocity":0.8661417322834646,"pitch":36,"id":"a4cf5df9-dfa8-4d54-b1e2-4cc639258bb4"},{"length":94,"position":302208,"velocity":0.8661417322834646,"pitch":38,"id":"999e1f52-9108-4560-b507-b32cfc1878d8"},{"length":94,"position":302304,"velocity":0.8661417322834646,"pitch":38,"id":"2149dff4-7fd3-477c-9611-af286208d704"},{"length":94,"position":302400,"velocity":0.8661417322834646,"pitch":38,"id":"48b384b2-906d-4f54-bee1-274811bc184a"},{"length":94,"position":302496,"velocity":0.8661417322834646,"pitch":38,"id":"d7ba799d-30f2-4496-886f-5a95a3c1fa4f"},{"length":94,"position":302592,"velocity":0.8661417322834646,"pitch":40,"id":"232d0af3-4dcb-46bf-a675-552b3e330f44"},{"length":94,"position":302688,"velocity":0.8661417322834646,"pitch":40,"id":"02e4055b-6990-4e00-ae75-990f23ace53b"},{"length":94,"position":302784,"velocity":0.8661417322834646,"pitch":40,"id":"81f4ca19-a29c-4b64-94f6-d0d9bc6cfeec"},{"length":94,"position":302880,"velocity":0.8661417322834646,"pitch":40,"id":"c4d9d4a3-ffc7-473f-a34e-88b2974f7ef0"},{"length":94,"position":302976,"velocity":0.8661417322834646,"pitch":36,"id":"c0f02647-9c24-4e7f-9697-99c33d5b4a30"},{"length":94,"position":303072,"velocity":0.8661417322834646,"pitch":36,"id":"a600bc64-28ab-4fd5-a952-82f6bc2279bd"},{"length":94,"position":303168,"velocity":0.8661417322834646,"pitch":36,"id":"9cd94f7e-90e2-4ce6-a5e5-8102fd19fdb1"},{"length":94,"position":303264,"velocity":0.8661417322834646,"pitch":36,"id":"c6ca0408-c90f-4013-8c61-7946fa45fabf"},{"length":94,"position":303360,"velocity":0.8661417322834646,"pitch":41,"id":"d945efa1-fc07-4a23-9a19-3a0a26d5e33a"},{"length":94,"position":303456,"velocity":0.8661417322834646,"pitch":41,"id":"2f06b14c-a4c9-4e42-97ae-b7942a7e5453"},{"length":94,"position":303552,"velocity":0.8661417322834646,"pitch":41,"id":"defc6722-555e-49d3-9b37-12eea6e758bf"},{"length":94,"position":303648,"velocity":0.8661417322834646,"pitch":41,"id":"5989eb75-bba8-4cc9-9006-d6aeb4f766d2"},{"length":94,"position":303744,"velocity":0.8661417322834646,"pitch":43,"id":"7ac4f63b-6e73-4cde-8cb5-c6d7514afdb5"},{"length":94,"position":303840,"velocity":0.8661417322834646,"pitch":43,"id":"697e04d1-c289-46b9-93e3-c04c8f26eb42"},{"length":94,"position":303936,"velocity":0.8661417322834646,"pitch":43,"id":"ab1ce32b-ce8f-4464-b058-0fddbca6112c"},{"length":94,"position":304032,"velocity":0.8661417322834646,"pitch":43,"id":"c6d2df0d-9361-4a92-bee5-35bd99089e34"},{"length":94,"position":304128,"velocity":0.8661417322834646,"pitch":36,"id":"ca9d3bd5-9195-4584-b4ae-430a2d81818e"},{"length":94,"position":304224,"velocity":0.8661417322834646,"pitch":36,"id":"18eb52fc-dc31-4489-9bda-15bb0b3de5d4"},{"length":94,"position":304320,"velocity":0.8661417322834646,"pitch":36,"id":"7fc2d1e9-4145-4653-bedc-ad08f5a8a0d1"},{"length":94,"position":304416,"velocity":0.8661417322834646,"pitch":36,"id":"5806bd76-ef14-416d-b8df-c4af527bb4e9"},{"length":94,"position":304512,"velocity":0.8661417322834646,"pitch":36,"id":"a2776000-566d-4263-a0e7-25af8b3c0906"},{"length":94,"position":304608,"velocity":0.8661417322834646,"pitch":36,"id":"41221878-b99d-4cbc-9eae-61e292531b45"},{"length":46,"position":304704,"velocity":0.8661417322834646,"pitch":38,"id":"ec75b220-b061-4f3d-85b0-0c32be9f7aa3"},{"length":142,"position":304752,"velocity":0.8661417322834646,"pitch":40,"id":"0f1f4a0a-cbaf-44e8-84a6-862fa6661bff"},{"length":94,"position":304896,"velocity":0.8661417322834646,"pitch":41,"id":"6097fc09-746a-476f-89cc-dd3af7fe0136"},{"length":94,"position":304992,"velocity":0.8661417322834646,"pitch":41,"id":"8702b0b8-375f-4009-8404-b7ba7b54789e"},{"length":94,"position":305088,"velocity":0.8661417322834646,"pitch":41,"id":"cb816db2-5551-44c1-a1fa-f0f2bc3cd2f5"},{"length":94,"position":305184,"velocity":0.8661417322834646,"pitch":41,"id":"b3712402-0874-4c8d-897b-0693c4ab72af"},{"length":94,"position":305280,"velocity":0.8661417322834646,"pitch":43,"id":"b0fb1b4e-fb93-4516-a1a5-e6b68f755032"},{"length":94,"position":305376,"velocity":0.8661417322834646,"pitch":43,"id":"a8654607-a9ca-4ef1-abbf-8ad55e648362"},{"length":94,"position":305472,"velocity":0.8661417322834646,"pitch":43,"id":"6418a7c0-0f6d-42ba-b5a0-775f0a1f852b"},{"length":94,"position":305568,"velocity":0.8661417322834646,"pitch":43,"id":"abb136bd-90fa-4cf2-a7d6-453d7363e518"},{"length":94,"position":305664,"velocity":0.8661417322834646,"pitch":40,"id":"cf88a022-1604-4563-81ad-4b7bbcf46d32"},{"length":94,"position":305760,"velocity":0.8661417322834646,"pitch":40,"id":"657abef8-acf8-446c-9489-dd1a50bfeb6a"},{"length":94,"position":305856,"velocity":0.8661417322834646,"pitch":40,"id":"c9e95e23-f786-4565-bb7c-e3acf604da38"},{"length":94,"position":305952,"velocity":0.8661417322834646,"pitch":40,"id":"36e1e157-066a-46b4-92a6-6d120a7f35f7"},{"length":94,"position":306048,"velocity":0.8661417322834646,"pitch":36,"id":"abc12203-ca81-4820-b787-6e592f3a2f0e"},{"length":94,"position":306144,"velocity":0.8661417322834646,"pitch":36,"id":"fb453269-f203-4ba7-852f-18e8c1d33331"},{"length":94,"position":306240,"velocity":0.8661417322834646,"pitch":36,"id":"b4e07fe5-4ff0-4bfb-b2bc-d6299b928392"},{"length":94,"position":306336,"velocity":0.8661417322834646,"pitch":36,"id":"64f3c1fd-8372-42a1-874b-31cc481a4620"},{"length":94,"position":306432,"velocity":0.8661417322834646,"pitch":38,"id":"531d90a1-299b-4e15-bee0-5eea78b6b2d5"},{"length":94,"position":306528,"velocity":0.8661417322834646,"pitch":38,"id":"ce9f70c9-ee70-4a4f-a635-8b09c8379807"},{"length":94,"position":306624,"velocity":0.8661417322834646,"pitch":38,"id":"3d3611be-9dc4-408e-a16c-c534a183ccf9"},{"length":94,"position":306720,"velocity":0.8661417322834646,"pitch":38,"id":"37741143-e02c-4e4b-a8f3-8ac933da40be"},{"length":94,"position":306816,"velocity":0.8661417322834646,"pitch":43,"id":"1bf389b6-f52d-458c-82d2-46ff1ec3250e"},{"length":94,"position":306912,"velocity":0.8661417322834646,"pitch":43,"id":"5f8a6d4d-552c-4355-9bd7-ef8c99aa8dfa"},{"length":94,"position":307008,"velocity":0.8661417322834646,"pitch":43,"id":"682f0b18-0d26-4c23-9c3d-3392eadc8dc1"},{"length":94,"position":307104,"velocity":0.8661417322834646,"pitch":43,"id":"a07db1fb-7168-4a41-a4a9-b494b5039ab1"},{"length":94,"position":307200,"velocity":0.8661417322834646,"pitch":36,"id":"b1c2379f-8abc-4c62-80c0-90283cbb8632"},{"length":94,"position":307296,"velocity":0.8661417322834646,"pitch":36,"id":"27964945-06f7-4fef-a022-429466ee9574"},{"length":94,"position":307392,"velocity":0.8661417322834646,"pitch":36,"id":"fae19545-0d81-48d7-ab76-5c39a5ec6a60"},{"length":94,"position":307488,"velocity":0.8661417322834646,"pitch":36,"id":"fa4e32e9-fbcd-4807-b82b-51d93897d1aa"},{"length":94,"position":307584,"velocity":0.8661417322834646,"pitch":36,"id":"a9445b47-fa8d-40d6-afeb-5a578cbc50e7"},{"length":94,"position":307680,"velocity":0.8661417322834646,"pitch":36,"id":"b90cf2fd-d68d-4213-a4bf-3d88608f5d78"},{"length":94,"position":307776,"velocity":0.8661417322834646,"pitch":36,"id":"bf14e35f-63a5-4e9e-8066-82a406d4fe6b"},{"length":94,"position":307872,"velocity":0.8661417322834646,"pitch":36,"id":"fe58fa16-3ea5-4be9-a59d-fe48619f5b3f"},{"length":256,"position":307968,"velocity":0.8661417322834646,"pitch":45,"id":"6b9ed6c1-6d36-4cc6-8739-2971c753934f"},{"length":432,"position":308256,"velocity":0.8661417322834646,"pitch":45,"id":"23ec607e-9e6f-4519-8789-67ed1ef198ae"},{"length":256,"position":308736,"velocity":0.8661417322834646,"pitch":43,"id":"3793ef8f-3fa3-46eb-b6cc-5c1ba055199c"},{"length":432,"position":309024,"velocity":0.8661417322834646,"pitch":43,"id":"857c8f6c-6cfb-4ee3-9aa0-dbefc015b443"},{"length":256,"position":309504,"velocity":0.8661417322834646,"pitch":41,"id":"e99cf986-4348-4813-9fa3-b3f8e66d88ac"},{"length":432,"position":309792,"velocity":0.8661417322834646,"pitch":41,"id":"6cca8556-1b2d-4109-9ba6-2654314f5e86"},{"length":256,"position":310272,"velocity":0.8661417322834646,"pitch":40,"id":"f300f2a3-4346-41e2-9423-7196dc5ebf58"},{"length":432,"position":310560,"velocity":0.8661417322834646,"pitch":40,"id":"a6b1f26e-511e-450e-8a57-1742be73901f"},{"length":528,"position":311040,"velocity":0.8661417322834646,"pitch":38,"id":"9af4d0f8-63ea-48d0-ad31-1e322cd632f0"},{"length":160,"position":311616,"velocity":0.8661417322834646,"pitch":38,"id":"e6282e5d-37ba-46f4-b3c0-401f302c9756"},{"length":528,"position":311808,"velocity":0.8661417322834646,"pitch":40,"id":"4f63e43c-b126-4930-80e4-22a148cd5ab3"},{"length":160,"position":312384,"velocity":0.8661417322834646,"pitch":40,"id":"50b5c827-8d2f-4be0-b991-5b8df8b1404f"},{"length":528,"position":312576,"velocity":0.8661417322834646,"pitch":41,"id":"fc686907-93d6-4729-993e-581dd97ca284"},{"length":160,"position":313152,"velocity":0.8661417322834646,"pitch":41,"id":"dea45323-aee6-426f-9668-5c8be1061e24"},{"length":720,"position":313344,"velocity":0.8661417322834646,"pitch":43,"id":"5a998456-011e-462f-8b1b-8729e86ef2f3"},{"length":94,"position":314112,"velocity":0.8661417322834646,"pitch":48,"id":"17b60c86-e808-490e-9cdf-62876075f1da"},{"length":94,"position":314208,"velocity":0.8661417322834646,"pitch":48,"id":"bd6ca8de-cde2-4a25-b56a-18069bdeb38c"},{"length":94,"position":314304,"velocity":0.8661417322834646,"pitch":48,"id":"708b1190-e430-4027-858e-e1c0690e5ce7"},{"length":94,"position":314400,"velocity":0.8661417322834646,"pitch":48,"id":"4291a392-e0c9-45f4-8e63-933a6eb5dd40"},{"length":94,"position":314496,"velocity":0.8661417322834646,"pitch":47,"id":"e1931383-1c62-4c79-8db8-29be7e4d02e8"},{"length":94,"position":314592,"velocity":0.8661417322834646,"pitch":47,"id":"5ca13f91-1141-42fc-85dc-2378befc413a"},{"length":94,"position":314688,"velocity":0.8661417322834646,"pitch":47,"id":"e57293a9-c1b5-46d4-b79d-e34eb2ef2a1c"},{"length":94,"position":314784,"velocity":0.8661417322834646,"pitch":47,"id":"955bae0a-9c4d-4b3f-bfaa-ea80839a0de9"},{"length":94,"position":314880,"velocity":0.8661417322834646,"pitch":45,"id":"001060ea-32b7-4f95-860f-3e66deda4bc9"},{"length":94,"position":314976,"velocity":0.8661417322834646,"pitch":45,"id":"20338ad5-ba8b-4971-8fae-55d29ca302eb"},{"length":94,"position":315072,"velocity":0.8661417322834646,"pitch":45,"id":"e6a5421b-cbba-4651-969e-50a7a6cfe432"},{"length":94,"position":315168,"velocity":0.8661417322834646,"pitch":45,"id":"e0ab41fe-7264-4960-a348-5817c6a67e2a"},{"length":94,"position":315264,"velocity":0.8661417322834646,"pitch":43,"id":"a2586546-fbfa-4bec-a6c2-f689f41fd4e9"},{"length":94,"position":315360,"velocity":0.8661417322834646,"pitch":43,"id":"4884cb6d-3d7b-4d57-8dae-7cdc4667e738"},{"length":94,"position":315456,"velocity":0.8661417322834646,"pitch":43,"id":"1befdd3a-df58-4080-8874-95c90fc245d0"},{"length":94,"position":315552,"velocity":0.8661417322834646,"pitch":43,"id":"081bb480-0976-4920-b51c-c57d10e81e28"},{"length":94,"position":315648,"velocity":0.8661417322834646,"pitch":41,"id":"f7755d6f-c7db-4740-bcf9-d704b27493fb"},{"length":94,"position":315744,"velocity":0.8661417322834646,"pitch":41,"id":"ecabe55c-70ed-4208-a92d-2d47fe04d8b1"},{"length":94,"position":315840,"velocity":0.8661417322834646,"pitch":41,"id":"3c134d0d-99a2-49da-9f4d-e8a2fe06a666"},{"length":94,"position":315936,"velocity":0.8661417322834646,"pitch":41,"id":"58ab61db-2124-4857-905d-60716b4a3587"},{"length":94,"position":316032,"velocity":0.8661417322834646,"pitch":40,"id":"9cc59f5c-7201-4864-a1ae-f45a8266acf3"},{"length":94,"position":316128,"velocity":0.8661417322834646,"pitch":40,"id":"01bfb0ef-4634-43cf-bd22-536f7c2dc74f"},{"length":94,"position":316224,"velocity":0.8661417322834646,"pitch":40,"id":"fa74420a-9358-44b4-8c1a-0b2cf579d8b8"},{"length":94,"position":316320,"velocity":0.8661417322834646,"pitch":40,"id":"bdb4ecc2-fe6a-4e21-b10a-01dc6a674292"},{"length":94,"position":316416,"velocity":0.8661417322834646,"pitch":38,"id":"f01d2df6-0f6b-405c-8ff7-a5a96f1cff33"},{"length":94,"position":316512,"velocity":0.8661417322834646,"pitch":38,"id":"3655ffb1-8e80-43a7-b86a-45262662e7be"},{"length":94,"position":316608,"velocity":0.8661417322834646,"pitch":38,"id":"e1337420-a4c6-4680-85da-321383621f3c"},{"length":94,"position":316704,"velocity":0.8661417322834646,"pitch":38,"id":"3cf115e3-8e1c-47c6-9fcb-5727194eb26f"},{"length":94,"position":316800,"velocity":0.8661417322834646,"pitch":43,"id":"1cb27d4e-5d28-47a1-94b3-63ecfb058825"},{"length":94,"position":316896,"velocity":0.8661417322834646,"pitch":43,"id":"8b3c2c30-b5ac-466f-8c11-601555252d7a"},{"length":94,"position":316992,"velocity":0.8661417322834646,"pitch":43,"id":"39674af5-acb7-4620-a257-0bbb4c64d233"},{"length":94,"position":317088,"velocity":0.8661417322834646,"pitch":43,"id":"594d4cf6-e335-4b2f-bf49-7572143b146c"},{"length":94,"position":317184,"velocity":0.8661417322834646,"pitch":48,"id":"a0dec99c-98e8-4feb-aeb8-8d722f211a68"},{"length":94,"position":317280,"velocity":0.8661417322834646,"pitch":48,"id":"5bbe50ab-d4d9-4736-938f-47ed98b0527f"},{"length":94,"position":317376,"velocity":0.8661417322834646,"pitch":48,"id":"b48b46dd-a559-4661-a94e-f1391151473e"},{"length":94,"position":317472,"velocity":0.8661417322834646,"pitch":48,"id":"7759625f-8981-44db-83d8-404c20117c10"},{"length":94,"position":317568,"velocity":0.8661417322834646,"pitch":47,"id":"62229359-9bd5-4b8c-8f90-be2c7ba0ff0a"},{"length":94,"position":317664,"velocity":0.8661417322834646,"pitch":47,"id":"3a37bb6e-4c73-432e-a52d-0720be8f6f09"},{"length":94,"position":317760,"velocity":0.8661417322834646,"pitch":47,"id":"3eb7b61e-5181-4778-8998-1d9b9ef03b81"},{"length":94,"position":317856,"velocity":0.8661417322834646,"pitch":47,"id":"1a2c60c4-d735-4006-860e-3ec233272254"},{"length":94,"position":317952,"velocity":0.8661417322834646,"pitch":45,"id":"054be7f8-e899-4e28-bab8-cdc203cda884"},{"length":94,"position":318048,"velocity":0.8661417322834646,"pitch":45,"id":"864c34eb-0f74-4c48-9923-febefc1758b5"},{"length":94,"position":318144,"velocity":0.8661417322834646,"pitch":45,"id":"91046a82-154f-45e3-b78f-b5b2916e6dba"},{"length":94,"position":318240,"velocity":0.8661417322834646,"pitch":45,"id":"8bcb9163-e131-410a-a251-df2d2febb18a"},{"length":94,"position":318336,"velocity":0.8661417322834646,"pitch":43,"id":"6de56fc7-b326-4d90-9a8b-591f7b476ca4"},{"length":94,"position":318432,"velocity":0.8661417322834646,"pitch":43,"id":"e39e681b-6857-4230-a556-18f3ff2ff6dd"},{"length":94,"position":318528,"velocity":0.8661417322834646,"pitch":43,"id":"333302d1-aa02-4cec-8c38-9f5dd8b08087"},{"length":94,"position":318624,"velocity":0.8661417322834646,"pitch":43,"id":"4cfdf247-aa88-4258-b9e2-d3b76d155a7c"},{"length":94,"position":318720,"velocity":0.8661417322834646,"pitch":41,"id":"0e858535-cd85-4d55-b491-92bd365fc951"},{"length":94,"position":318816,"velocity":0.8661417322834646,"pitch":41,"id":"fc475fdd-2cb7-4487-989c-1f13f103a32c"},{"length":94,"position":318912,"velocity":0.8661417322834646,"pitch":41,"id":"0e418753-b013-4766-bce7-e996e20c1869"},{"length":94,"position":319008,"velocity":0.8661417322834646,"pitch":41,"id":"394c1624-1d07-4180-ad26-88bb45005003"},{"length":94,"position":319104,"velocity":0.8661417322834646,"pitch":40,"id":"7c8e27b6-5fa2-4b5d-a5e9-c5dd80fee8d5"},{"length":94,"position":319200,"velocity":0.8661417322834646,"pitch":40,"id":"43b8320a-6210-4367-89ff-fd6fbfa3c8a3"},{"length":94,"position":319296,"velocity":0.8661417322834646,"pitch":40,"id":"dee4e3de-a2a8-4dc7-9c0a-b9ca147ed8fe"},{"length":94,"position":319392,"velocity":0.8661417322834646,"pitch":40,"id":"21e154c9-85aa-4864-bb74-acf8486fe7d1"},{"length":94,"position":319488,"velocity":0.8661417322834646,"pitch":38,"id":"e92dabd3-3ca0-4014-ad08-abfdc7893e6b"},{"length":94,"position":319584,"velocity":0.8661417322834646,"pitch":38,"id":"94faf834-5111-4e65-87c6-71fc9eefc6cf"},{"length":94,"position":319680,"velocity":0.8661417322834646,"pitch":38,"id":"87aa7fad-5e98-4315-8dec-4e19228f7af0"},{"length":94,"position":319776,"velocity":0.8661417322834646,"pitch":38,"id":"de013cb1-1bdd-46ee-a09c-d084e0ae6862"},{"length":94,"position":319872,"velocity":0.8661417322834646,"pitch":43,"id":"eca47dc1-706a-4f1e-ae09-386d6fe3a887"},{"length":94,"position":319968,"velocity":0.8661417322834646,"pitch":43,"id":"d09106a6-5ee4-4407-a4ce-98ae98e979fd"},{"length":94,"position":320064,"velocity":0.8661417322834646,"pitch":43,"id":"c810e658-e263-49ab-97c5-cf49f48ff23e"},{"length":94,"position":320160,"velocity":0.8661417322834646,"pitch":43,"id":"fd716e1e-c56b-4ca4-83bd-2df18cd2eab1"},{"length":94,"position":320256,"velocity":0.8661417322834646,"pitch":49,"id":"76171a97-bde6-45b4-98b6-419755640eef"},{"length":94,"position":320352,"velocity":0.8661417322834646,"pitch":49,"id":"545f8f75-e8f8-485b-8a35-13a471591230"},{"length":94,"position":320448,"velocity":0.8661417322834646,"pitch":49,"id":"aae2d130-eebe-4097-bba7-56581138b8ab"},{"length":94,"position":320544,"velocity":0.8661417322834646,"pitch":49,"id":"38dddd77-0dd9-40d3-84e6-63500869f6b0"},{"length":94,"position":320640,"velocity":0.8661417322834646,"pitch":48,"id":"55a47256-df44-447c-a9ff-cb3e170d2e3c"},{"length":94,"position":320736,"velocity":0.8661417322834646,"pitch":48,"id":"d8da5d30-9fba-4915-9137-0311e76904e9"},{"length":94,"position":320832,"velocity":0.8661417322834646,"pitch":48,"id":"93194387-dd01-436b-ada8-5ed0c7accca2"},{"length":94,"position":320928,"velocity":0.8661417322834646,"pitch":48,"id":"fc5f5cf0-7a64-4480-a673-9aba0e0ecb04"},{"length":94,"position":321024,"velocity":0.8661417322834646,"pitch":46,"id":"10bf580b-c5af-47ab-8bdf-e899fdff2b6b"},{"length":94,"position":321120,"velocity":0.8661417322834646,"pitch":46,"id":"7cfb7c68-a9f0-432c-8bf4-d587686fb0a7"},{"length":94,"position":321216,"velocity":0.8661417322834646,"pitch":46,"id":"b90649d5-4c71-4418-a85f-5f0b310617ae"},{"length":94,"position":321312,"velocity":0.8661417322834646,"pitch":46,"id":"02a1aae2-9079-4dad-b922-cb531c39003e"},{"length":94,"position":321408,"velocity":0.8661417322834646,"pitch":44,"id":"47453d26-10a7-4486-b603-26d88318d063"},{"length":94,"position":321504,"velocity":0.8661417322834646,"pitch":44,"id":"27228a95-50d4-49d4-a43d-a51049c5d420"},{"length":94,"position":321600,"velocity":0.8661417322834646,"pitch":44,"id":"d5806a47-cf67-4337-8a38-bb1536b25e03"},{"length":94,"position":321696,"velocity":0.8661417322834646,"pitch":44,"id":"be6a365b-fef2-4f77-a531-e0c4a265b62e"},{"length":94,"position":321792,"velocity":0.8661417322834646,"pitch":42,"id":"1e3b74b8-355b-4fbd-a07b-6862bf077fbc"},{"length":94,"position":321888,"velocity":0.8661417322834646,"pitch":42,"id":"b8a6310e-8545-4e1e-a56e-d6593819f3d8"},{"length":94,"position":321984,"velocity":0.8661417322834646,"pitch":42,"id":"cd64fa63-0248-48d2-a015-494cad298b25"},{"length":94,"position":322080,"velocity":0.8661417322834646,"pitch":42,"id":"98565235-9698-434d-9ae0-54d6e865d58b"},{"length":94,"position":322176,"velocity":0.8661417322834646,"pitch":41,"id":"1890e059-d8fe-45bc-bbed-d1d61d28f8f7"},{"length":94,"position":322272,"velocity":0.8661417322834646,"pitch":41,"id":"92de9fbf-c841-4d9c-a3bd-40683c68006a"},{"length":94,"position":322368,"velocity":0.8661417322834646,"pitch":41,"id":"0d18bfba-fc20-4805-8bda-13f68d616be8"},{"length":94,"position":322464,"velocity":0.8661417322834646,"pitch":41,"id":"2a8e6787-aa00-4bd5-a0e6-3d3f79b8b960"},{"length":94,"position":322560,"velocity":0.8661417322834646,"pitch":39,"id":"07e3adfd-80fe-45b7-b444-79e48066624a"},{"length":94,"position":322656,"velocity":0.8661417322834646,"pitch":39,"id":"ba07c6d2-44eb-4143-b2fd-097942062233"},{"length":94,"position":322752,"velocity":0.8661417322834646,"pitch":39,"id":"0717b6b7-fa08-496c-8029-23b2a7164384"},{"length":94,"position":322848,"velocity":0.8661417322834646,"pitch":39,"id":"bde45a1c-d4bd-48a9-9233-79088eab580e"},{"length":94,"position":322944,"velocity":0.8661417322834646,"pitch":44,"id":"34621a6d-3c67-4616-b31d-8c7e2b14540e"},{"length":94,"position":323040,"velocity":0.8661417322834646,"pitch":44,"id":"6923b1d7-6b65-4484-958d-a699f6041ef2"},{"length":94,"position":323136,"velocity":0.8661417322834646,"pitch":44,"id":"056b0fe8-7666-4519-8310-38abe2caa91c"},{"length":94,"position":323232,"velocity":0.8661417322834646,"pitch":44,"id":"db05ae92-bc02-4096-b4ef-007ad5a0ff3f"},{"length":94,"position":323328,"velocity":0.8661417322834646,"pitch":49,"id":"2450505e-9b7c-4511-a5e4-00a0caa0c68a"},{"length":94,"position":323424,"velocity":0.8661417322834646,"pitch":49,"id":"bd905c22-c1e9-4579-a91f-f8c87e9b3c8d"},{"length":94,"position":323520,"velocity":0.8661417322834646,"pitch":49,"id":"4a80c699-0060-4e59-b4e0-d38e25adba2f"},{"length":94,"position":323616,"velocity":0.8661417322834646,"pitch":49,"id":"3e2ea2b2-3de1-4aee-96f5-3add6a371e54"},{"length":94,"position":323712,"velocity":0.8661417322834646,"pitch":48,"id":"fd4ec832-f2a6-4057-baa5-494a5c8f1597"},{"length":94,"position":323808,"velocity":0.8661417322834646,"pitch":48,"id":"a7e58927-6148-474d-8de9-710300243b20"},{"length":94,"position":323904,"velocity":0.8661417322834646,"pitch":48,"id":"94102940-292f-415e-9c0d-d902c21a901e"},{"length":94,"position":324000,"velocity":0.8661417322834646,"pitch":48,"id":"6819b571-9d4b-423f-9559-de3c0ef8d7d1"},{"length":94,"position":324096,"velocity":0.8661417322834646,"pitch":46,"id":"598300a3-8a2c-40e8-a0f5-010316e20c53"},{"length":94,"position":324192,"velocity":0.8661417322834646,"pitch":46,"id":"c8714baa-665b-49c6-bf4c-517053c6aff4"},{"length":94,"position":324288,"velocity":0.8661417322834646,"pitch":46,"id":"790c2d7b-0995-48b2-b50b-9b02c053f02a"},{"length":94,"position":324384,"velocity":0.8661417322834646,"pitch":46,"id":"a7ec307b-19a8-4835-acdf-1db2c9aa5bf9"},{"length":94,"position":324480,"velocity":0.8661417322834646,"pitch":44,"id":"8ff60066-4d61-41c9-b8e8-965283edb8c4"},{"length":94,"position":324576,"velocity":0.8661417322834646,"pitch":44,"id":"a1b66a51-9bc5-4ab8-be3c-d7986d0cb8ce"},{"length":94,"position":324672,"velocity":0.8661417322834646,"pitch":44,"id":"72a12a3a-f462-42f7-a394-5e1694215ac8"},{"length":94,"position":324768,"velocity":0.8661417322834646,"pitch":44,"id":"19064684-b87e-4394-a2af-e32e0d1b676a"},{"length":94,"position":324864,"velocity":0.8661417322834646,"pitch":42,"id":"a0777012-fbc2-45a6-b10c-b5684c580ed6"},{"length":94,"position":324960,"velocity":0.8661417322834646,"pitch":42,"id":"0cd676ad-2061-4857-8cad-616a7a10dda1"},{"length":94,"position":325056,"velocity":0.8661417322834646,"pitch":42,"id":"dd70afeb-e5dd-4b73-97fa-163115fea5b5"},{"length":94,"position":325152,"velocity":0.8661417322834646,"pitch":42,"id":"b3808684-2d1b-4b23-ab25-f3233970fa5f"},{"length":94,"position":325248,"velocity":0.8661417322834646,"pitch":41,"id":"ca9bb95a-6b4a-41da-9da2-0685c2ad0e15"},{"length":94,"position":325344,"velocity":0.8661417322834646,"pitch":41,"id":"0c5178d7-f68f-4ed3-8b3a-b9a462a9e390"},{"length":94,"position":325440,"velocity":0.8661417322834646,"pitch":41,"id":"9945f7a3-7da4-4419-bf89-84f92dc3cab5"},{"length":94,"position":325536,"velocity":0.8661417322834646,"pitch":41,"id":"7a8532f9-e764-42c2-af85-b665314e1283"},{"length":94,"position":325632,"velocity":0.8661417322834646,"pitch":39,"id":"4cbdb2d4-280f-48a2-b1ec-aa447cb85c05"},{"length":94,"position":325728,"velocity":0.8661417322834646,"pitch":39,"id":"0fb6c81d-fa00-4493-b8e9-91b50a97bdf2"},{"length":94,"position":325824,"velocity":0.8661417322834646,"pitch":39,"id":"c7628b3a-d4b7-4e95-bc4c-6bfc1de6bd12"},{"length":94,"position":325920,"velocity":0.8661417322834646,"pitch":39,"id":"41059942-a396-42dd-b1c7-eb9e0e6f5347"},{"length":94,"position":326016,"velocity":0.8661417322834646,"pitch":44,"id":"bde4a87f-8f2f-4240-a5bb-5e65018cfef5"},{"length":94,"position":326112,"velocity":0.8661417322834646,"pitch":44,"id":"031b2c6e-2531-4637-8a08-9cc2bef16916"},{"length":94,"position":326208,"velocity":0.8661417322834646,"pitch":44,"id":"cfd88a67-eab0-4de1-bf2a-5698a758cc70"},{"length":94,"position":326304,"velocity":0.8661417322834646,"pitch":44,"id":"71491ce1-b771-44c5-8d8d-5c3fe2b4d9f3"},{"length":720,"position":326400,"velocity":0.8661417322834646,"pitch":37,"id":"5e596100-f8ca-4481-af07-d1acfdcfdad2"},{"length":720,"position":327168,"velocity":0.8661417322834646,"pitch":42,"id":"77f45fff-c21b-4791-a8b9-dea2dadc0623"},{"length":720,"position":327936,"velocity":0.8661417322834646,"pitch":37,"id":"8d3a9791-9b1b-455d-b42e-d212ac5d23ac"},{"length":720,"position":328704,"velocity":0.8661417322834646,"pitch":42,"id":"d98e4c58-d86b-4af6-a209-1ced73d87217"},{"length":720,"position":329472,"velocity":0.8661417322834646,"pitch":37,"id":"c0a8ac1c-42f6-40a0-ada2-3af6076c58d2"},{"length":720,"position":330240,"velocity":0.8661417322834646,"pitch":42,"id":"6bce07e8-f2e3-430f-a4a8-728be61340fd"},{"length":120,"position":331080,"velocity":0.8661417322834646,"pitch":37,"id":"bf79f063-ad83-4b8e-8d47-234dc8d26729"},{"length":160,"position":331776,"velocity":0.8661417322834646,"pitch":37,"id":"c22a03bc-b648-4a9c-90d0-a0ecae094ce0"}],"timing":{"pulsesContentPosition":0,"pulsesLength":56064},"type":"N"}]}}],"audioMetaData":{},"audioFiles":[],"transportRange":[0,56064]}