{"channelList":[{"type":"InstrumentChannel","data":{"mute":false,"solo":false,"gainAutomation":[{"time":0,"value":-14}],"id":"949555fc-9e86-4b77-9ffb-1f6090050973","instrument":{"config":{"type":"generalMidiSynth","data":{"programId":0,"isPercussion":false}},"name":"Acoustic Grand Piano"},"name":"untitled","regions":[{"loopCount":1,"position":0,"color":"#10b6c7","id":"7e8b798c-9fd2-405a-a4f3-feb589b46f59","name":"Note Clip","notes":[{"length":576,"position":0,"velocity":0.7874015748031497,"pitch":41,"id":"8cd078df-ae67-4559-bfa9-bac200d3c9d8"},{"length":24,"position":48,"velocity":0.7874015748031497,"pitch":53,"id":"acdf123e-301d-4f2f-869c-9d3f0445584e"},{"length":504,"position":72,"velocity":0.7874015748031497,"pitch":57,"id":"e68a03c1-5e1c-4cbe-8981-1a78832a965e"},{"length":480,"position":96,"velocity":0.7874015748031497,"pitch":62,"id":"ff937d89-b17d-4bed-8523-fd72019ea504"},{"length":456,"position":120,"velocity":0.7874015748031497,"pitch":64,"id":"0aec0d6b-cae6-4b35-ae0d-855656bfea99"},{"length":576,"position":1170,"velocity":0.7874015748031497,"pitch":36,"id":"c0d37639-e73e-4f90-a01b-111e4a6f54ac"},{"length":24,"position":1218,"velocity":0.7874015748031497,"pitch":52,"id":"f52944af-dec3-4e29-b31f-b5e7bbed1646"},{"length":504,"position":1242,"velocity":0.7874015748031497,"pitch":55,"id":"14215c8b-864f-4c80-8326-4a2916dcf3c7"},{"length":480,"position":1266,"velocity":0.7874015748031497,"pitch":59,"id":"ef2aa8e0-6c81-4279-a949-e9f3ff0f7f4f"},{"length":456,"position":1290,"velocity":0.7874015748031497,"pitch":62,"id":"939bb168-65f6-404e-acb4-8155b66745d3"},{"length":432,"position":1314,"velocity":0.7874015748031497,"pitch":64,"id":"8152c4c9-7e38-41f7-9f54-932f9f9e7aa8"},{"length":1152,"position":2304,"velocity":0.7874015748031497,"pitch":41,"id":"3744b6e2-865e-4cea-bdb7-3f1a766e0ddb"},{"length":384,"position":2400,"velocity":0.7874015748031497,"pitch":48,"id":"2d6feb3e-309c-4c9a-bb67-19c63985c007"},{"length":448,"position":2496,"velocity":0.7874015748031497,"pitch":53,"id":"5de3f56b-5349-4c64-9d76-2cc2b9b7abb1"},{"length":448,"position":2560,"velocity":0.7874015748031497,"pitch":57,"id":"a660f316-233f-48f2-a7ee-f3f3d74927e7"},{"length":64,"position":2624,"velocity":0.7874015748031497,"pitch":62,"id":"5407e6ed-9faa-478f-98df-97794e6f6a4e"},{"length":768,"position":2688,"velocity":0.7874015748031497,"pitch":64,"id":"b7273305-30f6-492c-b83c-c448796ee4c0"},{"length":1152,"position":3456,"velocity":0.7874015748031497,"pitch":36,"id":"f40db8c7-6273-441c-a491-0230cace4afc"},{"length":384,"position":3552,"velocity":0.7874015748031497,"pitch":43,"id":"96d770e1-824e-41da-a664-20c97c45bc04"},{"length":448,"position":3648,"velocity":0.7874015748031497,"pitch":52,"id":"02be1d50-f2bb-497a-95fc-19b98b0a20b5"},{"length":448,"position":3720,"velocity":0.7874015748031497,"pitch":55,"id":"b0f85224-497f-45fd-949f-a53e77a32de7"},{"length":64,"position":3776,"velocity":0.7874015748031497,"pitch":62,"id":"2e168011-1208-45fe-b878-55dd5edf57d3"},{"length":768,"position":3840,"velocity":0.7874015748031497,"pitch":64,"id":"5b6baff2-f5d9-430d-af3a-f70814cdce10"},{"length":1152,"position":4608,"velocity":0.7874015748031497,"pitch":41,"id":"235ad428-718d-4a2e-88a5-99dec9e4f795"},{"length":384,"position":4704,"velocity":0.7874015748031497,"pitch":48,"id":"24b50e70-37e5-4984-9402-d5936ad8f8c6"},{"length":448,"position":4800,"velocity":0.7874015748031497,"pitch":53,"id":"c37e84c2-cb2a-451a-98e2-c24727e67a08"},{"length":448,"position":4864,"velocity":0.7874015748031497,"pitch":57,"id":"cf16cdf8-696b-40b9-8301-2ba9e61497d0"},{"length":64,"position":4928,"velocity":0.7874015748031497,"pitch":62,"id":"6fbefcb3-67a9-47cc-b10f-c5a57bbb7ab6"},{"length":768,"position":4992,"velocity":0.7874015748031497,"pitch":64,"id":"3645e4f0-7e3e-4364-ac01-a07ac9984e61"},{"length":1152,"position":5760,"velocity":0.7874015748031497,"pitch":36,"id":"64afa1fc-ab81-4e5d-88f2-8968ca58928c"},{"length":384,"position":5856,"velocity":0.7874015748031497,"pitch":43,"id":"cd43a100-1ee5-444b-a985-84dd5c6d8f33"},{"length":448,"position":5952,"velocity":0.7874015748031497,"pitch":52,"id":"fa90442c-ff98-4a29-808f-3e27e3a719c7"},{"length":448,"position":6024,"velocity":0.7874015748031497,"pitch":55,"id":"9fdecea2-50af-4f7e-80ea-81c5ef976ab1"},{"length":64,"position":6080,"velocity":0.7874015748031497,"pitch":62,"id":"d4dc8ad5-545c-4b26-bd02-939f989b5bd4"},{"length":768,"position":6144,"velocity":0.7874015748031497,"pitch":64,"id":"4a40d11f-c634-4c1e-bc20-6fcc96795da4"},{"length":1152,"position":6912,"velocity":0.7874015748031497,"pitch":41,"id":"5e807f32-4fcb-4973-a16d-daa0544fd00d"},{"length":384,"position":7008,"velocity":0.7874015748031497,"pitch":48,"id":"30a86e1c-63a2-4a1c-af5f-b4a9e6248c19"},{"length":448,"position":7104,"velocity":0.7874015748031497,"pitch":53,"id":"657b820b-353f-4aac-9953-062ad47c43b4"},{"length":448,"position":7168,"velocity":0.7874015748031497,"pitch":57,"id":"71ffb905-b18a-43db-a981-22a657fb3aca"},{"length":64,"position":7232,"velocity":0.7874015748031497,"pitch":62,"id":"f6594045-34c7-4c41-8f45-9978ac4d7404"},{"length":768,"position":7296,"velocity":0.7874015748031497,"pitch":64,"id":"c740710b-833f-4381-b320-b5fb43164d5e"},{"length":1152,"position":8064,"velocity":0.7874015748031497,"pitch":36,"id":"91d7ad49-a4b6-4432-984a-4c8d22c748de"},{"length":384,"position":8160,"velocity":0.7874015748031497,"pitch":43,"id":"e700a86a-9543-4c7f-9804-71cea4424042"},{"length":448,"position":8256,"velocity":0.7874015748031497,"pitch":52,"id":"3417ee49-ea19-46fd-a770-f7eb03b5c854"},{"length":448,"position":8328,"velocity":0.7874015748031497,"pitch":55,"id":"dbb55e40-85b0-46a9-9fdb-60535044f696"},{"length":64,"position":8384,"velocity":0.7874015748031497,"pitch":62,"id":"59f8ca08-7770-47cb-be85-141b433e6fa6"},{"length":768,"position":8448,"velocity":0.7874015748031497,"pitch":64,"id":"055920d2-be26-4b67-a112-bc295f018f42"},{"length":1152,"position":9216,"velocity":0.7874015748031497,"pitch":41,"id":"fad0e613-baab-4088-9223-b303785d1b05"},{"length":384,"position":9312,"velocity":0.7874015748031497,"pitch":48,"id":"b861c7d0-12a5-4134-833d-eaca317bd451"},{"length":448,"position":9408,"velocity":0.7874015748031497,"pitch":53,"id":"0f7dba67-98f9-4283-8ab3-87df96575081"},{"length":448,"position":9472,"velocity":0.7874015748031497,"pitch":57,"id":"191cee1c-2d64-42c6-ae17-048be0511552"},{"length":64,"position":9536,"velocity":0.7874015748031497,"pitch":62,"id":"3e677782-acd8-40cf-a79b-957f1511abdd"},{"length":768,"position":9600,"velocity":0.7874015748031497,"pitch":64,"id":"b9e22b6d-589c-4821-ab0a-cdda1114f8da"},{"length":1152,"position":10368,"velocity":0.7874015748031497,"pitch":36,"id":"445ca304-c3cf-45f6-9f85-9fd210062008"},{"length":384,"position":10464,"velocity":0.7874015748031497,"pitch":43,"id":"667e629b-4823-4e35-a375-67b2b218eb71"},{"length":448,"position":10560,"velocity":0.7874015748031497,"pitch":52,"id":"6411cc84-9004-4045-a143-9bb30cf91142"},{"length":448,"position":10632,"velocity":0.7874015748031497,"pitch":55,"id":"4483564e-ef94-46b8-89a2-b986d44d5ea4"},{"length":64,"position":10688,"velocity":0.7874015748031497,"pitch":62,"id":"c5ff20d2-6059-4e06-8244-9f43b5ed3e42"},{"length":768,"position":10752,"velocity":0.7874015748031497,"pitch":64,"id":"d9e40216-f311-4129-bb3f-7ed9b62f53f6"},{"length":1152,"position":11520,"velocity":0.7874015748031497,"pitch":41,"id":"dc628bcd-49c2-410c-87c9-3394238bdf42"},{"length":384,"position":11616,"velocity":0.7874015748031497,"pitch":48,"id":"e2007490-7717-4c7e-ac1e-e7faf055a4be"},{"length":448,"position":11712,"velocity":0.7874015748031497,"pitch":53,"id":"9b303f42-d2d6-4ad7-830f-8d249ff6648c"},{"length":448,"position":11776,"velocity":0.7874015748031497,"pitch":57,"id":"8601b429-b2e3-47f7-8082-3daa03ee90d2"},{"length":64,"position":11840,"velocity":0.7874015748031497,"pitch":62,"id":"1558c253-05d0-4495-a25a-00b5268c6725"},{"length":768,"position":11904,"velocity":0.7874015748031497,"pitch":64,"id":"e8080d65-2bea-4503-9020-5a2aad5ba595"},{"length":1152,"position":12672,"velocity":0.7874015748031497,"pitch":36,"id":"79813e8e-2bbd-4f1c-8ce5-1b6c0e6fc94c"},{"length":384,"position":12768,"velocity":0.7874015748031497,"pitch":43,"id":"7130d65e-e692-4879-9a0d-4f9dd7e48af8"},{"length":448,"position":12864,"velocity":0.7874015748031497,"pitch":52,"id":"681821d8-162d-4c11-81a3-b0d519394f73"},{"length":448,"position":12936,"velocity":0.7874015748031497,"pitch":55,"id":"2df2676d-4d98-4ee8-b706-df88c93fcca9"},{"length":64,"position":12992,"velocity":0.7874015748031497,"pitch":62,"id":"74eba549-66d5-41d5-a153-0efce454bd44"},{"length":768,"position":13056,"velocity":0.7874015748031497,"pitch":64,"id":"30e4f799-0207-4c67-b379-29719b290bdc"}],"timing":{"pulsesContentPosition":0,"pulsesLength":13824},"type":"N"}]}},{"type":"InstrumentChannel","data":{"mute":false,"solo":false,"gainAutomation":[{"time":0,"value":-16}],"id":"74ca6171-5516-450b-83bb-e5829f32a287","instrument":{"config":{"type":"fmSynth","data":{"detune":0,"harmonicity":3,"portamento":0,"modulationIndex":10,"polyphony":8,"envelope":{"attack":0.1,"decay":0.2,"release":1,"sustain":0.5,"attackCurve":"exponential","decayCurve":"exponential","releaseCurve":"exponential"},"modulation":{"detune":0,"frequency":440,"phase":0,"partial":[],"type":"triangle"},"modulationEnvelope":{"attack":0.1,"decay":0.2,"release":1,"sustain":0.5,"attackCurve":"exponential","decayCurve":"exponential","releaseCurve":"exponential"},"oscillator":{"type":"oscillator","data":{"detune":0,"frequency":440,"phase":0,"partial":[],"type":"triangle"}}}},"name":"fmSynth"},"name":"instrument","regions":[{"loopCount":1,"position":0,"color":"#FF6600","id":"21500c3f-56ad-4eda-86ee-3bcf2729d9fb","name":"Note Clip","notes":[{"length":768,"position":384,"velocity":0.7874015748031497,"pitch":57,"id":"45088018-39aa-4933-9d14-8b7cb105f435"},{"length":768,"position":384,"velocity":0.7874015748031497,"pitch":53,"id":"cc1d4727-9c84-4e9f-a2cb-bfc27a3c4390"},{"length":768,"position":1536,"velocity":0.7874015748031497,"pitch":59,"id":"4733c7d6-5e73-4ecc-a2ee-a48944fdb213"},{"length":768,"position":1536,"velocity":0.7874015748031497,"pitch":55,"id":"1bc9794f-f46d-4748-b1e2-416abbf5ac2f"},{"length":768,"position":2656,"velocity":0.7874015748031497,"pitch":57,"id":"cbb758dc-0332-42d0-bb01-e65e3e8cbf71"},{"length":768,"position":2656,"velocity":0.7874015748031497,"pitch":53,"id":"0880cfc5-2971-41b5-b022-ffd778f7f4c9"},{"length":768,"position":3808,"velocity":0.7874015748031497,"pitch":59,"id":"0a5d5d96-e31d-4e19-b5a0-1460686489bc"},{"length":768,"position":3808,"velocity":0.7874015748031497,"pitch":55,"id":"c6159a79-3625-4a3e-a8e5-e24c97dbeeeb"},{"length":768,"position":4960,"velocity":0.7874015748031497,"pitch":57,"id":"8c2684c2-b705-4c97-adfe-522cacdc5efa"},{"length":768,"position":4960,"velocity":0.7874015748031497,"pitch":53,"id":"b7cf6edf-3021-4b79-9082-0e4f6d81b58e"},{"length":768,"position":6112,"velocity":0.7874015748031497,"pitch":59,"id":"2654fe00-44a5-4df7-a5b7-3a59dbc4dd33"},{"length":768,"position":6112,"velocity":0.7874015748031497,"pitch":55,"id":"b9367648-f98a-482c-b5a2-b0e975d774fe"},{"length":768,"position":7264,"velocity":0.7874015748031497,"pitch":57,"id":"d4152d86-b57d-4512-865e-e20634c287ec"},{"length":768,"position":7264,"velocity":0.7874015748031497,"pitch":53,"id":"39af50f1-227a-469f-ae87-7b1e6ada5ca4"},{"length":768,"position":8416,"velocity":0.7874015748031497,"pitch":59,"id":"3a048297-f4c4-42c6-acd6-d2095df66cf3"},{"length":768,"position":8416,"velocity":0.7874015748031497,"pitch":55,"id":"c412d6df-839e-4be3-b730-7a4354489848"},{"length":768,"position":9568,"velocity":0.7874015748031497,"pitch":57,"id":"38b895b4-dd63-4b7a-a033-73028c72d7de"},{"length":768,"position":9568,"velocity":0.7874015748031497,"pitch":53,"id":"5a76337b-66ee-4720-ae67-526bec97f5ea"},{"length":768,"position":10720,"velocity":0.7874015748031497,"pitch":59,"id":"e1720797-c094-4fcf-8bc8-9455005dd140"},{"length":768,"position":10720,"velocity":0.7874015748031497,"pitch":55,"id":"c51d8f9f-8f9a-4657-adaf-148cfb5dd406"},{"length":768,"position":11872,"velocity":0.7874015748031497,"pitch":57,"id":"ea65e2c8-774d-42f1-be7c-aa7eec0addb0"},{"length":768,"position":11872,"velocity":0.7874015748031497,"pitch":53,"id":"90900e8c-f687-4f3d-9a0e-1940d8778940"},{"length":768,"position":13024,"velocity":0.7874015748031497,"pitch":59,"id":"cf608ded-eac9-444e-bfd6-4f6be9ada021"},{"length":768,"position":13024,"velocity":0.7874015748031497,"pitch":55,"id":"3cea5a4d-b2c4-4133-aed9-c874d38b2d49"},{"length":768,"position":13824,"velocity":0.7874015748031497,"pitch":57,"id":"ffe916ed-409f-46d3-b4cd-80d2a08f07d8"},{"length":768,"position":13824,"velocity":0.7874015748031497,"pitch":52,"id":"cba092fd-2ae8-459e-8a16-22783fa3eeaf"},{"length":768,"position":13824,"velocity":0.7874015748031497,"pitch":48,"id":"96480c90-b401-45fb-baad-5c8bce54c302"},{"length":768,"position":14592,"velocity":0.7874015748031497,"pitch":55,"id":"a1f7b383-b357-4972-85c6-512fc82b1032"},{"length":768,"position":14592,"velocity":0.7874015748031497,"pitch":50,"id":"28b70f86-9432-4f79-aee9-2030209d1d62"},{"length":768,"position":14592,"velocity":0.7874015748031497,"pitch":47,"id":"42be0de9-fa20-458e-b2de-35ff81c2eed7"},{"length":768,"position":15360,"velocity":0.7874015748031497,"pitch":57,"id":"8e8de0a6-6b5b-4e60-b1cf-6baa4bf29569"},{"length":768,"position":15360,"velocity":0.7874015748031497,"pitch":52,"id":"c7ba9c90-ece5-445c-97ae-1f14321c1131"},{"length":768,"position":15360,"velocity":0.7874015748031497,"pitch":48,"id":"2ac9765f-698a-48c6-a05f-a133bd286fad"},{"length":768,"position":16128,"velocity":0.7874015748031497,"pitch":55,"id":"6258ce13-56bd-4d78-b0e2-672eaac07f13"},{"length":768,"position":16128,"velocity":0.7874015748031497,"pitch":50,"id":"62aebe73-b8cf-4ddc-af9c-da6780faa036"},{"length":768,"position":16128,"velocity":0.7874015748031497,"pitch":47,"id":"4a8b978d-5a3a-4e68-93ac-b7691226208d"},{"length":768,"position":16896,"velocity":0.7874015748031497,"pitch":48,"id":"4e20cafe-3c06-4174-abfc-5919f6997351"},{"length":768,"position":16896,"velocity":0.7874015748031497,"pitch":52,"id":"eec1a9c8-8eb2-4b2a-86c4-fd12a8e23646"},{"length":768,"position":16896,"velocity":0.7874015748031497,"pitch":57,"id":"0b07e8c4-3e04-4d76-bd6e-9f42db9978c4"},{"length":768,"position":17664,"velocity":0.7874015748031497,"pitch":55,"id":"036e0648-1838-4226-bcc9-9e590dd61402"},{"length":768,"position":17664,"velocity":0.7874015748031497,"pitch":52,"id":"9ee337b8-77a0-4253-ab77-d5df8d52eec1"},{"length":768,"position":17664,"velocity":0.7874015748031497,"pitch":48,"id":"4bbf8601-8443-4d1e-8ec1-c4cf4cdb311d"},{"length":720,"position":18432,"velocity":0.7874015748031497,"pitch":55,"id":"3d6ab843-e6da-424a-9a8c-e91bb8872fc6"},{"length":720,"position":18432,"velocity":0.7874015748031497,"pitch":50,"id":"5b797177-6199-42b2-803d-068f67f4f21c"},{"length":720,"position":18432,"velocity":0.7874015748031497,"pitch":47,"id":"03233908-2634-4987-b4a1-161a7db9d60a"}],"timing":{"pulsesContentPosition":0,"pulsesLength":19152},"type":"N"}]}},{"type":"InstrumentChannel","data":{"mute":false,"solo":false,"gainAutomation":[{"time":0,"value":-13}],"id":"5b96e60a-c30e-4941-bd3a-1925f2c62676","instrument":{"config":{"type":"samplerPiano","data":{"fadeIn":0.3,"fadeOut":1,"revert":false,"samplePack":{"name":"fluteClean","samples":[]}}},"name":"fluteClean"},"name":"instrument","regions":[{"loopCount":1,"position":0,"color":"#a9a9a9","id":"7d859260-2a6f-4577-a8f0-bd381000327e","name":"Note Clip","notes":[{"length":384,"position":3840,"velocity":0.7874015748031497,"pitch":74,"id":"3888e9e5-69f3-4f6f-85e7-57d5bd487eec"},{"length":384,"position":4224,"velocity":0.7874015748031497,"pitch":76,"id":"c9023eca-9f08-458f-bd31-e1b596660078"},{"length":448,"position":4608,"velocity":0.7874015748031497,"pitch":86,"id":"52243b20-fe7e-4f6d-b043-20a3f55157e4"},{"length":64,"position":5056,"velocity":0.7874015748031497,"pitch":85,"id":"1b41cde9-2b04-4058-aaf2-ac75c016fcb9"},{"length":64,"position":5120,"velocity":0.7874015748031497,"pitch":84,"id":"3eae4f54-621c-4c98-a087-c41c9a90b52f"},{"length":960,"position":5184,"velocity":0.7874015748031497,"pitch":83,"id":"2507994a-cbd0-4da6-a90a-98bdad1b63d8"},{"length":96,"position":6144,"velocity":0.7874015748031497,"pitch":81,"id":"cb3da71e-be9c-4432-b316-76938f191493"},{"length":288,"position":6240,"velocity":0.7874015748031497,"pitch":79,"id":"9671983a-30b3-43f8-bb42-b08400559ff5"},{"length":192,"position":6528,"velocity":0.7874015748031497,"pitch":74,"id":"64d05106-92f0-4731-b1d3-b36074daa946"},{"length":192,"position":6720,"velocity":0.7874015748031497,"pitch":76,"id":"8cf3eb51-f1a6-4bde-92bc-33596ec6935c"},{"length":448,"position":6912,"velocity":0.7874015748031497,"pitch":86,"id":"c2095fca-c115-4af2-9200-808f1b09f71d"},{"length":64,"position":7360,"velocity":0.7874015748031497,"pitch":85,"id":"cc842800-c35b-4402-be59-6e26c7e177c6"},{"length":64,"position":7424,"velocity":0.7874015748031497,"pitch":84,"id":"6607e7ca-ae2f-48f7-846a-3f823a7c7ab1"},{"length":480,"position":7488,"velocity":0.7874015748031497,"pitch":83,"id":"7c1661ee-db93-4dcd-a9dd-9278e2877b5c"},{"length":96,"position":7968,"velocity":0.7874015748031497,"pitch":84,"id":"e3ec4ca6-7ba3-4176-ae6b-ba53cd91cfac"},{"length":288,"position":8064,"velocity":0.7874015748031497,"pitch":83,"id":"44ba4823-afdb-4562-bf77-07dde00f6119"},{"length":96,"position":8352,"velocity":0.7874015748031497,"pitch":81,"id":"58b82513-0e47-43ef-b444-42aa28c78920"},{"length":384,"position":8448,"velocity":0.7874015748031497,"pitch":79,"id":"5d6108d1-84f7-48d6-97cf-c97f00770a1c"},{"length":192,"position":8832,"velocity":0.7874015748031497,"pitch":74,"id":"b2480201-ade2-4416-9f8d-aaa5f497c1e5"},{"length":192,"position":9024,"velocity":0.7874015748031497,"pitch":76,"id":"9e0853ac-2cba-4c2a-9327-4b9f674883cf"},{"length":448,"position":9216,"velocity":0.7874015748031497,"pitch":86,"id":"488c36e4-19f6-474a-8197-ff96b1a460ee"},{"length":64,"position":9664,"velocity":0.7874015748031497,"pitch":85,"id":"0a8e22cc-6df0-40b3-bd45-05fa104723f7"},{"length":64,"position":9728,"velocity":0.7874015748031497,"pitch":84,"id":"7d3eb2cb-86f1-4cab-9f55-63e8f3e5f884"},{"length":960,"position":9792,"velocity":0.7874015748031497,"pitch":83,"id":"f3595abc-034d-4502-8f68-72f2a2663f42"},{"length":96,"position":10752,"velocity":0.7874015748031497,"pitch":81,"id":"8c742254-7cb5-44c8-a6b7-ab7fc6fae3c2"},{"length":288,"position":10848,"velocity":0.7874015748031497,"pitch":79,"id":"c638f5c8-6cc2-42e1-b5b0-9515e055f274"},{"length":192,"position":11136,"velocity":0.7874015748031497,"pitch":74,"id":"601640f7-5f73-4baa-823e-b4deb3deac49"},{"length":192,"position":11328,"velocity":0.7874015748031497,"pitch":76,"id":"2b93dcaf-06a5-40ca-ae54-cc546530d336"},{"length":448,"position":11520,"velocity":0.7874015748031497,"pitch":86,"id":"e65d8988-e351-4b35-a6ae-ad9dd5b03ea5"},{"length":64,"position":11968,"velocity":0.7874015748031497,"pitch":85,"id":"c7271b9c-806a-4eab-9d3f-fdc67442e7c0"},{"length":64,"position":12032,"velocity":0.7874015748031497,"pitch":84,"id":"325a4885-5cdc-4a27-ad6d-4afca568f6b1"},{"length":384,"position":12096,"velocity":0.7874015748031497,"pitch":83,"id":"af05ac91-0512-4643-b793-53f95a1df46e"},{"length":192,"position":12480,"velocity":0.7874015748031497,"pitch":88,"id":"e04d01eb-f5b9-4ea8-9d5d-9c7f162ab272"},{"length":1152,"position":12672,"velocity":0.7874015748031497,"pitch":83,"id":"8bd6862b-90f8-4938-9232-205636a74624"},{"length":192,"position":13824,"velocity":0.7874015748031497,"pitch":81,"id":"75095384-a3f0-4d95-837a-3f73f51c4030"},{"length":576,"position":14016,"velocity":0.7874015748031497,"pitch":76,"id":"e7894e14-e77b-4d26-8287-2920f926ddbe"},{"length":192,"position":14592,"velocity":0.7874015748031497,"pitch":74,"id":"aff3cf99-8e3d-4d7f-8055-eb3fb184aa0d"},{"length":576,"position":14784,"velocity":0.7874015748031497,"pitch":79,"id":"0dbd8e4e-a96d-436a-a62a-a4edec034fb3"},{"length":192,"position":15360,"velocity":0.7874015748031497,"pitch":81,"id":"0f5f8492-da52-452e-ada6-008582f2d811"},{"length":576,"position":15552,"velocity":0.7874015748031497,"pitch":76,"id":"d7803143-9244-4bc2-9cca-c9e89c05ae6e"},{"length":192,"position":16128,"velocity":0.7874015748031497,"pitch":83,"id":"d8e4ecb9-0eb2-45ca-83b9-9953acb40156"},{"length":576,"position":16320,"velocity":0.7874015748031497,"pitch":79,"id":"3252fcb6-d10f-43be-9598-b260c2b0ec8d"},{"length":192,"position":16896,"velocity":0.7874015748031497,"pitch":81,"id":"b8cf03dc-2619-4f98-90cc-629864e4856d"},{"length":576,"position":17088,"velocity":0.7874015748031497,"pitch":76,"id":"763df9a3-b2e0-414c-bde3-cb478a014817"},{"length":192,"position":17664,"velocity":0.7874015748031497,"pitch":84,"id":"bed319af-cec3-4ad1-89c6-895711e3a9e4"},{"length":576,"position":17856,"velocity":0.7874015748031497,"pitch":79,"id":"a219acb7-217f-4847-b120-495c9922d212"},{"length":192,"position":18432,"velocity":0.7874015748031497,"pitch":77,"id":"a9e4cfa3-cb8d-41b1-acab-731503483c0d"},{"length":576,"position":18624,"velocity":0.7874015748031497,"pitch":79,"id":"b9ac3555-485c-4c9d-b41e-6431b67554d5"}],"timing":{"pulsesContentPosition":0,"pulsesLength":19200},"type":"N"}]}}],"audioMetaData":{},"audioFiles":[],"transportRange":[0,19260]}