{"channelList":[{"type":"InstrumentChannel","data":{"mute":false,"solo":false,"gainAutomation":[{"time":0,"value":-10}],"id":"ddf9ef28-a13b-4d43-b61a-48b320838921","instrument":{"config":{"type":"generalMidiSynth","data":{"programId":0,"isPercussion":false}},"name":"Acoustic Grand Piano"},"name":"Acoustic Grand Piano","regions":[{"loopCount":1,"position":0,"color":"#702524","id":"71e0ade6-106d-492e-98e6-4b7b4d4bf48e","name":"Note Clip","notes":[{"length":48,"position":0,"velocity":0.5039370078740157,"pitch":67,"id":"e87ad797-7e3a-475b-a975-a31bab976727"},{"length":192,"position":0,"velocity":0.5039370078740157,"pitch":55,"id":"d7c40e15-a1e6-4279-bff5-a2200ca0dcac"},{"length":48,"position":48,"velocity":0.5039370078740157,"pitch":70,"id":"40f5cd54-f9d7-425c-bcd7-7589e74cb0cb"},{"length":48,"position":96,"velocity":0.5039370078740157,"pitch":74,"id":"a9f6fb04-2a95-4485-8424-0fec42376381"},{"length":48,"position":144,"velocity":0.5039370078740157,"pitch":75,"id":"b9fbc787-64c1-43c0-a3f8-5fff6d475b04"},{"length":48,"position":192,"velocity":0.5039370078740157,"pitch":67,"id":"864d946b-5acf-41a5-80d9-ba8cd03f8efb"},{"length":48,"position":240,"velocity":0.5039370078740157,"pitch":70,"id":"ecf17b86-f63e-4e76-900c-5c9a59c3a089"},{"length":48,"position":288,"velocity":0.5039370078740157,"pitch":74,"id":"371b3cad-23c5-448c-9a4d-75c74c766dbd"},{"length":48,"position":336,"velocity":0.5039370078740157,"pitch":75,"id":"690d79cf-49f5-4d37-a47d-6cbfb52565f1"},{"length":48,"position":384,"velocity":0.5039370078740157,"pitch":67,"id":"68c665d3-4993-46e9-84cd-2469344f3bda"},{"length":192,"position":384,"velocity":0.5039370078740157,"pitch":58,"id":"73651ea0-ca1b-46b1-9d57-4c0a2e5648b7"},{"length":48,"position":432,"velocity":0.5039370078740157,"pitch":70,"id":"65e725f3-6af1-4d6a-891c-e6222efb5b83"},{"length":48,"position":480,"velocity":0.5039370078740157,"pitch":74,"id":"883c175a-5e66-4f7a-b972-cbea5bd11b2d"},{"length":48,"position":528,"velocity":0.5039370078740157,"pitch":75,"id":"12f79391-0d70-44d0-b87b-dbc5ff8b5cfd"},{"length":48,"position":576,"velocity":0.5039370078740157,"pitch":67,"id":"539d14b1-f73a-457b-a0bf-bda459657c77"},{"length":192,"position":576,"velocity":0.5039370078740157,"pitch":62,"id":"3573ec00-cbf0-4979-ac73-e95130fdba0d"},{"length":48,"position":624,"velocity":0.5039370078740157,"pitch":70,"id":"1d6fce5e-73c7-4afe-beec-84832c6f58b6"},{"length":48,"position":672,"velocity":0.5039370078740157,"pitch":74,"id":"55c32490-9f14-468b-8761-58e9c22e22fb"},{"length":48,"position":720,"velocity":0.5039370078740157,"pitch":75,"id":"9acb9874-59de-4fe2-93c8-9c43c8786e9e"},{"length":48,"position":768,"velocity":0.5039370078740157,"pitch":66,"id":"c617ce1f-7c5c-4420-a249-5f796e4c3484"},{"length":192,"position":768,"velocity":0.5039370078740157,"pitch":61,"id":"ba009485-fa5e-4ed0-a16a-4a70345a4258"},{"length":48,"position":816,"velocity":0.5039370078740157,"pitch":69,"id":"a38eaa36-e730-471c-b585-0f11b25cefd4"},{"length":48,"position":864,"velocity":0.5039370078740157,"pitch":74,"id":"4ce4ef32-aabf-47f9-9f5f-e0e4ed8bfc20"},{"length":48,"position":912,"velocity":0.5039370078740157,"pitch":75,"id":"d4ec64fc-ec51-4852-be33-33b436939082"},{"length":48,"position":960,"velocity":0.5039370078740157,"pitch":66,"id":"e6be6583-f42b-4506-a399-49a343634e55"},{"length":192,"position":960,"velocity":0.5039370078740157,"pitch":54,"id":"d2493d86-754c-4ff5-bbb8-cde13098788c"},{"length":48,"position":1008,"velocity":0.5039370078740157,"pitch":69,"id":"176956f4-196d-413d-9e4b-863625ae4d3f"},{"length":48,"position":1056,"velocity":0.5039370078740157,"pitch":74,"id":"47f3402d-74e3-4ba4-8e22-a715f61c1886"},{"length":48,"position":1104,"velocity":0.5039370078740157,"pitch":75,"id":"f6481f6c-6fa6-4f45-ba2b-834779b382db"},{"length":48,"position":1152,"velocity":0.5039370078740157,"pitch":66,"id":"ccc5e42b-9513-4006-a356-57dc72c88b34"},{"length":48,"position":1200,"velocity":0.5039370078740157,"pitch":69,"id":"133fa2ba-bb69-4393-8449-67df5f07a44d"},{"length":48,"position":1248,"velocity":0.5039370078740157,"pitch":74,"id":"9bc48697-ba3b-493d-b301-8f6a533808a1"},{"length":48,"position":1296,"velocity":0.5039370078740157,"pitch":75,"id":"4f3def96-bf69-447c-9cf9-019f21705677"},{"length":48,"position":1344,"velocity":0.5039370078740157,"pitch":66,"id":"4c33e83e-0483-4b34-ac30-ad0d73c72323"},{"length":48,"position":1392,"velocity":0.5039370078740157,"pitch":69,"id":"9afbe61a-559c-4ce5-9c8a-6d61448154b5"},{"length":48,"position":1440,"velocity":0.5039370078740157,"pitch":74,"id":"0aa27e06-3510-418d-b6ed-0c10c3b9b31e"},{"length":48,"position":1488,"velocity":0.5039370078740157,"pitch":75,"id":"f794ca95-4cdf-477b-9671-ee4b6a0621a9"},{"length":48,"position":1536,"velocity":0.5039370078740157,"pitch":65,"id":"3b2782b4-64a9-4b10-b460-4174260a8e89"},{"length":192,"position":1536,"velocity":0.5039370078740157,"pitch":53,"id":"39277b4a-5b43-4e02-8b11-56c61428b02f"},{"length":48,"position":1584,"velocity":0.5039370078740157,"pitch":68,"id":"0ed66fdb-aadc-4c2c-bdd3-d2d52f49aa78"},{"length":48,"position":1632,"velocity":0.5039370078740157,"pitch":74,"id":"80202e93-36fc-444a-9e6d-819af6ad6518"},{"length":48,"position":1680,"velocity":0.5039370078740157,"pitch":75,"id":"a4c964c4-d8a7-4866-927e-fd0dc5fbae8b"},{"length":48,"position":1728,"velocity":0.5039370078740157,"pitch":65,"id":"21724f36-dabb-442b-ae90-e4bb93d8aadb"},{"length":48,"position":1776,"velocity":0.5039370078740157,"pitch":68,"id":"24d8037d-98ee-468b-82d3-81b0cbe80a53"},{"length":48,"position":1824,"velocity":0.5039370078740157,"pitch":74,"id":"9d02432b-563f-4098-941a-abe066c9fd53"},{"length":48,"position":1872,"velocity":0.5039370078740157,"pitch":75,"id":"f5e535ef-6389-4b76-9dea-049adee5ac8c"},{"length":48,"position":1920,"velocity":0.5039370078740157,"pitch":65,"id":"2926e201-2c6c-425e-980e-d427ab2da587"},{"length":96,"position":1920,"velocity":0.5039370078740157,"pitch":53,"id":"cdf60687-6e9e-4385-b582-df3fa38918ef"},{"length":48,"position":1968,"velocity":0.5039370078740157,"pitch":68,"id":"7986856c-7749-4f23-b61f-f241fddf36cd"},{"length":48,"position":2016,"velocity":0.5039370078740157,"pitch":74,"id":"382a6fb2-e075-48f6-8955-a96dd601eaf0"},{"length":48,"position":2064,"velocity":0.5039370078740157,"pitch":75,"id":"34c12982-8295-443c-9bad-2092bb6cd46b"},{"length":48,"position":2064,"velocity":0.5039370078740157,"pitch":56,"id":"ee6842b8-0400-4e86-ae2a-f0d3071ba138"},{"length":48,"position":2112,"velocity":0.5039370078740157,"pitch":65,"id":"d66a5dbc-5fe2-4e03-82be-90f4ec2613ca"},{"length":48,"position":2160,"velocity":0.5039370078740157,"pitch":68,"id":"d0926a42-bcba-4a11-8bc9-273abd50ac06"},{"length":48,"position":2208,"velocity":0.5039370078740157,"pitch":74,"id":"b9ed6b44-c666-4c79-98e2-a1149d7eabaf"},{"length":96,"position":2208,"velocity":0.5039370078740157,"pitch":61,"id":"5801a7d1-ea70-4fa3-9170-0c83c6db0cc5"},{"length":48,"position":2256,"velocity":0.5039370078740157,"pitch":75,"id":"a65c906f-61ee-43f5-914c-6369de242db1"},{"length":48,"position":2304,"velocity":0.5039370078740157,"pitch":64,"id":"a3f0fa56-609d-4c55-8fb3-2e74799435dd"},{"length":192,"position":2304,"velocity":0.5039370078740157,"pitch":60,"id":"34ee1cc1-6abc-43a4-a27d-04c1bea10131"},{"length":48,"position":2352,"velocity":0.5039370078740157,"pitch":67,"id":"4c18ba25-936b-4c54-9a0e-f6e502ee5d48"},{"length":48,"position":2400,"velocity":0.5039370078740157,"pitch":74,"id":"672a0ed5-9a74-4124-adfc-853b18df34df"},{"length":48,"position":2448,"velocity":0.5039370078740157,"pitch":75,"id":"cec4515b-2cc1-4a7a-bdf9-435c4bd6a3e9"},{"length":48,"position":2496,"velocity":0.5039370078740157,"pitch":64,"id":"95ac986f-63db-48b5-bd52-191eb1867b2b"},{"length":192,"position":2496,"velocity":0.5039370078740157,"pitch":52,"id":"14fe4df4-c472-491d-bb11-e1223a1f494d"},{"length":48,"position":2544,"velocity":0.5039370078740157,"pitch":67,"id":"67b1487b-8d10-45e8-aeca-35989d7b7311"},{"length":48,"position":2592,"velocity":0.5039370078740157,"pitch":74,"id":"797748e9-d8a5-465b-a654-0ec1c30210ab"},{"length":48,"position":2640,"velocity":0.5039370078740157,"pitch":75,"id":"9474229d-689c-446f-97ac-01412c9821fe"},{"length":48,"position":2688,"velocity":0.5039370078740157,"pitch":64,"id":"27f698dd-019c-4829-a2c3-2e9b6cfac3c8"},{"length":48,"position":2736,"velocity":0.5039370078740157,"pitch":67,"id":"2e6651cb-02e3-4bb7-8bd8-a6ed1638e7de"},{"length":48,"position":2784,"velocity":0.5039370078740157,"pitch":74,"id":"adcba38a-d71c-4c86-a495-00bb34e2a0e3"},{"length":48,"position":2832,"velocity":0.5039370078740157,"pitch":75,"id":"4640b0eb-ff12-412c-9cb2-c6984411a6fe"},{"length":48,"position":2880,"velocity":0.5039370078740157,"pitch":64,"id":"ee9eee67-bf27-40ec-96f5-9a9d8a852f3d"},{"length":48,"position":2928,"velocity":0.5039370078740157,"pitch":67,"id":"f1139585-9cc0-4fc9-a8cc-c39b5a6b990d"},{"length":48,"position":2976,"velocity":0.5039370078740157,"pitch":74,"id":"c615820c-6078-4bee-8bea-a37ec2887396"},{"length":48,"position":3024,"velocity":0.5039370078740157,"pitch":75,"id":"da5b6dc5-9f99-4dbc-95f4-e8b6c937e39f"},{"length":48,"position":3072,"velocity":0.5039370078740157,"pitch":63,"id":"b4ab3820-4b15-4b81-9589-0bdfa8ec54f7"},{"length":48,"position":3072,"velocity":0.5039370078740157,"pitch":51,"id":"f366940f-87a2-4df1-b190-4cc92e0df1bd"},{"length":48,"position":3120,"velocity":0.5039370078740157,"pitch":67,"id":"0be8a684-8437-4170-91ad-8a948822eff2"},{"length":48,"position":3120,"velocity":0.5039370078740157,"pitch":50,"id":"96a30091-ba53-48b1-80bd-3622b7e0a15c"},{"length":48,"position":3168,"velocity":0.5039370078740157,"pitch":72,"id":"9200441a-64dd-472a-a6c8-c039ffc943ce"},{"length":192,"position":3168,"velocity":0.5039370078740157,"pitch":51,"id":"a9969534-23c3-4db3-9496-77abc14d8cce"},{"length":48,"position":3216,"velocity":0.5039370078740157,"pitch":74,"id":"3a7163de-780c-4829-8688-e41d55ab2ede"},{"length":48,"position":3264,"velocity":0.5039370078740157,"pitch":63,"id":"880059f3-5e4d-47c2-acf1-929c8bbab7cf"},{"length":48,"position":3312,"velocity":0.5039370078740157,"pitch":67,"id":"ddae89e9-fb92-4e83-a983-b054deb461d1"},{"length":48,"position":3360,"velocity":0.5039370078740157,"pitch":72,"id":"71760a54-4406-4c98-8c8d-25803c9868b7"},{"length":48,"position":3408,"velocity":0.5039370078740157,"pitch":74,"id":"40b9b298-4f9d-4c61-aff3-75515e6010d9"},{"length":48,"position":3456,"velocity":0.5039370078740157,"pitch":63,"id":"4c00e3cb-0c6d-4412-a43f-8100b857c155"},{"length":96,"position":3456,"velocity":0.5039370078740157,"pitch":55,"id":"7090633e-fd50-40d7-8b75-ba6cb53be4c2"},{"length":48,"position":3504,"velocity":0.5039370078740157,"pitch":67,"id":"9fe881c6-363e-46cc-9cd3-bec175046398"},{"length":48,"position":3552,"velocity":0.5039370078740157,"pitch":72,"id":"5b54add5-276e-4418-85b3-620c29f52812"},{"length":48,"position":3600,"velocity":0.5039370078740157,"pitch":74,"id":"84000aba-e94d-4371-8d9d-08b546998aed"},{"length":48,"position":3600,"velocity":0.5039370078740157,"pitch":63,"id":"b6d58e0b-a3b3-4859-bd23-0a736a019d4b"},{"length":48,"position":3648,"velocity":0.5039370078740157,"pitch":63,"id":"efe69651-af89-49d1-ac3f-f7379db3496c"},{"length":48,"position":3696,"velocity":0.5039370078740157,"pitch":67,"id":"658631bb-38af-44c7-ae34-3663eb14dba9"},{"length":48,"position":3744,"velocity":0.5039370078740157,"pitch":72,"id":"8c95c75e-4018-46ec-9ccb-f603c5186ef7"},{"length":96,"position":3744,"velocity":0.5039370078740157,"pitch":62,"id":"7bd11b69-f751-4435-b12f-860744f4468a"},{"length":48,"position":3792,"velocity":0.5039370078740157,"pitch":74,"id":"dca46213-f3b9-4769-80c5-b80113d7dd66"},{"length":48,"position":3840,"velocity":0.5039370078740157,"pitch":62,"id":"f1275a58-7517-4321-8bbf-83b890833a92"},{"length":48,"position":3840,"velocity":0.5039370078740157,"pitch":50,"id":"cd5facfb-69aa-4cf0-b11b-17872b55d349"},{"length":48,"position":3888,"velocity":0.5039370078740157,"pitch":67,"id":"31f53e58-ebd5-46a3-86a4-d6946d94182a"},{"length":48,"position":3888,"velocity":0.5039370078740157,"pitch":49,"id":"8a52ff68-f5ba-40fc-9712-b5a6559f83ab"},{"length":48,"position":3936,"velocity":0.5039370078740157,"pitch":72,"id":"f00f01d2-af36-4e98-8d3c-3ee1f51ec10f"},{"length":192,"position":3936,"velocity":0.5039370078740157,"pitch":50,"id":"b9325cbe-3e7c-423e-8780-76b277ba033d"},{"length":48,"position":3984,"velocity":0.5039370078740157,"pitch":74,"id":"2321c178-a961-400b-a658-a23bd866ad14"},{"length":48,"position":4032,"velocity":0.5039370078740157,"pitch":62,"id":"7f507d97-f71e-4509-ac3a-dfe84673d035"},{"length":48,"position":4080,"velocity":0.5039370078740157,"pitch":67,"id":"9d440d06-ac82-4607-b976-ad5abdfe11d8"},{"length":48,"position":4128,"velocity":0.5039370078740157,"pitch":72,"id":"4f1f7c1c-4a02-40e6-9975-90dd283de62d"},{"length":48,"position":4176,"velocity":0.5039370078740157,"pitch":74,"id":"2987d18b-b707-4dac-8876-6c605928c999"},{"length":48,"position":4224,"velocity":0.5039370078740157,"pitch":62,"id":"968ef387-c983-4fae-93b7-358147683084"},{"length":96,"position":4224,"velocity":0.5039370078740157,"pitch":55,"id":"cd745b4a-477a-411e-8924-24ea3394f034"},{"length":48,"position":4272,"velocity":0.5039370078740157,"pitch":67,"id":"b31d076c-13bb-4e49-bc14-e28d3b1d23d5"},{"length":48,"position":4320,"velocity":0.5039370078740157,"pitch":72,"id":"9f12faf0-2502-4bf5-9e5a-ba9b600d665f"},{"length":48,"position":4368,"velocity":0.5039370078740157,"pitch":74,"id":"8f086180-491a-4f07-b959-9c14f253a1a5"},{"length":48,"position":4368,"velocity":0.5039370078740157,"pitch":62,"id":"7ce674be-c685-4b24-ab7f-f73615c3ecd3"},{"length":48,"position":4416,"velocity":0.5039370078740157,"pitch":62,"id":"6c7784e8-caa0-4796-b4b9-46232bb11881"},{"length":48,"position":4464,"velocity":0.5039370078740157,"pitch":67,"id":"9f85cb77-d812-49c4-bb59-8427d59c6f86"},{"length":48,"position":4512,"velocity":0.5039370078740157,"pitch":72,"id":"16d340c8-f10a-4338-90ce-8942d2e69103"},{"length":96,"position":4512,"velocity":0.5039370078740157,"pitch":61,"id":"e6b75599-e75e-4fe4-ab50-ec8c9b73aa8a"},{"length":48,"position":4560,"velocity":0.5039370078740157,"pitch":74,"id":"09a866d4-c032-4366-ae82-f7a0a57649a1"},{"length":48,"position":4608,"velocity":0.5039370078740157,"pitch":60,"id":"491dd44a-89a9-4bad-854c-888ceca401cb"},{"length":48,"position":4608,"velocity":0.5039370078740157,"pitch":50,"id":"f0e7bb99-8298-429e-87d7-e03df2593e8d"},{"length":48,"position":4656,"velocity":0.5039370078740157,"pitch":66,"id":"c22b3e74-8718-4342-a0a4-5ab12ac20936"},{"length":48,"position":4656,"velocity":0.5039370078740157,"pitch":54,"id":"4246774f-501a-4f99-b0fe-f95a1665bd63"},{"length":48,"position":4704,"velocity":0.5039370078740157,"pitch":69,"id":"cda4c0f7-dc74-4c0b-ad9c-e3e6025e959e"},{"length":48,"position":4704,"velocity":0.5039370078740157,"pitch":57,"id":"0659d1a4-22d6-4e45-aba7-181c763b5551"},{"length":48,"position":4752,"velocity":0.5039370078740157,"pitch":72,"id":"3aa62d20-4283-4408-a979-0baf82da3e9c"},{"length":48,"position":4752,"velocity":0.5039370078740157,"pitch":54,"id":"c0b75ec4-341c-4c31-8030-0bdb59b3b24d"},{"length":48,"position":4800,"velocity":0.5039370078740157,"pitch":66,"id":"ebbf1fb3-9ae8-4f19-839a-ede1730d9c6b"},{"length":48,"position":4800,"velocity":0.5039370078740157,"pitch":57,"id":"a07a75ea-7d3f-40f4-8ed2-14cb0ce96d51"},{"length":48,"position":4848,"velocity":0.5039370078740157,"pitch":69,"id":"bc22d612-0f5d-4f63-9a01-76116817153d"},{"length":48,"position":4848,"velocity":0.5039370078740157,"pitch":60,"id":"d6fcedba-6e04-4c3e-a299-94a7d21fd3f0"},{"length":48,"position":4896,"velocity":0.5039370078740157,"pitch":72,"id":"60ac1070-c09e-45fe-9283-7b0b919ee68f"},{"length":48,"position":4896,"velocity":0.5039370078740157,"pitch":57,"id":"50191d1c-d755-4c54-add8-68b88976a421"},{"length":48,"position":4944,"velocity":0.5039370078740157,"pitch":75,"id":"f2096e70-ed1d-4898-870f-7e8e393d9d4a"},{"length":48,"position":4944,"velocity":0.5039370078740157,"pitch":60,"id":"4533fb04-b988-4d82-9f59-336374be8a21"},{"length":48,"position":4992,"velocity":0.5039370078740157,"pitch":69,"id":"8505284e-0294-4081-a8e5-6443ecbf3f36"},{"length":48,"position":4992,"velocity":0.5039370078740157,"pitch":63,"id":"d3a952fe-c15f-4ce4-8026-e432ecd177ae"},{"length":48,"position":5040,"velocity":0.5039370078740157,"pitch":72,"id":"4b776e19-7115-400f-83c8-36ad503777c3"},{"length":48,"position":5040,"velocity":0.5039370078740157,"pitch":60,"id":"bd8d3f7a-372e-44ce-91df-440108fc2865"},{"length":48,"position":5088,"velocity":0.5039370078740157,"pitch":75,"id":"af9a4d43-e1c6-4760-bcbd-e6663bdd1b56"},{"length":48,"position":5088,"velocity":0.5039370078740157,"pitch":63,"id":"a0df9c17-c3b4-4367-ae4f-051e2839718c"},{"length":48,"position":5136,"velocity":0.5039370078740157,"pitch":72,"id":"1a1f95b5-8aac-4b1d-bd8e-d8dc36b105e9"},{"length":48,"position":5136,"velocity":0.5039370078740157,"pitch":66,"id":"1bcf0d26-a327-4c87-a78e-fe1abfde28e1"},{"length":48,"position":5184,"velocity":0.5039370078740157,"pitch":75,"id":"fba3e78c-d8f3-49b7-9064-b3acfe39fbdf"},{"length":48,"position":5184,"velocity":0.5039370078740157,"pitch":69,"id":"96db4648-8e7d-42ec-9cd1-2ecc06d050ef"},{"length":48,"position":5232,"velocity":0.5039370078740157,"pitch":78,"id":"37cc0dec-246a-40f0-b52c-b4bcb3fc7ee9"},{"length":48,"position":5232,"velocity":0.5039370078740157,"pitch":66,"id":"1318eb95-4e45-410e-b91f-fd6d6a8cad0e"},{"length":48,"position":5280,"velocity":0.5039370078740157,"pitch":75,"id":"e30f1005-94a8-4375-b3c6-5551d00e527c"},{"length":48,"position":5280,"velocity":0.5039370078740157,"pitch":63,"id":"133a79d0-2b79-4a7b-bb33-69f34fe881c0"},{"length":48,"position":5328,"velocity":0.5039370078740157,"pitch":78,"id":"0eea3fa8-3b0c-47bc-9f23-c070a4d48e43"},{"length":48,"position":5328,"velocity":0.5039370078740157,"pitch":60,"id":"6855d095-2029-4249-9a91-02e0e3a71000"},{"length":48,"position":5376,"velocity":0.5039370078740157,"pitch":81,"id":"25b8a877-7a7e-4cec-a1a1-4f0686a46567"},{"length":48,"position":5376,"velocity":0.5039370078740157,"pitch":63,"id":"349b9f85-f9df-4f8f-95c4-c699fe341a7f"},{"length":48,"position":5424,"velocity":0.5039370078740157,"pitch":78,"id":"85480c76-1272-4944-becd-aa35e400eab2"},{"length":48,"position":5424,"velocity":0.5039370078740157,"pitch":60,"id":"0df0221a-8e0a-4768-951a-290fb858999f"},{"length":48,"position":5472,"velocity":0.5039370078740157,"pitch":81,"id":"d0c4993e-87f4-4440-8f9e-cbafad0a702e"},{"length":48,"position":5472,"velocity":0.5039370078740157,"pitch":57,"id":"ea338015-c6a8-4a1b-ad5d-97865f5203b1"},{"length":48,"position":5520,"velocity":0.5039370078740157,"pitch":84,"id":"b9c77e0d-3a93-4893-b357-9a4fbc9b8e9a"},{"length":48,"position":5520,"velocity":0.5039370078740157,"pitch":54,"id":"5b5641d1-a814-4209-bc1b-4491b1790c98"},{"length":48,"position":5568,"velocity":0.5039370078740157,"pitch":67,"id":"1eb0dc96-c218-4562-b0c6-92cb9109553f"},{"length":192,"position":5568,"velocity":0.5039370078740157,"pitch":55,"id":"7d685c9a-4834-44b8-97a4-ede787241097"},{"length":48,"position":5616,"velocity":0.5039370078740157,"pitch":70,"id":"5b6e8be9-00ad-40ac-b3fd-3b4b09e06fed"},{"length":48,"position":5664,"velocity":0.5039370078740157,"pitch":74,"id":"d950112d-98a3-4677-a0b9-5c027a550799"},{"length":48,"position":5712,"velocity":0.5039370078740157,"pitch":75,"id":"37274592-82bc-4596-90a1-ca3071718221"},{"length":48,"position":5760,"velocity":0.5039370078740157,"pitch":67,"id":"6a4cac6b-a04e-48e9-b9d5-8324431c5da4"},{"length":48,"position":5808,"velocity":0.5039370078740157,"pitch":70,"id":"2e3c49ae-815b-4cd1-87b8-f6a5ae637d6c"},{"length":48,"position":5856,"velocity":0.5039370078740157,"pitch":74,"id":"ac37bfb3-0793-4319-a7e7-e1d22aeefda1"},{"length":48,"position":5904,"velocity":0.5039370078740157,"pitch":75,"id":"add7a2fe-58cd-4435-9d92-e32809939f2b"},{"length":48,"position":5952,"velocity":0.5039370078740157,"pitch":67,"id":"da676ddd-f6b9-42cf-a888-c4ac80734d65"},{"length":192,"position":5952,"velocity":0.5039370078740157,"pitch":58,"id":"1a3dd2ea-51ff-4efa-8214-5133b6cc8f17"},{"length":48,"position":6000,"velocity":0.5039370078740157,"pitch":70,"id":"d4e4ab07-3067-4815-ab9f-bada0e348f6b"},{"length":48,"position":6048,"velocity":0.5039370078740157,"pitch":74,"id":"06c1597e-de2a-4d25-8cbf-402cfb08b4ad"},{"length":48,"position":6096,"velocity":0.5039370078740157,"pitch":75,"id":"d9cead6d-98b2-4ed9-bcd3-77e83cc3439e"},{"length":48,"position":6144,"velocity":0.5039370078740157,"pitch":67,"id":"fee81cfd-bd13-4839-afc1-b1db59f8f10c"},{"length":192,"position":6144,"velocity":0.5039370078740157,"pitch":62,"id":"eb029d51-4dcc-45c4-a8e3-94e14ca8aed3"},{"length":48,"position":6192,"velocity":0.5039370078740157,"pitch":70,"id":"6ab7599e-8f4f-4cf5-a986-036baa1700a2"},{"length":48,"position":6240,"velocity":0.5039370078740157,"pitch":74,"id":"d81d19f8-955c-4e43-ab99-552bae39cbc2"},{"length":48,"position":6288,"velocity":0.5039370078740157,"pitch":75,"id":"c9d682a2-e37a-488c-ab18-c267eb3c87e1"},{"length":48,"position":6336,"velocity":0.5039370078740157,"pitch":66,"id":"1e80477c-d66e-477c-855b-62353637f8ee"},{"length":192,"position":6336,"velocity":0.5039370078740157,"pitch":61,"id":"813d6a9e-7a2d-4041-8aef-c46d44afc92b"},{"length":48,"position":6384,"velocity":0.5039370078740157,"pitch":69,"id":"92d0c31e-4677-4edb-8e6c-f6be4ba37d24"},{"length":48,"position":6432,"velocity":0.5039370078740157,"pitch":74,"id":"9248dfc6-9653-405b-bfa5-f0289cdd8563"},{"length":48,"position":6480,"velocity":0.5039370078740157,"pitch":75,"id":"c0618be6-7aa0-43e4-81d2-7e01ef72d5cc"},{"length":48,"position":6528,"velocity":0.5039370078740157,"pitch":66,"id":"d9d54072-35cf-437a-9554-43f14ea40460"},{"length":192,"position":6528,"velocity":0.5039370078740157,"pitch":54,"id":"284d120b-f554-410a-8cc7-a9513c998d07"},{"length":48,"position":6576,"velocity":0.5039370078740157,"pitch":69,"id":"84fda2c2-a041-44f2-a23e-c6578fdcee12"},{"length":48,"position":6624,"velocity":0.5039370078740157,"pitch":74,"id":"bbe8cc6d-0ae7-49cc-9c95-a65cafd6cef4"},{"length":48,"position":6672,"velocity":0.5039370078740157,"pitch":75,"id":"026814e9-8bfa-4fc7-a4db-0c3a9025e6b1"},{"length":48,"position":6720,"velocity":0.5039370078740157,"pitch":66,"id":"508885fe-8009-4ded-a3a3-f2771abb56d7"},{"length":48,"position":6768,"velocity":0.5039370078740157,"pitch":69,"id":"3317b200-a05a-4174-9a47-90efc8176ec3"},{"length":48,"position":6816,"velocity":0.5039370078740157,"pitch":74,"id":"0ca1f39c-140f-4663-9c4b-9b83f8ac3327"},{"length":48,"position":6864,"velocity":0.5039370078740157,"pitch":75,"id":"189eca9e-d214-4755-b34d-4681a138d6b8"},{"length":48,"position":6912,"velocity":0.5039370078740157,"pitch":66,"id":"8af01d42-79d3-4b1f-a2ce-a93a8dde5c2c"},{"length":48,"position":6960,"velocity":0.5039370078740157,"pitch":69,"id":"85eb0cbd-4c6d-45e0-9aae-035b06018fde"},{"length":48,"position":7008,"velocity":0.5039370078740157,"pitch":74,"id":"ac113f31-fc87-4c98-aba5-6ddf4fc21097"},{"length":48,"position":7056,"velocity":0.5039370078740157,"pitch":75,"id":"432c8e6c-0d65-440f-8656-f0aba15a40d1"},{"length":48,"position":7104,"velocity":0.5039370078740157,"pitch":65,"id":"38ec7439-8b11-4baf-b1bd-cf927064e474"},{"length":192,"position":7104,"velocity":0.5039370078740157,"pitch":53,"id":"4b51ed4a-aa97-4b32-8fc3-97d39d8cb241"},{"length":48,"position":7152,"velocity":0.5039370078740157,"pitch":68,"id":"5d48e4a3-a0d5-4703-922b-64e73eed572b"},{"length":48,"position":7200,"velocity":0.5039370078740157,"pitch":74,"id":"16e7c536-65b1-49d0-ac7b-4dbcb70c1c4d"},{"length":48,"position":7248,"velocity":0.5039370078740157,"pitch":75,"id":"a32767c1-6d4d-434d-9f0c-72e300912e7a"},{"length":48,"position":7296,"velocity":0.5039370078740157,"pitch":65,"id":"1deb9417-09f2-435e-8c75-3062cc2b02ee"},{"length":48,"position":7344,"velocity":0.5039370078740157,"pitch":68,"id":"1cd0e7f3-4411-4745-b098-3ffc163556ea"},{"length":48,"position":7392,"velocity":0.5039370078740157,"pitch":74,"id":"d4b24777-3154-4f04-9cfe-b3abf3fc648b"},{"length":48,"position":7440,"velocity":0.5039370078740157,"pitch":75,"id":"e44de661-4830-4dab-a241-437192b4cd83"},{"length":48,"position":7488,"velocity":0.5039370078740157,"pitch":65,"id":"3c62d7f5-84fb-4dac-93ce-895fdc8fcdbe"},{"length":96,"position":7488,"velocity":0.5039370078740157,"pitch":53,"id":"6b6c061e-98fa-4efb-a27e-cad1e2b8b97d"},{"length":48,"position":7536,"velocity":0.5039370078740157,"pitch":68,"id":"b4cbe089-e5cd-4695-a829-1d0553b381d2"},{"length":48,"position":7584,"velocity":0.5039370078740157,"pitch":74,"id":"af367c92-e9a2-47f4-9f25-a860fe7f0f7f"},{"length":48,"position":7632,"velocity":0.5039370078740157,"pitch":75,"id":"baacceb9-8778-4ef0-a184-2eacbfdba9be"},{"length":48,"position":7632,"velocity":0.5039370078740157,"pitch":56,"id":"d971c51e-e2fa-44ac-afaa-4f6dbb4df992"},{"length":48,"position":7680,"velocity":0.5039370078740157,"pitch":65,"id":"bd0524f6-d758-42e2-9696-ef4b4b7b18a3"},{"length":48,"position":7728,"velocity":0.5039370078740157,"pitch":68,"id":"beb83a91-da0e-4664-ac9f-33adc0dbd348"},{"length":48,"position":7776,"velocity":0.5039370078740157,"pitch":74,"id":"f22db31f-53fa-463c-8fdd-ed2dbee6a95e"},{"length":96,"position":7776,"velocity":0.5039370078740157,"pitch":61,"id":"3d70d367-febf-4adf-8437-10aa754dad6f"},{"length":48,"position":7824,"velocity":0.5039370078740157,"pitch":75,"id":"d89d4cfb-b8c0-4a15-b030-03ca3473d09b"},{"length":48,"position":7872,"velocity":0.5039370078740157,"pitch":64,"id":"ec886353-29f5-4762-a4de-2ad8428e2d4e"},{"length":192,"position":7872,"velocity":0.5039370078740157,"pitch":60,"id":"41de486c-aec0-4025-94a7-aeeda93e939c"},{"length":48,"position":7920,"velocity":0.5039370078740157,"pitch":67,"id":"11a0768b-99ab-4eef-a020-b10882bad9ef"},{"length":48,"position":7968,"velocity":0.5039370078740157,"pitch":74,"id":"75c4b19e-e0f2-4c77-a842-998920f84ef2"},{"length":48,"position":8016,"velocity":0.5039370078740157,"pitch":75,"id":"f73ddf57-c67e-4bff-b595-5655979c30d5"},{"length":48,"position":8064,"velocity":0.5039370078740157,"pitch":64,"id":"9eac791a-7b39-4303-b782-365c531d36bb"},{"length":192,"position":8064,"velocity":0.5039370078740157,"pitch":52,"id":"0186753f-0db5-40b6-9d6b-b011c3d61bfd"},{"length":48,"position":8112,"velocity":0.5039370078740157,"pitch":67,"id":"f97861fb-b571-45ec-bf8f-9d5e42f165b1"},{"length":48,"position":8160,"velocity":0.5039370078740157,"pitch":74,"id":"6d760d82-53e3-4f09-a7b8-bbef13850373"},{"length":48,"position":8208,"velocity":0.5039370078740157,"pitch":75,"id":"79b5dd08-87d1-4ed2-9902-f5e4379d13d5"},{"length":48,"position":8256,"velocity":0.5039370078740157,"pitch":64,"id":"5962c917-c556-4348-a110-b4434ef6924d"},{"length":48,"position":8304,"velocity":0.5039370078740157,"pitch":67,"id":"bb798806-0a40-419a-84e6-108de37a786c"},{"length":48,"position":8352,"velocity":0.5039370078740157,"pitch":74,"id":"e6b2587e-b416-42ea-bbb2-0bc42772040a"},{"length":48,"position":8400,"velocity":0.5039370078740157,"pitch":75,"id":"67828dce-d481-4618-aa7f-2ff985bd1664"},{"length":48,"position":8448,"velocity":0.5039370078740157,"pitch":64,"id":"3a97f769-3ec6-4c22-b60b-40407f8cf918"},{"length":48,"position":8496,"velocity":0.5039370078740157,"pitch":67,"id":"b02bf52d-c8d4-447f-bc07-47461652ef11"},{"length":48,"position":8544,"velocity":0.5039370078740157,"pitch":74,"id":"72772a02-6546-4624-8c1f-9a8f4dcf6ace"},{"length":48,"position":8592,"velocity":0.5039370078740157,"pitch":75,"id":"217273a4-749c-4ea1-ba5e-cdc01c9f1546"},{"length":48,"position":8640,"velocity":0.5039370078740157,"pitch":63,"id":"ca1d1e01-1e0a-455c-8a7a-599d3c1849ed"},{"length":48,"position":8640,"velocity":0.5039370078740157,"pitch":51,"id":"63bee7c1-4b2c-4376-bd27-eaec173e8958"},{"length":48,"position":8688,"velocity":0.5039370078740157,"pitch":67,"id":"184202c5-53c1-4c8e-b411-1266ba301f42"},{"length":48,"position":8688,"velocity":0.5039370078740157,"pitch":50,"id":"0f08e261-7c36-4d48-be42-1af0eb05e05b"},{"length":48,"position":8736,"velocity":0.5039370078740157,"pitch":72,"id":"9aa55a40-43b4-4d21-88e1-fd9cbf4ca5fa"},{"length":192,"position":8736,"velocity":0.5039370078740157,"pitch":51,"id":"53b84610-ff10-4943-9cd9-e4ae5023ec53"},{"length":48,"position":8784,"velocity":0.5039370078740157,"pitch":74,"id":"24e87a4c-70cd-4296-aeec-c14913c2d012"},{"length":48,"position":8832,"velocity":0.5039370078740157,"pitch":63,"id":"12beefa7-3bb2-4d73-8dac-a86e5f52513b"},{"length":48,"position":8880,"velocity":0.5039370078740157,"pitch":67,"id":"c1ed5e4f-21ae-40db-b125-91128968708d"},{"length":48,"position":8928,"velocity":0.5039370078740157,"pitch":72,"id":"7c73a36b-0c8b-4a6e-aac6-0ae9c334ddbd"},{"length":48,"position":8976,"velocity":0.5039370078740157,"pitch":74,"id":"9f967dd9-0222-421a-aaa6-dcbbaf1c2035"},{"length":48,"position":9024,"velocity":0.5039370078740157,"pitch":63,"id":"157e2e8c-a35c-46aa-8910-63c493356cb1"},{"length":96,"position":9024,"velocity":0.5039370078740157,"pitch":55,"id":"1d67a7b4-16bc-49a7-a24b-14ccf5d3971a"},{"length":48,"position":9072,"velocity":0.5039370078740157,"pitch":67,"id":"7cc45904-2e9f-437a-ad51-c7cb3ba40e93"},{"length":48,"position":9120,"velocity":0.5039370078740157,"pitch":72,"id":"54661bfb-8c3a-412e-8902-45f81a26306a"},{"length":48,"position":9168,"velocity":0.5039370078740157,"pitch":74,"id":"94d98330-0f7d-471d-9aae-80484fecb8b1"},{"length":48,"position":9168,"velocity":0.5039370078740157,"pitch":63,"id":"43dab7d7-75b6-4c93-b64c-edaf7bada778"},{"length":48,"position":9216,"velocity":0.5039370078740157,"pitch":63,"id":"d862702c-f867-4574-b706-34f0ee145968"},{"length":48,"position":9264,"velocity":0.5039370078740157,"pitch":67,"id":"91513260-2396-4fa9-804e-ed16553f2421"},{"length":48,"position":9312,"velocity":0.5039370078740157,"pitch":72,"id":"a7fcfc6f-3479-4ae2-a477-bbba39a0bf74"},{"length":96,"position":9312,"velocity":0.5039370078740157,"pitch":62,"id":"d0360b05-821e-4eaa-a82a-14505d5a01e8"},{"length":48,"position":9360,"velocity":0.5039370078740157,"pitch":74,"id":"9c84883c-9bc3-4f1f-8f04-d8f5f6f0adbb"},{"length":48,"position":9408,"velocity":0.5039370078740157,"pitch":62,"id":"32833208-0220-4e7d-976f-a55864aa4dbb"},{"length":48,"position":9408,"velocity":0.5039370078740157,"pitch":50,"id":"80a1992a-f43e-4029-b3d5-3a374b9a288d"},{"length":48,"position":9456,"velocity":0.5039370078740157,"pitch":67,"id":"72022f35-22c4-4b62-96f6-a8dbfd559e82"},{"length":48,"position":9456,"velocity":0.5039370078740157,"pitch":49,"id":"3d85b9d2-55e6-41e9-a954-35de9b6e4031"},{"length":48,"position":9504,"velocity":0.5039370078740157,"pitch":72,"id":"159dfb29-fd91-4411-9853-efaf0234f5d9"},{"length":192,"position":9504,"velocity":0.5039370078740157,"pitch":50,"id":"57ad5cf1-c942-4320-9bed-3a8bd0f13d32"},{"length":48,"position":9552,"velocity":0.5039370078740157,"pitch":74,"id":"25bd4403-fabe-44eb-b768-7a2749e97ddc"},{"length":48,"position":9600,"velocity":0.5039370078740157,"pitch":62,"id":"687e0981-d99c-4aea-97a2-7f84b55a9e4e"},{"length":48,"position":9648,"velocity":0.5039370078740157,"pitch":67,"id":"8f4184a1-2e60-4f11-bdc8-b7098769490f"},{"length":48,"position":9696,"velocity":0.5039370078740157,"pitch":72,"id":"ee549255-5914-4dbc-b9a6-2862b48d116f"},{"length":48,"position":9744,"velocity":0.5039370078740157,"pitch":74,"id":"7515d103-7e4b-46d5-bcbf-7709eb1f8289"},{"length":48,"position":9792,"velocity":0.5039370078740157,"pitch":62,"id":"46b59e1a-c693-4790-9130-5b180d703f6e"},{"length":96,"position":9792,"velocity":0.5039370078740157,"pitch":55,"id":"c2a98fb7-f3b0-463b-a2b2-799099900742"},{"length":48,"position":9840,"velocity":0.5039370078740157,"pitch":67,"id":"8f0d5ce4-bcf6-493e-9573-4c3b913bfcbb"},{"length":48,"position":9888,"velocity":0.5039370078740157,"pitch":72,"id":"b77624ef-403c-40e0-a9ba-d0b8b8a67a71"},{"length":48,"position":9936,"velocity":0.5039370078740157,"pitch":74,"id":"01ae52b5-a5fb-44e7-ae08-8eb36201ed09"},{"length":48,"position":9936,"velocity":0.5039370078740157,"pitch":62,"id":"ea9e0da5-6951-469f-af46-44af6b878d2d"},{"length":48,"position":9984,"velocity":0.5039370078740157,"pitch":62,"id":"3ae5bac2-3b6b-47cb-9d23-c447d3865663"},{"length":48,"position":10032,"velocity":0.5039370078740157,"pitch":67,"id":"c894051a-5858-47f5-ba45-a4e39517a8d5"},{"length":48,"position":10080,"velocity":0.5039370078740157,"pitch":72,"id":"f8663b4e-5033-4762-af32-967099f8fe09"},{"length":96,"position":10080,"velocity":0.5039370078740157,"pitch":61,"id":"2e1931f0-5726-4be7-94a4-248941da6ad5"},{"length":48,"position":10128,"velocity":0.5039370078740157,"pitch":74,"id":"8c861e0d-17d9-4c33-9ce3-d886a8879e42"},{"length":48,"position":10176,"velocity":0.5039370078740157,"pitch":60,"id":"f9ec8422-e201-4ebd-9d39-5c65d4654c13"},{"length":48,"position":10176,"velocity":0.5039370078740157,"pitch":50,"id":"e1e0c2e0-b1ab-43a2-8f96-b3c3300af259"},{"length":48,"position":10224,"velocity":0.5039370078740157,"pitch":66,"id":"0091e5b7-73fb-497a-909b-3e056e7e150a"},{"length":48,"position":10224,"velocity":0.5039370078740157,"pitch":54,"id":"f0a19020-2bab-4107-bd08-c359d969519f"},{"length":48,"position":10272,"velocity":0.5039370078740157,"pitch":69,"id":"8c7cc541-6c0d-4a0f-bb31-0409b94d3dff"},{"length":48,"position":10272,"velocity":0.5039370078740157,"pitch":57,"id":"6681bb9f-334e-4942-af3b-3bb35e7c7a95"},{"length":48,"position":10320,"velocity":0.5039370078740157,"pitch":72,"id":"848cb9df-e4ef-4d88-a52c-cf64bbb956fc"},{"length":48,"position":10320,"velocity":0.5039370078740157,"pitch":54,"id":"a238b021-5ec6-4b14-8188-de6e241e4dec"},{"length":48,"position":10368,"velocity":0.5039370078740157,"pitch":66,"id":"d0eecee1-b8ca-43c4-9449-e1deadba9492"},{"length":48,"position":10368,"velocity":0.5039370078740157,"pitch":57,"id":"7a4fc0be-7434-4adc-a5e7-e8923ca6d81f"},{"length":48,"position":10416,"velocity":0.5039370078740157,"pitch":69,"id":"5c5609ab-ddd1-4ae8-9e05-82117fc9a311"},{"length":48,"position":10416,"velocity":0.5039370078740157,"pitch":60,"id":"b0edfaf4-9a57-42ae-a96b-ac03da9e1177"},{"length":48,"position":10464,"velocity":0.5039370078740157,"pitch":72,"id":"a0c56b7f-a9c9-4745-99e3-57636e3f36c8"},{"length":48,"position":10464,"velocity":0.5039370078740157,"pitch":57,"id":"329a15b9-767d-4b90-9ca7-943a92fff422"},{"length":48,"position":10512,"velocity":0.5039370078740157,"pitch":75,"id":"767bebd0-186d-4a97-8f73-69fe35b846b9"},{"length":48,"position":10512,"velocity":0.5039370078740157,"pitch":60,"id":"83f1304f-66c5-4587-9b0d-69613195836a"},{"length":48,"position":10560,"velocity":0.5039370078740157,"pitch":69,"id":"73792fa1-ee82-4b08-94e5-160e8f5b7bf1"},{"length":48,"position":10560,"velocity":0.5039370078740157,"pitch":63,"id":"a9fc5f47-e054-4acf-afa7-f51fe807925e"},{"length":48,"position":10608,"velocity":0.5039370078740157,"pitch":72,"id":"ca132032-ef0a-4f64-8943-d84e6623ea96"},{"length":48,"position":10608,"velocity":0.5039370078740157,"pitch":60,"id":"d6551d05-3651-44a9-a0b0-1e45ee320ec6"},{"length":48,"position":10656,"velocity":0.5039370078740157,"pitch":75,"id":"19edd954-f13b-4009-9c2c-c2f7eb8abac3"},{"length":48,"position":10656,"velocity":0.5039370078740157,"pitch":63,"id":"e36c9b08-877f-47b5-a2a9-66f820771724"},{"length":48,"position":10704,"velocity":0.5039370078740157,"pitch":72,"id":"36db01ed-9585-45af-81aa-2d9b21d4b129"},{"length":48,"position":10704,"velocity":0.5039370078740157,"pitch":66,"id":"0c17cc31-c6e2-4ebf-acc6-c9579016deb2"},{"length":48,"position":10752,"velocity":0.5039370078740157,"pitch":75,"id":"0b96b06b-8b4b-403a-9610-5941e8b18e7f"},{"length":48,"position":10752,"velocity":0.5039370078740157,"pitch":69,"id":"1e6f24c5-6b0d-4938-b8cc-ccc790a059b0"},{"length":48,"position":10800,"velocity":0.5039370078740157,"pitch":78,"id":"67034ff7-362b-4d95-b02c-ad08171c4f41"},{"length":48,"position":10800,"velocity":0.5039370078740157,"pitch":66,"id":"d26cf7c8-9689-4fb4-9a6b-8c18cf644b70"},{"length":48,"position":10848,"velocity":0.5039370078740157,"pitch":75,"id":"dcb40716-662f-4a99-a8f8-bcc699af3e9a"},{"length":48,"position":10848,"velocity":0.5039370078740157,"pitch":63,"id":"783e23de-fd00-4a4d-a8c6-c94189d4392b"},{"length":48,"position":10896,"velocity":0.5039370078740157,"pitch":78,"id":"1e3d348e-754e-458a-b5a7-9b13f7bb9de3"},{"length":48,"position":10896,"velocity":0.5039370078740157,"pitch":60,"id":"1f3caef8-7bc4-497f-b055-8146279e9ea5"},{"length":48,"position":10944,"velocity":0.5039370078740157,"pitch":81,"id":"cd089a52-99f5-4160-94ee-161187ad5790"},{"length":48,"position":10944,"velocity":0.5039370078740157,"pitch":63,"id":"30a14d7e-a657-4015-b9e3-5a80a2d00f2d"},{"length":48,"position":10992,"velocity":0.5039370078740157,"pitch":78,"id":"2ef2830b-7906-4ed7-8d43-a45a81827f50"},{"length":48,"position":10992,"velocity":0.5039370078740157,"pitch":60,"id":"c9b65bb7-78d9-44d8-826a-acefc0719d79"},{"length":48,"position":11040,"velocity":0.5039370078740157,"pitch":81,"id":"ba839085-7034-4d78-9f5e-9ab8f81bde86"},{"length":48,"position":11040,"velocity":0.5039370078740157,"pitch":57,"id":"a0a55400-cf49-4e5d-93bd-20a6e55e6048"},{"length":48,"position":11088,"velocity":0.5039370078740157,"pitch":84,"id":"1c7eb974-3066-4728-b123-3113300505f8"},{"length":48,"position":11088,"velocity":0.5039370078740157,"pitch":54,"id":"50551553-7a0d-41d5-8f1f-a02d4e921648"}],"timing":{"pulsesContentPosition":0,"pulsesLength":11136},"type":"N"}]}}],"audioMetaData":{},"audioFiles":[],"transportRange":[0,11160]}